%TF.GenerationSoftware,KiCad,Pcbnew,(5.1.5)-3*%
%TF.CreationDate,2020-11-01T10:27:24+01:00*%
%TF.ProjectId,PmodDAC,506d6f64-4441-4432-9e6b-696361645f70,v0.2*%
%TF.SameCoordinates,Original*%
%TF.FileFunction,Copper,L2,Inr*%
%TF.FilePolarity,Positive*%
%FSLAX46Y46*%
G04 Gerber Fmt 4.6, Leading zero omitted, Abs format (unit mm)*
G04 Created by KiCad (PCBNEW (5.1.5)-3) date 2020-11-01 10:27:24*
%MOMM*%
%LPD*%
G04 APERTURE LIST*
%TA.AperFunction,ViaPad*%
%ADD10C,1.200000*%
%TD*%
%TA.AperFunction,ViaPad*%
%ADD11R,1.200000X1.200000*%
%TD*%
%TA.AperFunction,WasherPad*%
%ADD12C,4.000000*%
%TD*%
%TA.AperFunction,ViaPad*%
%ADD13C,1.800000*%
%TD*%
%TA.AperFunction,ViaPad*%
%ADD14C,0.600000*%
%TD*%
%TA.AperFunction,ViaPad*%
%ADD15O,1.700000X1.700000*%
%TD*%
%TA.AperFunction,ViaPad*%
%ADD16R,1.700000X1.700000*%
%TD*%
%TA.AperFunction,ViaPad*%
%ADD17C,0.800000*%
%TD*%
%TA.AperFunction,ViaPad*%
%ADD18C,0.550000*%
%TD*%
%TA.AperFunction,Conductor*%
%ADD19C,0.250000*%
%TD*%
%TA.AperFunction,Conductor*%
%ADD20C,1.000000*%
%TD*%
%TA.AperFunction,Conductor*%
%ADD21C,0.750000*%
%TD*%
G04 APERTURE END LIST*
D10*
%TO.N,Net-(C16-Pad2)*%
%TO.C,C16*%
X-111760000Y-79375000D03*
D11*
%TO.N,/DI*%
X-111760000Y-77875000D03*
%TD*%
D12*
%TO.N,*%
%TO.C,R40*%
X-116085000Y-87285000D03*
X-116085000Y-96785000D03*
D13*
%TO.N,Net-(C16-Pad2)*%
X-108585000Y-89535000D03*
%TO.N,Net-(R40-Pad2)*%
X-108585000Y-92035000D03*
%TO.N,GNDA*%
X-108585000Y-94535000D03*
%TD*%
D10*
%TO.N,Net-(C33-Pad2)*%
%TO.C,C33*%
X-119380000Y-79375000D03*
D11*
%TO.N,Net-(C23-Pad1)*%
X-119380000Y-77875000D03*
%TD*%
D14*
%TO.N,GND*%
%TO.C,U4*%
X-129540000Y-23495000D03*
X-130400000Y-23975000D03*
X-128680000Y-23975000D03*
X-130400000Y-23015000D03*
X-128680000Y-23015000D03*
%TD*%
D15*
%TO.N,+3V3*%
%TO.C,J3*%
X-121920000Y-24130000D03*
X-121920000Y-21590000D03*
%TO.N,GNDA*%
X-119380000Y-24130000D03*
%TO.N,GND*%
X-119380000Y-21590000D03*
%TO.N,N/C*%
X-116840000Y-24130000D03*
X-116840000Y-21590000D03*
X-114300000Y-24130000D03*
%TO.N,/DAC_S_3V*%
X-114300000Y-21590000D03*
%TO.N,N/C*%
X-111760000Y-24130000D03*
%TO.N,/DAC_C_3V*%
X-111760000Y-21590000D03*
%TO.N,N/C*%
X-109220000Y-24130000D03*
D16*
%TO.N,/DAC_L_3V*%
X-109220000Y-21590000D03*
%TD*%
D15*
%TO.N,Net-(J1-Pad2)*%
%TO.C,J1*%
X-132715000Y-94615000D03*
D16*
%TO.N,GNDA*%
X-132715000Y-97155000D03*
%TD*%
D17*
%TO.N,GND*%
X-133985000Y-35560000D03*
X-133985000Y-31750000D03*
X-131445000Y-31750000D03*
X-125730000Y-29210000D03*
X-127000000Y-36850010D03*
X-117475000Y-29845000D03*
X-127000000Y-34290000D03*
X-124460000Y-36195000D03*
X-119380000Y-35560000D03*
X-127635000Y-20955000D03*
X-117475000Y-46355000D03*
X-124460000Y-47625000D03*
X-132080000Y-45815002D03*
X-120396000Y-35560000D03*
%TO.N,+3V3*%
X-132080000Y-22225000D03*
X-133350000Y-22225000D03*
X-134599990Y-22225000D03*
X-134599990Y-22225000D03*
%TO.N,/Vref_5V*%
X-123190000Y-55880000D03*
X-109855000Y-52705000D03*
X-114784948Y-53340000D03*
D18*
%TO.N,Net-(C23-Pad1)*%
X-123825000Y-77470000D03*
X-127635000Y-77470000D03*
D17*
%TO.N,+9V*%
X-116205000Y-72390000D03*
X-122555000Y-72390000D03*
X-108585000Y-43180000D03*
X-108585000Y-41910000D03*
X-114935000Y-48895000D03*
%TO.N,-5V*%
X-114300000Y-65405000D03*
X-129540000Y-40640000D03*
X-129540000Y-39370000D03*
X-131445000Y-65405000D03*
D18*
%TO.N,+5V*%
X-118110000Y-45720000D03*
D17*
X-123190000Y-52070000D03*
X-131445000Y-52070000D03*
D18*
X-125693563Y-46408402D03*
D17*
X-107950000Y-37465000D03*
X-109855000Y-37465000D03*
X-126365000Y-32385000D03*
D18*
%TO.N,Net-(R2-Pad1)*%
X-127000000Y-25400000D03*
X-125095000Y-22225000D03*
%TO.N,Net-(U1-Pad9)*%
X-120650000Y-46639998D03*
X-125095000Y-46990000D03*
%TO.N,Net-(U1-Pad15)*%
X-129540000Y-51435000D03*
X-129540000Y-47035013D03*
%TO.N,Net-(U2-Pad15)*%
X-121920000Y-51435000D03*
X-121920000Y-47170008D03*
D17*
%TO.N,GNDA*%
X-108331000Y-78867000D03*
X-108331000Y-72771000D03*
X-108331000Y-66802000D03*
X-108204000Y-60579000D03*
X-108331000Y-48514000D03*
X-111760000Y-44831000D03*
X-117729000Y-44831000D03*
X-123825000Y-44831000D03*
X-129667000Y-44831000D03*
X-133477000Y-48514000D03*
X-133477000Y-60706000D03*
X-133477000Y-66802000D03*
X-133477000Y-72771000D03*
X-133477000Y-78740000D03*
X-129794000Y-82677000D03*
X-123825000Y-82677000D03*
X-117729000Y-82677000D03*
X-119380000Y-62230000D03*
X-114300000Y-54610000D03*
D18*
X-130810000Y-60960000D03*
D17*
X-123918328Y-52798328D03*
X-112395000Y-46375010D03*
X-120015000Y-40005000D03*
X-115570000Y-52705000D03*
X-125095000Y-55880000D03*
X-131445000Y-53975000D03*
X-127635000Y-63500000D03*
X-131445000Y-76200000D03*
X-124460000Y-74295000D03*
X-132080000Y-71755000D03*
X-114935000Y-77470000D03*
X-114935000Y-75565000D03*
X-118745000Y-75565000D03*
X-122555000Y-69850000D03*
X-116840000Y-66675000D03*
X-111760000Y-66675000D03*
X-111125000Y-26670000D03*
X-107950000Y-30480000D03*
X-110490000Y-34290000D03*
X-110490000Y-40640000D03*
X-118110000Y-41910000D03*
X-114300000Y-38735000D03*
X-122555000Y-41275000D03*
X-130175000Y-66675000D03*
X-127614990Y-41275000D03*
X-111760000Y-82677000D03*
D18*
%TO.N,/1F*%
X-132080000Y-74930000D03*
X-126365000Y-71120000D03*
%TO.N,Net-(J1-Pad2)*%
X-130175000Y-81280000D03*
X-130175000Y-88900000D03*
%TO.N,/DAC_S_3V*%
X-130175000Y-33020000D03*
%TO.N,/DAC_C_3V*%
X-128905000Y-32385000D03*
%TO.N,/DAC_L_3V*%
X-127635000Y-33020000D03*
%TO.N,Net-(JP1-Pad2)*%
X-123190000Y-74930000D03*
X-131399987Y-74930000D03*
%TO.N,Net-(R40-Pad2)*%
X-116205000Y-68580000D03*
%TO.N,/DAC_C*%
X-118750177Y-46344030D03*
X-126370418Y-46343048D03*
X-125095000Y-38735000D03*
%TO.N,/DAC_L*%
X-120015000Y-45720000D03*
X-127635000Y-45720000D03*
X-131445000Y-38735000D03*
%TO.N,/DAC_S*%
X-129540000Y-46355000D03*
X-128847726Y-38042726D03*
%TD*%
D19*
%TO.N,/Vref_5V*%
X-110490000Y-53340000D02*
X-109855000Y-52705000D01*
X-114784948Y-53340000D02*
X-110490000Y-53340000D01*
X-122624315Y-55880000D02*
X-123190000Y-55880000D01*
X-116759263Y-55880000D02*
X-122624315Y-55880000D01*
X-114784948Y-53905685D02*
X-116759263Y-55880000D01*
X-114784948Y-53340000D02*
X-114784948Y-53905685D01*
D20*
%TO.N,+9V*%
X-116205000Y-72390000D02*
X-122555000Y-72390000D01*
X-109855000Y-49530000D02*
X-112395000Y-49530000D01*
X-109855000Y-49530000D02*
X-109855000Y-45085000D01*
X-109855000Y-45085000D02*
X-108585000Y-43815000D01*
X-108585000Y-43815000D02*
X-108585000Y-43180000D01*
X-108585000Y-43815000D02*
X-108585000Y-41910000D01*
X-114300000Y-49530000D02*
X-114935000Y-48895000D01*
X-111125000Y-49530000D02*
X-114300000Y-49530000D01*
D21*
X-109855000Y-49530000D02*
X-111125000Y-49530000D01*
D20*
X-109855000Y-49530000D02*
X-107950000Y-51435000D01*
X-113665000Y-72390000D02*
X-116205000Y-72390000D01*
X-107950000Y-51435000D02*
X-107950000Y-52959000D01*
X-110363000Y-55372000D02*
X-110363000Y-69088000D01*
X-107950000Y-52959000D02*
X-110363000Y-55372000D01*
X-110363000Y-69088000D02*
X-113665000Y-72390000D01*
D21*
%TO.N,-5V*%
X-130810000Y-40640000D02*
X-129540000Y-40640000D01*
D20*
X-130810000Y-40640000D02*
X-129540000Y-39370000D01*
X-114300000Y-65405000D02*
X-131445000Y-65405000D01*
X-131445000Y-65405000D02*
X-131445000Y-63500000D01*
X-131445000Y-63500000D02*
X-132080000Y-62865000D01*
X-132080000Y-55880000D02*
X-133350000Y-54610000D01*
X-132080000Y-62865000D02*
X-132080000Y-55880000D01*
X-133350000Y-51435000D02*
X-133350000Y-50800000D01*
X-133350000Y-54610000D02*
X-133350000Y-51435000D01*
X-133350000Y-50800000D02*
X-132080000Y-49530000D01*
X-132080000Y-49530000D02*
X-132080000Y-48260000D01*
X-130810000Y-46990000D02*
X-130810000Y-40640000D01*
X-132080000Y-48260000D02*
X-130810000Y-46990000D01*
D21*
%TO.N,+5V*%
X-130764682Y-51531465D02*
X-130764682Y-50754682D01*
X-130764682Y-50754682D02*
X-130175000Y-50165000D01*
X-130175000Y-50165000D02*
X-127000000Y-50165000D01*
X-127000000Y-50165000D02*
X-126365000Y-49530000D01*
X-123144682Y-50845318D02*
X-123144682Y-51531465D01*
X-124460000Y-49530000D02*
X-123144682Y-50845318D01*
X-126365000Y-49530000D02*
X-125730000Y-49530000D01*
X-125730000Y-49530000D02*
X-124460000Y-49530000D01*
D20*
X-123144682Y-51531465D02*
X-123144682Y-52024682D01*
X-123144682Y-52024682D02*
X-123190000Y-52070000D01*
X-130764682Y-50754682D02*
X-130764682Y-51389682D01*
X-130764682Y-51389682D02*
X-131445000Y-52070000D01*
D19*
X-121143217Y-49530000D02*
X-120015000Y-49530000D01*
X-118130001Y-46128909D02*
X-118110000Y-46108908D01*
X-120015000Y-49530000D02*
X-118130001Y-47645001D01*
X-123144682Y-51531465D02*
X-121143217Y-49530000D01*
X-118110000Y-46108908D02*
X-118110000Y-45720000D01*
X-118130001Y-47645001D02*
X-118130001Y-46128909D01*
X-125693563Y-46797310D02*
X-125693563Y-46408402D01*
X-125693563Y-49493563D02*
X-125693563Y-46797310D01*
X-125730000Y-49530000D02*
X-125693563Y-49493563D01*
D20*
X-111125000Y-36195000D02*
X-109855000Y-36195000D01*
X-109855000Y-36195000D02*
X-109220000Y-36195000D01*
X-109220000Y-36195000D02*
X-107950000Y-37465000D01*
D21*
X-109220000Y-36830000D02*
X-109855000Y-37465000D01*
X-109220000Y-36195000D02*
X-109220000Y-36830000D01*
D20*
X-111125000Y-36195000D02*
X-113030000Y-36195000D01*
X-113030000Y-36195000D02*
X-116840000Y-32385000D01*
X-116840000Y-32385000D02*
X-126365000Y-32385000D01*
X-112395000Y-40640000D02*
X-112395000Y-37465000D01*
X-123190000Y-46355000D02*
X-119888000Y-43053000D01*
X-119888000Y-43053000D02*
X-115316000Y-43053000D01*
X-112395000Y-37465000D02*
X-111125000Y-36195000D01*
X-123190000Y-52070000D02*
X-123190000Y-46355000D01*
X-115316000Y-43053000D02*
X-112395000Y-40640000D01*
%TD*%
M02*
