%TF.GenerationSoftware,KiCad,Pcbnew,(5.1.5)-3*%
%TF.CreationDate,2020-11-01T10:27:24+01:00*%
%TF.ProjectId,PmodDAC,506d6f64-4441-4432-9e6b-696361645f70,v0.2*%
%TF.SameCoordinates,Original*%
%TF.FileFunction,Copper,L4,Bot*%
%TF.FilePolarity,Positive*%
%FSLAX46Y46*%
G04 Gerber Fmt 4.6, Leading zero omitted, Abs format (unit mm)*
G04 Created by KiCad (PCBNEW (5.1.5)-3) date 2020-11-01 10:27:24*
%MOMM*%
%LPD*%
G04 APERTURE LIST*
%TA.AperFunction,ComponentPad*%
%ADD10C,1.200000*%
%TD*%
%TA.AperFunction,ComponentPad*%
%ADD11R,1.200000X1.200000*%
%TD*%
%TA.AperFunction,WasherPad*%
%ADD12C,4.000000*%
%TD*%
%TA.AperFunction,ComponentPad*%
%ADD13C,1.800000*%
%TD*%
%TA.AperFunction,Conductor*%
%ADD14R,2.400000X1.650000*%
%TD*%
%TA.AperFunction,ViaPad*%
%ADD15C,0.600000*%
%TD*%
%TA.AperFunction,ComponentPad*%
%ADD16O,1.700000X1.700000*%
%TD*%
%TA.AperFunction,ComponentPad*%
%ADD17R,1.700000X1.700000*%
%TD*%
%TA.AperFunction,ViaPad*%
%ADD18C,0.800000*%
%TD*%
%TA.AperFunction,ViaPad*%
%ADD19C,0.550000*%
%TD*%
%TA.AperFunction,Conductor*%
%ADD20C,1.000000*%
%TD*%
%TA.AperFunction,Conductor*%
%ADD21C,0.500000*%
%TD*%
%TA.AperFunction,Conductor*%
%ADD22C,0.250000*%
%TD*%
%TA.AperFunction,Conductor*%
%ADD23C,0.127000*%
%TD*%
G04 APERTURE END LIST*
D10*
%TO.P,C16,2*%
%TO.N,Net-(C16-Pad2)*%
X-111760000Y-79375000D03*
D11*
%TO.P,C16,1*%
%TO.N,/DI*%
X-111760000Y-77875000D03*
%TD*%
D12*
%TO.P,R40,*%
%TO.N,*%
X-116085000Y-87285000D03*
X-116085000Y-96785000D03*
D13*
%TO.P,R40,1*%
%TO.N,Net-(C16-Pad2)*%
X-108585000Y-89535000D03*
%TO.P,R40,2*%
%TO.N,Net-(R40-Pad2)*%
X-108585000Y-92035000D03*
%TO.P,R40,3*%
%TO.N,GNDA*%
X-108585000Y-94535000D03*
%TD*%
D10*
%TO.P,C33,2*%
%TO.N,Net-(C33-Pad2)*%
X-119380000Y-79375000D03*
D11*
%TO.P,C33,1*%
%TO.N,Net-(C23-Pad1)*%
X-119380000Y-77875000D03*
%TD*%
D14*
%TO.N,GND*%
%TO.C,U4*%
X-129540000Y-23495000D03*
D15*
X-129540000Y-23495000D03*
X-130400000Y-23975000D03*
X-128680000Y-23975000D03*
X-130400000Y-23015000D03*
X-128680000Y-23015000D03*
%TD*%
D16*
%TO.P,J3,12*%
%TO.N,+3V3*%
X-121920000Y-24130000D03*
%TO.P,J3,11*%
X-121920000Y-21590000D03*
%TO.P,J3,10*%
%TO.N,GNDA*%
X-119380000Y-24130000D03*
%TO.P,J3,9*%
%TO.N,GND*%
X-119380000Y-21590000D03*
%TO.P,J3,8*%
%TO.N,N/C*%
X-116840000Y-24130000D03*
%TO.P,J3,7*%
X-116840000Y-21590000D03*
%TO.P,J3,6*%
X-114300000Y-24130000D03*
%TO.P,J3,5*%
%TO.N,/DAC_S_3V*%
X-114300000Y-21590000D03*
%TO.P,J3,4*%
%TO.N,N/C*%
X-111760000Y-24130000D03*
%TO.P,J3,3*%
%TO.N,/DAC_C_3V*%
X-111760000Y-21590000D03*
%TO.P,J3,2*%
%TO.N,N/C*%
X-109220000Y-24130000D03*
D17*
%TO.P,J3,1*%
%TO.N,/DAC_L_3V*%
X-109220000Y-21590000D03*
%TD*%
D16*
%TO.P,J1,2*%
%TO.N,Net-(J1-Pad2)*%
X-132715000Y-94615000D03*
D17*
%TO.P,J1,1*%
%TO.N,GNDA*%
X-132715000Y-97155000D03*
%TD*%
D18*
%TO.N,GND*%
X-133985000Y-35560000D03*
X-133985000Y-31750000D03*
X-131445000Y-31750000D03*
X-125730000Y-29210000D03*
X-127000000Y-36850010D03*
X-117475000Y-29845000D03*
X-127000000Y-34290000D03*
X-124460000Y-36195000D03*
X-119380000Y-35560000D03*
X-127635000Y-20955000D03*
X-117475000Y-46355000D03*
X-124460000Y-47625000D03*
X-132080000Y-45815002D03*
X-120396000Y-35560000D03*
%TO.N,+3V3*%
X-132080000Y-22225000D03*
X-133350000Y-22225000D03*
X-134599990Y-22225000D03*
X-134599990Y-22225000D03*
%TO.N,/Vref_5V*%
X-123190000Y-55880000D03*
X-109855000Y-52705000D03*
X-114784948Y-53340000D03*
D19*
%TO.N,Net-(C23-Pad1)*%
X-123825000Y-77470000D03*
X-127635000Y-77470000D03*
D18*
%TO.N,+9V*%
X-116205000Y-72390000D03*
X-122555000Y-72390000D03*
X-108585000Y-43180000D03*
X-108585000Y-41910000D03*
X-114935000Y-48895000D03*
%TO.N,-5V*%
X-114300000Y-65405000D03*
X-129540000Y-40640000D03*
X-129540000Y-39370000D03*
X-131445000Y-65405000D03*
D19*
%TO.N,+5V*%
X-118110000Y-45720000D03*
D18*
X-123190000Y-52070000D03*
X-131445000Y-52070000D03*
D19*
X-125693563Y-46408402D03*
D18*
X-107950000Y-37465000D03*
X-109855000Y-37465000D03*
X-126365000Y-32385000D03*
D19*
%TO.N,Net-(R2-Pad1)*%
X-127000000Y-25400000D03*
X-125095000Y-22225000D03*
%TO.N,Net-(U1-Pad9)*%
X-120650000Y-46639998D03*
X-125095000Y-46990000D03*
%TO.N,Net-(U1-Pad15)*%
X-129540000Y-51435000D03*
X-129540000Y-47035013D03*
%TO.N,Net-(U2-Pad15)*%
X-121920000Y-51435000D03*
X-121920000Y-47170008D03*
D18*
%TO.N,GNDA*%
X-108331000Y-78867000D03*
X-108331000Y-72771000D03*
X-108331000Y-66802000D03*
X-108204000Y-60579000D03*
X-108331000Y-48514000D03*
X-111760000Y-44831000D03*
X-117729000Y-44831000D03*
X-123825000Y-44831000D03*
X-129667000Y-44831000D03*
X-133477000Y-48514000D03*
X-133477000Y-60706000D03*
X-133477000Y-66802000D03*
X-133477000Y-72771000D03*
X-133477000Y-78740000D03*
X-129794000Y-82677000D03*
X-123825000Y-82677000D03*
X-117729000Y-82677000D03*
X-119380000Y-62230000D03*
X-114300000Y-54610000D03*
D19*
X-130810000Y-60960000D03*
D18*
X-123918328Y-52798328D03*
X-112395000Y-46375010D03*
X-120015000Y-40005000D03*
X-115570000Y-52705000D03*
X-125095000Y-55880000D03*
X-131445000Y-53975000D03*
X-127635000Y-63500000D03*
X-131445000Y-76200000D03*
X-124460000Y-74295000D03*
X-132080000Y-71755000D03*
X-114935000Y-77470000D03*
X-114935000Y-75565000D03*
X-118745000Y-75565000D03*
X-122555000Y-69850000D03*
X-116840000Y-66675000D03*
X-111760000Y-66675000D03*
X-111125000Y-26670000D03*
X-107950000Y-30480000D03*
X-110490000Y-34290000D03*
X-110490000Y-40640000D03*
X-118110000Y-41910000D03*
X-114300000Y-38735000D03*
X-122555000Y-41275000D03*
X-130175000Y-66675000D03*
X-127614990Y-41275000D03*
X-111760000Y-82677000D03*
D19*
%TO.N,/1F*%
X-132080000Y-74930000D03*
X-126365000Y-71120000D03*
%TO.N,Net-(J1-Pad2)*%
X-130175000Y-81280000D03*
X-130175000Y-88900000D03*
%TO.N,/DAC_S_3V*%
X-130175000Y-33020000D03*
%TO.N,/DAC_C_3V*%
X-128905000Y-32385000D03*
%TO.N,/DAC_L_3V*%
X-127635000Y-33020000D03*
%TO.N,Net-(JP1-Pad2)*%
X-123190000Y-74930000D03*
X-131399987Y-74930000D03*
%TO.N,Net-(R40-Pad2)*%
X-116205000Y-68580000D03*
%TO.N,/DAC_C*%
X-118750177Y-46344030D03*
X-126370418Y-46343048D03*
X-125095000Y-38735000D03*
%TO.N,/DAC_L*%
X-120015000Y-45720000D03*
X-127635000Y-45720000D03*
X-131445000Y-38735000D03*
%TO.N,/DAC_S*%
X-129540000Y-46355000D03*
X-128847726Y-38042726D03*
%TD*%
D20*
%TO.N,+3V3*%
X-121920000Y-21590000D02*
X-121920000Y-24130000D01*
X-132080000Y-22225000D02*
X-132715000Y-22225000D01*
X-132715000Y-22225000D02*
X-134599990Y-22225000D01*
X-123585001Y-19924999D02*
X-130414999Y-19924999D01*
X-121920000Y-21590000D02*
X-123585001Y-19924999D01*
X-130414999Y-19924999D02*
X-132715000Y-22225000D01*
D21*
%TO.N,Net-(C23-Pad1)*%
X-127635000Y-77470000D02*
X-123825000Y-77470000D01*
D22*
%TO.N,Net-(R2-Pad1)*%
X-127000000Y-25400000D02*
X-125095000Y-23495000D01*
X-125095000Y-23495000D02*
X-125095000Y-22225000D01*
%TO.N,Net-(U1-Pad9)*%
X-120650000Y-46639998D02*
X-124744998Y-46639998D01*
X-124744998Y-46639998D02*
X-125095000Y-46990000D01*
%TO.N,Net-(U1-Pad15)*%
X-129540000Y-51435000D02*
X-129540000Y-47035013D01*
%TO.N,Net-(U2-Pad15)*%
X-121920000Y-51435000D02*
X-121920000Y-47170008D01*
%TO.N,Net-(C16-Pad2)*%
X-111760000Y-79375000D02*
X-111760000Y-81280000D01*
X-108585000Y-84455000D02*
X-108585000Y-89535000D01*
X-111760000Y-81280000D02*
X-108585000Y-84455000D01*
D21*
%TO.N,/1F*%
X-132080000Y-74930000D02*
X-132080000Y-73660000D01*
X-132080000Y-73660000D02*
X-129540000Y-71120000D01*
X-129540000Y-71120000D02*
X-126365000Y-71120000D01*
%TO.N,Net-(J1-Pad2)*%
X-130175000Y-81280000D02*
X-131445000Y-82550000D01*
X-131445000Y-82550000D02*
X-131445000Y-84455000D01*
X-131445000Y-84455000D02*
X-130175000Y-85725000D01*
X-130175000Y-85725000D02*
X-130175000Y-88900000D01*
D22*
%TO.N,/DAC_S_3V*%
X-130175000Y-33020000D02*
X-130175000Y-29210000D01*
X-130175000Y-29210000D02*
X-127635000Y-26670000D01*
X-127635000Y-26670000D02*
X-120015000Y-26670000D01*
X-120015000Y-26670000D02*
X-118745000Y-25400000D01*
X-118745000Y-25400000D02*
X-116205000Y-25400000D01*
X-115149999Y-22439999D02*
X-114300000Y-21590000D01*
X-115405001Y-22695001D02*
X-115149999Y-22439999D01*
X-115405001Y-24600001D02*
X-115405001Y-22695001D01*
X-116205000Y-25400000D02*
X-115405001Y-24600001D01*
%TO.N,/DAC_C_3V*%
X-128905000Y-32385000D02*
X-128905000Y-30480000D01*
X-128905000Y-30480000D02*
X-126365000Y-27940000D01*
X-126365000Y-27940000D02*
X-119380000Y-27940000D01*
X-119380000Y-27940000D02*
X-118110000Y-26670000D01*
X-118110000Y-26670000D02*
X-114935000Y-26670000D01*
X-112609999Y-22439999D02*
X-111760000Y-21590000D01*
X-112865001Y-22695001D02*
X-112609999Y-22439999D01*
X-112865001Y-24600001D02*
X-112865001Y-22695001D01*
X-114935000Y-26670000D02*
X-112865001Y-24600001D01*
%TO.N,/DAC_L_3V*%
X-110320000Y-21590000D02*
X-109220000Y-21590000D01*
X-110325001Y-24600001D02*
X-110325001Y-21595001D01*
X-113665000Y-27940000D02*
X-110325001Y-24600001D01*
X-127635000Y-33020000D02*
X-127635000Y-31750000D01*
X-110325001Y-21595001D02*
X-110320000Y-21590000D01*
X-119380000Y-30480000D02*
X-116840000Y-27940000D01*
X-127635000Y-31750000D02*
X-126365000Y-30480000D01*
X-126365000Y-30480000D02*
X-119380000Y-30480000D01*
X-116840000Y-27940000D02*
X-113665000Y-27940000D01*
%TO.N,Net-(JP1-Pad2)*%
X-123464999Y-75204999D02*
X-131124988Y-75204999D01*
X-131124988Y-75204999D02*
X-131399987Y-74930000D01*
X-123190000Y-74930000D02*
X-123464999Y-75204999D01*
%TO.N,Net-(R40-Pad2)*%
X-113665000Y-71120000D02*
X-115930001Y-68854999D01*
X-113665000Y-86955000D02*
X-113665000Y-71120000D01*
X-115930001Y-68854999D02*
X-116205000Y-68580000D01*
X-108585000Y-92035000D02*
X-113665000Y-86955000D01*
%TO.N,/DAC_C*%
X-118750177Y-46344030D02*
X-120161566Y-46344030D01*
X-120395599Y-46109997D02*
X-125242419Y-46109997D01*
X-126241277Y-45824999D02*
X-126370418Y-45954140D01*
X-126370418Y-45954140D02*
X-126370418Y-46343048D01*
X-125242419Y-46109997D02*
X-125527417Y-45824999D01*
X-125527417Y-45824999D02*
X-126241277Y-45824999D01*
X-120161566Y-46344030D02*
X-120395599Y-46109997D01*
X-118750177Y-46344030D02*
X-118750177Y-45714823D01*
X-118750177Y-45714823D02*
X-120650000Y-43815000D01*
X-120650000Y-43815000D02*
X-123825000Y-43815000D01*
X-123825000Y-43815000D02*
X-125095000Y-42545000D01*
X-125095000Y-42545000D02*
X-125095000Y-38735000D01*
%TO.N,/DAC_L*%
X-120015000Y-45720000D02*
X-124460000Y-45720000D01*
X-124460000Y-45720000D02*
X-125095000Y-45085000D01*
X-125095000Y-45085000D02*
X-127000000Y-45085000D01*
X-127000000Y-45085000D02*
X-127635000Y-45720000D01*
X-130175000Y-37465000D02*
X-131445000Y-38735000D01*
X-127635000Y-45720000D02*
X-127635000Y-43815000D01*
X-128270000Y-37465000D02*
X-130175000Y-37465000D01*
X-126365000Y-39370000D02*
X-128270000Y-37465000D01*
X-127635000Y-43815000D02*
X-126365000Y-42545000D01*
X-126365000Y-42545000D02*
X-126365000Y-39370000D01*
%TO.N,/DAC_S*%
X-128847726Y-38431634D02*
X-128847726Y-38042726D01*
X-128847726Y-45662726D02*
X-128847726Y-38431634D01*
X-129540000Y-46355000D02*
X-128847726Y-45662726D01*
%TD*%
D23*
%TO.N,GNDA*%
G36*
X-129166226Y-45530799D02*
G01*
X-129521926Y-45886500D01*
X-129586143Y-45886500D01*
X-129676656Y-45904504D01*
X-129761918Y-45939821D01*
X-129838651Y-45991092D01*
X-129903908Y-46056349D01*
X-129955179Y-46133082D01*
X-129990496Y-46218344D01*
X-130008500Y-46308857D01*
X-130008500Y-46401143D01*
X-129990496Y-46491656D01*
X-129955179Y-46576918D01*
X-129903908Y-46653651D01*
X-129862553Y-46695007D01*
X-129903908Y-46736362D01*
X-129955179Y-46813095D01*
X-129990496Y-46898357D01*
X-130008500Y-46988870D01*
X-130008500Y-47081156D01*
X-129990496Y-47171669D01*
X-129955179Y-47256931D01*
X-129903908Y-47333664D01*
X-129858499Y-47379073D01*
X-129858500Y-51090941D01*
X-129903908Y-51136349D01*
X-129955179Y-51213082D01*
X-129990496Y-51298344D01*
X-130008500Y-51388857D01*
X-130008500Y-51481143D01*
X-129990496Y-51571656D01*
X-129955179Y-51656918D01*
X-129903908Y-51733651D01*
X-129838651Y-51798908D01*
X-129761918Y-51850179D01*
X-129676656Y-51885496D01*
X-129586143Y-51903500D01*
X-129493857Y-51903500D01*
X-129403344Y-51885496D01*
X-129318082Y-51850179D01*
X-129241349Y-51798908D01*
X-129176092Y-51733651D01*
X-129124821Y-51656918D01*
X-129089504Y-51571656D01*
X-129071500Y-51481143D01*
X-129071500Y-51388857D01*
X-129089504Y-51298344D01*
X-129124821Y-51213082D01*
X-129176092Y-51136349D01*
X-129221500Y-51090941D01*
X-129221500Y-47379072D01*
X-129176092Y-47333664D01*
X-129124821Y-47256931D01*
X-129089504Y-47171669D01*
X-129071500Y-47081156D01*
X-129071500Y-46988870D01*
X-129089504Y-46898357D01*
X-129124821Y-46813095D01*
X-129176092Y-46736362D01*
X-129217448Y-46695007D01*
X-129176092Y-46653651D01*
X-129124821Y-46576918D01*
X-129089504Y-46491656D01*
X-129071500Y-46401143D01*
X-129071500Y-46336926D01*
X-128633573Y-45899000D01*
X-128621423Y-45889029D01*
X-128611449Y-45876876D01*
X-128581622Y-45840532D01*
X-128565814Y-45810957D01*
X-128552047Y-45785200D01*
X-128533834Y-45725163D01*
X-128529226Y-45678373D01*
X-128529226Y-45678362D01*
X-128527686Y-45662727D01*
X-128529226Y-45647092D01*
X-128529226Y-43243500D01*
X-127513926Y-43243500D01*
X-127849149Y-43578723D01*
X-127861302Y-43588697D01*
X-127871274Y-43600848D01*
X-127871277Y-43600851D01*
X-127901104Y-43637195D01*
X-127930678Y-43692526D01*
X-127948891Y-43752564D01*
X-127955040Y-43815000D01*
X-127953499Y-43830647D01*
X-127953500Y-45375941D01*
X-127998908Y-45421349D01*
X-128050179Y-45498082D01*
X-128085496Y-45583344D01*
X-128103500Y-45673857D01*
X-128103500Y-45766143D01*
X-128085496Y-45856656D01*
X-128050179Y-45941918D01*
X-127998908Y-46018651D01*
X-127933651Y-46083908D01*
X-127856918Y-46135179D01*
X-127771656Y-46170496D01*
X-127681143Y-46188500D01*
X-127588857Y-46188500D01*
X-127498344Y-46170496D01*
X-127413082Y-46135179D01*
X-127336349Y-46083908D01*
X-127271092Y-46018651D01*
X-127219821Y-45941918D01*
X-127184504Y-45856656D01*
X-127166500Y-45766143D01*
X-127166500Y-45701926D01*
X-126868073Y-45403500D01*
X-125226926Y-45403500D01*
X-124838930Y-45791497D01*
X-125110492Y-45791497D01*
X-125291138Y-45610852D01*
X-125301114Y-45598696D01*
X-125349612Y-45558895D01*
X-125404943Y-45529320D01*
X-125464980Y-45511107D01*
X-125511770Y-45506499D01*
X-125511780Y-45506499D01*
X-125527417Y-45504959D01*
X-125543054Y-45506499D01*
X-126225640Y-45506499D01*
X-126241277Y-45504959D01*
X-126256914Y-45506499D01*
X-126256924Y-45506499D01*
X-126303714Y-45511107D01*
X-126363751Y-45529320D01*
X-126419082Y-45558895D01*
X-126467580Y-45598696D01*
X-126477557Y-45610853D01*
X-126584564Y-45717860D01*
X-126596721Y-45727837D01*
X-126606695Y-45739991D01*
X-126636522Y-45776335D01*
X-126643803Y-45789957D01*
X-126666097Y-45831667D01*
X-126684310Y-45891704D01*
X-126688918Y-45938494D01*
X-126688918Y-45938503D01*
X-126690458Y-45954140D01*
X-126688918Y-45969777D01*
X-126688918Y-45998989D01*
X-126734326Y-46044397D01*
X-126785597Y-46121130D01*
X-126820914Y-46206392D01*
X-126838918Y-46296905D01*
X-126838918Y-46389191D01*
X-126820914Y-46479704D01*
X-126785597Y-46564966D01*
X-126734326Y-46641699D01*
X-126669069Y-46706956D01*
X-126592336Y-46758227D01*
X-126507074Y-46793544D01*
X-126416561Y-46811548D01*
X-126324275Y-46811548D01*
X-126233762Y-46793544D01*
X-126148500Y-46758227D01*
X-126071767Y-46706956D01*
X-126063236Y-46698425D01*
X-126057471Y-46707053D01*
X-125992214Y-46772310D01*
X-125915481Y-46823581D01*
X-125830219Y-46858898D01*
X-125739706Y-46876902D01*
X-125647420Y-46876902D01*
X-125556907Y-46858898D01*
X-125545675Y-46854246D01*
X-125563500Y-46943857D01*
X-125563500Y-47036143D01*
X-125545496Y-47126656D01*
X-125510179Y-47211918D01*
X-125458908Y-47288651D01*
X-125393651Y-47353908D01*
X-125316918Y-47405179D01*
X-125231656Y-47440496D01*
X-125141143Y-47458500D01*
X-125048857Y-47458500D01*
X-125031314Y-47455011D01*
X-125053500Y-47566545D01*
X-125053500Y-47683455D01*
X-125030692Y-47798118D01*
X-124985953Y-47906128D01*
X-124921002Y-48003334D01*
X-124838334Y-48086002D01*
X-124741128Y-48150953D01*
X-124633118Y-48195692D01*
X-124518455Y-48218500D01*
X-124401545Y-48218500D01*
X-124286882Y-48195692D01*
X-124178872Y-48150953D01*
X-124081666Y-48086002D01*
X-123998998Y-48003334D01*
X-123934047Y-47906128D01*
X-123889308Y-47798118D01*
X-123866500Y-47683455D01*
X-123866500Y-47566545D01*
X-123889308Y-47451882D01*
X-123934047Y-47343872D01*
X-123998998Y-47246666D01*
X-124081666Y-47163998D01*
X-124178872Y-47099047D01*
X-124286882Y-47054308D01*
X-124401545Y-47031500D01*
X-124518455Y-47031500D01*
X-124629989Y-47053686D01*
X-124626500Y-47036143D01*
X-124626500Y-46971927D01*
X-124613071Y-46958498D01*
X-122339490Y-46958498D01*
X-122370496Y-47033352D01*
X-122388500Y-47123865D01*
X-122388500Y-47216151D01*
X-122370496Y-47306664D01*
X-122335179Y-47391926D01*
X-122283908Y-47468659D01*
X-122238499Y-47514068D01*
X-122238500Y-51090941D01*
X-122283908Y-51136349D01*
X-122335179Y-51213082D01*
X-122370496Y-51298344D01*
X-122388500Y-51388857D01*
X-122388500Y-51481143D01*
X-122370496Y-51571656D01*
X-122335179Y-51656918D01*
X-122283908Y-51733651D01*
X-122218651Y-51798908D01*
X-122141918Y-51850179D01*
X-122056656Y-51885496D01*
X-121966143Y-51903500D01*
X-121873857Y-51903500D01*
X-121783344Y-51885496D01*
X-121698082Y-51850179D01*
X-121621349Y-51798908D01*
X-121556092Y-51733651D01*
X-121504821Y-51656918D01*
X-121469504Y-51571656D01*
X-121451500Y-51481143D01*
X-121451500Y-51388857D01*
X-121469504Y-51298344D01*
X-121504821Y-51213082D01*
X-121556092Y-51136349D01*
X-121601500Y-51090941D01*
X-121601500Y-48836545D01*
X-115528500Y-48836545D01*
X-115528500Y-48953455D01*
X-115505692Y-49068118D01*
X-115460953Y-49176128D01*
X-115396002Y-49273334D01*
X-115313334Y-49356002D01*
X-115216128Y-49420953D01*
X-115108118Y-49465692D01*
X-114993455Y-49488500D01*
X-114876545Y-49488500D01*
X-114761882Y-49465692D01*
X-114653872Y-49420953D01*
X-114556666Y-49356002D01*
X-114473998Y-49273334D01*
X-114409047Y-49176128D01*
X-114364308Y-49068118D01*
X-114341500Y-48953455D01*
X-114341500Y-48836545D01*
X-114364308Y-48721882D01*
X-114409047Y-48613872D01*
X-114473998Y-48516666D01*
X-114556666Y-48433998D01*
X-114653872Y-48369047D01*
X-114761882Y-48324308D01*
X-114876545Y-48301500D01*
X-114993455Y-48301500D01*
X-115108118Y-48324308D01*
X-115216128Y-48369047D01*
X-115313334Y-48433998D01*
X-115396002Y-48516666D01*
X-115460953Y-48613872D01*
X-115505692Y-48721882D01*
X-115528500Y-48836545D01*
X-121601500Y-48836545D01*
X-121601500Y-47514067D01*
X-121556092Y-47468659D01*
X-121504821Y-47391926D01*
X-121469504Y-47306664D01*
X-121451500Y-47216151D01*
X-121451500Y-47123865D01*
X-121469504Y-47033352D01*
X-121500510Y-46958498D01*
X-120994059Y-46958498D01*
X-120948651Y-47003906D01*
X-120871918Y-47055177D01*
X-120786656Y-47090494D01*
X-120696143Y-47108498D01*
X-120603857Y-47108498D01*
X-120513344Y-47090494D01*
X-120428082Y-47055177D01*
X-120351349Y-47003906D01*
X-120286092Y-46938649D01*
X-120234821Y-46861916D01*
X-120199504Y-46776654D01*
X-120181500Y-46686141D01*
X-120181500Y-46662108D01*
X-120177213Y-46662530D01*
X-120177211Y-46662530D01*
X-120161566Y-46664071D01*
X-120145921Y-46662530D01*
X-119094236Y-46662530D01*
X-119048828Y-46707938D01*
X-118972095Y-46759209D01*
X-118886833Y-46794526D01*
X-118796320Y-46812530D01*
X-118704034Y-46812530D01*
X-118613521Y-46794526D01*
X-118528259Y-46759209D01*
X-118451526Y-46707938D01*
X-118386269Y-46642681D01*
X-118334998Y-46565948D01*
X-118299681Y-46480686D01*
X-118281677Y-46390173D01*
X-118281677Y-46297887D01*
X-118299681Y-46207374D01*
X-118329102Y-46136345D01*
X-118246656Y-46170496D01*
X-118156143Y-46188500D01*
X-118063857Y-46188500D01*
X-118046314Y-46185011D01*
X-118068500Y-46296545D01*
X-118068500Y-46413455D01*
X-118045692Y-46528118D01*
X-118000953Y-46636128D01*
X-117936002Y-46733334D01*
X-117853334Y-46816002D01*
X-117756128Y-46880953D01*
X-117648118Y-46925692D01*
X-117533455Y-46948500D01*
X-117416545Y-46948500D01*
X-117301882Y-46925692D01*
X-117193872Y-46880953D01*
X-117096666Y-46816002D01*
X-117013998Y-46733334D01*
X-116949047Y-46636128D01*
X-116904308Y-46528118D01*
X-116881500Y-46413455D01*
X-116881500Y-46296545D01*
X-116904308Y-46181882D01*
X-116949047Y-46073872D01*
X-117013998Y-45976666D01*
X-117096666Y-45893998D01*
X-117193872Y-45829047D01*
X-117301882Y-45784308D01*
X-117416545Y-45761500D01*
X-117533455Y-45761500D01*
X-117644989Y-45783686D01*
X-117641500Y-45766143D01*
X-117641500Y-45673857D01*
X-117659504Y-45583344D01*
X-117694821Y-45498082D01*
X-117746092Y-45421349D01*
X-117811349Y-45356092D01*
X-117888082Y-45304821D01*
X-117973344Y-45269504D01*
X-118063857Y-45251500D01*
X-118156143Y-45251500D01*
X-118246656Y-45269504D01*
X-118331918Y-45304821D01*
X-118408651Y-45356092D01*
X-118473908Y-45421349D01*
X-118521072Y-45491935D01*
X-118523874Y-45488520D01*
X-118536025Y-45478548D01*
X-120413723Y-43600851D01*
X-120423697Y-43588697D01*
X-120472195Y-43548896D01*
X-120527526Y-43519321D01*
X-120587563Y-43501108D01*
X-120634353Y-43496500D01*
X-120634363Y-43496500D01*
X-120650000Y-43494960D01*
X-120665637Y-43496500D01*
X-123693073Y-43496500D01*
X-123946073Y-43243500D01*
X-109177496Y-43243500D01*
X-109155692Y-43353118D01*
X-109110953Y-43461128D01*
X-109046002Y-43558334D01*
X-108963334Y-43641002D01*
X-108866128Y-43705953D01*
X-108758118Y-43750692D01*
X-108643455Y-43773500D01*
X-108526545Y-43773500D01*
X-108411882Y-43750692D01*
X-108303872Y-43705953D01*
X-108206666Y-43641002D01*
X-108123998Y-43558334D01*
X-108059047Y-43461128D01*
X-108014308Y-43353118D01*
X-107992504Y-43243500D01*
X-106868499Y-43243500D01*
X-106868500Y-59699260D01*
X-106868499Y-59699270D01*
X-106868500Y-81289260D01*
X-106868499Y-81289270D01*
X-106868500Y-99506500D01*
X-135066500Y-99506500D01*
X-135066500Y-98005000D01*
X-134139265Y-98005000D01*
X-134128231Y-98117034D01*
X-134095552Y-98224762D01*
X-134042484Y-98324045D01*
X-133971067Y-98411067D01*
X-133884045Y-98482484D01*
X-133784762Y-98535552D01*
X-133677034Y-98568231D01*
X-133565000Y-98579265D01*
X-133048375Y-98576500D01*
X-132905500Y-98433625D01*
X-132905500Y-97345500D01*
X-132524500Y-97345500D01*
X-132524500Y-98433625D01*
X-132381625Y-98576500D01*
X-131865000Y-98579265D01*
X-131752966Y-98568231D01*
X-131645238Y-98535552D01*
X-131545955Y-98482484D01*
X-131458933Y-98411067D01*
X-131387516Y-98324045D01*
X-131334448Y-98224762D01*
X-131301769Y-98117034D01*
X-131290735Y-98005000D01*
X-131293500Y-97488375D01*
X-131436375Y-97345500D01*
X-132524500Y-97345500D01*
X-132905500Y-97345500D01*
X-133993625Y-97345500D01*
X-134136500Y-97488375D01*
X-134139265Y-98005000D01*
X-135066500Y-98005000D01*
X-135066500Y-96305000D01*
X-134139265Y-96305000D01*
X-134136500Y-96821625D01*
X-133993625Y-96964500D01*
X-132905500Y-96964500D01*
X-132905500Y-95876375D01*
X-132524500Y-95876375D01*
X-132524500Y-96964500D01*
X-131436375Y-96964500D01*
X-131293500Y-96821625D01*
X-131291389Y-96427073D01*
X-127308500Y-96427073D01*
X-127308500Y-96612927D01*
X-127272242Y-96795209D01*
X-127201119Y-96966915D01*
X-127097864Y-97121446D01*
X-126966446Y-97252864D01*
X-126811915Y-97356119D01*
X-126640209Y-97427242D01*
X-126457927Y-97463500D01*
X-126272073Y-97463500D01*
X-126089791Y-97427242D01*
X-125918085Y-97356119D01*
X-125763554Y-97252864D01*
X-125632136Y-97121446D01*
X-125528881Y-96966915D01*
X-125457758Y-96795209D01*
X-125421500Y-96612927D01*
X-125421500Y-96568959D01*
X-118278500Y-96568959D01*
X-118278500Y-97001041D01*
X-118194205Y-97424820D01*
X-118028854Y-97824012D01*
X-117788802Y-98183274D01*
X-117483274Y-98488802D01*
X-117124012Y-98728854D01*
X-116724820Y-98894205D01*
X-116301041Y-98978500D01*
X-115868959Y-98978500D01*
X-115445180Y-98894205D01*
X-115045988Y-98728854D01*
X-114686726Y-98488802D01*
X-114381198Y-98183274D01*
X-114141146Y-97824012D01*
X-113975795Y-97424820D01*
X-113891500Y-97001041D01*
X-113891500Y-96568959D01*
X-113975795Y-96145180D01*
X-114141146Y-95745988D01*
X-114235643Y-95604563D01*
X-109385156Y-95604563D01*
X-109292750Y-95833232D01*
X-109025878Y-95946363D01*
X-108742064Y-96005255D01*
X-108452214Y-96007646D01*
X-108167467Y-95953444D01*
X-107898765Y-95844732D01*
X-107877250Y-95833232D01*
X-107784844Y-95604563D01*
X-108585000Y-94804408D01*
X-109385156Y-95604563D01*
X-114235643Y-95604563D01*
X-114381198Y-95386726D01*
X-114686726Y-95081198D01*
X-115045988Y-94841146D01*
X-115445180Y-94675795D01*
X-115485443Y-94667786D01*
X-110057646Y-94667786D01*
X-110003444Y-94952533D01*
X-109894732Y-95221235D01*
X-109883232Y-95242750D01*
X-109654563Y-95335156D01*
X-108854408Y-94535000D01*
X-108315592Y-94535000D01*
X-107515437Y-95335156D01*
X-107286768Y-95242750D01*
X-107173637Y-94975878D01*
X-107114745Y-94692064D01*
X-107112354Y-94402214D01*
X-107166556Y-94117467D01*
X-107275268Y-93848765D01*
X-107286768Y-93827250D01*
X-107515437Y-93734844D01*
X-108315592Y-94535000D01*
X-108854408Y-94535000D01*
X-109654563Y-93734844D01*
X-109883232Y-93827250D01*
X-109996363Y-94094122D01*
X-110055255Y-94377936D01*
X-110057646Y-94667786D01*
X-115485443Y-94667786D01*
X-115868959Y-94591500D01*
X-116301041Y-94591500D01*
X-116724820Y-94675795D01*
X-117124012Y-94841146D01*
X-117483274Y-95081198D01*
X-117788802Y-95386726D01*
X-118028854Y-95745988D01*
X-118194205Y-96145180D01*
X-118278500Y-96568959D01*
X-125421500Y-96568959D01*
X-125421500Y-96427073D01*
X-125457758Y-96244791D01*
X-125528881Y-96073085D01*
X-125632136Y-95918554D01*
X-125763554Y-95787136D01*
X-125918085Y-95683881D01*
X-126089791Y-95612758D01*
X-126272073Y-95576500D01*
X-126457927Y-95576500D01*
X-126640209Y-95612758D01*
X-126811915Y-95683881D01*
X-126966446Y-95787136D01*
X-127097864Y-95918554D01*
X-127201119Y-96073085D01*
X-127272242Y-96244791D01*
X-127308500Y-96427073D01*
X-131291389Y-96427073D01*
X-131290735Y-96305000D01*
X-131301769Y-96192966D01*
X-131334448Y-96085238D01*
X-131387516Y-95985955D01*
X-131458933Y-95898933D01*
X-131545955Y-95827516D01*
X-131645238Y-95774448D01*
X-131752966Y-95741769D01*
X-131865000Y-95730735D01*
X-132381625Y-95733500D01*
X-132524500Y-95876375D01*
X-132905500Y-95876375D01*
X-133048375Y-95733500D01*
X-133565000Y-95730735D01*
X-133677034Y-95741769D01*
X-133784762Y-95774448D01*
X-133884045Y-95827516D01*
X-133971067Y-95898933D01*
X-134042484Y-95985955D01*
X-134095552Y-96085238D01*
X-134128231Y-96192966D01*
X-134139265Y-96305000D01*
X-135066500Y-96305000D01*
X-135066500Y-94512224D01*
X-133758500Y-94512224D01*
X-133758500Y-94717776D01*
X-133718399Y-94919378D01*
X-133639738Y-95109283D01*
X-133525539Y-95280192D01*
X-133380192Y-95425539D01*
X-133209283Y-95539738D01*
X-133019378Y-95618399D01*
X-132817776Y-95658500D01*
X-132612224Y-95658500D01*
X-132410622Y-95618399D01*
X-132220717Y-95539738D01*
X-132049808Y-95425539D01*
X-131904461Y-95280192D01*
X-131790262Y-95109283D01*
X-131711601Y-94919378D01*
X-131671500Y-94717776D01*
X-131671500Y-94512224D01*
X-131711601Y-94310622D01*
X-131790262Y-94120717D01*
X-131904461Y-93949808D01*
X-132049808Y-93804461D01*
X-132220717Y-93690262D01*
X-132410622Y-93611601D01*
X-132612224Y-93571500D01*
X-132817776Y-93571500D01*
X-133019378Y-93611601D01*
X-133209283Y-93690262D01*
X-133380192Y-93804461D01*
X-133525539Y-93949808D01*
X-133639738Y-94120717D01*
X-133718399Y-94310622D01*
X-133758500Y-94512224D01*
X-135066500Y-94512224D01*
X-135066500Y-90427073D01*
X-127308500Y-90427073D01*
X-127308500Y-90612927D01*
X-127272242Y-90795209D01*
X-127201119Y-90966915D01*
X-127097864Y-91121446D01*
X-126966446Y-91252864D01*
X-126811915Y-91356119D01*
X-126640209Y-91427242D01*
X-126457927Y-91463500D01*
X-126272073Y-91463500D01*
X-126089791Y-91427242D01*
X-125918085Y-91356119D01*
X-125763554Y-91252864D01*
X-125632136Y-91121446D01*
X-125528881Y-90966915D01*
X-125457758Y-90795209D01*
X-125421500Y-90612927D01*
X-125421500Y-90427073D01*
X-125457758Y-90244791D01*
X-125528881Y-90073085D01*
X-125632136Y-89918554D01*
X-125763554Y-89787136D01*
X-125918085Y-89683881D01*
X-126089791Y-89612758D01*
X-126272073Y-89576500D01*
X-126457927Y-89576500D01*
X-126640209Y-89612758D01*
X-126811915Y-89683881D01*
X-126966446Y-89787136D01*
X-127097864Y-89918554D01*
X-127201119Y-90073085D01*
X-127272242Y-90244791D01*
X-127308500Y-90427073D01*
X-135066500Y-90427073D01*
X-135066500Y-82550000D01*
X-131890645Y-82550000D01*
X-131888500Y-82571776D01*
X-131888499Y-84433214D01*
X-131890645Y-84455000D01*
X-131882081Y-84541940D01*
X-131856722Y-84625540D01*
X-131815540Y-84702587D01*
X-131800343Y-84721104D01*
X-131760118Y-84770119D01*
X-131743200Y-84784003D01*
X-130618500Y-85908704D01*
X-130618499Y-88746452D01*
X-130625496Y-88763344D01*
X-130643500Y-88853857D01*
X-130643500Y-88946143D01*
X-130625496Y-89036656D01*
X-130590179Y-89121918D01*
X-130538908Y-89198651D01*
X-130473651Y-89263908D01*
X-130396918Y-89315179D01*
X-130311656Y-89350496D01*
X-130221143Y-89368500D01*
X-130128857Y-89368500D01*
X-130038344Y-89350496D01*
X-129953082Y-89315179D01*
X-129876349Y-89263908D01*
X-129811092Y-89198651D01*
X-129759821Y-89121918D01*
X-129724504Y-89036656D01*
X-129706500Y-88946143D01*
X-129706500Y-88853857D01*
X-129724504Y-88763344D01*
X-129731500Y-88746454D01*
X-129731500Y-87068959D01*
X-118278500Y-87068959D01*
X-118278500Y-87501041D01*
X-118194205Y-87924820D01*
X-118028854Y-88324012D01*
X-117788802Y-88683274D01*
X-117483274Y-88988802D01*
X-117124012Y-89228854D01*
X-116724820Y-89394205D01*
X-116301041Y-89478500D01*
X-115868959Y-89478500D01*
X-115445180Y-89394205D01*
X-115045988Y-89228854D01*
X-114686726Y-88988802D01*
X-114381198Y-88683274D01*
X-114141146Y-88324012D01*
X-113975795Y-87924820D01*
X-113891500Y-87501041D01*
X-113891500Y-87181063D01*
X-113891303Y-87181303D01*
X-113879146Y-87191280D01*
X-109553785Y-91516642D01*
X-109554047Y-91517034D01*
X-109636477Y-91716038D01*
X-109678500Y-91927300D01*
X-109678500Y-92142700D01*
X-109636477Y-92353962D01*
X-109554047Y-92552966D01*
X-109434377Y-92732066D01*
X-109282066Y-92884377D01*
X-109102966Y-93004047D01*
X-108903962Y-93086477D01*
X-108874892Y-93092259D01*
X-109002533Y-93116556D01*
X-109271235Y-93225268D01*
X-109292750Y-93236768D01*
X-109385156Y-93465437D01*
X-108585000Y-94265592D01*
X-107784844Y-93465437D01*
X-107877250Y-93236768D01*
X-108144122Y-93123637D01*
X-108295225Y-93092283D01*
X-108266038Y-93086477D01*
X-108067034Y-93004047D01*
X-107887934Y-92884377D01*
X-107735623Y-92732066D01*
X-107615953Y-92552966D01*
X-107533523Y-92353962D01*
X-107491500Y-92142700D01*
X-107491500Y-91927300D01*
X-107533523Y-91716038D01*
X-107615953Y-91517034D01*
X-107735623Y-91337934D01*
X-107887934Y-91185623D01*
X-108067034Y-91065953D01*
X-108266038Y-90983523D01*
X-108477300Y-90941500D01*
X-108692700Y-90941500D01*
X-108903962Y-90983523D01*
X-109102966Y-91065953D01*
X-109103358Y-91066215D01*
X-113346500Y-86823074D01*
X-113346500Y-77275000D01*
X-112554436Y-77275000D01*
X-112554436Y-78475000D01*
X-112550700Y-78512933D01*
X-112539635Y-78549407D01*
X-112521668Y-78583023D01*
X-112497487Y-78612487D01*
X-112468023Y-78636668D01*
X-112434407Y-78654635D01*
X-112397933Y-78665700D01*
X-112360000Y-78669436D01*
X-112130132Y-78669436D01*
X-112135863Y-78671810D01*
X-112265827Y-78758649D01*
X-112376351Y-78869173D01*
X-112463190Y-78999137D01*
X-112523006Y-79143545D01*
X-112553500Y-79296847D01*
X-112553500Y-79453153D01*
X-112523006Y-79606455D01*
X-112463190Y-79750863D01*
X-112376351Y-79880827D01*
X-112265827Y-79991351D01*
X-112135863Y-80078190D01*
X-112078500Y-80101951D01*
X-112078499Y-81264353D01*
X-112080040Y-81280000D01*
X-112078499Y-81295647D01*
X-112073891Y-81342437D01*
X-112055678Y-81402474D01*
X-112026104Y-81457805D01*
X-111996277Y-81494149D01*
X-111996274Y-81494152D01*
X-111986302Y-81506303D01*
X-111974151Y-81516275D01*
X-108903500Y-84586927D01*
X-108903499Y-88483431D01*
X-108903962Y-88483523D01*
X-109102966Y-88565953D01*
X-109282066Y-88685623D01*
X-109434377Y-88837934D01*
X-109554047Y-89017034D01*
X-109636477Y-89216038D01*
X-109678500Y-89427300D01*
X-109678500Y-89642700D01*
X-109636477Y-89853962D01*
X-109554047Y-90052966D01*
X-109434377Y-90232066D01*
X-109282066Y-90384377D01*
X-109102966Y-90504047D01*
X-108903962Y-90586477D01*
X-108692700Y-90628500D01*
X-108477300Y-90628500D01*
X-108266038Y-90586477D01*
X-108067034Y-90504047D01*
X-107887934Y-90384377D01*
X-107735623Y-90232066D01*
X-107615953Y-90052966D01*
X-107533523Y-89853962D01*
X-107491500Y-89642700D01*
X-107491500Y-89427300D01*
X-107533523Y-89216038D01*
X-107615953Y-89017034D01*
X-107735623Y-88837934D01*
X-107887934Y-88685623D01*
X-108067034Y-88565953D01*
X-108266038Y-88483523D01*
X-108266500Y-88483431D01*
X-108266500Y-84470636D01*
X-108264960Y-84454999D01*
X-108266500Y-84439362D01*
X-108266500Y-84439353D01*
X-108271108Y-84392563D01*
X-108289321Y-84332526D01*
X-108303088Y-84306769D01*
X-108318896Y-84277194D01*
X-108348723Y-84240850D01*
X-108348725Y-84240848D01*
X-108358697Y-84228697D01*
X-108370847Y-84218726D01*
X-111441500Y-81148074D01*
X-111441500Y-80101951D01*
X-111384137Y-80078190D01*
X-111254173Y-79991351D01*
X-111143649Y-79880827D01*
X-111056810Y-79750863D01*
X-110996994Y-79606455D01*
X-110966500Y-79453153D01*
X-110966500Y-79296847D01*
X-110996994Y-79143545D01*
X-111056810Y-78999137D01*
X-111143649Y-78869173D01*
X-111254173Y-78758649D01*
X-111384137Y-78671810D01*
X-111389868Y-78669436D01*
X-111160000Y-78669436D01*
X-111122067Y-78665700D01*
X-111085593Y-78654635D01*
X-111051977Y-78636668D01*
X-111022513Y-78612487D01*
X-110998332Y-78583023D01*
X-110980365Y-78549407D01*
X-110969300Y-78512933D01*
X-110965564Y-78475000D01*
X-110965564Y-77275000D01*
X-110969300Y-77237067D01*
X-110980365Y-77200593D01*
X-110998332Y-77166977D01*
X-111022513Y-77137513D01*
X-111051977Y-77113332D01*
X-111085593Y-77095365D01*
X-111122067Y-77084300D01*
X-111160000Y-77080564D01*
X-112360000Y-77080564D01*
X-112397933Y-77084300D01*
X-112434407Y-77095365D01*
X-112468023Y-77113332D01*
X-112497487Y-77137513D01*
X-112521668Y-77166977D01*
X-112539635Y-77200593D01*
X-112550700Y-77237067D01*
X-112554436Y-77275000D01*
X-113346500Y-77275000D01*
X-113346500Y-71135634D01*
X-113344960Y-71119999D01*
X-113346500Y-71104365D01*
X-113346500Y-71104353D01*
X-113351108Y-71057563D01*
X-113369321Y-70997526D01*
X-113383088Y-70971769D01*
X-113398896Y-70942194D01*
X-113428723Y-70905850D01*
X-113428725Y-70905848D01*
X-113438697Y-70893697D01*
X-113450848Y-70883725D01*
X-115693719Y-68640855D01*
X-115693724Y-68640849D01*
X-115736500Y-68598073D01*
X-115736500Y-68533857D01*
X-115754504Y-68443344D01*
X-115789821Y-68358082D01*
X-115841092Y-68281349D01*
X-115906349Y-68216092D01*
X-115983082Y-68164821D01*
X-116068344Y-68129504D01*
X-116158857Y-68111500D01*
X-116251143Y-68111500D01*
X-116341656Y-68129504D01*
X-116426918Y-68164821D01*
X-116503651Y-68216092D01*
X-116568908Y-68281349D01*
X-116620179Y-68358082D01*
X-116655496Y-68443344D01*
X-116673500Y-68533857D01*
X-116673500Y-68626143D01*
X-116655496Y-68716656D01*
X-116620179Y-68801918D01*
X-116568908Y-68878651D01*
X-116503651Y-68943908D01*
X-116426918Y-68995179D01*
X-116341656Y-69030496D01*
X-116251143Y-69048500D01*
X-116186927Y-69048500D01*
X-116144151Y-69091276D01*
X-116144145Y-69091281D01*
X-113983499Y-71251928D01*
X-113983500Y-86626579D01*
X-114141146Y-86245988D01*
X-114381198Y-85886726D01*
X-114686726Y-85581198D01*
X-115045988Y-85341146D01*
X-115445180Y-85175795D01*
X-115868959Y-85091500D01*
X-116301041Y-85091500D01*
X-116724820Y-85175795D01*
X-117124012Y-85341146D01*
X-117483274Y-85581198D01*
X-117788802Y-85886726D01*
X-118028854Y-86245988D01*
X-118194205Y-86645180D01*
X-118278500Y-87068959D01*
X-129731500Y-87068959D01*
X-129731500Y-85746775D01*
X-129729355Y-85724999D01*
X-129731500Y-85703222D01*
X-129737918Y-85638059D01*
X-129763278Y-85554459D01*
X-129804459Y-85477414D01*
X-129804460Y-85477412D01*
X-129845999Y-85426797D01*
X-129859881Y-85409881D01*
X-129876798Y-85395998D01*
X-131001500Y-84271297D01*
X-131001500Y-82733703D01*
X-129969971Y-81702175D01*
X-129953082Y-81695179D01*
X-129876349Y-81643908D01*
X-129811092Y-81578651D01*
X-129759821Y-81501918D01*
X-129724504Y-81416656D01*
X-129706500Y-81326143D01*
X-129706500Y-81233857D01*
X-129724504Y-81143344D01*
X-129759821Y-81058082D01*
X-129811092Y-80981349D01*
X-129876349Y-80916092D01*
X-129953082Y-80864821D01*
X-130038344Y-80829504D01*
X-130128857Y-80811500D01*
X-130221143Y-80811500D01*
X-130311656Y-80829504D01*
X-130396918Y-80864821D01*
X-130473651Y-80916092D01*
X-130538908Y-80981349D01*
X-130590179Y-81058082D01*
X-130597175Y-81074971D01*
X-131743196Y-82220993D01*
X-131760119Y-82234881D01*
X-131796255Y-82278914D01*
X-131815540Y-82302413D01*
X-131856721Y-82379459D01*
X-131856722Y-82379460D01*
X-131882082Y-82463060D01*
X-131888500Y-82528222D01*
X-131890645Y-82550000D01*
X-135066500Y-82550000D01*
X-135066500Y-77423857D01*
X-128103500Y-77423857D01*
X-128103500Y-77516143D01*
X-128085496Y-77606656D01*
X-128050179Y-77691918D01*
X-127998908Y-77768651D01*
X-127933651Y-77833908D01*
X-127856918Y-77885179D01*
X-127771656Y-77920496D01*
X-127681143Y-77938500D01*
X-127588857Y-77938500D01*
X-127498344Y-77920496D01*
X-127481454Y-77913500D01*
X-123978546Y-77913500D01*
X-123961656Y-77920496D01*
X-123871143Y-77938500D01*
X-123778857Y-77938500D01*
X-123688344Y-77920496D01*
X-123603082Y-77885179D01*
X-123526349Y-77833908D01*
X-123461092Y-77768651D01*
X-123409821Y-77691918D01*
X-123374504Y-77606656D01*
X-123356500Y-77516143D01*
X-123356500Y-77423857D01*
X-123374504Y-77333344D01*
X-123398671Y-77275000D01*
X-120174436Y-77275000D01*
X-120174436Y-78475000D01*
X-120170700Y-78512933D01*
X-120159635Y-78549407D01*
X-120141668Y-78583023D01*
X-120117487Y-78612487D01*
X-120088023Y-78636668D01*
X-120054407Y-78654635D01*
X-120017933Y-78665700D01*
X-119980000Y-78669436D01*
X-119750132Y-78669436D01*
X-119755863Y-78671810D01*
X-119885827Y-78758649D01*
X-119996351Y-78869173D01*
X-120083190Y-78999137D01*
X-120143006Y-79143545D01*
X-120173500Y-79296847D01*
X-120173500Y-79453153D01*
X-120143006Y-79606455D01*
X-120083190Y-79750863D01*
X-119996351Y-79880827D01*
X-119885827Y-79991351D01*
X-119755863Y-80078190D01*
X-119611455Y-80138006D01*
X-119458153Y-80168500D01*
X-119301847Y-80168500D01*
X-119148545Y-80138006D01*
X-119004137Y-80078190D01*
X-118874173Y-79991351D01*
X-118763649Y-79880827D01*
X-118676810Y-79750863D01*
X-118616994Y-79606455D01*
X-118586500Y-79453153D01*
X-118586500Y-79296847D01*
X-118616994Y-79143545D01*
X-118676810Y-78999137D01*
X-118763649Y-78869173D01*
X-118874173Y-78758649D01*
X-119004137Y-78671810D01*
X-119009868Y-78669436D01*
X-118780000Y-78669436D01*
X-118742067Y-78665700D01*
X-118705593Y-78654635D01*
X-118671977Y-78636668D01*
X-118642513Y-78612487D01*
X-118618332Y-78583023D01*
X-118600365Y-78549407D01*
X-118589300Y-78512933D01*
X-118585564Y-78475000D01*
X-118585564Y-77275000D01*
X-118589300Y-77237067D01*
X-118600365Y-77200593D01*
X-118618332Y-77166977D01*
X-118642513Y-77137513D01*
X-118671977Y-77113332D01*
X-118705593Y-77095365D01*
X-118742067Y-77084300D01*
X-118780000Y-77080564D01*
X-119980000Y-77080564D01*
X-120017933Y-77084300D01*
X-120054407Y-77095365D01*
X-120088023Y-77113332D01*
X-120117487Y-77137513D01*
X-120141668Y-77166977D01*
X-120159635Y-77200593D01*
X-120170700Y-77237067D01*
X-120174436Y-77275000D01*
X-123398671Y-77275000D01*
X-123409821Y-77248082D01*
X-123461092Y-77171349D01*
X-123526349Y-77106092D01*
X-123603082Y-77054821D01*
X-123688344Y-77019504D01*
X-123778857Y-77001500D01*
X-123871143Y-77001500D01*
X-123961656Y-77019504D01*
X-123978546Y-77026500D01*
X-127481454Y-77026500D01*
X-127498344Y-77019504D01*
X-127588857Y-77001500D01*
X-127681143Y-77001500D01*
X-127771656Y-77019504D01*
X-127856918Y-77054821D01*
X-127933651Y-77106092D01*
X-127998908Y-77171349D01*
X-128050179Y-77248082D01*
X-128085496Y-77333344D01*
X-128103500Y-77423857D01*
X-135066500Y-77423857D01*
X-135066500Y-74883857D01*
X-132548500Y-74883857D01*
X-132548500Y-74976143D01*
X-132530496Y-75066656D01*
X-132495179Y-75151918D01*
X-132443908Y-75228651D01*
X-132378651Y-75293908D01*
X-132301918Y-75345179D01*
X-132216656Y-75380496D01*
X-132126143Y-75398500D01*
X-132033857Y-75398500D01*
X-131943344Y-75380496D01*
X-131858082Y-75345179D01*
X-131781349Y-75293908D01*
X-131739994Y-75252553D01*
X-131698638Y-75293908D01*
X-131621905Y-75345179D01*
X-131536643Y-75380496D01*
X-131446130Y-75398500D01*
X-131381914Y-75398500D01*
X-131361263Y-75419151D01*
X-131351291Y-75431302D01*
X-131339140Y-75441274D01*
X-131339138Y-75441276D01*
X-131302794Y-75471103D01*
X-131273219Y-75486911D01*
X-131247462Y-75500678D01*
X-131187425Y-75518891D01*
X-131140635Y-75523499D01*
X-131140624Y-75523499D01*
X-131124989Y-75525039D01*
X-131109354Y-75523499D01*
X-123480636Y-75523499D01*
X-123464999Y-75525039D01*
X-123449362Y-75523499D01*
X-123449352Y-75523499D01*
X-123402562Y-75518891D01*
X-123342525Y-75500678D01*
X-123287194Y-75471103D01*
X-123238696Y-75431302D01*
X-123228720Y-75419146D01*
X-123208074Y-75398500D01*
X-123143857Y-75398500D01*
X-123053344Y-75380496D01*
X-122968082Y-75345179D01*
X-122891349Y-75293908D01*
X-122826092Y-75228651D01*
X-122774821Y-75151918D01*
X-122739504Y-75066656D01*
X-122721500Y-74976143D01*
X-122721500Y-74883857D01*
X-122739504Y-74793344D01*
X-122774821Y-74708082D01*
X-122826092Y-74631349D01*
X-122891349Y-74566092D01*
X-122968082Y-74514821D01*
X-123053344Y-74479504D01*
X-123143857Y-74461500D01*
X-123236143Y-74461500D01*
X-123326656Y-74479504D01*
X-123411918Y-74514821D01*
X-123488651Y-74566092D01*
X-123553908Y-74631349D01*
X-123605179Y-74708082D01*
X-123640496Y-74793344D01*
X-123658500Y-74883857D01*
X-123658500Y-74886499D01*
X-130931487Y-74886499D01*
X-130931487Y-74883857D01*
X-130949491Y-74793344D01*
X-130984808Y-74708082D01*
X-131036079Y-74631349D01*
X-131101336Y-74566092D01*
X-131178069Y-74514821D01*
X-131263331Y-74479504D01*
X-131353844Y-74461500D01*
X-131446130Y-74461500D01*
X-131536643Y-74479504D01*
X-131621905Y-74514821D01*
X-131636500Y-74524573D01*
X-131636500Y-73843703D01*
X-130124342Y-72331545D01*
X-123148500Y-72331545D01*
X-123148500Y-72448455D01*
X-123125692Y-72563118D01*
X-123080953Y-72671128D01*
X-123016002Y-72768334D01*
X-122933334Y-72851002D01*
X-122836128Y-72915953D01*
X-122728118Y-72960692D01*
X-122613455Y-72983500D01*
X-122496545Y-72983500D01*
X-122381882Y-72960692D01*
X-122273872Y-72915953D01*
X-122176666Y-72851002D01*
X-122093998Y-72768334D01*
X-122029047Y-72671128D01*
X-121984308Y-72563118D01*
X-121961500Y-72448455D01*
X-121961500Y-72331545D01*
X-116798500Y-72331545D01*
X-116798500Y-72448455D01*
X-116775692Y-72563118D01*
X-116730953Y-72671128D01*
X-116666002Y-72768334D01*
X-116583334Y-72851002D01*
X-116486128Y-72915953D01*
X-116378118Y-72960692D01*
X-116263455Y-72983500D01*
X-116146545Y-72983500D01*
X-116031882Y-72960692D01*
X-115923872Y-72915953D01*
X-115826666Y-72851002D01*
X-115743998Y-72768334D01*
X-115679047Y-72671128D01*
X-115634308Y-72563118D01*
X-115611500Y-72448455D01*
X-115611500Y-72331545D01*
X-115634308Y-72216882D01*
X-115679047Y-72108872D01*
X-115743998Y-72011666D01*
X-115826666Y-71928998D01*
X-115923872Y-71864047D01*
X-116031882Y-71819308D01*
X-116146545Y-71796500D01*
X-116263455Y-71796500D01*
X-116378118Y-71819308D01*
X-116486128Y-71864047D01*
X-116583334Y-71928998D01*
X-116666002Y-72011666D01*
X-116730953Y-72108872D01*
X-116775692Y-72216882D01*
X-116798500Y-72331545D01*
X-121961500Y-72331545D01*
X-121984308Y-72216882D01*
X-122029047Y-72108872D01*
X-122093998Y-72011666D01*
X-122176666Y-71928998D01*
X-122273872Y-71864047D01*
X-122381882Y-71819308D01*
X-122496545Y-71796500D01*
X-122613455Y-71796500D01*
X-122728118Y-71819308D01*
X-122836128Y-71864047D01*
X-122933334Y-71928998D01*
X-123016002Y-72011666D01*
X-123080953Y-72108872D01*
X-123125692Y-72216882D01*
X-123148500Y-72331545D01*
X-130124342Y-72331545D01*
X-129356297Y-71563500D01*
X-126518546Y-71563500D01*
X-126501656Y-71570496D01*
X-126411143Y-71588500D01*
X-126318857Y-71588500D01*
X-126228344Y-71570496D01*
X-126143082Y-71535179D01*
X-126066349Y-71483908D01*
X-126001092Y-71418651D01*
X-125949821Y-71341918D01*
X-125914504Y-71256656D01*
X-125896500Y-71166143D01*
X-125896500Y-71073857D01*
X-125914504Y-70983344D01*
X-125949821Y-70898082D01*
X-126001092Y-70821349D01*
X-126066349Y-70756092D01*
X-126143082Y-70704821D01*
X-126228344Y-70669504D01*
X-126318857Y-70651500D01*
X-126411143Y-70651500D01*
X-126501656Y-70669504D01*
X-126518546Y-70676500D01*
X-129518225Y-70676500D01*
X-129540001Y-70674355D01*
X-129561777Y-70676500D01*
X-129561778Y-70676500D01*
X-129626941Y-70682918D01*
X-129710541Y-70708278D01*
X-129787587Y-70749460D01*
X-129855119Y-70804881D01*
X-129869007Y-70821804D01*
X-132378200Y-73330997D01*
X-132395118Y-73344881D01*
X-132409001Y-73361798D01*
X-132450540Y-73412413D01*
X-132491722Y-73489460D01*
X-132517081Y-73573060D01*
X-132525645Y-73660000D01*
X-132523499Y-73681785D01*
X-132523500Y-74776454D01*
X-132530496Y-74793344D01*
X-132548500Y-74883857D01*
X-135066500Y-74883857D01*
X-135066500Y-65346545D01*
X-132038500Y-65346545D01*
X-132038500Y-65463455D01*
X-132015692Y-65578118D01*
X-131970953Y-65686128D01*
X-131906002Y-65783334D01*
X-131823334Y-65866002D01*
X-131726128Y-65930953D01*
X-131618118Y-65975692D01*
X-131503455Y-65998500D01*
X-131386545Y-65998500D01*
X-131271882Y-65975692D01*
X-131163872Y-65930953D01*
X-131066666Y-65866002D01*
X-130983998Y-65783334D01*
X-130919047Y-65686128D01*
X-130874308Y-65578118D01*
X-130851500Y-65463455D01*
X-130851500Y-65346545D01*
X-114893500Y-65346545D01*
X-114893500Y-65463455D01*
X-114870692Y-65578118D01*
X-114825953Y-65686128D01*
X-114761002Y-65783334D01*
X-114678334Y-65866002D01*
X-114581128Y-65930953D01*
X-114473118Y-65975692D01*
X-114358455Y-65998500D01*
X-114241545Y-65998500D01*
X-114126882Y-65975692D01*
X-114018872Y-65930953D01*
X-113921666Y-65866002D01*
X-113838998Y-65783334D01*
X-113774047Y-65686128D01*
X-113729308Y-65578118D01*
X-113706500Y-65463455D01*
X-113706500Y-65346545D01*
X-113729308Y-65231882D01*
X-113774047Y-65123872D01*
X-113838998Y-65026666D01*
X-113921666Y-64943998D01*
X-114018872Y-64879047D01*
X-114126882Y-64834308D01*
X-114241545Y-64811500D01*
X-114358455Y-64811500D01*
X-114473118Y-64834308D01*
X-114581128Y-64879047D01*
X-114678334Y-64943998D01*
X-114761002Y-65026666D01*
X-114825953Y-65123872D01*
X-114870692Y-65231882D01*
X-114893500Y-65346545D01*
X-130851500Y-65346545D01*
X-130874308Y-65231882D01*
X-130919047Y-65123872D01*
X-130983998Y-65026666D01*
X-131066666Y-64943998D01*
X-131163872Y-64879047D01*
X-131271882Y-64834308D01*
X-131386545Y-64811500D01*
X-131503455Y-64811500D01*
X-131618118Y-64834308D01*
X-131726128Y-64879047D01*
X-131823334Y-64943998D01*
X-131906002Y-65026666D01*
X-131970953Y-65123872D01*
X-132015692Y-65231882D01*
X-132038500Y-65346545D01*
X-135066500Y-65346545D01*
X-135066500Y-55821545D01*
X-123783500Y-55821545D01*
X-123783500Y-55938455D01*
X-123760692Y-56053118D01*
X-123715953Y-56161128D01*
X-123651002Y-56258334D01*
X-123568334Y-56341002D01*
X-123471128Y-56405953D01*
X-123363118Y-56450692D01*
X-123248455Y-56473500D01*
X-123131545Y-56473500D01*
X-123016882Y-56450692D01*
X-122908872Y-56405953D01*
X-122811666Y-56341002D01*
X-122728998Y-56258334D01*
X-122664047Y-56161128D01*
X-122619308Y-56053118D01*
X-122596500Y-55938455D01*
X-122596500Y-55821545D01*
X-122619308Y-55706882D01*
X-122664047Y-55598872D01*
X-122728998Y-55501666D01*
X-122811666Y-55418998D01*
X-122908872Y-55354047D01*
X-123016882Y-55309308D01*
X-123131545Y-55286500D01*
X-123248455Y-55286500D01*
X-123363118Y-55309308D01*
X-123471128Y-55354047D01*
X-123568334Y-55418998D01*
X-123651002Y-55501666D01*
X-123715953Y-55598872D01*
X-123760692Y-55706882D01*
X-123783500Y-55821545D01*
X-135066500Y-55821545D01*
X-135066500Y-53281545D01*
X-115378448Y-53281545D01*
X-115378448Y-53398455D01*
X-115355640Y-53513118D01*
X-115310901Y-53621128D01*
X-115245950Y-53718334D01*
X-115163282Y-53801002D01*
X-115066076Y-53865953D01*
X-114958066Y-53910692D01*
X-114843403Y-53933500D01*
X-114726493Y-53933500D01*
X-114611830Y-53910692D01*
X-114503820Y-53865953D01*
X-114406614Y-53801002D01*
X-114323946Y-53718334D01*
X-114258995Y-53621128D01*
X-114214256Y-53513118D01*
X-114191448Y-53398455D01*
X-114191448Y-53281545D01*
X-114214256Y-53166882D01*
X-114258995Y-53058872D01*
X-114323946Y-52961666D01*
X-114406614Y-52878998D01*
X-114503820Y-52814047D01*
X-114611830Y-52769308D01*
X-114726493Y-52746500D01*
X-114843403Y-52746500D01*
X-114958066Y-52769308D01*
X-115066076Y-52814047D01*
X-115163282Y-52878998D01*
X-115245950Y-52961666D01*
X-115310901Y-53058872D01*
X-115355640Y-53166882D01*
X-115378448Y-53281545D01*
X-135066500Y-53281545D01*
X-135066500Y-52011545D01*
X-132038500Y-52011545D01*
X-132038500Y-52128455D01*
X-132015692Y-52243118D01*
X-131970953Y-52351128D01*
X-131906002Y-52448334D01*
X-131823334Y-52531002D01*
X-131726128Y-52595953D01*
X-131618118Y-52640692D01*
X-131503455Y-52663500D01*
X-131386545Y-52663500D01*
X-131271882Y-52640692D01*
X-131163872Y-52595953D01*
X-131066666Y-52531002D01*
X-130983998Y-52448334D01*
X-130919047Y-52351128D01*
X-130874308Y-52243118D01*
X-130851500Y-52128455D01*
X-130851500Y-52011545D01*
X-123783500Y-52011545D01*
X-123783500Y-52128455D01*
X-123760692Y-52243118D01*
X-123715953Y-52351128D01*
X-123651002Y-52448334D01*
X-123568334Y-52531002D01*
X-123471128Y-52595953D01*
X-123363118Y-52640692D01*
X-123248455Y-52663500D01*
X-123131545Y-52663500D01*
X-123046307Y-52646545D01*
X-110448500Y-52646545D01*
X-110448500Y-52763455D01*
X-110425692Y-52878118D01*
X-110380953Y-52986128D01*
X-110316002Y-53083334D01*
X-110233334Y-53166002D01*
X-110136128Y-53230953D01*
X-110028118Y-53275692D01*
X-109913455Y-53298500D01*
X-109796545Y-53298500D01*
X-109681882Y-53275692D01*
X-109573872Y-53230953D01*
X-109476666Y-53166002D01*
X-109393998Y-53083334D01*
X-109329047Y-52986128D01*
X-109284308Y-52878118D01*
X-109261500Y-52763455D01*
X-109261500Y-52646545D01*
X-109284308Y-52531882D01*
X-109329047Y-52423872D01*
X-109393998Y-52326666D01*
X-109476666Y-52243998D01*
X-109573872Y-52179047D01*
X-109681882Y-52134308D01*
X-109796545Y-52111500D01*
X-109913455Y-52111500D01*
X-110028118Y-52134308D01*
X-110136128Y-52179047D01*
X-110233334Y-52243998D01*
X-110316002Y-52326666D01*
X-110380953Y-52423872D01*
X-110425692Y-52531882D01*
X-110448500Y-52646545D01*
X-123046307Y-52646545D01*
X-123016882Y-52640692D01*
X-122908872Y-52595953D01*
X-122811666Y-52531002D01*
X-122728998Y-52448334D01*
X-122664047Y-52351128D01*
X-122619308Y-52243118D01*
X-122596500Y-52128455D01*
X-122596500Y-52011545D01*
X-122619308Y-51896882D01*
X-122664047Y-51788872D01*
X-122728998Y-51691666D01*
X-122811666Y-51608998D01*
X-122908872Y-51544047D01*
X-123016882Y-51499308D01*
X-123131545Y-51476500D01*
X-123248455Y-51476500D01*
X-123363118Y-51499308D01*
X-123471128Y-51544047D01*
X-123568334Y-51608998D01*
X-123651002Y-51691666D01*
X-123715953Y-51788872D01*
X-123760692Y-51896882D01*
X-123783500Y-52011545D01*
X-130851500Y-52011545D01*
X-130874308Y-51896882D01*
X-130919047Y-51788872D01*
X-130983998Y-51691666D01*
X-131066666Y-51608998D01*
X-131163872Y-51544047D01*
X-131271882Y-51499308D01*
X-131386545Y-51476500D01*
X-131503455Y-51476500D01*
X-131618118Y-51499308D01*
X-131726128Y-51544047D01*
X-131823334Y-51608998D01*
X-131906002Y-51691666D01*
X-131970953Y-51788872D01*
X-132015692Y-51896882D01*
X-132038500Y-52011545D01*
X-135066500Y-52011545D01*
X-135066500Y-45756547D01*
X-132673500Y-45756547D01*
X-132673500Y-45873457D01*
X-132650692Y-45988120D01*
X-132605953Y-46096130D01*
X-132541002Y-46193336D01*
X-132458334Y-46276004D01*
X-132361128Y-46340955D01*
X-132253118Y-46385694D01*
X-132138455Y-46408502D01*
X-132021545Y-46408502D01*
X-131906882Y-46385694D01*
X-131798872Y-46340955D01*
X-131701666Y-46276004D01*
X-131618998Y-46193336D01*
X-131554047Y-46096130D01*
X-131509308Y-45988120D01*
X-131486500Y-45873457D01*
X-131486500Y-45756547D01*
X-131509308Y-45641884D01*
X-131554047Y-45533874D01*
X-131618998Y-45436668D01*
X-131701666Y-45354000D01*
X-131798872Y-45289049D01*
X-131906882Y-45244310D01*
X-132021545Y-45221502D01*
X-132138455Y-45221502D01*
X-132253118Y-45244310D01*
X-132361128Y-45289049D01*
X-132458334Y-45354000D01*
X-132541002Y-45436668D01*
X-132605953Y-45533874D01*
X-132650692Y-45641884D01*
X-132673500Y-45756547D01*
X-135066500Y-45756547D01*
X-135066500Y-43243500D01*
X-129166226Y-43243500D01*
X-129166226Y-45530799D01*
G37*
X-129166226Y-45530799D02*
X-129521926Y-45886500D01*
X-129586143Y-45886500D01*
X-129676656Y-45904504D01*
X-129761918Y-45939821D01*
X-129838651Y-45991092D01*
X-129903908Y-46056349D01*
X-129955179Y-46133082D01*
X-129990496Y-46218344D01*
X-130008500Y-46308857D01*
X-130008500Y-46401143D01*
X-129990496Y-46491656D01*
X-129955179Y-46576918D01*
X-129903908Y-46653651D01*
X-129862553Y-46695007D01*
X-129903908Y-46736362D01*
X-129955179Y-46813095D01*
X-129990496Y-46898357D01*
X-130008500Y-46988870D01*
X-130008500Y-47081156D01*
X-129990496Y-47171669D01*
X-129955179Y-47256931D01*
X-129903908Y-47333664D01*
X-129858499Y-47379073D01*
X-129858500Y-51090941D01*
X-129903908Y-51136349D01*
X-129955179Y-51213082D01*
X-129990496Y-51298344D01*
X-130008500Y-51388857D01*
X-130008500Y-51481143D01*
X-129990496Y-51571656D01*
X-129955179Y-51656918D01*
X-129903908Y-51733651D01*
X-129838651Y-51798908D01*
X-129761918Y-51850179D01*
X-129676656Y-51885496D01*
X-129586143Y-51903500D01*
X-129493857Y-51903500D01*
X-129403344Y-51885496D01*
X-129318082Y-51850179D01*
X-129241349Y-51798908D01*
X-129176092Y-51733651D01*
X-129124821Y-51656918D01*
X-129089504Y-51571656D01*
X-129071500Y-51481143D01*
X-129071500Y-51388857D01*
X-129089504Y-51298344D01*
X-129124821Y-51213082D01*
X-129176092Y-51136349D01*
X-129221500Y-51090941D01*
X-129221500Y-47379072D01*
X-129176092Y-47333664D01*
X-129124821Y-47256931D01*
X-129089504Y-47171669D01*
X-129071500Y-47081156D01*
X-129071500Y-46988870D01*
X-129089504Y-46898357D01*
X-129124821Y-46813095D01*
X-129176092Y-46736362D01*
X-129217448Y-46695007D01*
X-129176092Y-46653651D01*
X-129124821Y-46576918D01*
X-129089504Y-46491656D01*
X-129071500Y-46401143D01*
X-129071500Y-46336926D01*
X-128633573Y-45899000D01*
X-128621423Y-45889029D01*
X-128611449Y-45876876D01*
X-128581622Y-45840532D01*
X-128565814Y-45810957D01*
X-128552047Y-45785200D01*
X-128533834Y-45725163D01*
X-128529226Y-45678373D01*
X-128529226Y-45678362D01*
X-128527686Y-45662727D01*
X-128529226Y-45647092D01*
X-128529226Y-43243500D01*
X-127513926Y-43243500D01*
X-127849149Y-43578723D01*
X-127861302Y-43588697D01*
X-127871274Y-43600848D01*
X-127871277Y-43600851D01*
X-127901104Y-43637195D01*
X-127930678Y-43692526D01*
X-127948891Y-43752564D01*
X-127955040Y-43815000D01*
X-127953499Y-43830647D01*
X-127953500Y-45375941D01*
X-127998908Y-45421349D01*
X-128050179Y-45498082D01*
X-128085496Y-45583344D01*
X-128103500Y-45673857D01*
X-128103500Y-45766143D01*
X-128085496Y-45856656D01*
X-128050179Y-45941918D01*
X-127998908Y-46018651D01*
X-127933651Y-46083908D01*
X-127856918Y-46135179D01*
X-127771656Y-46170496D01*
X-127681143Y-46188500D01*
X-127588857Y-46188500D01*
X-127498344Y-46170496D01*
X-127413082Y-46135179D01*
X-127336349Y-46083908D01*
X-127271092Y-46018651D01*
X-127219821Y-45941918D01*
X-127184504Y-45856656D01*
X-127166500Y-45766143D01*
X-127166500Y-45701926D01*
X-126868073Y-45403500D01*
X-125226926Y-45403500D01*
X-124838930Y-45791497D01*
X-125110492Y-45791497D01*
X-125291138Y-45610852D01*
X-125301114Y-45598696D01*
X-125349612Y-45558895D01*
X-125404943Y-45529320D01*
X-125464980Y-45511107D01*
X-125511770Y-45506499D01*
X-125511780Y-45506499D01*
X-125527417Y-45504959D01*
X-125543054Y-45506499D01*
X-126225640Y-45506499D01*
X-126241277Y-45504959D01*
X-126256914Y-45506499D01*
X-126256924Y-45506499D01*
X-126303714Y-45511107D01*
X-126363751Y-45529320D01*
X-126419082Y-45558895D01*
X-126467580Y-45598696D01*
X-126477557Y-45610853D01*
X-126584564Y-45717860D01*
X-126596721Y-45727837D01*
X-126606695Y-45739991D01*
X-126636522Y-45776335D01*
X-126643803Y-45789957D01*
X-126666097Y-45831667D01*
X-126684310Y-45891704D01*
X-126688918Y-45938494D01*
X-126688918Y-45938503D01*
X-126690458Y-45954140D01*
X-126688918Y-45969777D01*
X-126688918Y-45998989D01*
X-126734326Y-46044397D01*
X-126785597Y-46121130D01*
X-126820914Y-46206392D01*
X-126838918Y-46296905D01*
X-126838918Y-46389191D01*
X-126820914Y-46479704D01*
X-126785597Y-46564966D01*
X-126734326Y-46641699D01*
X-126669069Y-46706956D01*
X-126592336Y-46758227D01*
X-126507074Y-46793544D01*
X-126416561Y-46811548D01*
X-126324275Y-46811548D01*
X-126233762Y-46793544D01*
X-126148500Y-46758227D01*
X-126071767Y-46706956D01*
X-126063236Y-46698425D01*
X-126057471Y-46707053D01*
X-125992214Y-46772310D01*
X-125915481Y-46823581D01*
X-125830219Y-46858898D01*
X-125739706Y-46876902D01*
X-125647420Y-46876902D01*
X-125556907Y-46858898D01*
X-125545675Y-46854246D01*
X-125563500Y-46943857D01*
X-125563500Y-47036143D01*
X-125545496Y-47126656D01*
X-125510179Y-47211918D01*
X-125458908Y-47288651D01*
X-125393651Y-47353908D01*
X-125316918Y-47405179D01*
X-125231656Y-47440496D01*
X-125141143Y-47458500D01*
X-125048857Y-47458500D01*
X-125031314Y-47455011D01*
X-125053500Y-47566545D01*
X-125053500Y-47683455D01*
X-125030692Y-47798118D01*
X-124985953Y-47906128D01*
X-124921002Y-48003334D01*
X-124838334Y-48086002D01*
X-124741128Y-48150953D01*
X-124633118Y-48195692D01*
X-124518455Y-48218500D01*
X-124401545Y-48218500D01*
X-124286882Y-48195692D01*
X-124178872Y-48150953D01*
X-124081666Y-48086002D01*
X-123998998Y-48003334D01*
X-123934047Y-47906128D01*
X-123889308Y-47798118D01*
X-123866500Y-47683455D01*
X-123866500Y-47566545D01*
X-123889308Y-47451882D01*
X-123934047Y-47343872D01*
X-123998998Y-47246666D01*
X-124081666Y-47163998D01*
X-124178872Y-47099047D01*
X-124286882Y-47054308D01*
X-124401545Y-47031500D01*
X-124518455Y-47031500D01*
X-124629989Y-47053686D01*
X-124626500Y-47036143D01*
X-124626500Y-46971927D01*
X-124613071Y-46958498D01*
X-122339490Y-46958498D01*
X-122370496Y-47033352D01*
X-122388500Y-47123865D01*
X-122388500Y-47216151D01*
X-122370496Y-47306664D01*
X-122335179Y-47391926D01*
X-122283908Y-47468659D01*
X-122238499Y-47514068D01*
X-122238500Y-51090941D01*
X-122283908Y-51136349D01*
X-122335179Y-51213082D01*
X-122370496Y-51298344D01*
X-122388500Y-51388857D01*
X-122388500Y-51481143D01*
X-122370496Y-51571656D01*
X-122335179Y-51656918D01*
X-122283908Y-51733651D01*
X-122218651Y-51798908D01*
X-122141918Y-51850179D01*
X-122056656Y-51885496D01*
X-121966143Y-51903500D01*
X-121873857Y-51903500D01*
X-121783344Y-51885496D01*
X-121698082Y-51850179D01*
X-121621349Y-51798908D01*
X-121556092Y-51733651D01*
X-121504821Y-51656918D01*
X-121469504Y-51571656D01*
X-121451500Y-51481143D01*
X-121451500Y-51388857D01*
X-121469504Y-51298344D01*
X-121504821Y-51213082D01*
X-121556092Y-51136349D01*
X-121601500Y-51090941D01*
X-121601500Y-48836545D01*
X-115528500Y-48836545D01*
X-115528500Y-48953455D01*
X-115505692Y-49068118D01*
X-115460953Y-49176128D01*
X-115396002Y-49273334D01*
X-115313334Y-49356002D01*
X-115216128Y-49420953D01*
X-115108118Y-49465692D01*
X-114993455Y-49488500D01*
X-114876545Y-49488500D01*
X-114761882Y-49465692D01*
X-114653872Y-49420953D01*
X-114556666Y-49356002D01*
X-114473998Y-49273334D01*
X-114409047Y-49176128D01*
X-114364308Y-49068118D01*
X-114341500Y-48953455D01*
X-114341500Y-48836545D01*
X-114364308Y-48721882D01*
X-114409047Y-48613872D01*
X-114473998Y-48516666D01*
X-114556666Y-48433998D01*
X-114653872Y-48369047D01*
X-114761882Y-48324308D01*
X-114876545Y-48301500D01*
X-114993455Y-48301500D01*
X-115108118Y-48324308D01*
X-115216128Y-48369047D01*
X-115313334Y-48433998D01*
X-115396002Y-48516666D01*
X-115460953Y-48613872D01*
X-115505692Y-48721882D01*
X-115528500Y-48836545D01*
X-121601500Y-48836545D01*
X-121601500Y-47514067D01*
X-121556092Y-47468659D01*
X-121504821Y-47391926D01*
X-121469504Y-47306664D01*
X-121451500Y-47216151D01*
X-121451500Y-47123865D01*
X-121469504Y-47033352D01*
X-121500510Y-46958498D01*
X-120994059Y-46958498D01*
X-120948651Y-47003906D01*
X-120871918Y-47055177D01*
X-120786656Y-47090494D01*
X-120696143Y-47108498D01*
X-120603857Y-47108498D01*
X-120513344Y-47090494D01*
X-120428082Y-47055177D01*
X-120351349Y-47003906D01*
X-120286092Y-46938649D01*
X-120234821Y-46861916D01*
X-120199504Y-46776654D01*
X-120181500Y-46686141D01*
X-120181500Y-46662108D01*
X-120177213Y-46662530D01*
X-120177211Y-46662530D01*
X-120161566Y-46664071D01*
X-120145921Y-46662530D01*
X-119094236Y-46662530D01*
X-119048828Y-46707938D01*
X-118972095Y-46759209D01*
X-118886833Y-46794526D01*
X-118796320Y-46812530D01*
X-118704034Y-46812530D01*
X-118613521Y-46794526D01*
X-118528259Y-46759209D01*
X-118451526Y-46707938D01*
X-118386269Y-46642681D01*
X-118334998Y-46565948D01*
X-118299681Y-46480686D01*
X-118281677Y-46390173D01*
X-118281677Y-46297887D01*
X-118299681Y-46207374D01*
X-118329102Y-46136345D01*
X-118246656Y-46170496D01*
X-118156143Y-46188500D01*
X-118063857Y-46188500D01*
X-118046314Y-46185011D01*
X-118068500Y-46296545D01*
X-118068500Y-46413455D01*
X-118045692Y-46528118D01*
X-118000953Y-46636128D01*
X-117936002Y-46733334D01*
X-117853334Y-46816002D01*
X-117756128Y-46880953D01*
X-117648118Y-46925692D01*
X-117533455Y-46948500D01*
X-117416545Y-46948500D01*
X-117301882Y-46925692D01*
X-117193872Y-46880953D01*
X-117096666Y-46816002D01*
X-117013998Y-46733334D01*
X-116949047Y-46636128D01*
X-116904308Y-46528118D01*
X-116881500Y-46413455D01*
X-116881500Y-46296545D01*
X-116904308Y-46181882D01*
X-116949047Y-46073872D01*
X-117013998Y-45976666D01*
X-117096666Y-45893998D01*
X-117193872Y-45829047D01*
X-117301882Y-45784308D01*
X-117416545Y-45761500D01*
X-117533455Y-45761500D01*
X-117644989Y-45783686D01*
X-117641500Y-45766143D01*
X-117641500Y-45673857D01*
X-117659504Y-45583344D01*
X-117694821Y-45498082D01*
X-117746092Y-45421349D01*
X-117811349Y-45356092D01*
X-117888082Y-45304821D01*
X-117973344Y-45269504D01*
X-118063857Y-45251500D01*
X-118156143Y-45251500D01*
X-118246656Y-45269504D01*
X-118331918Y-45304821D01*
X-118408651Y-45356092D01*
X-118473908Y-45421349D01*
X-118521072Y-45491935D01*
X-118523874Y-45488520D01*
X-118536025Y-45478548D01*
X-120413723Y-43600851D01*
X-120423697Y-43588697D01*
X-120472195Y-43548896D01*
X-120527526Y-43519321D01*
X-120587563Y-43501108D01*
X-120634353Y-43496500D01*
X-120634363Y-43496500D01*
X-120650000Y-43494960D01*
X-120665637Y-43496500D01*
X-123693073Y-43496500D01*
X-123946073Y-43243500D01*
X-109177496Y-43243500D01*
X-109155692Y-43353118D01*
X-109110953Y-43461128D01*
X-109046002Y-43558334D01*
X-108963334Y-43641002D01*
X-108866128Y-43705953D01*
X-108758118Y-43750692D01*
X-108643455Y-43773500D01*
X-108526545Y-43773500D01*
X-108411882Y-43750692D01*
X-108303872Y-43705953D01*
X-108206666Y-43641002D01*
X-108123998Y-43558334D01*
X-108059047Y-43461128D01*
X-108014308Y-43353118D01*
X-107992504Y-43243500D01*
X-106868499Y-43243500D01*
X-106868500Y-59699260D01*
X-106868499Y-59699270D01*
X-106868500Y-81289260D01*
X-106868499Y-81289270D01*
X-106868500Y-99506500D01*
X-135066500Y-99506500D01*
X-135066500Y-98005000D01*
X-134139265Y-98005000D01*
X-134128231Y-98117034D01*
X-134095552Y-98224762D01*
X-134042484Y-98324045D01*
X-133971067Y-98411067D01*
X-133884045Y-98482484D01*
X-133784762Y-98535552D01*
X-133677034Y-98568231D01*
X-133565000Y-98579265D01*
X-133048375Y-98576500D01*
X-132905500Y-98433625D01*
X-132905500Y-97345500D01*
X-132524500Y-97345500D01*
X-132524500Y-98433625D01*
X-132381625Y-98576500D01*
X-131865000Y-98579265D01*
X-131752966Y-98568231D01*
X-131645238Y-98535552D01*
X-131545955Y-98482484D01*
X-131458933Y-98411067D01*
X-131387516Y-98324045D01*
X-131334448Y-98224762D01*
X-131301769Y-98117034D01*
X-131290735Y-98005000D01*
X-131293500Y-97488375D01*
X-131436375Y-97345500D01*
X-132524500Y-97345500D01*
X-132905500Y-97345500D01*
X-133993625Y-97345500D01*
X-134136500Y-97488375D01*
X-134139265Y-98005000D01*
X-135066500Y-98005000D01*
X-135066500Y-96305000D01*
X-134139265Y-96305000D01*
X-134136500Y-96821625D01*
X-133993625Y-96964500D01*
X-132905500Y-96964500D01*
X-132905500Y-95876375D01*
X-132524500Y-95876375D01*
X-132524500Y-96964500D01*
X-131436375Y-96964500D01*
X-131293500Y-96821625D01*
X-131291389Y-96427073D01*
X-127308500Y-96427073D01*
X-127308500Y-96612927D01*
X-127272242Y-96795209D01*
X-127201119Y-96966915D01*
X-127097864Y-97121446D01*
X-126966446Y-97252864D01*
X-126811915Y-97356119D01*
X-126640209Y-97427242D01*
X-126457927Y-97463500D01*
X-126272073Y-97463500D01*
X-126089791Y-97427242D01*
X-125918085Y-97356119D01*
X-125763554Y-97252864D01*
X-125632136Y-97121446D01*
X-125528881Y-96966915D01*
X-125457758Y-96795209D01*
X-125421500Y-96612927D01*
X-125421500Y-96568959D01*
X-118278500Y-96568959D01*
X-118278500Y-97001041D01*
X-118194205Y-97424820D01*
X-118028854Y-97824012D01*
X-117788802Y-98183274D01*
X-117483274Y-98488802D01*
X-117124012Y-98728854D01*
X-116724820Y-98894205D01*
X-116301041Y-98978500D01*
X-115868959Y-98978500D01*
X-115445180Y-98894205D01*
X-115045988Y-98728854D01*
X-114686726Y-98488802D01*
X-114381198Y-98183274D01*
X-114141146Y-97824012D01*
X-113975795Y-97424820D01*
X-113891500Y-97001041D01*
X-113891500Y-96568959D01*
X-113975795Y-96145180D01*
X-114141146Y-95745988D01*
X-114235643Y-95604563D01*
X-109385156Y-95604563D01*
X-109292750Y-95833232D01*
X-109025878Y-95946363D01*
X-108742064Y-96005255D01*
X-108452214Y-96007646D01*
X-108167467Y-95953444D01*
X-107898765Y-95844732D01*
X-107877250Y-95833232D01*
X-107784844Y-95604563D01*
X-108585000Y-94804408D01*
X-109385156Y-95604563D01*
X-114235643Y-95604563D01*
X-114381198Y-95386726D01*
X-114686726Y-95081198D01*
X-115045988Y-94841146D01*
X-115445180Y-94675795D01*
X-115485443Y-94667786D01*
X-110057646Y-94667786D01*
X-110003444Y-94952533D01*
X-109894732Y-95221235D01*
X-109883232Y-95242750D01*
X-109654563Y-95335156D01*
X-108854408Y-94535000D01*
X-108315592Y-94535000D01*
X-107515437Y-95335156D01*
X-107286768Y-95242750D01*
X-107173637Y-94975878D01*
X-107114745Y-94692064D01*
X-107112354Y-94402214D01*
X-107166556Y-94117467D01*
X-107275268Y-93848765D01*
X-107286768Y-93827250D01*
X-107515437Y-93734844D01*
X-108315592Y-94535000D01*
X-108854408Y-94535000D01*
X-109654563Y-93734844D01*
X-109883232Y-93827250D01*
X-109996363Y-94094122D01*
X-110055255Y-94377936D01*
X-110057646Y-94667786D01*
X-115485443Y-94667786D01*
X-115868959Y-94591500D01*
X-116301041Y-94591500D01*
X-116724820Y-94675795D01*
X-117124012Y-94841146D01*
X-117483274Y-95081198D01*
X-117788802Y-95386726D01*
X-118028854Y-95745988D01*
X-118194205Y-96145180D01*
X-118278500Y-96568959D01*
X-125421500Y-96568959D01*
X-125421500Y-96427073D01*
X-125457758Y-96244791D01*
X-125528881Y-96073085D01*
X-125632136Y-95918554D01*
X-125763554Y-95787136D01*
X-125918085Y-95683881D01*
X-126089791Y-95612758D01*
X-126272073Y-95576500D01*
X-126457927Y-95576500D01*
X-126640209Y-95612758D01*
X-126811915Y-95683881D01*
X-126966446Y-95787136D01*
X-127097864Y-95918554D01*
X-127201119Y-96073085D01*
X-127272242Y-96244791D01*
X-127308500Y-96427073D01*
X-131291389Y-96427073D01*
X-131290735Y-96305000D01*
X-131301769Y-96192966D01*
X-131334448Y-96085238D01*
X-131387516Y-95985955D01*
X-131458933Y-95898933D01*
X-131545955Y-95827516D01*
X-131645238Y-95774448D01*
X-131752966Y-95741769D01*
X-131865000Y-95730735D01*
X-132381625Y-95733500D01*
X-132524500Y-95876375D01*
X-132905500Y-95876375D01*
X-133048375Y-95733500D01*
X-133565000Y-95730735D01*
X-133677034Y-95741769D01*
X-133784762Y-95774448D01*
X-133884045Y-95827516D01*
X-133971067Y-95898933D01*
X-134042484Y-95985955D01*
X-134095552Y-96085238D01*
X-134128231Y-96192966D01*
X-134139265Y-96305000D01*
X-135066500Y-96305000D01*
X-135066500Y-94512224D01*
X-133758500Y-94512224D01*
X-133758500Y-94717776D01*
X-133718399Y-94919378D01*
X-133639738Y-95109283D01*
X-133525539Y-95280192D01*
X-133380192Y-95425539D01*
X-133209283Y-95539738D01*
X-133019378Y-95618399D01*
X-132817776Y-95658500D01*
X-132612224Y-95658500D01*
X-132410622Y-95618399D01*
X-132220717Y-95539738D01*
X-132049808Y-95425539D01*
X-131904461Y-95280192D01*
X-131790262Y-95109283D01*
X-131711601Y-94919378D01*
X-131671500Y-94717776D01*
X-131671500Y-94512224D01*
X-131711601Y-94310622D01*
X-131790262Y-94120717D01*
X-131904461Y-93949808D01*
X-132049808Y-93804461D01*
X-132220717Y-93690262D01*
X-132410622Y-93611601D01*
X-132612224Y-93571500D01*
X-132817776Y-93571500D01*
X-133019378Y-93611601D01*
X-133209283Y-93690262D01*
X-133380192Y-93804461D01*
X-133525539Y-93949808D01*
X-133639738Y-94120717D01*
X-133718399Y-94310622D01*
X-133758500Y-94512224D01*
X-135066500Y-94512224D01*
X-135066500Y-90427073D01*
X-127308500Y-90427073D01*
X-127308500Y-90612927D01*
X-127272242Y-90795209D01*
X-127201119Y-90966915D01*
X-127097864Y-91121446D01*
X-126966446Y-91252864D01*
X-126811915Y-91356119D01*
X-126640209Y-91427242D01*
X-126457927Y-91463500D01*
X-126272073Y-91463500D01*
X-126089791Y-91427242D01*
X-125918085Y-91356119D01*
X-125763554Y-91252864D01*
X-125632136Y-91121446D01*
X-125528881Y-90966915D01*
X-125457758Y-90795209D01*
X-125421500Y-90612927D01*
X-125421500Y-90427073D01*
X-125457758Y-90244791D01*
X-125528881Y-90073085D01*
X-125632136Y-89918554D01*
X-125763554Y-89787136D01*
X-125918085Y-89683881D01*
X-126089791Y-89612758D01*
X-126272073Y-89576500D01*
X-126457927Y-89576500D01*
X-126640209Y-89612758D01*
X-126811915Y-89683881D01*
X-126966446Y-89787136D01*
X-127097864Y-89918554D01*
X-127201119Y-90073085D01*
X-127272242Y-90244791D01*
X-127308500Y-90427073D01*
X-135066500Y-90427073D01*
X-135066500Y-82550000D01*
X-131890645Y-82550000D01*
X-131888500Y-82571776D01*
X-131888499Y-84433214D01*
X-131890645Y-84455000D01*
X-131882081Y-84541940D01*
X-131856722Y-84625540D01*
X-131815540Y-84702587D01*
X-131800343Y-84721104D01*
X-131760118Y-84770119D01*
X-131743200Y-84784003D01*
X-130618500Y-85908704D01*
X-130618499Y-88746452D01*
X-130625496Y-88763344D01*
X-130643500Y-88853857D01*
X-130643500Y-88946143D01*
X-130625496Y-89036656D01*
X-130590179Y-89121918D01*
X-130538908Y-89198651D01*
X-130473651Y-89263908D01*
X-130396918Y-89315179D01*
X-130311656Y-89350496D01*
X-130221143Y-89368500D01*
X-130128857Y-89368500D01*
X-130038344Y-89350496D01*
X-129953082Y-89315179D01*
X-129876349Y-89263908D01*
X-129811092Y-89198651D01*
X-129759821Y-89121918D01*
X-129724504Y-89036656D01*
X-129706500Y-88946143D01*
X-129706500Y-88853857D01*
X-129724504Y-88763344D01*
X-129731500Y-88746454D01*
X-129731500Y-87068959D01*
X-118278500Y-87068959D01*
X-118278500Y-87501041D01*
X-118194205Y-87924820D01*
X-118028854Y-88324012D01*
X-117788802Y-88683274D01*
X-117483274Y-88988802D01*
X-117124012Y-89228854D01*
X-116724820Y-89394205D01*
X-116301041Y-89478500D01*
X-115868959Y-89478500D01*
X-115445180Y-89394205D01*
X-115045988Y-89228854D01*
X-114686726Y-88988802D01*
X-114381198Y-88683274D01*
X-114141146Y-88324012D01*
X-113975795Y-87924820D01*
X-113891500Y-87501041D01*
X-113891500Y-87181063D01*
X-113891303Y-87181303D01*
X-113879146Y-87191280D01*
X-109553785Y-91516642D01*
X-109554047Y-91517034D01*
X-109636477Y-91716038D01*
X-109678500Y-91927300D01*
X-109678500Y-92142700D01*
X-109636477Y-92353962D01*
X-109554047Y-92552966D01*
X-109434377Y-92732066D01*
X-109282066Y-92884377D01*
X-109102966Y-93004047D01*
X-108903962Y-93086477D01*
X-108874892Y-93092259D01*
X-109002533Y-93116556D01*
X-109271235Y-93225268D01*
X-109292750Y-93236768D01*
X-109385156Y-93465437D01*
X-108585000Y-94265592D01*
X-107784844Y-93465437D01*
X-107877250Y-93236768D01*
X-108144122Y-93123637D01*
X-108295225Y-93092283D01*
X-108266038Y-93086477D01*
X-108067034Y-93004047D01*
X-107887934Y-92884377D01*
X-107735623Y-92732066D01*
X-107615953Y-92552966D01*
X-107533523Y-92353962D01*
X-107491500Y-92142700D01*
X-107491500Y-91927300D01*
X-107533523Y-91716038D01*
X-107615953Y-91517034D01*
X-107735623Y-91337934D01*
X-107887934Y-91185623D01*
X-108067034Y-91065953D01*
X-108266038Y-90983523D01*
X-108477300Y-90941500D01*
X-108692700Y-90941500D01*
X-108903962Y-90983523D01*
X-109102966Y-91065953D01*
X-109103358Y-91066215D01*
X-113346500Y-86823074D01*
X-113346500Y-77275000D01*
X-112554436Y-77275000D01*
X-112554436Y-78475000D01*
X-112550700Y-78512933D01*
X-112539635Y-78549407D01*
X-112521668Y-78583023D01*
X-112497487Y-78612487D01*
X-112468023Y-78636668D01*
X-112434407Y-78654635D01*
X-112397933Y-78665700D01*
X-112360000Y-78669436D01*
X-112130132Y-78669436D01*
X-112135863Y-78671810D01*
X-112265827Y-78758649D01*
X-112376351Y-78869173D01*
X-112463190Y-78999137D01*
X-112523006Y-79143545D01*
X-112553500Y-79296847D01*
X-112553500Y-79453153D01*
X-112523006Y-79606455D01*
X-112463190Y-79750863D01*
X-112376351Y-79880827D01*
X-112265827Y-79991351D01*
X-112135863Y-80078190D01*
X-112078500Y-80101951D01*
X-112078499Y-81264353D01*
X-112080040Y-81280000D01*
X-112078499Y-81295647D01*
X-112073891Y-81342437D01*
X-112055678Y-81402474D01*
X-112026104Y-81457805D01*
X-111996277Y-81494149D01*
X-111996274Y-81494152D01*
X-111986302Y-81506303D01*
X-111974151Y-81516275D01*
X-108903500Y-84586927D01*
X-108903499Y-88483431D01*
X-108903962Y-88483523D01*
X-109102966Y-88565953D01*
X-109282066Y-88685623D01*
X-109434377Y-88837934D01*
X-109554047Y-89017034D01*
X-109636477Y-89216038D01*
X-109678500Y-89427300D01*
X-109678500Y-89642700D01*
X-109636477Y-89853962D01*
X-109554047Y-90052966D01*
X-109434377Y-90232066D01*
X-109282066Y-90384377D01*
X-109102966Y-90504047D01*
X-108903962Y-90586477D01*
X-108692700Y-90628500D01*
X-108477300Y-90628500D01*
X-108266038Y-90586477D01*
X-108067034Y-90504047D01*
X-107887934Y-90384377D01*
X-107735623Y-90232066D01*
X-107615953Y-90052966D01*
X-107533523Y-89853962D01*
X-107491500Y-89642700D01*
X-107491500Y-89427300D01*
X-107533523Y-89216038D01*
X-107615953Y-89017034D01*
X-107735623Y-88837934D01*
X-107887934Y-88685623D01*
X-108067034Y-88565953D01*
X-108266038Y-88483523D01*
X-108266500Y-88483431D01*
X-108266500Y-84470636D01*
X-108264960Y-84454999D01*
X-108266500Y-84439362D01*
X-108266500Y-84439353D01*
X-108271108Y-84392563D01*
X-108289321Y-84332526D01*
X-108303088Y-84306769D01*
X-108318896Y-84277194D01*
X-108348723Y-84240850D01*
X-108348725Y-84240848D01*
X-108358697Y-84228697D01*
X-108370847Y-84218726D01*
X-111441500Y-81148074D01*
X-111441500Y-80101951D01*
X-111384137Y-80078190D01*
X-111254173Y-79991351D01*
X-111143649Y-79880827D01*
X-111056810Y-79750863D01*
X-110996994Y-79606455D01*
X-110966500Y-79453153D01*
X-110966500Y-79296847D01*
X-110996994Y-79143545D01*
X-111056810Y-78999137D01*
X-111143649Y-78869173D01*
X-111254173Y-78758649D01*
X-111384137Y-78671810D01*
X-111389868Y-78669436D01*
X-111160000Y-78669436D01*
X-111122067Y-78665700D01*
X-111085593Y-78654635D01*
X-111051977Y-78636668D01*
X-111022513Y-78612487D01*
X-110998332Y-78583023D01*
X-110980365Y-78549407D01*
X-110969300Y-78512933D01*
X-110965564Y-78475000D01*
X-110965564Y-77275000D01*
X-110969300Y-77237067D01*
X-110980365Y-77200593D01*
X-110998332Y-77166977D01*
X-111022513Y-77137513D01*
X-111051977Y-77113332D01*
X-111085593Y-77095365D01*
X-111122067Y-77084300D01*
X-111160000Y-77080564D01*
X-112360000Y-77080564D01*
X-112397933Y-77084300D01*
X-112434407Y-77095365D01*
X-112468023Y-77113332D01*
X-112497487Y-77137513D01*
X-112521668Y-77166977D01*
X-112539635Y-77200593D01*
X-112550700Y-77237067D01*
X-112554436Y-77275000D01*
X-113346500Y-77275000D01*
X-113346500Y-71135634D01*
X-113344960Y-71119999D01*
X-113346500Y-71104365D01*
X-113346500Y-71104353D01*
X-113351108Y-71057563D01*
X-113369321Y-70997526D01*
X-113383088Y-70971769D01*
X-113398896Y-70942194D01*
X-113428723Y-70905850D01*
X-113428725Y-70905848D01*
X-113438697Y-70893697D01*
X-113450848Y-70883725D01*
X-115693719Y-68640855D01*
X-115693724Y-68640849D01*
X-115736500Y-68598073D01*
X-115736500Y-68533857D01*
X-115754504Y-68443344D01*
X-115789821Y-68358082D01*
X-115841092Y-68281349D01*
X-115906349Y-68216092D01*
X-115983082Y-68164821D01*
X-116068344Y-68129504D01*
X-116158857Y-68111500D01*
X-116251143Y-68111500D01*
X-116341656Y-68129504D01*
X-116426918Y-68164821D01*
X-116503651Y-68216092D01*
X-116568908Y-68281349D01*
X-116620179Y-68358082D01*
X-116655496Y-68443344D01*
X-116673500Y-68533857D01*
X-116673500Y-68626143D01*
X-116655496Y-68716656D01*
X-116620179Y-68801918D01*
X-116568908Y-68878651D01*
X-116503651Y-68943908D01*
X-116426918Y-68995179D01*
X-116341656Y-69030496D01*
X-116251143Y-69048500D01*
X-116186927Y-69048500D01*
X-116144151Y-69091276D01*
X-116144145Y-69091281D01*
X-113983499Y-71251928D01*
X-113983500Y-86626579D01*
X-114141146Y-86245988D01*
X-114381198Y-85886726D01*
X-114686726Y-85581198D01*
X-115045988Y-85341146D01*
X-115445180Y-85175795D01*
X-115868959Y-85091500D01*
X-116301041Y-85091500D01*
X-116724820Y-85175795D01*
X-117124012Y-85341146D01*
X-117483274Y-85581198D01*
X-117788802Y-85886726D01*
X-118028854Y-86245988D01*
X-118194205Y-86645180D01*
X-118278500Y-87068959D01*
X-129731500Y-87068959D01*
X-129731500Y-85746775D01*
X-129729355Y-85724999D01*
X-129731500Y-85703222D01*
X-129737918Y-85638059D01*
X-129763278Y-85554459D01*
X-129804459Y-85477414D01*
X-129804460Y-85477412D01*
X-129845999Y-85426797D01*
X-129859881Y-85409881D01*
X-129876798Y-85395998D01*
X-131001500Y-84271297D01*
X-131001500Y-82733703D01*
X-129969971Y-81702175D01*
X-129953082Y-81695179D01*
X-129876349Y-81643908D01*
X-129811092Y-81578651D01*
X-129759821Y-81501918D01*
X-129724504Y-81416656D01*
X-129706500Y-81326143D01*
X-129706500Y-81233857D01*
X-129724504Y-81143344D01*
X-129759821Y-81058082D01*
X-129811092Y-80981349D01*
X-129876349Y-80916092D01*
X-129953082Y-80864821D01*
X-130038344Y-80829504D01*
X-130128857Y-80811500D01*
X-130221143Y-80811500D01*
X-130311656Y-80829504D01*
X-130396918Y-80864821D01*
X-130473651Y-80916092D01*
X-130538908Y-80981349D01*
X-130590179Y-81058082D01*
X-130597175Y-81074971D01*
X-131743196Y-82220993D01*
X-131760119Y-82234881D01*
X-131796255Y-82278914D01*
X-131815540Y-82302413D01*
X-131856721Y-82379459D01*
X-131856722Y-82379460D01*
X-131882082Y-82463060D01*
X-131888500Y-82528222D01*
X-131890645Y-82550000D01*
X-135066500Y-82550000D01*
X-135066500Y-77423857D01*
X-128103500Y-77423857D01*
X-128103500Y-77516143D01*
X-128085496Y-77606656D01*
X-128050179Y-77691918D01*
X-127998908Y-77768651D01*
X-127933651Y-77833908D01*
X-127856918Y-77885179D01*
X-127771656Y-77920496D01*
X-127681143Y-77938500D01*
X-127588857Y-77938500D01*
X-127498344Y-77920496D01*
X-127481454Y-77913500D01*
X-123978546Y-77913500D01*
X-123961656Y-77920496D01*
X-123871143Y-77938500D01*
X-123778857Y-77938500D01*
X-123688344Y-77920496D01*
X-123603082Y-77885179D01*
X-123526349Y-77833908D01*
X-123461092Y-77768651D01*
X-123409821Y-77691918D01*
X-123374504Y-77606656D01*
X-123356500Y-77516143D01*
X-123356500Y-77423857D01*
X-123374504Y-77333344D01*
X-123398671Y-77275000D01*
X-120174436Y-77275000D01*
X-120174436Y-78475000D01*
X-120170700Y-78512933D01*
X-120159635Y-78549407D01*
X-120141668Y-78583023D01*
X-120117487Y-78612487D01*
X-120088023Y-78636668D01*
X-120054407Y-78654635D01*
X-120017933Y-78665700D01*
X-119980000Y-78669436D01*
X-119750132Y-78669436D01*
X-119755863Y-78671810D01*
X-119885827Y-78758649D01*
X-119996351Y-78869173D01*
X-120083190Y-78999137D01*
X-120143006Y-79143545D01*
X-120173500Y-79296847D01*
X-120173500Y-79453153D01*
X-120143006Y-79606455D01*
X-120083190Y-79750863D01*
X-119996351Y-79880827D01*
X-119885827Y-79991351D01*
X-119755863Y-80078190D01*
X-119611455Y-80138006D01*
X-119458153Y-80168500D01*
X-119301847Y-80168500D01*
X-119148545Y-80138006D01*
X-119004137Y-80078190D01*
X-118874173Y-79991351D01*
X-118763649Y-79880827D01*
X-118676810Y-79750863D01*
X-118616994Y-79606455D01*
X-118586500Y-79453153D01*
X-118586500Y-79296847D01*
X-118616994Y-79143545D01*
X-118676810Y-78999137D01*
X-118763649Y-78869173D01*
X-118874173Y-78758649D01*
X-119004137Y-78671810D01*
X-119009868Y-78669436D01*
X-118780000Y-78669436D01*
X-118742067Y-78665700D01*
X-118705593Y-78654635D01*
X-118671977Y-78636668D01*
X-118642513Y-78612487D01*
X-118618332Y-78583023D01*
X-118600365Y-78549407D01*
X-118589300Y-78512933D01*
X-118585564Y-78475000D01*
X-118585564Y-77275000D01*
X-118589300Y-77237067D01*
X-118600365Y-77200593D01*
X-118618332Y-77166977D01*
X-118642513Y-77137513D01*
X-118671977Y-77113332D01*
X-118705593Y-77095365D01*
X-118742067Y-77084300D01*
X-118780000Y-77080564D01*
X-119980000Y-77080564D01*
X-120017933Y-77084300D01*
X-120054407Y-77095365D01*
X-120088023Y-77113332D01*
X-120117487Y-77137513D01*
X-120141668Y-77166977D01*
X-120159635Y-77200593D01*
X-120170700Y-77237067D01*
X-120174436Y-77275000D01*
X-123398671Y-77275000D01*
X-123409821Y-77248082D01*
X-123461092Y-77171349D01*
X-123526349Y-77106092D01*
X-123603082Y-77054821D01*
X-123688344Y-77019504D01*
X-123778857Y-77001500D01*
X-123871143Y-77001500D01*
X-123961656Y-77019504D01*
X-123978546Y-77026500D01*
X-127481454Y-77026500D01*
X-127498344Y-77019504D01*
X-127588857Y-77001500D01*
X-127681143Y-77001500D01*
X-127771656Y-77019504D01*
X-127856918Y-77054821D01*
X-127933651Y-77106092D01*
X-127998908Y-77171349D01*
X-128050179Y-77248082D01*
X-128085496Y-77333344D01*
X-128103500Y-77423857D01*
X-135066500Y-77423857D01*
X-135066500Y-74883857D01*
X-132548500Y-74883857D01*
X-132548500Y-74976143D01*
X-132530496Y-75066656D01*
X-132495179Y-75151918D01*
X-132443908Y-75228651D01*
X-132378651Y-75293908D01*
X-132301918Y-75345179D01*
X-132216656Y-75380496D01*
X-132126143Y-75398500D01*
X-132033857Y-75398500D01*
X-131943344Y-75380496D01*
X-131858082Y-75345179D01*
X-131781349Y-75293908D01*
X-131739994Y-75252553D01*
X-131698638Y-75293908D01*
X-131621905Y-75345179D01*
X-131536643Y-75380496D01*
X-131446130Y-75398500D01*
X-131381914Y-75398500D01*
X-131361263Y-75419151D01*
X-131351291Y-75431302D01*
X-131339140Y-75441274D01*
X-131339138Y-75441276D01*
X-131302794Y-75471103D01*
X-131273219Y-75486911D01*
X-131247462Y-75500678D01*
X-131187425Y-75518891D01*
X-131140635Y-75523499D01*
X-131140624Y-75523499D01*
X-131124989Y-75525039D01*
X-131109354Y-75523499D01*
X-123480636Y-75523499D01*
X-123464999Y-75525039D01*
X-123449362Y-75523499D01*
X-123449352Y-75523499D01*
X-123402562Y-75518891D01*
X-123342525Y-75500678D01*
X-123287194Y-75471103D01*
X-123238696Y-75431302D01*
X-123228720Y-75419146D01*
X-123208074Y-75398500D01*
X-123143857Y-75398500D01*
X-123053344Y-75380496D01*
X-122968082Y-75345179D01*
X-122891349Y-75293908D01*
X-122826092Y-75228651D01*
X-122774821Y-75151918D01*
X-122739504Y-75066656D01*
X-122721500Y-74976143D01*
X-122721500Y-74883857D01*
X-122739504Y-74793344D01*
X-122774821Y-74708082D01*
X-122826092Y-74631349D01*
X-122891349Y-74566092D01*
X-122968082Y-74514821D01*
X-123053344Y-74479504D01*
X-123143857Y-74461500D01*
X-123236143Y-74461500D01*
X-123326656Y-74479504D01*
X-123411918Y-74514821D01*
X-123488651Y-74566092D01*
X-123553908Y-74631349D01*
X-123605179Y-74708082D01*
X-123640496Y-74793344D01*
X-123658500Y-74883857D01*
X-123658500Y-74886499D01*
X-130931487Y-74886499D01*
X-130931487Y-74883857D01*
X-130949491Y-74793344D01*
X-130984808Y-74708082D01*
X-131036079Y-74631349D01*
X-131101336Y-74566092D01*
X-131178069Y-74514821D01*
X-131263331Y-74479504D01*
X-131353844Y-74461500D01*
X-131446130Y-74461500D01*
X-131536643Y-74479504D01*
X-131621905Y-74514821D01*
X-131636500Y-74524573D01*
X-131636500Y-73843703D01*
X-130124342Y-72331545D01*
X-123148500Y-72331545D01*
X-123148500Y-72448455D01*
X-123125692Y-72563118D01*
X-123080953Y-72671128D01*
X-123016002Y-72768334D01*
X-122933334Y-72851002D01*
X-122836128Y-72915953D01*
X-122728118Y-72960692D01*
X-122613455Y-72983500D01*
X-122496545Y-72983500D01*
X-122381882Y-72960692D01*
X-122273872Y-72915953D01*
X-122176666Y-72851002D01*
X-122093998Y-72768334D01*
X-122029047Y-72671128D01*
X-121984308Y-72563118D01*
X-121961500Y-72448455D01*
X-121961500Y-72331545D01*
X-116798500Y-72331545D01*
X-116798500Y-72448455D01*
X-116775692Y-72563118D01*
X-116730953Y-72671128D01*
X-116666002Y-72768334D01*
X-116583334Y-72851002D01*
X-116486128Y-72915953D01*
X-116378118Y-72960692D01*
X-116263455Y-72983500D01*
X-116146545Y-72983500D01*
X-116031882Y-72960692D01*
X-115923872Y-72915953D01*
X-115826666Y-72851002D01*
X-115743998Y-72768334D01*
X-115679047Y-72671128D01*
X-115634308Y-72563118D01*
X-115611500Y-72448455D01*
X-115611500Y-72331545D01*
X-115634308Y-72216882D01*
X-115679047Y-72108872D01*
X-115743998Y-72011666D01*
X-115826666Y-71928998D01*
X-115923872Y-71864047D01*
X-116031882Y-71819308D01*
X-116146545Y-71796500D01*
X-116263455Y-71796500D01*
X-116378118Y-71819308D01*
X-116486128Y-71864047D01*
X-116583334Y-71928998D01*
X-116666002Y-72011666D01*
X-116730953Y-72108872D01*
X-116775692Y-72216882D01*
X-116798500Y-72331545D01*
X-121961500Y-72331545D01*
X-121984308Y-72216882D01*
X-122029047Y-72108872D01*
X-122093998Y-72011666D01*
X-122176666Y-71928998D01*
X-122273872Y-71864047D01*
X-122381882Y-71819308D01*
X-122496545Y-71796500D01*
X-122613455Y-71796500D01*
X-122728118Y-71819308D01*
X-122836128Y-71864047D01*
X-122933334Y-71928998D01*
X-123016002Y-72011666D01*
X-123080953Y-72108872D01*
X-123125692Y-72216882D01*
X-123148500Y-72331545D01*
X-130124342Y-72331545D01*
X-129356297Y-71563500D01*
X-126518546Y-71563500D01*
X-126501656Y-71570496D01*
X-126411143Y-71588500D01*
X-126318857Y-71588500D01*
X-126228344Y-71570496D01*
X-126143082Y-71535179D01*
X-126066349Y-71483908D01*
X-126001092Y-71418651D01*
X-125949821Y-71341918D01*
X-125914504Y-71256656D01*
X-125896500Y-71166143D01*
X-125896500Y-71073857D01*
X-125914504Y-70983344D01*
X-125949821Y-70898082D01*
X-126001092Y-70821349D01*
X-126066349Y-70756092D01*
X-126143082Y-70704821D01*
X-126228344Y-70669504D01*
X-126318857Y-70651500D01*
X-126411143Y-70651500D01*
X-126501656Y-70669504D01*
X-126518546Y-70676500D01*
X-129518225Y-70676500D01*
X-129540001Y-70674355D01*
X-129561777Y-70676500D01*
X-129561778Y-70676500D01*
X-129626941Y-70682918D01*
X-129710541Y-70708278D01*
X-129787587Y-70749460D01*
X-129855119Y-70804881D01*
X-129869007Y-70821804D01*
X-132378200Y-73330997D01*
X-132395118Y-73344881D01*
X-132409001Y-73361798D01*
X-132450540Y-73412413D01*
X-132491722Y-73489460D01*
X-132517081Y-73573060D01*
X-132525645Y-73660000D01*
X-132523499Y-73681785D01*
X-132523500Y-74776454D01*
X-132530496Y-74793344D01*
X-132548500Y-74883857D01*
X-135066500Y-74883857D01*
X-135066500Y-65346545D01*
X-132038500Y-65346545D01*
X-132038500Y-65463455D01*
X-132015692Y-65578118D01*
X-131970953Y-65686128D01*
X-131906002Y-65783334D01*
X-131823334Y-65866002D01*
X-131726128Y-65930953D01*
X-131618118Y-65975692D01*
X-131503455Y-65998500D01*
X-131386545Y-65998500D01*
X-131271882Y-65975692D01*
X-131163872Y-65930953D01*
X-131066666Y-65866002D01*
X-130983998Y-65783334D01*
X-130919047Y-65686128D01*
X-130874308Y-65578118D01*
X-130851500Y-65463455D01*
X-130851500Y-65346545D01*
X-114893500Y-65346545D01*
X-114893500Y-65463455D01*
X-114870692Y-65578118D01*
X-114825953Y-65686128D01*
X-114761002Y-65783334D01*
X-114678334Y-65866002D01*
X-114581128Y-65930953D01*
X-114473118Y-65975692D01*
X-114358455Y-65998500D01*
X-114241545Y-65998500D01*
X-114126882Y-65975692D01*
X-114018872Y-65930953D01*
X-113921666Y-65866002D01*
X-113838998Y-65783334D01*
X-113774047Y-65686128D01*
X-113729308Y-65578118D01*
X-113706500Y-65463455D01*
X-113706500Y-65346545D01*
X-113729308Y-65231882D01*
X-113774047Y-65123872D01*
X-113838998Y-65026666D01*
X-113921666Y-64943998D01*
X-114018872Y-64879047D01*
X-114126882Y-64834308D01*
X-114241545Y-64811500D01*
X-114358455Y-64811500D01*
X-114473118Y-64834308D01*
X-114581128Y-64879047D01*
X-114678334Y-64943998D01*
X-114761002Y-65026666D01*
X-114825953Y-65123872D01*
X-114870692Y-65231882D01*
X-114893500Y-65346545D01*
X-130851500Y-65346545D01*
X-130874308Y-65231882D01*
X-130919047Y-65123872D01*
X-130983998Y-65026666D01*
X-131066666Y-64943998D01*
X-131163872Y-64879047D01*
X-131271882Y-64834308D01*
X-131386545Y-64811500D01*
X-131503455Y-64811500D01*
X-131618118Y-64834308D01*
X-131726128Y-64879047D01*
X-131823334Y-64943998D01*
X-131906002Y-65026666D01*
X-131970953Y-65123872D01*
X-132015692Y-65231882D01*
X-132038500Y-65346545D01*
X-135066500Y-65346545D01*
X-135066500Y-55821545D01*
X-123783500Y-55821545D01*
X-123783500Y-55938455D01*
X-123760692Y-56053118D01*
X-123715953Y-56161128D01*
X-123651002Y-56258334D01*
X-123568334Y-56341002D01*
X-123471128Y-56405953D01*
X-123363118Y-56450692D01*
X-123248455Y-56473500D01*
X-123131545Y-56473500D01*
X-123016882Y-56450692D01*
X-122908872Y-56405953D01*
X-122811666Y-56341002D01*
X-122728998Y-56258334D01*
X-122664047Y-56161128D01*
X-122619308Y-56053118D01*
X-122596500Y-55938455D01*
X-122596500Y-55821545D01*
X-122619308Y-55706882D01*
X-122664047Y-55598872D01*
X-122728998Y-55501666D01*
X-122811666Y-55418998D01*
X-122908872Y-55354047D01*
X-123016882Y-55309308D01*
X-123131545Y-55286500D01*
X-123248455Y-55286500D01*
X-123363118Y-55309308D01*
X-123471128Y-55354047D01*
X-123568334Y-55418998D01*
X-123651002Y-55501666D01*
X-123715953Y-55598872D01*
X-123760692Y-55706882D01*
X-123783500Y-55821545D01*
X-135066500Y-55821545D01*
X-135066500Y-53281545D01*
X-115378448Y-53281545D01*
X-115378448Y-53398455D01*
X-115355640Y-53513118D01*
X-115310901Y-53621128D01*
X-115245950Y-53718334D01*
X-115163282Y-53801002D01*
X-115066076Y-53865953D01*
X-114958066Y-53910692D01*
X-114843403Y-53933500D01*
X-114726493Y-53933500D01*
X-114611830Y-53910692D01*
X-114503820Y-53865953D01*
X-114406614Y-53801002D01*
X-114323946Y-53718334D01*
X-114258995Y-53621128D01*
X-114214256Y-53513118D01*
X-114191448Y-53398455D01*
X-114191448Y-53281545D01*
X-114214256Y-53166882D01*
X-114258995Y-53058872D01*
X-114323946Y-52961666D01*
X-114406614Y-52878998D01*
X-114503820Y-52814047D01*
X-114611830Y-52769308D01*
X-114726493Y-52746500D01*
X-114843403Y-52746500D01*
X-114958066Y-52769308D01*
X-115066076Y-52814047D01*
X-115163282Y-52878998D01*
X-115245950Y-52961666D01*
X-115310901Y-53058872D01*
X-115355640Y-53166882D01*
X-115378448Y-53281545D01*
X-135066500Y-53281545D01*
X-135066500Y-52011545D01*
X-132038500Y-52011545D01*
X-132038500Y-52128455D01*
X-132015692Y-52243118D01*
X-131970953Y-52351128D01*
X-131906002Y-52448334D01*
X-131823334Y-52531002D01*
X-131726128Y-52595953D01*
X-131618118Y-52640692D01*
X-131503455Y-52663500D01*
X-131386545Y-52663500D01*
X-131271882Y-52640692D01*
X-131163872Y-52595953D01*
X-131066666Y-52531002D01*
X-130983998Y-52448334D01*
X-130919047Y-52351128D01*
X-130874308Y-52243118D01*
X-130851500Y-52128455D01*
X-130851500Y-52011545D01*
X-123783500Y-52011545D01*
X-123783500Y-52128455D01*
X-123760692Y-52243118D01*
X-123715953Y-52351128D01*
X-123651002Y-52448334D01*
X-123568334Y-52531002D01*
X-123471128Y-52595953D01*
X-123363118Y-52640692D01*
X-123248455Y-52663500D01*
X-123131545Y-52663500D01*
X-123046307Y-52646545D01*
X-110448500Y-52646545D01*
X-110448500Y-52763455D01*
X-110425692Y-52878118D01*
X-110380953Y-52986128D01*
X-110316002Y-53083334D01*
X-110233334Y-53166002D01*
X-110136128Y-53230953D01*
X-110028118Y-53275692D01*
X-109913455Y-53298500D01*
X-109796545Y-53298500D01*
X-109681882Y-53275692D01*
X-109573872Y-53230953D01*
X-109476666Y-53166002D01*
X-109393998Y-53083334D01*
X-109329047Y-52986128D01*
X-109284308Y-52878118D01*
X-109261500Y-52763455D01*
X-109261500Y-52646545D01*
X-109284308Y-52531882D01*
X-109329047Y-52423872D01*
X-109393998Y-52326666D01*
X-109476666Y-52243998D01*
X-109573872Y-52179047D01*
X-109681882Y-52134308D01*
X-109796545Y-52111500D01*
X-109913455Y-52111500D01*
X-110028118Y-52134308D01*
X-110136128Y-52179047D01*
X-110233334Y-52243998D01*
X-110316002Y-52326666D01*
X-110380953Y-52423872D01*
X-110425692Y-52531882D01*
X-110448500Y-52646545D01*
X-123046307Y-52646545D01*
X-123016882Y-52640692D01*
X-122908872Y-52595953D01*
X-122811666Y-52531002D01*
X-122728998Y-52448334D01*
X-122664047Y-52351128D01*
X-122619308Y-52243118D01*
X-122596500Y-52128455D01*
X-122596500Y-52011545D01*
X-122619308Y-51896882D01*
X-122664047Y-51788872D01*
X-122728998Y-51691666D01*
X-122811666Y-51608998D01*
X-122908872Y-51544047D01*
X-123016882Y-51499308D01*
X-123131545Y-51476500D01*
X-123248455Y-51476500D01*
X-123363118Y-51499308D01*
X-123471128Y-51544047D01*
X-123568334Y-51608998D01*
X-123651002Y-51691666D01*
X-123715953Y-51788872D01*
X-123760692Y-51896882D01*
X-123783500Y-52011545D01*
X-130851500Y-52011545D01*
X-130874308Y-51896882D01*
X-130919047Y-51788872D01*
X-130983998Y-51691666D01*
X-131066666Y-51608998D01*
X-131163872Y-51544047D01*
X-131271882Y-51499308D01*
X-131386545Y-51476500D01*
X-131503455Y-51476500D01*
X-131618118Y-51499308D01*
X-131726128Y-51544047D01*
X-131823334Y-51608998D01*
X-131906002Y-51691666D01*
X-131970953Y-51788872D01*
X-132015692Y-51896882D01*
X-132038500Y-52011545D01*
X-135066500Y-52011545D01*
X-135066500Y-45756547D01*
X-132673500Y-45756547D01*
X-132673500Y-45873457D01*
X-132650692Y-45988120D01*
X-132605953Y-46096130D01*
X-132541002Y-46193336D01*
X-132458334Y-46276004D01*
X-132361128Y-46340955D01*
X-132253118Y-46385694D01*
X-132138455Y-46408502D01*
X-132021545Y-46408502D01*
X-131906882Y-46385694D01*
X-131798872Y-46340955D01*
X-131701666Y-46276004D01*
X-131618998Y-46193336D01*
X-131554047Y-46096130D01*
X-131509308Y-45988120D01*
X-131486500Y-45873457D01*
X-131486500Y-45756547D01*
X-131509308Y-45641884D01*
X-131554047Y-45533874D01*
X-131618998Y-45436668D01*
X-131701666Y-45354000D01*
X-131798872Y-45289049D01*
X-131906882Y-45244310D01*
X-132021545Y-45221502D01*
X-132138455Y-45221502D01*
X-132253118Y-45244310D01*
X-132361128Y-45289049D01*
X-132458334Y-45354000D01*
X-132541002Y-45436668D01*
X-132605953Y-45533874D01*
X-132650692Y-45641884D01*
X-132673500Y-45756547D01*
X-135066500Y-45756547D01*
X-135066500Y-43243500D01*
X-129166226Y-43243500D01*
X-129166226Y-45530799D01*
G36*
X-124061275Y-44029152D02*
G01*
X-124051303Y-44041303D01*
X-124039152Y-44051275D01*
X-124039150Y-44051277D01*
X-124002806Y-44081104D01*
X-123973231Y-44096912D01*
X-123947474Y-44110679D01*
X-123887437Y-44128892D01*
X-123840647Y-44133500D01*
X-123840635Y-44133500D01*
X-123825001Y-44135040D01*
X-123809366Y-44133500D01*
X-120781926Y-44133500D01*
X-119068676Y-45846751D01*
X-119068676Y-45999970D01*
X-119094236Y-46025530D01*
X-119657971Y-46025530D01*
X-119651092Y-46018651D01*
X-119599821Y-45941918D01*
X-119564504Y-45856656D01*
X-119546500Y-45766143D01*
X-119546500Y-45673857D01*
X-119564504Y-45583344D01*
X-119599821Y-45498082D01*
X-119651092Y-45421349D01*
X-119716349Y-45356092D01*
X-119793082Y-45304821D01*
X-119878344Y-45269504D01*
X-119968857Y-45251500D01*
X-120061143Y-45251500D01*
X-120151656Y-45269504D01*
X-120236918Y-45304821D01*
X-120313651Y-45356092D01*
X-120359059Y-45401500D01*
X-124328073Y-45401500D01*
X-124858721Y-44870853D01*
X-124868697Y-44858697D01*
X-124917195Y-44818896D01*
X-124972526Y-44789321D01*
X-125032563Y-44771108D01*
X-125079353Y-44766500D01*
X-125079363Y-44766500D01*
X-125095000Y-44764960D01*
X-125110637Y-44766500D01*
X-126984355Y-44766500D01*
X-127000000Y-44764959D01*
X-127015645Y-44766500D01*
X-127015647Y-44766500D01*
X-127062437Y-44771108D01*
X-127108501Y-44785082D01*
X-127122475Y-44789321D01*
X-127177806Y-44818895D01*
X-127214150Y-44848723D01*
X-127226303Y-44858697D01*
X-127236275Y-44870848D01*
X-127316500Y-44951073D01*
X-127316500Y-43946926D01*
X-126613073Y-43243500D01*
X-124846926Y-43243500D01*
X-124061275Y-44029152D01*
G37*
X-124061275Y-44029152D02*
X-124051303Y-44041303D01*
X-124039152Y-44051275D01*
X-124039150Y-44051277D01*
X-124002806Y-44081104D01*
X-123973231Y-44096912D01*
X-123947474Y-44110679D01*
X-123887437Y-44128892D01*
X-123840647Y-44133500D01*
X-123840635Y-44133500D01*
X-123825001Y-44135040D01*
X-123809366Y-44133500D01*
X-120781926Y-44133500D01*
X-119068676Y-45846751D01*
X-119068676Y-45999970D01*
X-119094236Y-46025530D01*
X-119657971Y-46025530D01*
X-119651092Y-46018651D01*
X-119599821Y-45941918D01*
X-119564504Y-45856656D01*
X-119546500Y-45766143D01*
X-119546500Y-45673857D01*
X-119564504Y-45583344D01*
X-119599821Y-45498082D01*
X-119651092Y-45421349D01*
X-119716349Y-45356092D01*
X-119793082Y-45304821D01*
X-119878344Y-45269504D01*
X-119968857Y-45251500D01*
X-120061143Y-45251500D01*
X-120151656Y-45269504D01*
X-120236918Y-45304821D01*
X-120313651Y-45356092D01*
X-120359059Y-45401500D01*
X-124328073Y-45401500D01*
X-124858721Y-44870853D01*
X-124868697Y-44858697D01*
X-124917195Y-44818896D01*
X-124972526Y-44789321D01*
X-125032563Y-44771108D01*
X-125079353Y-44766500D01*
X-125079363Y-44766500D01*
X-125095000Y-44764960D01*
X-125110637Y-44766500D01*
X-126984355Y-44766500D01*
X-127000000Y-44764959D01*
X-127015645Y-44766500D01*
X-127015647Y-44766500D01*
X-127062437Y-44771108D01*
X-127108501Y-44785082D01*
X-127122475Y-44789321D01*
X-127177806Y-44818895D01*
X-127214150Y-44848723D01*
X-127226303Y-44858697D01*
X-127236275Y-44870848D01*
X-127316500Y-44951073D01*
X-127316500Y-43946926D01*
X-126613073Y-43243500D01*
X-124846926Y-43243500D01*
X-124061275Y-44029152D01*
%TD*%
M02*
