M48
; DRILL file {KiCad (5.1.5)-3} date 11/01/20 10:27:26
; FORMAT={-:-/ absolute / inch / decimal}
; #@! TF.CreationDate,2020-11-01T10:27:26+01:00
; #@! TF.GenerationSoftware,Kicad,Pcbnew,(5.1.5)-3
; #@! TF.FileFunction,Plated,1,4,PTH
FMAT,2
INCH
T1C0.0118
T2C0.0138
T3C0.0157
T4C0.0236
T5C0.0394
%
G90
G05
T1
X-5.1339Y-0.9061
X-5.1339Y-0.9439
X-5.1Y-0.925
X-5.0661Y-0.9061
X-5.0661Y-0.9439
T2
X-5.2Y-2.95
X-5.175Y-1.525
X-5.1732Y-2.95
X-5.15Y-2.4
X-5.125Y-1.3
X-5.125Y-3.2
X-5.125Y-3.5
X-5.1Y-1.825
X-5.1Y-1.8518
X-5.1Y-2.025
X-5.075Y-1.275
X-5.0727Y-1.4977
X-5.025Y-1.3
X-5.025Y-1.8
X-5.025Y-3.05
X-5.0Y-1.0
X-4.9752Y-1.8245
X-4.975Y-2.8
X-4.9486Y-1.8271
X-4.925Y-0.875
X-4.925Y-1.525
X-4.925Y-1.85
X-4.875Y-3.05
X-4.85Y-2.95
X-4.8Y-1.8571
X-4.8Y-2.025
X-4.75Y-1.8362
X-4.725Y-1.8
X-4.6752Y-1.8246
X-4.65Y-1.8
X-4.575Y-2.7
T3
X-5.2992Y-0.875
X-5.2992Y-0.875
X-5.275Y-1.25
X-5.275Y-1.4
X-5.255Y-1.91
X-5.255Y-2.39
X-5.255Y-2.63
X-5.255Y-2.865
X-5.255Y-3.1
X-5.25Y-0.875
X-5.2Y-0.875
X-5.2Y-1.8037
X-5.2Y-2.825
X-5.175Y-1.25
X-5.175Y-2.05
X-5.175Y-2.125
X-5.175Y-2.575
X-5.175Y-3.0
X-5.125Y-2.625
X-5.11Y-3.255
X-5.105Y-1.765
X-5.1Y-1.55
X-5.1Y-1.6
X-5.025Y-0.825
X-5.025Y-2.5
X-5.0242Y-1.625
X-5.0Y-1.35
X-5.0Y-1.4508
X-4.975Y-1.275
X-4.95Y-1.15
X-4.925Y-2.2
X-4.9Y-1.425
X-4.9Y-1.875
X-4.9Y-2.925
X-4.8787Y-2.0787
X-4.875Y-1.765
X-4.875Y-3.255
X-4.85Y-2.05
X-4.85Y-2.2
X-4.825Y-1.625
X-4.825Y-2.75
X-4.825Y-2.85
X-4.74Y-1.4
X-4.725Y-1.575
X-4.7Y-1.4
X-4.7Y-2.45
X-4.675Y-2.975
X-4.65Y-1.65
X-4.635Y-1.765
X-4.635Y-3.255
X-4.625Y-1.175
X-4.625Y-1.825
X-4.6Y-2.625
X-4.575Y-2.85
X-4.55Y-2.075
X-4.525Y-1.925
X-4.525Y-2.975
X-4.525Y-3.05
X-4.5191Y-2.1
X-4.5Y-1.525
X-4.5Y-2.15
X-4.5Y-2.575
X-4.425Y-1.8258
X-4.4Y-1.765
X-4.4Y-2.625
X-4.4Y-3.255
X-4.375Y-1.05
X-4.35Y-1.35
X-4.35Y-1.6
X-4.325Y-1.475
X-4.325Y-2.075
X-4.275Y-1.65
X-4.275Y-1.7
X-4.265Y-1.91
X-4.265Y-2.63
X-4.265Y-2.865
X-4.265Y-3.105
X-4.26Y-2.385
X-4.25Y-1.2
X-4.25Y-1.475
T4
X-4.4Y-3.0659
X-4.4Y-3.125
X-4.7Y-3.0659
X-4.7Y-3.125
T5
X-4.8Y-0.85
X-4.8Y-0.95
X-4.7Y-0.85
X-4.7Y-0.95
X-4.6Y-0.85
X-4.6Y-0.95
X-4.5Y-0.85
X-4.5Y-0.95
X-4.4Y-0.85
X-4.4Y-0.95
X-4.3Y-0.85
X-4.3Y-0.95
X-4.275Y-3.525
X-4.275Y-3.6234
X-4.275Y-3.7219
X-5.225Y-3.725
X-5.225Y-3.825
T0
M30
