%TF.GenerationSoftware,KiCad,Pcbnew,(5.1.5)-3*%
%TF.CreationDate,2020-11-01T10:27:24+01:00*%
%TF.ProjectId,PmodDAC,506d6f64-4441-4432-9e6b-696361645f70,v0.2*%
%TF.SameCoordinates,Original*%
%TF.FileFunction,Copper,L3,Inr*%
%TF.FilePolarity,Positive*%
%FSLAX46Y46*%
G04 Gerber Fmt 4.6, Leading zero omitted, Abs format (unit mm)*
G04 Created by KiCad (PCBNEW (5.1.5)-3) date 2020-11-01 10:27:24*
%MOMM*%
%LPD*%
G04 APERTURE LIST*
%TA.AperFunction,ViaPad*%
%ADD10C,1.200000*%
%TD*%
%TA.AperFunction,ViaPad*%
%ADD11R,1.200000X1.200000*%
%TD*%
%TA.AperFunction,WasherPad*%
%ADD12C,4.000000*%
%TD*%
%TA.AperFunction,ViaPad*%
%ADD13C,1.800000*%
%TD*%
%TA.AperFunction,ViaPad*%
%ADD14C,0.600000*%
%TD*%
%TA.AperFunction,ViaPad*%
%ADD15O,1.700000X1.700000*%
%TD*%
%TA.AperFunction,ViaPad*%
%ADD16R,1.700000X1.700000*%
%TD*%
%TA.AperFunction,ViaPad*%
%ADD17C,0.800000*%
%TD*%
%TA.AperFunction,ViaPad*%
%ADD18C,0.550000*%
%TD*%
%TA.AperFunction,Conductor*%
%ADD19C,0.500000*%
%TD*%
%TA.AperFunction,Conductor*%
%ADD20C,0.127000*%
%TD*%
G04 APERTURE END LIST*
D10*
%TO.N,Net-(C16-Pad2)*%
%TO.C,C16*%
X-111760000Y-79375000D03*
D11*
%TO.N,/DI*%
X-111760000Y-77875000D03*
%TD*%
D12*
%TO.N,*%
%TO.C,R40*%
X-116085000Y-87285000D03*
X-116085000Y-96785000D03*
D13*
%TO.N,Net-(C16-Pad2)*%
X-108585000Y-89535000D03*
%TO.N,Net-(R40-Pad2)*%
X-108585000Y-92035000D03*
%TO.N,GNDA*%
X-108585000Y-94535000D03*
%TD*%
D10*
%TO.N,Net-(C33-Pad2)*%
%TO.C,C33*%
X-119380000Y-79375000D03*
D11*
%TO.N,Net-(C23-Pad1)*%
X-119380000Y-77875000D03*
%TD*%
D14*
%TO.N,GND*%
%TO.C,U4*%
X-129540000Y-23495000D03*
X-130400000Y-23975000D03*
X-128680000Y-23975000D03*
X-130400000Y-23015000D03*
X-128680000Y-23015000D03*
%TD*%
D15*
%TO.N,+3V3*%
%TO.C,J3*%
X-121920000Y-24130000D03*
X-121920000Y-21590000D03*
%TO.N,GNDA*%
X-119380000Y-24130000D03*
%TO.N,GND*%
X-119380000Y-21590000D03*
%TO.N,N/C*%
X-116840000Y-24130000D03*
X-116840000Y-21590000D03*
X-114300000Y-24130000D03*
%TO.N,/DAC_S_3V*%
X-114300000Y-21590000D03*
%TO.N,N/C*%
X-111760000Y-24130000D03*
%TO.N,/DAC_C_3V*%
X-111760000Y-21590000D03*
%TO.N,N/C*%
X-109220000Y-24130000D03*
D16*
%TO.N,/DAC_L_3V*%
X-109220000Y-21590000D03*
%TD*%
D15*
%TO.N,Net-(J1-Pad2)*%
%TO.C,J1*%
X-132715000Y-94615000D03*
D16*
%TO.N,GNDA*%
X-132715000Y-97155000D03*
%TD*%
D17*
%TO.N,GND*%
X-133985000Y-35560000D03*
X-133985000Y-31750000D03*
X-131445000Y-31750000D03*
X-125730000Y-29210000D03*
X-127000000Y-36850010D03*
X-117475000Y-29845000D03*
X-127000000Y-34290000D03*
X-124460000Y-36195000D03*
X-119380000Y-35560000D03*
X-127635000Y-20955000D03*
X-117475000Y-46355000D03*
X-124460000Y-47625000D03*
X-132080000Y-45815002D03*
X-120396000Y-35560000D03*
%TO.N,+3V3*%
X-132080000Y-22225000D03*
X-133350000Y-22225000D03*
X-134599990Y-22225000D03*
X-134599990Y-22225000D03*
%TO.N,/Vref_5V*%
X-123190000Y-55880000D03*
X-109855000Y-52705000D03*
X-114784948Y-53340000D03*
D18*
%TO.N,Net-(C23-Pad1)*%
X-123825000Y-77470000D03*
X-127635000Y-77470000D03*
D17*
%TO.N,+9V*%
X-116205000Y-72390000D03*
X-122555000Y-72390000D03*
X-108585000Y-43180000D03*
X-108585000Y-41910000D03*
X-114935000Y-48895000D03*
%TO.N,-5V*%
X-114300000Y-65405000D03*
X-129540000Y-40640000D03*
X-129540000Y-39370000D03*
X-131445000Y-65405000D03*
D18*
%TO.N,+5V*%
X-118110000Y-45720000D03*
D17*
X-123190000Y-52070000D03*
X-131445000Y-52070000D03*
D18*
X-125693563Y-46408402D03*
D17*
X-107950000Y-37465000D03*
X-109855000Y-37465000D03*
X-126365000Y-32385000D03*
D18*
%TO.N,Net-(R2-Pad1)*%
X-127000000Y-25400000D03*
X-125095000Y-22225000D03*
%TO.N,Net-(U1-Pad9)*%
X-120650000Y-46639998D03*
X-125095000Y-46990000D03*
%TO.N,Net-(U1-Pad15)*%
X-129540000Y-51435000D03*
X-129540000Y-47035013D03*
%TO.N,Net-(U2-Pad15)*%
X-121920000Y-51435000D03*
X-121920000Y-47170008D03*
D17*
%TO.N,GNDA*%
X-108331000Y-78867000D03*
X-108331000Y-72771000D03*
X-108331000Y-66802000D03*
X-108204000Y-60579000D03*
X-108331000Y-48514000D03*
X-111760000Y-44831000D03*
X-117729000Y-44831000D03*
X-123825000Y-44831000D03*
X-129667000Y-44831000D03*
X-133477000Y-48514000D03*
X-133477000Y-60706000D03*
X-133477000Y-66802000D03*
X-133477000Y-72771000D03*
X-133477000Y-78740000D03*
X-129794000Y-82677000D03*
X-123825000Y-82677000D03*
X-117729000Y-82677000D03*
X-119380000Y-62230000D03*
X-114300000Y-54610000D03*
D18*
X-130810000Y-60960000D03*
D17*
X-123918328Y-52798328D03*
X-112395000Y-46375010D03*
X-120015000Y-40005000D03*
X-115570000Y-52705000D03*
X-125095000Y-55880000D03*
X-131445000Y-53975000D03*
X-127635000Y-63500000D03*
X-131445000Y-76200000D03*
X-124460000Y-74295000D03*
X-132080000Y-71755000D03*
X-114935000Y-77470000D03*
X-114935000Y-75565000D03*
X-118745000Y-75565000D03*
X-122555000Y-69850000D03*
X-116840000Y-66675000D03*
X-111760000Y-66675000D03*
X-111125000Y-26670000D03*
X-107950000Y-30480000D03*
X-110490000Y-34290000D03*
X-110490000Y-40640000D03*
X-118110000Y-41910000D03*
X-114300000Y-38735000D03*
X-122555000Y-41275000D03*
X-130175000Y-66675000D03*
X-127614990Y-41275000D03*
X-111760000Y-82677000D03*
D18*
%TO.N,/1F*%
X-132080000Y-74930000D03*
X-126365000Y-71120000D03*
%TO.N,Net-(J1-Pad2)*%
X-130175000Y-81280000D03*
X-130175000Y-88900000D03*
%TO.N,/DAC_S_3V*%
X-130175000Y-33020000D03*
%TO.N,/DAC_C_3V*%
X-128905000Y-32385000D03*
%TO.N,/DAC_L_3V*%
X-127635000Y-33020000D03*
%TO.N,Net-(JP1-Pad2)*%
X-123190000Y-74930000D03*
X-131399987Y-74930000D03*
%TO.N,Net-(R40-Pad2)*%
X-116205000Y-68580000D03*
%TO.N,/DAC_C*%
X-118750177Y-46344030D03*
X-126370418Y-46343048D03*
X-125095000Y-38735000D03*
%TO.N,/DAC_L*%
X-120015000Y-45720000D03*
X-127635000Y-45720000D03*
X-131445000Y-38735000D03*
%TO.N,/DAC_S*%
X-129540000Y-46355000D03*
X-128847726Y-38042726D03*
%TD*%
D19*
%TO.N,GND*%
X-133985000Y-31750000D02*
X-131445000Y-31750000D01*
X-131445000Y-31750000D02*
X-131445000Y-29845000D01*
X-126365000Y-29845000D02*
X-125730000Y-29210000D01*
X-131445000Y-29845000D02*
X-126365000Y-29845000D01*
%TD*%
D20*
%TO.N,GNDA*%
G36*
X-106895500Y-19695578D02*
G01*
X-106895499Y-19695588D01*
X-106895500Y-24140578D01*
X-106895499Y-24140588D01*
X-106895500Y-29855578D01*
X-106895499Y-29855588D01*
X-106895500Y-59700578D01*
X-106895499Y-59700588D01*
X-106895500Y-81290578D01*
X-106895499Y-81290588D01*
X-106895500Y-99479500D01*
X-135039500Y-99479500D01*
X-135039500Y-98005000D01*
X-134139265Y-98005000D01*
X-134128231Y-98117034D01*
X-134095552Y-98224762D01*
X-134042484Y-98324045D01*
X-133971067Y-98411067D01*
X-133884045Y-98482484D01*
X-133784762Y-98535552D01*
X-133677034Y-98568231D01*
X-133565000Y-98579265D01*
X-133048375Y-98576500D01*
X-132905500Y-98433625D01*
X-132905500Y-97345500D01*
X-132524500Y-97345500D01*
X-132524500Y-98433625D01*
X-132381625Y-98576500D01*
X-131865000Y-98579265D01*
X-131752966Y-98568231D01*
X-131645238Y-98535552D01*
X-131545955Y-98482484D01*
X-131458933Y-98411067D01*
X-131387516Y-98324045D01*
X-131334448Y-98224762D01*
X-131301769Y-98117034D01*
X-131290735Y-98005000D01*
X-131293500Y-97488375D01*
X-131436375Y-97345500D01*
X-132524500Y-97345500D01*
X-132905500Y-97345500D01*
X-133993625Y-97345500D01*
X-134136500Y-97488375D01*
X-134139265Y-98005000D01*
X-135039500Y-98005000D01*
X-135039500Y-96305000D01*
X-134139265Y-96305000D01*
X-134136500Y-96821625D01*
X-133993625Y-96964500D01*
X-132905500Y-96964500D01*
X-132905500Y-95876375D01*
X-132524500Y-95876375D01*
X-132524500Y-96964500D01*
X-131436375Y-96964500D01*
X-131293500Y-96821625D01*
X-131291389Y-96427073D01*
X-127308500Y-96427073D01*
X-127308500Y-96612927D01*
X-127272242Y-96795209D01*
X-127201119Y-96966915D01*
X-127097864Y-97121446D01*
X-126966446Y-97252864D01*
X-126811915Y-97356119D01*
X-126640209Y-97427242D01*
X-126457927Y-97463500D01*
X-126272073Y-97463500D01*
X-126089791Y-97427242D01*
X-125918085Y-97356119D01*
X-125763554Y-97252864D01*
X-125632136Y-97121446D01*
X-125528881Y-96966915D01*
X-125457758Y-96795209D01*
X-125421500Y-96612927D01*
X-125421500Y-96568959D01*
X-118278500Y-96568959D01*
X-118278500Y-97001041D01*
X-118194205Y-97424820D01*
X-118028854Y-97824012D01*
X-117788802Y-98183274D01*
X-117483274Y-98488802D01*
X-117124012Y-98728854D01*
X-116724820Y-98894205D01*
X-116301041Y-98978500D01*
X-115868959Y-98978500D01*
X-115445180Y-98894205D01*
X-115045988Y-98728854D01*
X-114686726Y-98488802D01*
X-114381198Y-98183274D01*
X-114141146Y-97824012D01*
X-113975795Y-97424820D01*
X-113891500Y-97001041D01*
X-113891500Y-96568959D01*
X-113975795Y-96145180D01*
X-114141146Y-95745988D01*
X-114235643Y-95604563D01*
X-109385156Y-95604563D01*
X-109292750Y-95833232D01*
X-109025878Y-95946363D01*
X-108742064Y-96005255D01*
X-108452214Y-96007646D01*
X-108167467Y-95953444D01*
X-107898765Y-95844732D01*
X-107877250Y-95833232D01*
X-107784844Y-95604563D01*
X-108585000Y-94804408D01*
X-109385156Y-95604563D01*
X-114235643Y-95604563D01*
X-114381198Y-95386726D01*
X-114686726Y-95081198D01*
X-115045988Y-94841146D01*
X-115445180Y-94675795D01*
X-115485443Y-94667786D01*
X-110057646Y-94667786D01*
X-110003444Y-94952533D01*
X-109894732Y-95221235D01*
X-109883232Y-95242750D01*
X-109654563Y-95335156D01*
X-108854408Y-94535000D01*
X-108315592Y-94535000D01*
X-107515437Y-95335156D01*
X-107286768Y-95242750D01*
X-107173637Y-94975878D01*
X-107114745Y-94692064D01*
X-107112354Y-94402214D01*
X-107166556Y-94117467D01*
X-107275268Y-93848765D01*
X-107286768Y-93827250D01*
X-107515437Y-93734844D01*
X-108315592Y-94535000D01*
X-108854408Y-94535000D01*
X-109654563Y-93734844D01*
X-109883232Y-93827250D01*
X-109996363Y-94094122D01*
X-110055255Y-94377936D01*
X-110057646Y-94667786D01*
X-115485443Y-94667786D01*
X-115868959Y-94591500D01*
X-116301041Y-94591500D01*
X-116724820Y-94675795D01*
X-117124012Y-94841146D01*
X-117483274Y-95081198D01*
X-117788802Y-95386726D01*
X-118028854Y-95745988D01*
X-118194205Y-96145180D01*
X-118278500Y-96568959D01*
X-125421500Y-96568959D01*
X-125421500Y-96427073D01*
X-125457758Y-96244791D01*
X-125528881Y-96073085D01*
X-125632136Y-95918554D01*
X-125763554Y-95787136D01*
X-125918085Y-95683881D01*
X-126089791Y-95612758D01*
X-126272073Y-95576500D01*
X-126457927Y-95576500D01*
X-126640209Y-95612758D01*
X-126811915Y-95683881D01*
X-126966446Y-95787136D01*
X-127097864Y-95918554D01*
X-127201119Y-96073085D01*
X-127272242Y-96244791D01*
X-127308500Y-96427073D01*
X-131291389Y-96427073D01*
X-131290735Y-96305000D01*
X-131301769Y-96192966D01*
X-131334448Y-96085238D01*
X-131387516Y-95985955D01*
X-131458933Y-95898933D01*
X-131545955Y-95827516D01*
X-131645238Y-95774448D01*
X-131752966Y-95741769D01*
X-131865000Y-95730735D01*
X-132381625Y-95733500D01*
X-132524500Y-95876375D01*
X-132905500Y-95876375D01*
X-133048375Y-95733500D01*
X-133565000Y-95730735D01*
X-133677034Y-95741769D01*
X-133784762Y-95774448D01*
X-133884045Y-95827516D01*
X-133971067Y-95898933D01*
X-134042484Y-95985955D01*
X-134095552Y-96085238D01*
X-134128231Y-96192966D01*
X-134139265Y-96305000D01*
X-135039500Y-96305000D01*
X-135039500Y-94512224D01*
X-133758500Y-94512224D01*
X-133758500Y-94717776D01*
X-133718399Y-94919378D01*
X-133639738Y-95109283D01*
X-133525539Y-95280192D01*
X-133380192Y-95425539D01*
X-133209283Y-95539738D01*
X-133019378Y-95618399D01*
X-132817776Y-95658500D01*
X-132612224Y-95658500D01*
X-132410622Y-95618399D01*
X-132220717Y-95539738D01*
X-132049808Y-95425539D01*
X-131904461Y-95280192D01*
X-131790262Y-95109283D01*
X-131711601Y-94919378D01*
X-131671500Y-94717776D01*
X-131671500Y-94512224D01*
X-131711601Y-94310622D01*
X-131790262Y-94120717D01*
X-131904461Y-93949808D01*
X-132049808Y-93804461D01*
X-132220717Y-93690262D01*
X-132410622Y-93611601D01*
X-132612224Y-93571500D01*
X-132817776Y-93571500D01*
X-133019378Y-93611601D01*
X-133209283Y-93690262D01*
X-133380192Y-93804461D01*
X-133525539Y-93949808D01*
X-133639738Y-94120717D01*
X-133718399Y-94310622D01*
X-133758500Y-94512224D01*
X-135039500Y-94512224D01*
X-135039500Y-91927300D01*
X-109678500Y-91927300D01*
X-109678500Y-92142700D01*
X-109636477Y-92353962D01*
X-109554047Y-92552966D01*
X-109434377Y-92732066D01*
X-109282066Y-92884377D01*
X-109102966Y-93004047D01*
X-108903962Y-93086477D01*
X-108874892Y-93092259D01*
X-109002533Y-93116556D01*
X-109271235Y-93225268D01*
X-109292750Y-93236768D01*
X-109385156Y-93465437D01*
X-108585000Y-94265592D01*
X-107784844Y-93465437D01*
X-107877250Y-93236768D01*
X-108144122Y-93123637D01*
X-108295225Y-93092283D01*
X-108266038Y-93086477D01*
X-108067034Y-93004047D01*
X-107887934Y-92884377D01*
X-107735623Y-92732066D01*
X-107615953Y-92552966D01*
X-107533523Y-92353962D01*
X-107491500Y-92142700D01*
X-107491500Y-91927300D01*
X-107533523Y-91716038D01*
X-107615953Y-91517034D01*
X-107735623Y-91337934D01*
X-107887934Y-91185623D01*
X-108067034Y-91065953D01*
X-108266038Y-90983523D01*
X-108477300Y-90941500D01*
X-108692700Y-90941500D01*
X-108903962Y-90983523D01*
X-109102966Y-91065953D01*
X-109282066Y-91185623D01*
X-109434377Y-91337934D01*
X-109554047Y-91517034D01*
X-109636477Y-91716038D01*
X-109678500Y-91927300D01*
X-135039500Y-91927300D01*
X-135039500Y-90427073D01*
X-127308500Y-90427073D01*
X-127308500Y-90612927D01*
X-127272242Y-90795209D01*
X-127201119Y-90966915D01*
X-127097864Y-91121446D01*
X-126966446Y-91252864D01*
X-126811915Y-91356119D01*
X-126640209Y-91427242D01*
X-126457927Y-91463500D01*
X-126272073Y-91463500D01*
X-126089791Y-91427242D01*
X-125918085Y-91356119D01*
X-125763554Y-91252864D01*
X-125632136Y-91121446D01*
X-125528881Y-90966915D01*
X-125457758Y-90795209D01*
X-125421500Y-90612927D01*
X-125421500Y-90427073D01*
X-125457758Y-90244791D01*
X-125528881Y-90073085D01*
X-125632136Y-89918554D01*
X-125763554Y-89787136D01*
X-125918085Y-89683881D01*
X-126089791Y-89612758D01*
X-126272073Y-89576500D01*
X-126457927Y-89576500D01*
X-126640209Y-89612758D01*
X-126811915Y-89683881D01*
X-126966446Y-89787136D01*
X-127097864Y-89918554D01*
X-127201119Y-90073085D01*
X-127272242Y-90244791D01*
X-127308500Y-90427073D01*
X-135039500Y-90427073D01*
X-135039500Y-88853857D01*
X-130643500Y-88853857D01*
X-130643500Y-88946143D01*
X-130625496Y-89036656D01*
X-130590179Y-89121918D01*
X-130538908Y-89198651D01*
X-130473651Y-89263908D01*
X-130396918Y-89315179D01*
X-130311656Y-89350496D01*
X-130221143Y-89368500D01*
X-130128857Y-89368500D01*
X-130038344Y-89350496D01*
X-129953082Y-89315179D01*
X-129876349Y-89263908D01*
X-129811092Y-89198651D01*
X-129759821Y-89121918D01*
X-129724504Y-89036656D01*
X-129706500Y-88946143D01*
X-129706500Y-88853857D01*
X-129724504Y-88763344D01*
X-129759821Y-88678082D01*
X-129811092Y-88601349D01*
X-129876349Y-88536092D01*
X-129953082Y-88484821D01*
X-130038344Y-88449504D01*
X-130128857Y-88431500D01*
X-130221143Y-88431500D01*
X-130311656Y-88449504D01*
X-130396918Y-88484821D01*
X-130473651Y-88536092D01*
X-130538908Y-88601349D01*
X-130590179Y-88678082D01*
X-130625496Y-88763344D01*
X-130643500Y-88853857D01*
X-135039500Y-88853857D01*
X-135039500Y-87068959D01*
X-118278500Y-87068959D01*
X-118278500Y-87501041D01*
X-118194205Y-87924820D01*
X-118028854Y-88324012D01*
X-117788802Y-88683274D01*
X-117483274Y-88988802D01*
X-117124012Y-89228854D01*
X-116724820Y-89394205D01*
X-116301041Y-89478500D01*
X-115868959Y-89478500D01*
X-115611560Y-89427300D01*
X-109678500Y-89427300D01*
X-109678500Y-89642700D01*
X-109636477Y-89853962D01*
X-109554047Y-90052966D01*
X-109434377Y-90232066D01*
X-109282066Y-90384377D01*
X-109102966Y-90504047D01*
X-108903962Y-90586477D01*
X-108692700Y-90628500D01*
X-108477300Y-90628500D01*
X-108266038Y-90586477D01*
X-108067034Y-90504047D01*
X-107887934Y-90384377D01*
X-107735623Y-90232066D01*
X-107615953Y-90052966D01*
X-107533523Y-89853962D01*
X-107491500Y-89642700D01*
X-107491500Y-89427300D01*
X-107533523Y-89216038D01*
X-107615953Y-89017034D01*
X-107735623Y-88837934D01*
X-107887934Y-88685623D01*
X-108067034Y-88565953D01*
X-108266038Y-88483523D01*
X-108477300Y-88441500D01*
X-108692700Y-88441500D01*
X-108903962Y-88483523D01*
X-109102966Y-88565953D01*
X-109282066Y-88685623D01*
X-109434377Y-88837934D01*
X-109554047Y-89017034D01*
X-109636477Y-89216038D01*
X-109678500Y-89427300D01*
X-115611560Y-89427300D01*
X-115445180Y-89394205D01*
X-115045988Y-89228854D01*
X-114686726Y-88988802D01*
X-114381198Y-88683274D01*
X-114141146Y-88324012D01*
X-113975795Y-87924820D01*
X-113891500Y-87501041D01*
X-113891500Y-87068959D01*
X-113975795Y-86645180D01*
X-114141146Y-86245988D01*
X-114381198Y-85886726D01*
X-114686726Y-85581198D01*
X-115045988Y-85341146D01*
X-115445180Y-85175795D01*
X-115868959Y-85091500D01*
X-116301041Y-85091500D01*
X-116724820Y-85175795D01*
X-117124012Y-85341146D01*
X-117483274Y-85581198D01*
X-117788802Y-85886726D01*
X-118028854Y-86245988D01*
X-118194205Y-86645180D01*
X-118278500Y-87068959D01*
X-135039500Y-87068959D01*
X-135039500Y-81233857D01*
X-130643500Y-81233857D01*
X-130643500Y-81326143D01*
X-130625496Y-81416656D01*
X-130590179Y-81501918D01*
X-130538908Y-81578651D01*
X-130473651Y-81643908D01*
X-130396918Y-81695179D01*
X-130311656Y-81730496D01*
X-130221143Y-81748500D01*
X-130128857Y-81748500D01*
X-130038344Y-81730496D01*
X-129953082Y-81695179D01*
X-129876349Y-81643908D01*
X-129811092Y-81578651D01*
X-129759821Y-81501918D01*
X-129724504Y-81416656D01*
X-129706500Y-81326143D01*
X-129706500Y-81233857D01*
X-129724504Y-81143344D01*
X-129759821Y-81058082D01*
X-129811092Y-80981349D01*
X-129876349Y-80916092D01*
X-129953082Y-80864821D01*
X-130038344Y-80829504D01*
X-130128857Y-80811500D01*
X-130221143Y-80811500D01*
X-130311656Y-80829504D01*
X-130396918Y-80864821D01*
X-130473651Y-80916092D01*
X-130538908Y-80981349D01*
X-130590179Y-81058082D01*
X-130625496Y-81143344D01*
X-130643500Y-81233857D01*
X-135039500Y-81233857D01*
X-135039500Y-77423857D01*
X-128103500Y-77423857D01*
X-128103500Y-77516143D01*
X-128085496Y-77606656D01*
X-128050179Y-77691918D01*
X-127998908Y-77768651D01*
X-127933651Y-77833908D01*
X-127856918Y-77885179D01*
X-127771656Y-77920496D01*
X-127681143Y-77938500D01*
X-127588857Y-77938500D01*
X-127498344Y-77920496D01*
X-127413082Y-77885179D01*
X-127336349Y-77833908D01*
X-127271092Y-77768651D01*
X-127219821Y-77691918D01*
X-127184504Y-77606656D01*
X-127166500Y-77516143D01*
X-127166500Y-77423857D01*
X-124293500Y-77423857D01*
X-124293500Y-77516143D01*
X-124275496Y-77606656D01*
X-124240179Y-77691918D01*
X-124188908Y-77768651D01*
X-124123651Y-77833908D01*
X-124046918Y-77885179D01*
X-123961656Y-77920496D01*
X-123871143Y-77938500D01*
X-123778857Y-77938500D01*
X-123688344Y-77920496D01*
X-123603082Y-77885179D01*
X-123526349Y-77833908D01*
X-123461092Y-77768651D01*
X-123409821Y-77691918D01*
X-123374504Y-77606656D01*
X-123356500Y-77516143D01*
X-123356500Y-77423857D01*
X-123374504Y-77333344D01*
X-123398671Y-77275000D01*
X-120174436Y-77275000D01*
X-120174436Y-78475000D01*
X-120170700Y-78512933D01*
X-120159635Y-78549407D01*
X-120141668Y-78583023D01*
X-120117487Y-78612487D01*
X-120088023Y-78636668D01*
X-120054407Y-78654635D01*
X-120017933Y-78665700D01*
X-119980000Y-78669436D01*
X-119750132Y-78669436D01*
X-119755863Y-78671810D01*
X-119885827Y-78758649D01*
X-119996351Y-78869173D01*
X-120083190Y-78999137D01*
X-120143006Y-79143545D01*
X-120173500Y-79296847D01*
X-120173500Y-79453153D01*
X-120143006Y-79606455D01*
X-120083190Y-79750863D01*
X-119996351Y-79880827D01*
X-119885827Y-79991351D01*
X-119755863Y-80078190D01*
X-119611455Y-80138006D01*
X-119458153Y-80168500D01*
X-119301847Y-80168500D01*
X-119148545Y-80138006D01*
X-119004137Y-80078190D01*
X-118874173Y-79991351D01*
X-118763649Y-79880827D01*
X-118676810Y-79750863D01*
X-118616994Y-79606455D01*
X-118586500Y-79453153D01*
X-118586500Y-79296847D01*
X-118616994Y-79143545D01*
X-118676810Y-78999137D01*
X-118763649Y-78869173D01*
X-118874173Y-78758649D01*
X-119004137Y-78671810D01*
X-119009868Y-78669436D01*
X-118780000Y-78669436D01*
X-118742067Y-78665700D01*
X-118705593Y-78654635D01*
X-118671977Y-78636668D01*
X-118642513Y-78612487D01*
X-118618332Y-78583023D01*
X-118600365Y-78549407D01*
X-118589300Y-78512933D01*
X-118585564Y-78475000D01*
X-118585564Y-77275000D01*
X-112554436Y-77275000D01*
X-112554436Y-78475000D01*
X-112550700Y-78512933D01*
X-112539635Y-78549407D01*
X-112521668Y-78583023D01*
X-112497487Y-78612487D01*
X-112468023Y-78636668D01*
X-112434407Y-78654635D01*
X-112397933Y-78665700D01*
X-112360000Y-78669436D01*
X-112130132Y-78669436D01*
X-112135863Y-78671810D01*
X-112265827Y-78758649D01*
X-112376351Y-78869173D01*
X-112463190Y-78999137D01*
X-112523006Y-79143545D01*
X-112553500Y-79296847D01*
X-112553500Y-79453153D01*
X-112523006Y-79606455D01*
X-112463190Y-79750863D01*
X-112376351Y-79880827D01*
X-112265827Y-79991351D01*
X-112135863Y-80078190D01*
X-111991455Y-80138006D01*
X-111838153Y-80168500D01*
X-111681847Y-80168500D01*
X-111528545Y-80138006D01*
X-111384137Y-80078190D01*
X-111254173Y-79991351D01*
X-111143649Y-79880827D01*
X-111056810Y-79750863D01*
X-110996994Y-79606455D01*
X-110966500Y-79453153D01*
X-110966500Y-79296847D01*
X-110996994Y-79143545D01*
X-111056810Y-78999137D01*
X-111143649Y-78869173D01*
X-111254173Y-78758649D01*
X-111384137Y-78671810D01*
X-111389868Y-78669436D01*
X-111160000Y-78669436D01*
X-111122067Y-78665700D01*
X-111085593Y-78654635D01*
X-111051977Y-78636668D01*
X-111022513Y-78612487D01*
X-110998332Y-78583023D01*
X-110980365Y-78549407D01*
X-110969300Y-78512933D01*
X-110965564Y-78475000D01*
X-110965564Y-77275000D01*
X-110969300Y-77237067D01*
X-110980365Y-77200593D01*
X-110998332Y-77166977D01*
X-111022513Y-77137513D01*
X-111051977Y-77113332D01*
X-111085593Y-77095365D01*
X-111122067Y-77084300D01*
X-111160000Y-77080564D01*
X-112360000Y-77080564D01*
X-112397933Y-77084300D01*
X-112434407Y-77095365D01*
X-112468023Y-77113332D01*
X-112497487Y-77137513D01*
X-112521668Y-77166977D01*
X-112539635Y-77200593D01*
X-112550700Y-77237067D01*
X-112554436Y-77275000D01*
X-118585564Y-77275000D01*
X-118589300Y-77237067D01*
X-118600365Y-77200593D01*
X-118618332Y-77166977D01*
X-118642513Y-77137513D01*
X-118671977Y-77113332D01*
X-118705593Y-77095365D01*
X-118742067Y-77084300D01*
X-118780000Y-77080564D01*
X-119980000Y-77080564D01*
X-120017933Y-77084300D01*
X-120054407Y-77095365D01*
X-120088023Y-77113332D01*
X-120117487Y-77137513D01*
X-120141668Y-77166977D01*
X-120159635Y-77200593D01*
X-120170700Y-77237067D01*
X-120174436Y-77275000D01*
X-123398671Y-77275000D01*
X-123409821Y-77248082D01*
X-123461092Y-77171349D01*
X-123526349Y-77106092D01*
X-123603082Y-77054821D01*
X-123688344Y-77019504D01*
X-123778857Y-77001500D01*
X-123871143Y-77001500D01*
X-123961656Y-77019504D01*
X-124046918Y-77054821D01*
X-124123651Y-77106092D01*
X-124188908Y-77171349D01*
X-124240179Y-77248082D01*
X-124275496Y-77333344D01*
X-124293500Y-77423857D01*
X-127166500Y-77423857D01*
X-127184504Y-77333344D01*
X-127219821Y-77248082D01*
X-127271092Y-77171349D01*
X-127336349Y-77106092D01*
X-127413082Y-77054821D01*
X-127498344Y-77019504D01*
X-127588857Y-77001500D01*
X-127681143Y-77001500D01*
X-127771656Y-77019504D01*
X-127856918Y-77054821D01*
X-127933651Y-77106092D01*
X-127998908Y-77171349D01*
X-128050179Y-77248082D01*
X-128085496Y-77333344D01*
X-128103500Y-77423857D01*
X-135039500Y-77423857D01*
X-135039500Y-74883857D01*
X-132548500Y-74883857D01*
X-132548500Y-74976143D01*
X-132530496Y-75066656D01*
X-132495179Y-75151918D01*
X-132443908Y-75228651D01*
X-132378651Y-75293908D01*
X-132301918Y-75345179D01*
X-132216656Y-75380496D01*
X-132126143Y-75398500D01*
X-132033857Y-75398500D01*
X-131943344Y-75380496D01*
X-131858082Y-75345179D01*
X-131781349Y-75293908D01*
X-131739994Y-75252553D01*
X-131698638Y-75293908D01*
X-131621905Y-75345179D01*
X-131536643Y-75380496D01*
X-131446130Y-75398500D01*
X-131353844Y-75398500D01*
X-131263331Y-75380496D01*
X-131178069Y-75345179D01*
X-131101336Y-75293908D01*
X-131036079Y-75228651D01*
X-130984808Y-75151918D01*
X-130949491Y-75066656D01*
X-130931487Y-74976143D01*
X-130931487Y-74883857D01*
X-123658500Y-74883857D01*
X-123658500Y-74976143D01*
X-123640496Y-75066656D01*
X-123605179Y-75151918D01*
X-123553908Y-75228651D01*
X-123488651Y-75293908D01*
X-123411918Y-75345179D01*
X-123326656Y-75380496D01*
X-123236143Y-75398500D01*
X-123143857Y-75398500D01*
X-123053344Y-75380496D01*
X-122968082Y-75345179D01*
X-122891349Y-75293908D01*
X-122826092Y-75228651D01*
X-122774821Y-75151918D01*
X-122739504Y-75066656D01*
X-122721500Y-74976143D01*
X-122721500Y-74883857D01*
X-122739504Y-74793344D01*
X-122774821Y-74708082D01*
X-122826092Y-74631349D01*
X-122891349Y-74566092D01*
X-122968082Y-74514821D01*
X-123053344Y-74479504D01*
X-123143857Y-74461500D01*
X-123236143Y-74461500D01*
X-123326656Y-74479504D01*
X-123411918Y-74514821D01*
X-123488651Y-74566092D01*
X-123553908Y-74631349D01*
X-123605179Y-74708082D01*
X-123640496Y-74793344D01*
X-123658500Y-74883857D01*
X-130931487Y-74883857D01*
X-130949491Y-74793344D01*
X-130984808Y-74708082D01*
X-131036079Y-74631349D01*
X-131101336Y-74566092D01*
X-131178069Y-74514821D01*
X-131263331Y-74479504D01*
X-131353844Y-74461500D01*
X-131446130Y-74461500D01*
X-131536643Y-74479504D01*
X-131621905Y-74514821D01*
X-131698638Y-74566092D01*
X-131739994Y-74607448D01*
X-131781349Y-74566092D01*
X-131858082Y-74514821D01*
X-131943344Y-74479504D01*
X-132033857Y-74461500D01*
X-132126143Y-74461500D01*
X-132216656Y-74479504D01*
X-132301918Y-74514821D01*
X-132378651Y-74566092D01*
X-132443908Y-74631349D01*
X-132495179Y-74708082D01*
X-132530496Y-74793344D01*
X-132548500Y-74883857D01*
X-135039500Y-74883857D01*
X-135039500Y-72331545D01*
X-123148500Y-72331545D01*
X-123148500Y-72448455D01*
X-123125692Y-72563118D01*
X-123080953Y-72671128D01*
X-123016002Y-72768334D01*
X-122933334Y-72851002D01*
X-122836128Y-72915953D01*
X-122728118Y-72960692D01*
X-122613455Y-72983500D01*
X-122496545Y-72983500D01*
X-122381882Y-72960692D01*
X-122273872Y-72915953D01*
X-122176666Y-72851002D01*
X-122093998Y-72768334D01*
X-122029047Y-72671128D01*
X-121984308Y-72563118D01*
X-121961500Y-72448455D01*
X-121961500Y-72331545D01*
X-116798500Y-72331545D01*
X-116798500Y-72448455D01*
X-116775692Y-72563118D01*
X-116730953Y-72671128D01*
X-116666002Y-72768334D01*
X-116583334Y-72851002D01*
X-116486128Y-72915953D01*
X-116378118Y-72960692D01*
X-116263455Y-72983500D01*
X-116146545Y-72983500D01*
X-116031882Y-72960692D01*
X-115923872Y-72915953D01*
X-115826666Y-72851002D01*
X-115743998Y-72768334D01*
X-115679047Y-72671128D01*
X-115634308Y-72563118D01*
X-115611500Y-72448455D01*
X-115611500Y-72331545D01*
X-115634308Y-72216882D01*
X-115679047Y-72108872D01*
X-115743998Y-72011666D01*
X-115826666Y-71928998D01*
X-115923872Y-71864047D01*
X-116031882Y-71819308D01*
X-116146545Y-71796500D01*
X-116263455Y-71796500D01*
X-116378118Y-71819308D01*
X-116486128Y-71864047D01*
X-116583334Y-71928998D01*
X-116666002Y-72011666D01*
X-116730953Y-72108872D01*
X-116775692Y-72216882D01*
X-116798500Y-72331545D01*
X-121961500Y-72331545D01*
X-121984308Y-72216882D01*
X-122029047Y-72108872D01*
X-122093998Y-72011666D01*
X-122176666Y-71928998D01*
X-122273872Y-71864047D01*
X-122381882Y-71819308D01*
X-122496545Y-71796500D01*
X-122613455Y-71796500D01*
X-122728118Y-71819308D01*
X-122836128Y-71864047D01*
X-122933334Y-71928998D01*
X-123016002Y-72011666D01*
X-123080953Y-72108872D01*
X-123125692Y-72216882D01*
X-123148500Y-72331545D01*
X-135039500Y-72331545D01*
X-135039500Y-71073857D01*
X-126833500Y-71073857D01*
X-126833500Y-71166143D01*
X-126815496Y-71256656D01*
X-126780179Y-71341918D01*
X-126728908Y-71418651D01*
X-126663651Y-71483908D01*
X-126586918Y-71535179D01*
X-126501656Y-71570496D01*
X-126411143Y-71588500D01*
X-126318857Y-71588500D01*
X-126228344Y-71570496D01*
X-126143082Y-71535179D01*
X-126066349Y-71483908D01*
X-126001092Y-71418651D01*
X-125949821Y-71341918D01*
X-125914504Y-71256656D01*
X-125896500Y-71166143D01*
X-125896500Y-71073857D01*
X-125914504Y-70983344D01*
X-125949821Y-70898082D01*
X-126001092Y-70821349D01*
X-126066349Y-70756092D01*
X-126143082Y-70704821D01*
X-126228344Y-70669504D01*
X-126318857Y-70651500D01*
X-126411143Y-70651500D01*
X-126501656Y-70669504D01*
X-126586918Y-70704821D01*
X-126663651Y-70756092D01*
X-126728908Y-70821349D01*
X-126780179Y-70898082D01*
X-126815496Y-70983344D01*
X-126833500Y-71073857D01*
X-135039500Y-71073857D01*
X-135039500Y-68533857D01*
X-116673500Y-68533857D01*
X-116673500Y-68626143D01*
X-116655496Y-68716656D01*
X-116620179Y-68801918D01*
X-116568908Y-68878651D01*
X-116503651Y-68943908D01*
X-116426918Y-68995179D01*
X-116341656Y-69030496D01*
X-116251143Y-69048500D01*
X-116158857Y-69048500D01*
X-116068344Y-69030496D01*
X-115983082Y-68995179D01*
X-115906349Y-68943908D01*
X-115841092Y-68878651D01*
X-115789821Y-68801918D01*
X-115754504Y-68716656D01*
X-115736500Y-68626143D01*
X-115736500Y-68533857D01*
X-115754504Y-68443344D01*
X-115789821Y-68358082D01*
X-115841092Y-68281349D01*
X-115906349Y-68216092D01*
X-115983082Y-68164821D01*
X-116068344Y-68129504D01*
X-116158857Y-68111500D01*
X-116251143Y-68111500D01*
X-116341656Y-68129504D01*
X-116426918Y-68164821D01*
X-116503651Y-68216092D01*
X-116568908Y-68281349D01*
X-116620179Y-68358082D01*
X-116655496Y-68443344D01*
X-116673500Y-68533857D01*
X-135039500Y-68533857D01*
X-135039500Y-65346545D01*
X-132038500Y-65346545D01*
X-132038500Y-65463455D01*
X-132015692Y-65578118D01*
X-131970953Y-65686128D01*
X-131906002Y-65783334D01*
X-131823334Y-65866002D01*
X-131726128Y-65930953D01*
X-131618118Y-65975692D01*
X-131503455Y-65998500D01*
X-131386545Y-65998500D01*
X-131271882Y-65975692D01*
X-131163872Y-65930953D01*
X-131066666Y-65866002D01*
X-130983998Y-65783334D01*
X-130919047Y-65686128D01*
X-130874308Y-65578118D01*
X-130851500Y-65463455D01*
X-130851500Y-65346545D01*
X-114893500Y-65346545D01*
X-114893500Y-65463455D01*
X-114870692Y-65578118D01*
X-114825953Y-65686128D01*
X-114761002Y-65783334D01*
X-114678334Y-65866002D01*
X-114581128Y-65930953D01*
X-114473118Y-65975692D01*
X-114358455Y-65998500D01*
X-114241545Y-65998500D01*
X-114126882Y-65975692D01*
X-114018872Y-65930953D01*
X-113921666Y-65866002D01*
X-113838998Y-65783334D01*
X-113774047Y-65686128D01*
X-113729308Y-65578118D01*
X-113706500Y-65463455D01*
X-113706500Y-65346545D01*
X-113729308Y-65231882D01*
X-113774047Y-65123872D01*
X-113838998Y-65026666D01*
X-113921666Y-64943998D01*
X-114018872Y-64879047D01*
X-114126882Y-64834308D01*
X-114241545Y-64811500D01*
X-114358455Y-64811500D01*
X-114473118Y-64834308D01*
X-114581128Y-64879047D01*
X-114678334Y-64943998D01*
X-114761002Y-65026666D01*
X-114825953Y-65123872D01*
X-114870692Y-65231882D01*
X-114893500Y-65346545D01*
X-130851500Y-65346545D01*
X-130874308Y-65231882D01*
X-130919047Y-65123872D01*
X-130983998Y-65026666D01*
X-131066666Y-64943998D01*
X-131163872Y-64879047D01*
X-131271882Y-64834308D01*
X-131386545Y-64811500D01*
X-131503455Y-64811500D01*
X-131618118Y-64834308D01*
X-131726128Y-64879047D01*
X-131823334Y-64943998D01*
X-131906002Y-65026666D01*
X-131970953Y-65123872D01*
X-132015692Y-65231882D01*
X-132038500Y-65346545D01*
X-135039500Y-65346545D01*
X-135039500Y-55821545D01*
X-123783500Y-55821545D01*
X-123783500Y-55938455D01*
X-123760692Y-56053118D01*
X-123715953Y-56161128D01*
X-123651002Y-56258334D01*
X-123568334Y-56341002D01*
X-123471128Y-56405953D01*
X-123363118Y-56450692D01*
X-123248455Y-56473500D01*
X-123131545Y-56473500D01*
X-123016882Y-56450692D01*
X-122908872Y-56405953D01*
X-122811666Y-56341002D01*
X-122728998Y-56258334D01*
X-122664047Y-56161128D01*
X-122619308Y-56053118D01*
X-122596500Y-55938455D01*
X-122596500Y-55821545D01*
X-122619308Y-55706882D01*
X-122664047Y-55598872D01*
X-122728998Y-55501666D01*
X-122811666Y-55418998D01*
X-122908872Y-55354047D01*
X-123016882Y-55309308D01*
X-123131545Y-55286500D01*
X-123248455Y-55286500D01*
X-123363118Y-55309308D01*
X-123471128Y-55354047D01*
X-123568334Y-55418998D01*
X-123651002Y-55501666D01*
X-123715953Y-55598872D01*
X-123760692Y-55706882D01*
X-123783500Y-55821545D01*
X-135039500Y-55821545D01*
X-135039500Y-53281545D01*
X-115378448Y-53281545D01*
X-115378448Y-53398455D01*
X-115355640Y-53513118D01*
X-115310901Y-53621128D01*
X-115245950Y-53718334D01*
X-115163282Y-53801002D01*
X-115066076Y-53865953D01*
X-114958066Y-53910692D01*
X-114843403Y-53933500D01*
X-114726493Y-53933500D01*
X-114611830Y-53910692D01*
X-114503820Y-53865953D01*
X-114406614Y-53801002D01*
X-114323946Y-53718334D01*
X-114258995Y-53621128D01*
X-114214256Y-53513118D01*
X-114191448Y-53398455D01*
X-114191448Y-53281545D01*
X-114214256Y-53166882D01*
X-114258995Y-53058872D01*
X-114323946Y-52961666D01*
X-114406614Y-52878998D01*
X-114503820Y-52814047D01*
X-114611830Y-52769308D01*
X-114726493Y-52746500D01*
X-114843403Y-52746500D01*
X-114958066Y-52769308D01*
X-115066076Y-52814047D01*
X-115163282Y-52878998D01*
X-115245950Y-52961666D01*
X-115310901Y-53058872D01*
X-115355640Y-53166882D01*
X-115378448Y-53281545D01*
X-135039500Y-53281545D01*
X-135039500Y-52133500D01*
X-132037496Y-52133500D01*
X-132015692Y-52243118D01*
X-131970953Y-52351128D01*
X-131906002Y-52448334D01*
X-131823334Y-52531002D01*
X-131726128Y-52595953D01*
X-131618118Y-52640692D01*
X-131503455Y-52663500D01*
X-131386545Y-52663500D01*
X-131271882Y-52640692D01*
X-131163872Y-52595953D01*
X-131066666Y-52531002D01*
X-130983998Y-52448334D01*
X-130919047Y-52351128D01*
X-130874308Y-52243118D01*
X-130852504Y-52133500D01*
X-123782496Y-52133500D01*
X-123760692Y-52243118D01*
X-123715953Y-52351128D01*
X-123651002Y-52448334D01*
X-123568334Y-52531002D01*
X-123471128Y-52595953D01*
X-123363118Y-52640692D01*
X-123248455Y-52663500D01*
X-123131545Y-52663500D01*
X-123046307Y-52646545D01*
X-110448500Y-52646545D01*
X-110448500Y-52763455D01*
X-110425692Y-52878118D01*
X-110380953Y-52986128D01*
X-110316002Y-53083334D01*
X-110233334Y-53166002D01*
X-110136128Y-53230953D01*
X-110028118Y-53275692D01*
X-109913455Y-53298500D01*
X-109796545Y-53298500D01*
X-109681882Y-53275692D01*
X-109573872Y-53230953D01*
X-109476666Y-53166002D01*
X-109393998Y-53083334D01*
X-109329047Y-52986128D01*
X-109284308Y-52878118D01*
X-109261500Y-52763455D01*
X-109261500Y-52646545D01*
X-109284308Y-52531882D01*
X-109329047Y-52423872D01*
X-109393998Y-52326666D01*
X-109476666Y-52243998D01*
X-109573872Y-52179047D01*
X-109681882Y-52134308D01*
X-109796545Y-52111500D01*
X-109913455Y-52111500D01*
X-110028118Y-52134308D01*
X-110136128Y-52179047D01*
X-110233334Y-52243998D01*
X-110316002Y-52326666D01*
X-110380953Y-52423872D01*
X-110425692Y-52531882D01*
X-110448500Y-52646545D01*
X-123046307Y-52646545D01*
X-123016882Y-52640692D01*
X-122908872Y-52595953D01*
X-122811666Y-52531002D01*
X-122728998Y-52448334D01*
X-122664047Y-52351128D01*
X-122619308Y-52243118D01*
X-122597504Y-52133500D01*
X-116205000Y-52133500D01*
X-116192612Y-52132280D01*
X-116180700Y-52128666D01*
X-116169721Y-52122798D01*
X-116160099Y-52114901D01*
X-116152202Y-52105279D01*
X-116146334Y-52094300D01*
X-116142720Y-52082388D01*
X-116141500Y-52070000D01*
X-116141500Y-48836545D01*
X-115528500Y-48836545D01*
X-115528500Y-48953455D01*
X-115505692Y-49068118D01*
X-115460953Y-49176128D01*
X-115396002Y-49273334D01*
X-115313334Y-49356002D01*
X-115216128Y-49420953D01*
X-115108118Y-49465692D01*
X-114993455Y-49488500D01*
X-114876545Y-49488500D01*
X-114761882Y-49465692D01*
X-114653872Y-49420953D01*
X-114556666Y-49356002D01*
X-114473998Y-49273334D01*
X-114409047Y-49176128D01*
X-114364308Y-49068118D01*
X-114341500Y-48953455D01*
X-114341500Y-48836545D01*
X-114364308Y-48721882D01*
X-114409047Y-48613872D01*
X-114473998Y-48516666D01*
X-114556666Y-48433998D01*
X-114653872Y-48369047D01*
X-114761882Y-48324308D01*
X-114876545Y-48301500D01*
X-114993455Y-48301500D01*
X-115108118Y-48324308D01*
X-115216128Y-48369047D01*
X-115313334Y-48433998D01*
X-115396002Y-48516666D01*
X-115460953Y-48613872D01*
X-115505692Y-48721882D01*
X-115528500Y-48836545D01*
X-116141500Y-48836545D01*
X-116141500Y-44450000D01*
X-116142720Y-44437612D01*
X-116146334Y-44425700D01*
X-116152202Y-44414721D01*
X-116160099Y-44405099D01*
X-116169721Y-44397202D01*
X-116180700Y-44391334D01*
X-116192612Y-44387720D01*
X-116205000Y-44386500D01*
X-129476500Y-44386500D01*
X-129476500Y-43121545D01*
X-109178500Y-43121545D01*
X-109178500Y-43238455D01*
X-109155692Y-43353118D01*
X-109110953Y-43461128D01*
X-109046002Y-43558334D01*
X-108963334Y-43641002D01*
X-108866128Y-43705953D01*
X-108758118Y-43750692D01*
X-108643455Y-43773500D01*
X-108526545Y-43773500D01*
X-108411882Y-43750692D01*
X-108303872Y-43705953D01*
X-108206666Y-43641002D01*
X-108123998Y-43558334D01*
X-108059047Y-43461128D01*
X-108014308Y-43353118D01*
X-107991500Y-43238455D01*
X-107991500Y-43121545D01*
X-108014308Y-43006882D01*
X-108059047Y-42898872D01*
X-108123998Y-42801666D01*
X-108206666Y-42718998D01*
X-108303872Y-42654047D01*
X-108411882Y-42609308D01*
X-108526545Y-42586500D01*
X-108643455Y-42586500D01*
X-108758118Y-42609308D01*
X-108866128Y-42654047D01*
X-108963334Y-42718998D01*
X-109046002Y-42801666D01*
X-109110953Y-42898872D01*
X-109155692Y-43006882D01*
X-109178500Y-43121545D01*
X-129476500Y-43121545D01*
X-129476500Y-41851545D01*
X-109178500Y-41851545D01*
X-109178500Y-41968455D01*
X-109155692Y-42083118D01*
X-109110953Y-42191128D01*
X-109046002Y-42288334D01*
X-108963334Y-42371002D01*
X-108866128Y-42435953D01*
X-108758118Y-42480692D01*
X-108643455Y-42503500D01*
X-108526545Y-42503500D01*
X-108411882Y-42480692D01*
X-108303872Y-42435953D01*
X-108206666Y-42371002D01*
X-108123998Y-42288334D01*
X-108059047Y-42191128D01*
X-108014308Y-42083118D01*
X-107991500Y-41968455D01*
X-107991500Y-41851545D01*
X-108014308Y-41736882D01*
X-108059047Y-41628872D01*
X-108123998Y-41531666D01*
X-108206666Y-41448998D01*
X-108303872Y-41384047D01*
X-108411882Y-41339308D01*
X-108526545Y-41316500D01*
X-108643455Y-41316500D01*
X-108758118Y-41339308D01*
X-108866128Y-41384047D01*
X-108963334Y-41448998D01*
X-109046002Y-41531666D01*
X-109110953Y-41628872D01*
X-109155692Y-41736882D01*
X-109178500Y-41851545D01*
X-129476500Y-41851545D01*
X-129476500Y-41232496D01*
X-129366882Y-41210692D01*
X-129258872Y-41165953D01*
X-129161666Y-41101002D01*
X-129078998Y-41018334D01*
X-129014047Y-40921128D01*
X-128969308Y-40813118D01*
X-128946500Y-40698455D01*
X-128946500Y-40581545D01*
X-128969308Y-40466882D01*
X-129014047Y-40358872D01*
X-129078998Y-40261666D01*
X-129161666Y-40178998D01*
X-129258872Y-40114047D01*
X-129366882Y-40069308D01*
X-129476500Y-40047504D01*
X-129476500Y-39962496D01*
X-129366882Y-39940692D01*
X-129258872Y-39895953D01*
X-129161666Y-39831002D01*
X-129078998Y-39748334D01*
X-129014047Y-39651128D01*
X-128969308Y-39543118D01*
X-128946500Y-39428455D01*
X-128946500Y-39311545D01*
X-128969308Y-39196882D01*
X-129014047Y-39088872D01*
X-129078998Y-38991666D01*
X-129161666Y-38908998D01*
X-129258872Y-38844047D01*
X-129366882Y-38799308D01*
X-129476500Y-38777504D01*
X-129476500Y-38688857D01*
X-125563500Y-38688857D01*
X-125563500Y-38781143D01*
X-125545496Y-38871656D01*
X-125510179Y-38956918D01*
X-125458908Y-39033651D01*
X-125393651Y-39098908D01*
X-125316918Y-39150179D01*
X-125231656Y-39185496D01*
X-125141143Y-39203500D01*
X-125048857Y-39203500D01*
X-124958344Y-39185496D01*
X-124873082Y-39150179D01*
X-124796349Y-39098908D01*
X-124731092Y-39033651D01*
X-124679821Y-38956918D01*
X-124644504Y-38871656D01*
X-124626500Y-38781143D01*
X-124626500Y-38688857D01*
X-124644504Y-38598344D01*
X-124679821Y-38513082D01*
X-124731092Y-38436349D01*
X-124796349Y-38371092D01*
X-124873082Y-38319821D01*
X-124958344Y-38284504D01*
X-125048857Y-38266500D01*
X-125141143Y-38266500D01*
X-125231656Y-38284504D01*
X-125316918Y-38319821D01*
X-125393651Y-38371092D01*
X-125458908Y-38436349D01*
X-125510179Y-38513082D01*
X-125545496Y-38598344D01*
X-125563500Y-38688857D01*
X-129476500Y-38688857D01*
X-129476500Y-38163500D01*
X-129301381Y-38163500D01*
X-129298222Y-38179382D01*
X-129262905Y-38264644D01*
X-129211634Y-38341377D01*
X-129146377Y-38406634D01*
X-129069644Y-38457905D01*
X-128984382Y-38493222D01*
X-128893869Y-38511226D01*
X-128801583Y-38511226D01*
X-128711070Y-38493222D01*
X-128625808Y-38457905D01*
X-128549075Y-38406634D01*
X-128483818Y-38341377D01*
X-128432547Y-38264644D01*
X-128397230Y-38179382D01*
X-128394071Y-38163500D01*
X-113665000Y-38163500D01*
X-113652612Y-38162280D01*
X-113640700Y-38158666D01*
X-113629721Y-38152798D01*
X-113620099Y-38144901D01*
X-113612202Y-38135279D01*
X-113606334Y-38124300D01*
X-113602720Y-38112388D01*
X-113601500Y-38100000D01*
X-113601500Y-37406545D01*
X-110448500Y-37406545D01*
X-110448500Y-37523455D01*
X-110425692Y-37638118D01*
X-110380953Y-37746128D01*
X-110316002Y-37843334D01*
X-110233334Y-37926002D01*
X-110136128Y-37990953D01*
X-110028118Y-38035692D01*
X-109913455Y-38058500D01*
X-109796545Y-38058500D01*
X-109681882Y-38035692D01*
X-109573872Y-37990953D01*
X-109476666Y-37926002D01*
X-109393998Y-37843334D01*
X-109329047Y-37746128D01*
X-109284308Y-37638118D01*
X-109261500Y-37523455D01*
X-109261500Y-37406545D01*
X-108543500Y-37406545D01*
X-108543500Y-37523455D01*
X-108520692Y-37638118D01*
X-108475953Y-37746128D01*
X-108411002Y-37843334D01*
X-108328334Y-37926002D01*
X-108231128Y-37990953D01*
X-108123118Y-38035692D01*
X-108008455Y-38058500D01*
X-107891545Y-38058500D01*
X-107776882Y-38035692D01*
X-107668872Y-37990953D01*
X-107571666Y-37926002D01*
X-107488998Y-37843334D01*
X-107424047Y-37746128D01*
X-107379308Y-37638118D01*
X-107356500Y-37523455D01*
X-107356500Y-37406545D01*
X-107379308Y-37291882D01*
X-107424047Y-37183872D01*
X-107488998Y-37086666D01*
X-107571666Y-37003998D01*
X-107668872Y-36939047D01*
X-107776882Y-36894308D01*
X-107891545Y-36871500D01*
X-108008455Y-36871500D01*
X-108123118Y-36894308D01*
X-108231128Y-36939047D01*
X-108328334Y-37003998D01*
X-108411002Y-37086666D01*
X-108475953Y-37183872D01*
X-108520692Y-37291882D01*
X-108543500Y-37406545D01*
X-109261500Y-37406545D01*
X-109284308Y-37291882D01*
X-109329047Y-37183872D01*
X-109393998Y-37086666D01*
X-109476666Y-37003998D01*
X-109573872Y-36939047D01*
X-109681882Y-36894308D01*
X-109796545Y-36871500D01*
X-109913455Y-36871500D01*
X-110028118Y-36894308D01*
X-110136128Y-36939047D01*
X-110233334Y-37003998D01*
X-110316002Y-37086666D01*
X-110380953Y-37183872D01*
X-110425692Y-37291882D01*
X-110448500Y-37406545D01*
X-113601500Y-37406545D01*
X-113601500Y-27305000D01*
X-113602720Y-27292612D01*
X-113606334Y-27280700D01*
X-113612202Y-27269721D01*
X-113620099Y-27260099D01*
X-113629721Y-27252202D01*
X-113640700Y-27246334D01*
X-113652612Y-27242720D01*
X-113665000Y-27241500D01*
X-120586500Y-27241500D01*
X-120586500Y-24870386D01*
X-120481566Y-25028465D01*
X-120285118Y-25226106D01*
X-120053887Y-25381624D01*
X-119796759Y-25489043D01*
X-119788520Y-25491533D01*
X-119570500Y-25394354D01*
X-119570500Y-24320500D01*
X-119189500Y-24320500D01*
X-119189500Y-25394354D01*
X-118971480Y-25491533D01*
X-118963241Y-25489043D01*
X-118706113Y-25381624D01*
X-118474882Y-25226106D01*
X-118278434Y-25028465D01*
X-118124319Y-24796296D01*
X-118018459Y-24538522D01*
X-118114190Y-24320500D01*
X-119189500Y-24320500D01*
X-119570500Y-24320500D01*
X-119590500Y-24320500D01*
X-119590500Y-23939500D01*
X-119570500Y-23939500D01*
X-119570500Y-23919500D01*
X-119189500Y-23919500D01*
X-119189500Y-23939500D01*
X-118114190Y-23939500D01*
X-118018459Y-23721478D01*
X-118085389Y-23558500D01*
X-117713143Y-23558500D01*
X-117764738Y-23635717D01*
X-117843399Y-23825622D01*
X-117883500Y-24027224D01*
X-117883500Y-24232776D01*
X-117843399Y-24434378D01*
X-117764738Y-24624283D01*
X-117650539Y-24795192D01*
X-117505192Y-24940539D01*
X-117334283Y-25054738D01*
X-117144378Y-25133399D01*
X-116942776Y-25173500D01*
X-116737224Y-25173500D01*
X-116535622Y-25133399D01*
X-116345717Y-25054738D01*
X-116174808Y-24940539D01*
X-116029461Y-24795192D01*
X-115915262Y-24624283D01*
X-115836601Y-24434378D01*
X-115796500Y-24232776D01*
X-115796500Y-24027224D01*
X-115343500Y-24027224D01*
X-115343500Y-24232776D01*
X-115303399Y-24434378D01*
X-115224738Y-24624283D01*
X-115110539Y-24795192D01*
X-114965192Y-24940539D01*
X-114794283Y-25054738D01*
X-114604378Y-25133399D01*
X-114402776Y-25173500D01*
X-114197224Y-25173500D01*
X-113995622Y-25133399D01*
X-113805717Y-25054738D01*
X-113634808Y-24940539D01*
X-113489461Y-24795192D01*
X-113375262Y-24624283D01*
X-113296601Y-24434378D01*
X-113256500Y-24232776D01*
X-113256500Y-24027224D01*
X-112803500Y-24027224D01*
X-112803500Y-24232776D01*
X-112763399Y-24434378D01*
X-112684738Y-24624283D01*
X-112570539Y-24795192D01*
X-112425192Y-24940539D01*
X-112254283Y-25054738D01*
X-112064378Y-25133399D01*
X-111862776Y-25173500D01*
X-111657224Y-25173500D01*
X-111455622Y-25133399D01*
X-111265717Y-25054738D01*
X-111094808Y-24940539D01*
X-110949461Y-24795192D01*
X-110835262Y-24624283D01*
X-110756601Y-24434378D01*
X-110716500Y-24232776D01*
X-110716500Y-24027224D01*
X-110263500Y-24027224D01*
X-110263500Y-24232776D01*
X-110223399Y-24434378D01*
X-110144738Y-24624283D01*
X-110030539Y-24795192D01*
X-109885192Y-24940539D01*
X-109714283Y-25054738D01*
X-109524378Y-25133399D01*
X-109322776Y-25173500D01*
X-109117224Y-25173500D01*
X-108915622Y-25133399D01*
X-108725717Y-25054738D01*
X-108554808Y-24940539D01*
X-108409461Y-24795192D01*
X-108295262Y-24624283D01*
X-108216601Y-24434378D01*
X-108176500Y-24232776D01*
X-108176500Y-24027224D01*
X-108216601Y-23825622D01*
X-108295262Y-23635717D01*
X-108409461Y-23464808D01*
X-108554808Y-23319461D01*
X-108725717Y-23205262D01*
X-108915622Y-23126601D01*
X-109117224Y-23086500D01*
X-109322776Y-23086500D01*
X-109524378Y-23126601D01*
X-109714283Y-23205262D01*
X-109885192Y-23319461D01*
X-110030539Y-23464808D01*
X-110144738Y-23635717D01*
X-110223399Y-23825622D01*
X-110263500Y-24027224D01*
X-110716500Y-24027224D01*
X-110756601Y-23825622D01*
X-110835262Y-23635717D01*
X-110949461Y-23464808D01*
X-111094808Y-23319461D01*
X-111265717Y-23205262D01*
X-111455622Y-23126601D01*
X-111657224Y-23086500D01*
X-111862776Y-23086500D01*
X-112064378Y-23126601D01*
X-112254283Y-23205262D01*
X-112425192Y-23319461D01*
X-112570539Y-23464808D01*
X-112684738Y-23635717D01*
X-112763399Y-23825622D01*
X-112803500Y-24027224D01*
X-113256500Y-24027224D01*
X-113296601Y-23825622D01*
X-113375262Y-23635717D01*
X-113489461Y-23464808D01*
X-113634808Y-23319461D01*
X-113805717Y-23205262D01*
X-113995622Y-23126601D01*
X-114197224Y-23086500D01*
X-114402776Y-23086500D01*
X-114604378Y-23126601D01*
X-114794283Y-23205262D01*
X-114965192Y-23319461D01*
X-115110539Y-23464808D01*
X-115224738Y-23635717D01*
X-115303399Y-23825622D01*
X-115343500Y-24027224D01*
X-115796500Y-24027224D01*
X-115836601Y-23825622D01*
X-115915262Y-23635717D01*
X-116029461Y-23464808D01*
X-116174808Y-23319461D01*
X-116345717Y-23205262D01*
X-116535622Y-23126601D01*
X-116737224Y-23086500D01*
X-116942776Y-23086500D01*
X-117144378Y-23126601D01*
X-117334283Y-23205262D01*
X-117411500Y-23256857D01*
X-117411500Y-22463143D01*
X-117334283Y-22514738D01*
X-117144378Y-22593399D01*
X-116942776Y-22633500D01*
X-116737224Y-22633500D01*
X-116535622Y-22593399D01*
X-116345717Y-22514738D01*
X-116174808Y-22400539D01*
X-116029461Y-22255192D01*
X-115915262Y-22084283D01*
X-115836601Y-21894378D01*
X-115796500Y-21692776D01*
X-115796500Y-21487224D01*
X-115343500Y-21487224D01*
X-115343500Y-21692776D01*
X-115303399Y-21894378D01*
X-115224738Y-22084283D01*
X-115110539Y-22255192D01*
X-114965192Y-22400539D01*
X-114794283Y-22514738D01*
X-114604378Y-22593399D01*
X-114402776Y-22633500D01*
X-114197224Y-22633500D01*
X-113995622Y-22593399D01*
X-113805717Y-22514738D01*
X-113634808Y-22400539D01*
X-113489461Y-22255192D01*
X-113375262Y-22084283D01*
X-113296601Y-21894378D01*
X-113256500Y-21692776D01*
X-113256500Y-21487224D01*
X-112803500Y-21487224D01*
X-112803500Y-21692776D01*
X-112763399Y-21894378D01*
X-112684738Y-22084283D01*
X-112570539Y-22255192D01*
X-112425192Y-22400539D01*
X-112254283Y-22514738D01*
X-112064378Y-22593399D01*
X-111862776Y-22633500D01*
X-111657224Y-22633500D01*
X-111455622Y-22593399D01*
X-111265717Y-22514738D01*
X-111094808Y-22400539D01*
X-110949461Y-22255192D01*
X-110835262Y-22084283D01*
X-110756601Y-21894378D01*
X-110716500Y-21692776D01*
X-110716500Y-21487224D01*
X-110756601Y-21285622D01*
X-110835262Y-21095717D01*
X-110949461Y-20924808D01*
X-111094808Y-20779461D01*
X-111153864Y-20740000D01*
X-110264436Y-20740000D01*
X-110264436Y-22440000D01*
X-110260700Y-22477933D01*
X-110249635Y-22514407D01*
X-110231668Y-22548023D01*
X-110207487Y-22577487D01*
X-110178023Y-22601668D01*
X-110144407Y-22619635D01*
X-110107933Y-22630700D01*
X-110070000Y-22634436D01*
X-108370000Y-22634436D01*
X-108332067Y-22630700D01*
X-108295593Y-22619635D01*
X-108261977Y-22601668D01*
X-108232513Y-22577487D01*
X-108208332Y-22548023D01*
X-108190365Y-22514407D01*
X-108179300Y-22477933D01*
X-108175564Y-22440000D01*
X-108175564Y-20740000D01*
X-108179300Y-20702067D01*
X-108190365Y-20665593D01*
X-108208332Y-20631977D01*
X-108232513Y-20602513D01*
X-108261977Y-20578332D01*
X-108295593Y-20560365D01*
X-108332067Y-20549300D01*
X-108370000Y-20545564D01*
X-110070000Y-20545564D01*
X-110107933Y-20549300D01*
X-110144407Y-20560365D01*
X-110178023Y-20578332D01*
X-110207487Y-20602513D01*
X-110231668Y-20631977D01*
X-110249635Y-20665593D01*
X-110260700Y-20702067D01*
X-110264436Y-20740000D01*
X-111153864Y-20740000D01*
X-111265717Y-20665262D01*
X-111455622Y-20586601D01*
X-111657224Y-20546500D01*
X-111862776Y-20546500D01*
X-112064378Y-20586601D01*
X-112254283Y-20665262D01*
X-112425192Y-20779461D01*
X-112570539Y-20924808D01*
X-112684738Y-21095717D01*
X-112763399Y-21285622D01*
X-112803500Y-21487224D01*
X-113256500Y-21487224D01*
X-113296601Y-21285622D01*
X-113375262Y-21095717D01*
X-113489461Y-20924808D01*
X-113634808Y-20779461D01*
X-113805717Y-20665262D01*
X-113995622Y-20586601D01*
X-114197224Y-20546500D01*
X-114402776Y-20546500D01*
X-114604378Y-20586601D01*
X-114794283Y-20665262D01*
X-114965192Y-20779461D01*
X-115110539Y-20924808D01*
X-115224738Y-21095717D01*
X-115303399Y-21285622D01*
X-115343500Y-21487224D01*
X-115796500Y-21487224D01*
X-115836601Y-21285622D01*
X-115915262Y-21095717D01*
X-116029461Y-20924808D01*
X-116174808Y-20779461D01*
X-116345717Y-20665262D01*
X-116535622Y-20586601D01*
X-116737224Y-20546500D01*
X-116942776Y-20546500D01*
X-117144378Y-20586601D01*
X-117334283Y-20665262D01*
X-117411500Y-20716857D01*
X-117411500Y-19265500D01*
X-106895499Y-19265500D01*
X-106895500Y-19695578D01*
G37*
X-106895500Y-19695578D02*
X-106895499Y-19695588D01*
X-106895500Y-24140578D01*
X-106895499Y-24140588D01*
X-106895500Y-29855578D01*
X-106895499Y-29855588D01*
X-106895500Y-59700578D01*
X-106895499Y-59700588D01*
X-106895500Y-81290578D01*
X-106895499Y-81290588D01*
X-106895500Y-99479500D01*
X-135039500Y-99479500D01*
X-135039500Y-98005000D01*
X-134139265Y-98005000D01*
X-134128231Y-98117034D01*
X-134095552Y-98224762D01*
X-134042484Y-98324045D01*
X-133971067Y-98411067D01*
X-133884045Y-98482484D01*
X-133784762Y-98535552D01*
X-133677034Y-98568231D01*
X-133565000Y-98579265D01*
X-133048375Y-98576500D01*
X-132905500Y-98433625D01*
X-132905500Y-97345500D01*
X-132524500Y-97345500D01*
X-132524500Y-98433625D01*
X-132381625Y-98576500D01*
X-131865000Y-98579265D01*
X-131752966Y-98568231D01*
X-131645238Y-98535552D01*
X-131545955Y-98482484D01*
X-131458933Y-98411067D01*
X-131387516Y-98324045D01*
X-131334448Y-98224762D01*
X-131301769Y-98117034D01*
X-131290735Y-98005000D01*
X-131293500Y-97488375D01*
X-131436375Y-97345500D01*
X-132524500Y-97345500D01*
X-132905500Y-97345500D01*
X-133993625Y-97345500D01*
X-134136500Y-97488375D01*
X-134139265Y-98005000D01*
X-135039500Y-98005000D01*
X-135039500Y-96305000D01*
X-134139265Y-96305000D01*
X-134136500Y-96821625D01*
X-133993625Y-96964500D01*
X-132905500Y-96964500D01*
X-132905500Y-95876375D01*
X-132524500Y-95876375D01*
X-132524500Y-96964500D01*
X-131436375Y-96964500D01*
X-131293500Y-96821625D01*
X-131291389Y-96427073D01*
X-127308500Y-96427073D01*
X-127308500Y-96612927D01*
X-127272242Y-96795209D01*
X-127201119Y-96966915D01*
X-127097864Y-97121446D01*
X-126966446Y-97252864D01*
X-126811915Y-97356119D01*
X-126640209Y-97427242D01*
X-126457927Y-97463500D01*
X-126272073Y-97463500D01*
X-126089791Y-97427242D01*
X-125918085Y-97356119D01*
X-125763554Y-97252864D01*
X-125632136Y-97121446D01*
X-125528881Y-96966915D01*
X-125457758Y-96795209D01*
X-125421500Y-96612927D01*
X-125421500Y-96568959D01*
X-118278500Y-96568959D01*
X-118278500Y-97001041D01*
X-118194205Y-97424820D01*
X-118028854Y-97824012D01*
X-117788802Y-98183274D01*
X-117483274Y-98488802D01*
X-117124012Y-98728854D01*
X-116724820Y-98894205D01*
X-116301041Y-98978500D01*
X-115868959Y-98978500D01*
X-115445180Y-98894205D01*
X-115045988Y-98728854D01*
X-114686726Y-98488802D01*
X-114381198Y-98183274D01*
X-114141146Y-97824012D01*
X-113975795Y-97424820D01*
X-113891500Y-97001041D01*
X-113891500Y-96568959D01*
X-113975795Y-96145180D01*
X-114141146Y-95745988D01*
X-114235643Y-95604563D01*
X-109385156Y-95604563D01*
X-109292750Y-95833232D01*
X-109025878Y-95946363D01*
X-108742064Y-96005255D01*
X-108452214Y-96007646D01*
X-108167467Y-95953444D01*
X-107898765Y-95844732D01*
X-107877250Y-95833232D01*
X-107784844Y-95604563D01*
X-108585000Y-94804408D01*
X-109385156Y-95604563D01*
X-114235643Y-95604563D01*
X-114381198Y-95386726D01*
X-114686726Y-95081198D01*
X-115045988Y-94841146D01*
X-115445180Y-94675795D01*
X-115485443Y-94667786D01*
X-110057646Y-94667786D01*
X-110003444Y-94952533D01*
X-109894732Y-95221235D01*
X-109883232Y-95242750D01*
X-109654563Y-95335156D01*
X-108854408Y-94535000D01*
X-108315592Y-94535000D01*
X-107515437Y-95335156D01*
X-107286768Y-95242750D01*
X-107173637Y-94975878D01*
X-107114745Y-94692064D01*
X-107112354Y-94402214D01*
X-107166556Y-94117467D01*
X-107275268Y-93848765D01*
X-107286768Y-93827250D01*
X-107515437Y-93734844D01*
X-108315592Y-94535000D01*
X-108854408Y-94535000D01*
X-109654563Y-93734844D01*
X-109883232Y-93827250D01*
X-109996363Y-94094122D01*
X-110055255Y-94377936D01*
X-110057646Y-94667786D01*
X-115485443Y-94667786D01*
X-115868959Y-94591500D01*
X-116301041Y-94591500D01*
X-116724820Y-94675795D01*
X-117124012Y-94841146D01*
X-117483274Y-95081198D01*
X-117788802Y-95386726D01*
X-118028854Y-95745988D01*
X-118194205Y-96145180D01*
X-118278500Y-96568959D01*
X-125421500Y-96568959D01*
X-125421500Y-96427073D01*
X-125457758Y-96244791D01*
X-125528881Y-96073085D01*
X-125632136Y-95918554D01*
X-125763554Y-95787136D01*
X-125918085Y-95683881D01*
X-126089791Y-95612758D01*
X-126272073Y-95576500D01*
X-126457927Y-95576500D01*
X-126640209Y-95612758D01*
X-126811915Y-95683881D01*
X-126966446Y-95787136D01*
X-127097864Y-95918554D01*
X-127201119Y-96073085D01*
X-127272242Y-96244791D01*
X-127308500Y-96427073D01*
X-131291389Y-96427073D01*
X-131290735Y-96305000D01*
X-131301769Y-96192966D01*
X-131334448Y-96085238D01*
X-131387516Y-95985955D01*
X-131458933Y-95898933D01*
X-131545955Y-95827516D01*
X-131645238Y-95774448D01*
X-131752966Y-95741769D01*
X-131865000Y-95730735D01*
X-132381625Y-95733500D01*
X-132524500Y-95876375D01*
X-132905500Y-95876375D01*
X-133048375Y-95733500D01*
X-133565000Y-95730735D01*
X-133677034Y-95741769D01*
X-133784762Y-95774448D01*
X-133884045Y-95827516D01*
X-133971067Y-95898933D01*
X-134042484Y-95985955D01*
X-134095552Y-96085238D01*
X-134128231Y-96192966D01*
X-134139265Y-96305000D01*
X-135039500Y-96305000D01*
X-135039500Y-94512224D01*
X-133758500Y-94512224D01*
X-133758500Y-94717776D01*
X-133718399Y-94919378D01*
X-133639738Y-95109283D01*
X-133525539Y-95280192D01*
X-133380192Y-95425539D01*
X-133209283Y-95539738D01*
X-133019378Y-95618399D01*
X-132817776Y-95658500D01*
X-132612224Y-95658500D01*
X-132410622Y-95618399D01*
X-132220717Y-95539738D01*
X-132049808Y-95425539D01*
X-131904461Y-95280192D01*
X-131790262Y-95109283D01*
X-131711601Y-94919378D01*
X-131671500Y-94717776D01*
X-131671500Y-94512224D01*
X-131711601Y-94310622D01*
X-131790262Y-94120717D01*
X-131904461Y-93949808D01*
X-132049808Y-93804461D01*
X-132220717Y-93690262D01*
X-132410622Y-93611601D01*
X-132612224Y-93571500D01*
X-132817776Y-93571500D01*
X-133019378Y-93611601D01*
X-133209283Y-93690262D01*
X-133380192Y-93804461D01*
X-133525539Y-93949808D01*
X-133639738Y-94120717D01*
X-133718399Y-94310622D01*
X-133758500Y-94512224D01*
X-135039500Y-94512224D01*
X-135039500Y-91927300D01*
X-109678500Y-91927300D01*
X-109678500Y-92142700D01*
X-109636477Y-92353962D01*
X-109554047Y-92552966D01*
X-109434377Y-92732066D01*
X-109282066Y-92884377D01*
X-109102966Y-93004047D01*
X-108903962Y-93086477D01*
X-108874892Y-93092259D01*
X-109002533Y-93116556D01*
X-109271235Y-93225268D01*
X-109292750Y-93236768D01*
X-109385156Y-93465437D01*
X-108585000Y-94265592D01*
X-107784844Y-93465437D01*
X-107877250Y-93236768D01*
X-108144122Y-93123637D01*
X-108295225Y-93092283D01*
X-108266038Y-93086477D01*
X-108067034Y-93004047D01*
X-107887934Y-92884377D01*
X-107735623Y-92732066D01*
X-107615953Y-92552966D01*
X-107533523Y-92353962D01*
X-107491500Y-92142700D01*
X-107491500Y-91927300D01*
X-107533523Y-91716038D01*
X-107615953Y-91517034D01*
X-107735623Y-91337934D01*
X-107887934Y-91185623D01*
X-108067034Y-91065953D01*
X-108266038Y-90983523D01*
X-108477300Y-90941500D01*
X-108692700Y-90941500D01*
X-108903962Y-90983523D01*
X-109102966Y-91065953D01*
X-109282066Y-91185623D01*
X-109434377Y-91337934D01*
X-109554047Y-91517034D01*
X-109636477Y-91716038D01*
X-109678500Y-91927300D01*
X-135039500Y-91927300D01*
X-135039500Y-90427073D01*
X-127308500Y-90427073D01*
X-127308500Y-90612927D01*
X-127272242Y-90795209D01*
X-127201119Y-90966915D01*
X-127097864Y-91121446D01*
X-126966446Y-91252864D01*
X-126811915Y-91356119D01*
X-126640209Y-91427242D01*
X-126457927Y-91463500D01*
X-126272073Y-91463500D01*
X-126089791Y-91427242D01*
X-125918085Y-91356119D01*
X-125763554Y-91252864D01*
X-125632136Y-91121446D01*
X-125528881Y-90966915D01*
X-125457758Y-90795209D01*
X-125421500Y-90612927D01*
X-125421500Y-90427073D01*
X-125457758Y-90244791D01*
X-125528881Y-90073085D01*
X-125632136Y-89918554D01*
X-125763554Y-89787136D01*
X-125918085Y-89683881D01*
X-126089791Y-89612758D01*
X-126272073Y-89576500D01*
X-126457927Y-89576500D01*
X-126640209Y-89612758D01*
X-126811915Y-89683881D01*
X-126966446Y-89787136D01*
X-127097864Y-89918554D01*
X-127201119Y-90073085D01*
X-127272242Y-90244791D01*
X-127308500Y-90427073D01*
X-135039500Y-90427073D01*
X-135039500Y-88853857D01*
X-130643500Y-88853857D01*
X-130643500Y-88946143D01*
X-130625496Y-89036656D01*
X-130590179Y-89121918D01*
X-130538908Y-89198651D01*
X-130473651Y-89263908D01*
X-130396918Y-89315179D01*
X-130311656Y-89350496D01*
X-130221143Y-89368500D01*
X-130128857Y-89368500D01*
X-130038344Y-89350496D01*
X-129953082Y-89315179D01*
X-129876349Y-89263908D01*
X-129811092Y-89198651D01*
X-129759821Y-89121918D01*
X-129724504Y-89036656D01*
X-129706500Y-88946143D01*
X-129706500Y-88853857D01*
X-129724504Y-88763344D01*
X-129759821Y-88678082D01*
X-129811092Y-88601349D01*
X-129876349Y-88536092D01*
X-129953082Y-88484821D01*
X-130038344Y-88449504D01*
X-130128857Y-88431500D01*
X-130221143Y-88431500D01*
X-130311656Y-88449504D01*
X-130396918Y-88484821D01*
X-130473651Y-88536092D01*
X-130538908Y-88601349D01*
X-130590179Y-88678082D01*
X-130625496Y-88763344D01*
X-130643500Y-88853857D01*
X-135039500Y-88853857D01*
X-135039500Y-87068959D01*
X-118278500Y-87068959D01*
X-118278500Y-87501041D01*
X-118194205Y-87924820D01*
X-118028854Y-88324012D01*
X-117788802Y-88683274D01*
X-117483274Y-88988802D01*
X-117124012Y-89228854D01*
X-116724820Y-89394205D01*
X-116301041Y-89478500D01*
X-115868959Y-89478500D01*
X-115611560Y-89427300D01*
X-109678500Y-89427300D01*
X-109678500Y-89642700D01*
X-109636477Y-89853962D01*
X-109554047Y-90052966D01*
X-109434377Y-90232066D01*
X-109282066Y-90384377D01*
X-109102966Y-90504047D01*
X-108903962Y-90586477D01*
X-108692700Y-90628500D01*
X-108477300Y-90628500D01*
X-108266038Y-90586477D01*
X-108067034Y-90504047D01*
X-107887934Y-90384377D01*
X-107735623Y-90232066D01*
X-107615953Y-90052966D01*
X-107533523Y-89853962D01*
X-107491500Y-89642700D01*
X-107491500Y-89427300D01*
X-107533523Y-89216038D01*
X-107615953Y-89017034D01*
X-107735623Y-88837934D01*
X-107887934Y-88685623D01*
X-108067034Y-88565953D01*
X-108266038Y-88483523D01*
X-108477300Y-88441500D01*
X-108692700Y-88441500D01*
X-108903962Y-88483523D01*
X-109102966Y-88565953D01*
X-109282066Y-88685623D01*
X-109434377Y-88837934D01*
X-109554047Y-89017034D01*
X-109636477Y-89216038D01*
X-109678500Y-89427300D01*
X-115611560Y-89427300D01*
X-115445180Y-89394205D01*
X-115045988Y-89228854D01*
X-114686726Y-88988802D01*
X-114381198Y-88683274D01*
X-114141146Y-88324012D01*
X-113975795Y-87924820D01*
X-113891500Y-87501041D01*
X-113891500Y-87068959D01*
X-113975795Y-86645180D01*
X-114141146Y-86245988D01*
X-114381198Y-85886726D01*
X-114686726Y-85581198D01*
X-115045988Y-85341146D01*
X-115445180Y-85175795D01*
X-115868959Y-85091500D01*
X-116301041Y-85091500D01*
X-116724820Y-85175795D01*
X-117124012Y-85341146D01*
X-117483274Y-85581198D01*
X-117788802Y-85886726D01*
X-118028854Y-86245988D01*
X-118194205Y-86645180D01*
X-118278500Y-87068959D01*
X-135039500Y-87068959D01*
X-135039500Y-81233857D01*
X-130643500Y-81233857D01*
X-130643500Y-81326143D01*
X-130625496Y-81416656D01*
X-130590179Y-81501918D01*
X-130538908Y-81578651D01*
X-130473651Y-81643908D01*
X-130396918Y-81695179D01*
X-130311656Y-81730496D01*
X-130221143Y-81748500D01*
X-130128857Y-81748500D01*
X-130038344Y-81730496D01*
X-129953082Y-81695179D01*
X-129876349Y-81643908D01*
X-129811092Y-81578651D01*
X-129759821Y-81501918D01*
X-129724504Y-81416656D01*
X-129706500Y-81326143D01*
X-129706500Y-81233857D01*
X-129724504Y-81143344D01*
X-129759821Y-81058082D01*
X-129811092Y-80981349D01*
X-129876349Y-80916092D01*
X-129953082Y-80864821D01*
X-130038344Y-80829504D01*
X-130128857Y-80811500D01*
X-130221143Y-80811500D01*
X-130311656Y-80829504D01*
X-130396918Y-80864821D01*
X-130473651Y-80916092D01*
X-130538908Y-80981349D01*
X-130590179Y-81058082D01*
X-130625496Y-81143344D01*
X-130643500Y-81233857D01*
X-135039500Y-81233857D01*
X-135039500Y-77423857D01*
X-128103500Y-77423857D01*
X-128103500Y-77516143D01*
X-128085496Y-77606656D01*
X-128050179Y-77691918D01*
X-127998908Y-77768651D01*
X-127933651Y-77833908D01*
X-127856918Y-77885179D01*
X-127771656Y-77920496D01*
X-127681143Y-77938500D01*
X-127588857Y-77938500D01*
X-127498344Y-77920496D01*
X-127413082Y-77885179D01*
X-127336349Y-77833908D01*
X-127271092Y-77768651D01*
X-127219821Y-77691918D01*
X-127184504Y-77606656D01*
X-127166500Y-77516143D01*
X-127166500Y-77423857D01*
X-124293500Y-77423857D01*
X-124293500Y-77516143D01*
X-124275496Y-77606656D01*
X-124240179Y-77691918D01*
X-124188908Y-77768651D01*
X-124123651Y-77833908D01*
X-124046918Y-77885179D01*
X-123961656Y-77920496D01*
X-123871143Y-77938500D01*
X-123778857Y-77938500D01*
X-123688344Y-77920496D01*
X-123603082Y-77885179D01*
X-123526349Y-77833908D01*
X-123461092Y-77768651D01*
X-123409821Y-77691918D01*
X-123374504Y-77606656D01*
X-123356500Y-77516143D01*
X-123356500Y-77423857D01*
X-123374504Y-77333344D01*
X-123398671Y-77275000D01*
X-120174436Y-77275000D01*
X-120174436Y-78475000D01*
X-120170700Y-78512933D01*
X-120159635Y-78549407D01*
X-120141668Y-78583023D01*
X-120117487Y-78612487D01*
X-120088023Y-78636668D01*
X-120054407Y-78654635D01*
X-120017933Y-78665700D01*
X-119980000Y-78669436D01*
X-119750132Y-78669436D01*
X-119755863Y-78671810D01*
X-119885827Y-78758649D01*
X-119996351Y-78869173D01*
X-120083190Y-78999137D01*
X-120143006Y-79143545D01*
X-120173500Y-79296847D01*
X-120173500Y-79453153D01*
X-120143006Y-79606455D01*
X-120083190Y-79750863D01*
X-119996351Y-79880827D01*
X-119885827Y-79991351D01*
X-119755863Y-80078190D01*
X-119611455Y-80138006D01*
X-119458153Y-80168500D01*
X-119301847Y-80168500D01*
X-119148545Y-80138006D01*
X-119004137Y-80078190D01*
X-118874173Y-79991351D01*
X-118763649Y-79880827D01*
X-118676810Y-79750863D01*
X-118616994Y-79606455D01*
X-118586500Y-79453153D01*
X-118586500Y-79296847D01*
X-118616994Y-79143545D01*
X-118676810Y-78999137D01*
X-118763649Y-78869173D01*
X-118874173Y-78758649D01*
X-119004137Y-78671810D01*
X-119009868Y-78669436D01*
X-118780000Y-78669436D01*
X-118742067Y-78665700D01*
X-118705593Y-78654635D01*
X-118671977Y-78636668D01*
X-118642513Y-78612487D01*
X-118618332Y-78583023D01*
X-118600365Y-78549407D01*
X-118589300Y-78512933D01*
X-118585564Y-78475000D01*
X-118585564Y-77275000D01*
X-112554436Y-77275000D01*
X-112554436Y-78475000D01*
X-112550700Y-78512933D01*
X-112539635Y-78549407D01*
X-112521668Y-78583023D01*
X-112497487Y-78612487D01*
X-112468023Y-78636668D01*
X-112434407Y-78654635D01*
X-112397933Y-78665700D01*
X-112360000Y-78669436D01*
X-112130132Y-78669436D01*
X-112135863Y-78671810D01*
X-112265827Y-78758649D01*
X-112376351Y-78869173D01*
X-112463190Y-78999137D01*
X-112523006Y-79143545D01*
X-112553500Y-79296847D01*
X-112553500Y-79453153D01*
X-112523006Y-79606455D01*
X-112463190Y-79750863D01*
X-112376351Y-79880827D01*
X-112265827Y-79991351D01*
X-112135863Y-80078190D01*
X-111991455Y-80138006D01*
X-111838153Y-80168500D01*
X-111681847Y-80168500D01*
X-111528545Y-80138006D01*
X-111384137Y-80078190D01*
X-111254173Y-79991351D01*
X-111143649Y-79880827D01*
X-111056810Y-79750863D01*
X-110996994Y-79606455D01*
X-110966500Y-79453153D01*
X-110966500Y-79296847D01*
X-110996994Y-79143545D01*
X-111056810Y-78999137D01*
X-111143649Y-78869173D01*
X-111254173Y-78758649D01*
X-111384137Y-78671810D01*
X-111389868Y-78669436D01*
X-111160000Y-78669436D01*
X-111122067Y-78665700D01*
X-111085593Y-78654635D01*
X-111051977Y-78636668D01*
X-111022513Y-78612487D01*
X-110998332Y-78583023D01*
X-110980365Y-78549407D01*
X-110969300Y-78512933D01*
X-110965564Y-78475000D01*
X-110965564Y-77275000D01*
X-110969300Y-77237067D01*
X-110980365Y-77200593D01*
X-110998332Y-77166977D01*
X-111022513Y-77137513D01*
X-111051977Y-77113332D01*
X-111085593Y-77095365D01*
X-111122067Y-77084300D01*
X-111160000Y-77080564D01*
X-112360000Y-77080564D01*
X-112397933Y-77084300D01*
X-112434407Y-77095365D01*
X-112468023Y-77113332D01*
X-112497487Y-77137513D01*
X-112521668Y-77166977D01*
X-112539635Y-77200593D01*
X-112550700Y-77237067D01*
X-112554436Y-77275000D01*
X-118585564Y-77275000D01*
X-118589300Y-77237067D01*
X-118600365Y-77200593D01*
X-118618332Y-77166977D01*
X-118642513Y-77137513D01*
X-118671977Y-77113332D01*
X-118705593Y-77095365D01*
X-118742067Y-77084300D01*
X-118780000Y-77080564D01*
X-119980000Y-77080564D01*
X-120017933Y-77084300D01*
X-120054407Y-77095365D01*
X-120088023Y-77113332D01*
X-120117487Y-77137513D01*
X-120141668Y-77166977D01*
X-120159635Y-77200593D01*
X-120170700Y-77237067D01*
X-120174436Y-77275000D01*
X-123398671Y-77275000D01*
X-123409821Y-77248082D01*
X-123461092Y-77171349D01*
X-123526349Y-77106092D01*
X-123603082Y-77054821D01*
X-123688344Y-77019504D01*
X-123778857Y-77001500D01*
X-123871143Y-77001500D01*
X-123961656Y-77019504D01*
X-124046918Y-77054821D01*
X-124123651Y-77106092D01*
X-124188908Y-77171349D01*
X-124240179Y-77248082D01*
X-124275496Y-77333344D01*
X-124293500Y-77423857D01*
X-127166500Y-77423857D01*
X-127184504Y-77333344D01*
X-127219821Y-77248082D01*
X-127271092Y-77171349D01*
X-127336349Y-77106092D01*
X-127413082Y-77054821D01*
X-127498344Y-77019504D01*
X-127588857Y-77001500D01*
X-127681143Y-77001500D01*
X-127771656Y-77019504D01*
X-127856918Y-77054821D01*
X-127933651Y-77106092D01*
X-127998908Y-77171349D01*
X-128050179Y-77248082D01*
X-128085496Y-77333344D01*
X-128103500Y-77423857D01*
X-135039500Y-77423857D01*
X-135039500Y-74883857D01*
X-132548500Y-74883857D01*
X-132548500Y-74976143D01*
X-132530496Y-75066656D01*
X-132495179Y-75151918D01*
X-132443908Y-75228651D01*
X-132378651Y-75293908D01*
X-132301918Y-75345179D01*
X-132216656Y-75380496D01*
X-132126143Y-75398500D01*
X-132033857Y-75398500D01*
X-131943344Y-75380496D01*
X-131858082Y-75345179D01*
X-131781349Y-75293908D01*
X-131739994Y-75252553D01*
X-131698638Y-75293908D01*
X-131621905Y-75345179D01*
X-131536643Y-75380496D01*
X-131446130Y-75398500D01*
X-131353844Y-75398500D01*
X-131263331Y-75380496D01*
X-131178069Y-75345179D01*
X-131101336Y-75293908D01*
X-131036079Y-75228651D01*
X-130984808Y-75151918D01*
X-130949491Y-75066656D01*
X-130931487Y-74976143D01*
X-130931487Y-74883857D01*
X-123658500Y-74883857D01*
X-123658500Y-74976143D01*
X-123640496Y-75066656D01*
X-123605179Y-75151918D01*
X-123553908Y-75228651D01*
X-123488651Y-75293908D01*
X-123411918Y-75345179D01*
X-123326656Y-75380496D01*
X-123236143Y-75398500D01*
X-123143857Y-75398500D01*
X-123053344Y-75380496D01*
X-122968082Y-75345179D01*
X-122891349Y-75293908D01*
X-122826092Y-75228651D01*
X-122774821Y-75151918D01*
X-122739504Y-75066656D01*
X-122721500Y-74976143D01*
X-122721500Y-74883857D01*
X-122739504Y-74793344D01*
X-122774821Y-74708082D01*
X-122826092Y-74631349D01*
X-122891349Y-74566092D01*
X-122968082Y-74514821D01*
X-123053344Y-74479504D01*
X-123143857Y-74461500D01*
X-123236143Y-74461500D01*
X-123326656Y-74479504D01*
X-123411918Y-74514821D01*
X-123488651Y-74566092D01*
X-123553908Y-74631349D01*
X-123605179Y-74708082D01*
X-123640496Y-74793344D01*
X-123658500Y-74883857D01*
X-130931487Y-74883857D01*
X-130949491Y-74793344D01*
X-130984808Y-74708082D01*
X-131036079Y-74631349D01*
X-131101336Y-74566092D01*
X-131178069Y-74514821D01*
X-131263331Y-74479504D01*
X-131353844Y-74461500D01*
X-131446130Y-74461500D01*
X-131536643Y-74479504D01*
X-131621905Y-74514821D01*
X-131698638Y-74566092D01*
X-131739994Y-74607448D01*
X-131781349Y-74566092D01*
X-131858082Y-74514821D01*
X-131943344Y-74479504D01*
X-132033857Y-74461500D01*
X-132126143Y-74461500D01*
X-132216656Y-74479504D01*
X-132301918Y-74514821D01*
X-132378651Y-74566092D01*
X-132443908Y-74631349D01*
X-132495179Y-74708082D01*
X-132530496Y-74793344D01*
X-132548500Y-74883857D01*
X-135039500Y-74883857D01*
X-135039500Y-72331545D01*
X-123148500Y-72331545D01*
X-123148500Y-72448455D01*
X-123125692Y-72563118D01*
X-123080953Y-72671128D01*
X-123016002Y-72768334D01*
X-122933334Y-72851002D01*
X-122836128Y-72915953D01*
X-122728118Y-72960692D01*
X-122613455Y-72983500D01*
X-122496545Y-72983500D01*
X-122381882Y-72960692D01*
X-122273872Y-72915953D01*
X-122176666Y-72851002D01*
X-122093998Y-72768334D01*
X-122029047Y-72671128D01*
X-121984308Y-72563118D01*
X-121961500Y-72448455D01*
X-121961500Y-72331545D01*
X-116798500Y-72331545D01*
X-116798500Y-72448455D01*
X-116775692Y-72563118D01*
X-116730953Y-72671128D01*
X-116666002Y-72768334D01*
X-116583334Y-72851002D01*
X-116486128Y-72915953D01*
X-116378118Y-72960692D01*
X-116263455Y-72983500D01*
X-116146545Y-72983500D01*
X-116031882Y-72960692D01*
X-115923872Y-72915953D01*
X-115826666Y-72851002D01*
X-115743998Y-72768334D01*
X-115679047Y-72671128D01*
X-115634308Y-72563118D01*
X-115611500Y-72448455D01*
X-115611500Y-72331545D01*
X-115634308Y-72216882D01*
X-115679047Y-72108872D01*
X-115743998Y-72011666D01*
X-115826666Y-71928998D01*
X-115923872Y-71864047D01*
X-116031882Y-71819308D01*
X-116146545Y-71796500D01*
X-116263455Y-71796500D01*
X-116378118Y-71819308D01*
X-116486128Y-71864047D01*
X-116583334Y-71928998D01*
X-116666002Y-72011666D01*
X-116730953Y-72108872D01*
X-116775692Y-72216882D01*
X-116798500Y-72331545D01*
X-121961500Y-72331545D01*
X-121984308Y-72216882D01*
X-122029047Y-72108872D01*
X-122093998Y-72011666D01*
X-122176666Y-71928998D01*
X-122273872Y-71864047D01*
X-122381882Y-71819308D01*
X-122496545Y-71796500D01*
X-122613455Y-71796500D01*
X-122728118Y-71819308D01*
X-122836128Y-71864047D01*
X-122933334Y-71928998D01*
X-123016002Y-72011666D01*
X-123080953Y-72108872D01*
X-123125692Y-72216882D01*
X-123148500Y-72331545D01*
X-135039500Y-72331545D01*
X-135039500Y-71073857D01*
X-126833500Y-71073857D01*
X-126833500Y-71166143D01*
X-126815496Y-71256656D01*
X-126780179Y-71341918D01*
X-126728908Y-71418651D01*
X-126663651Y-71483908D01*
X-126586918Y-71535179D01*
X-126501656Y-71570496D01*
X-126411143Y-71588500D01*
X-126318857Y-71588500D01*
X-126228344Y-71570496D01*
X-126143082Y-71535179D01*
X-126066349Y-71483908D01*
X-126001092Y-71418651D01*
X-125949821Y-71341918D01*
X-125914504Y-71256656D01*
X-125896500Y-71166143D01*
X-125896500Y-71073857D01*
X-125914504Y-70983344D01*
X-125949821Y-70898082D01*
X-126001092Y-70821349D01*
X-126066349Y-70756092D01*
X-126143082Y-70704821D01*
X-126228344Y-70669504D01*
X-126318857Y-70651500D01*
X-126411143Y-70651500D01*
X-126501656Y-70669504D01*
X-126586918Y-70704821D01*
X-126663651Y-70756092D01*
X-126728908Y-70821349D01*
X-126780179Y-70898082D01*
X-126815496Y-70983344D01*
X-126833500Y-71073857D01*
X-135039500Y-71073857D01*
X-135039500Y-68533857D01*
X-116673500Y-68533857D01*
X-116673500Y-68626143D01*
X-116655496Y-68716656D01*
X-116620179Y-68801918D01*
X-116568908Y-68878651D01*
X-116503651Y-68943908D01*
X-116426918Y-68995179D01*
X-116341656Y-69030496D01*
X-116251143Y-69048500D01*
X-116158857Y-69048500D01*
X-116068344Y-69030496D01*
X-115983082Y-68995179D01*
X-115906349Y-68943908D01*
X-115841092Y-68878651D01*
X-115789821Y-68801918D01*
X-115754504Y-68716656D01*
X-115736500Y-68626143D01*
X-115736500Y-68533857D01*
X-115754504Y-68443344D01*
X-115789821Y-68358082D01*
X-115841092Y-68281349D01*
X-115906349Y-68216092D01*
X-115983082Y-68164821D01*
X-116068344Y-68129504D01*
X-116158857Y-68111500D01*
X-116251143Y-68111500D01*
X-116341656Y-68129504D01*
X-116426918Y-68164821D01*
X-116503651Y-68216092D01*
X-116568908Y-68281349D01*
X-116620179Y-68358082D01*
X-116655496Y-68443344D01*
X-116673500Y-68533857D01*
X-135039500Y-68533857D01*
X-135039500Y-65346545D01*
X-132038500Y-65346545D01*
X-132038500Y-65463455D01*
X-132015692Y-65578118D01*
X-131970953Y-65686128D01*
X-131906002Y-65783334D01*
X-131823334Y-65866002D01*
X-131726128Y-65930953D01*
X-131618118Y-65975692D01*
X-131503455Y-65998500D01*
X-131386545Y-65998500D01*
X-131271882Y-65975692D01*
X-131163872Y-65930953D01*
X-131066666Y-65866002D01*
X-130983998Y-65783334D01*
X-130919047Y-65686128D01*
X-130874308Y-65578118D01*
X-130851500Y-65463455D01*
X-130851500Y-65346545D01*
X-114893500Y-65346545D01*
X-114893500Y-65463455D01*
X-114870692Y-65578118D01*
X-114825953Y-65686128D01*
X-114761002Y-65783334D01*
X-114678334Y-65866002D01*
X-114581128Y-65930953D01*
X-114473118Y-65975692D01*
X-114358455Y-65998500D01*
X-114241545Y-65998500D01*
X-114126882Y-65975692D01*
X-114018872Y-65930953D01*
X-113921666Y-65866002D01*
X-113838998Y-65783334D01*
X-113774047Y-65686128D01*
X-113729308Y-65578118D01*
X-113706500Y-65463455D01*
X-113706500Y-65346545D01*
X-113729308Y-65231882D01*
X-113774047Y-65123872D01*
X-113838998Y-65026666D01*
X-113921666Y-64943998D01*
X-114018872Y-64879047D01*
X-114126882Y-64834308D01*
X-114241545Y-64811500D01*
X-114358455Y-64811500D01*
X-114473118Y-64834308D01*
X-114581128Y-64879047D01*
X-114678334Y-64943998D01*
X-114761002Y-65026666D01*
X-114825953Y-65123872D01*
X-114870692Y-65231882D01*
X-114893500Y-65346545D01*
X-130851500Y-65346545D01*
X-130874308Y-65231882D01*
X-130919047Y-65123872D01*
X-130983998Y-65026666D01*
X-131066666Y-64943998D01*
X-131163872Y-64879047D01*
X-131271882Y-64834308D01*
X-131386545Y-64811500D01*
X-131503455Y-64811500D01*
X-131618118Y-64834308D01*
X-131726128Y-64879047D01*
X-131823334Y-64943998D01*
X-131906002Y-65026666D01*
X-131970953Y-65123872D01*
X-132015692Y-65231882D01*
X-132038500Y-65346545D01*
X-135039500Y-65346545D01*
X-135039500Y-55821545D01*
X-123783500Y-55821545D01*
X-123783500Y-55938455D01*
X-123760692Y-56053118D01*
X-123715953Y-56161128D01*
X-123651002Y-56258334D01*
X-123568334Y-56341002D01*
X-123471128Y-56405953D01*
X-123363118Y-56450692D01*
X-123248455Y-56473500D01*
X-123131545Y-56473500D01*
X-123016882Y-56450692D01*
X-122908872Y-56405953D01*
X-122811666Y-56341002D01*
X-122728998Y-56258334D01*
X-122664047Y-56161128D01*
X-122619308Y-56053118D01*
X-122596500Y-55938455D01*
X-122596500Y-55821545D01*
X-122619308Y-55706882D01*
X-122664047Y-55598872D01*
X-122728998Y-55501666D01*
X-122811666Y-55418998D01*
X-122908872Y-55354047D01*
X-123016882Y-55309308D01*
X-123131545Y-55286500D01*
X-123248455Y-55286500D01*
X-123363118Y-55309308D01*
X-123471128Y-55354047D01*
X-123568334Y-55418998D01*
X-123651002Y-55501666D01*
X-123715953Y-55598872D01*
X-123760692Y-55706882D01*
X-123783500Y-55821545D01*
X-135039500Y-55821545D01*
X-135039500Y-53281545D01*
X-115378448Y-53281545D01*
X-115378448Y-53398455D01*
X-115355640Y-53513118D01*
X-115310901Y-53621128D01*
X-115245950Y-53718334D01*
X-115163282Y-53801002D01*
X-115066076Y-53865953D01*
X-114958066Y-53910692D01*
X-114843403Y-53933500D01*
X-114726493Y-53933500D01*
X-114611830Y-53910692D01*
X-114503820Y-53865953D01*
X-114406614Y-53801002D01*
X-114323946Y-53718334D01*
X-114258995Y-53621128D01*
X-114214256Y-53513118D01*
X-114191448Y-53398455D01*
X-114191448Y-53281545D01*
X-114214256Y-53166882D01*
X-114258995Y-53058872D01*
X-114323946Y-52961666D01*
X-114406614Y-52878998D01*
X-114503820Y-52814047D01*
X-114611830Y-52769308D01*
X-114726493Y-52746500D01*
X-114843403Y-52746500D01*
X-114958066Y-52769308D01*
X-115066076Y-52814047D01*
X-115163282Y-52878998D01*
X-115245950Y-52961666D01*
X-115310901Y-53058872D01*
X-115355640Y-53166882D01*
X-115378448Y-53281545D01*
X-135039500Y-53281545D01*
X-135039500Y-52133500D01*
X-132037496Y-52133500D01*
X-132015692Y-52243118D01*
X-131970953Y-52351128D01*
X-131906002Y-52448334D01*
X-131823334Y-52531002D01*
X-131726128Y-52595953D01*
X-131618118Y-52640692D01*
X-131503455Y-52663500D01*
X-131386545Y-52663500D01*
X-131271882Y-52640692D01*
X-131163872Y-52595953D01*
X-131066666Y-52531002D01*
X-130983998Y-52448334D01*
X-130919047Y-52351128D01*
X-130874308Y-52243118D01*
X-130852504Y-52133500D01*
X-123782496Y-52133500D01*
X-123760692Y-52243118D01*
X-123715953Y-52351128D01*
X-123651002Y-52448334D01*
X-123568334Y-52531002D01*
X-123471128Y-52595953D01*
X-123363118Y-52640692D01*
X-123248455Y-52663500D01*
X-123131545Y-52663500D01*
X-123046307Y-52646545D01*
X-110448500Y-52646545D01*
X-110448500Y-52763455D01*
X-110425692Y-52878118D01*
X-110380953Y-52986128D01*
X-110316002Y-53083334D01*
X-110233334Y-53166002D01*
X-110136128Y-53230953D01*
X-110028118Y-53275692D01*
X-109913455Y-53298500D01*
X-109796545Y-53298500D01*
X-109681882Y-53275692D01*
X-109573872Y-53230953D01*
X-109476666Y-53166002D01*
X-109393998Y-53083334D01*
X-109329047Y-52986128D01*
X-109284308Y-52878118D01*
X-109261500Y-52763455D01*
X-109261500Y-52646545D01*
X-109284308Y-52531882D01*
X-109329047Y-52423872D01*
X-109393998Y-52326666D01*
X-109476666Y-52243998D01*
X-109573872Y-52179047D01*
X-109681882Y-52134308D01*
X-109796545Y-52111500D01*
X-109913455Y-52111500D01*
X-110028118Y-52134308D01*
X-110136128Y-52179047D01*
X-110233334Y-52243998D01*
X-110316002Y-52326666D01*
X-110380953Y-52423872D01*
X-110425692Y-52531882D01*
X-110448500Y-52646545D01*
X-123046307Y-52646545D01*
X-123016882Y-52640692D01*
X-122908872Y-52595953D01*
X-122811666Y-52531002D01*
X-122728998Y-52448334D01*
X-122664047Y-52351128D01*
X-122619308Y-52243118D01*
X-122597504Y-52133500D01*
X-116205000Y-52133500D01*
X-116192612Y-52132280D01*
X-116180700Y-52128666D01*
X-116169721Y-52122798D01*
X-116160099Y-52114901D01*
X-116152202Y-52105279D01*
X-116146334Y-52094300D01*
X-116142720Y-52082388D01*
X-116141500Y-52070000D01*
X-116141500Y-48836545D01*
X-115528500Y-48836545D01*
X-115528500Y-48953455D01*
X-115505692Y-49068118D01*
X-115460953Y-49176128D01*
X-115396002Y-49273334D01*
X-115313334Y-49356002D01*
X-115216128Y-49420953D01*
X-115108118Y-49465692D01*
X-114993455Y-49488500D01*
X-114876545Y-49488500D01*
X-114761882Y-49465692D01*
X-114653872Y-49420953D01*
X-114556666Y-49356002D01*
X-114473998Y-49273334D01*
X-114409047Y-49176128D01*
X-114364308Y-49068118D01*
X-114341500Y-48953455D01*
X-114341500Y-48836545D01*
X-114364308Y-48721882D01*
X-114409047Y-48613872D01*
X-114473998Y-48516666D01*
X-114556666Y-48433998D01*
X-114653872Y-48369047D01*
X-114761882Y-48324308D01*
X-114876545Y-48301500D01*
X-114993455Y-48301500D01*
X-115108118Y-48324308D01*
X-115216128Y-48369047D01*
X-115313334Y-48433998D01*
X-115396002Y-48516666D01*
X-115460953Y-48613872D01*
X-115505692Y-48721882D01*
X-115528500Y-48836545D01*
X-116141500Y-48836545D01*
X-116141500Y-44450000D01*
X-116142720Y-44437612D01*
X-116146334Y-44425700D01*
X-116152202Y-44414721D01*
X-116160099Y-44405099D01*
X-116169721Y-44397202D01*
X-116180700Y-44391334D01*
X-116192612Y-44387720D01*
X-116205000Y-44386500D01*
X-129476500Y-44386500D01*
X-129476500Y-43121545D01*
X-109178500Y-43121545D01*
X-109178500Y-43238455D01*
X-109155692Y-43353118D01*
X-109110953Y-43461128D01*
X-109046002Y-43558334D01*
X-108963334Y-43641002D01*
X-108866128Y-43705953D01*
X-108758118Y-43750692D01*
X-108643455Y-43773500D01*
X-108526545Y-43773500D01*
X-108411882Y-43750692D01*
X-108303872Y-43705953D01*
X-108206666Y-43641002D01*
X-108123998Y-43558334D01*
X-108059047Y-43461128D01*
X-108014308Y-43353118D01*
X-107991500Y-43238455D01*
X-107991500Y-43121545D01*
X-108014308Y-43006882D01*
X-108059047Y-42898872D01*
X-108123998Y-42801666D01*
X-108206666Y-42718998D01*
X-108303872Y-42654047D01*
X-108411882Y-42609308D01*
X-108526545Y-42586500D01*
X-108643455Y-42586500D01*
X-108758118Y-42609308D01*
X-108866128Y-42654047D01*
X-108963334Y-42718998D01*
X-109046002Y-42801666D01*
X-109110953Y-42898872D01*
X-109155692Y-43006882D01*
X-109178500Y-43121545D01*
X-129476500Y-43121545D01*
X-129476500Y-41851545D01*
X-109178500Y-41851545D01*
X-109178500Y-41968455D01*
X-109155692Y-42083118D01*
X-109110953Y-42191128D01*
X-109046002Y-42288334D01*
X-108963334Y-42371002D01*
X-108866128Y-42435953D01*
X-108758118Y-42480692D01*
X-108643455Y-42503500D01*
X-108526545Y-42503500D01*
X-108411882Y-42480692D01*
X-108303872Y-42435953D01*
X-108206666Y-42371002D01*
X-108123998Y-42288334D01*
X-108059047Y-42191128D01*
X-108014308Y-42083118D01*
X-107991500Y-41968455D01*
X-107991500Y-41851545D01*
X-108014308Y-41736882D01*
X-108059047Y-41628872D01*
X-108123998Y-41531666D01*
X-108206666Y-41448998D01*
X-108303872Y-41384047D01*
X-108411882Y-41339308D01*
X-108526545Y-41316500D01*
X-108643455Y-41316500D01*
X-108758118Y-41339308D01*
X-108866128Y-41384047D01*
X-108963334Y-41448998D01*
X-109046002Y-41531666D01*
X-109110953Y-41628872D01*
X-109155692Y-41736882D01*
X-109178500Y-41851545D01*
X-129476500Y-41851545D01*
X-129476500Y-41232496D01*
X-129366882Y-41210692D01*
X-129258872Y-41165953D01*
X-129161666Y-41101002D01*
X-129078998Y-41018334D01*
X-129014047Y-40921128D01*
X-128969308Y-40813118D01*
X-128946500Y-40698455D01*
X-128946500Y-40581545D01*
X-128969308Y-40466882D01*
X-129014047Y-40358872D01*
X-129078998Y-40261666D01*
X-129161666Y-40178998D01*
X-129258872Y-40114047D01*
X-129366882Y-40069308D01*
X-129476500Y-40047504D01*
X-129476500Y-39962496D01*
X-129366882Y-39940692D01*
X-129258872Y-39895953D01*
X-129161666Y-39831002D01*
X-129078998Y-39748334D01*
X-129014047Y-39651128D01*
X-128969308Y-39543118D01*
X-128946500Y-39428455D01*
X-128946500Y-39311545D01*
X-128969308Y-39196882D01*
X-129014047Y-39088872D01*
X-129078998Y-38991666D01*
X-129161666Y-38908998D01*
X-129258872Y-38844047D01*
X-129366882Y-38799308D01*
X-129476500Y-38777504D01*
X-129476500Y-38688857D01*
X-125563500Y-38688857D01*
X-125563500Y-38781143D01*
X-125545496Y-38871656D01*
X-125510179Y-38956918D01*
X-125458908Y-39033651D01*
X-125393651Y-39098908D01*
X-125316918Y-39150179D01*
X-125231656Y-39185496D01*
X-125141143Y-39203500D01*
X-125048857Y-39203500D01*
X-124958344Y-39185496D01*
X-124873082Y-39150179D01*
X-124796349Y-39098908D01*
X-124731092Y-39033651D01*
X-124679821Y-38956918D01*
X-124644504Y-38871656D01*
X-124626500Y-38781143D01*
X-124626500Y-38688857D01*
X-124644504Y-38598344D01*
X-124679821Y-38513082D01*
X-124731092Y-38436349D01*
X-124796349Y-38371092D01*
X-124873082Y-38319821D01*
X-124958344Y-38284504D01*
X-125048857Y-38266500D01*
X-125141143Y-38266500D01*
X-125231656Y-38284504D01*
X-125316918Y-38319821D01*
X-125393651Y-38371092D01*
X-125458908Y-38436349D01*
X-125510179Y-38513082D01*
X-125545496Y-38598344D01*
X-125563500Y-38688857D01*
X-129476500Y-38688857D01*
X-129476500Y-38163500D01*
X-129301381Y-38163500D01*
X-129298222Y-38179382D01*
X-129262905Y-38264644D01*
X-129211634Y-38341377D01*
X-129146377Y-38406634D01*
X-129069644Y-38457905D01*
X-128984382Y-38493222D01*
X-128893869Y-38511226D01*
X-128801583Y-38511226D01*
X-128711070Y-38493222D01*
X-128625808Y-38457905D01*
X-128549075Y-38406634D01*
X-128483818Y-38341377D01*
X-128432547Y-38264644D01*
X-128397230Y-38179382D01*
X-128394071Y-38163500D01*
X-113665000Y-38163500D01*
X-113652612Y-38162280D01*
X-113640700Y-38158666D01*
X-113629721Y-38152798D01*
X-113620099Y-38144901D01*
X-113612202Y-38135279D01*
X-113606334Y-38124300D01*
X-113602720Y-38112388D01*
X-113601500Y-38100000D01*
X-113601500Y-37406545D01*
X-110448500Y-37406545D01*
X-110448500Y-37523455D01*
X-110425692Y-37638118D01*
X-110380953Y-37746128D01*
X-110316002Y-37843334D01*
X-110233334Y-37926002D01*
X-110136128Y-37990953D01*
X-110028118Y-38035692D01*
X-109913455Y-38058500D01*
X-109796545Y-38058500D01*
X-109681882Y-38035692D01*
X-109573872Y-37990953D01*
X-109476666Y-37926002D01*
X-109393998Y-37843334D01*
X-109329047Y-37746128D01*
X-109284308Y-37638118D01*
X-109261500Y-37523455D01*
X-109261500Y-37406545D01*
X-108543500Y-37406545D01*
X-108543500Y-37523455D01*
X-108520692Y-37638118D01*
X-108475953Y-37746128D01*
X-108411002Y-37843334D01*
X-108328334Y-37926002D01*
X-108231128Y-37990953D01*
X-108123118Y-38035692D01*
X-108008455Y-38058500D01*
X-107891545Y-38058500D01*
X-107776882Y-38035692D01*
X-107668872Y-37990953D01*
X-107571666Y-37926002D01*
X-107488998Y-37843334D01*
X-107424047Y-37746128D01*
X-107379308Y-37638118D01*
X-107356500Y-37523455D01*
X-107356500Y-37406545D01*
X-107379308Y-37291882D01*
X-107424047Y-37183872D01*
X-107488998Y-37086666D01*
X-107571666Y-37003998D01*
X-107668872Y-36939047D01*
X-107776882Y-36894308D01*
X-107891545Y-36871500D01*
X-108008455Y-36871500D01*
X-108123118Y-36894308D01*
X-108231128Y-36939047D01*
X-108328334Y-37003998D01*
X-108411002Y-37086666D01*
X-108475953Y-37183872D01*
X-108520692Y-37291882D01*
X-108543500Y-37406545D01*
X-109261500Y-37406545D01*
X-109284308Y-37291882D01*
X-109329047Y-37183872D01*
X-109393998Y-37086666D01*
X-109476666Y-37003998D01*
X-109573872Y-36939047D01*
X-109681882Y-36894308D01*
X-109796545Y-36871500D01*
X-109913455Y-36871500D01*
X-110028118Y-36894308D01*
X-110136128Y-36939047D01*
X-110233334Y-37003998D01*
X-110316002Y-37086666D01*
X-110380953Y-37183872D01*
X-110425692Y-37291882D01*
X-110448500Y-37406545D01*
X-113601500Y-37406545D01*
X-113601500Y-27305000D01*
X-113602720Y-27292612D01*
X-113606334Y-27280700D01*
X-113612202Y-27269721D01*
X-113620099Y-27260099D01*
X-113629721Y-27252202D01*
X-113640700Y-27246334D01*
X-113652612Y-27242720D01*
X-113665000Y-27241500D01*
X-120586500Y-27241500D01*
X-120586500Y-24870386D01*
X-120481566Y-25028465D01*
X-120285118Y-25226106D01*
X-120053887Y-25381624D01*
X-119796759Y-25489043D01*
X-119788520Y-25491533D01*
X-119570500Y-25394354D01*
X-119570500Y-24320500D01*
X-119189500Y-24320500D01*
X-119189500Y-25394354D01*
X-118971480Y-25491533D01*
X-118963241Y-25489043D01*
X-118706113Y-25381624D01*
X-118474882Y-25226106D01*
X-118278434Y-25028465D01*
X-118124319Y-24796296D01*
X-118018459Y-24538522D01*
X-118114190Y-24320500D01*
X-119189500Y-24320500D01*
X-119570500Y-24320500D01*
X-119590500Y-24320500D01*
X-119590500Y-23939500D01*
X-119570500Y-23939500D01*
X-119570500Y-23919500D01*
X-119189500Y-23919500D01*
X-119189500Y-23939500D01*
X-118114190Y-23939500D01*
X-118018459Y-23721478D01*
X-118085389Y-23558500D01*
X-117713143Y-23558500D01*
X-117764738Y-23635717D01*
X-117843399Y-23825622D01*
X-117883500Y-24027224D01*
X-117883500Y-24232776D01*
X-117843399Y-24434378D01*
X-117764738Y-24624283D01*
X-117650539Y-24795192D01*
X-117505192Y-24940539D01*
X-117334283Y-25054738D01*
X-117144378Y-25133399D01*
X-116942776Y-25173500D01*
X-116737224Y-25173500D01*
X-116535622Y-25133399D01*
X-116345717Y-25054738D01*
X-116174808Y-24940539D01*
X-116029461Y-24795192D01*
X-115915262Y-24624283D01*
X-115836601Y-24434378D01*
X-115796500Y-24232776D01*
X-115796500Y-24027224D01*
X-115343500Y-24027224D01*
X-115343500Y-24232776D01*
X-115303399Y-24434378D01*
X-115224738Y-24624283D01*
X-115110539Y-24795192D01*
X-114965192Y-24940539D01*
X-114794283Y-25054738D01*
X-114604378Y-25133399D01*
X-114402776Y-25173500D01*
X-114197224Y-25173500D01*
X-113995622Y-25133399D01*
X-113805717Y-25054738D01*
X-113634808Y-24940539D01*
X-113489461Y-24795192D01*
X-113375262Y-24624283D01*
X-113296601Y-24434378D01*
X-113256500Y-24232776D01*
X-113256500Y-24027224D01*
X-112803500Y-24027224D01*
X-112803500Y-24232776D01*
X-112763399Y-24434378D01*
X-112684738Y-24624283D01*
X-112570539Y-24795192D01*
X-112425192Y-24940539D01*
X-112254283Y-25054738D01*
X-112064378Y-25133399D01*
X-111862776Y-25173500D01*
X-111657224Y-25173500D01*
X-111455622Y-25133399D01*
X-111265717Y-25054738D01*
X-111094808Y-24940539D01*
X-110949461Y-24795192D01*
X-110835262Y-24624283D01*
X-110756601Y-24434378D01*
X-110716500Y-24232776D01*
X-110716500Y-24027224D01*
X-110263500Y-24027224D01*
X-110263500Y-24232776D01*
X-110223399Y-24434378D01*
X-110144738Y-24624283D01*
X-110030539Y-24795192D01*
X-109885192Y-24940539D01*
X-109714283Y-25054738D01*
X-109524378Y-25133399D01*
X-109322776Y-25173500D01*
X-109117224Y-25173500D01*
X-108915622Y-25133399D01*
X-108725717Y-25054738D01*
X-108554808Y-24940539D01*
X-108409461Y-24795192D01*
X-108295262Y-24624283D01*
X-108216601Y-24434378D01*
X-108176500Y-24232776D01*
X-108176500Y-24027224D01*
X-108216601Y-23825622D01*
X-108295262Y-23635717D01*
X-108409461Y-23464808D01*
X-108554808Y-23319461D01*
X-108725717Y-23205262D01*
X-108915622Y-23126601D01*
X-109117224Y-23086500D01*
X-109322776Y-23086500D01*
X-109524378Y-23126601D01*
X-109714283Y-23205262D01*
X-109885192Y-23319461D01*
X-110030539Y-23464808D01*
X-110144738Y-23635717D01*
X-110223399Y-23825622D01*
X-110263500Y-24027224D01*
X-110716500Y-24027224D01*
X-110756601Y-23825622D01*
X-110835262Y-23635717D01*
X-110949461Y-23464808D01*
X-111094808Y-23319461D01*
X-111265717Y-23205262D01*
X-111455622Y-23126601D01*
X-111657224Y-23086500D01*
X-111862776Y-23086500D01*
X-112064378Y-23126601D01*
X-112254283Y-23205262D01*
X-112425192Y-23319461D01*
X-112570539Y-23464808D01*
X-112684738Y-23635717D01*
X-112763399Y-23825622D01*
X-112803500Y-24027224D01*
X-113256500Y-24027224D01*
X-113296601Y-23825622D01*
X-113375262Y-23635717D01*
X-113489461Y-23464808D01*
X-113634808Y-23319461D01*
X-113805717Y-23205262D01*
X-113995622Y-23126601D01*
X-114197224Y-23086500D01*
X-114402776Y-23086500D01*
X-114604378Y-23126601D01*
X-114794283Y-23205262D01*
X-114965192Y-23319461D01*
X-115110539Y-23464808D01*
X-115224738Y-23635717D01*
X-115303399Y-23825622D01*
X-115343500Y-24027224D01*
X-115796500Y-24027224D01*
X-115836601Y-23825622D01*
X-115915262Y-23635717D01*
X-116029461Y-23464808D01*
X-116174808Y-23319461D01*
X-116345717Y-23205262D01*
X-116535622Y-23126601D01*
X-116737224Y-23086500D01*
X-116942776Y-23086500D01*
X-117144378Y-23126601D01*
X-117334283Y-23205262D01*
X-117411500Y-23256857D01*
X-117411500Y-22463143D01*
X-117334283Y-22514738D01*
X-117144378Y-22593399D01*
X-116942776Y-22633500D01*
X-116737224Y-22633500D01*
X-116535622Y-22593399D01*
X-116345717Y-22514738D01*
X-116174808Y-22400539D01*
X-116029461Y-22255192D01*
X-115915262Y-22084283D01*
X-115836601Y-21894378D01*
X-115796500Y-21692776D01*
X-115796500Y-21487224D01*
X-115343500Y-21487224D01*
X-115343500Y-21692776D01*
X-115303399Y-21894378D01*
X-115224738Y-22084283D01*
X-115110539Y-22255192D01*
X-114965192Y-22400539D01*
X-114794283Y-22514738D01*
X-114604378Y-22593399D01*
X-114402776Y-22633500D01*
X-114197224Y-22633500D01*
X-113995622Y-22593399D01*
X-113805717Y-22514738D01*
X-113634808Y-22400539D01*
X-113489461Y-22255192D01*
X-113375262Y-22084283D01*
X-113296601Y-21894378D01*
X-113256500Y-21692776D01*
X-113256500Y-21487224D01*
X-112803500Y-21487224D01*
X-112803500Y-21692776D01*
X-112763399Y-21894378D01*
X-112684738Y-22084283D01*
X-112570539Y-22255192D01*
X-112425192Y-22400539D01*
X-112254283Y-22514738D01*
X-112064378Y-22593399D01*
X-111862776Y-22633500D01*
X-111657224Y-22633500D01*
X-111455622Y-22593399D01*
X-111265717Y-22514738D01*
X-111094808Y-22400539D01*
X-110949461Y-22255192D01*
X-110835262Y-22084283D01*
X-110756601Y-21894378D01*
X-110716500Y-21692776D01*
X-110716500Y-21487224D01*
X-110756601Y-21285622D01*
X-110835262Y-21095717D01*
X-110949461Y-20924808D01*
X-111094808Y-20779461D01*
X-111153864Y-20740000D01*
X-110264436Y-20740000D01*
X-110264436Y-22440000D01*
X-110260700Y-22477933D01*
X-110249635Y-22514407D01*
X-110231668Y-22548023D01*
X-110207487Y-22577487D01*
X-110178023Y-22601668D01*
X-110144407Y-22619635D01*
X-110107933Y-22630700D01*
X-110070000Y-22634436D01*
X-108370000Y-22634436D01*
X-108332067Y-22630700D01*
X-108295593Y-22619635D01*
X-108261977Y-22601668D01*
X-108232513Y-22577487D01*
X-108208332Y-22548023D01*
X-108190365Y-22514407D01*
X-108179300Y-22477933D01*
X-108175564Y-22440000D01*
X-108175564Y-20740000D01*
X-108179300Y-20702067D01*
X-108190365Y-20665593D01*
X-108208332Y-20631977D01*
X-108232513Y-20602513D01*
X-108261977Y-20578332D01*
X-108295593Y-20560365D01*
X-108332067Y-20549300D01*
X-108370000Y-20545564D01*
X-110070000Y-20545564D01*
X-110107933Y-20549300D01*
X-110144407Y-20560365D01*
X-110178023Y-20578332D01*
X-110207487Y-20602513D01*
X-110231668Y-20631977D01*
X-110249635Y-20665593D01*
X-110260700Y-20702067D01*
X-110264436Y-20740000D01*
X-111153864Y-20740000D01*
X-111265717Y-20665262D01*
X-111455622Y-20586601D01*
X-111657224Y-20546500D01*
X-111862776Y-20546500D01*
X-112064378Y-20586601D01*
X-112254283Y-20665262D01*
X-112425192Y-20779461D01*
X-112570539Y-20924808D01*
X-112684738Y-21095717D01*
X-112763399Y-21285622D01*
X-112803500Y-21487224D01*
X-113256500Y-21487224D01*
X-113296601Y-21285622D01*
X-113375262Y-21095717D01*
X-113489461Y-20924808D01*
X-113634808Y-20779461D01*
X-113805717Y-20665262D01*
X-113995622Y-20586601D01*
X-114197224Y-20546500D01*
X-114402776Y-20546500D01*
X-114604378Y-20586601D01*
X-114794283Y-20665262D01*
X-114965192Y-20779461D01*
X-115110539Y-20924808D01*
X-115224738Y-21095717D01*
X-115303399Y-21285622D01*
X-115343500Y-21487224D01*
X-115796500Y-21487224D01*
X-115836601Y-21285622D01*
X-115915262Y-21095717D01*
X-116029461Y-20924808D01*
X-116174808Y-20779461D01*
X-116345717Y-20665262D01*
X-116535622Y-20586601D01*
X-116737224Y-20546500D01*
X-116942776Y-20546500D01*
X-117144378Y-20586601D01*
X-117334283Y-20665262D01*
X-117411500Y-20716857D01*
X-117411500Y-19265500D01*
X-106895499Y-19265500D01*
X-106895500Y-19695578D01*
%TO.N,GND*%
G36*
X-118173500Y-20849614D02*
G01*
X-118278434Y-20691535D01*
X-118474882Y-20493894D01*
X-118706113Y-20338376D01*
X-118963241Y-20230957D01*
X-118971480Y-20228467D01*
X-119189500Y-20325646D01*
X-119189500Y-21399500D01*
X-119169500Y-21399500D01*
X-119169500Y-21780500D01*
X-119189500Y-21780500D01*
X-119189500Y-21800500D01*
X-119570500Y-21800500D01*
X-119570500Y-21780500D01*
X-120645810Y-21780500D01*
X-120741541Y-21998522D01*
X-120635681Y-22256296D01*
X-120481566Y-22488465D01*
X-120285118Y-22686106D01*
X-120120979Y-22796500D01*
X-121285000Y-22796500D01*
X-121297388Y-22797720D01*
X-121309300Y-22801334D01*
X-121320279Y-22807202D01*
X-121329901Y-22815099D01*
X-121337798Y-22824721D01*
X-121343666Y-22835700D01*
X-121347280Y-22847612D01*
X-121348500Y-22860000D01*
X-121348500Y-23256857D01*
X-121425717Y-23205262D01*
X-121615622Y-23126601D01*
X-121817224Y-23086500D01*
X-122022776Y-23086500D01*
X-122224378Y-23126601D01*
X-122414283Y-23205262D01*
X-122585192Y-23319461D01*
X-122730539Y-23464808D01*
X-122844738Y-23635717D01*
X-122923399Y-23825622D01*
X-122963500Y-24027224D01*
X-122963500Y-24232776D01*
X-122923399Y-24434378D01*
X-122844738Y-24624283D01*
X-122730539Y-24795192D01*
X-122585192Y-24940539D01*
X-122414283Y-25054738D01*
X-122224378Y-25133399D01*
X-122022776Y-25173500D01*
X-121817224Y-25173500D01*
X-121615622Y-25133399D01*
X-121425717Y-25054738D01*
X-121348500Y-25003143D01*
X-121348500Y-27940000D01*
X-121347280Y-27952388D01*
X-121343666Y-27964300D01*
X-121337798Y-27975279D01*
X-121329901Y-27984901D01*
X-121320279Y-27992798D01*
X-121309300Y-27998666D01*
X-121297388Y-28002280D01*
X-121285000Y-28003500D01*
X-114363500Y-28003500D01*
X-114363500Y-37401500D01*
X-130175000Y-37401500D01*
X-130187388Y-37402720D01*
X-130199300Y-37406334D01*
X-130210279Y-37412202D01*
X-130219901Y-37420099D01*
X-130227798Y-37429721D01*
X-130233666Y-37440700D01*
X-130237280Y-37452612D01*
X-130238500Y-37465000D01*
X-130238500Y-44661944D01*
X-130260500Y-44772545D01*
X-130260500Y-44889455D01*
X-130238500Y-45000056D01*
X-130238500Y-45085000D01*
X-130237280Y-45097388D01*
X-130233666Y-45109300D01*
X-130227798Y-45120279D01*
X-130219901Y-45129901D01*
X-130210279Y-45137798D01*
X-130199300Y-45143666D01*
X-130187388Y-45147280D01*
X-130175000Y-45148500D01*
X-130168650Y-45148500D01*
X-130128002Y-45209334D01*
X-130045334Y-45292002D01*
X-129948128Y-45356953D01*
X-129840118Y-45401692D01*
X-129725455Y-45424500D01*
X-129608545Y-45424500D01*
X-129493882Y-45401692D01*
X-129385872Y-45356953D01*
X-129288666Y-45292002D01*
X-129205998Y-45209334D01*
X-129165350Y-45148500D01*
X-124326650Y-45148500D01*
X-124286002Y-45209334D01*
X-124203334Y-45292002D01*
X-124106128Y-45356953D01*
X-123998118Y-45401692D01*
X-123883455Y-45424500D01*
X-123766545Y-45424500D01*
X-123651882Y-45401692D01*
X-123543872Y-45356953D01*
X-123446666Y-45292002D01*
X-123363998Y-45209334D01*
X-123323350Y-45148500D01*
X-118230650Y-45148500D01*
X-118190002Y-45209334D01*
X-118147836Y-45251500D01*
X-118156143Y-45251500D01*
X-118246656Y-45269504D01*
X-118331918Y-45304821D01*
X-118408651Y-45356092D01*
X-118473908Y-45421349D01*
X-118525179Y-45498082D01*
X-118560496Y-45583344D01*
X-118578500Y-45673857D01*
X-118578500Y-45766143D01*
X-118560496Y-45856656D01*
X-118531075Y-45927685D01*
X-118613521Y-45893534D01*
X-118704034Y-45875530D01*
X-118796320Y-45875530D01*
X-118886833Y-45893534D01*
X-118972095Y-45928851D01*
X-119048828Y-45980122D01*
X-119114085Y-46045379D01*
X-119165356Y-46122112D01*
X-119200673Y-46207374D01*
X-119218677Y-46297887D01*
X-119218677Y-46390173D01*
X-119200673Y-46480686D01*
X-119165356Y-46565948D01*
X-119114085Y-46642681D01*
X-119048828Y-46707938D01*
X-118972095Y-46759209D01*
X-118886833Y-46794526D01*
X-118796320Y-46812530D01*
X-118704034Y-46812530D01*
X-118613521Y-46794526D01*
X-118528259Y-46759209D01*
X-118451526Y-46707938D01*
X-118386269Y-46642681D01*
X-118334998Y-46565948D01*
X-118299681Y-46480686D01*
X-118281677Y-46390173D01*
X-118281677Y-46297887D01*
X-118299681Y-46207374D01*
X-118329102Y-46136345D01*
X-118246656Y-46170496D01*
X-118156143Y-46188500D01*
X-118063857Y-46188500D01*
X-117973344Y-46170496D01*
X-117888082Y-46135179D01*
X-117811349Y-46083908D01*
X-117746092Y-46018651D01*
X-117694821Y-45941918D01*
X-117659504Y-45856656D01*
X-117641500Y-45766143D01*
X-117641500Y-45673857D01*
X-117659504Y-45583344D01*
X-117694821Y-45498082D01*
X-117743987Y-45424500D01*
X-117670545Y-45424500D01*
X-117555882Y-45401692D01*
X-117447872Y-45356953D01*
X-117350666Y-45292002D01*
X-117267998Y-45209334D01*
X-117227350Y-45148500D01*
X-116903500Y-45148500D01*
X-116903500Y-51371500D01*
X-121454952Y-51371500D01*
X-121469504Y-51298344D01*
X-121504821Y-51213082D01*
X-121556092Y-51136349D01*
X-121621349Y-51071092D01*
X-121698082Y-51019821D01*
X-121783344Y-50984504D01*
X-121873857Y-50966500D01*
X-121966143Y-50966500D01*
X-122056656Y-50984504D01*
X-122141918Y-51019821D01*
X-122218651Y-51071092D01*
X-122283908Y-51136349D01*
X-122335179Y-51213082D01*
X-122370496Y-51298344D01*
X-122385048Y-51371500D01*
X-129074952Y-51371500D01*
X-129089504Y-51298344D01*
X-129124821Y-51213082D01*
X-129176092Y-51136349D01*
X-129241349Y-51071092D01*
X-129318082Y-51019821D01*
X-129403344Y-50984504D01*
X-129493857Y-50966500D01*
X-129586143Y-50966500D01*
X-129676656Y-50984504D01*
X-129761918Y-51019821D01*
X-129838651Y-51071092D01*
X-129903908Y-51136349D01*
X-129955179Y-51213082D01*
X-129990496Y-51298344D01*
X-130005048Y-51371500D01*
X-135039500Y-51371500D01*
X-135039500Y-48455545D01*
X-134070500Y-48455545D01*
X-134070500Y-48572455D01*
X-134047692Y-48687118D01*
X-134002953Y-48795128D01*
X-133938002Y-48892334D01*
X-133855334Y-48975002D01*
X-133758128Y-49039953D01*
X-133650118Y-49084692D01*
X-133535455Y-49107500D01*
X-133418545Y-49107500D01*
X-133303882Y-49084692D01*
X-133195872Y-49039953D01*
X-133098666Y-48975002D01*
X-133015998Y-48892334D01*
X-132951047Y-48795128D01*
X-132906308Y-48687118D01*
X-132883500Y-48572455D01*
X-132883500Y-48455545D01*
X-132906308Y-48340882D01*
X-132951047Y-48232872D01*
X-133015998Y-48135666D01*
X-133098666Y-48052998D01*
X-133195872Y-47988047D01*
X-133303882Y-47943308D01*
X-133418545Y-47920500D01*
X-133535455Y-47920500D01*
X-133650118Y-47943308D01*
X-133758128Y-47988047D01*
X-133855334Y-48052998D01*
X-133938002Y-48135666D01*
X-134002953Y-48232872D01*
X-134047692Y-48340882D01*
X-134070500Y-48455545D01*
X-135039500Y-48455545D01*
X-135039500Y-46308857D01*
X-130008500Y-46308857D01*
X-130008500Y-46401143D01*
X-129990496Y-46491656D01*
X-129955179Y-46576918D01*
X-129903908Y-46653651D01*
X-129862553Y-46695007D01*
X-129903908Y-46736362D01*
X-129955179Y-46813095D01*
X-129990496Y-46898357D01*
X-130008500Y-46988870D01*
X-130008500Y-47081156D01*
X-129990496Y-47171669D01*
X-129955179Y-47256931D01*
X-129903908Y-47333664D01*
X-129838651Y-47398921D01*
X-129761918Y-47450192D01*
X-129676656Y-47485509D01*
X-129586143Y-47503513D01*
X-129493857Y-47503513D01*
X-129403344Y-47485509D01*
X-129318082Y-47450192D01*
X-129241349Y-47398921D01*
X-129176092Y-47333664D01*
X-129124821Y-47256931D01*
X-129089504Y-47171669D01*
X-129071500Y-47081156D01*
X-129071500Y-46988870D01*
X-129089504Y-46898357D01*
X-129124821Y-46813095D01*
X-129176092Y-46736362D01*
X-129217448Y-46695007D01*
X-129176092Y-46653651D01*
X-129124821Y-46576918D01*
X-129089504Y-46491656D01*
X-129071500Y-46401143D01*
X-129071500Y-46308857D01*
X-129073877Y-46296905D01*
X-126838918Y-46296905D01*
X-126838918Y-46389191D01*
X-126820914Y-46479704D01*
X-126785597Y-46564966D01*
X-126734326Y-46641699D01*
X-126669069Y-46706956D01*
X-126592336Y-46758227D01*
X-126507074Y-46793544D01*
X-126416561Y-46811548D01*
X-126324275Y-46811548D01*
X-126233762Y-46793544D01*
X-126148500Y-46758227D01*
X-126071767Y-46706956D01*
X-126063236Y-46698425D01*
X-126057471Y-46707053D01*
X-125992214Y-46772310D01*
X-125915481Y-46823581D01*
X-125830219Y-46858898D01*
X-125739706Y-46876902D01*
X-125647420Y-46876902D01*
X-125556907Y-46858898D01*
X-125545675Y-46854246D01*
X-125563500Y-46943857D01*
X-125563500Y-47036143D01*
X-125545496Y-47126656D01*
X-125510179Y-47211918D01*
X-125458908Y-47288651D01*
X-125393651Y-47353908D01*
X-125316918Y-47405179D01*
X-125231656Y-47440496D01*
X-125141143Y-47458500D01*
X-125048857Y-47458500D01*
X-124958344Y-47440496D01*
X-124873082Y-47405179D01*
X-124796349Y-47353908D01*
X-124731092Y-47288651D01*
X-124679821Y-47211918D01*
X-124644504Y-47126656D01*
X-124643949Y-47123865D01*
X-122388500Y-47123865D01*
X-122388500Y-47216151D01*
X-122370496Y-47306664D01*
X-122335179Y-47391926D01*
X-122283908Y-47468659D01*
X-122218651Y-47533916D01*
X-122141918Y-47585187D01*
X-122056656Y-47620504D01*
X-121966143Y-47638508D01*
X-121873857Y-47638508D01*
X-121783344Y-47620504D01*
X-121698082Y-47585187D01*
X-121621349Y-47533916D01*
X-121556092Y-47468659D01*
X-121504821Y-47391926D01*
X-121469504Y-47306664D01*
X-121451500Y-47216151D01*
X-121451500Y-47123865D01*
X-121469504Y-47033352D01*
X-121504821Y-46948090D01*
X-121556092Y-46871357D01*
X-121621349Y-46806100D01*
X-121698082Y-46754829D01*
X-121783344Y-46719512D01*
X-121873857Y-46701508D01*
X-121966143Y-46701508D01*
X-122056656Y-46719512D01*
X-122141918Y-46754829D01*
X-122218651Y-46806100D01*
X-122283908Y-46871357D01*
X-122335179Y-46948090D01*
X-122370496Y-47033352D01*
X-122388500Y-47123865D01*
X-124643949Y-47123865D01*
X-124626500Y-47036143D01*
X-124626500Y-46943857D01*
X-124644504Y-46853344D01*
X-124679821Y-46768082D01*
X-124731092Y-46691349D01*
X-124796349Y-46626092D01*
X-124844595Y-46593855D01*
X-121118500Y-46593855D01*
X-121118500Y-46686141D01*
X-121100496Y-46776654D01*
X-121065179Y-46861916D01*
X-121013908Y-46938649D01*
X-120948651Y-47003906D01*
X-120871918Y-47055177D01*
X-120786656Y-47090494D01*
X-120696143Y-47108498D01*
X-120603857Y-47108498D01*
X-120513344Y-47090494D01*
X-120428082Y-47055177D01*
X-120351349Y-47003906D01*
X-120286092Y-46938649D01*
X-120234821Y-46861916D01*
X-120199504Y-46776654D01*
X-120181500Y-46686141D01*
X-120181500Y-46593855D01*
X-120199504Y-46503342D01*
X-120234821Y-46418080D01*
X-120286092Y-46341347D01*
X-120351349Y-46276090D01*
X-120428082Y-46224819D01*
X-120513344Y-46189502D01*
X-120603857Y-46171498D01*
X-120696143Y-46171498D01*
X-120786656Y-46189502D01*
X-120871918Y-46224819D01*
X-120948651Y-46276090D01*
X-121013908Y-46341347D01*
X-121065179Y-46418080D01*
X-121100496Y-46503342D01*
X-121118500Y-46593855D01*
X-124844595Y-46593855D01*
X-124873082Y-46574821D01*
X-124958344Y-46539504D01*
X-125048857Y-46521500D01*
X-125141143Y-46521500D01*
X-125231656Y-46539504D01*
X-125242888Y-46544156D01*
X-125225063Y-46454545D01*
X-125225063Y-46362259D01*
X-125243067Y-46271746D01*
X-125278384Y-46186484D01*
X-125329655Y-46109751D01*
X-125394912Y-46044494D01*
X-125471645Y-45993223D01*
X-125556907Y-45957906D01*
X-125647420Y-45939902D01*
X-125739706Y-45939902D01*
X-125830219Y-45957906D01*
X-125915481Y-45993223D01*
X-125992214Y-46044494D01*
X-126000745Y-46053025D01*
X-126006510Y-46044397D01*
X-126071767Y-45979140D01*
X-126148500Y-45927869D01*
X-126233762Y-45892552D01*
X-126324275Y-45874548D01*
X-126416561Y-45874548D01*
X-126507074Y-45892552D01*
X-126592336Y-45927869D01*
X-126669069Y-45979140D01*
X-126734326Y-46044397D01*
X-126785597Y-46121130D01*
X-126820914Y-46206392D01*
X-126838918Y-46296905D01*
X-129073877Y-46296905D01*
X-129089504Y-46218344D01*
X-129124821Y-46133082D01*
X-129176092Y-46056349D01*
X-129241349Y-45991092D01*
X-129318082Y-45939821D01*
X-129403344Y-45904504D01*
X-129493857Y-45886500D01*
X-129586143Y-45886500D01*
X-129676656Y-45904504D01*
X-129761918Y-45939821D01*
X-129838651Y-45991092D01*
X-129903908Y-46056349D01*
X-129955179Y-46133082D01*
X-129990496Y-46218344D01*
X-130008500Y-46308857D01*
X-135039500Y-46308857D01*
X-135039500Y-45673857D01*
X-128103500Y-45673857D01*
X-128103500Y-45766143D01*
X-128085496Y-45856656D01*
X-128050179Y-45941918D01*
X-127998908Y-46018651D01*
X-127933651Y-46083908D01*
X-127856918Y-46135179D01*
X-127771656Y-46170496D01*
X-127681143Y-46188500D01*
X-127588857Y-46188500D01*
X-127498344Y-46170496D01*
X-127413082Y-46135179D01*
X-127336349Y-46083908D01*
X-127271092Y-46018651D01*
X-127219821Y-45941918D01*
X-127184504Y-45856656D01*
X-127166500Y-45766143D01*
X-127166500Y-45673857D01*
X-120483500Y-45673857D01*
X-120483500Y-45766143D01*
X-120465496Y-45856656D01*
X-120430179Y-45941918D01*
X-120378908Y-46018651D01*
X-120313651Y-46083908D01*
X-120236918Y-46135179D01*
X-120151656Y-46170496D01*
X-120061143Y-46188500D01*
X-119968857Y-46188500D01*
X-119878344Y-46170496D01*
X-119793082Y-46135179D01*
X-119716349Y-46083908D01*
X-119651092Y-46018651D01*
X-119599821Y-45941918D01*
X-119564504Y-45856656D01*
X-119546500Y-45766143D01*
X-119546500Y-45673857D01*
X-119564504Y-45583344D01*
X-119599821Y-45498082D01*
X-119651092Y-45421349D01*
X-119716349Y-45356092D01*
X-119793082Y-45304821D01*
X-119878344Y-45269504D01*
X-119968857Y-45251500D01*
X-120061143Y-45251500D01*
X-120151656Y-45269504D01*
X-120236918Y-45304821D01*
X-120313651Y-45356092D01*
X-120378908Y-45421349D01*
X-120430179Y-45498082D01*
X-120465496Y-45583344D01*
X-120483500Y-45673857D01*
X-127166500Y-45673857D01*
X-127184504Y-45583344D01*
X-127219821Y-45498082D01*
X-127271092Y-45421349D01*
X-127336349Y-45356092D01*
X-127413082Y-45304821D01*
X-127498344Y-45269504D01*
X-127588857Y-45251500D01*
X-127681143Y-45251500D01*
X-127771656Y-45269504D01*
X-127856918Y-45304821D01*
X-127933651Y-45356092D01*
X-127998908Y-45421349D01*
X-128050179Y-45498082D01*
X-128085496Y-45583344D01*
X-128103500Y-45673857D01*
X-135039500Y-45673857D01*
X-135039500Y-38688857D01*
X-131913500Y-38688857D01*
X-131913500Y-38781143D01*
X-131895496Y-38871656D01*
X-131860179Y-38956918D01*
X-131808908Y-39033651D01*
X-131743651Y-39098908D01*
X-131666918Y-39150179D01*
X-131581656Y-39185496D01*
X-131491143Y-39203500D01*
X-131398857Y-39203500D01*
X-131308344Y-39185496D01*
X-131223082Y-39150179D01*
X-131146349Y-39098908D01*
X-131081092Y-39033651D01*
X-131029821Y-38956918D01*
X-130994504Y-38871656D01*
X-130976500Y-38781143D01*
X-130976500Y-38688857D01*
X-130994504Y-38598344D01*
X-131029821Y-38513082D01*
X-131081092Y-38436349D01*
X-131146349Y-38371092D01*
X-131223082Y-38319821D01*
X-131308344Y-38284504D01*
X-131398857Y-38266500D01*
X-131491143Y-38266500D01*
X-131581656Y-38284504D01*
X-131666918Y-38319821D01*
X-131743651Y-38371092D01*
X-131808908Y-38436349D01*
X-131860179Y-38513082D01*
X-131895496Y-38598344D01*
X-131913500Y-38688857D01*
X-135039500Y-38688857D01*
X-135039500Y-32973857D01*
X-130643500Y-32973857D01*
X-130643500Y-33066143D01*
X-130625496Y-33156656D01*
X-130590179Y-33241918D01*
X-130538908Y-33318651D01*
X-130473651Y-33383908D01*
X-130396918Y-33435179D01*
X-130311656Y-33470496D01*
X-130221143Y-33488500D01*
X-130128857Y-33488500D01*
X-130038344Y-33470496D01*
X-129953082Y-33435179D01*
X-129876349Y-33383908D01*
X-129811092Y-33318651D01*
X-129759821Y-33241918D01*
X-129724504Y-33156656D01*
X-129706500Y-33066143D01*
X-129706500Y-32973857D01*
X-128103500Y-32973857D01*
X-128103500Y-33066143D01*
X-128085496Y-33156656D01*
X-128050179Y-33241918D01*
X-127998908Y-33318651D01*
X-127933651Y-33383908D01*
X-127856918Y-33435179D01*
X-127771656Y-33470496D01*
X-127681143Y-33488500D01*
X-127588857Y-33488500D01*
X-127498344Y-33470496D01*
X-127413082Y-33435179D01*
X-127336349Y-33383908D01*
X-127271092Y-33318651D01*
X-127219821Y-33241918D01*
X-127184504Y-33156656D01*
X-127166500Y-33066143D01*
X-127166500Y-32973857D01*
X-127184504Y-32883344D01*
X-127219821Y-32798082D01*
X-127271092Y-32721349D01*
X-127336349Y-32656092D01*
X-127413082Y-32604821D01*
X-127498344Y-32569504D01*
X-127588857Y-32551500D01*
X-127681143Y-32551500D01*
X-127771656Y-32569504D01*
X-127856918Y-32604821D01*
X-127933651Y-32656092D01*
X-127998908Y-32721349D01*
X-128050179Y-32798082D01*
X-128085496Y-32883344D01*
X-128103500Y-32973857D01*
X-129706500Y-32973857D01*
X-129724504Y-32883344D01*
X-129759821Y-32798082D01*
X-129811092Y-32721349D01*
X-129876349Y-32656092D01*
X-129953082Y-32604821D01*
X-130038344Y-32569504D01*
X-130128857Y-32551500D01*
X-130221143Y-32551500D01*
X-130311656Y-32569504D01*
X-130396918Y-32604821D01*
X-130473651Y-32656092D01*
X-130538908Y-32721349D01*
X-130590179Y-32798082D01*
X-130625496Y-32883344D01*
X-130643500Y-32973857D01*
X-135039500Y-32973857D01*
X-135039500Y-32338857D01*
X-129373500Y-32338857D01*
X-129373500Y-32431143D01*
X-129355496Y-32521656D01*
X-129320179Y-32606918D01*
X-129268908Y-32683651D01*
X-129203651Y-32748908D01*
X-129126918Y-32800179D01*
X-129041656Y-32835496D01*
X-128951143Y-32853500D01*
X-128858857Y-32853500D01*
X-128768344Y-32835496D01*
X-128683082Y-32800179D01*
X-128606349Y-32748908D01*
X-128541092Y-32683651D01*
X-128489821Y-32606918D01*
X-128454504Y-32521656D01*
X-128436500Y-32431143D01*
X-128436500Y-32338857D01*
X-128438948Y-32326545D01*
X-126958500Y-32326545D01*
X-126958500Y-32443455D01*
X-126935692Y-32558118D01*
X-126890953Y-32666128D01*
X-126826002Y-32763334D01*
X-126743334Y-32846002D01*
X-126646128Y-32910953D01*
X-126538118Y-32955692D01*
X-126423455Y-32978500D01*
X-126306545Y-32978500D01*
X-126191882Y-32955692D01*
X-126083872Y-32910953D01*
X-125986666Y-32846002D01*
X-125903998Y-32763334D01*
X-125839047Y-32666128D01*
X-125794308Y-32558118D01*
X-125771500Y-32443455D01*
X-125771500Y-32326545D01*
X-125794308Y-32211882D01*
X-125839047Y-32103872D01*
X-125903998Y-32006666D01*
X-125986666Y-31923998D01*
X-126083872Y-31859047D01*
X-126191882Y-31814308D01*
X-126306545Y-31791500D01*
X-126423455Y-31791500D01*
X-126538118Y-31814308D01*
X-126646128Y-31859047D01*
X-126743334Y-31923998D01*
X-126826002Y-32006666D01*
X-126890953Y-32103872D01*
X-126935692Y-32211882D01*
X-126958500Y-32326545D01*
X-128438948Y-32326545D01*
X-128454504Y-32248344D01*
X-128489821Y-32163082D01*
X-128541092Y-32086349D01*
X-128606349Y-32021092D01*
X-128683082Y-31969821D01*
X-128768344Y-31934504D01*
X-128858857Y-31916500D01*
X-128951143Y-31916500D01*
X-129041656Y-31934504D01*
X-129126918Y-31969821D01*
X-129203651Y-32021092D01*
X-129268908Y-32086349D01*
X-129320179Y-32163082D01*
X-129355496Y-32248344D01*
X-129373500Y-32338857D01*
X-135039500Y-32338857D01*
X-135039500Y-25353857D01*
X-127468500Y-25353857D01*
X-127468500Y-25446143D01*
X-127450496Y-25536656D01*
X-127415179Y-25621918D01*
X-127363908Y-25698651D01*
X-127298651Y-25763908D01*
X-127221918Y-25815179D01*
X-127136656Y-25850496D01*
X-127046143Y-25868500D01*
X-126953857Y-25868500D01*
X-126863344Y-25850496D01*
X-126778082Y-25815179D01*
X-126701349Y-25763908D01*
X-126636092Y-25698651D01*
X-126584821Y-25621918D01*
X-126549504Y-25536656D01*
X-126531500Y-25446143D01*
X-126531500Y-25353857D01*
X-126549504Y-25263344D01*
X-126584821Y-25178082D01*
X-126636092Y-25101349D01*
X-126701349Y-25036092D01*
X-126778082Y-24984821D01*
X-126863344Y-24949504D01*
X-126953857Y-24931500D01*
X-127046143Y-24931500D01*
X-127136656Y-24949504D01*
X-127221918Y-24984821D01*
X-127298651Y-25036092D01*
X-127363908Y-25101349D01*
X-127415179Y-25178082D01*
X-127450496Y-25263344D01*
X-127468500Y-25353857D01*
X-135039500Y-25353857D01*
X-135039500Y-24610087D01*
X-130765680Y-24610087D01*
X-130748290Y-24778477D01*
X-130584847Y-24830986D01*
X-130414301Y-24850600D01*
X-130243205Y-24836566D01*
X-130078134Y-24789422D01*
X-130051710Y-24778477D01*
X-130034320Y-24610087D01*
X-129045680Y-24610087D01*
X-129028290Y-24778477D01*
X-128864847Y-24830986D01*
X-128694301Y-24850600D01*
X-128523205Y-24836566D01*
X-128358134Y-24789422D01*
X-128331710Y-24778477D01*
X-128314320Y-24610087D01*
X-128680000Y-24244408D01*
X-129045680Y-24610087D01*
X-130034320Y-24610087D01*
X-130400000Y-24244408D01*
X-130765680Y-24610087D01*
X-135039500Y-24610087D01*
X-135039500Y-23000699D01*
X-131275600Y-23000699D01*
X-131261566Y-23171795D01*
X-131214422Y-23336866D01*
X-131203477Y-23363290D01*
X-131042891Y-23379874D01*
X-131153714Y-23490697D01*
X-131149411Y-23495000D01*
X-131153714Y-23499303D01*
X-131042891Y-23610126D01*
X-131203477Y-23626710D01*
X-131255986Y-23790153D01*
X-131275600Y-23960699D01*
X-131261566Y-24131795D01*
X-131214422Y-24296866D01*
X-131203477Y-24323290D01*
X-131035087Y-24340680D01*
X-130669408Y-23975000D01*
X-130683550Y-23960858D01*
X-130591531Y-23868839D01*
X-130584847Y-23870986D01*
X-130414301Y-23890600D01*
X-130243205Y-23876566D01*
X-130210175Y-23867133D01*
X-130116450Y-23960858D01*
X-130130592Y-23975000D01*
X-129897638Y-24207954D01*
X-129888290Y-24298477D01*
X-129768693Y-24336900D01*
X-129764913Y-24340680D01*
X-129758869Y-24340056D01*
X-129724847Y-24350986D01*
X-129554301Y-24370600D01*
X-129383205Y-24356566D01*
X-129324263Y-24339732D01*
X-129315087Y-24340680D01*
X-129310092Y-24335685D01*
X-129218134Y-24309422D01*
X-129191710Y-24298477D01*
X-129182362Y-24207954D01*
X-128949408Y-23975000D01*
X-128963550Y-23960858D01*
X-128871531Y-23868839D01*
X-128864847Y-23870986D01*
X-128694301Y-23890600D01*
X-128523205Y-23876566D01*
X-128490175Y-23867133D01*
X-128396450Y-23960858D01*
X-128410592Y-23975000D01*
X-128044913Y-24340680D01*
X-127876523Y-24323290D01*
X-127824014Y-24159847D01*
X-127804400Y-23989301D01*
X-127818434Y-23818205D01*
X-127865578Y-23653134D01*
X-127876523Y-23626710D01*
X-128037109Y-23610126D01*
X-127926286Y-23499303D01*
X-127930589Y-23495000D01*
X-127926286Y-23490697D01*
X-128037109Y-23379874D01*
X-127876523Y-23363290D01*
X-127824014Y-23199847D01*
X-127804400Y-23029301D01*
X-127818434Y-22858205D01*
X-127865578Y-22693134D01*
X-127876523Y-22666710D01*
X-128044913Y-22649320D01*
X-128410592Y-23015000D01*
X-128396450Y-23029142D01*
X-128488469Y-23121161D01*
X-128495153Y-23119014D01*
X-128665699Y-23099400D01*
X-128836795Y-23113434D01*
X-128869825Y-23122867D01*
X-128963550Y-23029142D01*
X-128949408Y-23015000D01*
X-129182362Y-22782046D01*
X-129191710Y-22691523D01*
X-129311307Y-22653100D01*
X-129315087Y-22649320D01*
X-129321131Y-22649944D01*
X-129355153Y-22639014D01*
X-129525699Y-22619400D01*
X-129696795Y-22633434D01*
X-129755737Y-22650268D01*
X-129764913Y-22649320D01*
X-129769908Y-22654315D01*
X-129861866Y-22680578D01*
X-129888290Y-22691523D01*
X-129897638Y-22782046D01*
X-130130592Y-23015000D01*
X-130116450Y-23029142D01*
X-130208469Y-23121161D01*
X-130215153Y-23119014D01*
X-130385699Y-23099400D01*
X-130556795Y-23113434D01*
X-130589825Y-23122867D01*
X-130683550Y-23029142D01*
X-130669408Y-23015000D01*
X-131035087Y-22649320D01*
X-131203477Y-22666710D01*
X-131255986Y-22830153D01*
X-131275600Y-23000699D01*
X-135039500Y-23000699D01*
X-135039500Y-22624826D01*
X-134978324Y-22686002D01*
X-134881118Y-22750953D01*
X-134773108Y-22795692D01*
X-134658445Y-22818500D01*
X-134541535Y-22818500D01*
X-134426872Y-22795692D01*
X-134318862Y-22750953D01*
X-134221656Y-22686002D01*
X-134138988Y-22603334D01*
X-134074037Y-22506128D01*
X-134029298Y-22398118D01*
X-134006490Y-22283455D01*
X-134006490Y-22166545D01*
X-133943500Y-22166545D01*
X-133943500Y-22283455D01*
X-133920692Y-22398118D01*
X-133875953Y-22506128D01*
X-133811002Y-22603334D01*
X-133728334Y-22686002D01*
X-133631128Y-22750953D01*
X-133523118Y-22795692D01*
X-133408455Y-22818500D01*
X-133291545Y-22818500D01*
X-133176882Y-22795692D01*
X-133068872Y-22750953D01*
X-132971666Y-22686002D01*
X-132888998Y-22603334D01*
X-132824047Y-22506128D01*
X-132779308Y-22398118D01*
X-132756500Y-22283455D01*
X-132756500Y-22166545D01*
X-132673500Y-22166545D01*
X-132673500Y-22283455D01*
X-132650692Y-22398118D01*
X-132605953Y-22506128D01*
X-132541002Y-22603334D01*
X-132458334Y-22686002D01*
X-132361128Y-22750953D01*
X-132253118Y-22795692D01*
X-132138455Y-22818500D01*
X-132021545Y-22818500D01*
X-131906882Y-22795692D01*
X-131798872Y-22750953D01*
X-131701666Y-22686002D01*
X-131618998Y-22603334D01*
X-131554047Y-22506128D01*
X-131509308Y-22398118D01*
X-131505687Y-22379913D01*
X-130765680Y-22379913D01*
X-130400000Y-22745592D01*
X-130034320Y-22379913D01*
X-129045680Y-22379913D01*
X-128680000Y-22745592D01*
X-128314320Y-22379913D01*
X-128331710Y-22211523D01*
X-128433388Y-22178857D01*
X-125563500Y-22178857D01*
X-125563500Y-22271143D01*
X-125545496Y-22361656D01*
X-125510179Y-22446918D01*
X-125458908Y-22523651D01*
X-125393651Y-22588908D01*
X-125316918Y-22640179D01*
X-125231656Y-22675496D01*
X-125141143Y-22693500D01*
X-125048857Y-22693500D01*
X-124958344Y-22675496D01*
X-124873082Y-22640179D01*
X-124796349Y-22588908D01*
X-124731092Y-22523651D01*
X-124679821Y-22446918D01*
X-124644504Y-22361656D01*
X-124626500Y-22271143D01*
X-124626500Y-22178857D01*
X-124644504Y-22088344D01*
X-124679821Y-22003082D01*
X-124731092Y-21926349D01*
X-124796349Y-21861092D01*
X-124873082Y-21809821D01*
X-124958344Y-21774504D01*
X-125048857Y-21756500D01*
X-125141143Y-21756500D01*
X-125231656Y-21774504D01*
X-125316918Y-21809821D01*
X-125393651Y-21861092D01*
X-125458908Y-21926349D01*
X-125510179Y-22003082D01*
X-125545496Y-22088344D01*
X-125563500Y-22178857D01*
X-128433388Y-22178857D01*
X-128495153Y-22159014D01*
X-128665699Y-22139400D01*
X-128836795Y-22153434D01*
X-129001866Y-22200578D01*
X-129028290Y-22211523D01*
X-129045680Y-22379913D01*
X-130034320Y-22379913D01*
X-130051710Y-22211523D01*
X-130215153Y-22159014D01*
X-130385699Y-22139400D01*
X-130556795Y-22153434D01*
X-130721866Y-22200578D01*
X-130748290Y-22211523D01*
X-130765680Y-22379913D01*
X-131505687Y-22379913D01*
X-131486500Y-22283455D01*
X-131486500Y-22166545D01*
X-131509308Y-22051882D01*
X-131554047Y-21943872D01*
X-131618998Y-21846666D01*
X-131701666Y-21763998D01*
X-131798872Y-21699047D01*
X-131906882Y-21654308D01*
X-132021545Y-21631500D01*
X-132138455Y-21631500D01*
X-132253118Y-21654308D01*
X-132361128Y-21699047D01*
X-132458334Y-21763998D01*
X-132541002Y-21846666D01*
X-132605953Y-21943872D01*
X-132650692Y-22051882D01*
X-132673500Y-22166545D01*
X-132756500Y-22166545D01*
X-132779308Y-22051882D01*
X-132824047Y-21943872D01*
X-132888998Y-21846666D01*
X-132971666Y-21763998D01*
X-133068872Y-21699047D01*
X-133176882Y-21654308D01*
X-133291545Y-21631500D01*
X-133408455Y-21631500D01*
X-133523118Y-21654308D01*
X-133631128Y-21699047D01*
X-133728334Y-21763998D01*
X-133811002Y-21846666D01*
X-133875953Y-21943872D01*
X-133920692Y-22051882D01*
X-133943500Y-22166545D01*
X-134006490Y-22166545D01*
X-134029298Y-22051882D01*
X-134074037Y-21943872D01*
X-134138988Y-21846666D01*
X-134221656Y-21763998D01*
X-134318862Y-21699047D01*
X-134426872Y-21654308D01*
X-134541535Y-21631500D01*
X-134658445Y-21631500D01*
X-134773108Y-21654308D01*
X-134881118Y-21699047D01*
X-134978324Y-21763998D01*
X-135039500Y-21825174D01*
X-135039500Y-21487224D01*
X-122963500Y-21487224D01*
X-122963500Y-21692776D01*
X-122923399Y-21894378D01*
X-122844738Y-22084283D01*
X-122730539Y-22255192D01*
X-122585192Y-22400539D01*
X-122414283Y-22514738D01*
X-122224378Y-22593399D01*
X-122022776Y-22633500D01*
X-121817224Y-22633500D01*
X-121615622Y-22593399D01*
X-121425717Y-22514738D01*
X-121254808Y-22400539D01*
X-121109461Y-22255192D01*
X-120995262Y-22084283D01*
X-120916601Y-21894378D01*
X-120876500Y-21692776D01*
X-120876500Y-21487224D01*
X-120916601Y-21285622D01*
X-120959738Y-21181478D01*
X-120741541Y-21181478D01*
X-120645810Y-21399500D01*
X-119570500Y-21399500D01*
X-119570500Y-20325646D01*
X-119788520Y-20228467D01*
X-119796759Y-20230957D01*
X-120053887Y-20338376D01*
X-120285118Y-20493894D01*
X-120481566Y-20691535D01*
X-120635681Y-20923704D01*
X-120741541Y-21181478D01*
X-120959738Y-21181478D01*
X-120995262Y-21095717D01*
X-121109461Y-20924808D01*
X-121254808Y-20779461D01*
X-121425717Y-20665262D01*
X-121615622Y-20586601D01*
X-121817224Y-20546500D01*
X-122022776Y-20546500D01*
X-122224378Y-20586601D01*
X-122414283Y-20665262D01*
X-122585192Y-20779461D01*
X-122730539Y-20924808D01*
X-122844738Y-21095717D01*
X-122923399Y-21285622D01*
X-122963500Y-21487224D01*
X-135039500Y-21487224D01*
X-135039500Y-19265500D01*
X-118173500Y-19265500D01*
X-118173500Y-20849614D01*
G37*
X-118173500Y-20849614D02*
X-118278434Y-20691535D01*
X-118474882Y-20493894D01*
X-118706113Y-20338376D01*
X-118963241Y-20230957D01*
X-118971480Y-20228467D01*
X-119189500Y-20325646D01*
X-119189500Y-21399500D01*
X-119169500Y-21399500D01*
X-119169500Y-21780500D01*
X-119189500Y-21780500D01*
X-119189500Y-21800500D01*
X-119570500Y-21800500D01*
X-119570500Y-21780500D01*
X-120645810Y-21780500D01*
X-120741541Y-21998522D01*
X-120635681Y-22256296D01*
X-120481566Y-22488465D01*
X-120285118Y-22686106D01*
X-120120979Y-22796500D01*
X-121285000Y-22796500D01*
X-121297388Y-22797720D01*
X-121309300Y-22801334D01*
X-121320279Y-22807202D01*
X-121329901Y-22815099D01*
X-121337798Y-22824721D01*
X-121343666Y-22835700D01*
X-121347280Y-22847612D01*
X-121348500Y-22860000D01*
X-121348500Y-23256857D01*
X-121425717Y-23205262D01*
X-121615622Y-23126601D01*
X-121817224Y-23086500D01*
X-122022776Y-23086500D01*
X-122224378Y-23126601D01*
X-122414283Y-23205262D01*
X-122585192Y-23319461D01*
X-122730539Y-23464808D01*
X-122844738Y-23635717D01*
X-122923399Y-23825622D01*
X-122963500Y-24027224D01*
X-122963500Y-24232776D01*
X-122923399Y-24434378D01*
X-122844738Y-24624283D01*
X-122730539Y-24795192D01*
X-122585192Y-24940539D01*
X-122414283Y-25054738D01*
X-122224378Y-25133399D01*
X-122022776Y-25173500D01*
X-121817224Y-25173500D01*
X-121615622Y-25133399D01*
X-121425717Y-25054738D01*
X-121348500Y-25003143D01*
X-121348500Y-27940000D01*
X-121347280Y-27952388D01*
X-121343666Y-27964300D01*
X-121337798Y-27975279D01*
X-121329901Y-27984901D01*
X-121320279Y-27992798D01*
X-121309300Y-27998666D01*
X-121297388Y-28002280D01*
X-121285000Y-28003500D01*
X-114363500Y-28003500D01*
X-114363500Y-37401500D01*
X-130175000Y-37401500D01*
X-130187388Y-37402720D01*
X-130199300Y-37406334D01*
X-130210279Y-37412202D01*
X-130219901Y-37420099D01*
X-130227798Y-37429721D01*
X-130233666Y-37440700D01*
X-130237280Y-37452612D01*
X-130238500Y-37465000D01*
X-130238500Y-44661944D01*
X-130260500Y-44772545D01*
X-130260500Y-44889455D01*
X-130238500Y-45000056D01*
X-130238500Y-45085000D01*
X-130237280Y-45097388D01*
X-130233666Y-45109300D01*
X-130227798Y-45120279D01*
X-130219901Y-45129901D01*
X-130210279Y-45137798D01*
X-130199300Y-45143666D01*
X-130187388Y-45147280D01*
X-130175000Y-45148500D01*
X-130168650Y-45148500D01*
X-130128002Y-45209334D01*
X-130045334Y-45292002D01*
X-129948128Y-45356953D01*
X-129840118Y-45401692D01*
X-129725455Y-45424500D01*
X-129608545Y-45424500D01*
X-129493882Y-45401692D01*
X-129385872Y-45356953D01*
X-129288666Y-45292002D01*
X-129205998Y-45209334D01*
X-129165350Y-45148500D01*
X-124326650Y-45148500D01*
X-124286002Y-45209334D01*
X-124203334Y-45292002D01*
X-124106128Y-45356953D01*
X-123998118Y-45401692D01*
X-123883455Y-45424500D01*
X-123766545Y-45424500D01*
X-123651882Y-45401692D01*
X-123543872Y-45356953D01*
X-123446666Y-45292002D01*
X-123363998Y-45209334D01*
X-123323350Y-45148500D01*
X-118230650Y-45148500D01*
X-118190002Y-45209334D01*
X-118147836Y-45251500D01*
X-118156143Y-45251500D01*
X-118246656Y-45269504D01*
X-118331918Y-45304821D01*
X-118408651Y-45356092D01*
X-118473908Y-45421349D01*
X-118525179Y-45498082D01*
X-118560496Y-45583344D01*
X-118578500Y-45673857D01*
X-118578500Y-45766143D01*
X-118560496Y-45856656D01*
X-118531075Y-45927685D01*
X-118613521Y-45893534D01*
X-118704034Y-45875530D01*
X-118796320Y-45875530D01*
X-118886833Y-45893534D01*
X-118972095Y-45928851D01*
X-119048828Y-45980122D01*
X-119114085Y-46045379D01*
X-119165356Y-46122112D01*
X-119200673Y-46207374D01*
X-119218677Y-46297887D01*
X-119218677Y-46390173D01*
X-119200673Y-46480686D01*
X-119165356Y-46565948D01*
X-119114085Y-46642681D01*
X-119048828Y-46707938D01*
X-118972095Y-46759209D01*
X-118886833Y-46794526D01*
X-118796320Y-46812530D01*
X-118704034Y-46812530D01*
X-118613521Y-46794526D01*
X-118528259Y-46759209D01*
X-118451526Y-46707938D01*
X-118386269Y-46642681D01*
X-118334998Y-46565948D01*
X-118299681Y-46480686D01*
X-118281677Y-46390173D01*
X-118281677Y-46297887D01*
X-118299681Y-46207374D01*
X-118329102Y-46136345D01*
X-118246656Y-46170496D01*
X-118156143Y-46188500D01*
X-118063857Y-46188500D01*
X-117973344Y-46170496D01*
X-117888082Y-46135179D01*
X-117811349Y-46083908D01*
X-117746092Y-46018651D01*
X-117694821Y-45941918D01*
X-117659504Y-45856656D01*
X-117641500Y-45766143D01*
X-117641500Y-45673857D01*
X-117659504Y-45583344D01*
X-117694821Y-45498082D01*
X-117743987Y-45424500D01*
X-117670545Y-45424500D01*
X-117555882Y-45401692D01*
X-117447872Y-45356953D01*
X-117350666Y-45292002D01*
X-117267998Y-45209334D01*
X-117227350Y-45148500D01*
X-116903500Y-45148500D01*
X-116903500Y-51371500D01*
X-121454952Y-51371500D01*
X-121469504Y-51298344D01*
X-121504821Y-51213082D01*
X-121556092Y-51136349D01*
X-121621349Y-51071092D01*
X-121698082Y-51019821D01*
X-121783344Y-50984504D01*
X-121873857Y-50966500D01*
X-121966143Y-50966500D01*
X-122056656Y-50984504D01*
X-122141918Y-51019821D01*
X-122218651Y-51071092D01*
X-122283908Y-51136349D01*
X-122335179Y-51213082D01*
X-122370496Y-51298344D01*
X-122385048Y-51371500D01*
X-129074952Y-51371500D01*
X-129089504Y-51298344D01*
X-129124821Y-51213082D01*
X-129176092Y-51136349D01*
X-129241349Y-51071092D01*
X-129318082Y-51019821D01*
X-129403344Y-50984504D01*
X-129493857Y-50966500D01*
X-129586143Y-50966500D01*
X-129676656Y-50984504D01*
X-129761918Y-51019821D01*
X-129838651Y-51071092D01*
X-129903908Y-51136349D01*
X-129955179Y-51213082D01*
X-129990496Y-51298344D01*
X-130005048Y-51371500D01*
X-135039500Y-51371500D01*
X-135039500Y-48455545D01*
X-134070500Y-48455545D01*
X-134070500Y-48572455D01*
X-134047692Y-48687118D01*
X-134002953Y-48795128D01*
X-133938002Y-48892334D01*
X-133855334Y-48975002D01*
X-133758128Y-49039953D01*
X-133650118Y-49084692D01*
X-133535455Y-49107500D01*
X-133418545Y-49107500D01*
X-133303882Y-49084692D01*
X-133195872Y-49039953D01*
X-133098666Y-48975002D01*
X-133015998Y-48892334D01*
X-132951047Y-48795128D01*
X-132906308Y-48687118D01*
X-132883500Y-48572455D01*
X-132883500Y-48455545D01*
X-132906308Y-48340882D01*
X-132951047Y-48232872D01*
X-133015998Y-48135666D01*
X-133098666Y-48052998D01*
X-133195872Y-47988047D01*
X-133303882Y-47943308D01*
X-133418545Y-47920500D01*
X-133535455Y-47920500D01*
X-133650118Y-47943308D01*
X-133758128Y-47988047D01*
X-133855334Y-48052998D01*
X-133938002Y-48135666D01*
X-134002953Y-48232872D01*
X-134047692Y-48340882D01*
X-134070500Y-48455545D01*
X-135039500Y-48455545D01*
X-135039500Y-46308857D01*
X-130008500Y-46308857D01*
X-130008500Y-46401143D01*
X-129990496Y-46491656D01*
X-129955179Y-46576918D01*
X-129903908Y-46653651D01*
X-129862553Y-46695007D01*
X-129903908Y-46736362D01*
X-129955179Y-46813095D01*
X-129990496Y-46898357D01*
X-130008500Y-46988870D01*
X-130008500Y-47081156D01*
X-129990496Y-47171669D01*
X-129955179Y-47256931D01*
X-129903908Y-47333664D01*
X-129838651Y-47398921D01*
X-129761918Y-47450192D01*
X-129676656Y-47485509D01*
X-129586143Y-47503513D01*
X-129493857Y-47503513D01*
X-129403344Y-47485509D01*
X-129318082Y-47450192D01*
X-129241349Y-47398921D01*
X-129176092Y-47333664D01*
X-129124821Y-47256931D01*
X-129089504Y-47171669D01*
X-129071500Y-47081156D01*
X-129071500Y-46988870D01*
X-129089504Y-46898357D01*
X-129124821Y-46813095D01*
X-129176092Y-46736362D01*
X-129217448Y-46695007D01*
X-129176092Y-46653651D01*
X-129124821Y-46576918D01*
X-129089504Y-46491656D01*
X-129071500Y-46401143D01*
X-129071500Y-46308857D01*
X-129073877Y-46296905D01*
X-126838918Y-46296905D01*
X-126838918Y-46389191D01*
X-126820914Y-46479704D01*
X-126785597Y-46564966D01*
X-126734326Y-46641699D01*
X-126669069Y-46706956D01*
X-126592336Y-46758227D01*
X-126507074Y-46793544D01*
X-126416561Y-46811548D01*
X-126324275Y-46811548D01*
X-126233762Y-46793544D01*
X-126148500Y-46758227D01*
X-126071767Y-46706956D01*
X-126063236Y-46698425D01*
X-126057471Y-46707053D01*
X-125992214Y-46772310D01*
X-125915481Y-46823581D01*
X-125830219Y-46858898D01*
X-125739706Y-46876902D01*
X-125647420Y-46876902D01*
X-125556907Y-46858898D01*
X-125545675Y-46854246D01*
X-125563500Y-46943857D01*
X-125563500Y-47036143D01*
X-125545496Y-47126656D01*
X-125510179Y-47211918D01*
X-125458908Y-47288651D01*
X-125393651Y-47353908D01*
X-125316918Y-47405179D01*
X-125231656Y-47440496D01*
X-125141143Y-47458500D01*
X-125048857Y-47458500D01*
X-124958344Y-47440496D01*
X-124873082Y-47405179D01*
X-124796349Y-47353908D01*
X-124731092Y-47288651D01*
X-124679821Y-47211918D01*
X-124644504Y-47126656D01*
X-124643949Y-47123865D01*
X-122388500Y-47123865D01*
X-122388500Y-47216151D01*
X-122370496Y-47306664D01*
X-122335179Y-47391926D01*
X-122283908Y-47468659D01*
X-122218651Y-47533916D01*
X-122141918Y-47585187D01*
X-122056656Y-47620504D01*
X-121966143Y-47638508D01*
X-121873857Y-47638508D01*
X-121783344Y-47620504D01*
X-121698082Y-47585187D01*
X-121621349Y-47533916D01*
X-121556092Y-47468659D01*
X-121504821Y-47391926D01*
X-121469504Y-47306664D01*
X-121451500Y-47216151D01*
X-121451500Y-47123865D01*
X-121469504Y-47033352D01*
X-121504821Y-46948090D01*
X-121556092Y-46871357D01*
X-121621349Y-46806100D01*
X-121698082Y-46754829D01*
X-121783344Y-46719512D01*
X-121873857Y-46701508D01*
X-121966143Y-46701508D01*
X-122056656Y-46719512D01*
X-122141918Y-46754829D01*
X-122218651Y-46806100D01*
X-122283908Y-46871357D01*
X-122335179Y-46948090D01*
X-122370496Y-47033352D01*
X-122388500Y-47123865D01*
X-124643949Y-47123865D01*
X-124626500Y-47036143D01*
X-124626500Y-46943857D01*
X-124644504Y-46853344D01*
X-124679821Y-46768082D01*
X-124731092Y-46691349D01*
X-124796349Y-46626092D01*
X-124844595Y-46593855D01*
X-121118500Y-46593855D01*
X-121118500Y-46686141D01*
X-121100496Y-46776654D01*
X-121065179Y-46861916D01*
X-121013908Y-46938649D01*
X-120948651Y-47003906D01*
X-120871918Y-47055177D01*
X-120786656Y-47090494D01*
X-120696143Y-47108498D01*
X-120603857Y-47108498D01*
X-120513344Y-47090494D01*
X-120428082Y-47055177D01*
X-120351349Y-47003906D01*
X-120286092Y-46938649D01*
X-120234821Y-46861916D01*
X-120199504Y-46776654D01*
X-120181500Y-46686141D01*
X-120181500Y-46593855D01*
X-120199504Y-46503342D01*
X-120234821Y-46418080D01*
X-120286092Y-46341347D01*
X-120351349Y-46276090D01*
X-120428082Y-46224819D01*
X-120513344Y-46189502D01*
X-120603857Y-46171498D01*
X-120696143Y-46171498D01*
X-120786656Y-46189502D01*
X-120871918Y-46224819D01*
X-120948651Y-46276090D01*
X-121013908Y-46341347D01*
X-121065179Y-46418080D01*
X-121100496Y-46503342D01*
X-121118500Y-46593855D01*
X-124844595Y-46593855D01*
X-124873082Y-46574821D01*
X-124958344Y-46539504D01*
X-125048857Y-46521500D01*
X-125141143Y-46521500D01*
X-125231656Y-46539504D01*
X-125242888Y-46544156D01*
X-125225063Y-46454545D01*
X-125225063Y-46362259D01*
X-125243067Y-46271746D01*
X-125278384Y-46186484D01*
X-125329655Y-46109751D01*
X-125394912Y-46044494D01*
X-125471645Y-45993223D01*
X-125556907Y-45957906D01*
X-125647420Y-45939902D01*
X-125739706Y-45939902D01*
X-125830219Y-45957906D01*
X-125915481Y-45993223D01*
X-125992214Y-46044494D01*
X-126000745Y-46053025D01*
X-126006510Y-46044397D01*
X-126071767Y-45979140D01*
X-126148500Y-45927869D01*
X-126233762Y-45892552D01*
X-126324275Y-45874548D01*
X-126416561Y-45874548D01*
X-126507074Y-45892552D01*
X-126592336Y-45927869D01*
X-126669069Y-45979140D01*
X-126734326Y-46044397D01*
X-126785597Y-46121130D01*
X-126820914Y-46206392D01*
X-126838918Y-46296905D01*
X-129073877Y-46296905D01*
X-129089504Y-46218344D01*
X-129124821Y-46133082D01*
X-129176092Y-46056349D01*
X-129241349Y-45991092D01*
X-129318082Y-45939821D01*
X-129403344Y-45904504D01*
X-129493857Y-45886500D01*
X-129586143Y-45886500D01*
X-129676656Y-45904504D01*
X-129761918Y-45939821D01*
X-129838651Y-45991092D01*
X-129903908Y-46056349D01*
X-129955179Y-46133082D01*
X-129990496Y-46218344D01*
X-130008500Y-46308857D01*
X-135039500Y-46308857D01*
X-135039500Y-45673857D01*
X-128103500Y-45673857D01*
X-128103500Y-45766143D01*
X-128085496Y-45856656D01*
X-128050179Y-45941918D01*
X-127998908Y-46018651D01*
X-127933651Y-46083908D01*
X-127856918Y-46135179D01*
X-127771656Y-46170496D01*
X-127681143Y-46188500D01*
X-127588857Y-46188500D01*
X-127498344Y-46170496D01*
X-127413082Y-46135179D01*
X-127336349Y-46083908D01*
X-127271092Y-46018651D01*
X-127219821Y-45941918D01*
X-127184504Y-45856656D01*
X-127166500Y-45766143D01*
X-127166500Y-45673857D01*
X-120483500Y-45673857D01*
X-120483500Y-45766143D01*
X-120465496Y-45856656D01*
X-120430179Y-45941918D01*
X-120378908Y-46018651D01*
X-120313651Y-46083908D01*
X-120236918Y-46135179D01*
X-120151656Y-46170496D01*
X-120061143Y-46188500D01*
X-119968857Y-46188500D01*
X-119878344Y-46170496D01*
X-119793082Y-46135179D01*
X-119716349Y-46083908D01*
X-119651092Y-46018651D01*
X-119599821Y-45941918D01*
X-119564504Y-45856656D01*
X-119546500Y-45766143D01*
X-119546500Y-45673857D01*
X-119564504Y-45583344D01*
X-119599821Y-45498082D01*
X-119651092Y-45421349D01*
X-119716349Y-45356092D01*
X-119793082Y-45304821D01*
X-119878344Y-45269504D01*
X-119968857Y-45251500D01*
X-120061143Y-45251500D01*
X-120151656Y-45269504D01*
X-120236918Y-45304821D01*
X-120313651Y-45356092D01*
X-120378908Y-45421349D01*
X-120430179Y-45498082D01*
X-120465496Y-45583344D01*
X-120483500Y-45673857D01*
X-127166500Y-45673857D01*
X-127184504Y-45583344D01*
X-127219821Y-45498082D01*
X-127271092Y-45421349D01*
X-127336349Y-45356092D01*
X-127413082Y-45304821D01*
X-127498344Y-45269504D01*
X-127588857Y-45251500D01*
X-127681143Y-45251500D01*
X-127771656Y-45269504D01*
X-127856918Y-45304821D01*
X-127933651Y-45356092D01*
X-127998908Y-45421349D01*
X-128050179Y-45498082D01*
X-128085496Y-45583344D01*
X-128103500Y-45673857D01*
X-135039500Y-45673857D01*
X-135039500Y-38688857D01*
X-131913500Y-38688857D01*
X-131913500Y-38781143D01*
X-131895496Y-38871656D01*
X-131860179Y-38956918D01*
X-131808908Y-39033651D01*
X-131743651Y-39098908D01*
X-131666918Y-39150179D01*
X-131581656Y-39185496D01*
X-131491143Y-39203500D01*
X-131398857Y-39203500D01*
X-131308344Y-39185496D01*
X-131223082Y-39150179D01*
X-131146349Y-39098908D01*
X-131081092Y-39033651D01*
X-131029821Y-38956918D01*
X-130994504Y-38871656D01*
X-130976500Y-38781143D01*
X-130976500Y-38688857D01*
X-130994504Y-38598344D01*
X-131029821Y-38513082D01*
X-131081092Y-38436349D01*
X-131146349Y-38371092D01*
X-131223082Y-38319821D01*
X-131308344Y-38284504D01*
X-131398857Y-38266500D01*
X-131491143Y-38266500D01*
X-131581656Y-38284504D01*
X-131666918Y-38319821D01*
X-131743651Y-38371092D01*
X-131808908Y-38436349D01*
X-131860179Y-38513082D01*
X-131895496Y-38598344D01*
X-131913500Y-38688857D01*
X-135039500Y-38688857D01*
X-135039500Y-32973857D01*
X-130643500Y-32973857D01*
X-130643500Y-33066143D01*
X-130625496Y-33156656D01*
X-130590179Y-33241918D01*
X-130538908Y-33318651D01*
X-130473651Y-33383908D01*
X-130396918Y-33435179D01*
X-130311656Y-33470496D01*
X-130221143Y-33488500D01*
X-130128857Y-33488500D01*
X-130038344Y-33470496D01*
X-129953082Y-33435179D01*
X-129876349Y-33383908D01*
X-129811092Y-33318651D01*
X-129759821Y-33241918D01*
X-129724504Y-33156656D01*
X-129706500Y-33066143D01*
X-129706500Y-32973857D01*
X-128103500Y-32973857D01*
X-128103500Y-33066143D01*
X-128085496Y-33156656D01*
X-128050179Y-33241918D01*
X-127998908Y-33318651D01*
X-127933651Y-33383908D01*
X-127856918Y-33435179D01*
X-127771656Y-33470496D01*
X-127681143Y-33488500D01*
X-127588857Y-33488500D01*
X-127498344Y-33470496D01*
X-127413082Y-33435179D01*
X-127336349Y-33383908D01*
X-127271092Y-33318651D01*
X-127219821Y-33241918D01*
X-127184504Y-33156656D01*
X-127166500Y-33066143D01*
X-127166500Y-32973857D01*
X-127184504Y-32883344D01*
X-127219821Y-32798082D01*
X-127271092Y-32721349D01*
X-127336349Y-32656092D01*
X-127413082Y-32604821D01*
X-127498344Y-32569504D01*
X-127588857Y-32551500D01*
X-127681143Y-32551500D01*
X-127771656Y-32569504D01*
X-127856918Y-32604821D01*
X-127933651Y-32656092D01*
X-127998908Y-32721349D01*
X-128050179Y-32798082D01*
X-128085496Y-32883344D01*
X-128103500Y-32973857D01*
X-129706500Y-32973857D01*
X-129724504Y-32883344D01*
X-129759821Y-32798082D01*
X-129811092Y-32721349D01*
X-129876349Y-32656092D01*
X-129953082Y-32604821D01*
X-130038344Y-32569504D01*
X-130128857Y-32551500D01*
X-130221143Y-32551500D01*
X-130311656Y-32569504D01*
X-130396918Y-32604821D01*
X-130473651Y-32656092D01*
X-130538908Y-32721349D01*
X-130590179Y-32798082D01*
X-130625496Y-32883344D01*
X-130643500Y-32973857D01*
X-135039500Y-32973857D01*
X-135039500Y-32338857D01*
X-129373500Y-32338857D01*
X-129373500Y-32431143D01*
X-129355496Y-32521656D01*
X-129320179Y-32606918D01*
X-129268908Y-32683651D01*
X-129203651Y-32748908D01*
X-129126918Y-32800179D01*
X-129041656Y-32835496D01*
X-128951143Y-32853500D01*
X-128858857Y-32853500D01*
X-128768344Y-32835496D01*
X-128683082Y-32800179D01*
X-128606349Y-32748908D01*
X-128541092Y-32683651D01*
X-128489821Y-32606918D01*
X-128454504Y-32521656D01*
X-128436500Y-32431143D01*
X-128436500Y-32338857D01*
X-128438948Y-32326545D01*
X-126958500Y-32326545D01*
X-126958500Y-32443455D01*
X-126935692Y-32558118D01*
X-126890953Y-32666128D01*
X-126826002Y-32763334D01*
X-126743334Y-32846002D01*
X-126646128Y-32910953D01*
X-126538118Y-32955692D01*
X-126423455Y-32978500D01*
X-126306545Y-32978500D01*
X-126191882Y-32955692D01*
X-126083872Y-32910953D01*
X-125986666Y-32846002D01*
X-125903998Y-32763334D01*
X-125839047Y-32666128D01*
X-125794308Y-32558118D01*
X-125771500Y-32443455D01*
X-125771500Y-32326545D01*
X-125794308Y-32211882D01*
X-125839047Y-32103872D01*
X-125903998Y-32006666D01*
X-125986666Y-31923998D01*
X-126083872Y-31859047D01*
X-126191882Y-31814308D01*
X-126306545Y-31791500D01*
X-126423455Y-31791500D01*
X-126538118Y-31814308D01*
X-126646128Y-31859047D01*
X-126743334Y-31923998D01*
X-126826002Y-32006666D01*
X-126890953Y-32103872D01*
X-126935692Y-32211882D01*
X-126958500Y-32326545D01*
X-128438948Y-32326545D01*
X-128454504Y-32248344D01*
X-128489821Y-32163082D01*
X-128541092Y-32086349D01*
X-128606349Y-32021092D01*
X-128683082Y-31969821D01*
X-128768344Y-31934504D01*
X-128858857Y-31916500D01*
X-128951143Y-31916500D01*
X-129041656Y-31934504D01*
X-129126918Y-31969821D01*
X-129203651Y-32021092D01*
X-129268908Y-32086349D01*
X-129320179Y-32163082D01*
X-129355496Y-32248344D01*
X-129373500Y-32338857D01*
X-135039500Y-32338857D01*
X-135039500Y-25353857D01*
X-127468500Y-25353857D01*
X-127468500Y-25446143D01*
X-127450496Y-25536656D01*
X-127415179Y-25621918D01*
X-127363908Y-25698651D01*
X-127298651Y-25763908D01*
X-127221918Y-25815179D01*
X-127136656Y-25850496D01*
X-127046143Y-25868500D01*
X-126953857Y-25868500D01*
X-126863344Y-25850496D01*
X-126778082Y-25815179D01*
X-126701349Y-25763908D01*
X-126636092Y-25698651D01*
X-126584821Y-25621918D01*
X-126549504Y-25536656D01*
X-126531500Y-25446143D01*
X-126531500Y-25353857D01*
X-126549504Y-25263344D01*
X-126584821Y-25178082D01*
X-126636092Y-25101349D01*
X-126701349Y-25036092D01*
X-126778082Y-24984821D01*
X-126863344Y-24949504D01*
X-126953857Y-24931500D01*
X-127046143Y-24931500D01*
X-127136656Y-24949504D01*
X-127221918Y-24984821D01*
X-127298651Y-25036092D01*
X-127363908Y-25101349D01*
X-127415179Y-25178082D01*
X-127450496Y-25263344D01*
X-127468500Y-25353857D01*
X-135039500Y-25353857D01*
X-135039500Y-24610087D01*
X-130765680Y-24610087D01*
X-130748290Y-24778477D01*
X-130584847Y-24830986D01*
X-130414301Y-24850600D01*
X-130243205Y-24836566D01*
X-130078134Y-24789422D01*
X-130051710Y-24778477D01*
X-130034320Y-24610087D01*
X-129045680Y-24610087D01*
X-129028290Y-24778477D01*
X-128864847Y-24830986D01*
X-128694301Y-24850600D01*
X-128523205Y-24836566D01*
X-128358134Y-24789422D01*
X-128331710Y-24778477D01*
X-128314320Y-24610087D01*
X-128680000Y-24244408D01*
X-129045680Y-24610087D01*
X-130034320Y-24610087D01*
X-130400000Y-24244408D01*
X-130765680Y-24610087D01*
X-135039500Y-24610087D01*
X-135039500Y-23000699D01*
X-131275600Y-23000699D01*
X-131261566Y-23171795D01*
X-131214422Y-23336866D01*
X-131203477Y-23363290D01*
X-131042891Y-23379874D01*
X-131153714Y-23490697D01*
X-131149411Y-23495000D01*
X-131153714Y-23499303D01*
X-131042891Y-23610126D01*
X-131203477Y-23626710D01*
X-131255986Y-23790153D01*
X-131275600Y-23960699D01*
X-131261566Y-24131795D01*
X-131214422Y-24296866D01*
X-131203477Y-24323290D01*
X-131035087Y-24340680D01*
X-130669408Y-23975000D01*
X-130683550Y-23960858D01*
X-130591531Y-23868839D01*
X-130584847Y-23870986D01*
X-130414301Y-23890600D01*
X-130243205Y-23876566D01*
X-130210175Y-23867133D01*
X-130116450Y-23960858D01*
X-130130592Y-23975000D01*
X-129897638Y-24207954D01*
X-129888290Y-24298477D01*
X-129768693Y-24336900D01*
X-129764913Y-24340680D01*
X-129758869Y-24340056D01*
X-129724847Y-24350986D01*
X-129554301Y-24370600D01*
X-129383205Y-24356566D01*
X-129324263Y-24339732D01*
X-129315087Y-24340680D01*
X-129310092Y-24335685D01*
X-129218134Y-24309422D01*
X-129191710Y-24298477D01*
X-129182362Y-24207954D01*
X-128949408Y-23975000D01*
X-128963550Y-23960858D01*
X-128871531Y-23868839D01*
X-128864847Y-23870986D01*
X-128694301Y-23890600D01*
X-128523205Y-23876566D01*
X-128490175Y-23867133D01*
X-128396450Y-23960858D01*
X-128410592Y-23975000D01*
X-128044913Y-24340680D01*
X-127876523Y-24323290D01*
X-127824014Y-24159847D01*
X-127804400Y-23989301D01*
X-127818434Y-23818205D01*
X-127865578Y-23653134D01*
X-127876523Y-23626710D01*
X-128037109Y-23610126D01*
X-127926286Y-23499303D01*
X-127930589Y-23495000D01*
X-127926286Y-23490697D01*
X-128037109Y-23379874D01*
X-127876523Y-23363290D01*
X-127824014Y-23199847D01*
X-127804400Y-23029301D01*
X-127818434Y-22858205D01*
X-127865578Y-22693134D01*
X-127876523Y-22666710D01*
X-128044913Y-22649320D01*
X-128410592Y-23015000D01*
X-128396450Y-23029142D01*
X-128488469Y-23121161D01*
X-128495153Y-23119014D01*
X-128665699Y-23099400D01*
X-128836795Y-23113434D01*
X-128869825Y-23122867D01*
X-128963550Y-23029142D01*
X-128949408Y-23015000D01*
X-129182362Y-22782046D01*
X-129191710Y-22691523D01*
X-129311307Y-22653100D01*
X-129315087Y-22649320D01*
X-129321131Y-22649944D01*
X-129355153Y-22639014D01*
X-129525699Y-22619400D01*
X-129696795Y-22633434D01*
X-129755737Y-22650268D01*
X-129764913Y-22649320D01*
X-129769908Y-22654315D01*
X-129861866Y-22680578D01*
X-129888290Y-22691523D01*
X-129897638Y-22782046D01*
X-130130592Y-23015000D01*
X-130116450Y-23029142D01*
X-130208469Y-23121161D01*
X-130215153Y-23119014D01*
X-130385699Y-23099400D01*
X-130556795Y-23113434D01*
X-130589825Y-23122867D01*
X-130683550Y-23029142D01*
X-130669408Y-23015000D01*
X-131035087Y-22649320D01*
X-131203477Y-22666710D01*
X-131255986Y-22830153D01*
X-131275600Y-23000699D01*
X-135039500Y-23000699D01*
X-135039500Y-22624826D01*
X-134978324Y-22686002D01*
X-134881118Y-22750953D01*
X-134773108Y-22795692D01*
X-134658445Y-22818500D01*
X-134541535Y-22818500D01*
X-134426872Y-22795692D01*
X-134318862Y-22750953D01*
X-134221656Y-22686002D01*
X-134138988Y-22603334D01*
X-134074037Y-22506128D01*
X-134029298Y-22398118D01*
X-134006490Y-22283455D01*
X-134006490Y-22166545D01*
X-133943500Y-22166545D01*
X-133943500Y-22283455D01*
X-133920692Y-22398118D01*
X-133875953Y-22506128D01*
X-133811002Y-22603334D01*
X-133728334Y-22686002D01*
X-133631128Y-22750953D01*
X-133523118Y-22795692D01*
X-133408455Y-22818500D01*
X-133291545Y-22818500D01*
X-133176882Y-22795692D01*
X-133068872Y-22750953D01*
X-132971666Y-22686002D01*
X-132888998Y-22603334D01*
X-132824047Y-22506128D01*
X-132779308Y-22398118D01*
X-132756500Y-22283455D01*
X-132756500Y-22166545D01*
X-132673500Y-22166545D01*
X-132673500Y-22283455D01*
X-132650692Y-22398118D01*
X-132605953Y-22506128D01*
X-132541002Y-22603334D01*
X-132458334Y-22686002D01*
X-132361128Y-22750953D01*
X-132253118Y-22795692D01*
X-132138455Y-22818500D01*
X-132021545Y-22818500D01*
X-131906882Y-22795692D01*
X-131798872Y-22750953D01*
X-131701666Y-22686002D01*
X-131618998Y-22603334D01*
X-131554047Y-22506128D01*
X-131509308Y-22398118D01*
X-131505687Y-22379913D01*
X-130765680Y-22379913D01*
X-130400000Y-22745592D01*
X-130034320Y-22379913D01*
X-129045680Y-22379913D01*
X-128680000Y-22745592D01*
X-128314320Y-22379913D01*
X-128331710Y-22211523D01*
X-128433388Y-22178857D01*
X-125563500Y-22178857D01*
X-125563500Y-22271143D01*
X-125545496Y-22361656D01*
X-125510179Y-22446918D01*
X-125458908Y-22523651D01*
X-125393651Y-22588908D01*
X-125316918Y-22640179D01*
X-125231656Y-22675496D01*
X-125141143Y-22693500D01*
X-125048857Y-22693500D01*
X-124958344Y-22675496D01*
X-124873082Y-22640179D01*
X-124796349Y-22588908D01*
X-124731092Y-22523651D01*
X-124679821Y-22446918D01*
X-124644504Y-22361656D01*
X-124626500Y-22271143D01*
X-124626500Y-22178857D01*
X-124644504Y-22088344D01*
X-124679821Y-22003082D01*
X-124731092Y-21926349D01*
X-124796349Y-21861092D01*
X-124873082Y-21809821D01*
X-124958344Y-21774504D01*
X-125048857Y-21756500D01*
X-125141143Y-21756500D01*
X-125231656Y-21774504D01*
X-125316918Y-21809821D01*
X-125393651Y-21861092D01*
X-125458908Y-21926349D01*
X-125510179Y-22003082D01*
X-125545496Y-22088344D01*
X-125563500Y-22178857D01*
X-128433388Y-22178857D01*
X-128495153Y-22159014D01*
X-128665699Y-22139400D01*
X-128836795Y-22153434D01*
X-129001866Y-22200578D01*
X-129028290Y-22211523D01*
X-129045680Y-22379913D01*
X-130034320Y-22379913D01*
X-130051710Y-22211523D01*
X-130215153Y-22159014D01*
X-130385699Y-22139400D01*
X-130556795Y-22153434D01*
X-130721866Y-22200578D01*
X-130748290Y-22211523D01*
X-130765680Y-22379913D01*
X-131505687Y-22379913D01*
X-131486500Y-22283455D01*
X-131486500Y-22166545D01*
X-131509308Y-22051882D01*
X-131554047Y-21943872D01*
X-131618998Y-21846666D01*
X-131701666Y-21763998D01*
X-131798872Y-21699047D01*
X-131906882Y-21654308D01*
X-132021545Y-21631500D01*
X-132138455Y-21631500D01*
X-132253118Y-21654308D01*
X-132361128Y-21699047D01*
X-132458334Y-21763998D01*
X-132541002Y-21846666D01*
X-132605953Y-21943872D01*
X-132650692Y-22051882D01*
X-132673500Y-22166545D01*
X-132756500Y-22166545D01*
X-132779308Y-22051882D01*
X-132824047Y-21943872D01*
X-132888998Y-21846666D01*
X-132971666Y-21763998D01*
X-133068872Y-21699047D01*
X-133176882Y-21654308D01*
X-133291545Y-21631500D01*
X-133408455Y-21631500D01*
X-133523118Y-21654308D01*
X-133631128Y-21699047D01*
X-133728334Y-21763998D01*
X-133811002Y-21846666D01*
X-133875953Y-21943872D01*
X-133920692Y-22051882D01*
X-133943500Y-22166545D01*
X-134006490Y-22166545D01*
X-134029298Y-22051882D01*
X-134074037Y-21943872D01*
X-134138988Y-21846666D01*
X-134221656Y-21763998D01*
X-134318862Y-21699047D01*
X-134426872Y-21654308D01*
X-134541535Y-21631500D01*
X-134658445Y-21631500D01*
X-134773108Y-21654308D01*
X-134881118Y-21699047D01*
X-134978324Y-21763998D01*
X-135039500Y-21825174D01*
X-135039500Y-21487224D01*
X-122963500Y-21487224D01*
X-122963500Y-21692776D01*
X-122923399Y-21894378D01*
X-122844738Y-22084283D01*
X-122730539Y-22255192D01*
X-122585192Y-22400539D01*
X-122414283Y-22514738D01*
X-122224378Y-22593399D01*
X-122022776Y-22633500D01*
X-121817224Y-22633500D01*
X-121615622Y-22593399D01*
X-121425717Y-22514738D01*
X-121254808Y-22400539D01*
X-121109461Y-22255192D01*
X-120995262Y-22084283D01*
X-120916601Y-21894378D01*
X-120876500Y-21692776D01*
X-120876500Y-21487224D01*
X-120916601Y-21285622D01*
X-120959738Y-21181478D01*
X-120741541Y-21181478D01*
X-120645810Y-21399500D01*
X-119570500Y-21399500D01*
X-119570500Y-20325646D01*
X-119788520Y-20228467D01*
X-119796759Y-20230957D01*
X-120053887Y-20338376D01*
X-120285118Y-20493894D01*
X-120481566Y-20691535D01*
X-120635681Y-20923704D01*
X-120741541Y-21181478D01*
X-120959738Y-21181478D01*
X-120995262Y-21095717D01*
X-121109461Y-20924808D01*
X-121254808Y-20779461D01*
X-121425717Y-20665262D01*
X-121615622Y-20586601D01*
X-121817224Y-20546500D01*
X-122022776Y-20546500D01*
X-122224378Y-20586601D01*
X-122414283Y-20665262D01*
X-122585192Y-20779461D01*
X-122730539Y-20924808D01*
X-122844738Y-21095717D01*
X-122923399Y-21285622D01*
X-122963500Y-21487224D01*
X-135039500Y-21487224D01*
X-135039500Y-19265500D01*
X-118173500Y-19265500D01*
X-118173500Y-20849614D01*
G36*
X-129494422Y-23336866D02*
G01*
X-129483477Y-23363290D01*
X-129322891Y-23379874D01*
X-129433714Y-23490697D01*
X-129429411Y-23495000D01*
X-129433714Y-23499303D01*
X-129322891Y-23610126D01*
X-129483477Y-23626710D01*
X-129530702Y-23773706D01*
X-129540000Y-23764408D01*
X-129550733Y-23775141D01*
X-129585578Y-23653134D01*
X-129596523Y-23626710D01*
X-129757109Y-23610126D01*
X-129646286Y-23499303D01*
X-129650589Y-23495000D01*
X-129646286Y-23490697D01*
X-129757109Y-23379874D01*
X-129596523Y-23363290D01*
X-129549298Y-23216294D01*
X-129540000Y-23225592D01*
X-129529267Y-23214859D01*
X-129494422Y-23336866D01*
G37*
X-129494422Y-23336866D02*
X-129483477Y-23363290D01*
X-129322891Y-23379874D01*
X-129433714Y-23490697D01*
X-129429411Y-23495000D01*
X-129433714Y-23499303D01*
X-129322891Y-23610126D01*
X-129483477Y-23626710D01*
X-129530702Y-23773706D01*
X-129540000Y-23764408D01*
X-129550733Y-23775141D01*
X-129585578Y-23653134D01*
X-129596523Y-23626710D01*
X-129757109Y-23610126D01*
X-129646286Y-23499303D01*
X-129650589Y-23495000D01*
X-129646286Y-23490697D01*
X-129757109Y-23379874D01*
X-129596523Y-23363290D01*
X-129549298Y-23216294D01*
X-129540000Y-23225592D01*
X-129529267Y-23214859D01*
X-129494422Y-23336866D01*
%TD*%
M02*
