%TF.GenerationSoftware,KiCad,Pcbnew,(5.1.5)-3*%
%TF.CreationDate,2020-11-01T10:27:24+01:00*%
%TF.ProjectId,PmodDAC,506d6f64-4441-4432-9e6b-696361645f70,v0.2*%
%TF.SameCoordinates,Original*%
%TF.FileFunction,Legend,Bot*%
%TF.FilePolarity,Positive*%
%FSLAX46Y46*%
G04 Gerber Fmt 4.6, Leading zero omitted, Abs format (unit mm)*
G04 Created by KiCad (PCBNEW (5.1.5)-3) date 2020-11-01 10:27:24*
%MOMM*%
%LPD*%
G04 APERTURE LIST*
%ADD10C,0.500000*%
G04 APERTURE END LIST*
D10*
X-123079285Y-92852142D02*
X-123626904Y-94385476D01*
X-124174523Y-92852142D01*
X-125488809Y-92085476D02*
X-125707857Y-92085476D01*
X-125926904Y-92195000D01*
X-126036428Y-92304523D01*
X-126145952Y-92523571D01*
X-126255476Y-92961666D01*
X-126255476Y-93509285D01*
X-126145952Y-93947380D01*
X-126036428Y-94166428D01*
X-125926904Y-94275952D01*
X-125707857Y-94385476D01*
X-125488809Y-94385476D01*
X-125269761Y-94275952D01*
X-125160238Y-94166428D01*
X-125050714Y-93947380D01*
X-124941190Y-93509285D01*
X-124941190Y-92961666D01*
X-125050714Y-92523571D01*
X-125160238Y-92304523D01*
X-125269761Y-92195000D01*
X-125488809Y-92085476D01*
X-127241190Y-94166428D02*
X-127350714Y-94275952D01*
X-127241190Y-94385476D01*
X-127131666Y-94275952D01*
X-127241190Y-94166428D01*
X-127241190Y-94385476D01*
X-128226904Y-92304523D02*
X-128336428Y-92195000D01*
X-128555476Y-92085476D01*
X-129103095Y-92085476D01*
X-129322142Y-92195000D01*
X-129431666Y-92304523D01*
X-129541190Y-92523571D01*
X-129541190Y-92742619D01*
X-129431666Y-93071190D01*
X-128117380Y-94385476D01*
X-129541190Y-94385476D01*
X-120724523Y-87925952D02*
X-121053095Y-88035476D01*
X-121600714Y-88035476D01*
X-121819761Y-87925952D01*
X-121929285Y-87816428D01*
X-122038809Y-87597380D01*
X-122038809Y-87378333D01*
X-121929285Y-87159285D01*
X-121819761Y-87049761D01*
X-121600714Y-86940238D01*
X-121162619Y-86830714D01*
X-120943571Y-86721190D01*
X-120834047Y-86611666D01*
X-120724523Y-86392619D01*
X-120724523Y-86173571D01*
X-120834047Y-85954523D01*
X-120943571Y-85845000D01*
X-121162619Y-85735476D01*
X-121710238Y-85735476D01*
X-122038809Y-85845000D01*
X-124338809Y-87816428D02*
X-124229285Y-87925952D01*
X-123900714Y-88035476D01*
X-123681666Y-88035476D01*
X-123353095Y-87925952D01*
X-123134047Y-87706904D01*
X-123024523Y-87487857D01*
X-122915000Y-87049761D01*
X-122915000Y-86721190D01*
X-123024523Y-86283095D01*
X-123134047Y-86064047D01*
X-123353095Y-85845000D01*
X-123681666Y-85735476D01*
X-123900714Y-85735476D01*
X-124229285Y-85845000D01*
X-124338809Y-85954523D01*
X-125324523Y-88035476D02*
X-125324523Y-85735476D01*
X-125324523Y-86830714D02*
X-126638809Y-86830714D01*
X-126638809Y-88035476D02*
X-126638809Y-85735476D01*
X-127734047Y-88035476D02*
X-127734047Y-85735476D01*
X-129924523Y-88035476D02*
X-128829285Y-88035476D01*
X-128829285Y-85735476D01*
X-130691190Y-88035476D02*
X-130691190Y-85735476D01*
X-132005476Y-88035476D02*
X-131019761Y-86721190D01*
X-132005476Y-85735476D02*
X-130691190Y-87049761D01*
M02*
