%TF.GenerationSoftware,KiCad,Pcbnew,(5.1.5)-3*%
%TF.CreationDate,2020-11-01T10:25:43+01:00*%
%TF.ProjectId,PmodADC,506d6f64-4144-4432-9e6b-696361645f70,v0.2*%
%TF.SameCoordinates,Original*%
%TF.FileFunction,Copper,L3,Inr*%
%TF.FilePolarity,Positive*%
%FSLAX46Y46*%
G04 Gerber Fmt 4.6, Leading zero omitted, Abs format (unit mm)*
G04 Created by KiCad (PCBNEW (5.1.5)-3) date 2020-11-01 10:25:43*
%MOMM*%
%LPD*%
G04 APERTURE LIST*
%TA.AperFunction,ViaPad*%
%ADD10C,0.600000*%
%TD*%
%TA.AperFunction,WasherPad*%
%ADD11C,4.000000*%
%TD*%
%TA.AperFunction,ViaPad*%
%ADD12C,1.800000*%
%TD*%
%TA.AperFunction,ViaPad*%
%ADD13O,1.700000X1.700000*%
%TD*%
%TA.AperFunction,ViaPad*%
%ADD14R,1.700000X1.700000*%
%TD*%
%TA.AperFunction,ViaPad*%
%ADD15C,1.200000*%
%TD*%
%TA.AperFunction,ViaPad*%
%ADD16R,1.200000X1.200000*%
%TD*%
%TA.AperFunction,ViaPad*%
%ADD17C,0.550000*%
%TD*%
%TA.AperFunction,ViaPad*%
%ADD18C,0.800000*%
%TD*%
%TA.AperFunction,Conductor*%
%ADD19C,0.500000*%
%TD*%
%TA.AperFunction,Conductor*%
%ADD20C,0.254000*%
%TD*%
G04 APERTURE END LIST*
D10*
%TO.N,GND*%
%TO.C,U4*%
X-112395000Y-23495000D03*
X-113255000Y-23975000D03*
X-111535000Y-23975000D03*
X-113255000Y-23015000D03*
X-111535000Y-23015000D03*
%TD*%
D11*
%TO.N,*%
%TO.C,R40*%
X-125850000Y-96865000D03*
X-125850000Y-87365000D03*
D12*
%TO.N,Net-(R40-Pad1)*%
X-133350000Y-94615000D03*
%TO.N,Net-(R39-Pad2)*%
X-133350000Y-92115000D03*
%TO.N,N/C*%
X-133350000Y-89615000D03*
%TD*%
D13*
%TO.N,+3V3*%
%TO.C,J3*%
X-132715000Y-24130000D03*
X-132715000Y-21590000D03*
%TO.N,GNDA*%
X-130175000Y-24130000D03*
%TO.N,GND*%
X-130175000Y-21590000D03*
%TO.N,/COMP_3V*%
X-127635000Y-24130000D03*
%TO.N,/S&H_3V*%
X-127635000Y-21590000D03*
%TO.N,/COMP_L_3V*%
X-125095000Y-24130000D03*
%TO.N,/ADC_S_3V*%
X-125095000Y-21590000D03*
%TO.N,Net-(J3-Pad4)*%
X-122555000Y-24130000D03*
%TO.N,/ADC_C_3V*%
X-122555000Y-21590000D03*
%TO.N,Net-(J3-Pad2)*%
X-120015000Y-24130000D03*
D14*
%TO.N,/ADC_L_3V*%
X-120015000Y-21590000D03*
%TD*%
D13*
%TO.N,Net-(C16-Pad1)*%
%TO.C,J1*%
X-109220000Y-94615000D03*
D14*
%TO.N,GNDA*%
X-109220000Y-97155000D03*
%TD*%
D15*
%TO.N,Net-(C23-Pad1)*%
%TO.C,C26*%
X-122174000Y-65810000D03*
D16*
%TO.N,Net-(C26-Pad1)*%
X-122174000Y-67310000D03*
%TD*%
%TO.N,Net-(C16-Pad1)*%
%TO.C,C16*%
X-130175000Y-80010000D03*
D15*
%TO.N,/DI*%
X-130175000Y-78510000D03*
%TD*%
D17*
%TO.N,GND*%
X-127635000Y-46355000D03*
D18*
X-133985000Y-40640000D03*
X-127000000Y-39370000D03*
X-124460000Y-43180000D03*
X-123190000Y-41910000D03*
X-132080000Y-46355000D03*
X-125095000Y-50800000D03*
X-124460000Y-47625000D03*
X-116205000Y-24765000D03*
X-116840000Y-31750000D03*
X-114300000Y-31750000D03*
X-108585000Y-29210000D03*
X-109855000Y-22225000D03*
X-109855000Y-19685000D03*
X-127000000Y-41930010D03*
X-117454990Y-46355000D03*
X-131445000Y-35560000D03*
X-133350000Y-35560000D03*
X-130810000Y-29845000D03*
X-128905000Y-29845000D03*
%TO.N,+3V3*%
X-124460000Y-39370000D03*
%TO.N,/Vref_5V*%
X-123190000Y-55880000D03*
X-109855000Y-52705000D03*
X-117475000Y-65405000D03*
X-114784948Y-53340000D03*
D17*
%TO.N,Net-(C16-Pad1)*%
X-126365000Y-83820000D03*
X-126365000Y-80645000D03*
D18*
%TO.N,+5VA*%
X-125095000Y-37465000D03*
X-125095000Y-36195000D03*
X-113030000Y-63500000D03*
D17*
%TO.N,Net-(C23-Pad1)*%
X-130810000Y-64135000D03*
X-130765394Y-67191974D03*
D18*
%TO.N,+9V*%
X-129540000Y-70485000D03*
X-116840000Y-76200000D03*
X-109220000Y-35560000D03*
X-109220000Y-36830000D03*
X-114935000Y-48895000D03*
X-109220000Y-38100000D03*
%TO.N,-5V*%
X-126365000Y-74930000D03*
D17*
X-109855000Y-78105000D03*
D18*
X-118110000Y-40005000D03*
X-118110000Y-38735000D03*
X-118110000Y-37465000D03*
D17*
%TO.N,+5V*%
X-118110000Y-45720000D03*
X-125730000Y-46355000D03*
D18*
X-122555000Y-38735000D03*
X-121285000Y-38735000D03*
X-123190000Y-52070000D03*
X-131445000Y-52070000D03*
D17*
%TO.N,/COMP_3V*%
X-116840000Y-26035000D03*
X-120285010Y-38093016D03*
%TO.N,/S&H_3V*%
X-130810000Y-36830000D03*
%TO.N,/COMP_L_3V*%
X-131445000Y-37465000D03*
X-131445000Y-22860000D03*
%TO.N,/ADC_S_3V*%
X-129540000Y-36830000D03*
%TO.N,/ADC_C_3V*%
X-128270000Y-36830000D03*
%TO.N,/ADC_L_3V*%
X-127635000Y-37465000D03*
%TO.N,Net-(JP7-Pad1)*%
X-111125000Y-73025000D03*
%TO.N,Net-(R2-Pad1)*%
X-109855000Y-25400000D03*
X-107950000Y-22225000D03*
%TO.N,Net-(R39-Pad2)*%
X-128270000Y-76835000D03*
%TO.N,Net-(R40-Pad1)*%
X-132080000Y-74930000D03*
%TO.N,/S&H*%
X-114935000Y-69850000D03*
X-109220000Y-65405000D03*
X-130810000Y-43180000D03*
%TO.N,Net-(U1-Pad9)*%
X-120650000Y-46639998D03*
X-125095000Y-46990000D03*
%TO.N,/ADC_C*%
X-127635000Y-43815000D03*
X-118795010Y-46355000D03*
X-126410013Y-46355000D03*
%TO.N,/ADC_L*%
X-119380000Y-45720000D03*
X-127000000Y-43180000D03*
X-126766051Y-45690012D03*
%TO.N,/ADC_S*%
X-129540000Y-43815000D03*
X-128315013Y-46355000D03*
%TO.N,Net-(U1-Pad15)*%
X-129540000Y-51435000D03*
X-129540000Y-46990000D03*
%TO.N,Net-(U2-Pad15)*%
X-121920000Y-51435000D03*
X-121920000Y-47170008D03*
%TO.N,/COMP*%
X-120650000Y-43815000D03*
X-109315002Y-56515000D03*
%TO.N,/COMP_L*%
X-109315002Y-57785000D03*
X-131490013Y-43180000D03*
D18*
%TO.N,GNDA*%
X-111887000Y-44712000D03*
X-108331000Y-66683000D03*
X-108331000Y-72779000D03*
X-108331000Y-78875000D03*
X-133477000Y-54618000D03*
X-133477000Y-60841000D03*
X-133477000Y-66683000D03*
X-133477000Y-72779000D03*
X-133477000Y-78875000D03*
X-129794000Y-82685000D03*
X-123825000Y-82685000D03*
X-117729000Y-82685000D03*
X-130175000Y-76200000D03*
X-116205000Y-80645000D03*
X-109855000Y-81280000D03*
X-125095000Y-79375000D03*
X-125095000Y-74930000D03*
X-125730000Y-67945000D03*
X-119380000Y-62230000D03*
X-115570000Y-62865000D03*
X-115570000Y-59055000D03*
X-114300000Y-54610000D03*
X-116205000Y-52705000D03*
X-130810000Y-53340000D03*
X-124460000Y-55880000D03*
X-111125000Y-59055000D03*
X-118745000Y-64770000D03*
X-115570000Y-64770000D03*
X-114300000Y-68580000D03*
X-114300000Y-73660000D03*
D17*
X-130810000Y-60960000D03*
D18*
X-118745000Y-27940000D03*
X-121920000Y-34290000D03*
X-118745000Y-35560000D03*
X-114300000Y-38100000D03*
X-116205000Y-38100000D03*
X-111125000Y-40640000D03*
X-113030000Y-37465000D03*
X-114935000Y-33020000D03*
X-120015000Y-30459990D03*
X-122040010Y-37469939D03*
X-111125000Y-37465000D03*
X-108980010Y-39370000D03*
X-123918328Y-52798328D03*
X-111760000Y-82685000D03*
X-131049990Y-67945000D03*
X-112395000Y-46375010D03*
%TD*%
D19*
%TO.N,GND*%
X-116840000Y-31750000D02*
X-114300000Y-31750000D01*
X-114300000Y-31750000D02*
X-114300000Y-29845000D01*
X-109220000Y-29845000D02*
X-108585000Y-29210000D01*
X-114300000Y-29845000D02*
X-109220000Y-29845000D01*
%TD*%
D20*
%TO.N,GNDA*%
G36*
X-126278693Y-23770931D02*
G01*
X-126326000Y-24008757D01*
X-126326000Y-24251243D01*
X-126278693Y-24489069D01*
X-126185898Y-24713097D01*
X-126051180Y-24914717D01*
X-125879717Y-25086180D01*
X-125678097Y-25220898D01*
X-125454069Y-25313693D01*
X-125216243Y-25361000D01*
X-124973757Y-25361000D01*
X-124735931Y-25313693D01*
X-124511903Y-25220898D01*
X-124310283Y-25086180D01*
X-124138820Y-24914717D01*
X-124004102Y-24713097D01*
X-123911307Y-24489069D01*
X-123864000Y-24251243D01*
X-123864000Y-24008757D01*
X-123911307Y-23770931D01*
X-123972996Y-23622000D01*
X-123677004Y-23622000D01*
X-123738693Y-23770931D01*
X-123786000Y-24008757D01*
X-123786000Y-24251243D01*
X-123738693Y-24489069D01*
X-123645898Y-24713097D01*
X-123511180Y-24914717D01*
X-123339717Y-25086180D01*
X-123138097Y-25220898D01*
X-122914069Y-25313693D01*
X-122676243Y-25361000D01*
X-122433757Y-25361000D01*
X-122195931Y-25313693D01*
X-121971903Y-25220898D01*
X-121770283Y-25086180D01*
X-121598820Y-24914717D01*
X-121464102Y-24713097D01*
X-121371307Y-24489069D01*
X-121324000Y-24251243D01*
X-121324000Y-24008757D01*
X-121371307Y-23770931D01*
X-121432996Y-23622000D01*
X-121137004Y-23622000D01*
X-121198693Y-23770931D01*
X-121246000Y-24008757D01*
X-121246000Y-24251243D01*
X-121198693Y-24489069D01*
X-121105898Y-24713097D01*
X-120971180Y-24914717D01*
X-120799717Y-25086180D01*
X-120598097Y-25220898D01*
X-120374069Y-25313693D01*
X-120136243Y-25361000D01*
X-119893757Y-25361000D01*
X-119655931Y-25313693D01*
X-119431903Y-25220898D01*
X-119230283Y-25086180D01*
X-119058820Y-24914717D01*
X-118924102Y-24713097D01*
X-118831307Y-24489069D01*
X-118784000Y-24251243D01*
X-118784000Y-24008757D01*
X-118831307Y-23770931D01*
X-118892996Y-23622000D01*
X-118237000Y-23622000D01*
X-118237000Y-32385000D01*
X-118234560Y-32409776D01*
X-118227333Y-32433601D01*
X-118215597Y-32455557D01*
X-118199803Y-32474803D01*
X-118180557Y-32490597D01*
X-118158601Y-32502333D01*
X-118134776Y-32509560D01*
X-118110000Y-32512000D01*
X-117012442Y-32512000D01*
X-116916922Y-32531000D01*
X-116763078Y-32531000D01*
X-116667558Y-32512000D01*
X-114472442Y-32512000D01*
X-114376922Y-32531000D01*
X-114223078Y-32531000D01*
X-114127558Y-32512000D01*
X-107085999Y-32512000D01*
X-107086000Y-59709940D01*
X-107085999Y-59709950D01*
X-107086000Y-81299940D01*
X-107085999Y-81299950D01*
X-107086000Y-99289000D01*
X-134849000Y-99289000D01*
X-134849000Y-96630492D01*
X-128231000Y-96630492D01*
X-128231000Y-97099508D01*
X-128139500Y-97559512D01*
X-127960015Y-97992827D01*
X-127699444Y-98382799D01*
X-127367799Y-98714444D01*
X-126977827Y-98975015D01*
X-126544512Y-99154500D01*
X-126084508Y-99246000D01*
X-125615492Y-99246000D01*
X-125155488Y-99154500D01*
X-124722173Y-98975015D01*
X-124332201Y-98714444D01*
X-124000556Y-98382799D01*
X-123748119Y-98005000D01*
X-110708072Y-98005000D01*
X-110695812Y-98129482D01*
X-110659502Y-98249180D01*
X-110600537Y-98359494D01*
X-110521185Y-98456185D01*
X-110424494Y-98535537D01*
X-110314180Y-98594502D01*
X-110194482Y-98630812D01*
X-110070000Y-98643072D01*
X-109505750Y-98640000D01*
X-109347000Y-98481250D01*
X-109347000Y-97282000D01*
X-109093000Y-97282000D01*
X-109093000Y-98481250D01*
X-108934250Y-98640000D01*
X-108370000Y-98643072D01*
X-108245518Y-98630812D01*
X-108125820Y-98594502D01*
X-108015506Y-98535537D01*
X-107918815Y-98456185D01*
X-107839463Y-98359494D01*
X-107780498Y-98249180D01*
X-107744188Y-98129482D01*
X-107731928Y-98005000D01*
X-107735000Y-97440750D01*
X-107893750Y-97282000D01*
X-109093000Y-97282000D01*
X-109347000Y-97282000D01*
X-110546250Y-97282000D01*
X-110705000Y-97440750D01*
X-110708072Y-98005000D01*
X-123748119Y-98005000D01*
X-123739985Y-97992827D01*
X-123560500Y-97559512D01*
X-123469000Y-97099508D01*
X-123469000Y-96630492D01*
X-123513135Y-96408606D01*
X-116701000Y-96408606D01*
X-116701000Y-96631394D01*
X-116657536Y-96849900D01*
X-116572279Y-97055729D01*
X-116448505Y-97240970D01*
X-116290970Y-97398505D01*
X-116105729Y-97522279D01*
X-115899900Y-97607536D01*
X-115681394Y-97651000D01*
X-115458606Y-97651000D01*
X-115240100Y-97607536D01*
X-115034271Y-97522279D01*
X-114849030Y-97398505D01*
X-114691495Y-97240970D01*
X-114567721Y-97055729D01*
X-114482464Y-96849900D01*
X-114439000Y-96631394D01*
X-114439000Y-96408606D01*
X-114459608Y-96305000D01*
X-110708072Y-96305000D01*
X-110705000Y-96869250D01*
X-110546250Y-97028000D01*
X-109347000Y-97028000D01*
X-109347000Y-97008000D01*
X-109093000Y-97008000D01*
X-109093000Y-97028000D01*
X-107893750Y-97028000D01*
X-107735000Y-96869250D01*
X-107731928Y-96305000D01*
X-107744188Y-96180518D01*
X-107780498Y-96060820D01*
X-107839463Y-95950506D01*
X-107918815Y-95853815D01*
X-108015506Y-95774463D01*
X-108125820Y-95715498D01*
X-108245518Y-95679188D01*
X-108370000Y-95666928D01*
X-108580294Y-95668073D01*
X-108435283Y-95571180D01*
X-108263820Y-95399717D01*
X-108129102Y-95198097D01*
X-108036307Y-94974069D01*
X-107989000Y-94736243D01*
X-107989000Y-94493757D01*
X-108036307Y-94255931D01*
X-108129102Y-94031903D01*
X-108263820Y-93830283D01*
X-108435283Y-93658820D01*
X-108636903Y-93524102D01*
X-108860931Y-93431307D01*
X-109098757Y-93384000D01*
X-109341243Y-93384000D01*
X-109579069Y-93431307D01*
X-109803097Y-93524102D01*
X-110004717Y-93658820D01*
X-110176180Y-93830283D01*
X-110310898Y-94031903D01*
X-110403693Y-94255931D01*
X-110451000Y-94493757D01*
X-110451000Y-94736243D01*
X-110403693Y-94974069D01*
X-110310898Y-95198097D01*
X-110176180Y-95399717D01*
X-110004717Y-95571180D01*
X-109859706Y-95668073D01*
X-110070000Y-95666928D01*
X-110194482Y-95679188D01*
X-110314180Y-95715498D01*
X-110424494Y-95774463D01*
X-110521185Y-95853815D01*
X-110600537Y-95950506D01*
X-110659502Y-96060820D01*
X-110695812Y-96180518D01*
X-110708072Y-96305000D01*
X-114459608Y-96305000D01*
X-114482464Y-96190100D01*
X-114567721Y-95984271D01*
X-114691495Y-95799030D01*
X-114849030Y-95641495D01*
X-115034271Y-95517721D01*
X-115240100Y-95432464D01*
X-115458606Y-95389000D01*
X-115681394Y-95389000D01*
X-115899900Y-95432464D01*
X-116105729Y-95517721D01*
X-116290970Y-95641495D01*
X-116448505Y-95799030D01*
X-116572279Y-95984271D01*
X-116657536Y-96190100D01*
X-116701000Y-96408606D01*
X-123513135Y-96408606D01*
X-123560500Y-96170488D01*
X-123739985Y-95737173D01*
X-124000556Y-95347201D01*
X-124332201Y-95015556D01*
X-124722173Y-94754985D01*
X-125155488Y-94575500D01*
X-125615492Y-94484000D01*
X-126084508Y-94484000D01*
X-126544512Y-94575500D01*
X-126977827Y-94754985D01*
X-127367799Y-95015556D01*
X-127699444Y-95347201D01*
X-127960015Y-95737173D01*
X-128139500Y-96170488D01*
X-128231000Y-96630492D01*
X-134849000Y-96630492D01*
X-134849000Y-89488833D01*
X-134631000Y-89488833D01*
X-134631000Y-89741167D01*
X-134581772Y-89988654D01*
X-134485207Y-90221781D01*
X-134345018Y-90431590D01*
X-134166590Y-90610018D01*
X-133956781Y-90750207D01*
X-133723654Y-90846772D01*
X-133632015Y-90865000D01*
X-133723654Y-90883228D01*
X-133956781Y-90979793D01*
X-134166590Y-91119982D01*
X-134345018Y-91298410D01*
X-134485207Y-91508219D01*
X-134581772Y-91741346D01*
X-134631000Y-91988833D01*
X-134631000Y-92241167D01*
X-134581772Y-92488654D01*
X-134485207Y-92721781D01*
X-134345018Y-92931590D01*
X-134166590Y-93110018D01*
X-133956781Y-93250207D01*
X-133723654Y-93346772D01*
X-133632015Y-93365000D01*
X-133723654Y-93383228D01*
X-133956781Y-93479793D01*
X-134166590Y-93619982D01*
X-134345018Y-93798410D01*
X-134485207Y-94008219D01*
X-134581772Y-94241346D01*
X-134631000Y-94488833D01*
X-134631000Y-94741167D01*
X-134581772Y-94988654D01*
X-134485207Y-95221781D01*
X-134345018Y-95431590D01*
X-134166590Y-95610018D01*
X-133956781Y-95750207D01*
X-133723654Y-95846772D01*
X-133476167Y-95896000D01*
X-133223833Y-95896000D01*
X-132976346Y-95846772D01*
X-132743219Y-95750207D01*
X-132533410Y-95610018D01*
X-132354982Y-95431590D01*
X-132214793Y-95221781D01*
X-132118228Y-94988654D01*
X-132069000Y-94741167D01*
X-132069000Y-94488833D01*
X-132118228Y-94241346D01*
X-132214793Y-94008219D01*
X-132354982Y-93798410D01*
X-132533410Y-93619982D01*
X-132743219Y-93479793D01*
X-132976346Y-93383228D01*
X-133067985Y-93365000D01*
X-132976346Y-93346772D01*
X-132743219Y-93250207D01*
X-132533410Y-93110018D01*
X-132354982Y-92931590D01*
X-132214793Y-92721781D01*
X-132118228Y-92488654D01*
X-132069000Y-92241167D01*
X-132069000Y-91988833D01*
X-132118228Y-91741346D01*
X-132214793Y-91508219D01*
X-132354982Y-91298410D01*
X-132533410Y-91119982D01*
X-132743219Y-90979793D01*
X-132976346Y-90883228D01*
X-133067985Y-90865000D01*
X-132976346Y-90846772D01*
X-132743219Y-90750207D01*
X-132533410Y-90610018D01*
X-132354982Y-90431590D01*
X-132339625Y-90408606D01*
X-116701000Y-90408606D01*
X-116701000Y-90631394D01*
X-116657536Y-90849900D01*
X-116572279Y-91055729D01*
X-116448505Y-91240970D01*
X-116290970Y-91398505D01*
X-116105729Y-91522279D01*
X-115899900Y-91607536D01*
X-115681394Y-91651000D01*
X-115458606Y-91651000D01*
X-115240100Y-91607536D01*
X-115034271Y-91522279D01*
X-114849030Y-91398505D01*
X-114691495Y-91240970D01*
X-114567721Y-91055729D01*
X-114482464Y-90849900D01*
X-114439000Y-90631394D01*
X-114439000Y-90408606D01*
X-114482464Y-90190100D01*
X-114567721Y-89984271D01*
X-114691495Y-89799030D01*
X-114849030Y-89641495D01*
X-115034271Y-89517721D01*
X-115240100Y-89432464D01*
X-115458606Y-89389000D01*
X-115681394Y-89389000D01*
X-115899900Y-89432464D01*
X-116105729Y-89517721D01*
X-116290970Y-89641495D01*
X-116448505Y-89799030D01*
X-116572279Y-89984271D01*
X-116657536Y-90190100D01*
X-116701000Y-90408606D01*
X-132339625Y-90408606D01*
X-132214793Y-90221781D01*
X-132118228Y-89988654D01*
X-132069000Y-89741167D01*
X-132069000Y-89488833D01*
X-132118228Y-89241346D01*
X-132214793Y-89008219D01*
X-132354982Y-88798410D01*
X-132533410Y-88619982D01*
X-132743219Y-88479793D01*
X-132976346Y-88383228D01*
X-133223833Y-88334000D01*
X-133476167Y-88334000D01*
X-133723654Y-88383228D01*
X-133956781Y-88479793D01*
X-134166590Y-88619982D01*
X-134345018Y-88798410D01*
X-134485207Y-89008219D01*
X-134581772Y-89241346D01*
X-134631000Y-89488833D01*
X-134849000Y-89488833D01*
X-134849000Y-87130492D01*
X-128231000Y-87130492D01*
X-128231000Y-87599508D01*
X-128139500Y-88059512D01*
X-127960015Y-88492827D01*
X-127699444Y-88882799D01*
X-127367799Y-89214444D01*
X-126977827Y-89475015D01*
X-126544512Y-89654500D01*
X-126084508Y-89746000D01*
X-125615492Y-89746000D01*
X-125155488Y-89654500D01*
X-124722173Y-89475015D01*
X-124332201Y-89214444D01*
X-124000556Y-88882799D01*
X-123739985Y-88492827D01*
X-123560500Y-88059512D01*
X-123469000Y-87599508D01*
X-123469000Y-87130492D01*
X-123560500Y-86670488D01*
X-123739985Y-86237173D01*
X-124000556Y-85847201D01*
X-124332201Y-85515556D01*
X-124722173Y-85254985D01*
X-125155488Y-85075500D01*
X-125615492Y-84984000D01*
X-126084508Y-84984000D01*
X-126544512Y-85075500D01*
X-126977827Y-85254985D01*
X-127367799Y-85515556D01*
X-127699444Y-85847201D01*
X-127960015Y-86237173D01*
X-128139500Y-86670488D01*
X-128231000Y-87130492D01*
X-134849000Y-87130492D01*
X-134849000Y-83755390D01*
X-127021000Y-83755390D01*
X-127021000Y-83884610D01*
X-126995790Y-84011348D01*
X-126946340Y-84130732D01*
X-126874548Y-84238176D01*
X-126783176Y-84329548D01*
X-126675732Y-84401340D01*
X-126556348Y-84450790D01*
X-126429610Y-84476000D01*
X-126300390Y-84476000D01*
X-126173652Y-84450790D01*
X-126054268Y-84401340D01*
X-125946824Y-84329548D01*
X-125855452Y-84238176D01*
X-125783660Y-84130732D01*
X-125734210Y-84011348D01*
X-125709000Y-83884610D01*
X-125709000Y-83755390D01*
X-125734210Y-83628652D01*
X-125783660Y-83509268D01*
X-125855452Y-83401824D01*
X-125946824Y-83310452D01*
X-126054268Y-83238660D01*
X-126173652Y-83189210D01*
X-126300390Y-83164000D01*
X-126429610Y-83164000D01*
X-126556348Y-83189210D01*
X-126675732Y-83238660D01*
X-126783176Y-83310452D01*
X-126874548Y-83401824D01*
X-126946340Y-83509268D01*
X-126995790Y-83628652D01*
X-127021000Y-83755390D01*
X-134849000Y-83755390D01*
X-134849000Y-79410000D01*
X-131157843Y-79410000D01*
X-131157843Y-80610000D01*
X-131150487Y-80684689D01*
X-131128701Y-80756508D01*
X-131093322Y-80822696D01*
X-131045711Y-80880711D01*
X-130987696Y-80928322D01*
X-130921508Y-80963701D01*
X-130849689Y-80985487D01*
X-130775000Y-80992843D01*
X-129575000Y-80992843D01*
X-129500311Y-80985487D01*
X-129428492Y-80963701D01*
X-129362304Y-80928322D01*
X-129304289Y-80880711D01*
X-129256678Y-80822696D01*
X-129221299Y-80756508D01*
X-129199513Y-80684689D01*
X-129192157Y-80610000D01*
X-129192157Y-80580390D01*
X-127021000Y-80580390D01*
X-127021000Y-80709610D01*
X-126995790Y-80836348D01*
X-126946340Y-80955732D01*
X-126874548Y-81063176D01*
X-126783176Y-81154548D01*
X-126675732Y-81226340D01*
X-126556348Y-81275790D01*
X-126429610Y-81301000D01*
X-126300390Y-81301000D01*
X-126173652Y-81275790D01*
X-126054268Y-81226340D01*
X-125946824Y-81154548D01*
X-125855452Y-81063176D01*
X-125783660Y-80955732D01*
X-125734210Y-80836348D01*
X-125709000Y-80709610D01*
X-125709000Y-80580390D01*
X-125734210Y-80453652D01*
X-125783660Y-80334268D01*
X-125855452Y-80226824D01*
X-125946824Y-80135452D01*
X-126054268Y-80063660D01*
X-126173652Y-80014210D01*
X-126300390Y-79989000D01*
X-126429610Y-79989000D01*
X-126556348Y-80014210D01*
X-126675732Y-80063660D01*
X-126783176Y-80135452D01*
X-126874548Y-80226824D01*
X-126946340Y-80334268D01*
X-126995790Y-80453652D01*
X-127021000Y-80580390D01*
X-129192157Y-80580390D01*
X-129192157Y-79410000D01*
X-129199513Y-79335311D01*
X-129221299Y-79263492D01*
X-129256678Y-79197304D01*
X-129304289Y-79139289D01*
X-129362304Y-79091678D01*
X-129378162Y-79083202D01*
X-129305649Y-78974678D01*
X-129231699Y-78796147D01*
X-129194000Y-78606620D01*
X-129194000Y-78413380D01*
X-129231699Y-78223853D01*
X-129305649Y-78045322D01*
X-129308944Y-78040390D01*
X-110511000Y-78040390D01*
X-110511000Y-78169610D01*
X-110485790Y-78296348D01*
X-110436340Y-78415732D01*
X-110364548Y-78523176D01*
X-110273176Y-78614548D01*
X-110165732Y-78686340D01*
X-110046348Y-78735790D01*
X-109919610Y-78761000D01*
X-109790390Y-78761000D01*
X-109663652Y-78735790D01*
X-109544268Y-78686340D01*
X-109436824Y-78614548D01*
X-109345452Y-78523176D01*
X-109273660Y-78415732D01*
X-109224210Y-78296348D01*
X-109199000Y-78169610D01*
X-109199000Y-78040390D01*
X-109224210Y-77913652D01*
X-109273660Y-77794268D01*
X-109345452Y-77686824D01*
X-109436824Y-77595452D01*
X-109544268Y-77523660D01*
X-109663652Y-77474210D01*
X-109790390Y-77449000D01*
X-109919610Y-77449000D01*
X-110046348Y-77474210D01*
X-110165732Y-77523660D01*
X-110273176Y-77595452D01*
X-110364548Y-77686824D01*
X-110436340Y-77794268D01*
X-110485790Y-77913652D01*
X-110511000Y-78040390D01*
X-129308944Y-78040390D01*
X-129413007Y-77884649D01*
X-129549649Y-77748007D01*
X-129710322Y-77640649D01*
X-129888853Y-77566699D01*
X-130078380Y-77529000D01*
X-130271620Y-77529000D01*
X-130461147Y-77566699D01*
X-130639678Y-77640649D01*
X-130800351Y-77748007D01*
X-130936993Y-77884649D01*
X-131044351Y-78045322D01*
X-131118301Y-78223853D01*
X-131156000Y-78413380D01*
X-131156000Y-78606620D01*
X-131118301Y-78796147D01*
X-131044351Y-78974678D01*
X-130971838Y-79083202D01*
X-130987696Y-79091678D01*
X-131045711Y-79139289D01*
X-131093322Y-79197304D01*
X-131128701Y-79263492D01*
X-131150487Y-79335311D01*
X-131157843Y-79410000D01*
X-134849000Y-79410000D01*
X-134849000Y-76770390D01*
X-128926000Y-76770390D01*
X-128926000Y-76899610D01*
X-128900790Y-77026348D01*
X-128851340Y-77145732D01*
X-128779548Y-77253176D01*
X-128688176Y-77344548D01*
X-128580732Y-77416340D01*
X-128461348Y-77465790D01*
X-128334610Y-77491000D01*
X-128205390Y-77491000D01*
X-128078652Y-77465790D01*
X-127959268Y-77416340D01*
X-127851824Y-77344548D01*
X-127760452Y-77253176D01*
X-127688660Y-77145732D01*
X-127639210Y-77026348D01*
X-127614000Y-76899610D01*
X-127614000Y-76770390D01*
X-127639210Y-76643652D01*
X-127688660Y-76524268D01*
X-127760452Y-76416824D01*
X-127851824Y-76325452D01*
X-127959268Y-76253660D01*
X-128078652Y-76204210D01*
X-128205390Y-76179000D01*
X-128334610Y-76179000D01*
X-128461348Y-76204210D01*
X-128580732Y-76253660D01*
X-128688176Y-76325452D01*
X-128779548Y-76416824D01*
X-128851340Y-76524268D01*
X-128900790Y-76643652D01*
X-128926000Y-76770390D01*
X-134849000Y-76770390D01*
X-134849000Y-76123078D01*
X-117621000Y-76123078D01*
X-117621000Y-76276922D01*
X-117590987Y-76427809D01*
X-117532113Y-76569942D01*
X-117446642Y-76697859D01*
X-117337859Y-76806642D01*
X-117209942Y-76892113D01*
X-117067809Y-76950987D01*
X-116916922Y-76981000D01*
X-116763078Y-76981000D01*
X-116612191Y-76950987D01*
X-116470058Y-76892113D01*
X-116342141Y-76806642D01*
X-116233358Y-76697859D01*
X-116147887Y-76569942D01*
X-116089013Y-76427809D01*
X-116059000Y-76276922D01*
X-116059000Y-76123078D01*
X-116089013Y-75972191D01*
X-116147887Y-75830058D01*
X-116233358Y-75702141D01*
X-116342141Y-75593358D01*
X-116470058Y-75507887D01*
X-116612191Y-75449013D01*
X-116763078Y-75419000D01*
X-116916922Y-75419000D01*
X-117067809Y-75449013D01*
X-117209942Y-75507887D01*
X-117337859Y-75593358D01*
X-117446642Y-75702141D01*
X-117532113Y-75830058D01*
X-117590987Y-75972191D01*
X-117621000Y-76123078D01*
X-134849000Y-76123078D01*
X-134849000Y-74865390D01*
X-132736000Y-74865390D01*
X-132736000Y-74994610D01*
X-132710790Y-75121348D01*
X-132661340Y-75240732D01*
X-132589548Y-75348176D01*
X-132498176Y-75439548D01*
X-132390732Y-75511340D01*
X-132271348Y-75560790D01*
X-132144610Y-75586000D01*
X-132015390Y-75586000D01*
X-131888652Y-75560790D01*
X-131769268Y-75511340D01*
X-131661824Y-75439548D01*
X-131570452Y-75348176D01*
X-131498660Y-75240732D01*
X-131449210Y-75121348D01*
X-131424000Y-74994610D01*
X-131424000Y-74865390D01*
X-131426449Y-74853078D01*
X-127146000Y-74853078D01*
X-127146000Y-75006922D01*
X-127115987Y-75157809D01*
X-127057113Y-75299942D01*
X-126971642Y-75427859D01*
X-126862859Y-75536642D01*
X-126734942Y-75622113D01*
X-126592809Y-75680987D01*
X-126441922Y-75711000D01*
X-126288078Y-75711000D01*
X-126137191Y-75680987D01*
X-125995058Y-75622113D01*
X-125867141Y-75536642D01*
X-125758358Y-75427859D01*
X-125672887Y-75299942D01*
X-125614013Y-75157809D01*
X-125584000Y-75006922D01*
X-125584000Y-74853078D01*
X-125614013Y-74702191D01*
X-125672887Y-74560058D01*
X-125758358Y-74432141D01*
X-125867141Y-74323358D01*
X-125995058Y-74237887D01*
X-126137191Y-74179013D01*
X-126288078Y-74149000D01*
X-126441922Y-74149000D01*
X-126592809Y-74179013D01*
X-126734942Y-74237887D01*
X-126862859Y-74323358D01*
X-126971642Y-74432141D01*
X-127057113Y-74560058D01*
X-127115987Y-74702191D01*
X-127146000Y-74853078D01*
X-131426449Y-74853078D01*
X-131449210Y-74738652D01*
X-131498660Y-74619268D01*
X-131570452Y-74511824D01*
X-131661824Y-74420452D01*
X-131769268Y-74348660D01*
X-131888652Y-74299210D01*
X-132015390Y-74274000D01*
X-132144610Y-74274000D01*
X-132271348Y-74299210D01*
X-132390732Y-74348660D01*
X-132498176Y-74420452D01*
X-132589548Y-74511824D01*
X-132661340Y-74619268D01*
X-132710790Y-74738652D01*
X-132736000Y-74865390D01*
X-134849000Y-74865390D01*
X-134849000Y-72960390D01*
X-111781000Y-72960390D01*
X-111781000Y-73089610D01*
X-111755790Y-73216348D01*
X-111706340Y-73335732D01*
X-111634548Y-73443176D01*
X-111543176Y-73534548D01*
X-111435732Y-73606340D01*
X-111316348Y-73655790D01*
X-111189610Y-73681000D01*
X-111060390Y-73681000D01*
X-110933652Y-73655790D01*
X-110814268Y-73606340D01*
X-110706824Y-73534548D01*
X-110615452Y-73443176D01*
X-110543660Y-73335732D01*
X-110494210Y-73216348D01*
X-110469000Y-73089610D01*
X-110469000Y-72960390D01*
X-110494210Y-72833652D01*
X-110543660Y-72714268D01*
X-110615452Y-72606824D01*
X-110706824Y-72515452D01*
X-110814268Y-72443660D01*
X-110933652Y-72394210D01*
X-111060390Y-72369000D01*
X-111189610Y-72369000D01*
X-111316348Y-72394210D01*
X-111435732Y-72443660D01*
X-111543176Y-72515452D01*
X-111634548Y-72606824D01*
X-111706340Y-72714268D01*
X-111755790Y-72833652D01*
X-111781000Y-72960390D01*
X-134849000Y-72960390D01*
X-134849000Y-70408078D01*
X-130321000Y-70408078D01*
X-130321000Y-70561922D01*
X-130290987Y-70712809D01*
X-130232113Y-70854942D01*
X-130146642Y-70982859D01*
X-130037859Y-71091642D01*
X-129909942Y-71177113D01*
X-129767809Y-71235987D01*
X-129616922Y-71266000D01*
X-129463078Y-71266000D01*
X-129312191Y-71235987D01*
X-129170058Y-71177113D01*
X-129042141Y-71091642D01*
X-128933358Y-70982859D01*
X-128847887Y-70854942D01*
X-128789013Y-70712809D01*
X-128759000Y-70561922D01*
X-128759000Y-70408078D01*
X-128789013Y-70257191D01*
X-128847887Y-70115058D01*
X-128933358Y-69987141D01*
X-129042141Y-69878358D01*
X-129170058Y-69792887D01*
X-129188157Y-69785390D01*
X-115591000Y-69785390D01*
X-115591000Y-69914610D01*
X-115565790Y-70041348D01*
X-115516340Y-70160732D01*
X-115444548Y-70268176D01*
X-115353176Y-70359548D01*
X-115245732Y-70431340D01*
X-115126348Y-70480790D01*
X-114999610Y-70506000D01*
X-114870390Y-70506000D01*
X-114743652Y-70480790D01*
X-114624268Y-70431340D01*
X-114516824Y-70359548D01*
X-114425452Y-70268176D01*
X-114353660Y-70160732D01*
X-114304210Y-70041348D01*
X-114279000Y-69914610D01*
X-114279000Y-69785390D01*
X-114304210Y-69658652D01*
X-114353660Y-69539268D01*
X-114425452Y-69431824D01*
X-114516824Y-69340452D01*
X-114624268Y-69268660D01*
X-114743652Y-69219210D01*
X-114870390Y-69194000D01*
X-114999610Y-69194000D01*
X-115126348Y-69219210D01*
X-115245732Y-69268660D01*
X-115353176Y-69340452D01*
X-115444548Y-69431824D01*
X-115516340Y-69539268D01*
X-115565790Y-69658652D01*
X-115591000Y-69785390D01*
X-129188157Y-69785390D01*
X-129312191Y-69734013D01*
X-129463078Y-69704000D01*
X-129616922Y-69704000D01*
X-129767809Y-69734013D01*
X-129909942Y-69792887D01*
X-130037859Y-69878358D01*
X-130146642Y-69987141D01*
X-130232113Y-70115058D01*
X-130290987Y-70257191D01*
X-130321000Y-70408078D01*
X-134849000Y-70408078D01*
X-134849000Y-67127364D01*
X-131421394Y-67127364D01*
X-131421394Y-67256584D01*
X-131396184Y-67383322D01*
X-131346734Y-67502706D01*
X-131274942Y-67610150D01*
X-131183570Y-67701522D01*
X-131076126Y-67773314D01*
X-130956742Y-67822764D01*
X-130830004Y-67847974D01*
X-130700784Y-67847974D01*
X-130574046Y-67822764D01*
X-130454662Y-67773314D01*
X-130347218Y-67701522D01*
X-130255846Y-67610150D01*
X-130184054Y-67502706D01*
X-130134604Y-67383322D01*
X-130109394Y-67256584D01*
X-130109394Y-67127364D01*
X-130134604Y-67000626D01*
X-130184054Y-66881242D01*
X-130255846Y-66773798D01*
X-130319644Y-66710000D01*
X-123156843Y-66710000D01*
X-123156843Y-67910000D01*
X-123149487Y-67984689D01*
X-123127701Y-68056508D01*
X-123092322Y-68122696D01*
X-123044711Y-68180711D01*
X-122986696Y-68228322D01*
X-122920508Y-68263701D01*
X-122848689Y-68285487D01*
X-122774000Y-68292843D01*
X-121574000Y-68292843D01*
X-121499311Y-68285487D01*
X-121427492Y-68263701D01*
X-121361304Y-68228322D01*
X-121303289Y-68180711D01*
X-121255678Y-68122696D01*
X-121220299Y-68056508D01*
X-121198513Y-67984689D01*
X-121191157Y-67910000D01*
X-121191157Y-66710000D01*
X-121198513Y-66635311D01*
X-121220299Y-66563492D01*
X-121255678Y-66497304D01*
X-121303289Y-66439289D01*
X-121361304Y-66391678D01*
X-121377162Y-66383202D01*
X-121304649Y-66274678D01*
X-121230699Y-66096147D01*
X-121193000Y-65906620D01*
X-121193000Y-65713380D01*
X-121230699Y-65523853D01*
X-121304649Y-65345322D01*
X-121316171Y-65328078D01*
X-118256000Y-65328078D01*
X-118256000Y-65481922D01*
X-118225987Y-65632809D01*
X-118167113Y-65774942D01*
X-118081642Y-65902859D01*
X-117972859Y-66011642D01*
X-117844942Y-66097113D01*
X-117702809Y-66155987D01*
X-117551922Y-66186000D01*
X-117398078Y-66186000D01*
X-117247191Y-66155987D01*
X-117105058Y-66097113D01*
X-116977141Y-66011642D01*
X-116868358Y-65902859D01*
X-116782887Y-65774942D01*
X-116724013Y-65632809D01*
X-116694000Y-65481922D01*
X-116694000Y-65340390D01*
X-109876000Y-65340390D01*
X-109876000Y-65469610D01*
X-109850790Y-65596348D01*
X-109801340Y-65715732D01*
X-109729548Y-65823176D01*
X-109638176Y-65914548D01*
X-109530732Y-65986340D01*
X-109411348Y-66035790D01*
X-109284610Y-66061000D01*
X-109155390Y-66061000D01*
X-109028652Y-66035790D01*
X-108909268Y-65986340D01*
X-108801824Y-65914548D01*
X-108710452Y-65823176D01*
X-108638660Y-65715732D01*
X-108589210Y-65596348D01*
X-108564000Y-65469610D01*
X-108564000Y-65340390D01*
X-108589210Y-65213652D01*
X-108638660Y-65094268D01*
X-108710452Y-64986824D01*
X-108801824Y-64895452D01*
X-108909268Y-64823660D01*
X-109028652Y-64774210D01*
X-109155390Y-64749000D01*
X-109284610Y-64749000D01*
X-109411348Y-64774210D01*
X-109530732Y-64823660D01*
X-109638176Y-64895452D01*
X-109729548Y-64986824D01*
X-109801340Y-65094268D01*
X-109850790Y-65213652D01*
X-109876000Y-65340390D01*
X-116694000Y-65340390D01*
X-116694000Y-65328078D01*
X-116724013Y-65177191D01*
X-116782887Y-65035058D01*
X-116868358Y-64907141D01*
X-116977141Y-64798358D01*
X-117105058Y-64712887D01*
X-117247191Y-64654013D01*
X-117398078Y-64624000D01*
X-117551922Y-64624000D01*
X-117702809Y-64654013D01*
X-117844942Y-64712887D01*
X-117972859Y-64798358D01*
X-118081642Y-64907141D01*
X-118167113Y-65035058D01*
X-118225987Y-65177191D01*
X-118256000Y-65328078D01*
X-121316171Y-65328078D01*
X-121412007Y-65184649D01*
X-121548649Y-65048007D01*
X-121709322Y-64940649D01*
X-121887853Y-64866699D01*
X-122077380Y-64829000D01*
X-122270620Y-64829000D01*
X-122460147Y-64866699D01*
X-122638678Y-64940649D01*
X-122799351Y-65048007D01*
X-122935993Y-65184649D01*
X-123043351Y-65345322D01*
X-123117301Y-65523853D01*
X-123155000Y-65713380D01*
X-123155000Y-65906620D01*
X-123117301Y-66096147D01*
X-123043351Y-66274678D01*
X-122970838Y-66383202D01*
X-122986696Y-66391678D01*
X-123044711Y-66439289D01*
X-123092322Y-66497304D01*
X-123127701Y-66563492D01*
X-123149487Y-66635311D01*
X-123156843Y-66710000D01*
X-130319644Y-66710000D01*
X-130347218Y-66682426D01*
X-130454662Y-66610634D01*
X-130574046Y-66561184D01*
X-130700784Y-66535974D01*
X-130830004Y-66535974D01*
X-130956742Y-66561184D01*
X-131076126Y-66610634D01*
X-131183570Y-66682426D01*
X-131274942Y-66773798D01*
X-131346734Y-66881242D01*
X-131396184Y-67000626D01*
X-131421394Y-67127364D01*
X-134849000Y-67127364D01*
X-134849000Y-64070390D01*
X-131466000Y-64070390D01*
X-131466000Y-64199610D01*
X-131440790Y-64326348D01*
X-131391340Y-64445732D01*
X-131319548Y-64553176D01*
X-131228176Y-64644548D01*
X-131120732Y-64716340D01*
X-131001348Y-64765790D01*
X-130874610Y-64791000D01*
X-130745390Y-64791000D01*
X-130618652Y-64765790D01*
X-130499268Y-64716340D01*
X-130391824Y-64644548D01*
X-130300452Y-64553176D01*
X-130228660Y-64445732D01*
X-130179210Y-64326348D01*
X-130154000Y-64199610D01*
X-130154000Y-64070390D01*
X-130179210Y-63943652D01*
X-130228660Y-63824268D01*
X-130300452Y-63716824D01*
X-130391824Y-63625452D01*
X-130499268Y-63553660D01*
X-130618652Y-63504210D01*
X-130745390Y-63479000D01*
X-130874610Y-63479000D01*
X-131001348Y-63504210D01*
X-131120732Y-63553660D01*
X-131228176Y-63625452D01*
X-131319548Y-63716824D01*
X-131391340Y-63824268D01*
X-131440790Y-63943652D01*
X-131466000Y-64070390D01*
X-134849000Y-64070390D01*
X-134849000Y-63423078D01*
X-113811000Y-63423078D01*
X-113811000Y-63576922D01*
X-113780987Y-63727809D01*
X-113722113Y-63869942D01*
X-113636642Y-63997859D01*
X-113527859Y-64106642D01*
X-113399942Y-64192113D01*
X-113257809Y-64250987D01*
X-113106922Y-64281000D01*
X-112953078Y-64281000D01*
X-112802191Y-64250987D01*
X-112660058Y-64192113D01*
X-112532141Y-64106642D01*
X-112423358Y-63997859D01*
X-112337887Y-63869942D01*
X-112279013Y-63727809D01*
X-112249000Y-63576922D01*
X-112249000Y-63423078D01*
X-112279013Y-63272191D01*
X-112337887Y-63130058D01*
X-112423358Y-63002141D01*
X-112532141Y-62893358D01*
X-112660058Y-62807887D01*
X-112802191Y-62749013D01*
X-112953078Y-62719000D01*
X-113106922Y-62719000D01*
X-113257809Y-62749013D01*
X-113399942Y-62807887D01*
X-113527859Y-62893358D01*
X-113636642Y-63002141D01*
X-113722113Y-63130058D01*
X-113780987Y-63272191D01*
X-113811000Y-63423078D01*
X-134849000Y-63423078D01*
X-134849000Y-55803078D01*
X-123971000Y-55803078D01*
X-123971000Y-55956922D01*
X-123940987Y-56107809D01*
X-123882113Y-56249942D01*
X-123796642Y-56377859D01*
X-123687859Y-56486642D01*
X-123559942Y-56572113D01*
X-123417809Y-56630987D01*
X-123266922Y-56661000D01*
X-123113078Y-56661000D01*
X-122962191Y-56630987D01*
X-122820058Y-56572113D01*
X-122692141Y-56486642D01*
X-122655889Y-56450390D01*
X-109971002Y-56450390D01*
X-109971002Y-56579610D01*
X-109945792Y-56706348D01*
X-109896342Y-56825732D01*
X-109824550Y-56933176D01*
X-109733178Y-57024548D01*
X-109625734Y-57096340D01*
X-109506350Y-57145790D01*
X-109485185Y-57150000D01*
X-109506350Y-57154210D01*
X-109625734Y-57203660D01*
X-109733178Y-57275452D01*
X-109824550Y-57366824D01*
X-109896342Y-57474268D01*
X-109945792Y-57593652D01*
X-109971002Y-57720390D01*
X-109971002Y-57849610D01*
X-109945792Y-57976348D01*
X-109896342Y-58095732D01*
X-109824550Y-58203176D01*
X-109733178Y-58294548D01*
X-109625734Y-58366340D01*
X-109506350Y-58415790D01*
X-109379612Y-58441000D01*
X-109250392Y-58441000D01*
X-109123654Y-58415790D01*
X-109004270Y-58366340D01*
X-108896826Y-58294548D01*
X-108805454Y-58203176D01*
X-108733662Y-58095732D01*
X-108684212Y-57976348D01*
X-108659002Y-57849610D01*
X-108659002Y-57720390D01*
X-108684212Y-57593652D01*
X-108733662Y-57474268D01*
X-108805454Y-57366824D01*
X-108896826Y-57275452D01*
X-109004270Y-57203660D01*
X-109123654Y-57154210D01*
X-109144819Y-57150000D01*
X-109123654Y-57145790D01*
X-109004270Y-57096340D01*
X-108896826Y-57024548D01*
X-108805454Y-56933176D01*
X-108733662Y-56825732D01*
X-108684212Y-56706348D01*
X-108659002Y-56579610D01*
X-108659002Y-56450390D01*
X-108684212Y-56323652D01*
X-108733662Y-56204268D01*
X-108805454Y-56096824D01*
X-108896826Y-56005452D01*
X-109004270Y-55933660D01*
X-109123654Y-55884210D01*
X-109250392Y-55859000D01*
X-109379612Y-55859000D01*
X-109506350Y-55884210D01*
X-109625734Y-55933660D01*
X-109733178Y-56005452D01*
X-109824550Y-56096824D01*
X-109896342Y-56204268D01*
X-109945792Y-56323652D01*
X-109971002Y-56450390D01*
X-122655889Y-56450390D01*
X-122583358Y-56377859D01*
X-122497887Y-56249942D01*
X-122439013Y-56107809D01*
X-122409000Y-55956922D01*
X-122409000Y-55803078D01*
X-122439013Y-55652191D01*
X-122497887Y-55510058D01*
X-122583358Y-55382141D01*
X-122692141Y-55273358D01*
X-122820058Y-55187887D01*
X-122962191Y-55129013D01*
X-123113078Y-55099000D01*
X-123266922Y-55099000D01*
X-123417809Y-55129013D01*
X-123559942Y-55187887D01*
X-123687859Y-55273358D01*
X-123796642Y-55382141D01*
X-123882113Y-55510058D01*
X-123940987Y-55652191D01*
X-123971000Y-55803078D01*
X-134849000Y-55803078D01*
X-134849000Y-53263078D01*
X-115565948Y-53263078D01*
X-115565948Y-53416922D01*
X-115535935Y-53567809D01*
X-115477061Y-53709942D01*
X-115391590Y-53837859D01*
X-115282807Y-53946642D01*
X-115154890Y-54032113D01*
X-115012757Y-54090987D01*
X-114861870Y-54121000D01*
X-114708026Y-54121000D01*
X-114557139Y-54090987D01*
X-114415006Y-54032113D01*
X-114287089Y-53946642D01*
X-114178306Y-53837859D01*
X-114092835Y-53709942D01*
X-114033961Y-53567809D01*
X-114003948Y-53416922D01*
X-114003948Y-53263078D01*
X-114033961Y-53112191D01*
X-114092835Y-52970058D01*
X-114178306Y-52842141D01*
X-114287089Y-52733358D01*
X-114415006Y-52647887D01*
X-114462828Y-52628078D01*
X-110636000Y-52628078D01*
X-110636000Y-52781922D01*
X-110605987Y-52932809D01*
X-110547113Y-53074942D01*
X-110461642Y-53202859D01*
X-110352859Y-53311642D01*
X-110224942Y-53397113D01*
X-110082809Y-53455987D01*
X-109931922Y-53486000D01*
X-109778078Y-53486000D01*
X-109627191Y-53455987D01*
X-109485058Y-53397113D01*
X-109357141Y-53311642D01*
X-109248358Y-53202859D01*
X-109162887Y-53074942D01*
X-109104013Y-52932809D01*
X-109074000Y-52781922D01*
X-109074000Y-52628078D01*
X-109104013Y-52477191D01*
X-109162887Y-52335058D01*
X-109248358Y-52207141D01*
X-109357141Y-52098358D01*
X-109485058Y-52012887D01*
X-109627191Y-51954013D01*
X-109778078Y-51924000D01*
X-109931922Y-51924000D01*
X-110082809Y-51954013D01*
X-110224942Y-52012887D01*
X-110352859Y-52098358D01*
X-110461642Y-52207141D01*
X-110547113Y-52335058D01*
X-110605987Y-52477191D01*
X-110636000Y-52628078D01*
X-114462828Y-52628078D01*
X-114557139Y-52589013D01*
X-114708026Y-52559000D01*
X-114861870Y-52559000D01*
X-115012757Y-52589013D01*
X-115154890Y-52647887D01*
X-115282807Y-52733358D01*
X-115391590Y-52842141D01*
X-115477061Y-52970058D01*
X-115535935Y-53112191D01*
X-115565948Y-53263078D01*
X-134849000Y-53263078D01*
X-134849000Y-52197000D01*
X-132216039Y-52197000D01*
X-132195987Y-52297809D01*
X-132137113Y-52439942D01*
X-132051642Y-52567859D01*
X-131942859Y-52676642D01*
X-131814942Y-52762113D01*
X-131672809Y-52820987D01*
X-131521922Y-52851000D01*
X-131368078Y-52851000D01*
X-131217191Y-52820987D01*
X-131075058Y-52762113D01*
X-130947141Y-52676642D01*
X-130838358Y-52567859D01*
X-130752887Y-52439942D01*
X-130694013Y-52297809D01*
X-130673961Y-52197000D01*
X-123961039Y-52197000D01*
X-123940987Y-52297809D01*
X-123882113Y-52439942D01*
X-123796642Y-52567859D01*
X-123687859Y-52676642D01*
X-123559942Y-52762113D01*
X-123417809Y-52820987D01*
X-123266922Y-52851000D01*
X-123113078Y-52851000D01*
X-122962191Y-52820987D01*
X-122820058Y-52762113D01*
X-122692141Y-52676642D01*
X-122583358Y-52567859D01*
X-122497887Y-52439942D01*
X-122439013Y-52297809D01*
X-122418961Y-52197000D01*
X-116205000Y-52197000D01*
X-116180224Y-52194560D01*
X-116156399Y-52187333D01*
X-116134443Y-52175597D01*
X-116115197Y-52159803D01*
X-116099403Y-52140557D01*
X-116087667Y-52118601D01*
X-116080440Y-52094776D01*
X-116078000Y-52070000D01*
X-116078000Y-48818078D01*
X-115716000Y-48818078D01*
X-115716000Y-48971922D01*
X-115685987Y-49122809D01*
X-115627113Y-49264942D01*
X-115541642Y-49392859D01*
X-115432859Y-49501642D01*
X-115304942Y-49587113D01*
X-115162809Y-49645987D01*
X-115011922Y-49676000D01*
X-114858078Y-49676000D01*
X-114707191Y-49645987D01*
X-114565058Y-49587113D01*
X-114437141Y-49501642D01*
X-114328358Y-49392859D01*
X-114242887Y-49264942D01*
X-114184013Y-49122809D01*
X-114154000Y-48971922D01*
X-114154000Y-48818078D01*
X-114184013Y-48667191D01*
X-114242887Y-48525058D01*
X-114328358Y-48397141D01*
X-114437141Y-48288358D01*
X-114565058Y-48202887D01*
X-114707191Y-48144013D01*
X-114858078Y-48114000D01*
X-115011922Y-48114000D01*
X-115162809Y-48144013D01*
X-115304942Y-48202887D01*
X-115432859Y-48288358D01*
X-115541642Y-48397141D01*
X-115627113Y-48525058D01*
X-115685987Y-48667191D01*
X-115716000Y-48818078D01*
X-116078000Y-48818078D01*
X-116078000Y-44450000D01*
X-116080440Y-44425224D01*
X-116087667Y-44401399D01*
X-116099403Y-44379443D01*
X-116115197Y-44360197D01*
X-116134443Y-44344403D01*
X-116156399Y-44332667D01*
X-116180224Y-44325440D01*
X-116205000Y-44323000D01*
X-116713000Y-44323000D01*
X-116713000Y-38093454D01*
X-116715440Y-38068678D01*
X-116722667Y-38044853D01*
X-116734403Y-38022897D01*
X-116750197Y-38003651D01*
X-116769443Y-37987857D01*
X-116791399Y-37976121D01*
X-116815224Y-37968894D01*
X-116840109Y-37966454D01*
X-117507526Y-37967027D01*
X-117503358Y-37962859D01*
X-117417887Y-37834942D01*
X-117359013Y-37692809D01*
X-117329000Y-37541922D01*
X-117329000Y-37388078D01*
X-117359013Y-37237191D01*
X-117417887Y-37095058D01*
X-117503358Y-36967141D01*
X-117612141Y-36858358D01*
X-117740058Y-36772887D01*
X-117882191Y-36714013D01*
X-118033078Y-36684000D01*
X-118186922Y-36684000D01*
X-118337809Y-36714013D01*
X-118479942Y-36772887D01*
X-118607859Y-36858358D01*
X-118716642Y-36967141D01*
X-118802113Y-37095058D01*
X-118860987Y-37237191D01*
X-118891000Y-37388078D01*
X-118891000Y-37541922D01*
X-118860987Y-37692809D01*
X-118802113Y-37834942D01*
X-118716642Y-37962859D01*
X-118711439Y-37968062D01*
X-119640855Y-37968860D01*
X-119654220Y-37901668D01*
X-119703670Y-37782284D01*
X-119775462Y-37674840D01*
X-119866834Y-37583468D01*
X-119974278Y-37511676D01*
X-120093662Y-37462226D01*
X-120220400Y-37437016D01*
X-120349620Y-37437016D01*
X-120476358Y-37462226D01*
X-120595742Y-37511676D01*
X-120703186Y-37583468D01*
X-120794558Y-37674840D01*
X-120866350Y-37782284D01*
X-120915800Y-37901668D01*
X-120929386Y-37969967D01*
X-121126952Y-37970137D01*
X-121208078Y-37954000D01*
X-121361922Y-37954000D01*
X-121444419Y-37970409D01*
X-122391491Y-37971223D01*
X-122478078Y-37954000D01*
X-122631922Y-37954000D01*
X-122719928Y-37971505D01*
X-124333000Y-37972891D01*
X-124333000Y-37637442D01*
X-124314000Y-37541922D01*
X-124314000Y-37388078D01*
X-124333000Y-37292558D01*
X-124333000Y-36367442D01*
X-124314000Y-36271922D01*
X-124314000Y-36118078D01*
X-124333000Y-36022558D01*
X-124333000Y-35483078D01*
X-110001000Y-35483078D01*
X-110001000Y-35636922D01*
X-109970987Y-35787809D01*
X-109912113Y-35929942D01*
X-109826642Y-36057859D01*
X-109717859Y-36166642D01*
X-109675418Y-36195000D01*
X-109717859Y-36223358D01*
X-109826642Y-36332141D01*
X-109912113Y-36460058D01*
X-109970987Y-36602191D01*
X-110001000Y-36753078D01*
X-110001000Y-36906922D01*
X-109970987Y-37057809D01*
X-109912113Y-37199942D01*
X-109826642Y-37327859D01*
X-109717859Y-37436642D01*
X-109675418Y-37465000D01*
X-109717859Y-37493358D01*
X-109826642Y-37602141D01*
X-109912113Y-37730058D01*
X-109970987Y-37872191D01*
X-110001000Y-38023078D01*
X-110001000Y-38176922D01*
X-109970987Y-38327809D01*
X-109912113Y-38469942D01*
X-109826642Y-38597859D01*
X-109717859Y-38706642D01*
X-109589942Y-38792113D01*
X-109447809Y-38850987D01*
X-109296922Y-38881000D01*
X-109143078Y-38881000D01*
X-108992191Y-38850987D01*
X-108850058Y-38792113D01*
X-108722141Y-38706642D01*
X-108613358Y-38597859D01*
X-108527887Y-38469942D01*
X-108469013Y-38327809D01*
X-108439000Y-38176922D01*
X-108439000Y-38023078D01*
X-108469013Y-37872191D01*
X-108527887Y-37730058D01*
X-108613358Y-37602141D01*
X-108722141Y-37493358D01*
X-108764582Y-37465000D01*
X-108722141Y-37436642D01*
X-108613358Y-37327859D01*
X-108527887Y-37199942D01*
X-108469013Y-37057809D01*
X-108439000Y-36906922D01*
X-108439000Y-36753078D01*
X-108469013Y-36602191D01*
X-108527887Y-36460058D01*
X-108613358Y-36332141D01*
X-108722141Y-36223358D01*
X-108764582Y-36195000D01*
X-108722141Y-36166642D01*
X-108613358Y-36057859D01*
X-108527887Y-35929942D01*
X-108469013Y-35787809D01*
X-108439000Y-35636922D01*
X-108439000Y-35483078D01*
X-108469013Y-35332191D01*
X-108527887Y-35190058D01*
X-108613358Y-35062141D01*
X-108722141Y-34953358D01*
X-108850058Y-34867887D01*
X-108992191Y-34809013D01*
X-109143078Y-34779000D01*
X-109296922Y-34779000D01*
X-109447809Y-34809013D01*
X-109589942Y-34867887D01*
X-109717859Y-34953358D01*
X-109826642Y-35062141D01*
X-109912113Y-35190058D01*
X-109970987Y-35332191D01*
X-110001000Y-35483078D01*
X-124333000Y-35483078D01*
X-124333000Y-26670000D01*
X-124335440Y-26645224D01*
X-124342667Y-26621399D01*
X-124354403Y-26599443D01*
X-124370197Y-26580197D01*
X-124389443Y-26564403D01*
X-124411399Y-26552667D01*
X-124435224Y-26545440D01*
X-124460000Y-26543000D01*
X-131318000Y-26543000D01*
X-131318000Y-25069242D01*
X-131175269Y-25227588D01*
X-130941920Y-25401641D01*
X-130679099Y-25526825D01*
X-130531890Y-25571476D01*
X-130302000Y-25450155D01*
X-130302000Y-24257000D01*
X-130322000Y-24257000D01*
X-130322000Y-24003000D01*
X-130302000Y-24003000D01*
X-130302000Y-23983000D01*
X-130048000Y-23983000D01*
X-130048000Y-24003000D01*
X-130028000Y-24003000D01*
X-130028000Y-24257000D01*
X-130048000Y-24257000D01*
X-130048000Y-25450155D01*
X-129818110Y-25571476D01*
X-129670901Y-25526825D01*
X-129408080Y-25401641D01*
X-129174731Y-25227588D01*
X-128979822Y-25011355D01*
X-128830843Y-24761252D01*
X-128773228Y-24598832D01*
X-128725898Y-24713097D01*
X-128591180Y-24914717D01*
X-128419717Y-25086180D01*
X-128218097Y-25220898D01*
X-127994069Y-25313693D01*
X-127756243Y-25361000D01*
X-127513757Y-25361000D01*
X-127275931Y-25313693D01*
X-127051903Y-25220898D01*
X-126850283Y-25086180D01*
X-126678820Y-24914717D01*
X-126544102Y-24713097D01*
X-126451307Y-24489069D01*
X-126404000Y-24251243D01*
X-126404000Y-24008757D01*
X-126451307Y-23770931D01*
X-126512996Y-23622000D01*
X-126217004Y-23622000D01*
X-126278693Y-23770931D01*
G37*
X-126278693Y-23770931D02*
X-126326000Y-24008757D01*
X-126326000Y-24251243D01*
X-126278693Y-24489069D01*
X-126185898Y-24713097D01*
X-126051180Y-24914717D01*
X-125879717Y-25086180D01*
X-125678097Y-25220898D01*
X-125454069Y-25313693D01*
X-125216243Y-25361000D01*
X-124973757Y-25361000D01*
X-124735931Y-25313693D01*
X-124511903Y-25220898D01*
X-124310283Y-25086180D01*
X-124138820Y-24914717D01*
X-124004102Y-24713097D01*
X-123911307Y-24489069D01*
X-123864000Y-24251243D01*
X-123864000Y-24008757D01*
X-123911307Y-23770931D01*
X-123972996Y-23622000D01*
X-123677004Y-23622000D01*
X-123738693Y-23770931D01*
X-123786000Y-24008757D01*
X-123786000Y-24251243D01*
X-123738693Y-24489069D01*
X-123645898Y-24713097D01*
X-123511180Y-24914717D01*
X-123339717Y-25086180D01*
X-123138097Y-25220898D01*
X-122914069Y-25313693D01*
X-122676243Y-25361000D01*
X-122433757Y-25361000D01*
X-122195931Y-25313693D01*
X-121971903Y-25220898D01*
X-121770283Y-25086180D01*
X-121598820Y-24914717D01*
X-121464102Y-24713097D01*
X-121371307Y-24489069D01*
X-121324000Y-24251243D01*
X-121324000Y-24008757D01*
X-121371307Y-23770931D01*
X-121432996Y-23622000D01*
X-121137004Y-23622000D01*
X-121198693Y-23770931D01*
X-121246000Y-24008757D01*
X-121246000Y-24251243D01*
X-121198693Y-24489069D01*
X-121105898Y-24713097D01*
X-120971180Y-24914717D01*
X-120799717Y-25086180D01*
X-120598097Y-25220898D01*
X-120374069Y-25313693D01*
X-120136243Y-25361000D01*
X-119893757Y-25361000D01*
X-119655931Y-25313693D01*
X-119431903Y-25220898D01*
X-119230283Y-25086180D01*
X-119058820Y-24914717D01*
X-118924102Y-24713097D01*
X-118831307Y-24489069D01*
X-118784000Y-24251243D01*
X-118784000Y-24008757D01*
X-118831307Y-23770931D01*
X-118892996Y-23622000D01*
X-118237000Y-23622000D01*
X-118237000Y-32385000D01*
X-118234560Y-32409776D01*
X-118227333Y-32433601D01*
X-118215597Y-32455557D01*
X-118199803Y-32474803D01*
X-118180557Y-32490597D01*
X-118158601Y-32502333D01*
X-118134776Y-32509560D01*
X-118110000Y-32512000D01*
X-117012442Y-32512000D01*
X-116916922Y-32531000D01*
X-116763078Y-32531000D01*
X-116667558Y-32512000D01*
X-114472442Y-32512000D01*
X-114376922Y-32531000D01*
X-114223078Y-32531000D01*
X-114127558Y-32512000D01*
X-107085999Y-32512000D01*
X-107086000Y-59709940D01*
X-107085999Y-59709950D01*
X-107086000Y-81299940D01*
X-107085999Y-81299950D01*
X-107086000Y-99289000D01*
X-134849000Y-99289000D01*
X-134849000Y-96630492D01*
X-128231000Y-96630492D01*
X-128231000Y-97099508D01*
X-128139500Y-97559512D01*
X-127960015Y-97992827D01*
X-127699444Y-98382799D01*
X-127367799Y-98714444D01*
X-126977827Y-98975015D01*
X-126544512Y-99154500D01*
X-126084508Y-99246000D01*
X-125615492Y-99246000D01*
X-125155488Y-99154500D01*
X-124722173Y-98975015D01*
X-124332201Y-98714444D01*
X-124000556Y-98382799D01*
X-123748119Y-98005000D01*
X-110708072Y-98005000D01*
X-110695812Y-98129482D01*
X-110659502Y-98249180D01*
X-110600537Y-98359494D01*
X-110521185Y-98456185D01*
X-110424494Y-98535537D01*
X-110314180Y-98594502D01*
X-110194482Y-98630812D01*
X-110070000Y-98643072D01*
X-109505750Y-98640000D01*
X-109347000Y-98481250D01*
X-109347000Y-97282000D01*
X-109093000Y-97282000D01*
X-109093000Y-98481250D01*
X-108934250Y-98640000D01*
X-108370000Y-98643072D01*
X-108245518Y-98630812D01*
X-108125820Y-98594502D01*
X-108015506Y-98535537D01*
X-107918815Y-98456185D01*
X-107839463Y-98359494D01*
X-107780498Y-98249180D01*
X-107744188Y-98129482D01*
X-107731928Y-98005000D01*
X-107735000Y-97440750D01*
X-107893750Y-97282000D01*
X-109093000Y-97282000D01*
X-109347000Y-97282000D01*
X-110546250Y-97282000D01*
X-110705000Y-97440750D01*
X-110708072Y-98005000D01*
X-123748119Y-98005000D01*
X-123739985Y-97992827D01*
X-123560500Y-97559512D01*
X-123469000Y-97099508D01*
X-123469000Y-96630492D01*
X-123513135Y-96408606D01*
X-116701000Y-96408606D01*
X-116701000Y-96631394D01*
X-116657536Y-96849900D01*
X-116572279Y-97055729D01*
X-116448505Y-97240970D01*
X-116290970Y-97398505D01*
X-116105729Y-97522279D01*
X-115899900Y-97607536D01*
X-115681394Y-97651000D01*
X-115458606Y-97651000D01*
X-115240100Y-97607536D01*
X-115034271Y-97522279D01*
X-114849030Y-97398505D01*
X-114691495Y-97240970D01*
X-114567721Y-97055729D01*
X-114482464Y-96849900D01*
X-114439000Y-96631394D01*
X-114439000Y-96408606D01*
X-114459608Y-96305000D01*
X-110708072Y-96305000D01*
X-110705000Y-96869250D01*
X-110546250Y-97028000D01*
X-109347000Y-97028000D01*
X-109347000Y-97008000D01*
X-109093000Y-97008000D01*
X-109093000Y-97028000D01*
X-107893750Y-97028000D01*
X-107735000Y-96869250D01*
X-107731928Y-96305000D01*
X-107744188Y-96180518D01*
X-107780498Y-96060820D01*
X-107839463Y-95950506D01*
X-107918815Y-95853815D01*
X-108015506Y-95774463D01*
X-108125820Y-95715498D01*
X-108245518Y-95679188D01*
X-108370000Y-95666928D01*
X-108580294Y-95668073D01*
X-108435283Y-95571180D01*
X-108263820Y-95399717D01*
X-108129102Y-95198097D01*
X-108036307Y-94974069D01*
X-107989000Y-94736243D01*
X-107989000Y-94493757D01*
X-108036307Y-94255931D01*
X-108129102Y-94031903D01*
X-108263820Y-93830283D01*
X-108435283Y-93658820D01*
X-108636903Y-93524102D01*
X-108860931Y-93431307D01*
X-109098757Y-93384000D01*
X-109341243Y-93384000D01*
X-109579069Y-93431307D01*
X-109803097Y-93524102D01*
X-110004717Y-93658820D01*
X-110176180Y-93830283D01*
X-110310898Y-94031903D01*
X-110403693Y-94255931D01*
X-110451000Y-94493757D01*
X-110451000Y-94736243D01*
X-110403693Y-94974069D01*
X-110310898Y-95198097D01*
X-110176180Y-95399717D01*
X-110004717Y-95571180D01*
X-109859706Y-95668073D01*
X-110070000Y-95666928D01*
X-110194482Y-95679188D01*
X-110314180Y-95715498D01*
X-110424494Y-95774463D01*
X-110521185Y-95853815D01*
X-110600537Y-95950506D01*
X-110659502Y-96060820D01*
X-110695812Y-96180518D01*
X-110708072Y-96305000D01*
X-114459608Y-96305000D01*
X-114482464Y-96190100D01*
X-114567721Y-95984271D01*
X-114691495Y-95799030D01*
X-114849030Y-95641495D01*
X-115034271Y-95517721D01*
X-115240100Y-95432464D01*
X-115458606Y-95389000D01*
X-115681394Y-95389000D01*
X-115899900Y-95432464D01*
X-116105729Y-95517721D01*
X-116290970Y-95641495D01*
X-116448505Y-95799030D01*
X-116572279Y-95984271D01*
X-116657536Y-96190100D01*
X-116701000Y-96408606D01*
X-123513135Y-96408606D01*
X-123560500Y-96170488D01*
X-123739985Y-95737173D01*
X-124000556Y-95347201D01*
X-124332201Y-95015556D01*
X-124722173Y-94754985D01*
X-125155488Y-94575500D01*
X-125615492Y-94484000D01*
X-126084508Y-94484000D01*
X-126544512Y-94575500D01*
X-126977827Y-94754985D01*
X-127367799Y-95015556D01*
X-127699444Y-95347201D01*
X-127960015Y-95737173D01*
X-128139500Y-96170488D01*
X-128231000Y-96630492D01*
X-134849000Y-96630492D01*
X-134849000Y-89488833D01*
X-134631000Y-89488833D01*
X-134631000Y-89741167D01*
X-134581772Y-89988654D01*
X-134485207Y-90221781D01*
X-134345018Y-90431590D01*
X-134166590Y-90610018D01*
X-133956781Y-90750207D01*
X-133723654Y-90846772D01*
X-133632015Y-90865000D01*
X-133723654Y-90883228D01*
X-133956781Y-90979793D01*
X-134166590Y-91119982D01*
X-134345018Y-91298410D01*
X-134485207Y-91508219D01*
X-134581772Y-91741346D01*
X-134631000Y-91988833D01*
X-134631000Y-92241167D01*
X-134581772Y-92488654D01*
X-134485207Y-92721781D01*
X-134345018Y-92931590D01*
X-134166590Y-93110018D01*
X-133956781Y-93250207D01*
X-133723654Y-93346772D01*
X-133632015Y-93365000D01*
X-133723654Y-93383228D01*
X-133956781Y-93479793D01*
X-134166590Y-93619982D01*
X-134345018Y-93798410D01*
X-134485207Y-94008219D01*
X-134581772Y-94241346D01*
X-134631000Y-94488833D01*
X-134631000Y-94741167D01*
X-134581772Y-94988654D01*
X-134485207Y-95221781D01*
X-134345018Y-95431590D01*
X-134166590Y-95610018D01*
X-133956781Y-95750207D01*
X-133723654Y-95846772D01*
X-133476167Y-95896000D01*
X-133223833Y-95896000D01*
X-132976346Y-95846772D01*
X-132743219Y-95750207D01*
X-132533410Y-95610018D01*
X-132354982Y-95431590D01*
X-132214793Y-95221781D01*
X-132118228Y-94988654D01*
X-132069000Y-94741167D01*
X-132069000Y-94488833D01*
X-132118228Y-94241346D01*
X-132214793Y-94008219D01*
X-132354982Y-93798410D01*
X-132533410Y-93619982D01*
X-132743219Y-93479793D01*
X-132976346Y-93383228D01*
X-133067985Y-93365000D01*
X-132976346Y-93346772D01*
X-132743219Y-93250207D01*
X-132533410Y-93110018D01*
X-132354982Y-92931590D01*
X-132214793Y-92721781D01*
X-132118228Y-92488654D01*
X-132069000Y-92241167D01*
X-132069000Y-91988833D01*
X-132118228Y-91741346D01*
X-132214793Y-91508219D01*
X-132354982Y-91298410D01*
X-132533410Y-91119982D01*
X-132743219Y-90979793D01*
X-132976346Y-90883228D01*
X-133067985Y-90865000D01*
X-132976346Y-90846772D01*
X-132743219Y-90750207D01*
X-132533410Y-90610018D01*
X-132354982Y-90431590D01*
X-132339625Y-90408606D01*
X-116701000Y-90408606D01*
X-116701000Y-90631394D01*
X-116657536Y-90849900D01*
X-116572279Y-91055729D01*
X-116448505Y-91240970D01*
X-116290970Y-91398505D01*
X-116105729Y-91522279D01*
X-115899900Y-91607536D01*
X-115681394Y-91651000D01*
X-115458606Y-91651000D01*
X-115240100Y-91607536D01*
X-115034271Y-91522279D01*
X-114849030Y-91398505D01*
X-114691495Y-91240970D01*
X-114567721Y-91055729D01*
X-114482464Y-90849900D01*
X-114439000Y-90631394D01*
X-114439000Y-90408606D01*
X-114482464Y-90190100D01*
X-114567721Y-89984271D01*
X-114691495Y-89799030D01*
X-114849030Y-89641495D01*
X-115034271Y-89517721D01*
X-115240100Y-89432464D01*
X-115458606Y-89389000D01*
X-115681394Y-89389000D01*
X-115899900Y-89432464D01*
X-116105729Y-89517721D01*
X-116290970Y-89641495D01*
X-116448505Y-89799030D01*
X-116572279Y-89984271D01*
X-116657536Y-90190100D01*
X-116701000Y-90408606D01*
X-132339625Y-90408606D01*
X-132214793Y-90221781D01*
X-132118228Y-89988654D01*
X-132069000Y-89741167D01*
X-132069000Y-89488833D01*
X-132118228Y-89241346D01*
X-132214793Y-89008219D01*
X-132354982Y-88798410D01*
X-132533410Y-88619982D01*
X-132743219Y-88479793D01*
X-132976346Y-88383228D01*
X-133223833Y-88334000D01*
X-133476167Y-88334000D01*
X-133723654Y-88383228D01*
X-133956781Y-88479793D01*
X-134166590Y-88619982D01*
X-134345018Y-88798410D01*
X-134485207Y-89008219D01*
X-134581772Y-89241346D01*
X-134631000Y-89488833D01*
X-134849000Y-89488833D01*
X-134849000Y-87130492D01*
X-128231000Y-87130492D01*
X-128231000Y-87599508D01*
X-128139500Y-88059512D01*
X-127960015Y-88492827D01*
X-127699444Y-88882799D01*
X-127367799Y-89214444D01*
X-126977827Y-89475015D01*
X-126544512Y-89654500D01*
X-126084508Y-89746000D01*
X-125615492Y-89746000D01*
X-125155488Y-89654500D01*
X-124722173Y-89475015D01*
X-124332201Y-89214444D01*
X-124000556Y-88882799D01*
X-123739985Y-88492827D01*
X-123560500Y-88059512D01*
X-123469000Y-87599508D01*
X-123469000Y-87130492D01*
X-123560500Y-86670488D01*
X-123739985Y-86237173D01*
X-124000556Y-85847201D01*
X-124332201Y-85515556D01*
X-124722173Y-85254985D01*
X-125155488Y-85075500D01*
X-125615492Y-84984000D01*
X-126084508Y-84984000D01*
X-126544512Y-85075500D01*
X-126977827Y-85254985D01*
X-127367799Y-85515556D01*
X-127699444Y-85847201D01*
X-127960015Y-86237173D01*
X-128139500Y-86670488D01*
X-128231000Y-87130492D01*
X-134849000Y-87130492D01*
X-134849000Y-83755390D01*
X-127021000Y-83755390D01*
X-127021000Y-83884610D01*
X-126995790Y-84011348D01*
X-126946340Y-84130732D01*
X-126874548Y-84238176D01*
X-126783176Y-84329548D01*
X-126675732Y-84401340D01*
X-126556348Y-84450790D01*
X-126429610Y-84476000D01*
X-126300390Y-84476000D01*
X-126173652Y-84450790D01*
X-126054268Y-84401340D01*
X-125946824Y-84329548D01*
X-125855452Y-84238176D01*
X-125783660Y-84130732D01*
X-125734210Y-84011348D01*
X-125709000Y-83884610D01*
X-125709000Y-83755390D01*
X-125734210Y-83628652D01*
X-125783660Y-83509268D01*
X-125855452Y-83401824D01*
X-125946824Y-83310452D01*
X-126054268Y-83238660D01*
X-126173652Y-83189210D01*
X-126300390Y-83164000D01*
X-126429610Y-83164000D01*
X-126556348Y-83189210D01*
X-126675732Y-83238660D01*
X-126783176Y-83310452D01*
X-126874548Y-83401824D01*
X-126946340Y-83509268D01*
X-126995790Y-83628652D01*
X-127021000Y-83755390D01*
X-134849000Y-83755390D01*
X-134849000Y-79410000D01*
X-131157843Y-79410000D01*
X-131157843Y-80610000D01*
X-131150487Y-80684689D01*
X-131128701Y-80756508D01*
X-131093322Y-80822696D01*
X-131045711Y-80880711D01*
X-130987696Y-80928322D01*
X-130921508Y-80963701D01*
X-130849689Y-80985487D01*
X-130775000Y-80992843D01*
X-129575000Y-80992843D01*
X-129500311Y-80985487D01*
X-129428492Y-80963701D01*
X-129362304Y-80928322D01*
X-129304289Y-80880711D01*
X-129256678Y-80822696D01*
X-129221299Y-80756508D01*
X-129199513Y-80684689D01*
X-129192157Y-80610000D01*
X-129192157Y-80580390D01*
X-127021000Y-80580390D01*
X-127021000Y-80709610D01*
X-126995790Y-80836348D01*
X-126946340Y-80955732D01*
X-126874548Y-81063176D01*
X-126783176Y-81154548D01*
X-126675732Y-81226340D01*
X-126556348Y-81275790D01*
X-126429610Y-81301000D01*
X-126300390Y-81301000D01*
X-126173652Y-81275790D01*
X-126054268Y-81226340D01*
X-125946824Y-81154548D01*
X-125855452Y-81063176D01*
X-125783660Y-80955732D01*
X-125734210Y-80836348D01*
X-125709000Y-80709610D01*
X-125709000Y-80580390D01*
X-125734210Y-80453652D01*
X-125783660Y-80334268D01*
X-125855452Y-80226824D01*
X-125946824Y-80135452D01*
X-126054268Y-80063660D01*
X-126173652Y-80014210D01*
X-126300390Y-79989000D01*
X-126429610Y-79989000D01*
X-126556348Y-80014210D01*
X-126675732Y-80063660D01*
X-126783176Y-80135452D01*
X-126874548Y-80226824D01*
X-126946340Y-80334268D01*
X-126995790Y-80453652D01*
X-127021000Y-80580390D01*
X-129192157Y-80580390D01*
X-129192157Y-79410000D01*
X-129199513Y-79335311D01*
X-129221299Y-79263492D01*
X-129256678Y-79197304D01*
X-129304289Y-79139289D01*
X-129362304Y-79091678D01*
X-129378162Y-79083202D01*
X-129305649Y-78974678D01*
X-129231699Y-78796147D01*
X-129194000Y-78606620D01*
X-129194000Y-78413380D01*
X-129231699Y-78223853D01*
X-129305649Y-78045322D01*
X-129308944Y-78040390D01*
X-110511000Y-78040390D01*
X-110511000Y-78169610D01*
X-110485790Y-78296348D01*
X-110436340Y-78415732D01*
X-110364548Y-78523176D01*
X-110273176Y-78614548D01*
X-110165732Y-78686340D01*
X-110046348Y-78735790D01*
X-109919610Y-78761000D01*
X-109790390Y-78761000D01*
X-109663652Y-78735790D01*
X-109544268Y-78686340D01*
X-109436824Y-78614548D01*
X-109345452Y-78523176D01*
X-109273660Y-78415732D01*
X-109224210Y-78296348D01*
X-109199000Y-78169610D01*
X-109199000Y-78040390D01*
X-109224210Y-77913652D01*
X-109273660Y-77794268D01*
X-109345452Y-77686824D01*
X-109436824Y-77595452D01*
X-109544268Y-77523660D01*
X-109663652Y-77474210D01*
X-109790390Y-77449000D01*
X-109919610Y-77449000D01*
X-110046348Y-77474210D01*
X-110165732Y-77523660D01*
X-110273176Y-77595452D01*
X-110364548Y-77686824D01*
X-110436340Y-77794268D01*
X-110485790Y-77913652D01*
X-110511000Y-78040390D01*
X-129308944Y-78040390D01*
X-129413007Y-77884649D01*
X-129549649Y-77748007D01*
X-129710322Y-77640649D01*
X-129888853Y-77566699D01*
X-130078380Y-77529000D01*
X-130271620Y-77529000D01*
X-130461147Y-77566699D01*
X-130639678Y-77640649D01*
X-130800351Y-77748007D01*
X-130936993Y-77884649D01*
X-131044351Y-78045322D01*
X-131118301Y-78223853D01*
X-131156000Y-78413380D01*
X-131156000Y-78606620D01*
X-131118301Y-78796147D01*
X-131044351Y-78974678D01*
X-130971838Y-79083202D01*
X-130987696Y-79091678D01*
X-131045711Y-79139289D01*
X-131093322Y-79197304D01*
X-131128701Y-79263492D01*
X-131150487Y-79335311D01*
X-131157843Y-79410000D01*
X-134849000Y-79410000D01*
X-134849000Y-76770390D01*
X-128926000Y-76770390D01*
X-128926000Y-76899610D01*
X-128900790Y-77026348D01*
X-128851340Y-77145732D01*
X-128779548Y-77253176D01*
X-128688176Y-77344548D01*
X-128580732Y-77416340D01*
X-128461348Y-77465790D01*
X-128334610Y-77491000D01*
X-128205390Y-77491000D01*
X-128078652Y-77465790D01*
X-127959268Y-77416340D01*
X-127851824Y-77344548D01*
X-127760452Y-77253176D01*
X-127688660Y-77145732D01*
X-127639210Y-77026348D01*
X-127614000Y-76899610D01*
X-127614000Y-76770390D01*
X-127639210Y-76643652D01*
X-127688660Y-76524268D01*
X-127760452Y-76416824D01*
X-127851824Y-76325452D01*
X-127959268Y-76253660D01*
X-128078652Y-76204210D01*
X-128205390Y-76179000D01*
X-128334610Y-76179000D01*
X-128461348Y-76204210D01*
X-128580732Y-76253660D01*
X-128688176Y-76325452D01*
X-128779548Y-76416824D01*
X-128851340Y-76524268D01*
X-128900790Y-76643652D01*
X-128926000Y-76770390D01*
X-134849000Y-76770390D01*
X-134849000Y-76123078D01*
X-117621000Y-76123078D01*
X-117621000Y-76276922D01*
X-117590987Y-76427809D01*
X-117532113Y-76569942D01*
X-117446642Y-76697859D01*
X-117337859Y-76806642D01*
X-117209942Y-76892113D01*
X-117067809Y-76950987D01*
X-116916922Y-76981000D01*
X-116763078Y-76981000D01*
X-116612191Y-76950987D01*
X-116470058Y-76892113D01*
X-116342141Y-76806642D01*
X-116233358Y-76697859D01*
X-116147887Y-76569942D01*
X-116089013Y-76427809D01*
X-116059000Y-76276922D01*
X-116059000Y-76123078D01*
X-116089013Y-75972191D01*
X-116147887Y-75830058D01*
X-116233358Y-75702141D01*
X-116342141Y-75593358D01*
X-116470058Y-75507887D01*
X-116612191Y-75449013D01*
X-116763078Y-75419000D01*
X-116916922Y-75419000D01*
X-117067809Y-75449013D01*
X-117209942Y-75507887D01*
X-117337859Y-75593358D01*
X-117446642Y-75702141D01*
X-117532113Y-75830058D01*
X-117590987Y-75972191D01*
X-117621000Y-76123078D01*
X-134849000Y-76123078D01*
X-134849000Y-74865390D01*
X-132736000Y-74865390D01*
X-132736000Y-74994610D01*
X-132710790Y-75121348D01*
X-132661340Y-75240732D01*
X-132589548Y-75348176D01*
X-132498176Y-75439548D01*
X-132390732Y-75511340D01*
X-132271348Y-75560790D01*
X-132144610Y-75586000D01*
X-132015390Y-75586000D01*
X-131888652Y-75560790D01*
X-131769268Y-75511340D01*
X-131661824Y-75439548D01*
X-131570452Y-75348176D01*
X-131498660Y-75240732D01*
X-131449210Y-75121348D01*
X-131424000Y-74994610D01*
X-131424000Y-74865390D01*
X-131426449Y-74853078D01*
X-127146000Y-74853078D01*
X-127146000Y-75006922D01*
X-127115987Y-75157809D01*
X-127057113Y-75299942D01*
X-126971642Y-75427859D01*
X-126862859Y-75536642D01*
X-126734942Y-75622113D01*
X-126592809Y-75680987D01*
X-126441922Y-75711000D01*
X-126288078Y-75711000D01*
X-126137191Y-75680987D01*
X-125995058Y-75622113D01*
X-125867141Y-75536642D01*
X-125758358Y-75427859D01*
X-125672887Y-75299942D01*
X-125614013Y-75157809D01*
X-125584000Y-75006922D01*
X-125584000Y-74853078D01*
X-125614013Y-74702191D01*
X-125672887Y-74560058D01*
X-125758358Y-74432141D01*
X-125867141Y-74323358D01*
X-125995058Y-74237887D01*
X-126137191Y-74179013D01*
X-126288078Y-74149000D01*
X-126441922Y-74149000D01*
X-126592809Y-74179013D01*
X-126734942Y-74237887D01*
X-126862859Y-74323358D01*
X-126971642Y-74432141D01*
X-127057113Y-74560058D01*
X-127115987Y-74702191D01*
X-127146000Y-74853078D01*
X-131426449Y-74853078D01*
X-131449210Y-74738652D01*
X-131498660Y-74619268D01*
X-131570452Y-74511824D01*
X-131661824Y-74420452D01*
X-131769268Y-74348660D01*
X-131888652Y-74299210D01*
X-132015390Y-74274000D01*
X-132144610Y-74274000D01*
X-132271348Y-74299210D01*
X-132390732Y-74348660D01*
X-132498176Y-74420452D01*
X-132589548Y-74511824D01*
X-132661340Y-74619268D01*
X-132710790Y-74738652D01*
X-132736000Y-74865390D01*
X-134849000Y-74865390D01*
X-134849000Y-72960390D01*
X-111781000Y-72960390D01*
X-111781000Y-73089610D01*
X-111755790Y-73216348D01*
X-111706340Y-73335732D01*
X-111634548Y-73443176D01*
X-111543176Y-73534548D01*
X-111435732Y-73606340D01*
X-111316348Y-73655790D01*
X-111189610Y-73681000D01*
X-111060390Y-73681000D01*
X-110933652Y-73655790D01*
X-110814268Y-73606340D01*
X-110706824Y-73534548D01*
X-110615452Y-73443176D01*
X-110543660Y-73335732D01*
X-110494210Y-73216348D01*
X-110469000Y-73089610D01*
X-110469000Y-72960390D01*
X-110494210Y-72833652D01*
X-110543660Y-72714268D01*
X-110615452Y-72606824D01*
X-110706824Y-72515452D01*
X-110814268Y-72443660D01*
X-110933652Y-72394210D01*
X-111060390Y-72369000D01*
X-111189610Y-72369000D01*
X-111316348Y-72394210D01*
X-111435732Y-72443660D01*
X-111543176Y-72515452D01*
X-111634548Y-72606824D01*
X-111706340Y-72714268D01*
X-111755790Y-72833652D01*
X-111781000Y-72960390D01*
X-134849000Y-72960390D01*
X-134849000Y-70408078D01*
X-130321000Y-70408078D01*
X-130321000Y-70561922D01*
X-130290987Y-70712809D01*
X-130232113Y-70854942D01*
X-130146642Y-70982859D01*
X-130037859Y-71091642D01*
X-129909942Y-71177113D01*
X-129767809Y-71235987D01*
X-129616922Y-71266000D01*
X-129463078Y-71266000D01*
X-129312191Y-71235987D01*
X-129170058Y-71177113D01*
X-129042141Y-71091642D01*
X-128933358Y-70982859D01*
X-128847887Y-70854942D01*
X-128789013Y-70712809D01*
X-128759000Y-70561922D01*
X-128759000Y-70408078D01*
X-128789013Y-70257191D01*
X-128847887Y-70115058D01*
X-128933358Y-69987141D01*
X-129042141Y-69878358D01*
X-129170058Y-69792887D01*
X-129188157Y-69785390D01*
X-115591000Y-69785390D01*
X-115591000Y-69914610D01*
X-115565790Y-70041348D01*
X-115516340Y-70160732D01*
X-115444548Y-70268176D01*
X-115353176Y-70359548D01*
X-115245732Y-70431340D01*
X-115126348Y-70480790D01*
X-114999610Y-70506000D01*
X-114870390Y-70506000D01*
X-114743652Y-70480790D01*
X-114624268Y-70431340D01*
X-114516824Y-70359548D01*
X-114425452Y-70268176D01*
X-114353660Y-70160732D01*
X-114304210Y-70041348D01*
X-114279000Y-69914610D01*
X-114279000Y-69785390D01*
X-114304210Y-69658652D01*
X-114353660Y-69539268D01*
X-114425452Y-69431824D01*
X-114516824Y-69340452D01*
X-114624268Y-69268660D01*
X-114743652Y-69219210D01*
X-114870390Y-69194000D01*
X-114999610Y-69194000D01*
X-115126348Y-69219210D01*
X-115245732Y-69268660D01*
X-115353176Y-69340452D01*
X-115444548Y-69431824D01*
X-115516340Y-69539268D01*
X-115565790Y-69658652D01*
X-115591000Y-69785390D01*
X-129188157Y-69785390D01*
X-129312191Y-69734013D01*
X-129463078Y-69704000D01*
X-129616922Y-69704000D01*
X-129767809Y-69734013D01*
X-129909942Y-69792887D01*
X-130037859Y-69878358D01*
X-130146642Y-69987141D01*
X-130232113Y-70115058D01*
X-130290987Y-70257191D01*
X-130321000Y-70408078D01*
X-134849000Y-70408078D01*
X-134849000Y-67127364D01*
X-131421394Y-67127364D01*
X-131421394Y-67256584D01*
X-131396184Y-67383322D01*
X-131346734Y-67502706D01*
X-131274942Y-67610150D01*
X-131183570Y-67701522D01*
X-131076126Y-67773314D01*
X-130956742Y-67822764D01*
X-130830004Y-67847974D01*
X-130700784Y-67847974D01*
X-130574046Y-67822764D01*
X-130454662Y-67773314D01*
X-130347218Y-67701522D01*
X-130255846Y-67610150D01*
X-130184054Y-67502706D01*
X-130134604Y-67383322D01*
X-130109394Y-67256584D01*
X-130109394Y-67127364D01*
X-130134604Y-67000626D01*
X-130184054Y-66881242D01*
X-130255846Y-66773798D01*
X-130319644Y-66710000D01*
X-123156843Y-66710000D01*
X-123156843Y-67910000D01*
X-123149487Y-67984689D01*
X-123127701Y-68056508D01*
X-123092322Y-68122696D01*
X-123044711Y-68180711D01*
X-122986696Y-68228322D01*
X-122920508Y-68263701D01*
X-122848689Y-68285487D01*
X-122774000Y-68292843D01*
X-121574000Y-68292843D01*
X-121499311Y-68285487D01*
X-121427492Y-68263701D01*
X-121361304Y-68228322D01*
X-121303289Y-68180711D01*
X-121255678Y-68122696D01*
X-121220299Y-68056508D01*
X-121198513Y-67984689D01*
X-121191157Y-67910000D01*
X-121191157Y-66710000D01*
X-121198513Y-66635311D01*
X-121220299Y-66563492D01*
X-121255678Y-66497304D01*
X-121303289Y-66439289D01*
X-121361304Y-66391678D01*
X-121377162Y-66383202D01*
X-121304649Y-66274678D01*
X-121230699Y-66096147D01*
X-121193000Y-65906620D01*
X-121193000Y-65713380D01*
X-121230699Y-65523853D01*
X-121304649Y-65345322D01*
X-121316171Y-65328078D01*
X-118256000Y-65328078D01*
X-118256000Y-65481922D01*
X-118225987Y-65632809D01*
X-118167113Y-65774942D01*
X-118081642Y-65902859D01*
X-117972859Y-66011642D01*
X-117844942Y-66097113D01*
X-117702809Y-66155987D01*
X-117551922Y-66186000D01*
X-117398078Y-66186000D01*
X-117247191Y-66155987D01*
X-117105058Y-66097113D01*
X-116977141Y-66011642D01*
X-116868358Y-65902859D01*
X-116782887Y-65774942D01*
X-116724013Y-65632809D01*
X-116694000Y-65481922D01*
X-116694000Y-65340390D01*
X-109876000Y-65340390D01*
X-109876000Y-65469610D01*
X-109850790Y-65596348D01*
X-109801340Y-65715732D01*
X-109729548Y-65823176D01*
X-109638176Y-65914548D01*
X-109530732Y-65986340D01*
X-109411348Y-66035790D01*
X-109284610Y-66061000D01*
X-109155390Y-66061000D01*
X-109028652Y-66035790D01*
X-108909268Y-65986340D01*
X-108801824Y-65914548D01*
X-108710452Y-65823176D01*
X-108638660Y-65715732D01*
X-108589210Y-65596348D01*
X-108564000Y-65469610D01*
X-108564000Y-65340390D01*
X-108589210Y-65213652D01*
X-108638660Y-65094268D01*
X-108710452Y-64986824D01*
X-108801824Y-64895452D01*
X-108909268Y-64823660D01*
X-109028652Y-64774210D01*
X-109155390Y-64749000D01*
X-109284610Y-64749000D01*
X-109411348Y-64774210D01*
X-109530732Y-64823660D01*
X-109638176Y-64895452D01*
X-109729548Y-64986824D01*
X-109801340Y-65094268D01*
X-109850790Y-65213652D01*
X-109876000Y-65340390D01*
X-116694000Y-65340390D01*
X-116694000Y-65328078D01*
X-116724013Y-65177191D01*
X-116782887Y-65035058D01*
X-116868358Y-64907141D01*
X-116977141Y-64798358D01*
X-117105058Y-64712887D01*
X-117247191Y-64654013D01*
X-117398078Y-64624000D01*
X-117551922Y-64624000D01*
X-117702809Y-64654013D01*
X-117844942Y-64712887D01*
X-117972859Y-64798358D01*
X-118081642Y-64907141D01*
X-118167113Y-65035058D01*
X-118225987Y-65177191D01*
X-118256000Y-65328078D01*
X-121316171Y-65328078D01*
X-121412007Y-65184649D01*
X-121548649Y-65048007D01*
X-121709322Y-64940649D01*
X-121887853Y-64866699D01*
X-122077380Y-64829000D01*
X-122270620Y-64829000D01*
X-122460147Y-64866699D01*
X-122638678Y-64940649D01*
X-122799351Y-65048007D01*
X-122935993Y-65184649D01*
X-123043351Y-65345322D01*
X-123117301Y-65523853D01*
X-123155000Y-65713380D01*
X-123155000Y-65906620D01*
X-123117301Y-66096147D01*
X-123043351Y-66274678D01*
X-122970838Y-66383202D01*
X-122986696Y-66391678D01*
X-123044711Y-66439289D01*
X-123092322Y-66497304D01*
X-123127701Y-66563492D01*
X-123149487Y-66635311D01*
X-123156843Y-66710000D01*
X-130319644Y-66710000D01*
X-130347218Y-66682426D01*
X-130454662Y-66610634D01*
X-130574046Y-66561184D01*
X-130700784Y-66535974D01*
X-130830004Y-66535974D01*
X-130956742Y-66561184D01*
X-131076126Y-66610634D01*
X-131183570Y-66682426D01*
X-131274942Y-66773798D01*
X-131346734Y-66881242D01*
X-131396184Y-67000626D01*
X-131421394Y-67127364D01*
X-134849000Y-67127364D01*
X-134849000Y-64070390D01*
X-131466000Y-64070390D01*
X-131466000Y-64199610D01*
X-131440790Y-64326348D01*
X-131391340Y-64445732D01*
X-131319548Y-64553176D01*
X-131228176Y-64644548D01*
X-131120732Y-64716340D01*
X-131001348Y-64765790D01*
X-130874610Y-64791000D01*
X-130745390Y-64791000D01*
X-130618652Y-64765790D01*
X-130499268Y-64716340D01*
X-130391824Y-64644548D01*
X-130300452Y-64553176D01*
X-130228660Y-64445732D01*
X-130179210Y-64326348D01*
X-130154000Y-64199610D01*
X-130154000Y-64070390D01*
X-130179210Y-63943652D01*
X-130228660Y-63824268D01*
X-130300452Y-63716824D01*
X-130391824Y-63625452D01*
X-130499268Y-63553660D01*
X-130618652Y-63504210D01*
X-130745390Y-63479000D01*
X-130874610Y-63479000D01*
X-131001348Y-63504210D01*
X-131120732Y-63553660D01*
X-131228176Y-63625452D01*
X-131319548Y-63716824D01*
X-131391340Y-63824268D01*
X-131440790Y-63943652D01*
X-131466000Y-64070390D01*
X-134849000Y-64070390D01*
X-134849000Y-63423078D01*
X-113811000Y-63423078D01*
X-113811000Y-63576922D01*
X-113780987Y-63727809D01*
X-113722113Y-63869942D01*
X-113636642Y-63997859D01*
X-113527859Y-64106642D01*
X-113399942Y-64192113D01*
X-113257809Y-64250987D01*
X-113106922Y-64281000D01*
X-112953078Y-64281000D01*
X-112802191Y-64250987D01*
X-112660058Y-64192113D01*
X-112532141Y-64106642D01*
X-112423358Y-63997859D01*
X-112337887Y-63869942D01*
X-112279013Y-63727809D01*
X-112249000Y-63576922D01*
X-112249000Y-63423078D01*
X-112279013Y-63272191D01*
X-112337887Y-63130058D01*
X-112423358Y-63002141D01*
X-112532141Y-62893358D01*
X-112660058Y-62807887D01*
X-112802191Y-62749013D01*
X-112953078Y-62719000D01*
X-113106922Y-62719000D01*
X-113257809Y-62749013D01*
X-113399942Y-62807887D01*
X-113527859Y-62893358D01*
X-113636642Y-63002141D01*
X-113722113Y-63130058D01*
X-113780987Y-63272191D01*
X-113811000Y-63423078D01*
X-134849000Y-63423078D01*
X-134849000Y-55803078D01*
X-123971000Y-55803078D01*
X-123971000Y-55956922D01*
X-123940987Y-56107809D01*
X-123882113Y-56249942D01*
X-123796642Y-56377859D01*
X-123687859Y-56486642D01*
X-123559942Y-56572113D01*
X-123417809Y-56630987D01*
X-123266922Y-56661000D01*
X-123113078Y-56661000D01*
X-122962191Y-56630987D01*
X-122820058Y-56572113D01*
X-122692141Y-56486642D01*
X-122655889Y-56450390D01*
X-109971002Y-56450390D01*
X-109971002Y-56579610D01*
X-109945792Y-56706348D01*
X-109896342Y-56825732D01*
X-109824550Y-56933176D01*
X-109733178Y-57024548D01*
X-109625734Y-57096340D01*
X-109506350Y-57145790D01*
X-109485185Y-57150000D01*
X-109506350Y-57154210D01*
X-109625734Y-57203660D01*
X-109733178Y-57275452D01*
X-109824550Y-57366824D01*
X-109896342Y-57474268D01*
X-109945792Y-57593652D01*
X-109971002Y-57720390D01*
X-109971002Y-57849610D01*
X-109945792Y-57976348D01*
X-109896342Y-58095732D01*
X-109824550Y-58203176D01*
X-109733178Y-58294548D01*
X-109625734Y-58366340D01*
X-109506350Y-58415790D01*
X-109379612Y-58441000D01*
X-109250392Y-58441000D01*
X-109123654Y-58415790D01*
X-109004270Y-58366340D01*
X-108896826Y-58294548D01*
X-108805454Y-58203176D01*
X-108733662Y-58095732D01*
X-108684212Y-57976348D01*
X-108659002Y-57849610D01*
X-108659002Y-57720390D01*
X-108684212Y-57593652D01*
X-108733662Y-57474268D01*
X-108805454Y-57366824D01*
X-108896826Y-57275452D01*
X-109004270Y-57203660D01*
X-109123654Y-57154210D01*
X-109144819Y-57150000D01*
X-109123654Y-57145790D01*
X-109004270Y-57096340D01*
X-108896826Y-57024548D01*
X-108805454Y-56933176D01*
X-108733662Y-56825732D01*
X-108684212Y-56706348D01*
X-108659002Y-56579610D01*
X-108659002Y-56450390D01*
X-108684212Y-56323652D01*
X-108733662Y-56204268D01*
X-108805454Y-56096824D01*
X-108896826Y-56005452D01*
X-109004270Y-55933660D01*
X-109123654Y-55884210D01*
X-109250392Y-55859000D01*
X-109379612Y-55859000D01*
X-109506350Y-55884210D01*
X-109625734Y-55933660D01*
X-109733178Y-56005452D01*
X-109824550Y-56096824D01*
X-109896342Y-56204268D01*
X-109945792Y-56323652D01*
X-109971002Y-56450390D01*
X-122655889Y-56450390D01*
X-122583358Y-56377859D01*
X-122497887Y-56249942D01*
X-122439013Y-56107809D01*
X-122409000Y-55956922D01*
X-122409000Y-55803078D01*
X-122439013Y-55652191D01*
X-122497887Y-55510058D01*
X-122583358Y-55382141D01*
X-122692141Y-55273358D01*
X-122820058Y-55187887D01*
X-122962191Y-55129013D01*
X-123113078Y-55099000D01*
X-123266922Y-55099000D01*
X-123417809Y-55129013D01*
X-123559942Y-55187887D01*
X-123687859Y-55273358D01*
X-123796642Y-55382141D01*
X-123882113Y-55510058D01*
X-123940987Y-55652191D01*
X-123971000Y-55803078D01*
X-134849000Y-55803078D01*
X-134849000Y-53263078D01*
X-115565948Y-53263078D01*
X-115565948Y-53416922D01*
X-115535935Y-53567809D01*
X-115477061Y-53709942D01*
X-115391590Y-53837859D01*
X-115282807Y-53946642D01*
X-115154890Y-54032113D01*
X-115012757Y-54090987D01*
X-114861870Y-54121000D01*
X-114708026Y-54121000D01*
X-114557139Y-54090987D01*
X-114415006Y-54032113D01*
X-114287089Y-53946642D01*
X-114178306Y-53837859D01*
X-114092835Y-53709942D01*
X-114033961Y-53567809D01*
X-114003948Y-53416922D01*
X-114003948Y-53263078D01*
X-114033961Y-53112191D01*
X-114092835Y-52970058D01*
X-114178306Y-52842141D01*
X-114287089Y-52733358D01*
X-114415006Y-52647887D01*
X-114462828Y-52628078D01*
X-110636000Y-52628078D01*
X-110636000Y-52781922D01*
X-110605987Y-52932809D01*
X-110547113Y-53074942D01*
X-110461642Y-53202859D01*
X-110352859Y-53311642D01*
X-110224942Y-53397113D01*
X-110082809Y-53455987D01*
X-109931922Y-53486000D01*
X-109778078Y-53486000D01*
X-109627191Y-53455987D01*
X-109485058Y-53397113D01*
X-109357141Y-53311642D01*
X-109248358Y-53202859D01*
X-109162887Y-53074942D01*
X-109104013Y-52932809D01*
X-109074000Y-52781922D01*
X-109074000Y-52628078D01*
X-109104013Y-52477191D01*
X-109162887Y-52335058D01*
X-109248358Y-52207141D01*
X-109357141Y-52098358D01*
X-109485058Y-52012887D01*
X-109627191Y-51954013D01*
X-109778078Y-51924000D01*
X-109931922Y-51924000D01*
X-110082809Y-51954013D01*
X-110224942Y-52012887D01*
X-110352859Y-52098358D01*
X-110461642Y-52207141D01*
X-110547113Y-52335058D01*
X-110605987Y-52477191D01*
X-110636000Y-52628078D01*
X-114462828Y-52628078D01*
X-114557139Y-52589013D01*
X-114708026Y-52559000D01*
X-114861870Y-52559000D01*
X-115012757Y-52589013D01*
X-115154890Y-52647887D01*
X-115282807Y-52733358D01*
X-115391590Y-52842141D01*
X-115477061Y-52970058D01*
X-115535935Y-53112191D01*
X-115565948Y-53263078D01*
X-134849000Y-53263078D01*
X-134849000Y-52197000D01*
X-132216039Y-52197000D01*
X-132195987Y-52297809D01*
X-132137113Y-52439942D01*
X-132051642Y-52567859D01*
X-131942859Y-52676642D01*
X-131814942Y-52762113D01*
X-131672809Y-52820987D01*
X-131521922Y-52851000D01*
X-131368078Y-52851000D01*
X-131217191Y-52820987D01*
X-131075058Y-52762113D01*
X-130947141Y-52676642D01*
X-130838358Y-52567859D01*
X-130752887Y-52439942D01*
X-130694013Y-52297809D01*
X-130673961Y-52197000D01*
X-123961039Y-52197000D01*
X-123940987Y-52297809D01*
X-123882113Y-52439942D01*
X-123796642Y-52567859D01*
X-123687859Y-52676642D01*
X-123559942Y-52762113D01*
X-123417809Y-52820987D01*
X-123266922Y-52851000D01*
X-123113078Y-52851000D01*
X-122962191Y-52820987D01*
X-122820058Y-52762113D01*
X-122692141Y-52676642D01*
X-122583358Y-52567859D01*
X-122497887Y-52439942D01*
X-122439013Y-52297809D01*
X-122418961Y-52197000D01*
X-116205000Y-52197000D01*
X-116180224Y-52194560D01*
X-116156399Y-52187333D01*
X-116134443Y-52175597D01*
X-116115197Y-52159803D01*
X-116099403Y-52140557D01*
X-116087667Y-52118601D01*
X-116080440Y-52094776D01*
X-116078000Y-52070000D01*
X-116078000Y-48818078D01*
X-115716000Y-48818078D01*
X-115716000Y-48971922D01*
X-115685987Y-49122809D01*
X-115627113Y-49264942D01*
X-115541642Y-49392859D01*
X-115432859Y-49501642D01*
X-115304942Y-49587113D01*
X-115162809Y-49645987D01*
X-115011922Y-49676000D01*
X-114858078Y-49676000D01*
X-114707191Y-49645987D01*
X-114565058Y-49587113D01*
X-114437141Y-49501642D01*
X-114328358Y-49392859D01*
X-114242887Y-49264942D01*
X-114184013Y-49122809D01*
X-114154000Y-48971922D01*
X-114154000Y-48818078D01*
X-114184013Y-48667191D01*
X-114242887Y-48525058D01*
X-114328358Y-48397141D01*
X-114437141Y-48288358D01*
X-114565058Y-48202887D01*
X-114707191Y-48144013D01*
X-114858078Y-48114000D01*
X-115011922Y-48114000D01*
X-115162809Y-48144013D01*
X-115304942Y-48202887D01*
X-115432859Y-48288358D01*
X-115541642Y-48397141D01*
X-115627113Y-48525058D01*
X-115685987Y-48667191D01*
X-115716000Y-48818078D01*
X-116078000Y-48818078D01*
X-116078000Y-44450000D01*
X-116080440Y-44425224D01*
X-116087667Y-44401399D01*
X-116099403Y-44379443D01*
X-116115197Y-44360197D01*
X-116134443Y-44344403D01*
X-116156399Y-44332667D01*
X-116180224Y-44325440D01*
X-116205000Y-44323000D01*
X-116713000Y-44323000D01*
X-116713000Y-38093454D01*
X-116715440Y-38068678D01*
X-116722667Y-38044853D01*
X-116734403Y-38022897D01*
X-116750197Y-38003651D01*
X-116769443Y-37987857D01*
X-116791399Y-37976121D01*
X-116815224Y-37968894D01*
X-116840109Y-37966454D01*
X-117507526Y-37967027D01*
X-117503358Y-37962859D01*
X-117417887Y-37834942D01*
X-117359013Y-37692809D01*
X-117329000Y-37541922D01*
X-117329000Y-37388078D01*
X-117359013Y-37237191D01*
X-117417887Y-37095058D01*
X-117503358Y-36967141D01*
X-117612141Y-36858358D01*
X-117740058Y-36772887D01*
X-117882191Y-36714013D01*
X-118033078Y-36684000D01*
X-118186922Y-36684000D01*
X-118337809Y-36714013D01*
X-118479942Y-36772887D01*
X-118607859Y-36858358D01*
X-118716642Y-36967141D01*
X-118802113Y-37095058D01*
X-118860987Y-37237191D01*
X-118891000Y-37388078D01*
X-118891000Y-37541922D01*
X-118860987Y-37692809D01*
X-118802113Y-37834942D01*
X-118716642Y-37962859D01*
X-118711439Y-37968062D01*
X-119640855Y-37968860D01*
X-119654220Y-37901668D01*
X-119703670Y-37782284D01*
X-119775462Y-37674840D01*
X-119866834Y-37583468D01*
X-119974278Y-37511676D01*
X-120093662Y-37462226D01*
X-120220400Y-37437016D01*
X-120349620Y-37437016D01*
X-120476358Y-37462226D01*
X-120595742Y-37511676D01*
X-120703186Y-37583468D01*
X-120794558Y-37674840D01*
X-120866350Y-37782284D01*
X-120915800Y-37901668D01*
X-120929386Y-37969967D01*
X-121126952Y-37970137D01*
X-121208078Y-37954000D01*
X-121361922Y-37954000D01*
X-121444419Y-37970409D01*
X-122391491Y-37971223D01*
X-122478078Y-37954000D01*
X-122631922Y-37954000D01*
X-122719928Y-37971505D01*
X-124333000Y-37972891D01*
X-124333000Y-37637442D01*
X-124314000Y-37541922D01*
X-124314000Y-37388078D01*
X-124333000Y-37292558D01*
X-124333000Y-36367442D01*
X-124314000Y-36271922D01*
X-124314000Y-36118078D01*
X-124333000Y-36022558D01*
X-124333000Y-35483078D01*
X-110001000Y-35483078D01*
X-110001000Y-35636922D01*
X-109970987Y-35787809D01*
X-109912113Y-35929942D01*
X-109826642Y-36057859D01*
X-109717859Y-36166642D01*
X-109675418Y-36195000D01*
X-109717859Y-36223358D01*
X-109826642Y-36332141D01*
X-109912113Y-36460058D01*
X-109970987Y-36602191D01*
X-110001000Y-36753078D01*
X-110001000Y-36906922D01*
X-109970987Y-37057809D01*
X-109912113Y-37199942D01*
X-109826642Y-37327859D01*
X-109717859Y-37436642D01*
X-109675418Y-37465000D01*
X-109717859Y-37493358D01*
X-109826642Y-37602141D01*
X-109912113Y-37730058D01*
X-109970987Y-37872191D01*
X-110001000Y-38023078D01*
X-110001000Y-38176922D01*
X-109970987Y-38327809D01*
X-109912113Y-38469942D01*
X-109826642Y-38597859D01*
X-109717859Y-38706642D01*
X-109589942Y-38792113D01*
X-109447809Y-38850987D01*
X-109296922Y-38881000D01*
X-109143078Y-38881000D01*
X-108992191Y-38850987D01*
X-108850058Y-38792113D01*
X-108722141Y-38706642D01*
X-108613358Y-38597859D01*
X-108527887Y-38469942D01*
X-108469013Y-38327809D01*
X-108439000Y-38176922D01*
X-108439000Y-38023078D01*
X-108469013Y-37872191D01*
X-108527887Y-37730058D01*
X-108613358Y-37602141D01*
X-108722141Y-37493358D01*
X-108764582Y-37465000D01*
X-108722141Y-37436642D01*
X-108613358Y-37327859D01*
X-108527887Y-37199942D01*
X-108469013Y-37057809D01*
X-108439000Y-36906922D01*
X-108439000Y-36753078D01*
X-108469013Y-36602191D01*
X-108527887Y-36460058D01*
X-108613358Y-36332141D01*
X-108722141Y-36223358D01*
X-108764582Y-36195000D01*
X-108722141Y-36166642D01*
X-108613358Y-36057859D01*
X-108527887Y-35929942D01*
X-108469013Y-35787809D01*
X-108439000Y-35636922D01*
X-108439000Y-35483078D01*
X-108469013Y-35332191D01*
X-108527887Y-35190058D01*
X-108613358Y-35062141D01*
X-108722141Y-34953358D01*
X-108850058Y-34867887D01*
X-108992191Y-34809013D01*
X-109143078Y-34779000D01*
X-109296922Y-34779000D01*
X-109447809Y-34809013D01*
X-109589942Y-34867887D01*
X-109717859Y-34953358D01*
X-109826642Y-35062141D01*
X-109912113Y-35190058D01*
X-109970987Y-35332191D01*
X-110001000Y-35483078D01*
X-124333000Y-35483078D01*
X-124333000Y-26670000D01*
X-124335440Y-26645224D01*
X-124342667Y-26621399D01*
X-124354403Y-26599443D01*
X-124370197Y-26580197D01*
X-124389443Y-26564403D01*
X-124411399Y-26552667D01*
X-124435224Y-26545440D01*
X-124460000Y-26543000D01*
X-131318000Y-26543000D01*
X-131318000Y-25069242D01*
X-131175269Y-25227588D01*
X-130941920Y-25401641D01*
X-130679099Y-25526825D01*
X-130531890Y-25571476D01*
X-130302000Y-25450155D01*
X-130302000Y-24257000D01*
X-130322000Y-24257000D01*
X-130322000Y-24003000D01*
X-130302000Y-24003000D01*
X-130302000Y-23983000D01*
X-130048000Y-23983000D01*
X-130048000Y-24003000D01*
X-130028000Y-24003000D01*
X-130028000Y-24257000D01*
X-130048000Y-24257000D01*
X-130048000Y-25450155D01*
X-129818110Y-25571476D01*
X-129670901Y-25526825D01*
X-129408080Y-25401641D01*
X-129174731Y-25227588D01*
X-128979822Y-25011355D01*
X-128830843Y-24761252D01*
X-128773228Y-24598832D01*
X-128725898Y-24713097D01*
X-128591180Y-24914717D01*
X-128419717Y-25086180D01*
X-128218097Y-25220898D01*
X-127994069Y-25313693D01*
X-127756243Y-25361000D01*
X-127513757Y-25361000D01*
X-127275931Y-25313693D01*
X-127051903Y-25220898D01*
X-126850283Y-25086180D01*
X-126678820Y-24914717D01*
X-126544102Y-24713097D01*
X-126451307Y-24489069D01*
X-126404000Y-24251243D01*
X-126404000Y-24008757D01*
X-126451307Y-23770931D01*
X-126512996Y-23622000D01*
X-126217004Y-23622000D01*
X-126278693Y-23770931D01*
%TO.N,GND*%
G36*
X-107086000Y-19704940D02*
G01*
X-107085999Y-19704950D01*
X-107086000Y-24149940D01*
X-107085999Y-24149950D01*
X-107086000Y-29864940D01*
X-107085999Y-29864950D01*
X-107085999Y-31623000D01*
X-117348000Y-31623000D01*
X-117348000Y-26454724D01*
X-117258176Y-26544548D01*
X-117150732Y-26616340D01*
X-117031348Y-26665790D01*
X-116904610Y-26691000D01*
X-116775390Y-26691000D01*
X-116648652Y-26665790D01*
X-116529268Y-26616340D01*
X-116421824Y-26544548D01*
X-116330452Y-26453176D01*
X-116258660Y-26345732D01*
X-116209210Y-26226348D01*
X-116184000Y-26099610D01*
X-116184000Y-25970390D01*
X-116209210Y-25843652D01*
X-116258660Y-25724268D01*
X-116330452Y-25616824D01*
X-116421824Y-25525452D01*
X-116529268Y-25453660D01*
X-116648652Y-25404210D01*
X-116775390Y-25379000D01*
X-116904610Y-25379000D01*
X-117031348Y-25404210D01*
X-117150732Y-25453660D01*
X-117258176Y-25525452D01*
X-117348000Y-25615276D01*
X-117348000Y-25335390D01*
X-110511000Y-25335390D01*
X-110511000Y-25464610D01*
X-110485790Y-25591348D01*
X-110436340Y-25710732D01*
X-110364548Y-25818176D01*
X-110273176Y-25909548D01*
X-110165732Y-25981340D01*
X-110046348Y-26030790D01*
X-109919610Y-26056000D01*
X-109790390Y-26056000D01*
X-109663652Y-26030790D01*
X-109544268Y-25981340D01*
X-109436824Y-25909548D01*
X-109345452Y-25818176D01*
X-109273660Y-25710732D01*
X-109224210Y-25591348D01*
X-109199000Y-25464610D01*
X-109199000Y-25335390D01*
X-109224210Y-25208652D01*
X-109273660Y-25089268D01*
X-109345452Y-24981824D01*
X-109436824Y-24890452D01*
X-109544268Y-24818660D01*
X-109663652Y-24769210D01*
X-109790390Y-24744000D01*
X-109919610Y-24744000D01*
X-110046348Y-24769210D01*
X-110165732Y-24818660D01*
X-110273176Y-24890452D01*
X-110364548Y-24981824D01*
X-110436340Y-25089268D01*
X-110485790Y-25208652D01*
X-110511000Y-25335390D01*
X-117348000Y-25335390D01*
X-117348000Y-24609541D01*
X-113709936Y-24609541D01*
X-113699425Y-24802763D01*
X-113529397Y-24873562D01*
X-113348824Y-24909828D01*
X-113164645Y-24910171D01*
X-112983939Y-24874574D01*
X-112813649Y-24804408D01*
X-112810575Y-24802763D01*
X-112800064Y-24609541D01*
X-111989936Y-24609541D01*
X-111979425Y-24802763D01*
X-111809397Y-24873562D01*
X-111628824Y-24909828D01*
X-111444645Y-24910171D01*
X-111263939Y-24874574D01*
X-111093649Y-24804408D01*
X-111090575Y-24802763D01*
X-111080064Y-24609541D01*
X-111535000Y-24154605D01*
X-111989936Y-24609541D01*
X-112800064Y-24609541D01*
X-113255000Y-24154605D01*
X-113709936Y-24609541D01*
X-117348000Y-24609541D01*
X-117348000Y-23105355D01*
X-114190171Y-23105355D01*
X-114154574Y-23286061D01*
X-114084408Y-23456351D01*
X-114082763Y-23459425D01*
X-113942556Y-23467052D01*
X-113914608Y-23495000D01*
X-113942556Y-23522948D01*
X-114082763Y-23530575D01*
X-114153562Y-23700603D01*
X-114189828Y-23881176D01*
X-114190171Y-24065355D01*
X-114154574Y-24246061D01*
X-114084408Y-24416351D01*
X-114082763Y-24419425D01*
X-113889541Y-24429936D01*
X-113434605Y-23975000D01*
X-113448748Y-23960858D01*
X-113422851Y-23934961D01*
X-113348824Y-23949828D01*
X-113164645Y-23950171D01*
X-113134475Y-23944228D01*
X-113074627Y-23947483D01*
X-113061253Y-23960858D01*
X-113075395Y-23975000D01*
X-112845856Y-24204539D01*
X-112839425Y-24322763D01*
X-112669397Y-24393562D01*
X-112653676Y-24396719D01*
X-112620459Y-24429936D01*
X-112516456Y-24424278D01*
X-112488824Y-24429828D01*
X-112304645Y-24430171D01*
X-112274475Y-24424228D01*
X-112169541Y-24429936D01*
X-112136691Y-24397086D01*
X-112123939Y-24394574D01*
X-111953649Y-24324408D01*
X-111950575Y-24322763D01*
X-111944144Y-24204539D01*
X-111714605Y-23975000D01*
X-111728748Y-23960858D01*
X-111715373Y-23947483D01*
X-111656456Y-23944278D01*
X-111628824Y-23949828D01*
X-111444645Y-23950171D01*
X-111367196Y-23934914D01*
X-111341253Y-23960858D01*
X-111355395Y-23975000D01*
X-110900459Y-24429936D01*
X-110707237Y-24419425D01*
X-110636438Y-24249397D01*
X-110600172Y-24068824D01*
X-110599829Y-23884645D01*
X-110635426Y-23703939D01*
X-110705592Y-23533649D01*
X-110707237Y-23530575D01*
X-110847444Y-23522948D01*
X-110875392Y-23495000D01*
X-110847444Y-23467052D01*
X-110707237Y-23459425D01*
X-110636438Y-23289397D01*
X-110600172Y-23108824D01*
X-110599829Y-22924645D01*
X-110635426Y-22743939D01*
X-110705592Y-22573649D01*
X-110707237Y-22570575D01*
X-110900459Y-22560064D01*
X-111355395Y-23015000D01*
X-111341253Y-23029143D01*
X-111367149Y-23055039D01*
X-111441176Y-23040172D01*
X-111625355Y-23039829D01*
X-111655525Y-23045772D01*
X-111715373Y-23042517D01*
X-111728748Y-23029143D01*
X-111714605Y-23015000D01*
X-111944144Y-22785461D01*
X-111950575Y-22667237D01*
X-112120603Y-22596438D01*
X-112136324Y-22593281D01*
X-112169541Y-22560064D01*
X-112273544Y-22565722D01*
X-112301176Y-22560172D01*
X-112485355Y-22559829D01*
X-112515525Y-22565772D01*
X-112620459Y-22560064D01*
X-112653309Y-22592914D01*
X-112666061Y-22595426D01*
X-112836351Y-22665592D01*
X-112839425Y-22667237D01*
X-112845856Y-22785461D01*
X-113075395Y-23015000D01*
X-113061253Y-23029143D01*
X-113074627Y-23042517D01*
X-113133544Y-23045722D01*
X-113161176Y-23040172D01*
X-113345355Y-23039829D01*
X-113422804Y-23055086D01*
X-113448748Y-23029143D01*
X-113434605Y-23015000D01*
X-113889541Y-22560064D01*
X-114082763Y-22570575D01*
X-114153562Y-22740603D01*
X-114189828Y-22921176D01*
X-114190171Y-23105355D01*
X-117348000Y-23105355D01*
X-117348000Y-22860000D01*
X-117350440Y-22835224D01*
X-117357667Y-22811399D01*
X-117369403Y-22789443D01*
X-117385197Y-22770197D01*
X-117404443Y-22754403D01*
X-117426399Y-22742667D01*
X-117450224Y-22735440D01*
X-117475000Y-22733000D01*
X-118921449Y-22733000D01*
X-118894289Y-22710711D01*
X-118846678Y-22652696D01*
X-118811299Y-22586508D01*
X-118789513Y-22514689D01*
X-118782157Y-22440000D01*
X-118782157Y-22380459D01*
X-113709936Y-22380459D01*
X-113255000Y-22835395D01*
X-112800064Y-22380459D01*
X-111989936Y-22380459D01*
X-111535000Y-22835395D01*
X-111080064Y-22380459D01*
X-111090575Y-22187237D01*
X-111155049Y-22160390D01*
X-108606000Y-22160390D01*
X-108606000Y-22289610D01*
X-108580790Y-22416348D01*
X-108531340Y-22535732D01*
X-108459548Y-22643176D01*
X-108368176Y-22734548D01*
X-108260732Y-22806340D01*
X-108141348Y-22855790D01*
X-108014610Y-22881000D01*
X-107885390Y-22881000D01*
X-107758652Y-22855790D01*
X-107639268Y-22806340D01*
X-107531824Y-22734548D01*
X-107440452Y-22643176D01*
X-107368660Y-22535732D01*
X-107319210Y-22416348D01*
X-107294000Y-22289610D01*
X-107294000Y-22160390D01*
X-107319210Y-22033652D01*
X-107368660Y-21914268D01*
X-107440452Y-21806824D01*
X-107531824Y-21715452D01*
X-107639268Y-21643660D01*
X-107758652Y-21594210D01*
X-107885390Y-21569000D01*
X-108014610Y-21569000D01*
X-108141348Y-21594210D01*
X-108260732Y-21643660D01*
X-108368176Y-21715452D01*
X-108459548Y-21806824D01*
X-108531340Y-21914268D01*
X-108580790Y-22033652D01*
X-108606000Y-22160390D01*
X-111155049Y-22160390D01*
X-111260603Y-22116438D01*
X-111441176Y-22080172D01*
X-111625355Y-22079829D01*
X-111806061Y-22115426D01*
X-111976351Y-22185592D01*
X-111979425Y-22187237D01*
X-111989936Y-22380459D01*
X-112800064Y-22380459D01*
X-112810575Y-22187237D01*
X-112980603Y-22116438D01*
X-113161176Y-22080172D01*
X-113345355Y-22079829D01*
X-113526061Y-22115426D01*
X-113696351Y-22185592D01*
X-113699425Y-22187237D01*
X-113709936Y-22380459D01*
X-118782157Y-22380459D01*
X-118782157Y-20740000D01*
X-118789513Y-20665311D01*
X-118811299Y-20593492D01*
X-118846678Y-20527304D01*
X-118894289Y-20469289D01*
X-118952304Y-20421678D01*
X-119018492Y-20386299D01*
X-119090311Y-20364513D01*
X-119165000Y-20357157D01*
X-120865000Y-20357157D01*
X-120939689Y-20364513D01*
X-121011508Y-20386299D01*
X-121077696Y-20421678D01*
X-121135711Y-20469289D01*
X-121183322Y-20527304D01*
X-121218701Y-20593492D01*
X-121240487Y-20665311D01*
X-121247843Y-20740000D01*
X-121247843Y-22440000D01*
X-121240487Y-22514689D01*
X-121218701Y-22586508D01*
X-121183322Y-22652696D01*
X-121135711Y-22710711D01*
X-121108551Y-22733000D01*
X-122097689Y-22733000D01*
X-121971903Y-22680898D01*
X-121770283Y-22546180D01*
X-121598820Y-22374717D01*
X-121464102Y-22173097D01*
X-121371307Y-21949069D01*
X-121324000Y-21711243D01*
X-121324000Y-21468757D01*
X-121371307Y-21230931D01*
X-121464102Y-21006903D01*
X-121598820Y-20805283D01*
X-121770283Y-20633820D01*
X-121971903Y-20499102D01*
X-122195931Y-20406307D01*
X-122433757Y-20359000D01*
X-122676243Y-20359000D01*
X-122914069Y-20406307D01*
X-123138097Y-20499102D01*
X-123339717Y-20633820D01*
X-123511180Y-20805283D01*
X-123645898Y-21006903D01*
X-123738693Y-21230931D01*
X-123786000Y-21468757D01*
X-123786000Y-21711243D01*
X-123738693Y-21949069D01*
X-123645898Y-22173097D01*
X-123511180Y-22374717D01*
X-123339717Y-22546180D01*
X-123138097Y-22680898D01*
X-123012311Y-22733000D01*
X-124637689Y-22733000D01*
X-124511903Y-22680898D01*
X-124310283Y-22546180D01*
X-124138820Y-22374717D01*
X-124004102Y-22173097D01*
X-123911307Y-21949069D01*
X-123864000Y-21711243D01*
X-123864000Y-21468757D01*
X-123911307Y-21230931D01*
X-124004102Y-21006903D01*
X-124138820Y-20805283D01*
X-124310283Y-20633820D01*
X-124511903Y-20499102D01*
X-124735931Y-20406307D01*
X-124973757Y-20359000D01*
X-125216243Y-20359000D01*
X-125454069Y-20406307D01*
X-125678097Y-20499102D01*
X-125879717Y-20633820D01*
X-126051180Y-20805283D01*
X-126185898Y-21006903D01*
X-126278693Y-21230931D01*
X-126326000Y-21468757D01*
X-126326000Y-21711243D01*
X-126278693Y-21949069D01*
X-126185898Y-22173097D01*
X-126051180Y-22374717D01*
X-125879717Y-22546180D01*
X-125678097Y-22680898D01*
X-125552311Y-22733000D01*
X-127177689Y-22733000D01*
X-127051903Y-22680898D01*
X-126850283Y-22546180D01*
X-126678820Y-22374717D01*
X-126544102Y-22173097D01*
X-126451307Y-21949069D01*
X-126404000Y-21711243D01*
X-126404000Y-21468757D01*
X-126451307Y-21230931D01*
X-126544102Y-21006903D01*
X-126678820Y-20805283D01*
X-126850283Y-20633820D01*
X-127051903Y-20499102D01*
X-127275931Y-20406307D01*
X-127513757Y-20359000D01*
X-127756243Y-20359000D01*
X-127994069Y-20406307D01*
X-128218097Y-20499102D01*
X-128419717Y-20633820D01*
X-128591180Y-20805283D01*
X-128725898Y-21006903D01*
X-128773228Y-21121168D01*
X-128830843Y-20958748D01*
X-128979822Y-20708645D01*
X-129174731Y-20492412D01*
X-129408080Y-20318359D01*
X-129670901Y-20193175D01*
X-129818110Y-20148524D01*
X-130048000Y-20269845D01*
X-130048000Y-21463000D01*
X-130028000Y-21463000D01*
X-130028000Y-21717000D01*
X-130048000Y-21717000D01*
X-130048000Y-21737000D01*
X-130302000Y-21737000D01*
X-130302000Y-21717000D01*
X-130322000Y-21717000D01*
X-130322000Y-21463000D01*
X-130302000Y-21463000D01*
X-130302000Y-20269845D01*
X-130531890Y-20148524D01*
X-130679099Y-20193175D01*
X-130941920Y-20318359D01*
X-131175269Y-20492412D01*
X-131318000Y-20650758D01*
X-131318000Y-19456000D01*
X-107086000Y-19456000D01*
X-107086000Y-19704940D01*
G37*
X-107086000Y-19704940D02*
X-107085999Y-19704950D01*
X-107086000Y-24149940D01*
X-107085999Y-24149950D01*
X-107086000Y-29864940D01*
X-107085999Y-29864950D01*
X-107085999Y-31623000D01*
X-117348000Y-31623000D01*
X-117348000Y-26454724D01*
X-117258176Y-26544548D01*
X-117150732Y-26616340D01*
X-117031348Y-26665790D01*
X-116904610Y-26691000D01*
X-116775390Y-26691000D01*
X-116648652Y-26665790D01*
X-116529268Y-26616340D01*
X-116421824Y-26544548D01*
X-116330452Y-26453176D01*
X-116258660Y-26345732D01*
X-116209210Y-26226348D01*
X-116184000Y-26099610D01*
X-116184000Y-25970390D01*
X-116209210Y-25843652D01*
X-116258660Y-25724268D01*
X-116330452Y-25616824D01*
X-116421824Y-25525452D01*
X-116529268Y-25453660D01*
X-116648652Y-25404210D01*
X-116775390Y-25379000D01*
X-116904610Y-25379000D01*
X-117031348Y-25404210D01*
X-117150732Y-25453660D01*
X-117258176Y-25525452D01*
X-117348000Y-25615276D01*
X-117348000Y-25335390D01*
X-110511000Y-25335390D01*
X-110511000Y-25464610D01*
X-110485790Y-25591348D01*
X-110436340Y-25710732D01*
X-110364548Y-25818176D01*
X-110273176Y-25909548D01*
X-110165732Y-25981340D01*
X-110046348Y-26030790D01*
X-109919610Y-26056000D01*
X-109790390Y-26056000D01*
X-109663652Y-26030790D01*
X-109544268Y-25981340D01*
X-109436824Y-25909548D01*
X-109345452Y-25818176D01*
X-109273660Y-25710732D01*
X-109224210Y-25591348D01*
X-109199000Y-25464610D01*
X-109199000Y-25335390D01*
X-109224210Y-25208652D01*
X-109273660Y-25089268D01*
X-109345452Y-24981824D01*
X-109436824Y-24890452D01*
X-109544268Y-24818660D01*
X-109663652Y-24769210D01*
X-109790390Y-24744000D01*
X-109919610Y-24744000D01*
X-110046348Y-24769210D01*
X-110165732Y-24818660D01*
X-110273176Y-24890452D01*
X-110364548Y-24981824D01*
X-110436340Y-25089268D01*
X-110485790Y-25208652D01*
X-110511000Y-25335390D01*
X-117348000Y-25335390D01*
X-117348000Y-24609541D01*
X-113709936Y-24609541D01*
X-113699425Y-24802763D01*
X-113529397Y-24873562D01*
X-113348824Y-24909828D01*
X-113164645Y-24910171D01*
X-112983939Y-24874574D01*
X-112813649Y-24804408D01*
X-112810575Y-24802763D01*
X-112800064Y-24609541D01*
X-111989936Y-24609541D01*
X-111979425Y-24802763D01*
X-111809397Y-24873562D01*
X-111628824Y-24909828D01*
X-111444645Y-24910171D01*
X-111263939Y-24874574D01*
X-111093649Y-24804408D01*
X-111090575Y-24802763D01*
X-111080064Y-24609541D01*
X-111535000Y-24154605D01*
X-111989936Y-24609541D01*
X-112800064Y-24609541D01*
X-113255000Y-24154605D01*
X-113709936Y-24609541D01*
X-117348000Y-24609541D01*
X-117348000Y-23105355D01*
X-114190171Y-23105355D01*
X-114154574Y-23286061D01*
X-114084408Y-23456351D01*
X-114082763Y-23459425D01*
X-113942556Y-23467052D01*
X-113914608Y-23495000D01*
X-113942556Y-23522948D01*
X-114082763Y-23530575D01*
X-114153562Y-23700603D01*
X-114189828Y-23881176D01*
X-114190171Y-24065355D01*
X-114154574Y-24246061D01*
X-114084408Y-24416351D01*
X-114082763Y-24419425D01*
X-113889541Y-24429936D01*
X-113434605Y-23975000D01*
X-113448748Y-23960858D01*
X-113422851Y-23934961D01*
X-113348824Y-23949828D01*
X-113164645Y-23950171D01*
X-113134475Y-23944228D01*
X-113074627Y-23947483D01*
X-113061253Y-23960858D01*
X-113075395Y-23975000D01*
X-112845856Y-24204539D01*
X-112839425Y-24322763D01*
X-112669397Y-24393562D01*
X-112653676Y-24396719D01*
X-112620459Y-24429936D01*
X-112516456Y-24424278D01*
X-112488824Y-24429828D01*
X-112304645Y-24430171D01*
X-112274475Y-24424228D01*
X-112169541Y-24429936D01*
X-112136691Y-24397086D01*
X-112123939Y-24394574D01*
X-111953649Y-24324408D01*
X-111950575Y-24322763D01*
X-111944144Y-24204539D01*
X-111714605Y-23975000D01*
X-111728748Y-23960858D01*
X-111715373Y-23947483D01*
X-111656456Y-23944278D01*
X-111628824Y-23949828D01*
X-111444645Y-23950171D01*
X-111367196Y-23934914D01*
X-111341253Y-23960858D01*
X-111355395Y-23975000D01*
X-110900459Y-24429936D01*
X-110707237Y-24419425D01*
X-110636438Y-24249397D01*
X-110600172Y-24068824D01*
X-110599829Y-23884645D01*
X-110635426Y-23703939D01*
X-110705592Y-23533649D01*
X-110707237Y-23530575D01*
X-110847444Y-23522948D01*
X-110875392Y-23495000D01*
X-110847444Y-23467052D01*
X-110707237Y-23459425D01*
X-110636438Y-23289397D01*
X-110600172Y-23108824D01*
X-110599829Y-22924645D01*
X-110635426Y-22743939D01*
X-110705592Y-22573649D01*
X-110707237Y-22570575D01*
X-110900459Y-22560064D01*
X-111355395Y-23015000D01*
X-111341253Y-23029143D01*
X-111367149Y-23055039D01*
X-111441176Y-23040172D01*
X-111625355Y-23039829D01*
X-111655525Y-23045772D01*
X-111715373Y-23042517D01*
X-111728748Y-23029143D01*
X-111714605Y-23015000D01*
X-111944144Y-22785461D01*
X-111950575Y-22667237D01*
X-112120603Y-22596438D01*
X-112136324Y-22593281D01*
X-112169541Y-22560064D01*
X-112273544Y-22565722D01*
X-112301176Y-22560172D01*
X-112485355Y-22559829D01*
X-112515525Y-22565772D01*
X-112620459Y-22560064D01*
X-112653309Y-22592914D01*
X-112666061Y-22595426D01*
X-112836351Y-22665592D01*
X-112839425Y-22667237D01*
X-112845856Y-22785461D01*
X-113075395Y-23015000D01*
X-113061253Y-23029143D01*
X-113074627Y-23042517D01*
X-113133544Y-23045722D01*
X-113161176Y-23040172D01*
X-113345355Y-23039829D01*
X-113422804Y-23055086D01*
X-113448748Y-23029143D01*
X-113434605Y-23015000D01*
X-113889541Y-22560064D01*
X-114082763Y-22570575D01*
X-114153562Y-22740603D01*
X-114189828Y-22921176D01*
X-114190171Y-23105355D01*
X-117348000Y-23105355D01*
X-117348000Y-22860000D01*
X-117350440Y-22835224D01*
X-117357667Y-22811399D01*
X-117369403Y-22789443D01*
X-117385197Y-22770197D01*
X-117404443Y-22754403D01*
X-117426399Y-22742667D01*
X-117450224Y-22735440D01*
X-117475000Y-22733000D01*
X-118921449Y-22733000D01*
X-118894289Y-22710711D01*
X-118846678Y-22652696D01*
X-118811299Y-22586508D01*
X-118789513Y-22514689D01*
X-118782157Y-22440000D01*
X-118782157Y-22380459D01*
X-113709936Y-22380459D01*
X-113255000Y-22835395D01*
X-112800064Y-22380459D01*
X-111989936Y-22380459D01*
X-111535000Y-22835395D01*
X-111080064Y-22380459D01*
X-111090575Y-22187237D01*
X-111155049Y-22160390D01*
X-108606000Y-22160390D01*
X-108606000Y-22289610D01*
X-108580790Y-22416348D01*
X-108531340Y-22535732D01*
X-108459548Y-22643176D01*
X-108368176Y-22734548D01*
X-108260732Y-22806340D01*
X-108141348Y-22855790D01*
X-108014610Y-22881000D01*
X-107885390Y-22881000D01*
X-107758652Y-22855790D01*
X-107639268Y-22806340D01*
X-107531824Y-22734548D01*
X-107440452Y-22643176D01*
X-107368660Y-22535732D01*
X-107319210Y-22416348D01*
X-107294000Y-22289610D01*
X-107294000Y-22160390D01*
X-107319210Y-22033652D01*
X-107368660Y-21914268D01*
X-107440452Y-21806824D01*
X-107531824Y-21715452D01*
X-107639268Y-21643660D01*
X-107758652Y-21594210D01*
X-107885390Y-21569000D01*
X-108014610Y-21569000D01*
X-108141348Y-21594210D01*
X-108260732Y-21643660D01*
X-108368176Y-21715452D01*
X-108459548Y-21806824D01*
X-108531340Y-21914268D01*
X-108580790Y-22033652D01*
X-108606000Y-22160390D01*
X-111155049Y-22160390D01*
X-111260603Y-22116438D01*
X-111441176Y-22080172D01*
X-111625355Y-22079829D01*
X-111806061Y-22115426D01*
X-111976351Y-22185592D01*
X-111979425Y-22187237D01*
X-111989936Y-22380459D01*
X-112800064Y-22380459D01*
X-112810575Y-22187237D01*
X-112980603Y-22116438D01*
X-113161176Y-22080172D01*
X-113345355Y-22079829D01*
X-113526061Y-22115426D01*
X-113696351Y-22185592D01*
X-113699425Y-22187237D01*
X-113709936Y-22380459D01*
X-118782157Y-22380459D01*
X-118782157Y-20740000D01*
X-118789513Y-20665311D01*
X-118811299Y-20593492D01*
X-118846678Y-20527304D01*
X-118894289Y-20469289D01*
X-118952304Y-20421678D01*
X-119018492Y-20386299D01*
X-119090311Y-20364513D01*
X-119165000Y-20357157D01*
X-120865000Y-20357157D01*
X-120939689Y-20364513D01*
X-121011508Y-20386299D01*
X-121077696Y-20421678D01*
X-121135711Y-20469289D01*
X-121183322Y-20527304D01*
X-121218701Y-20593492D01*
X-121240487Y-20665311D01*
X-121247843Y-20740000D01*
X-121247843Y-22440000D01*
X-121240487Y-22514689D01*
X-121218701Y-22586508D01*
X-121183322Y-22652696D01*
X-121135711Y-22710711D01*
X-121108551Y-22733000D01*
X-122097689Y-22733000D01*
X-121971903Y-22680898D01*
X-121770283Y-22546180D01*
X-121598820Y-22374717D01*
X-121464102Y-22173097D01*
X-121371307Y-21949069D01*
X-121324000Y-21711243D01*
X-121324000Y-21468757D01*
X-121371307Y-21230931D01*
X-121464102Y-21006903D01*
X-121598820Y-20805283D01*
X-121770283Y-20633820D01*
X-121971903Y-20499102D01*
X-122195931Y-20406307D01*
X-122433757Y-20359000D01*
X-122676243Y-20359000D01*
X-122914069Y-20406307D01*
X-123138097Y-20499102D01*
X-123339717Y-20633820D01*
X-123511180Y-20805283D01*
X-123645898Y-21006903D01*
X-123738693Y-21230931D01*
X-123786000Y-21468757D01*
X-123786000Y-21711243D01*
X-123738693Y-21949069D01*
X-123645898Y-22173097D01*
X-123511180Y-22374717D01*
X-123339717Y-22546180D01*
X-123138097Y-22680898D01*
X-123012311Y-22733000D01*
X-124637689Y-22733000D01*
X-124511903Y-22680898D01*
X-124310283Y-22546180D01*
X-124138820Y-22374717D01*
X-124004102Y-22173097D01*
X-123911307Y-21949069D01*
X-123864000Y-21711243D01*
X-123864000Y-21468757D01*
X-123911307Y-21230931D01*
X-124004102Y-21006903D01*
X-124138820Y-20805283D01*
X-124310283Y-20633820D01*
X-124511903Y-20499102D01*
X-124735931Y-20406307D01*
X-124973757Y-20359000D01*
X-125216243Y-20359000D01*
X-125454069Y-20406307D01*
X-125678097Y-20499102D01*
X-125879717Y-20633820D01*
X-126051180Y-20805283D01*
X-126185898Y-21006903D01*
X-126278693Y-21230931D01*
X-126326000Y-21468757D01*
X-126326000Y-21711243D01*
X-126278693Y-21949069D01*
X-126185898Y-22173097D01*
X-126051180Y-22374717D01*
X-125879717Y-22546180D01*
X-125678097Y-22680898D01*
X-125552311Y-22733000D01*
X-127177689Y-22733000D01*
X-127051903Y-22680898D01*
X-126850283Y-22546180D01*
X-126678820Y-22374717D01*
X-126544102Y-22173097D01*
X-126451307Y-21949069D01*
X-126404000Y-21711243D01*
X-126404000Y-21468757D01*
X-126451307Y-21230931D01*
X-126544102Y-21006903D01*
X-126678820Y-20805283D01*
X-126850283Y-20633820D01*
X-127051903Y-20499102D01*
X-127275931Y-20406307D01*
X-127513757Y-20359000D01*
X-127756243Y-20359000D01*
X-127994069Y-20406307D01*
X-128218097Y-20499102D01*
X-128419717Y-20633820D01*
X-128591180Y-20805283D01*
X-128725898Y-21006903D01*
X-128773228Y-21121168D01*
X-128830843Y-20958748D01*
X-128979822Y-20708645D01*
X-129174731Y-20492412D01*
X-129408080Y-20318359D01*
X-129670901Y-20193175D01*
X-129818110Y-20148524D01*
X-130048000Y-20269845D01*
X-130048000Y-21463000D01*
X-130028000Y-21463000D01*
X-130028000Y-21717000D01*
X-130048000Y-21717000D01*
X-130048000Y-21737000D01*
X-130302000Y-21737000D01*
X-130302000Y-21717000D01*
X-130322000Y-21717000D01*
X-130322000Y-21463000D01*
X-130302000Y-21463000D01*
X-130302000Y-20269845D01*
X-130531890Y-20148524D01*
X-130679099Y-20193175D01*
X-130941920Y-20318359D01*
X-131175269Y-20492412D01*
X-131318000Y-20650758D01*
X-131318000Y-19456000D01*
X-107086000Y-19456000D01*
X-107086000Y-19704940D01*
G36*
X-112364408Y-23456351D02*
G01*
X-112362763Y-23459425D01*
X-112222556Y-23467052D01*
X-112205002Y-23484607D01*
X-112215395Y-23495000D01*
X-112205002Y-23505394D01*
X-112222556Y-23522948D01*
X-112362763Y-23530575D01*
X-112394979Y-23607945D01*
X-112425592Y-23533649D01*
X-112427237Y-23530575D01*
X-112567444Y-23522948D01*
X-112584999Y-23505394D01*
X-112574605Y-23495000D01*
X-112584999Y-23484607D01*
X-112567444Y-23467052D01*
X-112427237Y-23459425D01*
X-112395021Y-23382055D01*
X-112364408Y-23456351D01*
G37*
X-112364408Y-23456351D02*
X-112362763Y-23459425D01*
X-112222556Y-23467052D01*
X-112205002Y-23484607D01*
X-112215395Y-23495000D01*
X-112205002Y-23505394D01*
X-112222556Y-23522948D01*
X-112362763Y-23530575D01*
X-112394979Y-23607945D01*
X-112425592Y-23533649D01*
X-112427237Y-23530575D01*
X-112567444Y-23522948D01*
X-112584999Y-23505394D01*
X-112574605Y-23495000D01*
X-112584999Y-23484607D01*
X-112567444Y-23467052D01*
X-112427237Y-23459425D01*
X-112395021Y-23382055D01*
X-112364408Y-23456351D01*
G36*
X-129032000Y-20650758D02*
G01*
X-129174731Y-20492412D01*
X-129408080Y-20318359D01*
X-129670901Y-20193175D01*
X-129818110Y-20148524D01*
X-130048000Y-20269845D01*
X-130048000Y-21463000D01*
X-130028000Y-21463000D01*
X-130028000Y-21717000D01*
X-130048000Y-21717000D01*
X-130048000Y-21737000D01*
X-130302000Y-21737000D01*
X-130302000Y-21717000D01*
X-130322000Y-21717000D01*
X-130322000Y-21463000D01*
X-130302000Y-21463000D01*
X-130302000Y-20269845D01*
X-130531890Y-20148524D01*
X-130679099Y-20193175D01*
X-130941920Y-20318359D01*
X-131175269Y-20492412D01*
X-131370178Y-20708645D01*
X-131519157Y-20958748D01*
X-131576772Y-21121168D01*
X-131624102Y-21006903D01*
X-131758820Y-20805283D01*
X-131930283Y-20633820D01*
X-132131903Y-20499102D01*
X-132355931Y-20406307D01*
X-132593757Y-20359000D01*
X-132836243Y-20359000D01*
X-133074069Y-20406307D01*
X-133298097Y-20499102D01*
X-133499717Y-20633820D01*
X-133671180Y-20805283D01*
X-133805898Y-21006903D01*
X-133898693Y-21230931D01*
X-133946000Y-21468757D01*
X-133946000Y-21711243D01*
X-133898693Y-21949069D01*
X-133805898Y-22173097D01*
X-133671180Y-22374717D01*
X-133499717Y-22546180D01*
X-133298097Y-22680898D01*
X-133074069Y-22773693D01*
X-132836243Y-22821000D01*
X-132593757Y-22821000D01*
X-132355931Y-22773693D01*
X-132131903Y-22680898D01*
X-132061330Y-22633743D01*
X-132075790Y-22668652D01*
X-132088761Y-22733863D01*
X-132104776Y-22735440D01*
X-132128601Y-22742667D01*
X-132150557Y-22754403D01*
X-132169803Y-22770197D01*
X-132185597Y-22789443D01*
X-132197333Y-22811399D01*
X-132204560Y-22835224D01*
X-132207000Y-22860000D01*
X-132207000Y-23007996D01*
X-132355931Y-22946307D01*
X-132593757Y-22899000D01*
X-132836243Y-22899000D01*
X-133074069Y-22946307D01*
X-133298097Y-23039102D01*
X-133499717Y-23173820D01*
X-133671180Y-23345283D01*
X-133805898Y-23546903D01*
X-133898693Y-23770931D01*
X-133946000Y-24008757D01*
X-133946000Y-24251243D01*
X-133898693Y-24489069D01*
X-133805898Y-24713097D01*
X-133671180Y-24914717D01*
X-133499717Y-25086180D01*
X-133298097Y-25220898D01*
X-133074069Y-25313693D01*
X-132836243Y-25361000D01*
X-132593757Y-25361000D01*
X-132355931Y-25313693D01*
X-132207000Y-25252004D01*
X-132207000Y-27305000D01*
X-132204560Y-27329776D01*
X-132197333Y-27353601D01*
X-132185597Y-27375557D01*
X-132169803Y-27394803D01*
X-132150557Y-27410597D01*
X-132128601Y-27422333D01*
X-132104776Y-27429560D01*
X-132080000Y-27432000D01*
X-125222000Y-27432000D01*
X-125222000Y-35423961D01*
X-125322809Y-35444013D01*
X-125464942Y-35502887D01*
X-125592859Y-35588358D01*
X-125701642Y-35697141D01*
X-125787113Y-35825058D01*
X-125845987Y-35967191D01*
X-125876000Y-36118078D01*
X-125876000Y-36271922D01*
X-125845987Y-36422809D01*
X-125787113Y-36564942D01*
X-125701642Y-36692859D01*
X-125592859Y-36801642D01*
X-125550418Y-36830000D01*
X-125592859Y-36858358D01*
X-125701642Y-36967141D01*
X-125787113Y-37095058D01*
X-125845987Y-37237191D01*
X-125876000Y-37388078D01*
X-125876000Y-37541922D01*
X-125845987Y-37692809D01*
X-125787113Y-37834942D01*
X-125701642Y-37962859D01*
X-125592859Y-38071642D01*
X-125464942Y-38157113D01*
X-125322809Y-38215987D01*
X-125222000Y-38236039D01*
X-125222000Y-38735000D01*
X-125219560Y-38759776D01*
X-125212333Y-38783601D01*
X-125200597Y-38805557D01*
X-125184803Y-38824803D01*
X-125165557Y-38840597D01*
X-125143601Y-38852333D01*
X-125119776Y-38859560D01*
X-125095000Y-38862000D01*
X-125056501Y-38862000D01*
X-125066642Y-38872141D01*
X-125152113Y-39000058D01*
X-125210987Y-39142191D01*
X-125241000Y-39293078D01*
X-125241000Y-39446922D01*
X-125210987Y-39597809D01*
X-125152113Y-39739942D01*
X-125066642Y-39867859D01*
X-124957859Y-39976642D01*
X-124829942Y-40062113D01*
X-124687809Y-40120987D01*
X-124536922Y-40151000D01*
X-124383078Y-40151000D01*
X-124232191Y-40120987D01*
X-124090058Y-40062113D01*
X-123962141Y-39976642D01*
X-123853358Y-39867859D01*
X-123767887Y-39739942D01*
X-123709013Y-39597809D01*
X-123679000Y-39446922D01*
X-123679000Y-39293078D01*
X-123709013Y-39142191D01*
X-123767887Y-39000058D01*
X-123853358Y-38872141D01*
X-123863499Y-38862000D01*
X-123326039Y-38862000D01*
X-123305987Y-38962809D01*
X-123247113Y-39104942D01*
X-123161642Y-39232859D01*
X-123052859Y-39341642D01*
X-122924942Y-39427113D01*
X-122782809Y-39485987D01*
X-122631922Y-39516000D01*
X-122478078Y-39516000D01*
X-122327191Y-39485987D01*
X-122185058Y-39427113D01*
X-122057141Y-39341642D01*
X-121948358Y-39232859D01*
X-121920000Y-39190418D01*
X-121891642Y-39232859D01*
X-121782859Y-39341642D01*
X-121654942Y-39427113D01*
X-121512809Y-39485987D01*
X-121361922Y-39516000D01*
X-121208078Y-39516000D01*
X-121057191Y-39485987D01*
X-120915058Y-39427113D01*
X-120787141Y-39341642D01*
X-120678358Y-39232859D01*
X-120592887Y-39104942D01*
X-120534013Y-38962809D01*
X-120513961Y-38862000D01*
X-118881039Y-38862000D01*
X-118860987Y-38962809D01*
X-118802113Y-39104942D01*
X-118716642Y-39232859D01*
X-118607859Y-39341642D01*
X-118565418Y-39370000D01*
X-118607859Y-39398358D01*
X-118716642Y-39507141D01*
X-118802113Y-39635058D01*
X-118860987Y-39777191D01*
X-118891000Y-39928078D01*
X-118891000Y-40081922D01*
X-118860987Y-40232809D01*
X-118802113Y-40374942D01*
X-118716642Y-40502859D01*
X-118607859Y-40611642D01*
X-118479942Y-40697113D01*
X-118337809Y-40755987D01*
X-118186922Y-40786000D01*
X-118033078Y-40786000D01*
X-117882191Y-40755987D01*
X-117740058Y-40697113D01*
X-117612141Y-40611642D01*
X-117602000Y-40601501D01*
X-117602000Y-45300276D01*
X-117691824Y-45210452D01*
X-117799268Y-45138660D01*
X-117918652Y-45089210D01*
X-118045390Y-45064000D01*
X-118174610Y-45064000D01*
X-118301348Y-45089210D01*
X-118420732Y-45138660D01*
X-118528176Y-45210452D01*
X-118619548Y-45301824D01*
X-118691340Y-45409268D01*
X-118740790Y-45528652D01*
X-118745000Y-45549817D01*
X-118749210Y-45528652D01*
X-118798660Y-45409268D01*
X-118870452Y-45301824D01*
X-118961824Y-45210452D01*
X-119069268Y-45138660D01*
X-119188652Y-45089210D01*
X-119315390Y-45064000D01*
X-119444610Y-45064000D01*
X-119571348Y-45089210D01*
X-119690732Y-45138660D01*
X-119798176Y-45210452D01*
X-119889548Y-45301824D01*
X-119961340Y-45409268D01*
X-120010790Y-45528652D01*
X-120036000Y-45655390D01*
X-120036000Y-45784610D01*
X-120010790Y-45911348D01*
X-119961340Y-46030732D01*
X-119889548Y-46138176D01*
X-119798176Y-46229548D01*
X-119690732Y-46301340D01*
X-119571348Y-46350790D01*
X-119451010Y-46374727D01*
X-119451010Y-46419610D01*
X-119425800Y-46546348D01*
X-119376350Y-46665732D01*
X-119304558Y-46773176D01*
X-119213186Y-46864548D01*
X-119105742Y-46936340D01*
X-118986358Y-46985790D01*
X-118859620Y-47011000D01*
X-118730400Y-47011000D01*
X-118603662Y-46985790D01*
X-118484278Y-46936340D01*
X-118376834Y-46864548D01*
X-118285462Y-46773176D01*
X-118213670Y-46665732D01*
X-118164220Y-46546348D01*
X-118139010Y-46419610D01*
X-118139010Y-46376000D01*
X-118045390Y-46376000D01*
X-117918652Y-46350790D01*
X-117799268Y-46301340D01*
X-117691824Y-46229548D01*
X-117600452Y-46138176D01*
X-117528660Y-46030732D01*
X-117479210Y-45911348D01*
X-117466410Y-45847000D01*
X-116967000Y-45847000D01*
X-116967000Y-51308000D01*
X-121276410Y-51308000D01*
X-121289210Y-51243652D01*
X-121338660Y-51124268D01*
X-121410452Y-51016824D01*
X-121501824Y-50925452D01*
X-121609268Y-50853660D01*
X-121728652Y-50804210D01*
X-121855390Y-50779000D01*
X-121984610Y-50779000D01*
X-122111348Y-50804210D01*
X-122230732Y-50853660D01*
X-122338176Y-50925452D01*
X-122429548Y-51016824D01*
X-122501340Y-51124268D01*
X-122550790Y-51243652D01*
X-122563590Y-51308000D01*
X-123017558Y-51308000D01*
X-123113078Y-51289000D01*
X-123266922Y-51289000D01*
X-123362442Y-51308000D01*
X-128896410Y-51308000D01*
X-128909210Y-51243652D01*
X-128958660Y-51124268D01*
X-129030452Y-51016824D01*
X-129121824Y-50925452D01*
X-129229268Y-50853660D01*
X-129348652Y-50804210D01*
X-129475390Y-50779000D01*
X-129604610Y-50779000D01*
X-129731348Y-50804210D01*
X-129850732Y-50853660D01*
X-129958176Y-50925452D01*
X-130049548Y-51016824D01*
X-130121340Y-51124268D01*
X-130170790Y-51243652D01*
X-130183590Y-51308000D01*
X-131272558Y-51308000D01*
X-131368078Y-51289000D01*
X-131521922Y-51289000D01*
X-131617442Y-51308000D01*
X-134849000Y-51308000D01*
X-134849000Y-46925390D01*
X-130196000Y-46925390D01*
X-130196000Y-47054610D01*
X-130170790Y-47181348D01*
X-130121340Y-47300732D01*
X-130049548Y-47408176D01*
X-129958176Y-47499548D01*
X-129850732Y-47571340D01*
X-129731348Y-47620790D01*
X-129604610Y-47646000D01*
X-129475390Y-47646000D01*
X-129348652Y-47620790D01*
X-129229268Y-47571340D01*
X-129121824Y-47499548D01*
X-129030452Y-47408176D01*
X-128958660Y-47300732D01*
X-128909210Y-47181348D01*
X-128884000Y-47054610D01*
X-128884000Y-46925390D01*
X-128909210Y-46798652D01*
X-128958660Y-46679268D01*
X-129030452Y-46571824D01*
X-129121824Y-46480452D01*
X-129229268Y-46408660D01*
X-129348652Y-46359210D01*
X-129475390Y-46334000D01*
X-129604610Y-46334000D01*
X-129731348Y-46359210D01*
X-129850732Y-46408660D01*
X-129958176Y-46480452D01*
X-130049548Y-46571824D01*
X-130121340Y-46679268D01*
X-130170790Y-46798652D01*
X-130196000Y-46925390D01*
X-134849000Y-46925390D01*
X-134849000Y-46290390D01*
X-128971013Y-46290390D01*
X-128971013Y-46419610D01*
X-128945803Y-46546348D01*
X-128896353Y-46665732D01*
X-128824561Y-46773176D01*
X-128733189Y-46864548D01*
X-128625745Y-46936340D01*
X-128506361Y-46985790D01*
X-128379623Y-47011000D01*
X-128250403Y-47011000D01*
X-128123665Y-46985790D01*
X-128004281Y-46936340D01*
X-127896837Y-46864548D01*
X-127805465Y-46773176D01*
X-127733673Y-46665732D01*
X-127684223Y-46546348D01*
X-127659013Y-46419610D01*
X-127659013Y-46290390D01*
X-127684223Y-46163652D01*
X-127733673Y-46044268D01*
X-127805465Y-45936824D01*
X-127896837Y-45845452D01*
X-128004281Y-45773660D01*
X-128123665Y-45724210D01*
X-128250403Y-45699000D01*
X-128379623Y-45699000D01*
X-128506361Y-45724210D01*
X-128625745Y-45773660D01*
X-128733189Y-45845452D01*
X-128824561Y-45936824D01*
X-128896353Y-46044268D01*
X-128945803Y-46163652D01*
X-128971013Y-46290390D01*
X-134849000Y-46290390D01*
X-134849000Y-45625402D01*
X-127422051Y-45625402D01*
X-127422051Y-45754622D01*
X-127396841Y-45881360D01*
X-127347391Y-46000744D01*
X-127275599Y-46108188D01*
X-127184227Y-46199560D01*
X-127076783Y-46271352D01*
X-127063334Y-46276923D01*
X-127066013Y-46290390D01*
X-127066013Y-46419610D01*
X-127040803Y-46546348D01*
X-126991353Y-46665732D01*
X-126919561Y-46773176D01*
X-126828189Y-46864548D01*
X-126720745Y-46936340D01*
X-126601361Y-46985790D01*
X-126474623Y-47011000D01*
X-126345403Y-47011000D01*
X-126218665Y-46985790D01*
X-126099281Y-46936340D01*
X-126070007Y-46916779D01*
X-126040732Y-46936340D01*
X-125921348Y-46985790D01*
X-125794610Y-47011000D01*
X-125751000Y-47011000D01*
X-125751000Y-47054610D01*
X-125725790Y-47181348D01*
X-125676340Y-47300732D01*
X-125604548Y-47408176D01*
X-125513176Y-47499548D01*
X-125405732Y-47571340D01*
X-125286348Y-47620790D01*
X-125159610Y-47646000D01*
X-125030390Y-47646000D01*
X-124903652Y-47620790D01*
X-124784268Y-47571340D01*
X-124676824Y-47499548D01*
X-124585452Y-47408176D01*
X-124513660Y-47300732D01*
X-124464210Y-47181348D01*
X-124449103Y-47105398D01*
X-122576000Y-47105398D01*
X-122576000Y-47234618D01*
X-122550790Y-47361356D01*
X-122501340Y-47480740D01*
X-122429548Y-47588184D01*
X-122338176Y-47679556D01*
X-122230732Y-47751348D01*
X-122111348Y-47800798D01*
X-121984610Y-47826008D01*
X-121855390Y-47826008D01*
X-121728652Y-47800798D01*
X-121609268Y-47751348D01*
X-121501824Y-47679556D01*
X-121410452Y-47588184D01*
X-121338660Y-47480740D01*
X-121289210Y-47361356D01*
X-121264000Y-47234618D01*
X-121264000Y-47105398D01*
X-121289210Y-46978660D01*
X-121338660Y-46859276D01*
X-121410452Y-46751832D01*
X-121501824Y-46660460D01*
X-121609268Y-46588668D01*
X-121641329Y-46575388D01*
X-121306000Y-46575388D01*
X-121306000Y-46704608D01*
X-121280790Y-46831346D01*
X-121231340Y-46950730D01*
X-121159548Y-47058174D01*
X-121068176Y-47149546D01*
X-120960732Y-47221338D01*
X-120841348Y-47270788D01*
X-120714610Y-47295998D01*
X-120585390Y-47295998D01*
X-120458652Y-47270788D01*
X-120339268Y-47221338D01*
X-120231824Y-47149546D01*
X-120140452Y-47058174D01*
X-120068660Y-46950730D01*
X-120019210Y-46831346D01*
X-119994000Y-46704608D01*
X-119994000Y-46575388D01*
X-120019210Y-46448650D01*
X-120068660Y-46329266D01*
X-120140452Y-46221822D01*
X-120231824Y-46130450D01*
X-120339268Y-46058658D01*
X-120458652Y-46009208D01*
X-120585390Y-45983998D01*
X-120714610Y-45983998D01*
X-120841348Y-46009208D01*
X-120960732Y-46058658D01*
X-121068176Y-46130450D01*
X-121159548Y-46221822D01*
X-121231340Y-46329266D01*
X-121280790Y-46448650D01*
X-121306000Y-46575388D01*
X-121641329Y-46575388D01*
X-121728652Y-46539218D01*
X-121855390Y-46514008D01*
X-121984610Y-46514008D01*
X-122111348Y-46539218D01*
X-122230732Y-46588668D01*
X-122338176Y-46660460D01*
X-122429548Y-46751832D01*
X-122501340Y-46859276D01*
X-122550790Y-46978660D01*
X-122576000Y-47105398D01*
X-124449103Y-47105398D01*
X-124439000Y-47054610D01*
X-124439000Y-46925390D01*
X-124464210Y-46798652D01*
X-124513660Y-46679268D01*
X-124585452Y-46571824D01*
X-124676824Y-46480452D01*
X-124784268Y-46408660D01*
X-124903652Y-46359210D01*
X-125030390Y-46334000D01*
X-125074000Y-46334000D01*
X-125074000Y-46290390D01*
X-125099210Y-46163652D01*
X-125148660Y-46044268D01*
X-125220452Y-45936824D01*
X-125311824Y-45845452D01*
X-125419268Y-45773660D01*
X-125538652Y-45724210D01*
X-125665390Y-45699000D01*
X-125794610Y-45699000D01*
X-125921348Y-45724210D01*
X-126040732Y-45773660D01*
X-126070007Y-45793221D01*
X-126099281Y-45773660D01*
X-126112730Y-45768089D01*
X-126110051Y-45754622D01*
X-126110051Y-45625402D01*
X-126135261Y-45498664D01*
X-126184711Y-45379280D01*
X-126256503Y-45271836D01*
X-126347875Y-45180464D01*
X-126455319Y-45108672D01*
X-126574703Y-45059222D01*
X-126701441Y-45034012D01*
X-126830661Y-45034012D01*
X-126957399Y-45059222D01*
X-127076783Y-45108672D01*
X-127184227Y-45180464D01*
X-127275599Y-45271836D01*
X-127347391Y-45379280D01*
X-127396841Y-45498664D01*
X-127422051Y-45625402D01*
X-134849000Y-45625402D01*
X-134849000Y-43115390D01*
X-132146013Y-43115390D01*
X-132146013Y-43244610D01*
X-132120803Y-43371348D01*
X-132071353Y-43490732D01*
X-131999561Y-43598176D01*
X-131908189Y-43689548D01*
X-131800745Y-43761340D01*
X-131681361Y-43810790D01*
X-131554623Y-43836000D01*
X-131425403Y-43836000D01*
X-131298665Y-43810790D01*
X-131179281Y-43761340D01*
X-131150007Y-43741779D01*
X-131120732Y-43761340D01*
X-131001348Y-43810790D01*
X-130874610Y-43836000D01*
X-130745390Y-43836000D01*
X-130618652Y-43810790D01*
X-130499268Y-43761340D01*
X-130482881Y-43750390D01*
X-130196000Y-43750390D01*
X-130196000Y-43879610D01*
X-130170790Y-44006348D01*
X-130121340Y-44125732D01*
X-130049548Y-44233176D01*
X-129958176Y-44324548D01*
X-129850732Y-44396340D01*
X-129731348Y-44445790D01*
X-129604610Y-44471000D01*
X-129475390Y-44471000D01*
X-129348652Y-44445790D01*
X-129229268Y-44396340D01*
X-129121824Y-44324548D01*
X-129030452Y-44233176D01*
X-128958660Y-44125732D01*
X-128909210Y-44006348D01*
X-128884000Y-43879610D01*
X-128884000Y-43750390D01*
X-128291000Y-43750390D01*
X-128291000Y-43879610D01*
X-128265790Y-44006348D01*
X-128216340Y-44125732D01*
X-128144548Y-44233176D01*
X-128053176Y-44324548D01*
X-127945732Y-44396340D01*
X-127826348Y-44445790D01*
X-127699610Y-44471000D01*
X-127570390Y-44471000D01*
X-127443652Y-44445790D01*
X-127324268Y-44396340D01*
X-127216824Y-44324548D01*
X-127125452Y-44233176D01*
X-127053660Y-44125732D01*
X-127004210Y-44006348D01*
X-126979000Y-43879610D01*
X-126979000Y-43836000D01*
X-126935390Y-43836000D01*
X-126808652Y-43810790D01*
X-126689268Y-43761340D01*
X-126672881Y-43750390D01*
X-121306000Y-43750390D01*
X-121306000Y-43879610D01*
X-121280790Y-44006348D01*
X-121231340Y-44125732D01*
X-121159548Y-44233176D01*
X-121068176Y-44324548D01*
X-120960732Y-44396340D01*
X-120841348Y-44445790D01*
X-120714610Y-44471000D01*
X-120585390Y-44471000D01*
X-120458652Y-44445790D01*
X-120339268Y-44396340D01*
X-120231824Y-44324548D01*
X-120140452Y-44233176D01*
X-120068660Y-44125732D01*
X-120019210Y-44006348D01*
X-119994000Y-43879610D01*
X-119994000Y-43750390D01*
X-120019210Y-43623652D01*
X-120068660Y-43504268D01*
X-120140452Y-43396824D01*
X-120231824Y-43305452D01*
X-120339268Y-43233660D01*
X-120458652Y-43184210D01*
X-120585390Y-43159000D01*
X-120714610Y-43159000D01*
X-120841348Y-43184210D01*
X-120960732Y-43233660D01*
X-121068176Y-43305452D01*
X-121159548Y-43396824D01*
X-121231340Y-43504268D01*
X-121280790Y-43623652D01*
X-121306000Y-43750390D01*
X-126672881Y-43750390D01*
X-126581824Y-43689548D01*
X-126490452Y-43598176D01*
X-126418660Y-43490732D01*
X-126369210Y-43371348D01*
X-126344000Y-43244610D01*
X-126344000Y-43115390D01*
X-126369210Y-42988652D01*
X-126418660Y-42869268D01*
X-126490452Y-42761824D01*
X-126581824Y-42670452D01*
X-126689268Y-42598660D01*
X-126808652Y-42549210D01*
X-126935390Y-42524000D01*
X-127064610Y-42524000D01*
X-127191348Y-42549210D01*
X-127310732Y-42598660D01*
X-127418176Y-42670452D01*
X-127509548Y-42761824D01*
X-127581340Y-42869268D01*
X-127630790Y-42988652D01*
X-127656000Y-43115390D01*
X-127656000Y-43159000D01*
X-127699610Y-43159000D01*
X-127826348Y-43184210D01*
X-127945732Y-43233660D01*
X-128053176Y-43305452D01*
X-128144548Y-43396824D01*
X-128216340Y-43504268D01*
X-128265790Y-43623652D01*
X-128291000Y-43750390D01*
X-128884000Y-43750390D01*
X-128909210Y-43623652D01*
X-128958660Y-43504268D01*
X-129030452Y-43396824D01*
X-129121824Y-43305452D01*
X-129229268Y-43233660D01*
X-129348652Y-43184210D01*
X-129475390Y-43159000D01*
X-129604610Y-43159000D01*
X-129731348Y-43184210D01*
X-129850732Y-43233660D01*
X-129958176Y-43305452D01*
X-130049548Y-43396824D01*
X-130121340Y-43504268D01*
X-130170790Y-43623652D01*
X-130196000Y-43750390D01*
X-130482881Y-43750390D01*
X-130391824Y-43689548D01*
X-130300452Y-43598176D01*
X-130228660Y-43490732D01*
X-130179210Y-43371348D01*
X-130154000Y-43244610D01*
X-130154000Y-43115390D01*
X-130179210Y-42988652D01*
X-130228660Y-42869268D01*
X-130300452Y-42761824D01*
X-130391824Y-42670452D01*
X-130499268Y-42598660D01*
X-130618652Y-42549210D01*
X-130745390Y-42524000D01*
X-130874610Y-42524000D01*
X-131001348Y-42549210D01*
X-131120732Y-42598660D01*
X-131150007Y-42618221D01*
X-131179281Y-42598660D01*
X-131298665Y-42549210D01*
X-131425403Y-42524000D01*
X-131554623Y-42524000D01*
X-131681361Y-42549210D01*
X-131800745Y-42598660D01*
X-131908189Y-42670452D01*
X-131999561Y-42761824D01*
X-132071353Y-42869268D01*
X-132120803Y-42988652D01*
X-132146013Y-43115390D01*
X-134849000Y-43115390D01*
X-134849000Y-37400390D01*
X-132101000Y-37400390D01*
X-132101000Y-37529610D01*
X-132075790Y-37656348D01*
X-132026340Y-37775732D01*
X-131954548Y-37883176D01*
X-131863176Y-37974548D01*
X-131755732Y-38046340D01*
X-131636348Y-38095790D01*
X-131509610Y-38121000D01*
X-131380390Y-38121000D01*
X-131253652Y-38095790D01*
X-131134268Y-38046340D01*
X-131026824Y-37974548D01*
X-130935452Y-37883176D01*
X-130863660Y-37775732D01*
X-130814210Y-37656348D01*
X-130789000Y-37529610D01*
X-130789000Y-37486000D01*
X-130745390Y-37486000D01*
X-130618652Y-37460790D01*
X-130499268Y-37411340D01*
X-130391824Y-37339548D01*
X-130300452Y-37248176D01*
X-130228660Y-37140732D01*
X-130179210Y-37021348D01*
X-130175000Y-37000183D01*
X-130170790Y-37021348D01*
X-130121340Y-37140732D01*
X-130049548Y-37248176D01*
X-129958176Y-37339548D01*
X-129850732Y-37411340D01*
X-129731348Y-37460790D01*
X-129604610Y-37486000D01*
X-129475390Y-37486000D01*
X-129348652Y-37460790D01*
X-129229268Y-37411340D01*
X-129121824Y-37339548D01*
X-129030452Y-37248176D01*
X-128958660Y-37140732D01*
X-128909210Y-37021348D01*
X-128905000Y-37000183D01*
X-128900790Y-37021348D01*
X-128851340Y-37140732D01*
X-128779548Y-37248176D01*
X-128688176Y-37339548D01*
X-128580732Y-37411340D01*
X-128461348Y-37460790D01*
X-128334610Y-37486000D01*
X-128291000Y-37486000D01*
X-128291000Y-37529610D01*
X-128265790Y-37656348D01*
X-128216340Y-37775732D01*
X-128144548Y-37883176D01*
X-128053176Y-37974548D01*
X-127945732Y-38046340D01*
X-127826348Y-38095790D01*
X-127699610Y-38121000D01*
X-127570390Y-38121000D01*
X-127443652Y-38095790D01*
X-127324268Y-38046340D01*
X-127216824Y-37974548D01*
X-127125452Y-37883176D01*
X-127053660Y-37775732D01*
X-127004210Y-37656348D01*
X-126979000Y-37529610D01*
X-126979000Y-37400390D01*
X-127004210Y-37273652D01*
X-127053660Y-37154268D01*
X-127125452Y-37046824D01*
X-127216824Y-36955452D01*
X-127324268Y-36883660D01*
X-127443652Y-36834210D01*
X-127570390Y-36809000D01*
X-127614000Y-36809000D01*
X-127614000Y-36765390D01*
X-127639210Y-36638652D01*
X-127688660Y-36519268D01*
X-127760452Y-36411824D01*
X-127851824Y-36320452D01*
X-127959268Y-36248660D01*
X-128078652Y-36199210D01*
X-128205390Y-36174000D01*
X-128334610Y-36174000D01*
X-128461348Y-36199210D01*
X-128580732Y-36248660D01*
X-128688176Y-36320452D01*
X-128779548Y-36411824D01*
X-128851340Y-36519268D01*
X-128900790Y-36638652D01*
X-128905000Y-36659817D01*
X-128909210Y-36638652D01*
X-128958660Y-36519268D01*
X-129030452Y-36411824D01*
X-129121824Y-36320452D01*
X-129229268Y-36248660D01*
X-129348652Y-36199210D01*
X-129475390Y-36174000D01*
X-129604610Y-36174000D01*
X-129731348Y-36199210D01*
X-129850732Y-36248660D01*
X-129958176Y-36320452D01*
X-130049548Y-36411824D01*
X-130121340Y-36519268D01*
X-130170790Y-36638652D01*
X-130175000Y-36659817D01*
X-130179210Y-36638652D01*
X-130228660Y-36519268D01*
X-130300452Y-36411824D01*
X-130391824Y-36320452D01*
X-130499268Y-36248660D01*
X-130618652Y-36199210D01*
X-130745390Y-36174000D01*
X-130874610Y-36174000D01*
X-131001348Y-36199210D01*
X-131120732Y-36248660D01*
X-131228176Y-36320452D01*
X-131319548Y-36411824D01*
X-131391340Y-36519268D01*
X-131440790Y-36638652D01*
X-131466000Y-36765390D01*
X-131466000Y-36809000D01*
X-131509610Y-36809000D01*
X-131636348Y-36834210D01*
X-131755732Y-36883660D01*
X-131863176Y-36955452D01*
X-131954548Y-37046824D01*
X-132026340Y-37154268D01*
X-132075790Y-37273652D01*
X-132101000Y-37400390D01*
X-134849000Y-37400390D01*
X-134849000Y-19456000D01*
X-129032000Y-19456000D01*
X-129032000Y-20650758D01*
G37*
X-129032000Y-20650758D02*
X-129174731Y-20492412D01*
X-129408080Y-20318359D01*
X-129670901Y-20193175D01*
X-129818110Y-20148524D01*
X-130048000Y-20269845D01*
X-130048000Y-21463000D01*
X-130028000Y-21463000D01*
X-130028000Y-21717000D01*
X-130048000Y-21717000D01*
X-130048000Y-21737000D01*
X-130302000Y-21737000D01*
X-130302000Y-21717000D01*
X-130322000Y-21717000D01*
X-130322000Y-21463000D01*
X-130302000Y-21463000D01*
X-130302000Y-20269845D01*
X-130531890Y-20148524D01*
X-130679099Y-20193175D01*
X-130941920Y-20318359D01*
X-131175269Y-20492412D01*
X-131370178Y-20708645D01*
X-131519157Y-20958748D01*
X-131576772Y-21121168D01*
X-131624102Y-21006903D01*
X-131758820Y-20805283D01*
X-131930283Y-20633820D01*
X-132131903Y-20499102D01*
X-132355931Y-20406307D01*
X-132593757Y-20359000D01*
X-132836243Y-20359000D01*
X-133074069Y-20406307D01*
X-133298097Y-20499102D01*
X-133499717Y-20633820D01*
X-133671180Y-20805283D01*
X-133805898Y-21006903D01*
X-133898693Y-21230931D01*
X-133946000Y-21468757D01*
X-133946000Y-21711243D01*
X-133898693Y-21949069D01*
X-133805898Y-22173097D01*
X-133671180Y-22374717D01*
X-133499717Y-22546180D01*
X-133298097Y-22680898D01*
X-133074069Y-22773693D01*
X-132836243Y-22821000D01*
X-132593757Y-22821000D01*
X-132355931Y-22773693D01*
X-132131903Y-22680898D01*
X-132061330Y-22633743D01*
X-132075790Y-22668652D01*
X-132088761Y-22733863D01*
X-132104776Y-22735440D01*
X-132128601Y-22742667D01*
X-132150557Y-22754403D01*
X-132169803Y-22770197D01*
X-132185597Y-22789443D01*
X-132197333Y-22811399D01*
X-132204560Y-22835224D01*
X-132207000Y-22860000D01*
X-132207000Y-23007996D01*
X-132355931Y-22946307D01*
X-132593757Y-22899000D01*
X-132836243Y-22899000D01*
X-133074069Y-22946307D01*
X-133298097Y-23039102D01*
X-133499717Y-23173820D01*
X-133671180Y-23345283D01*
X-133805898Y-23546903D01*
X-133898693Y-23770931D01*
X-133946000Y-24008757D01*
X-133946000Y-24251243D01*
X-133898693Y-24489069D01*
X-133805898Y-24713097D01*
X-133671180Y-24914717D01*
X-133499717Y-25086180D01*
X-133298097Y-25220898D01*
X-133074069Y-25313693D01*
X-132836243Y-25361000D01*
X-132593757Y-25361000D01*
X-132355931Y-25313693D01*
X-132207000Y-25252004D01*
X-132207000Y-27305000D01*
X-132204560Y-27329776D01*
X-132197333Y-27353601D01*
X-132185597Y-27375557D01*
X-132169803Y-27394803D01*
X-132150557Y-27410597D01*
X-132128601Y-27422333D01*
X-132104776Y-27429560D01*
X-132080000Y-27432000D01*
X-125222000Y-27432000D01*
X-125222000Y-35423961D01*
X-125322809Y-35444013D01*
X-125464942Y-35502887D01*
X-125592859Y-35588358D01*
X-125701642Y-35697141D01*
X-125787113Y-35825058D01*
X-125845987Y-35967191D01*
X-125876000Y-36118078D01*
X-125876000Y-36271922D01*
X-125845987Y-36422809D01*
X-125787113Y-36564942D01*
X-125701642Y-36692859D01*
X-125592859Y-36801642D01*
X-125550418Y-36830000D01*
X-125592859Y-36858358D01*
X-125701642Y-36967141D01*
X-125787113Y-37095058D01*
X-125845987Y-37237191D01*
X-125876000Y-37388078D01*
X-125876000Y-37541922D01*
X-125845987Y-37692809D01*
X-125787113Y-37834942D01*
X-125701642Y-37962859D01*
X-125592859Y-38071642D01*
X-125464942Y-38157113D01*
X-125322809Y-38215987D01*
X-125222000Y-38236039D01*
X-125222000Y-38735000D01*
X-125219560Y-38759776D01*
X-125212333Y-38783601D01*
X-125200597Y-38805557D01*
X-125184803Y-38824803D01*
X-125165557Y-38840597D01*
X-125143601Y-38852333D01*
X-125119776Y-38859560D01*
X-125095000Y-38862000D01*
X-125056501Y-38862000D01*
X-125066642Y-38872141D01*
X-125152113Y-39000058D01*
X-125210987Y-39142191D01*
X-125241000Y-39293078D01*
X-125241000Y-39446922D01*
X-125210987Y-39597809D01*
X-125152113Y-39739942D01*
X-125066642Y-39867859D01*
X-124957859Y-39976642D01*
X-124829942Y-40062113D01*
X-124687809Y-40120987D01*
X-124536922Y-40151000D01*
X-124383078Y-40151000D01*
X-124232191Y-40120987D01*
X-124090058Y-40062113D01*
X-123962141Y-39976642D01*
X-123853358Y-39867859D01*
X-123767887Y-39739942D01*
X-123709013Y-39597809D01*
X-123679000Y-39446922D01*
X-123679000Y-39293078D01*
X-123709013Y-39142191D01*
X-123767887Y-39000058D01*
X-123853358Y-38872141D01*
X-123863499Y-38862000D01*
X-123326039Y-38862000D01*
X-123305987Y-38962809D01*
X-123247113Y-39104942D01*
X-123161642Y-39232859D01*
X-123052859Y-39341642D01*
X-122924942Y-39427113D01*
X-122782809Y-39485987D01*
X-122631922Y-39516000D01*
X-122478078Y-39516000D01*
X-122327191Y-39485987D01*
X-122185058Y-39427113D01*
X-122057141Y-39341642D01*
X-121948358Y-39232859D01*
X-121920000Y-39190418D01*
X-121891642Y-39232859D01*
X-121782859Y-39341642D01*
X-121654942Y-39427113D01*
X-121512809Y-39485987D01*
X-121361922Y-39516000D01*
X-121208078Y-39516000D01*
X-121057191Y-39485987D01*
X-120915058Y-39427113D01*
X-120787141Y-39341642D01*
X-120678358Y-39232859D01*
X-120592887Y-39104942D01*
X-120534013Y-38962809D01*
X-120513961Y-38862000D01*
X-118881039Y-38862000D01*
X-118860987Y-38962809D01*
X-118802113Y-39104942D01*
X-118716642Y-39232859D01*
X-118607859Y-39341642D01*
X-118565418Y-39370000D01*
X-118607859Y-39398358D01*
X-118716642Y-39507141D01*
X-118802113Y-39635058D01*
X-118860987Y-39777191D01*
X-118891000Y-39928078D01*
X-118891000Y-40081922D01*
X-118860987Y-40232809D01*
X-118802113Y-40374942D01*
X-118716642Y-40502859D01*
X-118607859Y-40611642D01*
X-118479942Y-40697113D01*
X-118337809Y-40755987D01*
X-118186922Y-40786000D01*
X-118033078Y-40786000D01*
X-117882191Y-40755987D01*
X-117740058Y-40697113D01*
X-117612141Y-40611642D01*
X-117602000Y-40601501D01*
X-117602000Y-45300276D01*
X-117691824Y-45210452D01*
X-117799268Y-45138660D01*
X-117918652Y-45089210D01*
X-118045390Y-45064000D01*
X-118174610Y-45064000D01*
X-118301348Y-45089210D01*
X-118420732Y-45138660D01*
X-118528176Y-45210452D01*
X-118619548Y-45301824D01*
X-118691340Y-45409268D01*
X-118740790Y-45528652D01*
X-118745000Y-45549817D01*
X-118749210Y-45528652D01*
X-118798660Y-45409268D01*
X-118870452Y-45301824D01*
X-118961824Y-45210452D01*
X-119069268Y-45138660D01*
X-119188652Y-45089210D01*
X-119315390Y-45064000D01*
X-119444610Y-45064000D01*
X-119571348Y-45089210D01*
X-119690732Y-45138660D01*
X-119798176Y-45210452D01*
X-119889548Y-45301824D01*
X-119961340Y-45409268D01*
X-120010790Y-45528652D01*
X-120036000Y-45655390D01*
X-120036000Y-45784610D01*
X-120010790Y-45911348D01*
X-119961340Y-46030732D01*
X-119889548Y-46138176D01*
X-119798176Y-46229548D01*
X-119690732Y-46301340D01*
X-119571348Y-46350790D01*
X-119451010Y-46374727D01*
X-119451010Y-46419610D01*
X-119425800Y-46546348D01*
X-119376350Y-46665732D01*
X-119304558Y-46773176D01*
X-119213186Y-46864548D01*
X-119105742Y-46936340D01*
X-118986358Y-46985790D01*
X-118859620Y-47011000D01*
X-118730400Y-47011000D01*
X-118603662Y-46985790D01*
X-118484278Y-46936340D01*
X-118376834Y-46864548D01*
X-118285462Y-46773176D01*
X-118213670Y-46665732D01*
X-118164220Y-46546348D01*
X-118139010Y-46419610D01*
X-118139010Y-46376000D01*
X-118045390Y-46376000D01*
X-117918652Y-46350790D01*
X-117799268Y-46301340D01*
X-117691824Y-46229548D01*
X-117600452Y-46138176D01*
X-117528660Y-46030732D01*
X-117479210Y-45911348D01*
X-117466410Y-45847000D01*
X-116967000Y-45847000D01*
X-116967000Y-51308000D01*
X-121276410Y-51308000D01*
X-121289210Y-51243652D01*
X-121338660Y-51124268D01*
X-121410452Y-51016824D01*
X-121501824Y-50925452D01*
X-121609268Y-50853660D01*
X-121728652Y-50804210D01*
X-121855390Y-50779000D01*
X-121984610Y-50779000D01*
X-122111348Y-50804210D01*
X-122230732Y-50853660D01*
X-122338176Y-50925452D01*
X-122429548Y-51016824D01*
X-122501340Y-51124268D01*
X-122550790Y-51243652D01*
X-122563590Y-51308000D01*
X-123017558Y-51308000D01*
X-123113078Y-51289000D01*
X-123266922Y-51289000D01*
X-123362442Y-51308000D01*
X-128896410Y-51308000D01*
X-128909210Y-51243652D01*
X-128958660Y-51124268D01*
X-129030452Y-51016824D01*
X-129121824Y-50925452D01*
X-129229268Y-50853660D01*
X-129348652Y-50804210D01*
X-129475390Y-50779000D01*
X-129604610Y-50779000D01*
X-129731348Y-50804210D01*
X-129850732Y-50853660D01*
X-129958176Y-50925452D01*
X-130049548Y-51016824D01*
X-130121340Y-51124268D01*
X-130170790Y-51243652D01*
X-130183590Y-51308000D01*
X-131272558Y-51308000D01*
X-131368078Y-51289000D01*
X-131521922Y-51289000D01*
X-131617442Y-51308000D01*
X-134849000Y-51308000D01*
X-134849000Y-46925390D01*
X-130196000Y-46925390D01*
X-130196000Y-47054610D01*
X-130170790Y-47181348D01*
X-130121340Y-47300732D01*
X-130049548Y-47408176D01*
X-129958176Y-47499548D01*
X-129850732Y-47571340D01*
X-129731348Y-47620790D01*
X-129604610Y-47646000D01*
X-129475390Y-47646000D01*
X-129348652Y-47620790D01*
X-129229268Y-47571340D01*
X-129121824Y-47499548D01*
X-129030452Y-47408176D01*
X-128958660Y-47300732D01*
X-128909210Y-47181348D01*
X-128884000Y-47054610D01*
X-128884000Y-46925390D01*
X-128909210Y-46798652D01*
X-128958660Y-46679268D01*
X-129030452Y-46571824D01*
X-129121824Y-46480452D01*
X-129229268Y-46408660D01*
X-129348652Y-46359210D01*
X-129475390Y-46334000D01*
X-129604610Y-46334000D01*
X-129731348Y-46359210D01*
X-129850732Y-46408660D01*
X-129958176Y-46480452D01*
X-130049548Y-46571824D01*
X-130121340Y-46679268D01*
X-130170790Y-46798652D01*
X-130196000Y-46925390D01*
X-134849000Y-46925390D01*
X-134849000Y-46290390D01*
X-128971013Y-46290390D01*
X-128971013Y-46419610D01*
X-128945803Y-46546348D01*
X-128896353Y-46665732D01*
X-128824561Y-46773176D01*
X-128733189Y-46864548D01*
X-128625745Y-46936340D01*
X-128506361Y-46985790D01*
X-128379623Y-47011000D01*
X-128250403Y-47011000D01*
X-128123665Y-46985790D01*
X-128004281Y-46936340D01*
X-127896837Y-46864548D01*
X-127805465Y-46773176D01*
X-127733673Y-46665732D01*
X-127684223Y-46546348D01*
X-127659013Y-46419610D01*
X-127659013Y-46290390D01*
X-127684223Y-46163652D01*
X-127733673Y-46044268D01*
X-127805465Y-45936824D01*
X-127896837Y-45845452D01*
X-128004281Y-45773660D01*
X-128123665Y-45724210D01*
X-128250403Y-45699000D01*
X-128379623Y-45699000D01*
X-128506361Y-45724210D01*
X-128625745Y-45773660D01*
X-128733189Y-45845452D01*
X-128824561Y-45936824D01*
X-128896353Y-46044268D01*
X-128945803Y-46163652D01*
X-128971013Y-46290390D01*
X-134849000Y-46290390D01*
X-134849000Y-45625402D01*
X-127422051Y-45625402D01*
X-127422051Y-45754622D01*
X-127396841Y-45881360D01*
X-127347391Y-46000744D01*
X-127275599Y-46108188D01*
X-127184227Y-46199560D01*
X-127076783Y-46271352D01*
X-127063334Y-46276923D01*
X-127066013Y-46290390D01*
X-127066013Y-46419610D01*
X-127040803Y-46546348D01*
X-126991353Y-46665732D01*
X-126919561Y-46773176D01*
X-126828189Y-46864548D01*
X-126720745Y-46936340D01*
X-126601361Y-46985790D01*
X-126474623Y-47011000D01*
X-126345403Y-47011000D01*
X-126218665Y-46985790D01*
X-126099281Y-46936340D01*
X-126070007Y-46916779D01*
X-126040732Y-46936340D01*
X-125921348Y-46985790D01*
X-125794610Y-47011000D01*
X-125751000Y-47011000D01*
X-125751000Y-47054610D01*
X-125725790Y-47181348D01*
X-125676340Y-47300732D01*
X-125604548Y-47408176D01*
X-125513176Y-47499548D01*
X-125405732Y-47571340D01*
X-125286348Y-47620790D01*
X-125159610Y-47646000D01*
X-125030390Y-47646000D01*
X-124903652Y-47620790D01*
X-124784268Y-47571340D01*
X-124676824Y-47499548D01*
X-124585452Y-47408176D01*
X-124513660Y-47300732D01*
X-124464210Y-47181348D01*
X-124449103Y-47105398D01*
X-122576000Y-47105398D01*
X-122576000Y-47234618D01*
X-122550790Y-47361356D01*
X-122501340Y-47480740D01*
X-122429548Y-47588184D01*
X-122338176Y-47679556D01*
X-122230732Y-47751348D01*
X-122111348Y-47800798D01*
X-121984610Y-47826008D01*
X-121855390Y-47826008D01*
X-121728652Y-47800798D01*
X-121609268Y-47751348D01*
X-121501824Y-47679556D01*
X-121410452Y-47588184D01*
X-121338660Y-47480740D01*
X-121289210Y-47361356D01*
X-121264000Y-47234618D01*
X-121264000Y-47105398D01*
X-121289210Y-46978660D01*
X-121338660Y-46859276D01*
X-121410452Y-46751832D01*
X-121501824Y-46660460D01*
X-121609268Y-46588668D01*
X-121641329Y-46575388D01*
X-121306000Y-46575388D01*
X-121306000Y-46704608D01*
X-121280790Y-46831346D01*
X-121231340Y-46950730D01*
X-121159548Y-47058174D01*
X-121068176Y-47149546D01*
X-120960732Y-47221338D01*
X-120841348Y-47270788D01*
X-120714610Y-47295998D01*
X-120585390Y-47295998D01*
X-120458652Y-47270788D01*
X-120339268Y-47221338D01*
X-120231824Y-47149546D01*
X-120140452Y-47058174D01*
X-120068660Y-46950730D01*
X-120019210Y-46831346D01*
X-119994000Y-46704608D01*
X-119994000Y-46575388D01*
X-120019210Y-46448650D01*
X-120068660Y-46329266D01*
X-120140452Y-46221822D01*
X-120231824Y-46130450D01*
X-120339268Y-46058658D01*
X-120458652Y-46009208D01*
X-120585390Y-45983998D01*
X-120714610Y-45983998D01*
X-120841348Y-46009208D01*
X-120960732Y-46058658D01*
X-121068176Y-46130450D01*
X-121159548Y-46221822D01*
X-121231340Y-46329266D01*
X-121280790Y-46448650D01*
X-121306000Y-46575388D01*
X-121641329Y-46575388D01*
X-121728652Y-46539218D01*
X-121855390Y-46514008D01*
X-121984610Y-46514008D01*
X-122111348Y-46539218D01*
X-122230732Y-46588668D01*
X-122338176Y-46660460D01*
X-122429548Y-46751832D01*
X-122501340Y-46859276D01*
X-122550790Y-46978660D01*
X-122576000Y-47105398D01*
X-124449103Y-47105398D01*
X-124439000Y-47054610D01*
X-124439000Y-46925390D01*
X-124464210Y-46798652D01*
X-124513660Y-46679268D01*
X-124585452Y-46571824D01*
X-124676824Y-46480452D01*
X-124784268Y-46408660D01*
X-124903652Y-46359210D01*
X-125030390Y-46334000D01*
X-125074000Y-46334000D01*
X-125074000Y-46290390D01*
X-125099210Y-46163652D01*
X-125148660Y-46044268D01*
X-125220452Y-45936824D01*
X-125311824Y-45845452D01*
X-125419268Y-45773660D01*
X-125538652Y-45724210D01*
X-125665390Y-45699000D01*
X-125794610Y-45699000D01*
X-125921348Y-45724210D01*
X-126040732Y-45773660D01*
X-126070007Y-45793221D01*
X-126099281Y-45773660D01*
X-126112730Y-45768089D01*
X-126110051Y-45754622D01*
X-126110051Y-45625402D01*
X-126135261Y-45498664D01*
X-126184711Y-45379280D01*
X-126256503Y-45271836D01*
X-126347875Y-45180464D01*
X-126455319Y-45108672D01*
X-126574703Y-45059222D01*
X-126701441Y-45034012D01*
X-126830661Y-45034012D01*
X-126957399Y-45059222D01*
X-127076783Y-45108672D01*
X-127184227Y-45180464D01*
X-127275599Y-45271836D01*
X-127347391Y-45379280D01*
X-127396841Y-45498664D01*
X-127422051Y-45625402D01*
X-134849000Y-45625402D01*
X-134849000Y-43115390D01*
X-132146013Y-43115390D01*
X-132146013Y-43244610D01*
X-132120803Y-43371348D01*
X-132071353Y-43490732D01*
X-131999561Y-43598176D01*
X-131908189Y-43689548D01*
X-131800745Y-43761340D01*
X-131681361Y-43810790D01*
X-131554623Y-43836000D01*
X-131425403Y-43836000D01*
X-131298665Y-43810790D01*
X-131179281Y-43761340D01*
X-131150007Y-43741779D01*
X-131120732Y-43761340D01*
X-131001348Y-43810790D01*
X-130874610Y-43836000D01*
X-130745390Y-43836000D01*
X-130618652Y-43810790D01*
X-130499268Y-43761340D01*
X-130482881Y-43750390D01*
X-130196000Y-43750390D01*
X-130196000Y-43879610D01*
X-130170790Y-44006348D01*
X-130121340Y-44125732D01*
X-130049548Y-44233176D01*
X-129958176Y-44324548D01*
X-129850732Y-44396340D01*
X-129731348Y-44445790D01*
X-129604610Y-44471000D01*
X-129475390Y-44471000D01*
X-129348652Y-44445790D01*
X-129229268Y-44396340D01*
X-129121824Y-44324548D01*
X-129030452Y-44233176D01*
X-128958660Y-44125732D01*
X-128909210Y-44006348D01*
X-128884000Y-43879610D01*
X-128884000Y-43750390D01*
X-128291000Y-43750390D01*
X-128291000Y-43879610D01*
X-128265790Y-44006348D01*
X-128216340Y-44125732D01*
X-128144548Y-44233176D01*
X-128053176Y-44324548D01*
X-127945732Y-44396340D01*
X-127826348Y-44445790D01*
X-127699610Y-44471000D01*
X-127570390Y-44471000D01*
X-127443652Y-44445790D01*
X-127324268Y-44396340D01*
X-127216824Y-44324548D01*
X-127125452Y-44233176D01*
X-127053660Y-44125732D01*
X-127004210Y-44006348D01*
X-126979000Y-43879610D01*
X-126979000Y-43836000D01*
X-126935390Y-43836000D01*
X-126808652Y-43810790D01*
X-126689268Y-43761340D01*
X-126672881Y-43750390D01*
X-121306000Y-43750390D01*
X-121306000Y-43879610D01*
X-121280790Y-44006348D01*
X-121231340Y-44125732D01*
X-121159548Y-44233176D01*
X-121068176Y-44324548D01*
X-120960732Y-44396340D01*
X-120841348Y-44445790D01*
X-120714610Y-44471000D01*
X-120585390Y-44471000D01*
X-120458652Y-44445790D01*
X-120339268Y-44396340D01*
X-120231824Y-44324548D01*
X-120140452Y-44233176D01*
X-120068660Y-44125732D01*
X-120019210Y-44006348D01*
X-119994000Y-43879610D01*
X-119994000Y-43750390D01*
X-120019210Y-43623652D01*
X-120068660Y-43504268D01*
X-120140452Y-43396824D01*
X-120231824Y-43305452D01*
X-120339268Y-43233660D01*
X-120458652Y-43184210D01*
X-120585390Y-43159000D01*
X-120714610Y-43159000D01*
X-120841348Y-43184210D01*
X-120960732Y-43233660D01*
X-121068176Y-43305452D01*
X-121159548Y-43396824D01*
X-121231340Y-43504268D01*
X-121280790Y-43623652D01*
X-121306000Y-43750390D01*
X-126672881Y-43750390D01*
X-126581824Y-43689548D01*
X-126490452Y-43598176D01*
X-126418660Y-43490732D01*
X-126369210Y-43371348D01*
X-126344000Y-43244610D01*
X-126344000Y-43115390D01*
X-126369210Y-42988652D01*
X-126418660Y-42869268D01*
X-126490452Y-42761824D01*
X-126581824Y-42670452D01*
X-126689268Y-42598660D01*
X-126808652Y-42549210D01*
X-126935390Y-42524000D01*
X-127064610Y-42524000D01*
X-127191348Y-42549210D01*
X-127310732Y-42598660D01*
X-127418176Y-42670452D01*
X-127509548Y-42761824D01*
X-127581340Y-42869268D01*
X-127630790Y-42988652D01*
X-127656000Y-43115390D01*
X-127656000Y-43159000D01*
X-127699610Y-43159000D01*
X-127826348Y-43184210D01*
X-127945732Y-43233660D01*
X-128053176Y-43305452D01*
X-128144548Y-43396824D01*
X-128216340Y-43504268D01*
X-128265790Y-43623652D01*
X-128291000Y-43750390D01*
X-128884000Y-43750390D01*
X-128909210Y-43623652D01*
X-128958660Y-43504268D01*
X-129030452Y-43396824D01*
X-129121824Y-43305452D01*
X-129229268Y-43233660D01*
X-129348652Y-43184210D01*
X-129475390Y-43159000D01*
X-129604610Y-43159000D01*
X-129731348Y-43184210D01*
X-129850732Y-43233660D01*
X-129958176Y-43305452D01*
X-130049548Y-43396824D01*
X-130121340Y-43504268D01*
X-130170790Y-43623652D01*
X-130196000Y-43750390D01*
X-130482881Y-43750390D01*
X-130391824Y-43689548D01*
X-130300452Y-43598176D01*
X-130228660Y-43490732D01*
X-130179210Y-43371348D01*
X-130154000Y-43244610D01*
X-130154000Y-43115390D01*
X-130179210Y-42988652D01*
X-130228660Y-42869268D01*
X-130300452Y-42761824D01*
X-130391824Y-42670452D01*
X-130499268Y-42598660D01*
X-130618652Y-42549210D01*
X-130745390Y-42524000D01*
X-130874610Y-42524000D01*
X-131001348Y-42549210D01*
X-131120732Y-42598660D01*
X-131150007Y-42618221D01*
X-131179281Y-42598660D01*
X-131298665Y-42549210D01*
X-131425403Y-42524000D01*
X-131554623Y-42524000D01*
X-131681361Y-42549210D01*
X-131800745Y-42598660D01*
X-131908189Y-42670452D01*
X-131999561Y-42761824D01*
X-132071353Y-42869268D01*
X-132120803Y-42988652D01*
X-132146013Y-43115390D01*
X-134849000Y-43115390D01*
X-134849000Y-37400390D01*
X-132101000Y-37400390D01*
X-132101000Y-37529610D01*
X-132075790Y-37656348D01*
X-132026340Y-37775732D01*
X-131954548Y-37883176D01*
X-131863176Y-37974548D01*
X-131755732Y-38046340D01*
X-131636348Y-38095790D01*
X-131509610Y-38121000D01*
X-131380390Y-38121000D01*
X-131253652Y-38095790D01*
X-131134268Y-38046340D01*
X-131026824Y-37974548D01*
X-130935452Y-37883176D01*
X-130863660Y-37775732D01*
X-130814210Y-37656348D01*
X-130789000Y-37529610D01*
X-130789000Y-37486000D01*
X-130745390Y-37486000D01*
X-130618652Y-37460790D01*
X-130499268Y-37411340D01*
X-130391824Y-37339548D01*
X-130300452Y-37248176D01*
X-130228660Y-37140732D01*
X-130179210Y-37021348D01*
X-130175000Y-37000183D01*
X-130170790Y-37021348D01*
X-130121340Y-37140732D01*
X-130049548Y-37248176D01*
X-129958176Y-37339548D01*
X-129850732Y-37411340D01*
X-129731348Y-37460790D01*
X-129604610Y-37486000D01*
X-129475390Y-37486000D01*
X-129348652Y-37460790D01*
X-129229268Y-37411340D01*
X-129121824Y-37339548D01*
X-129030452Y-37248176D01*
X-128958660Y-37140732D01*
X-128909210Y-37021348D01*
X-128905000Y-37000183D01*
X-128900790Y-37021348D01*
X-128851340Y-37140732D01*
X-128779548Y-37248176D01*
X-128688176Y-37339548D01*
X-128580732Y-37411340D01*
X-128461348Y-37460790D01*
X-128334610Y-37486000D01*
X-128291000Y-37486000D01*
X-128291000Y-37529610D01*
X-128265790Y-37656348D01*
X-128216340Y-37775732D01*
X-128144548Y-37883176D01*
X-128053176Y-37974548D01*
X-127945732Y-38046340D01*
X-127826348Y-38095790D01*
X-127699610Y-38121000D01*
X-127570390Y-38121000D01*
X-127443652Y-38095790D01*
X-127324268Y-38046340D01*
X-127216824Y-37974548D01*
X-127125452Y-37883176D01*
X-127053660Y-37775732D01*
X-127004210Y-37656348D01*
X-126979000Y-37529610D01*
X-126979000Y-37400390D01*
X-127004210Y-37273652D01*
X-127053660Y-37154268D01*
X-127125452Y-37046824D01*
X-127216824Y-36955452D01*
X-127324268Y-36883660D01*
X-127443652Y-36834210D01*
X-127570390Y-36809000D01*
X-127614000Y-36809000D01*
X-127614000Y-36765390D01*
X-127639210Y-36638652D01*
X-127688660Y-36519268D01*
X-127760452Y-36411824D01*
X-127851824Y-36320452D01*
X-127959268Y-36248660D01*
X-128078652Y-36199210D01*
X-128205390Y-36174000D01*
X-128334610Y-36174000D01*
X-128461348Y-36199210D01*
X-128580732Y-36248660D01*
X-128688176Y-36320452D01*
X-128779548Y-36411824D01*
X-128851340Y-36519268D01*
X-128900790Y-36638652D01*
X-128905000Y-36659817D01*
X-128909210Y-36638652D01*
X-128958660Y-36519268D01*
X-129030452Y-36411824D01*
X-129121824Y-36320452D01*
X-129229268Y-36248660D01*
X-129348652Y-36199210D01*
X-129475390Y-36174000D01*
X-129604610Y-36174000D01*
X-129731348Y-36199210D01*
X-129850732Y-36248660D01*
X-129958176Y-36320452D01*
X-130049548Y-36411824D01*
X-130121340Y-36519268D01*
X-130170790Y-36638652D01*
X-130175000Y-36659817D01*
X-130179210Y-36638652D01*
X-130228660Y-36519268D01*
X-130300452Y-36411824D01*
X-130391824Y-36320452D01*
X-130499268Y-36248660D01*
X-130618652Y-36199210D01*
X-130745390Y-36174000D01*
X-130874610Y-36174000D01*
X-131001348Y-36199210D01*
X-131120732Y-36248660D01*
X-131228176Y-36320452D01*
X-131319548Y-36411824D01*
X-131391340Y-36519268D01*
X-131440790Y-36638652D01*
X-131466000Y-36765390D01*
X-131466000Y-36809000D01*
X-131509610Y-36809000D01*
X-131636348Y-36834210D01*
X-131755732Y-36883660D01*
X-131863176Y-36955452D01*
X-131954548Y-37046824D01*
X-132026340Y-37154268D01*
X-132075790Y-37273652D01*
X-132101000Y-37400390D01*
X-134849000Y-37400390D01*
X-134849000Y-19456000D01*
X-129032000Y-19456000D01*
X-129032000Y-20650758D01*
%TD*%
M02*
