M48
; DRILL file {KiCad (5.1.5)-3} date 11/01/20 10:25:45
; FORMAT={-:-/ absolute / inch / decimal}
; #@! TF.CreationDate,2020-11-01T10:25:45+01:00
; #@! TF.GenerationSoftware,Kicad,Pcbnew,(5.1.5)-3
; #@! TF.FileFunction,Plated,1,4,PTH
FMAT,2
INCH
T1C0.0118
T2C0.0138
T3C0.0157
T4C0.0236
T5C0.0394
%
G90
G05
T1
X-4.4589Y-0.9061
X-4.4589Y-0.9439
X-4.425Y-0.925
X-4.3911Y-0.9061
X-4.3911Y-0.9439
T2
X-5.2Y-2.95
X-5.1768Y-1.7
X-5.175Y-0.9
X-5.175Y-1.475
X-5.15Y-1.45
X-5.15Y-1.7
X-5.15Y-2.4
X-5.15Y-2.525
X-5.1482Y-2.6454
X-5.1Y-1.45
X-5.1Y-1.725
X-5.1Y-1.85
X-5.1Y-2.025
X-5.0518Y-1.825
X-5.05Y-1.45
X-5.05Y-3.025
X-5.025Y-1.475
X-5.025Y-1.725
X-5.025Y-1.825
X-5.0Y-1.7
X-4.9908Y-1.7988
X-4.9768Y-1.825
X-4.975Y-3.175
X-4.975Y-3.3
X-4.95Y-1.825
X-4.925Y-1.85
X-4.8Y-1.8571
X-4.8Y-2.025
X-4.75Y-1.725
X-4.75Y-1.8362
X-4.7356Y-1.4997
X-4.7Y-1.8
X-4.677Y-1.825
X-4.65Y-1.8
X-4.6Y-1.025
X-4.525Y-2.75
X-4.375Y-2.875
X-4.325Y-1.0
X-4.325Y-3.075
X-4.3037Y-2.225
X-4.3037Y-2.275
X-4.3Y-2.575
X-4.25Y-0.875
T3
X-5.275Y-1.6
X-5.255Y-2.1503
X-5.255Y-2.3953
X-5.255Y-2.6253
X-5.255Y-2.8653
X-5.255Y-3.1053
X-5.25Y-1.4
X-5.2Y-1.825
X-5.175Y-1.4
X-5.175Y-2.05
X-5.1594Y-2.675
X-5.15Y-1.175
X-5.15Y-2.1
X-5.125Y-3.0
X-5.11Y-3.2553
X-5.1Y-2.775
X-5.075Y-1.175
X-5.0Y-1.55
X-5.0Y-1.6508
X-4.975Y-2.95
X-4.95Y-2.675
X-4.925Y-1.425
X-4.925Y-1.475
X-4.925Y-2.0
X-4.925Y-2.95
X-4.925Y-3.125
X-4.9Y-1.55
X-4.9Y-1.7
X-4.9Y-1.875
X-4.9Y-2.2
X-4.8787Y-2.0787
X-4.875Y-3.2553
X-4.85Y-1.65
X-4.85Y-2.05
X-4.85Y-2.2
X-4.825Y-1.525
X-4.8047Y-1.4752
X-4.8Y-1.35
X-4.775Y-1.525
X-4.725Y-1.1992
X-4.7Y-2.45
X-4.675Y-1.1
X-4.675Y-1.4
X-4.675Y-2.55
X-4.65Y-1.475
X-4.65Y-1.525
X-4.65Y-1.575
X-4.635Y-3.2553
X-4.625Y-2.575
X-4.6242Y-1.825
X-4.6Y-1.25
X-4.6Y-3.0
X-4.575Y-0.975
X-4.575Y-1.5
X-4.575Y-2.075
X-4.575Y-3.175
X-4.55Y-2.325
X-4.55Y-2.475
X-4.55Y-2.55
X-4.525Y-1.3
X-4.525Y-1.925
X-4.5191Y-2.1
X-4.5Y-1.25
X-4.5Y-1.5
X-4.5Y-2.15
X-4.5Y-2.7
X-4.5Y-2.9
X-4.45Y-1.475
X-4.45Y-2.5
X-4.425Y-1.8258
X-4.405Y-1.7603
X-4.4Y-3.2553
X-4.375Y-1.475
X-4.375Y-1.6
X-4.375Y-2.325
X-4.325Y-0.775
X-4.325Y-0.875
X-4.325Y-2.075
X-4.325Y-3.2
X-4.3Y-1.4
X-4.3Y-1.45
X-4.3Y-1.5
X-4.2906Y-1.55
X-4.275Y-1.15
X-4.265Y-2.6253
X-4.265Y-2.8653
X-4.265Y-3.1053
T4
X-4.81Y-2.5909
X-4.81Y-2.65
X-5.125Y-3.0909
X-5.125Y-3.15
T5
X-5.25Y-3.5281
X-5.25Y-3.6266
X-5.25Y-3.725
X-5.225Y-0.85
X-5.225Y-0.95
X-5.125Y-0.85
X-5.125Y-0.95
X-5.025Y-0.85
X-5.025Y-0.95
X-4.925Y-0.85
X-4.925Y-0.95
X-4.825Y-0.85
X-4.825Y-0.95
X-4.725Y-0.85
X-4.725Y-0.95
X-4.3Y-3.725
X-4.3Y-3.825
T0
M30
