%TF.GenerationSoftware,KiCad,Pcbnew,(5.1.5)-3*%
%TF.CreationDate,2020-11-01T10:25:43+01:00*%
%TF.ProjectId,PmodADC,506d6f64-4144-4432-9e6b-696361645f70,v0.2*%
%TF.SameCoordinates,Original*%
%TF.FileFunction,Copper,L4,Bot*%
%TF.FilePolarity,Positive*%
%FSLAX46Y46*%
G04 Gerber Fmt 4.6, Leading zero omitted, Abs format (unit mm)*
G04 Created by KiCad (PCBNEW (5.1.5)-3) date 2020-11-01 10:25:43*
%MOMM*%
%LPD*%
G04 APERTURE LIST*
%TA.AperFunction,Conductor*%
%ADD10R,2.400000X1.650000*%
%TD*%
%TA.AperFunction,ViaPad*%
%ADD11C,0.600000*%
%TD*%
%TA.AperFunction,WasherPad*%
%ADD12C,4.000000*%
%TD*%
%TA.AperFunction,ComponentPad*%
%ADD13C,1.800000*%
%TD*%
%TA.AperFunction,ComponentPad*%
%ADD14O,1.700000X1.700000*%
%TD*%
%TA.AperFunction,ComponentPad*%
%ADD15R,1.700000X1.700000*%
%TD*%
%TA.AperFunction,ComponentPad*%
%ADD16C,1.200000*%
%TD*%
%TA.AperFunction,ComponentPad*%
%ADD17R,1.200000X1.200000*%
%TD*%
%TA.AperFunction,ViaPad*%
%ADD18C,0.550000*%
%TD*%
%TA.AperFunction,ViaPad*%
%ADD19C,0.800000*%
%TD*%
%TA.AperFunction,Conductor*%
%ADD20C,0.250000*%
%TD*%
%TA.AperFunction,Conductor*%
%ADD21C,0.127000*%
%TD*%
G04 APERTURE END LIST*
D10*
%TO.N,GND*%
%TO.C,U4*%
X-112395000Y-23495000D03*
D11*
X-112395000Y-23495000D03*
X-113255000Y-23975000D03*
X-111535000Y-23975000D03*
X-113255000Y-23015000D03*
X-111535000Y-23015000D03*
%TD*%
D12*
%TO.P,R40,*%
%TO.N,*%
X-125850000Y-96865000D03*
X-125850000Y-87365000D03*
D13*
%TO.P,R40,1*%
%TO.N,Net-(R40-Pad1)*%
X-133350000Y-94615000D03*
%TO.P,R40,2*%
%TO.N,Net-(R39-Pad2)*%
X-133350000Y-92115000D03*
%TO.P,R40,3*%
%TO.N,N/C*%
X-133350000Y-89615000D03*
%TD*%
D14*
%TO.P,J3,12*%
%TO.N,+3V3*%
X-132715000Y-24130000D03*
%TO.P,J3,11*%
X-132715000Y-21590000D03*
%TO.P,J3,10*%
%TO.N,GNDA*%
X-130175000Y-24130000D03*
%TO.P,J3,9*%
%TO.N,GND*%
X-130175000Y-21590000D03*
%TO.P,J3,8*%
%TO.N,/COMP_3V*%
X-127635000Y-24130000D03*
%TO.P,J3,7*%
%TO.N,/S&H_3V*%
X-127635000Y-21590000D03*
%TO.P,J3,6*%
%TO.N,/COMP_L_3V*%
X-125095000Y-24130000D03*
%TO.P,J3,5*%
%TO.N,/ADC_S_3V*%
X-125095000Y-21590000D03*
%TO.P,J3,4*%
%TO.N,Net-(J3-Pad4)*%
X-122555000Y-24130000D03*
%TO.P,J3,3*%
%TO.N,/ADC_C_3V*%
X-122555000Y-21590000D03*
%TO.P,J3,2*%
%TO.N,Net-(J3-Pad2)*%
X-120015000Y-24130000D03*
D15*
%TO.P,J3,1*%
%TO.N,/ADC_L_3V*%
X-120015000Y-21590000D03*
%TD*%
D14*
%TO.P,J1,2*%
%TO.N,Net-(C16-Pad1)*%
X-109220000Y-94615000D03*
D15*
%TO.P,J1,1*%
%TO.N,GNDA*%
X-109220000Y-97155000D03*
%TD*%
D16*
%TO.P,C26,2*%
%TO.N,Net-(C23-Pad1)*%
X-122174000Y-65810000D03*
D17*
%TO.P,C26,1*%
%TO.N,Net-(C26-Pad1)*%
X-122174000Y-67310000D03*
%TD*%
%TO.P,C16,1*%
%TO.N,Net-(C16-Pad1)*%
X-130175000Y-80010000D03*
D16*
%TO.P,C16,2*%
%TO.N,/DI*%
X-130175000Y-78510000D03*
%TD*%
D18*
%TO.N,GND*%
X-127635000Y-46355000D03*
D19*
X-133985000Y-40640000D03*
X-127000000Y-39370000D03*
X-124460000Y-43180000D03*
X-123190000Y-41910000D03*
X-132080000Y-46355000D03*
X-125095000Y-50800000D03*
X-124460000Y-47625000D03*
X-116205000Y-24765000D03*
X-116840000Y-31750000D03*
X-114300000Y-31750000D03*
X-108585000Y-29210000D03*
X-109855000Y-22225000D03*
X-109855000Y-19685000D03*
X-127000000Y-41930010D03*
X-117454990Y-46355000D03*
X-131445000Y-35560000D03*
X-133350000Y-35560000D03*
X-130810000Y-29845000D03*
X-128905000Y-29845000D03*
%TO.N,+3V3*%
X-124460000Y-39370000D03*
%TO.N,/Vref_5V*%
X-123190000Y-55880000D03*
X-109855000Y-52705000D03*
X-117475000Y-65405000D03*
X-114784948Y-53340000D03*
D18*
%TO.N,Net-(C16-Pad1)*%
X-126365000Y-83820000D03*
X-126365000Y-80645000D03*
D19*
%TO.N,+5VA*%
X-125095000Y-37465000D03*
X-125095000Y-36195000D03*
X-113030000Y-63500000D03*
D18*
%TO.N,Net-(C23-Pad1)*%
X-130810000Y-64135000D03*
X-130765394Y-67191974D03*
D19*
%TO.N,+9V*%
X-129540000Y-70485000D03*
X-116840000Y-76200000D03*
X-109220000Y-35560000D03*
X-109220000Y-36830000D03*
X-114935000Y-48895000D03*
X-109220000Y-38100000D03*
%TO.N,-5V*%
X-126365000Y-74930000D03*
D18*
X-109855000Y-78105000D03*
D19*
X-118110000Y-40005000D03*
X-118110000Y-38735000D03*
X-118110000Y-37465000D03*
D18*
%TO.N,+5V*%
X-118110000Y-45720000D03*
X-125730000Y-46355000D03*
D19*
X-122555000Y-38735000D03*
X-121285000Y-38735000D03*
X-123190000Y-52070000D03*
X-131445000Y-52070000D03*
D18*
%TO.N,/COMP_3V*%
X-116840000Y-26035000D03*
X-120285010Y-38093016D03*
%TO.N,/S&H_3V*%
X-130810000Y-36830000D03*
%TO.N,/COMP_L_3V*%
X-131445000Y-37465000D03*
X-131445000Y-22860000D03*
%TO.N,/ADC_S_3V*%
X-129540000Y-36830000D03*
%TO.N,/ADC_C_3V*%
X-128270000Y-36830000D03*
%TO.N,/ADC_L_3V*%
X-127635000Y-37465000D03*
%TO.N,Net-(JP7-Pad1)*%
X-111125000Y-73025000D03*
%TO.N,Net-(R2-Pad1)*%
X-109855000Y-25400000D03*
X-107950000Y-22225000D03*
%TO.N,Net-(R39-Pad2)*%
X-128270000Y-76835000D03*
%TO.N,Net-(R40-Pad1)*%
X-132080000Y-74930000D03*
%TO.N,/S&H*%
X-114935000Y-69850000D03*
X-109220000Y-65405000D03*
X-130810000Y-43180000D03*
%TO.N,Net-(U1-Pad9)*%
X-120650000Y-46639998D03*
X-125095000Y-46990000D03*
%TO.N,/ADC_C*%
X-127635000Y-43815000D03*
X-118795010Y-46355000D03*
X-126410013Y-46355000D03*
%TO.N,/ADC_L*%
X-119380000Y-45720000D03*
X-127000000Y-43180000D03*
X-126766051Y-45690012D03*
%TO.N,/ADC_S*%
X-129540000Y-43815000D03*
X-128315013Y-46355000D03*
%TO.N,Net-(U1-Pad15)*%
X-129540000Y-51435000D03*
X-129540000Y-46990000D03*
%TO.N,Net-(U2-Pad15)*%
X-121920000Y-51435000D03*
X-121920000Y-47170008D03*
%TO.N,/COMP*%
X-120650000Y-43815000D03*
X-109315002Y-56515000D03*
%TO.N,/COMP_L*%
X-109315002Y-57785000D03*
X-131490013Y-43180000D03*
D19*
%TO.N,GNDA*%
X-111887000Y-44712000D03*
X-108331000Y-66683000D03*
X-108331000Y-72779000D03*
X-108331000Y-78875000D03*
X-133477000Y-54618000D03*
X-133477000Y-60841000D03*
X-133477000Y-66683000D03*
X-133477000Y-72779000D03*
X-133477000Y-78875000D03*
X-129794000Y-82685000D03*
X-123825000Y-82685000D03*
X-117729000Y-82685000D03*
X-130175000Y-76200000D03*
X-116205000Y-80645000D03*
X-109855000Y-81280000D03*
X-125095000Y-79375000D03*
X-125095000Y-74930000D03*
X-125730000Y-67945000D03*
X-119380000Y-62230000D03*
X-115570000Y-62865000D03*
X-115570000Y-59055000D03*
X-114300000Y-54610000D03*
X-116205000Y-52705000D03*
X-130810000Y-53340000D03*
X-124460000Y-55880000D03*
X-111125000Y-59055000D03*
X-118745000Y-64770000D03*
X-115570000Y-64770000D03*
X-114300000Y-68580000D03*
X-114300000Y-73660000D03*
D18*
X-130810000Y-60960000D03*
D19*
X-118745000Y-27940000D03*
X-121920000Y-34290000D03*
X-118745000Y-35560000D03*
X-114300000Y-38100000D03*
X-116205000Y-38100000D03*
X-111125000Y-40640000D03*
X-113030000Y-37465000D03*
X-114935000Y-33020000D03*
X-120015000Y-30459990D03*
X-122040010Y-37469939D03*
X-111125000Y-37465000D03*
X-108980010Y-39370000D03*
X-123918328Y-52798328D03*
X-111760000Y-82685000D03*
X-131049990Y-67945000D03*
X-112395000Y-46375010D03*
%TD*%
D20*
%TO.N,/Vref_5V*%
X-117324948Y-55880000D02*
X-114784948Y-53340000D01*
X-123190000Y-55880000D02*
X-117324948Y-55880000D01*
%TO.N,Net-(C16-Pad1)*%
X-126365000Y-83820000D02*
X-126365000Y-80645000D01*
%TO.N,Net-(C23-Pad1)*%
X-130810000Y-67147368D02*
X-130765394Y-67191974D01*
X-130810000Y-64135000D02*
X-130810000Y-67147368D01*
%TO.N,/COMP_3V*%
X-120285010Y-37704108D02*
X-120285010Y-38093016D01*
X-120285010Y-32655010D02*
X-120285010Y-37704108D01*
X-116840000Y-29210000D02*
X-120285010Y-32655010D01*
X-116840000Y-26035000D02*
X-116840000Y-29210000D01*
%TO.N,/S&H_3V*%
X-130154999Y-36174999D02*
X-130154999Y-26649999D01*
X-130154999Y-26649999D02*
X-128740001Y-25235001D01*
X-128484999Y-22439999D02*
X-127635000Y-21590000D01*
X-128740001Y-25235001D02*
X-128740001Y-22695001D01*
X-128740001Y-22695001D02*
X-128484999Y-22439999D01*
X-130810000Y-36830000D02*
X-130154999Y-36174999D01*
%TO.N,/COMP_L_3V*%
X-131445000Y-37465000D02*
X-132100001Y-36809999D01*
X-131445000Y-23248908D02*
X-131445000Y-22860000D01*
X-131445000Y-29510598D02*
X-131445000Y-23248908D01*
X-132100001Y-30165599D02*
X-131445000Y-29510598D01*
X-132100001Y-36809999D02*
X-132100001Y-30165599D01*
%TO.N,/ADC_S_3V*%
X-125095000Y-21590000D02*
X-123989999Y-22695001D01*
X-123989999Y-24929999D02*
X-124460000Y-25400000D01*
X-129540000Y-36441092D02*
X-129540000Y-36830000D01*
X-123989999Y-22695001D02*
X-123989999Y-24929999D01*
X-124460000Y-25400000D02*
X-127635000Y-25400000D01*
X-129560001Y-36421091D02*
X-129540000Y-36441092D01*
X-127635000Y-25400000D02*
X-129560001Y-27325001D01*
X-129560001Y-27325001D02*
X-129560001Y-36421091D01*
%TO.N,/ADC_C_3V*%
X-121449999Y-25564999D02*
X-121449999Y-22695001D01*
X-127000000Y-26035000D02*
X-121920000Y-26035000D01*
X-121920000Y-26035000D02*
X-121449999Y-25564999D01*
X-121705001Y-22439999D02*
X-122555000Y-21590000D01*
X-121449999Y-22695001D02*
X-121705001Y-22439999D01*
X-128270000Y-36830000D02*
X-128270000Y-36441092D01*
X-128270000Y-36441092D02*
X-128249999Y-36421091D01*
X-128249999Y-36421091D02*
X-128249999Y-27284999D01*
X-128249999Y-27284999D02*
X-127000000Y-26035000D01*
%TO.N,/ADC_L_3V*%
X-118915000Y-21590000D02*
X-120015000Y-21590000D01*
X-118110000Y-22395000D02*
X-118915000Y-21590000D01*
X-118110000Y-26035000D02*
X-118110000Y-22395000D01*
X-118745000Y-26670000D02*
X-118110000Y-26035000D01*
X-127635000Y-37465000D02*
X-127635000Y-27940000D01*
X-127635000Y-27940000D02*
X-126365000Y-26670000D01*
X-126365000Y-26670000D02*
X-118745000Y-26670000D01*
%TO.N,Net-(R2-Pad1)*%
X-109855000Y-25400000D02*
X-107950000Y-23495000D01*
X-107950000Y-23495000D02*
X-107950000Y-22225000D01*
%TO.N,Net-(R39-Pad2)*%
X-132450001Y-91215001D02*
X-132450001Y-91175001D01*
X-133350000Y-92115000D02*
X-132450001Y-91215001D01*
X-132450001Y-91175001D02*
X-131445000Y-90170000D01*
X-131445000Y-90170000D02*
X-131445000Y-86360000D01*
X-131445000Y-86360000D02*
X-133350000Y-84455000D01*
X-133350000Y-74930000D02*
X-132080000Y-73660000D01*
X-132080000Y-73660000D02*
X-129540000Y-73660000D01*
X-129540000Y-73660000D02*
X-128270000Y-74930000D01*
X-128270000Y-74930000D02*
X-128270000Y-76835000D01*
X-133350000Y-81280000D02*
X-134620000Y-80010000D01*
X-133350000Y-84455000D02*
X-133350000Y-81280000D01*
X-134620000Y-80010000D02*
X-134620000Y-78105000D01*
X-134620000Y-78105000D02*
X-133350000Y-76835000D01*
X-133350000Y-76835000D02*
X-133350000Y-74930000D01*
%TO.N,Net-(R40-Pad1)*%
X-133350000Y-94615000D02*
X-130429990Y-91694990D01*
X-132460010Y-84074990D02*
X-132460010Y-75310010D01*
X-132460010Y-75310010D02*
X-132354999Y-75204999D01*
X-132354999Y-75204999D02*
X-132080000Y-74930000D01*
X-130429990Y-86105010D02*
X-132460010Y-84074990D01*
X-130429990Y-91694990D02*
X-130429990Y-86105010D01*
%TO.N,/S&H*%
X-113665000Y-69850000D02*
X-109220000Y-65405000D01*
X-114935000Y-69850000D02*
X-113665000Y-69850000D01*
X-109220000Y-59690000D02*
X-109220000Y-65405000D01*
X-109855000Y-59055000D02*
X-109220000Y-59690000D01*
X-108585000Y-54610000D02*
X-109855000Y-55880000D01*
X-129540000Y-41275000D02*
X-126365000Y-41275000D01*
X-109855000Y-55880000D02*
X-109855000Y-59055000D01*
X-124460000Y-44450000D02*
X-114300000Y-44450000D01*
X-126365000Y-41275000D02*
X-125730000Y-41910000D01*
X-109220000Y-45720000D02*
X-108585000Y-46355000D01*
X-125730000Y-41910000D02*
X-125730000Y-43180000D01*
X-130810000Y-42545000D02*
X-129540000Y-41275000D01*
X-130810000Y-43180000D02*
X-130810000Y-42545000D01*
X-114300000Y-44450000D02*
X-113030000Y-45720000D01*
X-125730000Y-43180000D02*
X-124460000Y-44450000D01*
X-113030000Y-45720000D02*
X-109220000Y-45720000D01*
X-108585000Y-46355000D02*
X-108585000Y-54610000D01*
%TO.N,Net-(U1-Pad9)*%
X-120650000Y-46639998D02*
X-123474998Y-46639998D01*
X-123474998Y-46639998D02*
X-124744998Y-46639998D01*
X-124744998Y-46639998D02*
X-125095000Y-46990000D01*
%TO.N,/ADC_C*%
X-127635000Y-45570598D02*
X-126850598Y-46355000D01*
X-127635000Y-43815000D02*
X-127635000Y-45570598D01*
X-125984401Y-45824999D02*
X-126410013Y-46250611D01*
X-125475599Y-45824999D02*
X-125984401Y-45824999D01*
X-126798921Y-46355000D02*
X-126410013Y-46355000D01*
X-125190601Y-46109997D02*
X-125475599Y-45824999D01*
X-126410013Y-46250611D02*
X-126410013Y-46355000D01*
X-120150596Y-46355000D02*
X-120395599Y-46109997D01*
X-118795010Y-46355000D02*
X-120150596Y-46355000D01*
X-120395599Y-46109997D02*
X-125190601Y-46109997D01*
X-126850598Y-46355000D02*
X-126798921Y-46355000D01*
%TO.N,/ADC_L*%
X-127000000Y-43180000D02*
X-127000000Y-45456063D01*
X-127000000Y-45456063D02*
X-126766051Y-45690012D01*
X-119380000Y-45720000D02*
X-119684987Y-45415013D01*
X-126491052Y-45415013D02*
X-126766051Y-45690012D01*
X-119684987Y-45415013D02*
X-126491052Y-45415013D01*
%TO.N,/ADC_S*%
X-129540000Y-43815000D02*
X-128315013Y-45039987D01*
X-128315013Y-45039987D02*
X-128315013Y-46355000D01*
%TO.N,Net-(U1-Pad15)*%
X-129540000Y-51435000D02*
X-129540000Y-46990000D01*
%TO.N,Net-(U2-Pad15)*%
X-121920000Y-51435000D02*
X-121920000Y-47170008D01*
%TO.N,/COMP*%
X-120650000Y-43754998D02*
X-116265002Y-43754998D01*
X-116265002Y-43754998D02*
X-109280002Y-43754998D01*
X-109280002Y-43754998D02*
X-107950000Y-45085000D01*
X-107950000Y-45085000D02*
X-107950000Y-55149998D01*
X-107950000Y-55149998D02*
X-109315002Y-56515000D01*
%TO.N,/COMP_L*%
X-107315000Y-43815000D02*
X-107950000Y-43180000D01*
X-131490013Y-42791092D02*
X-131490013Y-43180000D01*
X-120015000Y-43180000D02*
X-122555000Y-40640000D01*
X-109315002Y-57785000D02*
X-107315000Y-55784998D01*
X-107950000Y-43180000D02*
X-120015000Y-43180000D01*
X-107315000Y-55784998D02*
X-107315000Y-43815000D01*
X-131490013Y-41955013D02*
X-131490013Y-42791092D01*
X-122555000Y-40640000D02*
X-130175000Y-40640000D01*
X-130175000Y-40640000D02*
X-131490013Y-41955013D01*
%TD*%
D21*
%TO.N,GNDA*%
G36*
X-131940509Y-43316656D02*
G01*
X-131905192Y-43401918D01*
X-131853921Y-43478651D01*
X-131788664Y-43543908D01*
X-131711931Y-43595179D01*
X-131626669Y-43630496D01*
X-131536156Y-43648500D01*
X-131443870Y-43648500D01*
X-131353357Y-43630496D01*
X-131268095Y-43595179D01*
X-131191362Y-43543908D01*
X-131150007Y-43502553D01*
X-131108651Y-43543908D01*
X-131031918Y-43595179D01*
X-130946656Y-43630496D01*
X-130856143Y-43648500D01*
X-130763857Y-43648500D01*
X-130673344Y-43630496D01*
X-130588082Y-43595179D01*
X-130511349Y-43543908D01*
X-130446092Y-43478651D01*
X-130394821Y-43401918D01*
X-130359504Y-43316656D01*
X-130344952Y-43243500D01*
X-127465048Y-43243500D01*
X-127450496Y-43316656D01*
X-127416662Y-43398338D01*
X-127498344Y-43364504D01*
X-127588857Y-43346500D01*
X-127681143Y-43346500D01*
X-127771656Y-43364504D01*
X-127856918Y-43399821D01*
X-127933651Y-43451092D01*
X-127998908Y-43516349D01*
X-128050179Y-43593082D01*
X-128085496Y-43678344D01*
X-128103500Y-43768857D01*
X-128103500Y-43861143D01*
X-128085496Y-43951656D01*
X-128050179Y-44036918D01*
X-127998908Y-44113651D01*
X-127953500Y-44159059D01*
X-127953499Y-45554951D01*
X-127955040Y-45570598D01*
X-127953499Y-45586245D01*
X-127948891Y-45633035D01*
X-127941450Y-45657563D01*
X-127930678Y-45693072D01*
X-127901104Y-45748403D01*
X-127871277Y-45784747D01*
X-127871274Y-45784750D01*
X-127861302Y-45796901D01*
X-127849151Y-45806873D01*
X-127754861Y-45901163D01*
X-127771656Y-45904504D01*
X-127856918Y-45939821D01*
X-127933651Y-45991092D01*
X-127975007Y-46032448D01*
X-127996513Y-46010941D01*
X-127996513Y-45055621D01*
X-127994973Y-45039986D01*
X-127996513Y-45024352D01*
X-127996513Y-45024340D01*
X-128001121Y-44977550D01*
X-128019334Y-44917513D01*
X-128033101Y-44891756D01*
X-128048909Y-44862181D01*
X-128078736Y-44825837D01*
X-128078738Y-44825835D01*
X-128088710Y-44813684D01*
X-128100860Y-44803713D01*
X-129071500Y-43833074D01*
X-129071500Y-43768857D01*
X-129089504Y-43678344D01*
X-129124821Y-43593082D01*
X-129176092Y-43516349D01*
X-129241349Y-43451092D01*
X-129318082Y-43399821D01*
X-129403344Y-43364504D01*
X-129493857Y-43346500D01*
X-129586143Y-43346500D01*
X-129676656Y-43364504D01*
X-129761918Y-43399821D01*
X-129838651Y-43451092D01*
X-129903908Y-43516349D01*
X-129955179Y-43593082D01*
X-129990496Y-43678344D01*
X-130008500Y-43768857D01*
X-130008500Y-43861143D01*
X-129990496Y-43951656D01*
X-129955179Y-44036918D01*
X-129903908Y-44113651D01*
X-129838651Y-44178908D01*
X-129761918Y-44230179D01*
X-129676656Y-44265496D01*
X-129586143Y-44283500D01*
X-129521926Y-44283500D01*
X-128633513Y-45171914D01*
X-128633512Y-46010940D01*
X-128678921Y-46056349D01*
X-128730192Y-46133082D01*
X-128765509Y-46218344D01*
X-128783513Y-46308857D01*
X-128783513Y-46401143D01*
X-128765509Y-46491656D01*
X-128730192Y-46576918D01*
X-128678921Y-46653651D01*
X-128613664Y-46718908D01*
X-128536931Y-46770179D01*
X-128451669Y-46805496D01*
X-128361156Y-46823500D01*
X-128268870Y-46823500D01*
X-128178357Y-46805496D01*
X-128093095Y-46770179D01*
X-128016362Y-46718908D01*
X-127975007Y-46677553D01*
X-127933651Y-46718908D01*
X-127856918Y-46770179D01*
X-127771656Y-46805496D01*
X-127681143Y-46823500D01*
X-127588857Y-46823500D01*
X-127498344Y-46805496D01*
X-127413082Y-46770179D01*
X-127336349Y-46718908D01*
X-127271092Y-46653651D01*
X-127219821Y-46576918D01*
X-127184504Y-46491656D01*
X-127181163Y-46474861D01*
X-127086873Y-46569152D01*
X-127076901Y-46581303D01*
X-127064750Y-46591275D01*
X-127064748Y-46591277D01*
X-127028404Y-46621104D01*
X-127000295Y-46636128D01*
X-126973072Y-46650679D01*
X-126913035Y-46668892D01*
X-126866245Y-46673500D01*
X-126866235Y-46673500D01*
X-126850598Y-46675040D01*
X-126834961Y-46673500D01*
X-126754072Y-46673500D01*
X-126708664Y-46718908D01*
X-126631931Y-46770179D01*
X-126546669Y-46805496D01*
X-126456156Y-46823500D01*
X-126363870Y-46823500D01*
X-126273357Y-46805496D01*
X-126188095Y-46770179D01*
X-126111362Y-46718908D01*
X-126070007Y-46677553D01*
X-126028651Y-46718908D01*
X-125951918Y-46770179D01*
X-125866656Y-46805496D01*
X-125776143Y-46823500D01*
X-125683857Y-46823500D01*
X-125593344Y-46805496D01*
X-125511662Y-46771662D01*
X-125545496Y-46853344D01*
X-125563500Y-46943857D01*
X-125563500Y-47036143D01*
X-125545496Y-47126656D01*
X-125510179Y-47211918D01*
X-125458908Y-47288651D01*
X-125393651Y-47353908D01*
X-125316918Y-47405179D01*
X-125231656Y-47440496D01*
X-125141143Y-47458500D01*
X-125048857Y-47458500D01*
X-125031314Y-47455011D01*
X-125053500Y-47566545D01*
X-125053500Y-47683455D01*
X-125030692Y-47798118D01*
X-124985953Y-47906128D01*
X-124921002Y-48003334D01*
X-124838334Y-48086002D01*
X-124741128Y-48150953D01*
X-124633118Y-48195692D01*
X-124518455Y-48218500D01*
X-124401545Y-48218500D01*
X-124286882Y-48195692D01*
X-124178872Y-48150953D01*
X-124081666Y-48086002D01*
X-123998998Y-48003334D01*
X-123934047Y-47906128D01*
X-123889308Y-47798118D01*
X-123866500Y-47683455D01*
X-123866500Y-47566545D01*
X-123889308Y-47451882D01*
X-123934047Y-47343872D01*
X-123998998Y-47246666D01*
X-124081666Y-47163998D01*
X-124178872Y-47099047D01*
X-124286882Y-47054308D01*
X-124401545Y-47031500D01*
X-124518455Y-47031500D01*
X-124629989Y-47053686D01*
X-124626500Y-47036143D01*
X-124626500Y-46971927D01*
X-124613071Y-46958498D01*
X-122339490Y-46958498D01*
X-122370496Y-47033352D01*
X-122388500Y-47123865D01*
X-122388500Y-47216151D01*
X-122370496Y-47306664D01*
X-122335179Y-47391926D01*
X-122283908Y-47468659D01*
X-122238499Y-47514068D01*
X-122238500Y-51090941D01*
X-122283908Y-51136349D01*
X-122335179Y-51213082D01*
X-122370496Y-51298344D01*
X-122388500Y-51388857D01*
X-122388500Y-51481143D01*
X-122370496Y-51571656D01*
X-122335179Y-51656918D01*
X-122283908Y-51733651D01*
X-122218651Y-51798908D01*
X-122141918Y-51850179D01*
X-122056656Y-51885496D01*
X-121966143Y-51903500D01*
X-121873857Y-51903500D01*
X-121783344Y-51885496D01*
X-121698082Y-51850179D01*
X-121621349Y-51798908D01*
X-121556092Y-51733651D01*
X-121504821Y-51656918D01*
X-121469504Y-51571656D01*
X-121451500Y-51481143D01*
X-121451500Y-51388857D01*
X-121469504Y-51298344D01*
X-121504821Y-51213082D01*
X-121556092Y-51136349D01*
X-121601500Y-51090941D01*
X-121601500Y-48836545D01*
X-115528500Y-48836545D01*
X-115528500Y-48953455D01*
X-115505692Y-49068118D01*
X-115460953Y-49176128D01*
X-115396002Y-49273334D01*
X-115313334Y-49356002D01*
X-115216128Y-49420953D01*
X-115108118Y-49465692D01*
X-114993455Y-49488500D01*
X-114876545Y-49488500D01*
X-114761882Y-49465692D01*
X-114653872Y-49420953D01*
X-114556666Y-49356002D01*
X-114473998Y-49273334D01*
X-114409047Y-49176128D01*
X-114364308Y-49068118D01*
X-114341500Y-48953455D01*
X-114341500Y-48836545D01*
X-114364308Y-48721882D01*
X-114409047Y-48613872D01*
X-114473998Y-48516666D01*
X-114556666Y-48433998D01*
X-114653872Y-48369047D01*
X-114761882Y-48324308D01*
X-114876545Y-48301500D01*
X-114993455Y-48301500D01*
X-115108118Y-48324308D01*
X-115216128Y-48369047D01*
X-115313334Y-48433998D01*
X-115396002Y-48516666D01*
X-115460953Y-48613872D01*
X-115505692Y-48721882D01*
X-115528500Y-48836545D01*
X-121601500Y-48836545D01*
X-121601500Y-47514067D01*
X-121556092Y-47468659D01*
X-121504821Y-47391926D01*
X-121469504Y-47306664D01*
X-121451500Y-47216151D01*
X-121451500Y-47123865D01*
X-121469504Y-47033352D01*
X-121500510Y-46958498D01*
X-120994059Y-46958498D01*
X-120948651Y-47003906D01*
X-120871918Y-47055177D01*
X-120786656Y-47090494D01*
X-120696143Y-47108498D01*
X-120603857Y-47108498D01*
X-120513344Y-47090494D01*
X-120428082Y-47055177D01*
X-120351349Y-47003906D01*
X-120286092Y-46938649D01*
X-120234821Y-46861916D01*
X-120199504Y-46776654D01*
X-120181500Y-46686141D01*
X-120181500Y-46671997D01*
X-120166243Y-46673500D01*
X-120166241Y-46673500D01*
X-120150596Y-46675041D01*
X-120134951Y-46673500D01*
X-119139069Y-46673500D01*
X-119093661Y-46718908D01*
X-119016928Y-46770179D01*
X-118931666Y-46805496D01*
X-118841153Y-46823500D01*
X-118748867Y-46823500D01*
X-118658354Y-46805496D01*
X-118573092Y-46770179D01*
X-118496359Y-46718908D01*
X-118431102Y-46653651D01*
X-118379831Y-46576918D01*
X-118344514Y-46491656D01*
X-118326510Y-46401143D01*
X-118326510Y-46308857D01*
X-118344514Y-46218344D01*
X-118379831Y-46133082D01*
X-118420816Y-46071743D01*
X-118408651Y-46083908D01*
X-118331918Y-46135179D01*
X-118246656Y-46170496D01*
X-118156143Y-46188500D01*
X-118063857Y-46188500D01*
X-118025242Y-46180819D01*
X-118025682Y-46181882D01*
X-118048490Y-46296545D01*
X-118048490Y-46413455D01*
X-118025682Y-46528118D01*
X-117980943Y-46636128D01*
X-117915992Y-46733334D01*
X-117833324Y-46816002D01*
X-117736118Y-46880953D01*
X-117628108Y-46925692D01*
X-117513445Y-46948500D01*
X-117396535Y-46948500D01*
X-117281872Y-46925692D01*
X-117173862Y-46880953D01*
X-117076656Y-46816002D01*
X-116993988Y-46733334D01*
X-116929037Y-46636128D01*
X-116884298Y-46528118D01*
X-116861490Y-46413455D01*
X-116861490Y-46296545D01*
X-116884298Y-46181882D01*
X-116929037Y-46073872D01*
X-116993988Y-45976666D01*
X-117076656Y-45893998D01*
X-117173862Y-45829047D01*
X-117281872Y-45784308D01*
X-117396535Y-45761500D01*
X-117513445Y-45761500D01*
X-117628108Y-45784308D01*
X-117646640Y-45791984D01*
X-117641500Y-45766143D01*
X-117641500Y-45673857D01*
X-117659504Y-45583344D01*
X-117694821Y-45498082D01*
X-117746092Y-45421349D01*
X-117811349Y-45356092D01*
X-117888082Y-45304821D01*
X-117973344Y-45269504D01*
X-118063857Y-45251500D01*
X-118156143Y-45251500D01*
X-118246656Y-45269504D01*
X-118331918Y-45304821D01*
X-118408651Y-45356092D01*
X-118473908Y-45421349D01*
X-118525179Y-45498082D01*
X-118560496Y-45583344D01*
X-118578500Y-45673857D01*
X-118578500Y-45766143D01*
X-118560496Y-45856656D01*
X-118525179Y-45941918D01*
X-118484194Y-46003257D01*
X-118496359Y-45991092D01*
X-118573092Y-45939821D01*
X-118658354Y-45904504D01*
X-118748867Y-45886500D01*
X-118841153Y-45886500D01*
X-118931666Y-45904504D01*
X-118952981Y-45913333D01*
X-118929504Y-45856656D01*
X-118911500Y-45766143D01*
X-118911500Y-45673857D01*
X-118929504Y-45583344D01*
X-118964821Y-45498082D01*
X-119016092Y-45421349D01*
X-119081349Y-45356092D01*
X-119158082Y-45304821D01*
X-119243344Y-45269504D01*
X-119333857Y-45251500D01*
X-119398074Y-45251500D01*
X-119448708Y-45200866D01*
X-119458684Y-45188710D01*
X-119507182Y-45148909D01*
X-119562513Y-45119334D01*
X-119622550Y-45101121D01*
X-119669340Y-45096513D01*
X-119669350Y-45096513D01*
X-119684987Y-45094973D01*
X-119700624Y-45096513D01*
X-126475418Y-45096513D01*
X-126491053Y-45094973D01*
X-126506688Y-45096513D01*
X-126506699Y-45096513D01*
X-126553489Y-45101121D01*
X-126613526Y-45119334D01*
X-126639283Y-45133101D01*
X-126668858Y-45148909D01*
X-126681500Y-45159284D01*
X-126681500Y-43524059D01*
X-126636092Y-43478651D01*
X-126584821Y-43401918D01*
X-126549504Y-43316656D01*
X-126534952Y-43243500D01*
X-126043568Y-43243500D01*
X-126025678Y-43302474D01*
X-125996104Y-43357805D01*
X-125966277Y-43394149D01*
X-125966274Y-43394152D01*
X-125956302Y-43406303D01*
X-125944151Y-43416275D01*
X-124696275Y-44664152D01*
X-124686303Y-44676303D01*
X-124674152Y-44686275D01*
X-124674150Y-44686277D01*
X-124637806Y-44716104D01*
X-124619113Y-44726095D01*
X-124582474Y-44745679D01*
X-124522437Y-44763892D01*
X-124475647Y-44768500D01*
X-124475635Y-44768500D01*
X-124460001Y-44770040D01*
X-124444366Y-44768500D01*
X-114431926Y-44768500D01*
X-113266275Y-45934152D01*
X-113256303Y-45946303D01*
X-113244152Y-45956275D01*
X-113244150Y-45956277D01*
X-113207806Y-45986104D01*
X-113178231Y-46001912D01*
X-113152474Y-46015679D01*
X-113092437Y-46033892D01*
X-113045647Y-46038500D01*
X-113045635Y-46038500D01*
X-113030001Y-46040040D01*
X-113014366Y-46038500D01*
X-109351926Y-46038500D01*
X-108903500Y-46486927D01*
X-108903499Y-54478072D01*
X-110069147Y-55643721D01*
X-110081303Y-55653697D01*
X-110091277Y-55665851D01*
X-110121104Y-55702195D01*
X-110122606Y-55705006D01*
X-110150679Y-55757527D01*
X-110168892Y-55817564D01*
X-110173500Y-55864354D01*
X-110173500Y-55864363D01*
X-110175040Y-55880000D01*
X-110173500Y-55895637D01*
X-110173499Y-59039353D01*
X-110175040Y-59055000D01*
X-110168891Y-59117436D01*
X-110150678Y-59177474D01*
X-110121104Y-59232805D01*
X-110091277Y-59269149D01*
X-110091274Y-59269152D01*
X-110081302Y-59281303D01*
X-110069151Y-59291275D01*
X-109538500Y-59821927D01*
X-109538499Y-65060940D01*
X-109583908Y-65106349D01*
X-109635179Y-65183082D01*
X-109670496Y-65268344D01*
X-109688500Y-65358857D01*
X-109688500Y-65423073D01*
X-113796926Y-69531500D01*
X-114590941Y-69531500D01*
X-114636349Y-69486092D01*
X-114713082Y-69434821D01*
X-114798344Y-69399504D01*
X-114888857Y-69381500D01*
X-114981143Y-69381500D01*
X-115071656Y-69399504D01*
X-115156918Y-69434821D01*
X-115233651Y-69486092D01*
X-115298908Y-69551349D01*
X-115350179Y-69628082D01*
X-115385496Y-69713344D01*
X-115403500Y-69803857D01*
X-115403500Y-69896143D01*
X-115385496Y-69986656D01*
X-115350179Y-70071918D01*
X-115298908Y-70148651D01*
X-115233651Y-70213908D01*
X-115156918Y-70265179D01*
X-115071656Y-70300496D01*
X-114981143Y-70318500D01*
X-114888857Y-70318500D01*
X-114798344Y-70300496D01*
X-114713082Y-70265179D01*
X-114636349Y-70213908D01*
X-114590941Y-70168500D01*
X-113680637Y-70168500D01*
X-113665000Y-70170040D01*
X-113649363Y-70168500D01*
X-113649353Y-70168500D01*
X-113602563Y-70163892D01*
X-113542526Y-70145679D01*
X-113487195Y-70116104D01*
X-113438697Y-70076303D01*
X-113428720Y-70064146D01*
X-109238073Y-65873500D01*
X-109173857Y-65873500D01*
X-109083344Y-65855496D01*
X-108998082Y-65820179D01*
X-108921349Y-65768908D01*
X-108856092Y-65703651D01*
X-108804821Y-65626918D01*
X-108769504Y-65541656D01*
X-108751500Y-65451143D01*
X-108751500Y-65358857D01*
X-108769504Y-65268344D01*
X-108804821Y-65183082D01*
X-108856092Y-65106349D01*
X-108901500Y-65060941D01*
X-108901500Y-59705645D01*
X-108899959Y-59690000D01*
X-108901500Y-59674353D01*
X-108906108Y-59627563D01*
X-108920082Y-59581499D01*
X-108924321Y-59567525D01*
X-108953895Y-59512194D01*
X-108983723Y-59475850D01*
X-108983725Y-59475848D01*
X-108993697Y-59463697D01*
X-109005847Y-59453726D01*
X-109536500Y-58923074D01*
X-109536500Y-58200353D01*
X-109451658Y-58235496D01*
X-109361145Y-58253500D01*
X-109268859Y-58253500D01*
X-109178346Y-58235496D01*
X-109093084Y-58200179D01*
X-109016351Y-58148908D01*
X-108951094Y-58083651D01*
X-108899823Y-58006918D01*
X-108864506Y-57921656D01*
X-108846502Y-57831143D01*
X-108846502Y-57766926D01*
X-107100847Y-56021272D01*
X-107088697Y-56011301D01*
X-107078723Y-55999148D01*
X-107048896Y-55962804D01*
X-107019322Y-55907473D01*
X-107019321Y-55907472D01*
X-107001108Y-55847435D01*
X-106996500Y-55800645D01*
X-106996500Y-55800635D01*
X-106994960Y-55784998D01*
X-106996500Y-55769361D01*
X-106996500Y-43830645D01*
X-106994959Y-43815000D01*
X-106996500Y-43799353D01*
X-107001108Y-43752563D01*
X-107019310Y-43692561D01*
X-107019321Y-43692525D01*
X-107048895Y-43637194D01*
X-107078723Y-43600850D01*
X-107078725Y-43600848D01*
X-107088697Y-43588697D01*
X-107100850Y-43578723D01*
X-107436074Y-43243500D01*
X-106868499Y-43243500D01*
X-106868500Y-59699260D01*
X-106868499Y-59699270D01*
X-106868500Y-81289260D01*
X-106868499Y-81289270D01*
X-106868500Y-99506500D01*
X-135066500Y-99506500D01*
X-135066500Y-96648959D01*
X-128043500Y-96648959D01*
X-128043500Y-97081041D01*
X-127959205Y-97504820D01*
X-127793854Y-97904012D01*
X-127553802Y-98263274D01*
X-127248274Y-98568802D01*
X-126889012Y-98808854D01*
X-126489820Y-98974205D01*
X-126066041Y-99058500D01*
X-125633959Y-99058500D01*
X-125210180Y-98974205D01*
X-124810988Y-98808854D01*
X-124451726Y-98568802D01*
X-124146198Y-98263274D01*
X-123973625Y-98005000D01*
X-110644265Y-98005000D01*
X-110633231Y-98117034D01*
X-110600552Y-98224762D01*
X-110547484Y-98324045D01*
X-110476067Y-98411067D01*
X-110389045Y-98482484D01*
X-110289762Y-98535552D01*
X-110182034Y-98568231D01*
X-110070000Y-98579265D01*
X-109553375Y-98576500D01*
X-109410500Y-98433625D01*
X-109410500Y-97345500D01*
X-109029500Y-97345500D01*
X-109029500Y-98433625D01*
X-108886625Y-98576500D01*
X-108370000Y-98579265D01*
X-108257966Y-98568231D01*
X-108150238Y-98535552D01*
X-108050955Y-98482484D01*
X-107963933Y-98411067D01*
X-107892516Y-98324045D01*
X-107839448Y-98224762D01*
X-107806769Y-98117034D01*
X-107795735Y-98005000D01*
X-107798500Y-97488375D01*
X-107941375Y-97345500D01*
X-109029500Y-97345500D01*
X-109410500Y-97345500D01*
X-110498625Y-97345500D01*
X-110641500Y-97488375D01*
X-110644265Y-98005000D01*
X-123973625Y-98005000D01*
X-123906146Y-97904012D01*
X-123740795Y-97504820D01*
X-123656500Y-97081041D01*
X-123656500Y-96648959D01*
X-123700635Y-96427073D01*
X-116513500Y-96427073D01*
X-116513500Y-96612927D01*
X-116477242Y-96795209D01*
X-116406119Y-96966915D01*
X-116302864Y-97121446D01*
X-116171446Y-97252864D01*
X-116016915Y-97356119D01*
X-115845209Y-97427242D01*
X-115662927Y-97463500D01*
X-115477073Y-97463500D01*
X-115294791Y-97427242D01*
X-115123085Y-97356119D01*
X-114968554Y-97252864D01*
X-114837136Y-97121446D01*
X-114733881Y-96966915D01*
X-114662758Y-96795209D01*
X-114626500Y-96612927D01*
X-114626500Y-96427073D01*
X-114650781Y-96305000D01*
X-110644265Y-96305000D01*
X-110641500Y-96821625D01*
X-110498625Y-96964500D01*
X-109410500Y-96964500D01*
X-109410500Y-95876375D01*
X-109029500Y-95876375D01*
X-109029500Y-96964500D01*
X-107941375Y-96964500D01*
X-107798500Y-96821625D01*
X-107795735Y-96305000D01*
X-107806769Y-96192966D01*
X-107839448Y-96085238D01*
X-107892516Y-95985955D01*
X-107963933Y-95898933D01*
X-108050955Y-95827516D01*
X-108150238Y-95774448D01*
X-108257966Y-95741769D01*
X-108370000Y-95730735D01*
X-108886625Y-95733500D01*
X-109029500Y-95876375D01*
X-109410500Y-95876375D01*
X-109553375Y-95733500D01*
X-110070000Y-95730735D01*
X-110182034Y-95741769D01*
X-110289762Y-95774448D01*
X-110389045Y-95827516D01*
X-110476067Y-95898933D01*
X-110547484Y-95985955D01*
X-110600552Y-96085238D01*
X-110633231Y-96192966D01*
X-110644265Y-96305000D01*
X-114650781Y-96305000D01*
X-114662758Y-96244791D01*
X-114733881Y-96073085D01*
X-114837136Y-95918554D01*
X-114968554Y-95787136D01*
X-115123085Y-95683881D01*
X-115294791Y-95612758D01*
X-115477073Y-95576500D01*
X-115662927Y-95576500D01*
X-115845209Y-95612758D01*
X-116016915Y-95683881D01*
X-116171446Y-95787136D01*
X-116302864Y-95918554D01*
X-116406119Y-96073085D01*
X-116477242Y-96244791D01*
X-116513500Y-96427073D01*
X-123700635Y-96427073D01*
X-123740795Y-96225180D01*
X-123906146Y-95825988D01*
X-124146198Y-95466726D01*
X-124451726Y-95161198D01*
X-124810988Y-94921146D01*
X-125210180Y-94755795D01*
X-125633959Y-94671500D01*
X-126066041Y-94671500D01*
X-126489820Y-94755795D01*
X-126889012Y-94921146D01*
X-127248274Y-95161198D01*
X-127553802Y-95466726D01*
X-127793854Y-95825988D01*
X-127959205Y-96225180D01*
X-128043500Y-96648959D01*
X-135066500Y-96648959D01*
X-135066500Y-94507300D01*
X-134443500Y-94507300D01*
X-134443500Y-94722700D01*
X-134401477Y-94933962D01*
X-134319047Y-95132966D01*
X-134199377Y-95312066D01*
X-134047066Y-95464377D01*
X-133867966Y-95584047D01*
X-133668962Y-95666477D01*
X-133457700Y-95708500D01*
X-133242300Y-95708500D01*
X-133031038Y-95666477D01*
X-132832034Y-95584047D01*
X-132652934Y-95464377D01*
X-132500623Y-95312066D01*
X-132380953Y-95132966D01*
X-132298523Y-94933962D01*
X-132256500Y-94722700D01*
X-132256500Y-94512224D01*
X-110263500Y-94512224D01*
X-110263500Y-94717776D01*
X-110223399Y-94919378D01*
X-110144738Y-95109283D01*
X-110030539Y-95280192D01*
X-109885192Y-95425539D01*
X-109714283Y-95539738D01*
X-109524378Y-95618399D01*
X-109322776Y-95658500D01*
X-109117224Y-95658500D01*
X-108915622Y-95618399D01*
X-108725717Y-95539738D01*
X-108554808Y-95425539D01*
X-108409461Y-95280192D01*
X-108295262Y-95109283D01*
X-108216601Y-94919378D01*
X-108176500Y-94717776D01*
X-108176500Y-94512224D01*
X-108216601Y-94310622D01*
X-108295262Y-94120717D01*
X-108409461Y-93949808D01*
X-108554808Y-93804461D01*
X-108725717Y-93690262D01*
X-108915622Y-93611601D01*
X-109117224Y-93571500D01*
X-109322776Y-93571500D01*
X-109524378Y-93611601D01*
X-109714283Y-93690262D01*
X-109885192Y-93804461D01*
X-110030539Y-93949808D01*
X-110144738Y-94120717D01*
X-110223399Y-94310622D01*
X-110263500Y-94512224D01*
X-132256500Y-94512224D01*
X-132256500Y-94507300D01*
X-132298523Y-94296038D01*
X-132380953Y-94097034D01*
X-132381215Y-94096642D01*
X-130215837Y-91931264D01*
X-130203687Y-91921293D01*
X-130193713Y-91909140D01*
X-130163886Y-91872796D01*
X-130134311Y-91817465D01*
X-130127811Y-91796038D01*
X-130116098Y-91757427D01*
X-130111490Y-91710637D01*
X-130111490Y-91710627D01*
X-130109950Y-91694990D01*
X-130111490Y-91679353D01*
X-130111490Y-90427073D01*
X-116513500Y-90427073D01*
X-116513500Y-90612927D01*
X-116477242Y-90795209D01*
X-116406119Y-90966915D01*
X-116302864Y-91121446D01*
X-116171446Y-91252864D01*
X-116016915Y-91356119D01*
X-115845209Y-91427242D01*
X-115662927Y-91463500D01*
X-115477073Y-91463500D01*
X-115294791Y-91427242D01*
X-115123085Y-91356119D01*
X-114968554Y-91252864D01*
X-114837136Y-91121446D01*
X-114733881Y-90966915D01*
X-114662758Y-90795209D01*
X-114626500Y-90612927D01*
X-114626500Y-90427073D01*
X-114662758Y-90244791D01*
X-114733881Y-90073085D01*
X-114837136Y-89918554D01*
X-114968554Y-89787136D01*
X-115123085Y-89683881D01*
X-115294791Y-89612758D01*
X-115477073Y-89576500D01*
X-115662927Y-89576500D01*
X-115845209Y-89612758D01*
X-116016915Y-89683881D01*
X-116171446Y-89787136D01*
X-116302864Y-89918554D01*
X-116406119Y-90073085D01*
X-116477242Y-90244791D01*
X-116513500Y-90427073D01*
X-130111490Y-90427073D01*
X-130111490Y-87148959D01*
X-128043500Y-87148959D01*
X-128043500Y-87581041D01*
X-127959205Y-88004820D01*
X-127793854Y-88404012D01*
X-127553802Y-88763274D01*
X-127248274Y-89068802D01*
X-126889012Y-89308854D01*
X-126489820Y-89474205D01*
X-126066041Y-89558500D01*
X-125633959Y-89558500D01*
X-125210180Y-89474205D01*
X-124810988Y-89308854D01*
X-124451726Y-89068802D01*
X-124146198Y-88763274D01*
X-123906146Y-88404012D01*
X-123740795Y-88004820D01*
X-123656500Y-87581041D01*
X-123656500Y-87148959D01*
X-123740795Y-86725180D01*
X-123906146Y-86325988D01*
X-124146198Y-85966726D01*
X-124451726Y-85661198D01*
X-124810988Y-85421146D01*
X-125210180Y-85255795D01*
X-125633959Y-85171500D01*
X-126066041Y-85171500D01*
X-126489820Y-85255795D01*
X-126889012Y-85421146D01*
X-127248274Y-85661198D01*
X-127553802Y-85966726D01*
X-127793854Y-86325988D01*
X-127959205Y-86725180D01*
X-128043500Y-87148959D01*
X-130111490Y-87148959D01*
X-130111490Y-86120647D01*
X-130109950Y-86105010D01*
X-130111490Y-86089373D01*
X-130111490Y-86089363D01*
X-130116098Y-86042573D01*
X-130134311Y-85982536D01*
X-130148078Y-85956779D01*
X-130163886Y-85927204D01*
X-130193713Y-85890860D01*
X-130193715Y-85890858D01*
X-130203687Y-85878707D01*
X-130215838Y-85868735D01*
X-132141510Y-83943064D01*
X-132141510Y-79410000D01*
X-130969436Y-79410000D01*
X-130969436Y-80610000D01*
X-130965700Y-80647933D01*
X-130954635Y-80684407D01*
X-130936668Y-80718023D01*
X-130912487Y-80747487D01*
X-130883023Y-80771668D01*
X-130849407Y-80789635D01*
X-130812933Y-80800700D01*
X-130775000Y-80804436D01*
X-129575000Y-80804436D01*
X-129537067Y-80800700D01*
X-129500593Y-80789635D01*
X-129466977Y-80771668D01*
X-129437513Y-80747487D01*
X-129413332Y-80718023D01*
X-129395365Y-80684407D01*
X-129384300Y-80647933D01*
X-129380564Y-80610000D01*
X-129380564Y-80598857D01*
X-126833500Y-80598857D01*
X-126833500Y-80691143D01*
X-126815496Y-80781656D01*
X-126780179Y-80866918D01*
X-126728908Y-80943651D01*
X-126683499Y-80989060D01*
X-126683500Y-83475941D01*
X-126728908Y-83521349D01*
X-126780179Y-83598082D01*
X-126815496Y-83683344D01*
X-126833500Y-83773857D01*
X-126833500Y-83866143D01*
X-126815496Y-83956656D01*
X-126780179Y-84041918D01*
X-126728908Y-84118651D01*
X-126663651Y-84183908D01*
X-126586918Y-84235179D01*
X-126501656Y-84270496D01*
X-126411143Y-84288500D01*
X-126318857Y-84288500D01*
X-126228344Y-84270496D01*
X-126143082Y-84235179D01*
X-126066349Y-84183908D01*
X-126001092Y-84118651D01*
X-125949821Y-84041918D01*
X-125914504Y-83956656D01*
X-125896500Y-83866143D01*
X-125896500Y-83773857D01*
X-125914504Y-83683344D01*
X-125949821Y-83598082D01*
X-126001092Y-83521349D01*
X-126046500Y-83475941D01*
X-126046500Y-80989059D01*
X-126001092Y-80943651D01*
X-125949821Y-80866918D01*
X-125914504Y-80781656D01*
X-125896500Y-80691143D01*
X-125896500Y-80598857D01*
X-125914504Y-80508344D01*
X-125949821Y-80423082D01*
X-126001092Y-80346349D01*
X-126066349Y-80281092D01*
X-126143082Y-80229821D01*
X-126228344Y-80194504D01*
X-126318857Y-80176500D01*
X-126411143Y-80176500D01*
X-126501656Y-80194504D01*
X-126586918Y-80229821D01*
X-126663651Y-80281092D01*
X-126728908Y-80346349D01*
X-126780179Y-80423082D01*
X-126815496Y-80508344D01*
X-126833500Y-80598857D01*
X-129380564Y-80598857D01*
X-129380564Y-79410000D01*
X-129384300Y-79372067D01*
X-129395365Y-79335593D01*
X-129413332Y-79301977D01*
X-129437513Y-79272513D01*
X-129466977Y-79248332D01*
X-129500593Y-79230365D01*
X-129537067Y-79219300D01*
X-129575000Y-79215564D01*
X-129804868Y-79215564D01*
X-129799137Y-79213190D01*
X-129669173Y-79126351D01*
X-129558649Y-79015827D01*
X-129471810Y-78885863D01*
X-129411994Y-78741455D01*
X-129381500Y-78588153D01*
X-129381500Y-78431847D01*
X-129411994Y-78278545D01*
X-129471810Y-78134137D01*
X-129522110Y-78058857D01*
X-110323500Y-78058857D01*
X-110323500Y-78151143D01*
X-110305496Y-78241656D01*
X-110270179Y-78326918D01*
X-110218908Y-78403651D01*
X-110153651Y-78468908D01*
X-110076918Y-78520179D01*
X-109991656Y-78555496D01*
X-109901143Y-78573500D01*
X-109808857Y-78573500D01*
X-109718344Y-78555496D01*
X-109633082Y-78520179D01*
X-109556349Y-78468908D01*
X-109491092Y-78403651D01*
X-109439821Y-78326918D01*
X-109404504Y-78241656D01*
X-109386500Y-78151143D01*
X-109386500Y-78058857D01*
X-109404504Y-77968344D01*
X-109439821Y-77883082D01*
X-109491092Y-77806349D01*
X-109556349Y-77741092D01*
X-109633082Y-77689821D01*
X-109718344Y-77654504D01*
X-109808857Y-77636500D01*
X-109901143Y-77636500D01*
X-109991656Y-77654504D01*
X-110076918Y-77689821D01*
X-110153651Y-77741092D01*
X-110218908Y-77806349D01*
X-110270179Y-77883082D01*
X-110305496Y-77968344D01*
X-110323500Y-78058857D01*
X-129522110Y-78058857D01*
X-129558649Y-78004173D01*
X-129669173Y-77893649D01*
X-129799137Y-77806810D01*
X-129943545Y-77746994D01*
X-130096847Y-77716500D01*
X-130253153Y-77716500D01*
X-130406455Y-77746994D01*
X-130550863Y-77806810D01*
X-130680827Y-77893649D01*
X-130791351Y-78004173D01*
X-130878190Y-78134137D01*
X-130938006Y-78278545D01*
X-130968500Y-78431847D01*
X-130968500Y-78588153D01*
X-130938006Y-78741455D01*
X-130878190Y-78885863D01*
X-130791351Y-79015827D01*
X-130680827Y-79126351D01*
X-130550863Y-79213190D01*
X-130545132Y-79215564D01*
X-130775000Y-79215564D01*
X-130812933Y-79219300D01*
X-130849407Y-79230365D01*
X-130883023Y-79248332D01*
X-130912487Y-79272513D01*
X-130936668Y-79301977D01*
X-130954635Y-79335593D01*
X-130965700Y-79372067D01*
X-130969436Y-79410000D01*
X-132141510Y-79410000D01*
X-132141510Y-75441936D01*
X-132098074Y-75398500D01*
X-132033857Y-75398500D01*
X-131943344Y-75380496D01*
X-131858082Y-75345179D01*
X-131781349Y-75293908D01*
X-131716092Y-75228651D01*
X-131664821Y-75151918D01*
X-131629504Y-75066656D01*
X-131611500Y-74976143D01*
X-131611500Y-74883857D01*
X-131629504Y-74793344D01*
X-131664821Y-74708082D01*
X-131716092Y-74631349D01*
X-131781349Y-74566092D01*
X-131858082Y-74514821D01*
X-131943344Y-74479504D01*
X-132033857Y-74461500D01*
X-132126143Y-74461500D01*
X-132216656Y-74479504D01*
X-132301918Y-74514821D01*
X-132378651Y-74566092D01*
X-132443908Y-74631349D01*
X-132495179Y-74708082D01*
X-132530496Y-74793344D01*
X-132548500Y-74883857D01*
X-132548500Y-74948074D01*
X-132674161Y-75073735D01*
X-132686312Y-75083707D01*
X-132696284Y-75095858D01*
X-132696287Y-75095861D01*
X-132726114Y-75132205D01*
X-132736650Y-75151918D01*
X-132755688Y-75187536D01*
X-132772783Y-75243890D01*
X-132773901Y-75247574D01*
X-132780050Y-75310010D01*
X-132778509Y-75325657D01*
X-132778510Y-84059353D01*
X-132780050Y-84074990D01*
X-132778510Y-84090627D01*
X-132778510Y-84090636D01*
X-132773902Y-84137426D01*
X-132755689Y-84197463D01*
X-132755688Y-84197464D01*
X-132726114Y-84252795D01*
X-132711587Y-84270496D01*
X-132686313Y-84301293D01*
X-132674156Y-84311270D01*
X-130748489Y-86236938D01*
X-130748490Y-91563063D01*
X-132831642Y-93646215D01*
X-132832034Y-93645953D01*
X-133031038Y-93563523D01*
X-133242300Y-93521500D01*
X-133457700Y-93521500D01*
X-133668962Y-93563523D01*
X-133867966Y-93645953D01*
X-134047066Y-93765623D01*
X-134199377Y-93917934D01*
X-134319047Y-94097034D01*
X-134401477Y-94296038D01*
X-134443500Y-94507300D01*
X-135066500Y-94507300D01*
X-135066500Y-89507300D01*
X-134443500Y-89507300D01*
X-134443500Y-89722700D01*
X-134401477Y-89933962D01*
X-134319047Y-90132966D01*
X-134199377Y-90312066D01*
X-134047066Y-90464377D01*
X-133867966Y-90584047D01*
X-133668962Y-90666477D01*
X-133457700Y-90708500D01*
X-133242300Y-90708500D01*
X-133031038Y-90666477D01*
X-132832034Y-90584047D01*
X-132652934Y-90464377D01*
X-132500623Y-90312066D01*
X-132380953Y-90132966D01*
X-132298523Y-89933962D01*
X-132256500Y-89722700D01*
X-132256500Y-89507300D01*
X-132298523Y-89296038D01*
X-132380953Y-89097034D01*
X-132500623Y-88917934D01*
X-132652934Y-88765623D01*
X-132832034Y-88645953D01*
X-133031038Y-88563523D01*
X-133242300Y-88521500D01*
X-133457700Y-88521500D01*
X-133668962Y-88563523D01*
X-133867966Y-88645953D01*
X-134047066Y-88765623D01*
X-134199377Y-88917934D01*
X-134319047Y-89097034D01*
X-134401477Y-89296038D01*
X-134443500Y-89507300D01*
X-135066500Y-89507300D01*
X-135066500Y-78105000D01*
X-134940040Y-78105000D01*
X-134938499Y-78120647D01*
X-134938500Y-79994363D01*
X-134940040Y-80010000D01*
X-134938500Y-80025637D01*
X-134938500Y-80025646D01*
X-134933892Y-80072436D01*
X-134915679Y-80132473D01*
X-134915678Y-80132474D01*
X-134886104Y-80187805D01*
X-134880606Y-80194504D01*
X-134846303Y-80236303D01*
X-134834147Y-80246279D01*
X-133668499Y-81411928D01*
X-133668500Y-84439363D01*
X-133670040Y-84455000D01*
X-133668500Y-84470637D01*
X-133668500Y-84470646D01*
X-133663892Y-84517436D01*
X-133645679Y-84577473D01*
X-133645678Y-84577474D01*
X-133616104Y-84632805D01*
X-133593331Y-84660554D01*
X-133576303Y-84681303D01*
X-133564146Y-84691280D01*
X-131763499Y-86491928D01*
X-131763500Y-90038073D01*
X-132664152Y-90938726D01*
X-132676303Y-90948698D01*
X-132716105Y-90997196D01*
X-132745680Y-91052527D01*
X-132749044Y-91063618D01*
X-132831642Y-91146215D01*
X-132832034Y-91145953D01*
X-133031038Y-91063523D01*
X-133242300Y-91021500D01*
X-133457700Y-91021500D01*
X-133668962Y-91063523D01*
X-133867966Y-91145953D01*
X-134047066Y-91265623D01*
X-134199377Y-91417934D01*
X-134319047Y-91597034D01*
X-134401477Y-91796038D01*
X-134443500Y-92007300D01*
X-134443500Y-92222700D01*
X-134401477Y-92433962D01*
X-134319047Y-92632966D01*
X-134199377Y-92812066D01*
X-134047066Y-92964377D01*
X-133867966Y-93084047D01*
X-133668962Y-93166477D01*
X-133457700Y-93208500D01*
X-133242300Y-93208500D01*
X-133031038Y-93166477D01*
X-132832034Y-93084047D01*
X-132652934Y-92964377D01*
X-132500623Y-92812066D01*
X-132380953Y-92632966D01*
X-132298523Y-92433962D01*
X-132256500Y-92222700D01*
X-132256500Y-92007300D01*
X-132298523Y-91796038D01*
X-132380953Y-91597034D01*
X-132381215Y-91596642D01*
X-132235848Y-91451275D01*
X-132223698Y-91441304D01*
X-132213507Y-91428886D01*
X-132183897Y-91392807D01*
X-132168089Y-91363232D01*
X-132154322Y-91337475D01*
X-132150957Y-91326383D01*
X-131230847Y-90406274D01*
X-131218697Y-90396303D01*
X-131208723Y-90384150D01*
X-131178896Y-90347806D01*
X-131149322Y-90292475D01*
X-131149321Y-90292474D01*
X-131131108Y-90232437D01*
X-131126500Y-90185647D01*
X-131126500Y-90185638D01*
X-131124960Y-90170001D01*
X-131126500Y-90154364D01*
X-131126500Y-86375637D01*
X-131124960Y-86360000D01*
X-131126500Y-86344363D01*
X-131126500Y-86344353D01*
X-131131108Y-86297563D01*
X-131149321Y-86237526D01*
X-131163088Y-86211769D01*
X-131178896Y-86182194D01*
X-131208723Y-86145850D01*
X-131208725Y-86145848D01*
X-131218697Y-86133697D01*
X-131230848Y-86123725D01*
X-133031500Y-84323074D01*
X-133031500Y-81295634D01*
X-133029960Y-81279999D01*
X-133031500Y-81264365D01*
X-133031500Y-81264353D01*
X-133036108Y-81217563D01*
X-133054321Y-81157526D01*
X-133082393Y-81105006D01*
X-133083896Y-81102194D01*
X-133113723Y-81065850D01*
X-133113725Y-81065848D01*
X-133123697Y-81053697D01*
X-133135848Y-81043725D01*
X-134301500Y-79878074D01*
X-134301500Y-78236926D01*
X-133135847Y-77071274D01*
X-133123697Y-77061303D01*
X-133113723Y-77049150D01*
X-133083896Y-77012806D01*
X-133068088Y-76983231D01*
X-133054321Y-76957474D01*
X-133036108Y-76897437D01*
X-133031500Y-76850647D01*
X-133031500Y-76850635D01*
X-133029960Y-76835001D01*
X-133031500Y-76819366D01*
X-133031500Y-75061926D01*
X-131948073Y-73978500D01*
X-129671926Y-73978500D01*
X-128588500Y-75061927D01*
X-128588499Y-76490940D01*
X-128633908Y-76536349D01*
X-128685179Y-76613082D01*
X-128720496Y-76698344D01*
X-128738500Y-76788857D01*
X-128738500Y-76881143D01*
X-128720496Y-76971656D01*
X-128685179Y-77056918D01*
X-128633908Y-77133651D01*
X-128568651Y-77198908D01*
X-128491918Y-77250179D01*
X-128406656Y-77285496D01*
X-128316143Y-77303500D01*
X-128223857Y-77303500D01*
X-128133344Y-77285496D01*
X-128048082Y-77250179D01*
X-127971349Y-77198908D01*
X-127906092Y-77133651D01*
X-127854821Y-77056918D01*
X-127819504Y-76971656D01*
X-127801500Y-76881143D01*
X-127801500Y-76788857D01*
X-127819504Y-76698344D01*
X-127854821Y-76613082D01*
X-127906092Y-76536349D01*
X-127951500Y-76490941D01*
X-127951500Y-76141545D01*
X-117433500Y-76141545D01*
X-117433500Y-76258455D01*
X-117410692Y-76373118D01*
X-117365953Y-76481128D01*
X-117301002Y-76578334D01*
X-117218334Y-76661002D01*
X-117121128Y-76725953D01*
X-117013118Y-76770692D01*
X-116898455Y-76793500D01*
X-116781545Y-76793500D01*
X-116666882Y-76770692D01*
X-116558872Y-76725953D01*
X-116461666Y-76661002D01*
X-116378998Y-76578334D01*
X-116314047Y-76481128D01*
X-116269308Y-76373118D01*
X-116246500Y-76258455D01*
X-116246500Y-76141545D01*
X-116269308Y-76026882D01*
X-116314047Y-75918872D01*
X-116378998Y-75821666D01*
X-116461666Y-75738998D01*
X-116558872Y-75674047D01*
X-116666882Y-75629308D01*
X-116781545Y-75606500D01*
X-116898455Y-75606500D01*
X-117013118Y-75629308D01*
X-117121128Y-75674047D01*
X-117218334Y-75738998D01*
X-117301002Y-75821666D01*
X-117365953Y-75918872D01*
X-117410692Y-76026882D01*
X-117433500Y-76141545D01*
X-127951500Y-76141545D01*
X-127951500Y-74945634D01*
X-127949960Y-74929999D01*
X-127951500Y-74914365D01*
X-127951500Y-74914353D01*
X-127955715Y-74871545D01*
X-126958500Y-74871545D01*
X-126958500Y-74988455D01*
X-126935692Y-75103118D01*
X-126890953Y-75211128D01*
X-126826002Y-75308334D01*
X-126743334Y-75391002D01*
X-126646128Y-75455953D01*
X-126538118Y-75500692D01*
X-126423455Y-75523500D01*
X-126306545Y-75523500D01*
X-126191882Y-75500692D01*
X-126083872Y-75455953D01*
X-125986666Y-75391002D01*
X-125903998Y-75308334D01*
X-125839047Y-75211128D01*
X-125794308Y-75103118D01*
X-125771500Y-74988455D01*
X-125771500Y-74871545D01*
X-125794308Y-74756882D01*
X-125839047Y-74648872D01*
X-125903998Y-74551666D01*
X-125986666Y-74468998D01*
X-126083872Y-74404047D01*
X-126191882Y-74359308D01*
X-126306545Y-74336500D01*
X-126423455Y-74336500D01*
X-126538118Y-74359308D01*
X-126646128Y-74404047D01*
X-126743334Y-74468998D01*
X-126826002Y-74551666D01*
X-126890953Y-74648872D01*
X-126935692Y-74756882D01*
X-126958500Y-74871545D01*
X-127955715Y-74871545D01*
X-127956108Y-74867563D01*
X-127974321Y-74807526D01*
X-127988088Y-74781769D01*
X-128003896Y-74752194D01*
X-128033723Y-74715850D01*
X-128033725Y-74715848D01*
X-128043697Y-74703697D01*
X-128055847Y-74693726D01*
X-129303721Y-73445853D01*
X-129313697Y-73433697D01*
X-129362195Y-73393896D01*
X-129417526Y-73364321D01*
X-129477563Y-73346108D01*
X-129524353Y-73341500D01*
X-129524363Y-73341500D01*
X-129540000Y-73339960D01*
X-129555637Y-73341500D01*
X-132064366Y-73341500D01*
X-132080001Y-73339960D01*
X-132095635Y-73341500D01*
X-132095647Y-73341500D01*
X-132142437Y-73346108D01*
X-132202474Y-73364321D01*
X-132228231Y-73378088D01*
X-132257806Y-73393896D01*
X-132294150Y-73423723D01*
X-132306303Y-73433697D01*
X-132316275Y-73445848D01*
X-133564149Y-74693723D01*
X-133576302Y-74703697D01*
X-133586274Y-74715848D01*
X-133586277Y-74715851D01*
X-133616104Y-74752195D01*
X-133645678Y-74807526D01*
X-133663891Y-74867564D01*
X-133670040Y-74930000D01*
X-133668499Y-74945647D01*
X-133668500Y-76703073D01*
X-134834151Y-77868725D01*
X-134846302Y-77878697D01*
X-134856274Y-77890848D01*
X-134856277Y-77890851D01*
X-134886104Y-77927195D01*
X-134915678Y-77982526D01*
X-134933891Y-78042564D01*
X-134940040Y-78105000D01*
X-135066500Y-78105000D01*
X-135066500Y-72978857D01*
X-111593500Y-72978857D01*
X-111593500Y-73071143D01*
X-111575496Y-73161656D01*
X-111540179Y-73246918D01*
X-111488908Y-73323651D01*
X-111423651Y-73388908D01*
X-111346918Y-73440179D01*
X-111261656Y-73475496D01*
X-111171143Y-73493500D01*
X-111078857Y-73493500D01*
X-110988344Y-73475496D01*
X-110903082Y-73440179D01*
X-110826349Y-73388908D01*
X-110761092Y-73323651D01*
X-110709821Y-73246918D01*
X-110674504Y-73161656D01*
X-110656500Y-73071143D01*
X-110656500Y-72978857D01*
X-110674504Y-72888344D01*
X-110709821Y-72803082D01*
X-110761092Y-72726349D01*
X-110826349Y-72661092D01*
X-110903082Y-72609821D01*
X-110988344Y-72574504D01*
X-111078857Y-72556500D01*
X-111171143Y-72556500D01*
X-111261656Y-72574504D01*
X-111346918Y-72609821D01*
X-111423651Y-72661092D01*
X-111488908Y-72726349D01*
X-111540179Y-72803082D01*
X-111575496Y-72888344D01*
X-111593500Y-72978857D01*
X-135066500Y-72978857D01*
X-135066500Y-70426545D01*
X-130133500Y-70426545D01*
X-130133500Y-70543455D01*
X-130110692Y-70658118D01*
X-130065953Y-70766128D01*
X-130001002Y-70863334D01*
X-129918334Y-70946002D01*
X-129821128Y-71010953D01*
X-129713118Y-71055692D01*
X-129598455Y-71078500D01*
X-129481545Y-71078500D01*
X-129366882Y-71055692D01*
X-129258872Y-71010953D01*
X-129161666Y-70946002D01*
X-129078998Y-70863334D01*
X-129014047Y-70766128D01*
X-128969308Y-70658118D01*
X-128946500Y-70543455D01*
X-128946500Y-70426545D01*
X-128969308Y-70311882D01*
X-129014047Y-70203872D01*
X-129078998Y-70106666D01*
X-129161666Y-70023998D01*
X-129258872Y-69959047D01*
X-129366882Y-69914308D01*
X-129481545Y-69891500D01*
X-129598455Y-69891500D01*
X-129713118Y-69914308D01*
X-129821128Y-69959047D01*
X-129918334Y-70023998D01*
X-130001002Y-70106666D01*
X-130065953Y-70203872D01*
X-130110692Y-70311882D01*
X-130133500Y-70426545D01*
X-135066500Y-70426545D01*
X-135066500Y-64088857D01*
X-131278500Y-64088857D01*
X-131278500Y-64181143D01*
X-131260496Y-64271656D01*
X-131225179Y-64356918D01*
X-131173908Y-64433651D01*
X-131128500Y-64479059D01*
X-131128499Y-66892520D01*
X-131129302Y-66893323D01*
X-131180573Y-66970056D01*
X-131215890Y-67055318D01*
X-131233894Y-67145831D01*
X-131233894Y-67238117D01*
X-131215890Y-67328630D01*
X-131180573Y-67413892D01*
X-131129302Y-67490625D01*
X-131064045Y-67555882D01*
X-130987312Y-67607153D01*
X-130902050Y-67642470D01*
X-130811537Y-67660474D01*
X-130719251Y-67660474D01*
X-130628738Y-67642470D01*
X-130543476Y-67607153D01*
X-130466743Y-67555882D01*
X-130401486Y-67490625D01*
X-130350215Y-67413892D01*
X-130314898Y-67328630D01*
X-130296894Y-67238117D01*
X-130296894Y-67145831D01*
X-130314898Y-67055318D01*
X-130350215Y-66970056D01*
X-130401486Y-66893323D01*
X-130466743Y-66828066D01*
X-130491500Y-66811524D01*
X-130491500Y-66710000D01*
X-122968436Y-66710000D01*
X-122968436Y-67910000D01*
X-122964700Y-67947933D01*
X-122953635Y-67984407D01*
X-122935668Y-68018023D01*
X-122911487Y-68047487D01*
X-122882023Y-68071668D01*
X-122848407Y-68089635D01*
X-122811933Y-68100700D01*
X-122774000Y-68104436D01*
X-121574000Y-68104436D01*
X-121536067Y-68100700D01*
X-121499593Y-68089635D01*
X-121465977Y-68071668D01*
X-121436513Y-68047487D01*
X-121412332Y-68018023D01*
X-121394365Y-67984407D01*
X-121383300Y-67947933D01*
X-121379564Y-67910000D01*
X-121379564Y-66710000D01*
X-121383300Y-66672067D01*
X-121394365Y-66635593D01*
X-121412332Y-66601977D01*
X-121436513Y-66572513D01*
X-121465977Y-66548332D01*
X-121499593Y-66530365D01*
X-121536067Y-66519300D01*
X-121574000Y-66515564D01*
X-121803868Y-66515564D01*
X-121798137Y-66513190D01*
X-121668173Y-66426351D01*
X-121557649Y-66315827D01*
X-121470810Y-66185863D01*
X-121410994Y-66041455D01*
X-121380500Y-65888153D01*
X-121380500Y-65731847D01*
X-121410994Y-65578545D01*
X-121470810Y-65434137D01*
X-121529336Y-65346545D01*
X-118068500Y-65346545D01*
X-118068500Y-65463455D01*
X-118045692Y-65578118D01*
X-118000953Y-65686128D01*
X-117936002Y-65783334D01*
X-117853334Y-65866002D01*
X-117756128Y-65930953D01*
X-117648118Y-65975692D01*
X-117533455Y-65998500D01*
X-117416545Y-65998500D01*
X-117301882Y-65975692D01*
X-117193872Y-65930953D01*
X-117096666Y-65866002D01*
X-117013998Y-65783334D01*
X-116949047Y-65686128D01*
X-116904308Y-65578118D01*
X-116881500Y-65463455D01*
X-116881500Y-65346545D01*
X-116904308Y-65231882D01*
X-116949047Y-65123872D01*
X-117013998Y-65026666D01*
X-117096666Y-64943998D01*
X-117193872Y-64879047D01*
X-117301882Y-64834308D01*
X-117416545Y-64811500D01*
X-117533455Y-64811500D01*
X-117648118Y-64834308D01*
X-117756128Y-64879047D01*
X-117853334Y-64943998D01*
X-117936002Y-65026666D01*
X-118000953Y-65123872D01*
X-118045692Y-65231882D01*
X-118068500Y-65346545D01*
X-121529336Y-65346545D01*
X-121557649Y-65304173D01*
X-121668173Y-65193649D01*
X-121798137Y-65106810D01*
X-121942545Y-65046994D01*
X-122095847Y-65016500D01*
X-122252153Y-65016500D01*
X-122405455Y-65046994D01*
X-122549863Y-65106810D01*
X-122679827Y-65193649D01*
X-122790351Y-65304173D01*
X-122877190Y-65434137D01*
X-122937006Y-65578545D01*
X-122967500Y-65731847D01*
X-122967500Y-65888153D01*
X-122937006Y-66041455D01*
X-122877190Y-66185863D01*
X-122790351Y-66315827D01*
X-122679827Y-66426351D01*
X-122549863Y-66513190D01*
X-122544132Y-66515564D01*
X-122774000Y-66515564D01*
X-122811933Y-66519300D01*
X-122848407Y-66530365D01*
X-122882023Y-66548332D01*
X-122911487Y-66572513D01*
X-122935668Y-66601977D01*
X-122953635Y-66635593D01*
X-122964700Y-66672067D01*
X-122968436Y-66710000D01*
X-130491500Y-66710000D01*
X-130491500Y-64479059D01*
X-130446092Y-64433651D01*
X-130394821Y-64356918D01*
X-130359504Y-64271656D01*
X-130341500Y-64181143D01*
X-130341500Y-64088857D01*
X-130359504Y-63998344D01*
X-130394821Y-63913082D01*
X-130446092Y-63836349D01*
X-130511349Y-63771092D01*
X-130588082Y-63719821D01*
X-130673344Y-63684504D01*
X-130763857Y-63666500D01*
X-130856143Y-63666500D01*
X-130946656Y-63684504D01*
X-131031918Y-63719821D01*
X-131108651Y-63771092D01*
X-131173908Y-63836349D01*
X-131225179Y-63913082D01*
X-131260496Y-63998344D01*
X-131278500Y-64088857D01*
X-135066500Y-64088857D01*
X-135066500Y-63441545D01*
X-113623500Y-63441545D01*
X-113623500Y-63558455D01*
X-113600692Y-63673118D01*
X-113555953Y-63781128D01*
X-113491002Y-63878334D01*
X-113408334Y-63961002D01*
X-113311128Y-64025953D01*
X-113203118Y-64070692D01*
X-113088455Y-64093500D01*
X-112971545Y-64093500D01*
X-112856882Y-64070692D01*
X-112748872Y-64025953D01*
X-112651666Y-63961002D01*
X-112568998Y-63878334D01*
X-112504047Y-63781128D01*
X-112459308Y-63673118D01*
X-112436500Y-63558455D01*
X-112436500Y-63441545D01*
X-112459308Y-63326882D01*
X-112504047Y-63218872D01*
X-112568998Y-63121666D01*
X-112651666Y-63038998D01*
X-112748872Y-62974047D01*
X-112856882Y-62929308D01*
X-112971545Y-62906500D01*
X-113088455Y-62906500D01*
X-113203118Y-62929308D01*
X-113311128Y-62974047D01*
X-113408334Y-63038998D01*
X-113491002Y-63121666D01*
X-113555953Y-63218872D01*
X-113600692Y-63326882D01*
X-113623500Y-63441545D01*
X-135066500Y-63441545D01*
X-135066500Y-55821545D01*
X-123783500Y-55821545D01*
X-123783500Y-55938455D01*
X-123760692Y-56053118D01*
X-123715953Y-56161128D01*
X-123651002Y-56258334D01*
X-123568334Y-56341002D01*
X-123471128Y-56405953D01*
X-123363118Y-56450692D01*
X-123248455Y-56473500D01*
X-123131545Y-56473500D01*
X-123016882Y-56450692D01*
X-122908872Y-56405953D01*
X-122811666Y-56341002D01*
X-122728998Y-56258334D01*
X-122689018Y-56198500D01*
X-117340585Y-56198500D01*
X-117324948Y-56200040D01*
X-117309311Y-56198500D01*
X-117309301Y-56198500D01*
X-117262511Y-56193892D01*
X-117202474Y-56175679D01*
X-117147143Y-56146104D01*
X-117098645Y-56106303D01*
X-117088668Y-56094146D01*
X-114913982Y-53919461D01*
X-114843403Y-53933500D01*
X-114726493Y-53933500D01*
X-114611830Y-53910692D01*
X-114503820Y-53865953D01*
X-114406614Y-53801002D01*
X-114323946Y-53718334D01*
X-114258995Y-53621128D01*
X-114214256Y-53513118D01*
X-114191448Y-53398455D01*
X-114191448Y-53281545D01*
X-114214256Y-53166882D01*
X-114258995Y-53058872D01*
X-114323946Y-52961666D01*
X-114406614Y-52878998D01*
X-114503820Y-52814047D01*
X-114611830Y-52769308D01*
X-114726493Y-52746500D01*
X-114843403Y-52746500D01*
X-114958066Y-52769308D01*
X-115066076Y-52814047D01*
X-115163282Y-52878998D01*
X-115245950Y-52961666D01*
X-115310901Y-53058872D01*
X-115355640Y-53166882D01*
X-115378448Y-53281545D01*
X-115378448Y-53398455D01*
X-115364409Y-53469034D01*
X-117456874Y-55561500D01*
X-122689018Y-55561500D01*
X-122728998Y-55501666D01*
X-122811666Y-55418998D01*
X-122908872Y-55354047D01*
X-123016882Y-55309308D01*
X-123131545Y-55286500D01*
X-123248455Y-55286500D01*
X-123363118Y-55309308D01*
X-123471128Y-55354047D01*
X-123568334Y-55418998D01*
X-123651002Y-55501666D01*
X-123715953Y-55598872D01*
X-123760692Y-55706882D01*
X-123783500Y-55821545D01*
X-135066500Y-55821545D01*
X-135066500Y-52011545D01*
X-132038500Y-52011545D01*
X-132038500Y-52128455D01*
X-132015692Y-52243118D01*
X-131970953Y-52351128D01*
X-131906002Y-52448334D01*
X-131823334Y-52531002D01*
X-131726128Y-52595953D01*
X-131618118Y-52640692D01*
X-131503455Y-52663500D01*
X-131386545Y-52663500D01*
X-131271882Y-52640692D01*
X-131163872Y-52595953D01*
X-131066666Y-52531002D01*
X-130983998Y-52448334D01*
X-130919047Y-52351128D01*
X-130874308Y-52243118D01*
X-130851500Y-52128455D01*
X-130851500Y-52011545D01*
X-123783500Y-52011545D01*
X-123783500Y-52128455D01*
X-123760692Y-52243118D01*
X-123715953Y-52351128D01*
X-123651002Y-52448334D01*
X-123568334Y-52531002D01*
X-123471128Y-52595953D01*
X-123363118Y-52640692D01*
X-123248455Y-52663500D01*
X-123131545Y-52663500D01*
X-123046307Y-52646545D01*
X-110448500Y-52646545D01*
X-110448500Y-52763455D01*
X-110425692Y-52878118D01*
X-110380953Y-52986128D01*
X-110316002Y-53083334D01*
X-110233334Y-53166002D01*
X-110136128Y-53230953D01*
X-110028118Y-53275692D01*
X-109913455Y-53298500D01*
X-109796545Y-53298500D01*
X-109681882Y-53275692D01*
X-109573872Y-53230953D01*
X-109476666Y-53166002D01*
X-109393998Y-53083334D01*
X-109329047Y-52986128D01*
X-109284308Y-52878118D01*
X-109261500Y-52763455D01*
X-109261500Y-52646545D01*
X-109284308Y-52531882D01*
X-109329047Y-52423872D01*
X-109393998Y-52326666D01*
X-109476666Y-52243998D01*
X-109573872Y-52179047D01*
X-109681882Y-52134308D01*
X-109796545Y-52111500D01*
X-109913455Y-52111500D01*
X-110028118Y-52134308D01*
X-110136128Y-52179047D01*
X-110233334Y-52243998D01*
X-110316002Y-52326666D01*
X-110380953Y-52423872D01*
X-110425692Y-52531882D01*
X-110448500Y-52646545D01*
X-123046307Y-52646545D01*
X-123016882Y-52640692D01*
X-122908872Y-52595953D01*
X-122811666Y-52531002D01*
X-122728998Y-52448334D01*
X-122664047Y-52351128D01*
X-122619308Y-52243118D01*
X-122596500Y-52128455D01*
X-122596500Y-52011545D01*
X-122619308Y-51896882D01*
X-122664047Y-51788872D01*
X-122728998Y-51691666D01*
X-122811666Y-51608998D01*
X-122908872Y-51544047D01*
X-123016882Y-51499308D01*
X-123131545Y-51476500D01*
X-123248455Y-51476500D01*
X-123363118Y-51499308D01*
X-123471128Y-51544047D01*
X-123568334Y-51608998D01*
X-123651002Y-51691666D01*
X-123715953Y-51788872D01*
X-123760692Y-51896882D01*
X-123783500Y-52011545D01*
X-130851500Y-52011545D01*
X-130874308Y-51896882D01*
X-130919047Y-51788872D01*
X-130983998Y-51691666D01*
X-131066666Y-51608998D01*
X-131163872Y-51544047D01*
X-131271882Y-51499308D01*
X-131386545Y-51476500D01*
X-131503455Y-51476500D01*
X-131618118Y-51499308D01*
X-131726128Y-51544047D01*
X-131823334Y-51608998D01*
X-131906002Y-51691666D01*
X-131970953Y-51788872D01*
X-132015692Y-51896882D01*
X-132038500Y-52011545D01*
X-135066500Y-52011545D01*
X-135066500Y-46296545D01*
X-132673500Y-46296545D01*
X-132673500Y-46413455D01*
X-132650692Y-46528118D01*
X-132605953Y-46636128D01*
X-132541002Y-46733334D01*
X-132458334Y-46816002D01*
X-132361128Y-46880953D01*
X-132253118Y-46925692D01*
X-132138455Y-46948500D01*
X-132021545Y-46948500D01*
X-131998204Y-46943857D01*
X-130008500Y-46943857D01*
X-130008500Y-47036143D01*
X-129990496Y-47126656D01*
X-129955179Y-47211918D01*
X-129903908Y-47288651D01*
X-129858499Y-47334060D01*
X-129858500Y-51090941D01*
X-129903908Y-51136349D01*
X-129955179Y-51213082D01*
X-129990496Y-51298344D01*
X-130008500Y-51388857D01*
X-130008500Y-51481143D01*
X-129990496Y-51571656D01*
X-129955179Y-51656918D01*
X-129903908Y-51733651D01*
X-129838651Y-51798908D01*
X-129761918Y-51850179D01*
X-129676656Y-51885496D01*
X-129586143Y-51903500D01*
X-129493857Y-51903500D01*
X-129403344Y-51885496D01*
X-129318082Y-51850179D01*
X-129241349Y-51798908D01*
X-129176092Y-51733651D01*
X-129124821Y-51656918D01*
X-129089504Y-51571656D01*
X-129071500Y-51481143D01*
X-129071500Y-51388857D01*
X-129089504Y-51298344D01*
X-129124821Y-51213082D01*
X-129176092Y-51136349D01*
X-129221500Y-51090941D01*
X-129221500Y-50741545D01*
X-125688500Y-50741545D01*
X-125688500Y-50858455D01*
X-125665692Y-50973118D01*
X-125620953Y-51081128D01*
X-125556002Y-51178334D01*
X-125473334Y-51261002D01*
X-125376128Y-51325953D01*
X-125268118Y-51370692D01*
X-125153455Y-51393500D01*
X-125036545Y-51393500D01*
X-124921882Y-51370692D01*
X-124813872Y-51325953D01*
X-124716666Y-51261002D01*
X-124633998Y-51178334D01*
X-124569047Y-51081128D01*
X-124524308Y-50973118D01*
X-124501500Y-50858455D01*
X-124501500Y-50741545D01*
X-124524308Y-50626882D01*
X-124569047Y-50518872D01*
X-124633998Y-50421666D01*
X-124716666Y-50338998D01*
X-124813872Y-50274047D01*
X-124921882Y-50229308D01*
X-125036545Y-50206500D01*
X-125153455Y-50206500D01*
X-125268118Y-50229308D01*
X-125376128Y-50274047D01*
X-125473334Y-50338998D01*
X-125556002Y-50421666D01*
X-125620953Y-50518872D01*
X-125665692Y-50626882D01*
X-125688500Y-50741545D01*
X-129221500Y-50741545D01*
X-129221500Y-47334059D01*
X-129176092Y-47288651D01*
X-129124821Y-47211918D01*
X-129089504Y-47126656D01*
X-129071500Y-47036143D01*
X-129071500Y-46943857D01*
X-129089504Y-46853344D01*
X-129124821Y-46768082D01*
X-129176092Y-46691349D01*
X-129241349Y-46626092D01*
X-129318082Y-46574821D01*
X-129403344Y-46539504D01*
X-129493857Y-46521500D01*
X-129586143Y-46521500D01*
X-129676656Y-46539504D01*
X-129761918Y-46574821D01*
X-129838651Y-46626092D01*
X-129903908Y-46691349D01*
X-129955179Y-46768082D01*
X-129990496Y-46853344D01*
X-130008500Y-46943857D01*
X-131998204Y-46943857D01*
X-131906882Y-46925692D01*
X-131798872Y-46880953D01*
X-131701666Y-46816002D01*
X-131618998Y-46733334D01*
X-131554047Y-46636128D01*
X-131509308Y-46528118D01*
X-131486500Y-46413455D01*
X-131486500Y-46296545D01*
X-131509308Y-46181882D01*
X-131554047Y-46073872D01*
X-131618998Y-45976666D01*
X-131701666Y-45893998D01*
X-131798872Y-45829047D01*
X-131906882Y-45784308D01*
X-132021545Y-45761500D01*
X-132138455Y-45761500D01*
X-132253118Y-45784308D01*
X-132361128Y-45829047D01*
X-132458334Y-45893998D01*
X-132541002Y-45976666D01*
X-132605953Y-46073872D01*
X-132650692Y-46181882D01*
X-132673500Y-46296545D01*
X-135066500Y-46296545D01*
X-135066500Y-43243500D01*
X-131955061Y-43243500D01*
X-131940509Y-43316656D01*
G37*
X-131940509Y-43316656D02*
X-131905192Y-43401918D01*
X-131853921Y-43478651D01*
X-131788664Y-43543908D01*
X-131711931Y-43595179D01*
X-131626669Y-43630496D01*
X-131536156Y-43648500D01*
X-131443870Y-43648500D01*
X-131353357Y-43630496D01*
X-131268095Y-43595179D01*
X-131191362Y-43543908D01*
X-131150007Y-43502553D01*
X-131108651Y-43543908D01*
X-131031918Y-43595179D01*
X-130946656Y-43630496D01*
X-130856143Y-43648500D01*
X-130763857Y-43648500D01*
X-130673344Y-43630496D01*
X-130588082Y-43595179D01*
X-130511349Y-43543908D01*
X-130446092Y-43478651D01*
X-130394821Y-43401918D01*
X-130359504Y-43316656D01*
X-130344952Y-43243500D01*
X-127465048Y-43243500D01*
X-127450496Y-43316656D01*
X-127416662Y-43398338D01*
X-127498344Y-43364504D01*
X-127588857Y-43346500D01*
X-127681143Y-43346500D01*
X-127771656Y-43364504D01*
X-127856918Y-43399821D01*
X-127933651Y-43451092D01*
X-127998908Y-43516349D01*
X-128050179Y-43593082D01*
X-128085496Y-43678344D01*
X-128103500Y-43768857D01*
X-128103500Y-43861143D01*
X-128085496Y-43951656D01*
X-128050179Y-44036918D01*
X-127998908Y-44113651D01*
X-127953500Y-44159059D01*
X-127953499Y-45554951D01*
X-127955040Y-45570598D01*
X-127953499Y-45586245D01*
X-127948891Y-45633035D01*
X-127941450Y-45657563D01*
X-127930678Y-45693072D01*
X-127901104Y-45748403D01*
X-127871277Y-45784747D01*
X-127871274Y-45784750D01*
X-127861302Y-45796901D01*
X-127849151Y-45806873D01*
X-127754861Y-45901163D01*
X-127771656Y-45904504D01*
X-127856918Y-45939821D01*
X-127933651Y-45991092D01*
X-127975007Y-46032448D01*
X-127996513Y-46010941D01*
X-127996513Y-45055621D01*
X-127994973Y-45039986D01*
X-127996513Y-45024352D01*
X-127996513Y-45024340D01*
X-128001121Y-44977550D01*
X-128019334Y-44917513D01*
X-128033101Y-44891756D01*
X-128048909Y-44862181D01*
X-128078736Y-44825837D01*
X-128078738Y-44825835D01*
X-128088710Y-44813684D01*
X-128100860Y-44803713D01*
X-129071500Y-43833074D01*
X-129071500Y-43768857D01*
X-129089504Y-43678344D01*
X-129124821Y-43593082D01*
X-129176092Y-43516349D01*
X-129241349Y-43451092D01*
X-129318082Y-43399821D01*
X-129403344Y-43364504D01*
X-129493857Y-43346500D01*
X-129586143Y-43346500D01*
X-129676656Y-43364504D01*
X-129761918Y-43399821D01*
X-129838651Y-43451092D01*
X-129903908Y-43516349D01*
X-129955179Y-43593082D01*
X-129990496Y-43678344D01*
X-130008500Y-43768857D01*
X-130008500Y-43861143D01*
X-129990496Y-43951656D01*
X-129955179Y-44036918D01*
X-129903908Y-44113651D01*
X-129838651Y-44178908D01*
X-129761918Y-44230179D01*
X-129676656Y-44265496D01*
X-129586143Y-44283500D01*
X-129521926Y-44283500D01*
X-128633513Y-45171914D01*
X-128633512Y-46010940D01*
X-128678921Y-46056349D01*
X-128730192Y-46133082D01*
X-128765509Y-46218344D01*
X-128783513Y-46308857D01*
X-128783513Y-46401143D01*
X-128765509Y-46491656D01*
X-128730192Y-46576918D01*
X-128678921Y-46653651D01*
X-128613664Y-46718908D01*
X-128536931Y-46770179D01*
X-128451669Y-46805496D01*
X-128361156Y-46823500D01*
X-128268870Y-46823500D01*
X-128178357Y-46805496D01*
X-128093095Y-46770179D01*
X-128016362Y-46718908D01*
X-127975007Y-46677553D01*
X-127933651Y-46718908D01*
X-127856918Y-46770179D01*
X-127771656Y-46805496D01*
X-127681143Y-46823500D01*
X-127588857Y-46823500D01*
X-127498344Y-46805496D01*
X-127413082Y-46770179D01*
X-127336349Y-46718908D01*
X-127271092Y-46653651D01*
X-127219821Y-46576918D01*
X-127184504Y-46491656D01*
X-127181163Y-46474861D01*
X-127086873Y-46569152D01*
X-127076901Y-46581303D01*
X-127064750Y-46591275D01*
X-127064748Y-46591277D01*
X-127028404Y-46621104D01*
X-127000295Y-46636128D01*
X-126973072Y-46650679D01*
X-126913035Y-46668892D01*
X-126866245Y-46673500D01*
X-126866235Y-46673500D01*
X-126850598Y-46675040D01*
X-126834961Y-46673500D01*
X-126754072Y-46673500D01*
X-126708664Y-46718908D01*
X-126631931Y-46770179D01*
X-126546669Y-46805496D01*
X-126456156Y-46823500D01*
X-126363870Y-46823500D01*
X-126273357Y-46805496D01*
X-126188095Y-46770179D01*
X-126111362Y-46718908D01*
X-126070007Y-46677553D01*
X-126028651Y-46718908D01*
X-125951918Y-46770179D01*
X-125866656Y-46805496D01*
X-125776143Y-46823500D01*
X-125683857Y-46823500D01*
X-125593344Y-46805496D01*
X-125511662Y-46771662D01*
X-125545496Y-46853344D01*
X-125563500Y-46943857D01*
X-125563500Y-47036143D01*
X-125545496Y-47126656D01*
X-125510179Y-47211918D01*
X-125458908Y-47288651D01*
X-125393651Y-47353908D01*
X-125316918Y-47405179D01*
X-125231656Y-47440496D01*
X-125141143Y-47458500D01*
X-125048857Y-47458500D01*
X-125031314Y-47455011D01*
X-125053500Y-47566545D01*
X-125053500Y-47683455D01*
X-125030692Y-47798118D01*
X-124985953Y-47906128D01*
X-124921002Y-48003334D01*
X-124838334Y-48086002D01*
X-124741128Y-48150953D01*
X-124633118Y-48195692D01*
X-124518455Y-48218500D01*
X-124401545Y-48218500D01*
X-124286882Y-48195692D01*
X-124178872Y-48150953D01*
X-124081666Y-48086002D01*
X-123998998Y-48003334D01*
X-123934047Y-47906128D01*
X-123889308Y-47798118D01*
X-123866500Y-47683455D01*
X-123866500Y-47566545D01*
X-123889308Y-47451882D01*
X-123934047Y-47343872D01*
X-123998998Y-47246666D01*
X-124081666Y-47163998D01*
X-124178872Y-47099047D01*
X-124286882Y-47054308D01*
X-124401545Y-47031500D01*
X-124518455Y-47031500D01*
X-124629989Y-47053686D01*
X-124626500Y-47036143D01*
X-124626500Y-46971927D01*
X-124613071Y-46958498D01*
X-122339490Y-46958498D01*
X-122370496Y-47033352D01*
X-122388500Y-47123865D01*
X-122388500Y-47216151D01*
X-122370496Y-47306664D01*
X-122335179Y-47391926D01*
X-122283908Y-47468659D01*
X-122238499Y-47514068D01*
X-122238500Y-51090941D01*
X-122283908Y-51136349D01*
X-122335179Y-51213082D01*
X-122370496Y-51298344D01*
X-122388500Y-51388857D01*
X-122388500Y-51481143D01*
X-122370496Y-51571656D01*
X-122335179Y-51656918D01*
X-122283908Y-51733651D01*
X-122218651Y-51798908D01*
X-122141918Y-51850179D01*
X-122056656Y-51885496D01*
X-121966143Y-51903500D01*
X-121873857Y-51903500D01*
X-121783344Y-51885496D01*
X-121698082Y-51850179D01*
X-121621349Y-51798908D01*
X-121556092Y-51733651D01*
X-121504821Y-51656918D01*
X-121469504Y-51571656D01*
X-121451500Y-51481143D01*
X-121451500Y-51388857D01*
X-121469504Y-51298344D01*
X-121504821Y-51213082D01*
X-121556092Y-51136349D01*
X-121601500Y-51090941D01*
X-121601500Y-48836545D01*
X-115528500Y-48836545D01*
X-115528500Y-48953455D01*
X-115505692Y-49068118D01*
X-115460953Y-49176128D01*
X-115396002Y-49273334D01*
X-115313334Y-49356002D01*
X-115216128Y-49420953D01*
X-115108118Y-49465692D01*
X-114993455Y-49488500D01*
X-114876545Y-49488500D01*
X-114761882Y-49465692D01*
X-114653872Y-49420953D01*
X-114556666Y-49356002D01*
X-114473998Y-49273334D01*
X-114409047Y-49176128D01*
X-114364308Y-49068118D01*
X-114341500Y-48953455D01*
X-114341500Y-48836545D01*
X-114364308Y-48721882D01*
X-114409047Y-48613872D01*
X-114473998Y-48516666D01*
X-114556666Y-48433998D01*
X-114653872Y-48369047D01*
X-114761882Y-48324308D01*
X-114876545Y-48301500D01*
X-114993455Y-48301500D01*
X-115108118Y-48324308D01*
X-115216128Y-48369047D01*
X-115313334Y-48433998D01*
X-115396002Y-48516666D01*
X-115460953Y-48613872D01*
X-115505692Y-48721882D01*
X-115528500Y-48836545D01*
X-121601500Y-48836545D01*
X-121601500Y-47514067D01*
X-121556092Y-47468659D01*
X-121504821Y-47391926D01*
X-121469504Y-47306664D01*
X-121451500Y-47216151D01*
X-121451500Y-47123865D01*
X-121469504Y-47033352D01*
X-121500510Y-46958498D01*
X-120994059Y-46958498D01*
X-120948651Y-47003906D01*
X-120871918Y-47055177D01*
X-120786656Y-47090494D01*
X-120696143Y-47108498D01*
X-120603857Y-47108498D01*
X-120513344Y-47090494D01*
X-120428082Y-47055177D01*
X-120351349Y-47003906D01*
X-120286092Y-46938649D01*
X-120234821Y-46861916D01*
X-120199504Y-46776654D01*
X-120181500Y-46686141D01*
X-120181500Y-46671997D01*
X-120166243Y-46673500D01*
X-120166241Y-46673500D01*
X-120150596Y-46675041D01*
X-120134951Y-46673500D01*
X-119139069Y-46673500D01*
X-119093661Y-46718908D01*
X-119016928Y-46770179D01*
X-118931666Y-46805496D01*
X-118841153Y-46823500D01*
X-118748867Y-46823500D01*
X-118658354Y-46805496D01*
X-118573092Y-46770179D01*
X-118496359Y-46718908D01*
X-118431102Y-46653651D01*
X-118379831Y-46576918D01*
X-118344514Y-46491656D01*
X-118326510Y-46401143D01*
X-118326510Y-46308857D01*
X-118344514Y-46218344D01*
X-118379831Y-46133082D01*
X-118420816Y-46071743D01*
X-118408651Y-46083908D01*
X-118331918Y-46135179D01*
X-118246656Y-46170496D01*
X-118156143Y-46188500D01*
X-118063857Y-46188500D01*
X-118025242Y-46180819D01*
X-118025682Y-46181882D01*
X-118048490Y-46296545D01*
X-118048490Y-46413455D01*
X-118025682Y-46528118D01*
X-117980943Y-46636128D01*
X-117915992Y-46733334D01*
X-117833324Y-46816002D01*
X-117736118Y-46880953D01*
X-117628108Y-46925692D01*
X-117513445Y-46948500D01*
X-117396535Y-46948500D01*
X-117281872Y-46925692D01*
X-117173862Y-46880953D01*
X-117076656Y-46816002D01*
X-116993988Y-46733334D01*
X-116929037Y-46636128D01*
X-116884298Y-46528118D01*
X-116861490Y-46413455D01*
X-116861490Y-46296545D01*
X-116884298Y-46181882D01*
X-116929037Y-46073872D01*
X-116993988Y-45976666D01*
X-117076656Y-45893998D01*
X-117173862Y-45829047D01*
X-117281872Y-45784308D01*
X-117396535Y-45761500D01*
X-117513445Y-45761500D01*
X-117628108Y-45784308D01*
X-117646640Y-45791984D01*
X-117641500Y-45766143D01*
X-117641500Y-45673857D01*
X-117659504Y-45583344D01*
X-117694821Y-45498082D01*
X-117746092Y-45421349D01*
X-117811349Y-45356092D01*
X-117888082Y-45304821D01*
X-117973344Y-45269504D01*
X-118063857Y-45251500D01*
X-118156143Y-45251500D01*
X-118246656Y-45269504D01*
X-118331918Y-45304821D01*
X-118408651Y-45356092D01*
X-118473908Y-45421349D01*
X-118525179Y-45498082D01*
X-118560496Y-45583344D01*
X-118578500Y-45673857D01*
X-118578500Y-45766143D01*
X-118560496Y-45856656D01*
X-118525179Y-45941918D01*
X-118484194Y-46003257D01*
X-118496359Y-45991092D01*
X-118573092Y-45939821D01*
X-118658354Y-45904504D01*
X-118748867Y-45886500D01*
X-118841153Y-45886500D01*
X-118931666Y-45904504D01*
X-118952981Y-45913333D01*
X-118929504Y-45856656D01*
X-118911500Y-45766143D01*
X-118911500Y-45673857D01*
X-118929504Y-45583344D01*
X-118964821Y-45498082D01*
X-119016092Y-45421349D01*
X-119081349Y-45356092D01*
X-119158082Y-45304821D01*
X-119243344Y-45269504D01*
X-119333857Y-45251500D01*
X-119398074Y-45251500D01*
X-119448708Y-45200866D01*
X-119458684Y-45188710D01*
X-119507182Y-45148909D01*
X-119562513Y-45119334D01*
X-119622550Y-45101121D01*
X-119669340Y-45096513D01*
X-119669350Y-45096513D01*
X-119684987Y-45094973D01*
X-119700624Y-45096513D01*
X-126475418Y-45096513D01*
X-126491053Y-45094973D01*
X-126506688Y-45096513D01*
X-126506699Y-45096513D01*
X-126553489Y-45101121D01*
X-126613526Y-45119334D01*
X-126639283Y-45133101D01*
X-126668858Y-45148909D01*
X-126681500Y-45159284D01*
X-126681500Y-43524059D01*
X-126636092Y-43478651D01*
X-126584821Y-43401918D01*
X-126549504Y-43316656D01*
X-126534952Y-43243500D01*
X-126043568Y-43243500D01*
X-126025678Y-43302474D01*
X-125996104Y-43357805D01*
X-125966277Y-43394149D01*
X-125966274Y-43394152D01*
X-125956302Y-43406303D01*
X-125944151Y-43416275D01*
X-124696275Y-44664152D01*
X-124686303Y-44676303D01*
X-124674152Y-44686275D01*
X-124674150Y-44686277D01*
X-124637806Y-44716104D01*
X-124619113Y-44726095D01*
X-124582474Y-44745679D01*
X-124522437Y-44763892D01*
X-124475647Y-44768500D01*
X-124475635Y-44768500D01*
X-124460001Y-44770040D01*
X-124444366Y-44768500D01*
X-114431926Y-44768500D01*
X-113266275Y-45934152D01*
X-113256303Y-45946303D01*
X-113244152Y-45956275D01*
X-113244150Y-45956277D01*
X-113207806Y-45986104D01*
X-113178231Y-46001912D01*
X-113152474Y-46015679D01*
X-113092437Y-46033892D01*
X-113045647Y-46038500D01*
X-113045635Y-46038500D01*
X-113030001Y-46040040D01*
X-113014366Y-46038500D01*
X-109351926Y-46038500D01*
X-108903500Y-46486927D01*
X-108903499Y-54478072D01*
X-110069147Y-55643721D01*
X-110081303Y-55653697D01*
X-110091277Y-55665851D01*
X-110121104Y-55702195D01*
X-110122606Y-55705006D01*
X-110150679Y-55757527D01*
X-110168892Y-55817564D01*
X-110173500Y-55864354D01*
X-110173500Y-55864363D01*
X-110175040Y-55880000D01*
X-110173500Y-55895637D01*
X-110173499Y-59039353D01*
X-110175040Y-59055000D01*
X-110168891Y-59117436D01*
X-110150678Y-59177474D01*
X-110121104Y-59232805D01*
X-110091277Y-59269149D01*
X-110091274Y-59269152D01*
X-110081302Y-59281303D01*
X-110069151Y-59291275D01*
X-109538500Y-59821927D01*
X-109538499Y-65060940D01*
X-109583908Y-65106349D01*
X-109635179Y-65183082D01*
X-109670496Y-65268344D01*
X-109688500Y-65358857D01*
X-109688500Y-65423073D01*
X-113796926Y-69531500D01*
X-114590941Y-69531500D01*
X-114636349Y-69486092D01*
X-114713082Y-69434821D01*
X-114798344Y-69399504D01*
X-114888857Y-69381500D01*
X-114981143Y-69381500D01*
X-115071656Y-69399504D01*
X-115156918Y-69434821D01*
X-115233651Y-69486092D01*
X-115298908Y-69551349D01*
X-115350179Y-69628082D01*
X-115385496Y-69713344D01*
X-115403500Y-69803857D01*
X-115403500Y-69896143D01*
X-115385496Y-69986656D01*
X-115350179Y-70071918D01*
X-115298908Y-70148651D01*
X-115233651Y-70213908D01*
X-115156918Y-70265179D01*
X-115071656Y-70300496D01*
X-114981143Y-70318500D01*
X-114888857Y-70318500D01*
X-114798344Y-70300496D01*
X-114713082Y-70265179D01*
X-114636349Y-70213908D01*
X-114590941Y-70168500D01*
X-113680637Y-70168500D01*
X-113665000Y-70170040D01*
X-113649363Y-70168500D01*
X-113649353Y-70168500D01*
X-113602563Y-70163892D01*
X-113542526Y-70145679D01*
X-113487195Y-70116104D01*
X-113438697Y-70076303D01*
X-113428720Y-70064146D01*
X-109238073Y-65873500D01*
X-109173857Y-65873500D01*
X-109083344Y-65855496D01*
X-108998082Y-65820179D01*
X-108921349Y-65768908D01*
X-108856092Y-65703651D01*
X-108804821Y-65626918D01*
X-108769504Y-65541656D01*
X-108751500Y-65451143D01*
X-108751500Y-65358857D01*
X-108769504Y-65268344D01*
X-108804821Y-65183082D01*
X-108856092Y-65106349D01*
X-108901500Y-65060941D01*
X-108901500Y-59705645D01*
X-108899959Y-59690000D01*
X-108901500Y-59674353D01*
X-108906108Y-59627563D01*
X-108920082Y-59581499D01*
X-108924321Y-59567525D01*
X-108953895Y-59512194D01*
X-108983723Y-59475850D01*
X-108983725Y-59475848D01*
X-108993697Y-59463697D01*
X-109005847Y-59453726D01*
X-109536500Y-58923074D01*
X-109536500Y-58200353D01*
X-109451658Y-58235496D01*
X-109361145Y-58253500D01*
X-109268859Y-58253500D01*
X-109178346Y-58235496D01*
X-109093084Y-58200179D01*
X-109016351Y-58148908D01*
X-108951094Y-58083651D01*
X-108899823Y-58006918D01*
X-108864506Y-57921656D01*
X-108846502Y-57831143D01*
X-108846502Y-57766926D01*
X-107100847Y-56021272D01*
X-107088697Y-56011301D01*
X-107078723Y-55999148D01*
X-107048896Y-55962804D01*
X-107019322Y-55907473D01*
X-107019321Y-55907472D01*
X-107001108Y-55847435D01*
X-106996500Y-55800645D01*
X-106996500Y-55800635D01*
X-106994960Y-55784998D01*
X-106996500Y-55769361D01*
X-106996500Y-43830645D01*
X-106994959Y-43815000D01*
X-106996500Y-43799353D01*
X-107001108Y-43752563D01*
X-107019310Y-43692561D01*
X-107019321Y-43692525D01*
X-107048895Y-43637194D01*
X-107078723Y-43600850D01*
X-107078725Y-43600848D01*
X-107088697Y-43588697D01*
X-107100850Y-43578723D01*
X-107436074Y-43243500D01*
X-106868499Y-43243500D01*
X-106868500Y-59699260D01*
X-106868499Y-59699270D01*
X-106868500Y-81289260D01*
X-106868499Y-81289270D01*
X-106868500Y-99506500D01*
X-135066500Y-99506500D01*
X-135066500Y-96648959D01*
X-128043500Y-96648959D01*
X-128043500Y-97081041D01*
X-127959205Y-97504820D01*
X-127793854Y-97904012D01*
X-127553802Y-98263274D01*
X-127248274Y-98568802D01*
X-126889012Y-98808854D01*
X-126489820Y-98974205D01*
X-126066041Y-99058500D01*
X-125633959Y-99058500D01*
X-125210180Y-98974205D01*
X-124810988Y-98808854D01*
X-124451726Y-98568802D01*
X-124146198Y-98263274D01*
X-123973625Y-98005000D01*
X-110644265Y-98005000D01*
X-110633231Y-98117034D01*
X-110600552Y-98224762D01*
X-110547484Y-98324045D01*
X-110476067Y-98411067D01*
X-110389045Y-98482484D01*
X-110289762Y-98535552D01*
X-110182034Y-98568231D01*
X-110070000Y-98579265D01*
X-109553375Y-98576500D01*
X-109410500Y-98433625D01*
X-109410500Y-97345500D01*
X-109029500Y-97345500D01*
X-109029500Y-98433625D01*
X-108886625Y-98576500D01*
X-108370000Y-98579265D01*
X-108257966Y-98568231D01*
X-108150238Y-98535552D01*
X-108050955Y-98482484D01*
X-107963933Y-98411067D01*
X-107892516Y-98324045D01*
X-107839448Y-98224762D01*
X-107806769Y-98117034D01*
X-107795735Y-98005000D01*
X-107798500Y-97488375D01*
X-107941375Y-97345500D01*
X-109029500Y-97345500D01*
X-109410500Y-97345500D01*
X-110498625Y-97345500D01*
X-110641500Y-97488375D01*
X-110644265Y-98005000D01*
X-123973625Y-98005000D01*
X-123906146Y-97904012D01*
X-123740795Y-97504820D01*
X-123656500Y-97081041D01*
X-123656500Y-96648959D01*
X-123700635Y-96427073D01*
X-116513500Y-96427073D01*
X-116513500Y-96612927D01*
X-116477242Y-96795209D01*
X-116406119Y-96966915D01*
X-116302864Y-97121446D01*
X-116171446Y-97252864D01*
X-116016915Y-97356119D01*
X-115845209Y-97427242D01*
X-115662927Y-97463500D01*
X-115477073Y-97463500D01*
X-115294791Y-97427242D01*
X-115123085Y-97356119D01*
X-114968554Y-97252864D01*
X-114837136Y-97121446D01*
X-114733881Y-96966915D01*
X-114662758Y-96795209D01*
X-114626500Y-96612927D01*
X-114626500Y-96427073D01*
X-114650781Y-96305000D01*
X-110644265Y-96305000D01*
X-110641500Y-96821625D01*
X-110498625Y-96964500D01*
X-109410500Y-96964500D01*
X-109410500Y-95876375D01*
X-109029500Y-95876375D01*
X-109029500Y-96964500D01*
X-107941375Y-96964500D01*
X-107798500Y-96821625D01*
X-107795735Y-96305000D01*
X-107806769Y-96192966D01*
X-107839448Y-96085238D01*
X-107892516Y-95985955D01*
X-107963933Y-95898933D01*
X-108050955Y-95827516D01*
X-108150238Y-95774448D01*
X-108257966Y-95741769D01*
X-108370000Y-95730735D01*
X-108886625Y-95733500D01*
X-109029500Y-95876375D01*
X-109410500Y-95876375D01*
X-109553375Y-95733500D01*
X-110070000Y-95730735D01*
X-110182034Y-95741769D01*
X-110289762Y-95774448D01*
X-110389045Y-95827516D01*
X-110476067Y-95898933D01*
X-110547484Y-95985955D01*
X-110600552Y-96085238D01*
X-110633231Y-96192966D01*
X-110644265Y-96305000D01*
X-114650781Y-96305000D01*
X-114662758Y-96244791D01*
X-114733881Y-96073085D01*
X-114837136Y-95918554D01*
X-114968554Y-95787136D01*
X-115123085Y-95683881D01*
X-115294791Y-95612758D01*
X-115477073Y-95576500D01*
X-115662927Y-95576500D01*
X-115845209Y-95612758D01*
X-116016915Y-95683881D01*
X-116171446Y-95787136D01*
X-116302864Y-95918554D01*
X-116406119Y-96073085D01*
X-116477242Y-96244791D01*
X-116513500Y-96427073D01*
X-123700635Y-96427073D01*
X-123740795Y-96225180D01*
X-123906146Y-95825988D01*
X-124146198Y-95466726D01*
X-124451726Y-95161198D01*
X-124810988Y-94921146D01*
X-125210180Y-94755795D01*
X-125633959Y-94671500D01*
X-126066041Y-94671500D01*
X-126489820Y-94755795D01*
X-126889012Y-94921146D01*
X-127248274Y-95161198D01*
X-127553802Y-95466726D01*
X-127793854Y-95825988D01*
X-127959205Y-96225180D01*
X-128043500Y-96648959D01*
X-135066500Y-96648959D01*
X-135066500Y-94507300D01*
X-134443500Y-94507300D01*
X-134443500Y-94722700D01*
X-134401477Y-94933962D01*
X-134319047Y-95132966D01*
X-134199377Y-95312066D01*
X-134047066Y-95464377D01*
X-133867966Y-95584047D01*
X-133668962Y-95666477D01*
X-133457700Y-95708500D01*
X-133242300Y-95708500D01*
X-133031038Y-95666477D01*
X-132832034Y-95584047D01*
X-132652934Y-95464377D01*
X-132500623Y-95312066D01*
X-132380953Y-95132966D01*
X-132298523Y-94933962D01*
X-132256500Y-94722700D01*
X-132256500Y-94512224D01*
X-110263500Y-94512224D01*
X-110263500Y-94717776D01*
X-110223399Y-94919378D01*
X-110144738Y-95109283D01*
X-110030539Y-95280192D01*
X-109885192Y-95425539D01*
X-109714283Y-95539738D01*
X-109524378Y-95618399D01*
X-109322776Y-95658500D01*
X-109117224Y-95658500D01*
X-108915622Y-95618399D01*
X-108725717Y-95539738D01*
X-108554808Y-95425539D01*
X-108409461Y-95280192D01*
X-108295262Y-95109283D01*
X-108216601Y-94919378D01*
X-108176500Y-94717776D01*
X-108176500Y-94512224D01*
X-108216601Y-94310622D01*
X-108295262Y-94120717D01*
X-108409461Y-93949808D01*
X-108554808Y-93804461D01*
X-108725717Y-93690262D01*
X-108915622Y-93611601D01*
X-109117224Y-93571500D01*
X-109322776Y-93571500D01*
X-109524378Y-93611601D01*
X-109714283Y-93690262D01*
X-109885192Y-93804461D01*
X-110030539Y-93949808D01*
X-110144738Y-94120717D01*
X-110223399Y-94310622D01*
X-110263500Y-94512224D01*
X-132256500Y-94512224D01*
X-132256500Y-94507300D01*
X-132298523Y-94296038D01*
X-132380953Y-94097034D01*
X-132381215Y-94096642D01*
X-130215837Y-91931264D01*
X-130203687Y-91921293D01*
X-130193713Y-91909140D01*
X-130163886Y-91872796D01*
X-130134311Y-91817465D01*
X-130127811Y-91796038D01*
X-130116098Y-91757427D01*
X-130111490Y-91710637D01*
X-130111490Y-91710627D01*
X-130109950Y-91694990D01*
X-130111490Y-91679353D01*
X-130111490Y-90427073D01*
X-116513500Y-90427073D01*
X-116513500Y-90612927D01*
X-116477242Y-90795209D01*
X-116406119Y-90966915D01*
X-116302864Y-91121446D01*
X-116171446Y-91252864D01*
X-116016915Y-91356119D01*
X-115845209Y-91427242D01*
X-115662927Y-91463500D01*
X-115477073Y-91463500D01*
X-115294791Y-91427242D01*
X-115123085Y-91356119D01*
X-114968554Y-91252864D01*
X-114837136Y-91121446D01*
X-114733881Y-90966915D01*
X-114662758Y-90795209D01*
X-114626500Y-90612927D01*
X-114626500Y-90427073D01*
X-114662758Y-90244791D01*
X-114733881Y-90073085D01*
X-114837136Y-89918554D01*
X-114968554Y-89787136D01*
X-115123085Y-89683881D01*
X-115294791Y-89612758D01*
X-115477073Y-89576500D01*
X-115662927Y-89576500D01*
X-115845209Y-89612758D01*
X-116016915Y-89683881D01*
X-116171446Y-89787136D01*
X-116302864Y-89918554D01*
X-116406119Y-90073085D01*
X-116477242Y-90244791D01*
X-116513500Y-90427073D01*
X-130111490Y-90427073D01*
X-130111490Y-87148959D01*
X-128043500Y-87148959D01*
X-128043500Y-87581041D01*
X-127959205Y-88004820D01*
X-127793854Y-88404012D01*
X-127553802Y-88763274D01*
X-127248274Y-89068802D01*
X-126889012Y-89308854D01*
X-126489820Y-89474205D01*
X-126066041Y-89558500D01*
X-125633959Y-89558500D01*
X-125210180Y-89474205D01*
X-124810988Y-89308854D01*
X-124451726Y-89068802D01*
X-124146198Y-88763274D01*
X-123906146Y-88404012D01*
X-123740795Y-88004820D01*
X-123656500Y-87581041D01*
X-123656500Y-87148959D01*
X-123740795Y-86725180D01*
X-123906146Y-86325988D01*
X-124146198Y-85966726D01*
X-124451726Y-85661198D01*
X-124810988Y-85421146D01*
X-125210180Y-85255795D01*
X-125633959Y-85171500D01*
X-126066041Y-85171500D01*
X-126489820Y-85255795D01*
X-126889012Y-85421146D01*
X-127248274Y-85661198D01*
X-127553802Y-85966726D01*
X-127793854Y-86325988D01*
X-127959205Y-86725180D01*
X-128043500Y-87148959D01*
X-130111490Y-87148959D01*
X-130111490Y-86120647D01*
X-130109950Y-86105010D01*
X-130111490Y-86089373D01*
X-130111490Y-86089363D01*
X-130116098Y-86042573D01*
X-130134311Y-85982536D01*
X-130148078Y-85956779D01*
X-130163886Y-85927204D01*
X-130193713Y-85890860D01*
X-130193715Y-85890858D01*
X-130203687Y-85878707D01*
X-130215838Y-85868735D01*
X-132141510Y-83943064D01*
X-132141510Y-79410000D01*
X-130969436Y-79410000D01*
X-130969436Y-80610000D01*
X-130965700Y-80647933D01*
X-130954635Y-80684407D01*
X-130936668Y-80718023D01*
X-130912487Y-80747487D01*
X-130883023Y-80771668D01*
X-130849407Y-80789635D01*
X-130812933Y-80800700D01*
X-130775000Y-80804436D01*
X-129575000Y-80804436D01*
X-129537067Y-80800700D01*
X-129500593Y-80789635D01*
X-129466977Y-80771668D01*
X-129437513Y-80747487D01*
X-129413332Y-80718023D01*
X-129395365Y-80684407D01*
X-129384300Y-80647933D01*
X-129380564Y-80610000D01*
X-129380564Y-80598857D01*
X-126833500Y-80598857D01*
X-126833500Y-80691143D01*
X-126815496Y-80781656D01*
X-126780179Y-80866918D01*
X-126728908Y-80943651D01*
X-126683499Y-80989060D01*
X-126683500Y-83475941D01*
X-126728908Y-83521349D01*
X-126780179Y-83598082D01*
X-126815496Y-83683344D01*
X-126833500Y-83773857D01*
X-126833500Y-83866143D01*
X-126815496Y-83956656D01*
X-126780179Y-84041918D01*
X-126728908Y-84118651D01*
X-126663651Y-84183908D01*
X-126586918Y-84235179D01*
X-126501656Y-84270496D01*
X-126411143Y-84288500D01*
X-126318857Y-84288500D01*
X-126228344Y-84270496D01*
X-126143082Y-84235179D01*
X-126066349Y-84183908D01*
X-126001092Y-84118651D01*
X-125949821Y-84041918D01*
X-125914504Y-83956656D01*
X-125896500Y-83866143D01*
X-125896500Y-83773857D01*
X-125914504Y-83683344D01*
X-125949821Y-83598082D01*
X-126001092Y-83521349D01*
X-126046500Y-83475941D01*
X-126046500Y-80989059D01*
X-126001092Y-80943651D01*
X-125949821Y-80866918D01*
X-125914504Y-80781656D01*
X-125896500Y-80691143D01*
X-125896500Y-80598857D01*
X-125914504Y-80508344D01*
X-125949821Y-80423082D01*
X-126001092Y-80346349D01*
X-126066349Y-80281092D01*
X-126143082Y-80229821D01*
X-126228344Y-80194504D01*
X-126318857Y-80176500D01*
X-126411143Y-80176500D01*
X-126501656Y-80194504D01*
X-126586918Y-80229821D01*
X-126663651Y-80281092D01*
X-126728908Y-80346349D01*
X-126780179Y-80423082D01*
X-126815496Y-80508344D01*
X-126833500Y-80598857D01*
X-129380564Y-80598857D01*
X-129380564Y-79410000D01*
X-129384300Y-79372067D01*
X-129395365Y-79335593D01*
X-129413332Y-79301977D01*
X-129437513Y-79272513D01*
X-129466977Y-79248332D01*
X-129500593Y-79230365D01*
X-129537067Y-79219300D01*
X-129575000Y-79215564D01*
X-129804868Y-79215564D01*
X-129799137Y-79213190D01*
X-129669173Y-79126351D01*
X-129558649Y-79015827D01*
X-129471810Y-78885863D01*
X-129411994Y-78741455D01*
X-129381500Y-78588153D01*
X-129381500Y-78431847D01*
X-129411994Y-78278545D01*
X-129471810Y-78134137D01*
X-129522110Y-78058857D01*
X-110323500Y-78058857D01*
X-110323500Y-78151143D01*
X-110305496Y-78241656D01*
X-110270179Y-78326918D01*
X-110218908Y-78403651D01*
X-110153651Y-78468908D01*
X-110076918Y-78520179D01*
X-109991656Y-78555496D01*
X-109901143Y-78573500D01*
X-109808857Y-78573500D01*
X-109718344Y-78555496D01*
X-109633082Y-78520179D01*
X-109556349Y-78468908D01*
X-109491092Y-78403651D01*
X-109439821Y-78326918D01*
X-109404504Y-78241656D01*
X-109386500Y-78151143D01*
X-109386500Y-78058857D01*
X-109404504Y-77968344D01*
X-109439821Y-77883082D01*
X-109491092Y-77806349D01*
X-109556349Y-77741092D01*
X-109633082Y-77689821D01*
X-109718344Y-77654504D01*
X-109808857Y-77636500D01*
X-109901143Y-77636500D01*
X-109991656Y-77654504D01*
X-110076918Y-77689821D01*
X-110153651Y-77741092D01*
X-110218908Y-77806349D01*
X-110270179Y-77883082D01*
X-110305496Y-77968344D01*
X-110323500Y-78058857D01*
X-129522110Y-78058857D01*
X-129558649Y-78004173D01*
X-129669173Y-77893649D01*
X-129799137Y-77806810D01*
X-129943545Y-77746994D01*
X-130096847Y-77716500D01*
X-130253153Y-77716500D01*
X-130406455Y-77746994D01*
X-130550863Y-77806810D01*
X-130680827Y-77893649D01*
X-130791351Y-78004173D01*
X-130878190Y-78134137D01*
X-130938006Y-78278545D01*
X-130968500Y-78431847D01*
X-130968500Y-78588153D01*
X-130938006Y-78741455D01*
X-130878190Y-78885863D01*
X-130791351Y-79015827D01*
X-130680827Y-79126351D01*
X-130550863Y-79213190D01*
X-130545132Y-79215564D01*
X-130775000Y-79215564D01*
X-130812933Y-79219300D01*
X-130849407Y-79230365D01*
X-130883023Y-79248332D01*
X-130912487Y-79272513D01*
X-130936668Y-79301977D01*
X-130954635Y-79335593D01*
X-130965700Y-79372067D01*
X-130969436Y-79410000D01*
X-132141510Y-79410000D01*
X-132141510Y-75441936D01*
X-132098074Y-75398500D01*
X-132033857Y-75398500D01*
X-131943344Y-75380496D01*
X-131858082Y-75345179D01*
X-131781349Y-75293908D01*
X-131716092Y-75228651D01*
X-131664821Y-75151918D01*
X-131629504Y-75066656D01*
X-131611500Y-74976143D01*
X-131611500Y-74883857D01*
X-131629504Y-74793344D01*
X-131664821Y-74708082D01*
X-131716092Y-74631349D01*
X-131781349Y-74566092D01*
X-131858082Y-74514821D01*
X-131943344Y-74479504D01*
X-132033857Y-74461500D01*
X-132126143Y-74461500D01*
X-132216656Y-74479504D01*
X-132301918Y-74514821D01*
X-132378651Y-74566092D01*
X-132443908Y-74631349D01*
X-132495179Y-74708082D01*
X-132530496Y-74793344D01*
X-132548500Y-74883857D01*
X-132548500Y-74948074D01*
X-132674161Y-75073735D01*
X-132686312Y-75083707D01*
X-132696284Y-75095858D01*
X-132696287Y-75095861D01*
X-132726114Y-75132205D01*
X-132736650Y-75151918D01*
X-132755688Y-75187536D01*
X-132772783Y-75243890D01*
X-132773901Y-75247574D01*
X-132780050Y-75310010D01*
X-132778509Y-75325657D01*
X-132778510Y-84059353D01*
X-132780050Y-84074990D01*
X-132778510Y-84090627D01*
X-132778510Y-84090636D01*
X-132773902Y-84137426D01*
X-132755689Y-84197463D01*
X-132755688Y-84197464D01*
X-132726114Y-84252795D01*
X-132711587Y-84270496D01*
X-132686313Y-84301293D01*
X-132674156Y-84311270D01*
X-130748489Y-86236938D01*
X-130748490Y-91563063D01*
X-132831642Y-93646215D01*
X-132832034Y-93645953D01*
X-133031038Y-93563523D01*
X-133242300Y-93521500D01*
X-133457700Y-93521500D01*
X-133668962Y-93563523D01*
X-133867966Y-93645953D01*
X-134047066Y-93765623D01*
X-134199377Y-93917934D01*
X-134319047Y-94097034D01*
X-134401477Y-94296038D01*
X-134443500Y-94507300D01*
X-135066500Y-94507300D01*
X-135066500Y-89507300D01*
X-134443500Y-89507300D01*
X-134443500Y-89722700D01*
X-134401477Y-89933962D01*
X-134319047Y-90132966D01*
X-134199377Y-90312066D01*
X-134047066Y-90464377D01*
X-133867966Y-90584047D01*
X-133668962Y-90666477D01*
X-133457700Y-90708500D01*
X-133242300Y-90708500D01*
X-133031038Y-90666477D01*
X-132832034Y-90584047D01*
X-132652934Y-90464377D01*
X-132500623Y-90312066D01*
X-132380953Y-90132966D01*
X-132298523Y-89933962D01*
X-132256500Y-89722700D01*
X-132256500Y-89507300D01*
X-132298523Y-89296038D01*
X-132380953Y-89097034D01*
X-132500623Y-88917934D01*
X-132652934Y-88765623D01*
X-132832034Y-88645953D01*
X-133031038Y-88563523D01*
X-133242300Y-88521500D01*
X-133457700Y-88521500D01*
X-133668962Y-88563523D01*
X-133867966Y-88645953D01*
X-134047066Y-88765623D01*
X-134199377Y-88917934D01*
X-134319047Y-89097034D01*
X-134401477Y-89296038D01*
X-134443500Y-89507300D01*
X-135066500Y-89507300D01*
X-135066500Y-78105000D01*
X-134940040Y-78105000D01*
X-134938499Y-78120647D01*
X-134938500Y-79994363D01*
X-134940040Y-80010000D01*
X-134938500Y-80025637D01*
X-134938500Y-80025646D01*
X-134933892Y-80072436D01*
X-134915679Y-80132473D01*
X-134915678Y-80132474D01*
X-134886104Y-80187805D01*
X-134880606Y-80194504D01*
X-134846303Y-80236303D01*
X-134834147Y-80246279D01*
X-133668499Y-81411928D01*
X-133668500Y-84439363D01*
X-133670040Y-84455000D01*
X-133668500Y-84470637D01*
X-133668500Y-84470646D01*
X-133663892Y-84517436D01*
X-133645679Y-84577473D01*
X-133645678Y-84577474D01*
X-133616104Y-84632805D01*
X-133593331Y-84660554D01*
X-133576303Y-84681303D01*
X-133564146Y-84691280D01*
X-131763499Y-86491928D01*
X-131763500Y-90038073D01*
X-132664152Y-90938726D01*
X-132676303Y-90948698D01*
X-132716105Y-90997196D01*
X-132745680Y-91052527D01*
X-132749044Y-91063618D01*
X-132831642Y-91146215D01*
X-132832034Y-91145953D01*
X-133031038Y-91063523D01*
X-133242300Y-91021500D01*
X-133457700Y-91021500D01*
X-133668962Y-91063523D01*
X-133867966Y-91145953D01*
X-134047066Y-91265623D01*
X-134199377Y-91417934D01*
X-134319047Y-91597034D01*
X-134401477Y-91796038D01*
X-134443500Y-92007300D01*
X-134443500Y-92222700D01*
X-134401477Y-92433962D01*
X-134319047Y-92632966D01*
X-134199377Y-92812066D01*
X-134047066Y-92964377D01*
X-133867966Y-93084047D01*
X-133668962Y-93166477D01*
X-133457700Y-93208500D01*
X-133242300Y-93208500D01*
X-133031038Y-93166477D01*
X-132832034Y-93084047D01*
X-132652934Y-92964377D01*
X-132500623Y-92812066D01*
X-132380953Y-92632966D01*
X-132298523Y-92433962D01*
X-132256500Y-92222700D01*
X-132256500Y-92007300D01*
X-132298523Y-91796038D01*
X-132380953Y-91597034D01*
X-132381215Y-91596642D01*
X-132235848Y-91451275D01*
X-132223698Y-91441304D01*
X-132213507Y-91428886D01*
X-132183897Y-91392807D01*
X-132168089Y-91363232D01*
X-132154322Y-91337475D01*
X-132150957Y-91326383D01*
X-131230847Y-90406274D01*
X-131218697Y-90396303D01*
X-131208723Y-90384150D01*
X-131178896Y-90347806D01*
X-131149322Y-90292475D01*
X-131149321Y-90292474D01*
X-131131108Y-90232437D01*
X-131126500Y-90185647D01*
X-131126500Y-90185638D01*
X-131124960Y-90170001D01*
X-131126500Y-90154364D01*
X-131126500Y-86375637D01*
X-131124960Y-86360000D01*
X-131126500Y-86344363D01*
X-131126500Y-86344353D01*
X-131131108Y-86297563D01*
X-131149321Y-86237526D01*
X-131163088Y-86211769D01*
X-131178896Y-86182194D01*
X-131208723Y-86145850D01*
X-131208725Y-86145848D01*
X-131218697Y-86133697D01*
X-131230848Y-86123725D01*
X-133031500Y-84323074D01*
X-133031500Y-81295634D01*
X-133029960Y-81279999D01*
X-133031500Y-81264365D01*
X-133031500Y-81264353D01*
X-133036108Y-81217563D01*
X-133054321Y-81157526D01*
X-133082393Y-81105006D01*
X-133083896Y-81102194D01*
X-133113723Y-81065850D01*
X-133113725Y-81065848D01*
X-133123697Y-81053697D01*
X-133135848Y-81043725D01*
X-134301500Y-79878074D01*
X-134301500Y-78236926D01*
X-133135847Y-77071274D01*
X-133123697Y-77061303D01*
X-133113723Y-77049150D01*
X-133083896Y-77012806D01*
X-133068088Y-76983231D01*
X-133054321Y-76957474D01*
X-133036108Y-76897437D01*
X-133031500Y-76850647D01*
X-133031500Y-76850635D01*
X-133029960Y-76835001D01*
X-133031500Y-76819366D01*
X-133031500Y-75061926D01*
X-131948073Y-73978500D01*
X-129671926Y-73978500D01*
X-128588500Y-75061927D01*
X-128588499Y-76490940D01*
X-128633908Y-76536349D01*
X-128685179Y-76613082D01*
X-128720496Y-76698344D01*
X-128738500Y-76788857D01*
X-128738500Y-76881143D01*
X-128720496Y-76971656D01*
X-128685179Y-77056918D01*
X-128633908Y-77133651D01*
X-128568651Y-77198908D01*
X-128491918Y-77250179D01*
X-128406656Y-77285496D01*
X-128316143Y-77303500D01*
X-128223857Y-77303500D01*
X-128133344Y-77285496D01*
X-128048082Y-77250179D01*
X-127971349Y-77198908D01*
X-127906092Y-77133651D01*
X-127854821Y-77056918D01*
X-127819504Y-76971656D01*
X-127801500Y-76881143D01*
X-127801500Y-76788857D01*
X-127819504Y-76698344D01*
X-127854821Y-76613082D01*
X-127906092Y-76536349D01*
X-127951500Y-76490941D01*
X-127951500Y-76141545D01*
X-117433500Y-76141545D01*
X-117433500Y-76258455D01*
X-117410692Y-76373118D01*
X-117365953Y-76481128D01*
X-117301002Y-76578334D01*
X-117218334Y-76661002D01*
X-117121128Y-76725953D01*
X-117013118Y-76770692D01*
X-116898455Y-76793500D01*
X-116781545Y-76793500D01*
X-116666882Y-76770692D01*
X-116558872Y-76725953D01*
X-116461666Y-76661002D01*
X-116378998Y-76578334D01*
X-116314047Y-76481128D01*
X-116269308Y-76373118D01*
X-116246500Y-76258455D01*
X-116246500Y-76141545D01*
X-116269308Y-76026882D01*
X-116314047Y-75918872D01*
X-116378998Y-75821666D01*
X-116461666Y-75738998D01*
X-116558872Y-75674047D01*
X-116666882Y-75629308D01*
X-116781545Y-75606500D01*
X-116898455Y-75606500D01*
X-117013118Y-75629308D01*
X-117121128Y-75674047D01*
X-117218334Y-75738998D01*
X-117301002Y-75821666D01*
X-117365953Y-75918872D01*
X-117410692Y-76026882D01*
X-117433500Y-76141545D01*
X-127951500Y-76141545D01*
X-127951500Y-74945634D01*
X-127949960Y-74929999D01*
X-127951500Y-74914365D01*
X-127951500Y-74914353D01*
X-127955715Y-74871545D01*
X-126958500Y-74871545D01*
X-126958500Y-74988455D01*
X-126935692Y-75103118D01*
X-126890953Y-75211128D01*
X-126826002Y-75308334D01*
X-126743334Y-75391002D01*
X-126646128Y-75455953D01*
X-126538118Y-75500692D01*
X-126423455Y-75523500D01*
X-126306545Y-75523500D01*
X-126191882Y-75500692D01*
X-126083872Y-75455953D01*
X-125986666Y-75391002D01*
X-125903998Y-75308334D01*
X-125839047Y-75211128D01*
X-125794308Y-75103118D01*
X-125771500Y-74988455D01*
X-125771500Y-74871545D01*
X-125794308Y-74756882D01*
X-125839047Y-74648872D01*
X-125903998Y-74551666D01*
X-125986666Y-74468998D01*
X-126083872Y-74404047D01*
X-126191882Y-74359308D01*
X-126306545Y-74336500D01*
X-126423455Y-74336500D01*
X-126538118Y-74359308D01*
X-126646128Y-74404047D01*
X-126743334Y-74468998D01*
X-126826002Y-74551666D01*
X-126890953Y-74648872D01*
X-126935692Y-74756882D01*
X-126958500Y-74871545D01*
X-127955715Y-74871545D01*
X-127956108Y-74867563D01*
X-127974321Y-74807526D01*
X-127988088Y-74781769D01*
X-128003896Y-74752194D01*
X-128033723Y-74715850D01*
X-128033725Y-74715848D01*
X-128043697Y-74703697D01*
X-128055847Y-74693726D01*
X-129303721Y-73445853D01*
X-129313697Y-73433697D01*
X-129362195Y-73393896D01*
X-129417526Y-73364321D01*
X-129477563Y-73346108D01*
X-129524353Y-73341500D01*
X-129524363Y-73341500D01*
X-129540000Y-73339960D01*
X-129555637Y-73341500D01*
X-132064366Y-73341500D01*
X-132080001Y-73339960D01*
X-132095635Y-73341500D01*
X-132095647Y-73341500D01*
X-132142437Y-73346108D01*
X-132202474Y-73364321D01*
X-132228231Y-73378088D01*
X-132257806Y-73393896D01*
X-132294150Y-73423723D01*
X-132306303Y-73433697D01*
X-132316275Y-73445848D01*
X-133564149Y-74693723D01*
X-133576302Y-74703697D01*
X-133586274Y-74715848D01*
X-133586277Y-74715851D01*
X-133616104Y-74752195D01*
X-133645678Y-74807526D01*
X-133663891Y-74867564D01*
X-133670040Y-74930000D01*
X-133668499Y-74945647D01*
X-133668500Y-76703073D01*
X-134834151Y-77868725D01*
X-134846302Y-77878697D01*
X-134856274Y-77890848D01*
X-134856277Y-77890851D01*
X-134886104Y-77927195D01*
X-134915678Y-77982526D01*
X-134933891Y-78042564D01*
X-134940040Y-78105000D01*
X-135066500Y-78105000D01*
X-135066500Y-72978857D01*
X-111593500Y-72978857D01*
X-111593500Y-73071143D01*
X-111575496Y-73161656D01*
X-111540179Y-73246918D01*
X-111488908Y-73323651D01*
X-111423651Y-73388908D01*
X-111346918Y-73440179D01*
X-111261656Y-73475496D01*
X-111171143Y-73493500D01*
X-111078857Y-73493500D01*
X-110988344Y-73475496D01*
X-110903082Y-73440179D01*
X-110826349Y-73388908D01*
X-110761092Y-73323651D01*
X-110709821Y-73246918D01*
X-110674504Y-73161656D01*
X-110656500Y-73071143D01*
X-110656500Y-72978857D01*
X-110674504Y-72888344D01*
X-110709821Y-72803082D01*
X-110761092Y-72726349D01*
X-110826349Y-72661092D01*
X-110903082Y-72609821D01*
X-110988344Y-72574504D01*
X-111078857Y-72556500D01*
X-111171143Y-72556500D01*
X-111261656Y-72574504D01*
X-111346918Y-72609821D01*
X-111423651Y-72661092D01*
X-111488908Y-72726349D01*
X-111540179Y-72803082D01*
X-111575496Y-72888344D01*
X-111593500Y-72978857D01*
X-135066500Y-72978857D01*
X-135066500Y-70426545D01*
X-130133500Y-70426545D01*
X-130133500Y-70543455D01*
X-130110692Y-70658118D01*
X-130065953Y-70766128D01*
X-130001002Y-70863334D01*
X-129918334Y-70946002D01*
X-129821128Y-71010953D01*
X-129713118Y-71055692D01*
X-129598455Y-71078500D01*
X-129481545Y-71078500D01*
X-129366882Y-71055692D01*
X-129258872Y-71010953D01*
X-129161666Y-70946002D01*
X-129078998Y-70863334D01*
X-129014047Y-70766128D01*
X-128969308Y-70658118D01*
X-128946500Y-70543455D01*
X-128946500Y-70426545D01*
X-128969308Y-70311882D01*
X-129014047Y-70203872D01*
X-129078998Y-70106666D01*
X-129161666Y-70023998D01*
X-129258872Y-69959047D01*
X-129366882Y-69914308D01*
X-129481545Y-69891500D01*
X-129598455Y-69891500D01*
X-129713118Y-69914308D01*
X-129821128Y-69959047D01*
X-129918334Y-70023998D01*
X-130001002Y-70106666D01*
X-130065953Y-70203872D01*
X-130110692Y-70311882D01*
X-130133500Y-70426545D01*
X-135066500Y-70426545D01*
X-135066500Y-64088857D01*
X-131278500Y-64088857D01*
X-131278500Y-64181143D01*
X-131260496Y-64271656D01*
X-131225179Y-64356918D01*
X-131173908Y-64433651D01*
X-131128500Y-64479059D01*
X-131128499Y-66892520D01*
X-131129302Y-66893323D01*
X-131180573Y-66970056D01*
X-131215890Y-67055318D01*
X-131233894Y-67145831D01*
X-131233894Y-67238117D01*
X-131215890Y-67328630D01*
X-131180573Y-67413892D01*
X-131129302Y-67490625D01*
X-131064045Y-67555882D01*
X-130987312Y-67607153D01*
X-130902050Y-67642470D01*
X-130811537Y-67660474D01*
X-130719251Y-67660474D01*
X-130628738Y-67642470D01*
X-130543476Y-67607153D01*
X-130466743Y-67555882D01*
X-130401486Y-67490625D01*
X-130350215Y-67413892D01*
X-130314898Y-67328630D01*
X-130296894Y-67238117D01*
X-130296894Y-67145831D01*
X-130314898Y-67055318D01*
X-130350215Y-66970056D01*
X-130401486Y-66893323D01*
X-130466743Y-66828066D01*
X-130491500Y-66811524D01*
X-130491500Y-66710000D01*
X-122968436Y-66710000D01*
X-122968436Y-67910000D01*
X-122964700Y-67947933D01*
X-122953635Y-67984407D01*
X-122935668Y-68018023D01*
X-122911487Y-68047487D01*
X-122882023Y-68071668D01*
X-122848407Y-68089635D01*
X-122811933Y-68100700D01*
X-122774000Y-68104436D01*
X-121574000Y-68104436D01*
X-121536067Y-68100700D01*
X-121499593Y-68089635D01*
X-121465977Y-68071668D01*
X-121436513Y-68047487D01*
X-121412332Y-68018023D01*
X-121394365Y-67984407D01*
X-121383300Y-67947933D01*
X-121379564Y-67910000D01*
X-121379564Y-66710000D01*
X-121383300Y-66672067D01*
X-121394365Y-66635593D01*
X-121412332Y-66601977D01*
X-121436513Y-66572513D01*
X-121465977Y-66548332D01*
X-121499593Y-66530365D01*
X-121536067Y-66519300D01*
X-121574000Y-66515564D01*
X-121803868Y-66515564D01*
X-121798137Y-66513190D01*
X-121668173Y-66426351D01*
X-121557649Y-66315827D01*
X-121470810Y-66185863D01*
X-121410994Y-66041455D01*
X-121380500Y-65888153D01*
X-121380500Y-65731847D01*
X-121410994Y-65578545D01*
X-121470810Y-65434137D01*
X-121529336Y-65346545D01*
X-118068500Y-65346545D01*
X-118068500Y-65463455D01*
X-118045692Y-65578118D01*
X-118000953Y-65686128D01*
X-117936002Y-65783334D01*
X-117853334Y-65866002D01*
X-117756128Y-65930953D01*
X-117648118Y-65975692D01*
X-117533455Y-65998500D01*
X-117416545Y-65998500D01*
X-117301882Y-65975692D01*
X-117193872Y-65930953D01*
X-117096666Y-65866002D01*
X-117013998Y-65783334D01*
X-116949047Y-65686128D01*
X-116904308Y-65578118D01*
X-116881500Y-65463455D01*
X-116881500Y-65346545D01*
X-116904308Y-65231882D01*
X-116949047Y-65123872D01*
X-117013998Y-65026666D01*
X-117096666Y-64943998D01*
X-117193872Y-64879047D01*
X-117301882Y-64834308D01*
X-117416545Y-64811500D01*
X-117533455Y-64811500D01*
X-117648118Y-64834308D01*
X-117756128Y-64879047D01*
X-117853334Y-64943998D01*
X-117936002Y-65026666D01*
X-118000953Y-65123872D01*
X-118045692Y-65231882D01*
X-118068500Y-65346545D01*
X-121529336Y-65346545D01*
X-121557649Y-65304173D01*
X-121668173Y-65193649D01*
X-121798137Y-65106810D01*
X-121942545Y-65046994D01*
X-122095847Y-65016500D01*
X-122252153Y-65016500D01*
X-122405455Y-65046994D01*
X-122549863Y-65106810D01*
X-122679827Y-65193649D01*
X-122790351Y-65304173D01*
X-122877190Y-65434137D01*
X-122937006Y-65578545D01*
X-122967500Y-65731847D01*
X-122967500Y-65888153D01*
X-122937006Y-66041455D01*
X-122877190Y-66185863D01*
X-122790351Y-66315827D01*
X-122679827Y-66426351D01*
X-122549863Y-66513190D01*
X-122544132Y-66515564D01*
X-122774000Y-66515564D01*
X-122811933Y-66519300D01*
X-122848407Y-66530365D01*
X-122882023Y-66548332D01*
X-122911487Y-66572513D01*
X-122935668Y-66601977D01*
X-122953635Y-66635593D01*
X-122964700Y-66672067D01*
X-122968436Y-66710000D01*
X-130491500Y-66710000D01*
X-130491500Y-64479059D01*
X-130446092Y-64433651D01*
X-130394821Y-64356918D01*
X-130359504Y-64271656D01*
X-130341500Y-64181143D01*
X-130341500Y-64088857D01*
X-130359504Y-63998344D01*
X-130394821Y-63913082D01*
X-130446092Y-63836349D01*
X-130511349Y-63771092D01*
X-130588082Y-63719821D01*
X-130673344Y-63684504D01*
X-130763857Y-63666500D01*
X-130856143Y-63666500D01*
X-130946656Y-63684504D01*
X-131031918Y-63719821D01*
X-131108651Y-63771092D01*
X-131173908Y-63836349D01*
X-131225179Y-63913082D01*
X-131260496Y-63998344D01*
X-131278500Y-64088857D01*
X-135066500Y-64088857D01*
X-135066500Y-63441545D01*
X-113623500Y-63441545D01*
X-113623500Y-63558455D01*
X-113600692Y-63673118D01*
X-113555953Y-63781128D01*
X-113491002Y-63878334D01*
X-113408334Y-63961002D01*
X-113311128Y-64025953D01*
X-113203118Y-64070692D01*
X-113088455Y-64093500D01*
X-112971545Y-64093500D01*
X-112856882Y-64070692D01*
X-112748872Y-64025953D01*
X-112651666Y-63961002D01*
X-112568998Y-63878334D01*
X-112504047Y-63781128D01*
X-112459308Y-63673118D01*
X-112436500Y-63558455D01*
X-112436500Y-63441545D01*
X-112459308Y-63326882D01*
X-112504047Y-63218872D01*
X-112568998Y-63121666D01*
X-112651666Y-63038998D01*
X-112748872Y-62974047D01*
X-112856882Y-62929308D01*
X-112971545Y-62906500D01*
X-113088455Y-62906500D01*
X-113203118Y-62929308D01*
X-113311128Y-62974047D01*
X-113408334Y-63038998D01*
X-113491002Y-63121666D01*
X-113555953Y-63218872D01*
X-113600692Y-63326882D01*
X-113623500Y-63441545D01*
X-135066500Y-63441545D01*
X-135066500Y-55821545D01*
X-123783500Y-55821545D01*
X-123783500Y-55938455D01*
X-123760692Y-56053118D01*
X-123715953Y-56161128D01*
X-123651002Y-56258334D01*
X-123568334Y-56341002D01*
X-123471128Y-56405953D01*
X-123363118Y-56450692D01*
X-123248455Y-56473500D01*
X-123131545Y-56473500D01*
X-123016882Y-56450692D01*
X-122908872Y-56405953D01*
X-122811666Y-56341002D01*
X-122728998Y-56258334D01*
X-122689018Y-56198500D01*
X-117340585Y-56198500D01*
X-117324948Y-56200040D01*
X-117309311Y-56198500D01*
X-117309301Y-56198500D01*
X-117262511Y-56193892D01*
X-117202474Y-56175679D01*
X-117147143Y-56146104D01*
X-117098645Y-56106303D01*
X-117088668Y-56094146D01*
X-114913982Y-53919461D01*
X-114843403Y-53933500D01*
X-114726493Y-53933500D01*
X-114611830Y-53910692D01*
X-114503820Y-53865953D01*
X-114406614Y-53801002D01*
X-114323946Y-53718334D01*
X-114258995Y-53621128D01*
X-114214256Y-53513118D01*
X-114191448Y-53398455D01*
X-114191448Y-53281545D01*
X-114214256Y-53166882D01*
X-114258995Y-53058872D01*
X-114323946Y-52961666D01*
X-114406614Y-52878998D01*
X-114503820Y-52814047D01*
X-114611830Y-52769308D01*
X-114726493Y-52746500D01*
X-114843403Y-52746500D01*
X-114958066Y-52769308D01*
X-115066076Y-52814047D01*
X-115163282Y-52878998D01*
X-115245950Y-52961666D01*
X-115310901Y-53058872D01*
X-115355640Y-53166882D01*
X-115378448Y-53281545D01*
X-115378448Y-53398455D01*
X-115364409Y-53469034D01*
X-117456874Y-55561500D01*
X-122689018Y-55561500D01*
X-122728998Y-55501666D01*
X-122811666Y-55418998D01*
X-122908872Y-55354047D01*
X-123016882Y-55309308D01*
X-123131545Y-55286500D01*
X-123248455Y-55286500D01*
X-123363118Y-55309308D01*
X-123471128Y-55354047D01*
X-123568334Y-55418998D01*
X-123651002Y-55501666D01*
X-123715953Y-55598872D01*
X-123760692Y-55706882D01*
X-123783500Y-55821545D01*
X-135066500Y-55821545D01*
X-135066500Y-52011545D01*
X-132038500Y-52011545D01*
X-132038500Y-52128455D01*
X-132015692Y-52243118D01*
X-131970953Y-52351128D01*
X-131906002Y-52448334D01*
X-131823334Y-52531002D01*
X-131726128Y-52595953D01*
X-131618118Y-52640692D01*
X-131503455Y-52663500D01*
X-131386545Y-52663500D01*
X-131271882Y-52640692D01*
X-131163872Y-52595953D01*
X-131066666Y-52531002D01*
X-130983998Y-52448334D01*
X-130919047Y-52351128D01*
X-130874308Y-52243118D01*
X-130851500Y-52128455D01*
X-130851500Y-52011545D01*
X-123783500Y-52011545D01*
X-123783500Y-52128455D01*
X-123760692Y-52243118D01*
X-123715953Y-52351128D01*
X-123651002Y-52448334D01*
X-123568334Y-52531002D01*
X-123471128Y-52595953D01*
X-123363118Y-52640692D01*
X-123248455Y-52663500D01*
X-123131545Y-52663500D01*
X-123046307Y-52646545D01*
X-110448500Y-52646545D01*
X-110448500Y-52763455D01*
X-110425692Y-52878118D01*
X-110380953Y-52986128D01*
X-110316002Y-53083334D01*
X-110233334Y-53166002D01*
X-110136128Y-53230953D01*
X-110028118Y-53275692D01*
X-109913455Y-53298500D01*
X-109796545Y-53298500D01*
X-109681882Y-53275692D01*
X-109573872Y-53230953D01*
X-109476666Y-53166002D01*
X-109393998Y-53083334D01*
X-109329047Y-52986128D01*
X-109284308Y-52878118D01*
X-109261500Y-52763455D01*
X-109261500Y-52646545D01*
X-109284308Y-52531882D01*
X-109329047Y-52423872D01*
X-109393998Y-52326666D01*
X-109476666Y-52243998D01*
X-109573872Y-52179047D01*
X-109681882Y-52134308D01*
X-109796545Y-52111500D01*
X-109913455Y-52111500D01*
X-110028118Y-52134308D01*
X-110136128Y-52179047D01*
X-110233334Y-52243998D01*
X-110316002Y-52326666D01*
X-110380953Y-52423872D01*
X-110425692Y-52531882D01*
X-110448500Y-52646545D01*
X-123046307Y-52646545D01*
X-123016882Y-52640692D01*
X-122908872Y-52595953D01*
X-122811666Y-52531002D01*
X-122728998Y-52448334D01*
X-122664047Y-52351128D01*
X-122619308Y-52243118D01*
X-122596500Y-52128455D01*
X-122596500Y-52011545D01*
X-122619308Y-51896882D01*
X-122664047Y-51788872D01*
X-122728998Y-51691666D01*
X-122811666Y-51608998D01*
X-122908872Y-51544047D01*
X-123016882Y-51499308D01*
X-123131545Y-51476500D01*
X-123248455Y-51476500D01*
X-123363118Y-51499308D01*
X-123471128Y-51544047D01*
X-123568334Y-51608998D01*
X-123651002Y-51691666D01*
X-123715953Y-51788872D01*
X-123760692Y-51896882D01*
X-123783500Y-52011545D01*
X-130851500Y-52011545D01*
X-130874308Y-51896882D01*
X-130919047Y-51788872D01*
X-130983998Y-51691666D01*
X-131066666Y-51608998D01*
X-131163872Y-51544047D01*
X-131271882Y-51499308D01*
X-131386545Y-51476500D01*
X-131503455Y-51476500D01*
X-131618118Y-51499308D01*
X-131726128Y-51544047D01*
X-131823334Y-51608998D01*
X-131906002Y-51691666D01*
X-131970953Y-51788872D01*
X-132015692Y-51896882D01*
X-132038500Y-52011545D01*
X-135066500Y-52011545D01*
X-135066500Y-46296545D01*
X-132673500Y-46296545D01*
X-132673500Y-46413455D01*
X-132650692Y-46528118D01*
X-132605953Y-46636128D01*
X-132541002Y-46733334D01*
X-132458334Y-46816002D01*
X-132361128Y-46880953D01*
X-132253118Y-46925692D01*
X-132138455Y-46948500D01*
X-132021545Y-46948500D01*
X-131998204Y-46943857D01*
X-130008500Y-46943857D01*
X-130008500Y-47036143D01*
X-129990496Y-47126656D01*
X-129955179Y-47211918D01*
X-129903908Y-47288651D01*
X-129858499Y-47334060D01*
X-129858500Y-51090941D01*
X-129903908Y-51136349D01*
X-129955179Y-51213082D01*
X-129990496Y-51298344D01*
X-130008500Y-51388857D01*
X-130008500Y-51481143D01*
X-129990496Y-51571656D01*
X-129955179Y-51656918D01*
X-129903908Y-51733651D01*
X-129838651Y-51798908D01*
X-129761918Y-51850179D01*
X-129676656Y-51885496D01*
X-129586143Y-51903500D01*
X-129493857Y-51903500D01*
X-129403344Y-51885496D01*
X-129318082Y-51850179D01*
X-129241349Y-51798908D01*
X-129176092Y-51733651D01*
X-129124821Y-51656918D01*
X-129089504Y-51571656D01*
X-129071500Y-51481143D01*
X-129071500Y-51388857D01*
X-129089504Y-51298344D01*
X-129124821Y-51213082D01*
X-129176092Y-51136349D01*
X-129221500Y-51090941D01*
X-129221500Y-50741545D01*
X-125688500Y-50741545D01*
X-125688500Y-50858455D01*
X-125665692Y-50973118D01*
X-125620953Y-51081128D01*
X-125556002Y-51178334D01*
X-125473334Y-51261002D01*
X-125376128Y-51325953D01*
X-125268118Y-51370692D01*
X-125153455Y-51393500D01*
X-125036545Y-51393500D01*
X-124921882Y-51370692D01*
X-124813872Y-51325953D01*
X-124716666Y-51261002D01*
X-124633998Y-51178334D01*
X-124569047Y-51081128D01*
X-124524308Y-50973118D01*
X-124501500Y-50858455D01*
X-124501500Y-50741545D01*
X-124524308Y-50626882D01*
X-124569047Y-50518872D01*
X-124633998Y-50421666D01*
X-124716666Y-50338998D01*
X-124813872Y-50274047D01*
X-124921882Y-50229308D01*
X-125036545Y-50206500D01*
X-125153455Y-50206500D01*
X-125268118Y-50229308D01*
X-125376128Y-50274047D01*
X-125473334Y-50338998D01*
X-125556002Y-50421666D01*
X-125620953Y-50518872D01*
X-125665692Y-50626882D01*
X-125688500Y-50741545D01*
X-129221500Y-50741545D01*
X-129221500Y-47334059D01*
X-129176092Y-47288651D01*
X-129124821Y-47211918D01*
X-129089504Y-47126656D01*
X-129071500Y-47036143D01*
X-129071500Y-46943857D01*
X-129089504Y-46853344D01*
X-129124821Y-46768082D01*
X-129176092Y-46691349D01*
X-129241349Y-46626092D01*
X-129318082Y-46574821D01*
X-129403344Y-46539504D01*
X-129493857Y-46521500D01*
X-129586143Y-46521500D01*
X-129676656Y-46539504D01*
X-129761918Y-46574821D01*
X-129838651Y-46626092D01*
X-129903908Y-46691349D01*
X-129955179Y-46768082D01*
X-129990496Y-46853344D01*
X-130008500Y-46943857D01*
X-131998204Y-46943857D01*
X-131906882Y-46925692D01*
X-131798872Y-46880953D01*
X-131701666Y-46816002D01*
X-131618998Y-46733334D01*
X-131554047Y-46636128D01*
X-131509308Y-46528118D01*
X-131486500Y-46413455D01*
X-131486500Y-46296545D01*
X-131509308Y-46181882D01*
X-131554047Y-46073872D01*
X-131618998Y-45976666D01*
X-131701666Y-45893998D01*
X-131798872Y-45829047D01*
X-131906882Y-45784308D01*
X-132021545Y-45761500D01*
X-132138455Y-45761500D01*
X-132253118Y-45784308D01*
X-132361128Y-45829047D01*
X-132458334Y-45893998D01*
X-132541002Y-45976666D01*
X-132605953Y-46073872D01*
X-132650692Y-46181882D01*
X-132673500Y-46296545D01*
X-135066500Y-46296545D01*
X-135066500Y-43243500D01*
X-131955061Y-43243500D01*
X-131940509Y-43316656D01*
G36*
X-108268500Y-45216927D02*
G01*
X-108268500Y-46319046D01*
X-108271108Y-46292563D01*
X-108288581Y-46234964D01*
X-108289321Y-46232525D01*
X-108318895Y-46177194D01*
X-108348723Y-46140850D01*
X-108348725Y-46140848D01*
X-108358697Y-46128697D01*
X-108370847Y-46118726D01*
X-108983721Y-45505853D01*
X-108993697Y-45493697D01*
X-109042195Y-45453896D01*
X-109097526Y-45424321D01*
X-109157563Y-45406108D01*
X-109204353Y-45401500D01*
X-109204363Y-45401500D01*
X-109220000Y-45399960D01*
X-109235637Y-45401500D01*
X-112898073Y-45401500D01*
X-114063721Y-44235853D01*
X-114073697Y-44223697D01*
X-114122195Y-44183896D01*
X-114177526Y-44154321D01*
X-114237563Y-44136108D01*
X-114284353Y-44131500D01*
X-114284363Y-44131500D01*
X-114300000Y-44129960D01*
X-114315637Y-44131500D01*
X-120303941Y-44131500D01*
X-120286092Y-44113651D01*
X-120259263Y-44073498D01*
X-109411928Y-44073498D01*
X-108268500Y-45216927D01*
G37*
X-108268500Y-45216927D02*
X-108268500Y-46319046D01*
X-108271108Y-46292563D01*
X-108288581Y-46234964D01*
X-108289321Y-46232525D01*
X-108318895Y-46177194D01*
X-108348723Y-46140850D01*
X-108348725Y-46140848D01*
X-108358697Y-46128697D01*
X-108370847Y-46118726D01*
X-108983721Y-45505853D01*
X-108993697Y-45493697D01*
X-109042195Y-45453896D01*
X-109097526Y-45424321D01*
X-109157563Y-45406108D01*
X-109204353Y-45401500D01*
X-109204363Y-45401500D01*
X-109220000Y-45399960D01*
X-109235637Y-45401500D01*
X-112898073Y-45401500D01*
X-114063721Y-44235853D01*
X-114073697Y-44223697D01*
X-114122195Y-44183896D01*
X-114177526Y-44154321D01*
X-114237563Y-44136108D01*
X-114284353Y-44131500D01*
X-114284363Y-44131500D01*
X-114300000Y-44129960D01*
X-114315637Y-44131500D01*
X-120303941Y-44131500D01*
X-120286092Y-44113651D01*
X-120259263Y-44073498D01*
X-109411928Y-44073498D01*
X-108268500Y-45216927D01*
%TD*%
M02*
