%TF.GenerationSoftware,KiCad,Pcbnew,(5.1.5)-3*%
%TF.CreationDate,2020-11-01T10:25:43+01:00*%
%TF.ProjectId,PmodADC,506d6f64-4144-4432-9e6b-696361645f70,v0.2*%
%TF.SameCoordinates,Original*%
%TF.FileFunction,Legend,Top*%
%TF.FilePolarity,Positive*%
%FSLAX46Y46*%
G04 Gerber Fmt 4.6, Leading zero omitted, Abs format (unit mm)*
G04 Created by KiCad (PCBNEW (5.1.5)-3) date 2020-11-01 10:25:43*
%MOMM*%
%LPD*%
G04 APERTURE LIST*
%ADD10C,0.120000*%
%ADD11C,0.300000*%
G04 APERTURE END LIST*
D10*
X-109220000Y-92710000D02*
X-109220000Y-91440000D01*
X-107950000Y-91440000D02*
X-109220000Y-92710000D01*
X-109220000Y-90170000D02*
X-107950000Y-91440000D01*
X-109220000Y-91440000D02*
X-109220000Y-90170000D01*
X-110490000Y-91440000D02*
X-109220000Y-91440000D01*
D11*
X-108645476Y-89474523D02*
X-109915476Y-89474523D01*
X-109492142Y-88869761D02*
X-108645476Y-88869761D01*
X-109371190Y-88869761D02*
X-109431666Y-88809285D01*
X-109492142Y-88688333D01*
X-109492142Y-88506904D01*
X-109431666Y-88385952D01*
X-109310714Y-88325476D01*
X-108645476Y-88325476D01*
X-119663428Y-86285285D02*
X-119663428Y-84485285D01*
X-118977714Y-84485285D01*
X-118806285Y-84571000D01*
X-118720571Y-84656714D01*
X-118634857Y-84828142D01*
X-118634857Y-85085285D01*
X-118720571Y-85256714D01*
X-118806285Y-85342428D01*
X-118977714Y-85428142D01*
X-119663428Y-85428142D01*
X-117863428Y-86285285D02*
X-117863428Y-85085285D01*
X-117863428Y-85256714D02*
X-117777714Y-85171000D01*
X-117606285Y-85085285D01*
X-117349142Y-85085285D01*
X-117177714Y-85171000D01*
X-117092000Y-85342428D01*
X-117092000Y-86285285D01*
X-117092000Y-85342428D02*
X-117006285Y-85171000D01*
X-116834857Y-85085285D01*
X-116577714Y-85085285D01*
X-116406285Y-85171000D01*
X-116320571Y-85342428D01*
X-116320571Y-86285285D01*
X-115206285Y-86285285D02*
X-115377714Y-86199571D01*
X-115463428Y-86113857D01*
X-115549142Y-85942428D01*
X-115549142Y-85428142D01*
X-115463428Y-85256714D01*
X-115377714Y-85171000D01*
X-115206285Y-85085285D01*
X-114949142Y-85085285D01*
X-114777714Y-85171000D01*
X-114692000Y-85256714D01*
X-114606285Y-85428142D01*
X-114606285Y-85942428D01*
X-114692000Y-86113857D01*
X-114777714Y-86199571D01*
X-114949142Y-86285285D01*
X-115206285Y-86285285D01*
X-113063428Y-86285285D02*
X-113063428Y-84485285D01*
X-113063428Y-86199571D02*
X-113234857Y-86285285D01*
X-113577714Y-86285285D01*
X-113749142Y-86199571D01*
X-113834857Y-86113857D01*
X-113920571Y-85942428D01*
X-113920571Y-85428142D01*
X-113834857Y-85256714D01*
X-113749142Y-85171000D01*
X-113577714Y-85085285D01*
X-113234857Y-85085285D01*
X-113063428Y-85171000D01*
X-112292000Y-85771000D02*
X-111434857Y-85771000D01*
X-112463428Y-86285285D02*
X-111863428Y-84485285D01*
X-111263428Y-86285285D01*
X-110663428Y-86285285D02*
X-110663428Y-84485285D01*
X-110234857Y-84485285D01*
X-109977714Y-84571000D01*
X-109806285Y-84742428D01*
X-109720571Y-84913857D01*
X-109634857Y-85256714D01*
X-109634857Y-85513857D01*
X-109720571Y-85856714D01*
X-109806285Y-86028142D01*
X-109977714Y-86199571D01*
X-110234857Y-86285285D01*
X-110663428Y-86285285D01*
X-107834857Y-86113857D02*
X-107920571Y-86199571D01*
X-108177714Y-86285285D01*
X-108349142Y-86285285D01*
X-108606285Y-86199571D01*
X-108777714Y-86028142D01*
X-108863428Y-85856714D01*
X-108949142Y-85513857D01*
X-108949142Y-85256714D01*
X-108863428Y-84913857D01*
X-108777714Y-84742428D01*
X-108606285Y-84571000D01*
X-108349142Y-84485285D01*
X-108177714Y-84485285D01*
X-107920571Y-84571000D01*
X-107834857Y-84656714D01*
D10*
%TO.C,TP9*%
X-123125000Y-80645000D02*
G75*
G03X-123125000Y-80645000I-700000J0D01*
G01*
%TO.C,U20*%
X-127675000Y-39140000D02*
X-128050000Y-39140000D01*
X-127675000Y-40015000D02*
X-127675000Y-39140000D01*
X-127675000Y-42140000D02*
X-127675000Y-41765000D01*
X-128050000Y-42140000D02*
X-127675000Y-42140000D01*
X-132675000Y-39140000D02*
X-132675000Y-39515000D01*
X-132300000Y-39140000D02*
X-132675000Y-39140000D01*
X-132675000Y-42140000D02*
X-132675000Y-41765000D01*
X-132300000Y-42140000D02*
X-132675000Y-42140000D01*
%TO.C,U16*%
X-114955000Y-74295000D02*
X-114955000Y-77745000D01*
X-114955000Y-74295000D02*
X-114955000Y-72345000D01*
X-109835000Y-74295000D02*
X-109835000Y-76245000D01*
X-109835000Y-74295000D02*
X-109835000Y-72345000D01*
%TO.C,U13*%
X-113370000Y-59690000D02*
X-113370000Y-62615000D01*
X-113370000Y-59690000D02*
X-113370000Y-58190000D01*
X-110150000Y-59690000D02*
X-110150000Y-61190000D01*
X-110150000Y-59690000D02*
X-110150000Y-58190000D01*
%TO.C,U12*%
X-126650000Y-70120000D02*
X-126650000Y-72120000D01*
X-129890000Y-71120000D02*
X-129890000Y-74120000D01*
%TO.C,U11*%
X-119490000Y-41340000D02*
X-119490000Y-39940000D01*
X-121810000Y-39940000D02*
X-121810000Y-41840000D01*
%TO.C,U10*%
X-109515000Y-41540000D02*
X-109515000Y-39090000D01*
X-112735000Y-39740000D02*
X-112735000Y-41540000D01*
%TO.C,U9*%
X-120945000Y-30110000D02*
X-120945000Y-27660000D01*
X-124165000Y-28310000D02*
X-124165000Y-30110000D01*
%TO.C,U8*%
X-115305000Y-33950000D02*
X-117755000Y-33950000D01*
X-117105000Y-37170000D02*
X-115305000Y-37170000D01*
%TO.C,U7*%
X-110784999Y-51700000D02*
X-110784999Y-49250000D01*
X-114004999Y-49900000D02*
X-114004999Y-51700000D01*
%TO.C,U6*%
X-117515000Y-52475000D02*
X-117890000Y-52475000D01*
X-117515000Y-53350000D02*
X-117515000Y-52475000D01*
X-117515000Y-55475000D02*
X-117515000Y-55100000D01*
X-117890000Y-55475000D02*
X-117515000Y-55475000D01*
X-122515000Y-52475000D02*
X-122515000Y-52850000D01*
X-122140000Y-52475000D02*
X-122515000Y-52475000D01*
X-122515000Y-55475000D02*
X-122515000Y-55100000D01*
X-122140000Y-55475000D02*
X-122515000Y-55475000D01*
%TO.C,U5*%
X-125135000Y-52475000D02*
X-125510000Y-52475000D01*
X-125135000Y-53350000D02*
X-125135000Y-52475000D01*
X-125135000Y-55475000D02*
X-125135000Y-55100000D01*
X-125510000Y-55475000D02*
X-125135000Y-55475000D01*
X-130135000Y-52475000D02*
X-130135000Y-52850000D01*
X-129760000Y-52475000D02*
X-130135000Y-52475000D01*
X-130135000Y-55475000D02*
X-130135000Y-55100000D01*
X-129760000Y-55475000D02*
X-130135000Y-55475000D01*
%TO.C,U4*%
X-110795000Y-22695000D02*
X-110795000Y-21895000D01*
X-110795000Y-21895000D02*
X-110895000Y-21895000D01*
X-110795000Y-24295000D02*
X-110795000Y-25095000D01*
X-110795000Y-25095000D02*
X-110895000Y-25095000D01*
X-113895000Y-21895000D02*
X-113995000Y-21895000D01*
X-113995000Y-21895000D02*
X-113995000Y-22695000D01*
X-113995000Y-24295000D02*
X-113995000Y-25095000D01*
X-113995000Y-25095000D02*
X-113895000Y-25095000D01*
X-110895000Y-21895000D02*
X-110895000Y-21495000D01*
%TO.C,U3*%
X-129245000Y-31485000D02*
X-129245000Y-33935000D01*
X-126025000Y-33285000D02*
X-126025000Y-31485000D01*
%TO.C,U2*%
X-121515000Y-50395000D02*
X-121140000Y-50395000D01*
X-121515000Y-49520000D02*
X-121515000Y-50395000D01*
X-121515000Y-47395000D02*
X-121515000Y-47770000D01*
X-121140000Y-47395000D02*
X-121515000Y-47395000D01*
X-117515000Y-50395000D02*
X-117515000Y-50020000D01*
X-117890000Y-50395000D02*
X-117515000Y-50395000D01*
X-117515000Y-47395000D02*
X-117515000Y-47770000D01*
X-117890000Y-47395000D02*
X-117515000Y-47395000D01*
%TO.C,U1*%
X-129135000Y-50395000D02*
X-128760000Y-50395000D01*
X-129135000Y-49520000D02*
X-129135000Y-50395000D01*
X-129135000Y-47395000D02*
X-129135000Y-47770000D01*
X-128760000Y-47395000D02*
X-129135000Y-47395000D01*
X-125135000Y-50395000D02*
X-125135000Y-50020000D01*
X-125510000Y-50395000D02*
X-125135000Y-50395000D01*
X-125135000Y-47395000D02*
X-125135000Y-47770000D01*
X-125510000Y-47395000D02*
X-125135000Y-47395000D01*
%TO.C,TP11*%
X-112965000Y-65405000D02*
G75*
G03X-112965000Y-65405000I-700000J0D01*
G01*
%TO.C,TP10*%
X-110425000Y-65405000D02*
G75*
G03X-110425000Y-65405000I-700000J0D01*
G01*
%TO.C,TP6*%
X-119950000Y-71755000D02*
G75*
G03X-119950000Y-71755000I-700000J0D01*
G01*
%TO.C,TP5*%
X-115632000Y-56261000D02*
G75*
G03X-115632000Y-56261000I-700000J0D01*
G01*
%TO.C,TP3*%
X-125665000Y-80645000D02*
G75*
G03X-125665000Y-80645000I-700000J0D01*
G01*
%TO.C,RV2*%
X-117675000Y-78300000D02*
X-117275000Y-78300000D01*
X-119075000Y-77200000D02*
X-119075000Y-74300000D01*
X-119075000Y-74300000D02*
X-118475000Y-74300000D01*
X-115875000Y-77200000D02*
X-115875000Y-74300000D01*
X-115875000Y-74300000D02*
X-116475000Y-74300000D01*
X-119275000Y-78100000D02*
X-119275000Y-78800000D01*
X-119275000Y-78800000D02*
X-118575000Y-78800000D01*
%TO.C,RV1*%
X-115675000Y-67885000D02*
X-116375000Y-67885000D01*
X-115675000Y-68585000D02*
X-115675000Y-67885000D01*
X-119075000Y-72385000D02*
X-118475000Y-72385000D01*
X-119075000Y-69485000D02*
X-119075000Y-72385000D01*
X-115875000Y-72385000D02*
X-116475000Y-72385000D01*
X-115875000Y-69485000D02*
X-115875000Y-72385000D01*
X-117275000Y-68385000D02*
X-117675000Y-68385000D01*
%TO.C,R40*%
X-120880000Y-85945000D02*
X-120880000Y-98285000D01*
X-132470000Y-95485000D02*
X-132470000Y-98285000D01*
X-132470000Y-92986000D02*
X-132470000Y-93745000D01*
X-132470000Y-90486000D02*
X-132470000Y-91245000D01*
X-132470000Y-85945000D02*
X-132470000Y-88744000D01*
X-123895000Y-98285000D02*
X-120880000Y-98285000D01*
X-132470000Y-98285000D02*
X-127804000Y-98285000D01*
X-123895000Y-85945000D02*
X-120880000Y-85945000D01*
X-132470000Y-85945000D02*
X-127804000Y-85945000D01*
%TO.C,L2*%
X-117170000Y-29010000D02*
X-117170000Y-29410000D01*
X-113970000Y-29010000D02*
X-113970000Y-29410000D01*
%TO.C,L1*%
X-133680000Y-32185000D02*
X-133680000Y-32585000D01*
X-130480000Y-32185000D02*
X-130480000Y-32585000D01*
%TO.C,J4*%
X-118570000Y-87520000D02*
X-115570000Y-87520000D01*
X-118570000Y-92770000D02*
X-118570000Y-91770000D01*
X-118570000Y-91770000D02*
X-118570000Y-92520000D01*
X-118570000Y-92520000D02*
X-118570000Y-93020000D01*
X-118570000Y-98270000D02*
X-118570000Y-98770000D01*
X-118570000Y-96270000D02*
X-118570000Y-95020000D01*
X-118570000Y-89770000D02*
X-118570000Y-87520000D01*
X-112570000Y-87520000D02*
X-115570000Y-87520000D01*
X-112570000Y-89770000D02*
X-112570000Y-87520000D01*
X-112570000Y-92520000D02*
X-112570000Y-93020000D01*
X-112570000Y-91770000D02*
X-112570000Y-92520000D01*
X-112570000Y-92770000D02*
X-112570000Y-91770000D01*
X-112570000Y-96270000D02*
X-112570000Y-95020000D01*
X-112570000Y-98270000D02*
X-112570000Y-98770000D01*
%TO.C,J3*%
X-118685000Y-20260000D02*
X-118685000Y-21590000D01*
X-120015000Y-20260000D02*
X-118685000Y-20260000D01*
X-118685000Y-22860000D02*
X-118685000Y-25460000D01*
X-121285000Y-22860000D02*
X-118685000Y-22860000D01*
X-121285000Y-20260000D02*
X-121285000Y-22860000D01*
X-118685000Y-25460000D02*
X-134045000Y-25460000D01*
X-121285000Y-20260000D02*
X-134045000Y-20260000D01*
X-134045000Y-20260000D02*
X-134045000Y-25460000D01*
%TO.C,J1*%
X-107890000Y-98485000D02*
X-109220000Y-98485000D01*
X-107890000Y-97155000D02*
X-107890000Y-98485000D01*
X-107890000Y-95885000D02*
X-110550000Y-95885000D01*
X-110550000Y-95885000D02*
X-110550000Y-93285000D01*
X-107890000Y-95885000D02*
X-107890000Y-93285000D01*
X-107890000Y-93285000D02*
X-110550000Y-93285000D01*
%TO.C,D1*%
X-112770000Y-31490000D02*
X-112770000Y-27810000D01*
X-110750000Y-31490000D02*
X-110750000Y-27810000D01*
X-112770000Y-31490000D02*
X-110750000Y-31490000D01*
%TO.C,C34*%
X-112232221Y-68705000D02*
X-112557779Y-68705000D01*
X-112232221Y-69725000D02*
X-112557779Y-69725000D01*
%TO.C,C27*%
X-111157936Y-53700000D02*
X-112362064Y-53700000D01*
X-111157936Y-55520000D02*
X-112362064Y-55520000D01*
%TO.C,C26*%
X-123569000Y-68629801D02*
X-123169000Y-68629801D01*
X-123369000Y-68829801D02*
X-123369000Y-68429801D01*
X-122544000Y-64479000D02*
X-121804000Y-64479000D01*
X-122711000Y-64519000D02*
X-121637000Y-64519000D01*
X-122838000Y-64559000D02*
X-121510000Y-64559000D01*
X-122942000Y-64599000D02*
X-121406000Y-64599000D01*
X-123033000Y-64639000D02*
X-121315000Y-64639000D01*
X-123114000Y-64679000D02*
X-121234000Y-64679000D01*
X-123187000Y-64719000D02*
X-121161000Y-64719000D01*
X-123254000Y-64759000D02*
X-121094000Y-64759000D01*
X-123316000Y-64799000D02*
X-121032000Y-64799000D01*
X-123374000Y-64839000D02*
X-120974000Y-64839000D01*
X-123428000Y-64879000D02*
X-120920000Y-64879000D01*
X-123478000Y-64919000D02*
X-120870000Y-64919000D01*
X-123525000Y-64959000D02*
X-120823000Y-64959000D01*
X-121334000Y-64999000D02*
X-120778000Y-64999000D01*
X-123570000Y-64999000D02*
X-123014000Y-64999000D01*
X-121334000Y-65039000D02*
X-120736000Y-65039000D01*
X-123612000Y-65039000D02*
X-123014000Y-65039000D01*
X-121334000Y-65079000D02*
X-120696000Y-65079000D01*
X-123652000Y-65079000D02*
X-123014000Y-65079000D01*
X-121334000Y-65119000D02*
X-120658000Y-65119000D01*
X-123690000Y-65119000D02*
X-123014000Y-65119000D01*
X-121334000Y-65159000D02*
X-120622000Y-65159000D01*
X-123726000Y-65159000D02*
X-123014000Y-65159000D01*
X-121334000Y-65199000D02*
X-120587000Y-65199000D01*
X-123761000Y-65199000D02*
X-123014000Y-65199000D01*
X-121334000Y-65239000D02*
X-120555000Y-65239000D01*
X-123793000Y-65239000D02*
X-123014000Y-65239000D01*
X-121334000Y-65279000D02*
X-120524000Y-65279000D01*
X-123824000Y-65279000D02*
X-123014000Y-65279000D01*
X-121334000Y-65319000D02*
X-120494000Y-65319000D01*
X-123854000Y-65319000D02*
X-123014000Y-65319000D01*
X-121334000Y-65359000D02*
X-120466000Y-65359000D01*
X-123882000Y-65359000D02*
X-123014000Y-65359000D01*
X-121334000Y-65399000D02*
X-120439000Y-65399000D01*
X-123909000Y-65399000D02*
X-123014000Y-65399000D01*
X-121334000Y-65439000D02*
X-120414000Y-65439000D01*
X-123934000Y-65439000D02*
X-123014000Y-65439000D01*
X-121334000Y-65479000D02*
X-120389000Y-65479000D01*
X-123959000Y-65479000D02*
X-123014000Y-65479000D01*
X-121334000Y-65519000D02*
X-120366000Y-65519000D01*
X-123982000Y-65519000D02*
X-123014000Y-65519000D01*
X-121334000Y-65559000D02*
X-120344000Y-65559000D01*
X-124004000Y-65559000D02*
X-123014000Y-65559000D01*
X-121334000Y-65599000D02*
X-120323000Y-65599000D01*
X-124025000Y-65599000D02*
X-123014000Y-65599000D01*
X-121334000Y-65639000D02*
X-120304000Y-65639000D01*
X-124044000Y-65639000D02*
X-123014000Y-65639000D01*
X-121334000Y-65679000D02*
X-120285000Y-65679000D01*
X-124063000Y-65679000D02*
X-123014000Y-65679000D01*
X-121334000Y-65719000D02*
X-120267000Y-65719000D01*
X-124081000Y-65719000D02*
X-123014000Y-65719000D01*
X-121334000Y-65759000D02*
X-120250000Y-65759000D01*
X-124098000Y-65759000D02*
X-123014000Y-65759000D01*
X-121334000Y-65799000D02*
X-120234000Y-65799000D01*
X-124114000Y-65799000D02*
X-123014000Y-65799000D01*
X-121334000Y-65839000D02*
X-120220000Y-65839000D01*
X-124128000Y-65839000D02*
X-123014000Y-65839000D01*
X-121334000Y-65880000D02*
X-120206000Y-65880000D01*
X-124142000Y-65880000D02*
X-123014000Y-65880000D01*
X-121334000Y-65920000D02*
X-120192000Y-65920000D01*
X-124156000Y-65920000D02*
X-123014000Y-65920000D01*
X-121334000Y-65960000D02*
X-120180000Y-65960000D01*
X-124168000Y-65960000D02*
X-123014000Y-65960000D01*
X-121334000Y-66000000D02*
X-120169000Y-66000000D01*
X-124179000Y-66000000D02*
X-123014000Y-66000000D01*
X-121334000Y-66040000D02*
X-120158000Y-66040000D01*
X-124190000Y-66040000D02*
X-123014000Y-66040000D01*
X-121334000Y-66080000D02*
X-120149000Y-66080000D01*
X-124199000Y-66080000D02*
X-123014000Y-66080000D01*
X-121334000Y-66120000D02*
X-120140000Y-66120000D01*
X-124208000Y-66120000D02*
X-123014000Y-66120000D01*
X-121334000Y-66160000D02*
X-120132000Y-66160000D01*
X-124216000Y-66160000D02*
X-123014000Y-66160000D01*
X-121334000Y-66200000D02*
X-120124000Y-66200000D01*
X-124224000Y-66200000D02*
X-123014000Y-66200000D01*
X-121334000Y-66240000D02*
X-120118000Y-66240000D01*
X-124230000Y-66240000D02*
X-123014000Y-66240000D01*
X-121334000Y-66280000D02*
X-120112000Y-66280000D01*
X-124236000Y-66280000D02*
X-123014000Y-66280000D01*
X-121334000Y-66320000D02*
X-120107000Y-66320000D01*
X-124241000Y-66320000D02*
X-123014000Y-66320000D01*
X-121334000Y-66360000D02*
X-120103000Y-66360000D01*
X-124245000Y-66360000D02*
X-123014000Y-66360000D01*
X-121334000Y-66400000D02*
X-120100000Y-66400000D01*
X-124248000Y-66400000D02*
X-123014000Y-66400000D01*
X-121334000Y-66440000D02*
X-120097000Y-66440000D01*
X-124251000Y-66440000D02*
X-123014000Y-66440000D01*
X-124253000Y-66480000D02*
X-123014000Y-66480000D01*
X-121334000Y-66480000D02*
X-120095000Y-66480000D01*
X-124254000Y-66520000D02*
X-123014000Y-66520000D01*
X-121334000Y-66520000D02*
X-120094000Y-66520000D01*
X-124254000Y-66560000D02*
X-123014000Y-66560000D01*
X-121334000Y-66560000D02*
X-120094000Y-66560000D01*
X-120054000Y-66560000D02*
G75*
G03X-120054000Y-66560000I-2120000J0D01*
G01*
%TO.C,C24*%
X-126240000Y-66202779D02*
X-126240000Y-65877221D01*
X-125220000Y-66202779D02*
X-125220000Y-65877221D01*
%TO.C,C23*%
X-130337779Y-65530000D02*
X-130012221Y-65530000D01*
X-130337779Y-66550000D02*
X-130012221Y-66550000D01*
%TO.C,C20*%
X-117115000Y-40037936D02*
X-117115000Y-41242064D01*
X-115295000Y-40037936D02*
X-115295000Y-41242064D01*
%TO.C,C18*%
X-121317936Y-33380000D02*
X-122522064Y-33380000D01*
X-121317936Y-35200000D02*
X-122522064Y-35200000D01*
%TO.C,C17*%
X-112035000Y-34322936D02*
X-112035000Y-35527064D01*
X-110215000Y-34322936D02*
X-110215000Y-35527064D01*
%TO.C,C16*%
X-128055000Y-79260000D02*
G75*
G03X-128055000Y-79260000I-2120000J0D01*
G01*
X-129335000Y-79260000D02*
X-128095000Y-79260000D01*
X-132255000Y-79260000D02*
X-131015000Y-79260000D01*
X-129335000Y-79220000D02*
X-128095000Y-79220000D01*
X-132255000Y-79220000D02*
X-131015000Y-79220000D01*
X-129335000Y-79180000D02*
X-128096000Y-79180000D01*
X-132254000Y-79180000D02*
X-131015000Y-79180000D01*
X-132252000Y-79140000D02*
X-131015000Y-79140000D01*
X-129335000Y-79140000D02*
X-128098000Y-79140000D01*
X-132249000Y-79100000D02*
X-131015000Y-79100000D01*
X-129335000Y-79100000D02*
X-128101000Y-79100000D01*
X-132246000Y-79060000D02*
X-131015000Y-79060000D01*
X-129335000Y-79060000D02*
X-128104000Y-79060000D01*
X-132242000Y-79020000D02*
X-131015000Y-79020000D01*
X-129335000Y-79020000D02*
X-128108000Y-79020000D01*
X-132237000Y-78980000D02*
X-131015000Y-78980000D01*
X-129335000Y-78980000D02*
X-128113000Y-78980000D01*
X-132231000Y-78940000D02*
X-131015000Y-78940000D01*
X-129335000Y-78940000D02*
X-128119000Y-78940000D01*
X-132225000Y-78900000D02*
X-131015000Y-78900000D01*
X-129335000Y-78900000D02*
X-128125000Y-78900000D01*
X-132217000Y-78860000D02*
X-131015000Y-78860000D01*
X-129335000Y-78860000D02*
X-128133000Y-78860000D01*
X-132209000Y-78820000D02*
X-131015000Y-78820000D01*
X-129335000Y-78820000D02*
X-128141000Y-78820000D01*
X-132200000Y-78780000D02*
X-131015000Y-78780000D01*
X-129335000Y-78780000D02*
X-128150000Y-78780000D01*
X-132191000Y-78740000D02*
X-131015000Y-78740000D01*
X-129335000Y-78740000D02*
X-128159000Y-78740000D01*
X-132180000Y-78700000D02*
X-131015000Y-78700000D01*
X-129335000Y-78700000D02*
X-128170000Y-78700000D01*
X-132169000Y-78660000D02*
X-131015000Y-78660000D01*
X-129335000Y-78660000D02*
X-128181000Y-78660000D01*
X-132157000Y-78620000D02*
X-131015000Y-78620000D01*
X-129335000Y-78620000D02*
X-128193000Y-78620000D01*
X-132143000Y-78580000D02*
X-131015000Y-78580000D01*
X-129335000Y-78580000D02*
X-128207000Y-78580000D01*
X-132129000Y-78539000D02*
X-131015000Y-78539000D01*
X-129335000Y-78539000D02*
X-128221000Y-78539000D01*
X-132115000Y-78499000D02*
X-131015000Y-78499000D01*
X-129335000Y-78499000D02*
X-128235000Y-78499000D01*
X-132099000Y-78459000D02*
X-131015000Y-78459000D01*
X-129335000Y-78459000D02*
X-128251000Y-78459000D01*
X-132082000Y-78419000D02*
X-131015000Y-78419000D01*
X-129335000Y-78419000D02*
X-128268000Y-78419000D01*
X-132064000Y-78379000D02*
X-131015000Y-78379000D01*
X-129335000Y-78379000D02*
X-128286000Y-78379000D01*
X-132045000Y-78339000D02*
X-131015000Y-78339000D01*
X-129335000Y-78339000D02*
X-128305000Y-78339000D01*
X-132026000Y-78299000D02*
X-131015000Y-78299000D01*
X-129335000Y-78299000D02*
X-128324000Y-78299000D01*
X-132005000Y-78259000D02*
X-131015000Y-78259000D01*
X-129335000Y-78259000D02*
X-128345000Y-78259000D01*
X-131983000Y-78219000D02*
X-131015000Y-78219000D01*
X-129335000Y-78219000D02*
X-128367000Y-78219000D01*
X-131960000Y-78179000D02*
X-131015000Y-78179000D01*
X-129335000Y-78179000D02*
X-128390000Y-78179000D01*
X-131935000Y-78139000D02*
X-131015000Y-78139000D01*
X-129335000Y-78139000D02*
X-128415000Y-78139000D01*
X-131910000Y-78099000D02*
X-131015000Y-78099000D01*
X-129335000Y-78099000D02*
X-128440000Y-78099000D01*
X-131883000Y-78059000D02*
X-131015000Y-78059000D01*
X-129335000Y-78059000D02*
X-128467000Y-78059000D01*
X-131855000Y-78019000D02*
X-131015000Y-78019000D01*
X-129335000Y-78019000D02*
X-128495000Y-78019000D01*
X-131825000Y-77979000D02*
X-131015000Y-77979000D01*
X-129335000Y-77979000D02*
X-128525000Y-77979000D01*
X-131794000Y-77939000D02*
X-131015000Y-77939000D01*
X-129335000Y-77939000D02*
X-128556000Y-77939000D01*
X-131762000Y-77899000D02*
X-131015000Y-77899000D01*
X-129335000Y-77899000D02*
X-128588000Y-77899000D01*
X-131727000Y-77859000D02*
X-131015000Y-77859000D01*
X-129335000Y-77859000D02*
X-128623000Y-77859000D01*
X-131691000Y-77819000D02*
X-131015000Y-77819000D01*
X-129335000Y-77819000D02*
X-128659000Y-77819000D01*
X-131653000Y-77779000D02*
X-131015000Y-77779000D01*
X-129335000Y-77779000D02*
X-128697000Y-77779000D01*
X-131613000Y-77739000D02*
X-131015000Y-77739000D01*
X-129335000Y-77739000D02*
X-128737000Y-77739000D01*
X-131571000Y-77699000D02*
X-131015000Y-77699000D01*
X-129335000Y-77699000D02*
X-128779000Y-77699000D01*
X-131526000Y-77659000D02*
X-128824000Y-77659000D01*
X-131479000Y-77619000D02*
X-128871000Y-77619000D01*
X-131429000Y-77579000D02*
X-128921000Y-77579000D01*
X-131375000Y-77539000D02*
X-128975000Y-77539000D01*
X-131317000Y-77499000D02*
X-129033000Y-77499000D01*
X-131255000Y-77459000D02*
X-129095000Y-77459000D01*
X-131188000Y-77419000D02*
X-129162000Y-77419000D01*
X-131115000Y-77379000D02*
X-129235000Y-77379000D01*
X-131034000Y-77339000D02*
X-129316000Y-77339000D01*
X-130943000Y-77299000D02*
X-129407000Y-77299000D01*
X-130839000Y-77259000D02*
X-129511000Y-77259000D01*
X-130712000Y-77219000D02*
X-129638000Y-77219000D01*
X-130545000Y-77179000D02*
X-129805000Y-77179000D01*
X-131370000Y-81529801D02*
X-131370000Y-81129801D01*
X-131570000Y-81329801D02*
X-131170000Y-81329801D01*
%TO.C,C11*%
X-107675000Y-29812064D02*
X-107675000Y-28607936D01*
X-109495000Y-29812064D02*
X-109495000Y-28607936D01*
%TO.C,C8*%
X-127032936Y-27665000D02*
X-128237064Y-27665000D01*
X-127032936Y-29485000D02*
X-128237064Y-29485000D01*
%TO.C,C2*%
X-117115000Y-21622936D02*
X-117115000Y-22827064D01*
X-115295000Y-21622936D02*
X-115295000Y-22827064D01*
%TO.C,C1*%
X-132338578Y-27865000D02*
X-131821422Y-27865000D01*
X-132338578Y-29285000D02*
X-131821422Y-29285000D01*
%TD*%
M02*
