%TF.GenerationSoftware,KiCad,Pcbnew,(5.1.5)-3*%
%TF.CreationDate,2020-10-12T09:52:32+02:00*%
%TF.ProjectId,PmodADC,506d6f64-4144-4432-9e6b-696361645f70,rev?*%
%TF.SameCoordinates,Original*%
%TF.FileFunction,Copper,L4,Bot*%
%TF.FilePolarity,Positive*%
%FSLAX46Y46*%
G04 Gerber Fmt 4.6, Leading zero omitted, Abs format (unit mm)*
G04 Created by KiCad (PCBNEW (5.1.5)-3) date 2020-10-12 09:52:32*
%MOMM*%
%LPD*%
G04 APERTURE LIST*
%TA.AperFunction,ComponentPad*%
%ADD10O,1.700000X1.700000*%
%TD*%
%TA.AperFunction,ComponentPad*%
%ADD11R,1.700000X1.700000*%
%TD*%
%TA.AperFunction,ComponentPad*%
%ADD12C,1.000000*%
%TD*%
%TA.AperFunction,ViaPad*%
%ADD13C,0.800000*%
%TD*%
%TA.AperFunction,ViaPad*%
%ADD14C,0.550000*%
%TD*%
%TA.AperFunction,Conductor*%
%ADD15C,0.500000*%
%TD*%
%TA.AperFunction,Conductor*%
%ADD16C,0.250000*%
%TD*%
G04 APERTURE END LIST*
D10*
%TO.P,J3,12*%
%TO.N,GND*%
X-29845000Y123190000D03*
%TO.P,J3,11*%
X-29845000Y125730000D03*
%TO.P,J3,10*%
%TO.N,+3V3*%
X-27305000Y123190000D03*
%TO.P,J3,9*%
X-27305000Y125730000D03*
%TO.P,J3,8*%
%TO.N,/COMP*%
X-24765000Y123190000D03*
%TO.P,J3,7*%
%TO.N,/S&H*%
X-24765000Y125730000D03*
%TO.P,J3,6*%
%TO.N,/DAC_S*%
X-22225000Y123190000D03*
%TO.P,J3,5*%
%TO.N,/ADC_S*%
X-22225000Y125730000D03*
%TO.P,J3,4*%
%TO.N,/DAC_C*%
X-19685000Y123190000D03*
%TO.P,J3,3*%
%TO.N,/ADC_C*%
X-19685000Y125730000D03*
%TO.P,J3,2*%
%TO.N,/DAC_L*%
X-17145000Y123190000D03*
D11*
%TO.P,J3,1*%
%TO.N,/ADC_L*%
X-17145000Y125730000D03*
%TD*%
D12*
%TO.P,RV3,3*%
%TO.N,GND*%
X-17145000Y67945000D03*
%TO.P,RV3,1*%
%TO.N,Net-(C37-Pad1)*%
X-22225000Y67945000D03*
%TO.P,RV3,2*%
%TO.N,Net-(RV3-Pad2)*%
X-19685000Y65405000D03*
%TD*%
%TO.P,RV2,3*%
%TO.N,+9V*%
X19685000Y93980000D03*
%TO.P,RV2,1*%
%TO.N,Net-(R65-Pad2)*%
X24765000Y93980000D03*
%TO.P,RV2,2*%
%TO.N,Net-(RV2-Pad2)*%
X22225000Y96520000D03*
%TD*%
%TO.P,RV1,3*%
%TO.N,N/C*%
X12065000Y55880000D03*
%TO.P,RV1,1*%
%TO.N,Net-(R37-Pad2)*%
X12065000Y60960000D03*
%TO.P,RV1,2*%
%TO.N,Net-(R38-Pad1)*%
X9525000Y58420000D03*
%TD*%
D13*
%TO.N,GND*%
X-26035000Y88265000D03*
X-24130000Y112395000D03*
X-24130000Y113665000D03*
X-24130000Y114935000D03*
X0Y116205000D03*
X-635000Y115570000D03*
X635000Y115570000D03*
X0Y114935000D03*
X0Y101600000D03*
X-635000Y100965000D03*
X635000Y100965000D03*
X0Y100330000D03*
X-24765000Y99060000D03*
X-24765000Y100330000D03*
X-24765000Y101600000D03*
X-15875000Y97155000D03*
X-16510000Y97790000D03*
X-17145000Y97155000D03*
X-16510000Y96520000D03*
X-8255000Y100965000D03*
X-18415000Y106680000D03*
X-15875000Y119380000D03*
X-17145000Y50165000D03*
X19050000Y52070000D03*
X4445000Y49530000D03*
X9525000Y56515000D03*
X-29845000Y62230000D03*
X-29845000Y67310000D03*
X-27940000Y73025000D03*
X-26035000Y80645000D03*
D14*
X-31811055Y77473642D03*
X-22860000Y80010000D03*
X-15240000Y78740000D03*
X-16510000Y72390000D03*
X-26035000Y74295000D03*
D13*
X13335000Y85090000D03*
X17145000Y81280000D03*
X17145000Y78105000D03*
X-6985000Y82550000D03*
X-6350000Y68580000D03*
X10795000Y74950019D03*
X2167810Y54417257D03*
X-25892175Y64627175D03*
X-26035000Y69759990D03*
D14*
X-6350000Y75565000D03*
X-2540000Y74295000D03*
X-12065000Y71800011D03*
X-5080000Y86995000D03*
X17145000Y71755000D03*
X9525000Y69850000D03*
D13*
X3175000Y65405000D03*
X6350000Y93980000D03*
X-22225000Y90170000D03*
X-21590000Y112395000D03*
D14*
X6350000Y73660000D03*
X-31806386Y85147159D03*
D13*
X19685000Y83820000D03*
X21135012Y84520447D03*
X-13774840Y125925160D03*
D14*
X-3429000Y82423000D03*
D13*
X24130000Y123825000D03*
X24130000Y122555000D03*
X24130000Y121285000D03*
X24130000Y104775000D03*
X24130000Y103505000D03*
X24130000Y102235000D03*
X-9100000Y89000000D03*
X-2900000Y89000000D03*
X3100000Y89000000D03*
X9100000Y89000000D03*
X15100000Y89000000D03*
X21300000Y89000000D03*
D14*
X-11024978Y85512213D03*
D13*
X-12800000Y85400000D03*
X-12800000Y79300000D03*
X-12800000Y73300000D03*
X-12800000Y67400000D03*
X-9100000Y63800000D03*
X-3000000Y63800000D03*
X3100000Y63800000D03*
X9100000Y63800000D03*
X15100000Y63800000D03*
X21300000Y63800000D03*
X25100000Y67400000D03*
X25100000Y73300000D03*
X25100000Y79400000D03*
X25100000Y85300000D03*
D14*
%TO.N,+3V3*%
X1270000Y92710000D03*
X2540000Y86995000D03*
D13*
X5715000Y71755000D03*
X-30480000Y107190000D03*
X1270000Y92710000D03*
X2540000Y86995000D03*
%TO.N,+5V*%
X-27940000Y80645000D03*
X5715000Y55245000D03*
X-31115000Y80010000D03*
X-29210000Y72390000D03*
X-30480000Y88265000D03*
X19685000Y121285000D03*
X19685000Y122555000D03*
X19685000Y123825000D03*
X-10160000Y82550000D03*
X-5715000Y82444989D03*
X-8890000Y66675000D03*
D14*
X10160000Y71755000D03*
D13*
X-10160000Y75020010D03*
%TO.N,Net-(C11-Pad1)*%
X-9525000Y110490000D03*
X-11974990Y113665000D03*
%TO.N,+9V*%
X-10795000Y84455000D03*
X20320000Y113030000D03*
X20320000Y111760000D03*
X20320000Y111760000D03*
X20320000Y110490000D03*
D14*
X9525000Y80645000D03*
X3175000Y53975000D03*
X-31115000Y66040000D03*
X-29845000Y69850000D03*
X9525000Y90805000D03*
D13*
%TO.N,-9V*%
X20320000Y103505000D03*
X20320000Y102235000D03*
X20320000Y100965000D03*
D14*
X-26035000Y66040000D03*
X-26035000Y60960000D03*
X-1270000Y50800000D03*
X12700000Y74930000D03*
%TO.N,/COMP*%
X8255000Y69850000D03*
X6985000Y121920000D03*
%TO.N,/S&H*%
X20955000Y86995000D03*
X5080000Y125095000D03*
%TO.N,/DAC_S*%
X-31750000Y76200000D03*
X-17145000Y120650000D03*
%TO.N,/ADC_S*%
X-11430000Y69850000D03*
%TO.N,/DAC_C*%
X-31750000Y79375000D03*
X-31115000Y89535000D03*
%TO.N,/ADC_C*%
X-11398972Y73702673D03*
X-11463472Y80736038D03*
%TO.N,/DAC_L*%
X-31884976Y78220000D03*
X-23495000Y90170000D03*
%TO.N,/ADC_L*%
X-11824990Y73085399D03*
X-11824990Y80078906D03*
D13*
%TO.N,Net-(R38-Pad1)*%
X4348500Y54559183D03*
X7075010Y54610000D03*
D14*
%TO.N,Net-(R65-Pad2)*%
X19685000Y86995000D03*
X19685000Y91440000D03*
%TO.N,Net-(RV2-Pad2)*%
X20320000Y87630000D03*
X20320000Y95250000D03*
%TO.N,Net-(U1-Pad9)*%
X-11065001Y74565001D03*
X-8891832Y74936341D03*
%TO.N,Net-(U1-Pad15)*%
X-6985000Y69850000D03*
X-10680791Y69815295D03*
%TO.N,Net-(U2-Pad15)*%
X-6985000Y77470000D03*
X-10214437Y77524437D03*
%TO.N,Net-(U12-Pad15)*%
X-31115000Y75565000D03*
X-27305000Y75565000D03*
%TO.N,Net-(U13-Pad15)*%
X-31115000Y83185000D03*
X-27305000Y83185000D03*
%TO.N,Net-(JP2-Pad3)*%
X15875000Y69850000D03*
X-3175000Y58360000D03*
%TO.N,Net-(JP2-Pad1)*%
X18415000Y78105000D03*
X23495000Y78105000D03*
X18415000Y80010000D03*
%TO.N,Net-(JP3-Pad2)*%
X-15240000Y63500000D03*
X-28575000Y63500000D03*
D13*
%TO.N,/Vref_5V*%
X-2540000Y75565000D03*
X-2540000Y86995000D03*
D14*
X-2540000Y83185000D03*
D13*
X-22950010Y88900000D03*
X-22769990Y81280000D03*
%TD*%
D15*
%TO.N,+3V3*%
X1270000Y92710000D02*
X1270000Y88265000D01*
X1270000Y88265000D02*
X2540000Y86995000D01*
D16*
%TO.N,Net-(C11-Pad1)*%
X-11974990Y112939990D02*
X-11974990Y113665000D01*
X-9525000Y110490000D02*
X-11974990Y112939990D01*
%TO.N,/COMP*%
X8255000Y69850000D02*
X8255000Y120650000D01*
X8255000Y120650000D02*
X6985000Y121920000D01*
%TO.N,/S&H*%
X20574999Y89348001D02*
X21229999Y90003001D01*
X20955000Y86995000D02*
X20955000Y88271998D01*
X20955000Y88271998D02*
X20574999Y88651999D01*
X20574999Y88651999D02*
X20574999Y89348001D01*
X21229999Y96880001D02*
X8890000Y109220000D01*
X21229999Y90003001D02*
X21229999Y96880001D01*
X5354999Y124820001D02*
X5080000Y125095000D01*
X8890000Y121285000D02*
X5354999Y124820001D01*
X8890000Y109220000D02*
X8890000Y121285000D01*
%TO.N,/DAC_S*%
X-31750000Y76200000D02*
X-30480000Y77470000D01*
X-30480000Y77470000D02*
X-26670000Y77470000D01*
X-26670000Y77470000D02*
X-26035000Y77470000D01*
X-26035000Y77470000D02*
X-23495000Y80010000D01*
X-23495000Y80010000D02*
X-23495000Y86360000D01*
X-23495000Y86360000D02*
X-23495000Y86995000D01*
X-23495000Y86995000D02*
X-20955000Y89535000D01*
X-20955000Y89535000D02*
X-20955000Y95885000D01*
X-20955000Y95885000D02*
X-21590000Y96520000D01*
X-21590000Y96520000D02*
X-21590000Y109855000D01*
X-21590000Y109855000D02*
X-19685000Y111760000D01*
X-19685000Y111760000D02*
X-19685000Y118110000D01*
X-19685000Y118110000D02*
X-17145000Y120650000D01*
%TO.N,/ADC_S*%
X-13335000Y121119002D02*
X-16770997Y124554999D01*
X-21049999Y124554999D02*
X-21375001Y124880001D01*
X-13525001Y71945001D02*
X-13525001Y85748001D01*
X-13525001Y85748001D02*
X-13335000Y85938002D01*
X-11430000Y69850000D02*
X-13525001Y71945001D01*
X-21375001Y124880001D02*
X-22225000Y125730000D01*
X-16770997Y124554999D02*
X-21049999Y124554999D01*
X-13335000Y85938002D02*
X-13335000Y121119002D01*
%TO.N,/DAC_C*%
X-19685000Y121920000D02*
X-19685000Y123190000D01*
X-22860000Y97790000D02*
X-22860000Y118745000D01*
X-31115000Y78740000D02*
X-26037820Y78740000D01*
X-31750000Y79375000D02*
X-31115000Y78740000D01*
X-24765000Y95885000D02*
X-22860000Y97790000D01*
X-22860000Y118745000D02*
X-19685000Y121920000D01*
X-26037820Y78740000D02*
X-24765000Y80012820D01*
X-24765000Y80012820D02*
X-24765000Y85725000D01*
X-24765000Y85725000D02*
X-24765000Y95885000D01*
X-31115000Y89535000D02*
X-28575000Y89535000D01*
X-25400000Y86360000D02*
X-24765000Y85725000D01*
X-28575000Y89535000D02*
X-25400000Y86360000D01*
%TO.N,/ADC_C*%
X-11673971Y77861029D02*
X-10795000Y78740000D01*
X-10795000Y78740000D02*
X-10795000Y80067566D01*
X-11188473Y80461039D02*
X-11463472Y80736038D01*
X-10795000Y80067566D02*
X-11188473Y80461039D01*
X-11673971Y73977672D02*
X-11673971Y77861029D01*
X-11398972Y73702673D02*
X-11673971Y73977672D01*
X-19685000Y125730000D02*
X-18415000Y127000000D01*
X-15240000Y126110002D02*
X-15240000Y125730000D01*
X-11430000Y121920000D02*
X-11430000Y114300000D01*
X-8255000Y111125000D02*
X-8255000Y109220000D01*
X-12014675Y86324088D02*
X-11624988Y85934401D01*
X-11463472Y81124946D02*
X-11463472Y80736038D01*
X-8255000Y109220000D02*
X-12014675Y105460325D01*
X-11624988Y85934401D02*
X-11624988Y81286462D01*
X-12014675Y105460325D02*
X-12014675Y86324088D01*
X-11624988Y81286462D02*
X-11463472Y81124946D01*
X-16129998Y127000000D02*
X-15240000Y126110002D01*
X-18415000Y127000000D02*
X-16129998Y127000000D01*
X-11430000Y114300000D02*
X-8255000Y111125000D01*
X-15240000Y125730000D02*
X-11430000Y121920000D01*
%TO.N,/DAC_L*%
X-31884976Y78220000D02*
X-25921410Y78220000D01*
X-25921410Y78220000D02*
X-24130000Y80011410D01*
X-24130000Y95250000D02*
X-22225000Y97155000D01*
X-20320000Y120015000D02*
X-17994999Y122340001D01*
X-20320000Y112395000D02*
X-20320000Y120015000D01*
X-17994999Y122340001D02*
X-17145000Y123190000D01*
X-22225000Y97155000D02*
X-22225000Y110490000D01*
X-22225000Y110490000D02*
X-20320000Y112395000D01*
X-24130000Y80011410D02*
X-24130000Y89535000D01*
X-24130000Y89535000D02*
X-23495000Y90170000D01*
X-24130000Y89535000D02*
X-24130000Y95250000D01*
%TO.N,/ADC_L*%
X-12700000Y122385000D02*
X-12700000Y86373002D01*
X-17145000Y125730000D02*
X-16045000Y125730000D01*
X-12074999Y80328915D02*
X-11824990Y80078906D01*
X-12074999Y85748001D02*
X-12074999Y80328915D01*
X-12700000Y86373002D02*
X-12074999Y85748001D01*
X-16045000Y125730000D02*
X-12700000Y122385000D01*
X-11549991Y79803907D02*
X-11824990Y80078906D01*
X-12142694Y73715696D02*
X-12142694Y78028716D01*
X-11430000Y79683916D02*
X-11549991Y79803907D01*
X-11824990Y73085399D02*
X-12074999Y73335408D01*
X-11430000Y78741410D02*
X-11430000Y79683916D01*
X-12074999Y73648001D02*
X-12142694Y73715696D01*
X-12074999Y73335408D02*
X-12074999Y73648001D01*
X-12142694Y78028716D02*
X-11430000Y78741410D01*
%TO.N,Net-(R38-Pad1)*%
X4748499Y54159184D02*
X6624194Y54159184D01*
X6675011Y54210001D02*
X7075010Y54610000D01*
X6624194Y54159184D02*
X6675011Y54210001D01*
X4348500Y54559183D02*
X4748499Y54159184D01*
%TO.N,Net-(R65-Pad2)*%
X19685000Y86995000D02*
X19410001Y87269999D01*
X19410001Y91165001D02*
X19685000Y91440000D01*
X19410001Y87269999D02*
X19410001Y91165001D01*
%TO.N,Net-(RV2-Pad2)*%
X20594999Y94975001D02*
X20320000Y95250000D01*
X20594999Y90004412D02*
X20594999Y94975001D01*
X20045001Y89454414D02*
X20594999Y90004412D01*
X20045001Y87904999D02*
X20045001Y89454414D01*
X20320000Y87630000D02*
X20045001Y87904999D01*
%TO.N,Net-(U1-Pad9)*%
X-10795000Y74295000D02*
X-10160000Y74295000D01*
X-11065001Y74565001D02*
X-10795000Y74295000D01*
X-9533173Y74295000D02*
X-8891832Y74936341D01*
X-10160000Y74295000D02*
X-9533173Y74295000D01*
%TO.N,Net-(U1-Pad15)*%
X-10646086Y69850000D02*
X-10680791Y69815295D01*
X-6985000Y69850000D02*
X-10646086Y69850000D01*
%TO.N,Net-(U2-Pad15)*%
X-6985000Y77470000D02*
X-10160000Y77470000D01*
X-10160000Y77470000D02*
X-10214437Y77524437D01*
%TO.N,Net-(U12-Pad15)*%
X-31115000Y75565000D02*
X-27305000Y75565000D01*
%TO.N,Net-(U13-Pad15)*%
X-31115000Y83185000D02*
X-27305000Y83185000D01*
%TO.N,Net-(JP2-Pad3)*%
X-2786092Y58360000D02*
X-3175000Y58360000D01*
X4773908Y58360000D02*
X-2786092Y58360000D01*
X15875000Y69461092D02*
X4773908Y58360000D01*
X15875000Y69850000D02*
X15875000Y69461092D01*
%TO.N,Net-(JP3-Pad2)*%
X-15240000Y63500000D02*
X-28575000Y63500000D01*
%TD*%
M02*
