%TF.GenerationSoftware,KiCad,Pcbnew,(5.1.5)-3*%
%TF.CreationDate,2020-10-12T09:52:32+02:00*%
%TF.ProjectId,PmodADC,506d6f64-4144-4432-9e6b-696361645f70,rev?*%
%TF.SameCoordinates,Original*%
%TF.FileFunction,Copper,L2,Inr*%
%TF.FilePolarity,Positive*%
%FSLAX46Y46*%
G04 Gerber Fmt 4.6, Leading zero omitted, Abs format (unit mm)*
G04 Created by KiCad (PCBNEW (5.1.5)-3) date 2020-10-12 09:52:32*
%MOMM*%
%LPD*%
G04 APERTURE LIST*
%TA.AperFunction,ViaPad*%
%ADD10O,1.700000X1.700000*%
%TD*%
%TA.AperFunction,ViaPad*%
%ADD11R,1.700000X1.700000*%
%TD*%
%TA.AperFunction,ViaPad*%
%ADD12C,1.000000*%
%TD*%
%TA.AperFunction,ViaPad*%
%ADD13C,0.800000*%
%TD*%
%TA.AperFunction,ViaPad*%
%ADD14C,0.550000*%
%TD*%
%TA.AperFunction,Conductor*%
%ADD15C,0.254000*%
%TD*%
G04 APERTURE END LIST*
D10*
%TO.N,GND*%
%TO.C,J3*%
X-29845000Y123190000D03*
X-29845000Y125730000D03*
%TO.N,+3V3*%
X-27305000Y123190000D03*
X-27305000Y125730000D03*
%TO.N,/COMP*%
X-24765000Y123190000D03*
%TO.N,/S&H*%
X-24765000Y125730000D03*
%TO.N,/DAC_S*%
X-22225000Y123190000D03*
%TO.N,/ADC_S*%
X-22225000Y125730000D03*
%TO.N,/DAC_C*%
X-19685000Y123190000D03*
%TO.N,/ADC_C*%
X-19685000Y125730000D03*
%TO.N,/DAC_L*%
X-17145000Y123190000D03*
D11*
%TO.N,/ADC_L*%
X-17145000Y125730000D03*
%TD*%
D12*
%TO.N,GND*%
%TO.C,RV3*%
X-17145000Y67945000D03*
%TO.N,Net-(C37-Pad1)*%
X-22225000Y67945000D03*
%TO.N,Net-(RV3-Pad2)*%
X-19685000Y65405000D03*
%TD*%
%TO.N,+9V*%
%TO.C,RV2*%
X19685000Y93980000D03*
%TO.N,Net-(R65-Pad2)*%
X24765000Y93980000D03*
%TO.N,Net-(RV2-Pad2)*%
X22225000Y96520000D03*
%TD*%
%TO.N,N/C*%
%TO.C,RV1*%
X12065000Y55880000D03*
%TO.N,Net-(R37-Pad2)*%
X12065000Y60960000D03*
%TO.N,Net-(R38-Pad1)*%
X9525000Y58420000D03*
%TD*%
D13*
%TO.N,GND*%
X-26035000Y88265000D03*
X-24130000Y112395000D03*
X-24130000Y113665000D03*
X-24130000Y114935000D03*
X0Y116205000D03*
X-635000Y115570000D03*
X635000Y115570000D03*
X0Y114935000D03*
X0Y101600000D03*
X-635000Y100965000D03*
X635000Y100965000D03*
X0Y100330000D03*
X-24765000Y99060000D03*
X-24765000Y100330000D03*
X-24765000Y101600000D03*
X-15875000Y97155000D03*
X-16510000Y97790000D03*
X-17145000Y97155000D03*
X-16510000Y96520000D03*
X-8255000Y100965000D03*
X-18415000Y106680000D03*
X-15875000Y119380000D03*
X-17145000Y50165000D03*
X19050000Y52070000D03*
X4445000Y49530000D03*
X9525000Y56515000D03*
X-29845000Y62230000D03*
X-29845000Y67310000D03*
X-27940000Y73025000D03*
X-26035000Y80645000D03*
D14*
X-31811055Y77473642D03*
X-22860000Y80010000D03*
X-15240000Y78740000D03*
X-16510000Y72390000D03*
X-26035000Y74295000D03*
D13*
X13335000Y85090000D03*
X17145000Y81280000D03*
X17145000Y78105000D03*
X-6985000Y82550000D03*
X-6350000Y68580000D03*
X10795000Y74950019D03*
X2167810Y54417257D03*
X-25892175Y64627175D03*
X-26035000Y69759990D03*
D14*
X-6350000Y75565000D03*
X-2540000Y74295000D03*
X-12065000Y71800011D03*
X-5080000Y86995000D03*
X17145000Y71755000D03*
X9525000Y69850000D03*
D13*
X3175000Y65405000D03*
X6350000Y93980000D03*
X-22225000Y90170000D03*
X-21590000Y112395000D03*
D14*
X6350000Y73660000D03*
X-31806386Y85147159D03*
D13*
X19685000Y83820000D03*
X21135012Y84520447D03*
X-13774840Y125925160D03*
D14*
X-3429000Y82423000D03*
D13*
X24130000Y123825000D03*
X24130000Y122555000D03*
X24130000Y121285000D03*
X24130000Y104775000D03*
X24130000Y103505000D03*
X24130000Y102235000D03*
X-9100000Y89000000D03*
X-2900000Y89000000D03*
X3100000Y89000000D03*
X9100000Y89000000D03*
X15100000Y89000000D03*
X21300000Y89000000D03*
D14*
X-11024978Y85512213D03*
D13*
X-12800000Y85400000D03*
X-12800000Y79300000D03*
X-12800000Y73300000D03*
X-12800000Y67400000D03*
X-9100000Y63800000D03*
X-3000000Y63800000D03*
X3100000Y63800000D03*
X9100000Y63800000D03*
X15100000Y63800000D03*
X21300000Y63800000D03*
X25100000Y67400000D03*
X25100000Y73300000D03*
X25100000Y79400000D03*
X25100000Y85300000D03*
D14*
%TO.N,+3V3*%
X1270000Y92710000D03*
X2540000Y86995000D03*
D13*
X5715000Y71755000D03*
X-30480000Y107190000D03*
X1270000Y92710000D03*
X2540000Y86995000D03*
%TO.N,+5V*%
X-27940000Y80645000D03*
X5715000Y55245000D03*
X-31115000Y80010000D03*
X-29210000Y72390000D03*
X-30480000Y88265000D03*
X19685000Y121285000D03*
X19685000Y122555000D03*
X19685000Y123825000D03*
X-10160000Y82550000D03*
X-5715000Y82444989D03*
X-8890000Y66675000D03*
D14*
X10160000Y71755000D03*
D13*
X-10160000Y75020010D03*
%TO.N,Net-(C11-Pad1)*%
X-9525000Y110490000D03*
X-11974990Y113665000D03*
%TO.N,+9V*%
X-10795000Y84455000D03*
X20320000Y113030000D03*
X20320000Y111760000D03*
X20320000Y111760000D03*
X20320000Y110490000D03*
D14*
X9525000Y80645000D03*
X3175000Y53975000D03*
X-31115000Y66040000D03*
X-29845000Y69850000D03*
X9525000Y90805000D03*
D13*
%TO.N,-9V*%
X20320000Y103505000D03*
X20320000Y102235000D03*
X20320000Y100965000D03*
D14*
X-26035000Y66040000D03*
X-26035000Y60960000D03*
X-1270000Y50800000D03*
X12700000Y74930000D03*
%TO.N,/COMP*%
X8255000Y69850000D03*
X6985000Y121920000D03*
%TO.N,/S&H*%
X20955000Y86995000D03*
X5080000Y125095000D03*
%TO.N,/DAC_S*%
X-31750000Y76200000D03*
X-17145000Y120650000D03*
%TO.N,/ADC_S*%
X-11430000Y69850000D03*
%TO.N,/DAC_C*%
X-31750000Y79375000D03*
X-31115000Y89535000D03*
%TO.N,/ADC_C*%
X-11398972Y73702673D03*
X-11463472Y80736038D03*
%TO.N,/DAC_L*%
X-31884976Y78220000D03*
X-23495000Y90170000D03*
%TO.N,/ADC_L*%
X-11824990Y73085399D03*
X-11824990Y80078906D03*
D13*
%TO.N,Net-(R38-Pad1)*%
X4348500Y54559183D03*
X7075010Y54610000D03*
D14*
%TO.N,Net-(R65-Pad2)*%
X19685000Y86995000D03*
X19685000Y91440000D03*
%TO.N,Net-(RV2-Pad2)*%
X20320000Y87630000D03*
X20320000Y95250000D03*
%TO.N,Net-(U1-Pad9)*%
X-11065001Y74565001D03*
X-8891832Y74936341D03*
%TO.N,Net-(U1-Pad15)*%
X-6985000Y69850000D03*
X-10680791Y69815295D03*
%TO.N,Net-(U2-Pad15)*%
X-6985000Y77470000D03*
X-10214437Y77524437D03*
%TO.N,Net-(U12-Pad15)*%
X-31115000Y75565000D03*
X-27305000Y75565000D03*
%TO.N,Net-(U13-Pad15)*%
X-31115000Y83185000D03*
X-27305000Y83185000D03*
%TO.N,Net-(JP2-Pad3)*%
X15875000Y69850000D03*
X-3175000Y58360000D03*
%TO.N,Net-(JP2-Pad1)*%
X18415000Y78105000D03*
X23495000Y78105000D03*
X18415000Y80010000D03*
%TO.N,Net-(JP3-Pad2)*%
X-15240000Y63500000D03*
X-28575000Y63500000D03*
D13*
%TO.N,/Vref_5V*%
X-2540000Y75565000D03*
X-2540000Y86995000D03*
D14*
X-2540000Y83185000D03*
D13*
X-22950010Y88900000D03*
X-22769990Y81280000D03*
%TD*%
D15*
%TO.N,GND*%
G36*
X26264001Y121939950D02*
G01*
X26264000Y121939940D01*
X26264001Y100349950D01*
X26264000Y100349940D01*
X26264000Y91567000D01*
X20328590Y91567000D01*
X20315790Y91631348D01*
X20266340Y91750732D01*
X20194548Y91858176D01*
X20103176Y91949548D01*
X19995732Y92021340D01*
X19876348Y92070790D01*
X19749610Y92096000D01*
X19620390Y92096000D01*
X19493652Y92070790D01*
X19374268Y92021340D01*
X19266824Y91949548D01*
X19175452Y91858176D01*
X19103660Y91750732D01*
X19054210Y91631348D01*
X19041410Y91567000D01*
X-25273000Y91567000D01*
X-25273000Y92786922D01*
X489000Y92786922D01*
X489000Y92633078D01*
X519013Y92482191D01*
X577887Y92340058D01*
X663358Y92212141D01*
X772141Y92103358D01*
X900058Y92017887D01*
X1042191Y91959013D01*
X1193078Y91929000D01*
X1346922Y91929000D01*
X1497809Y91959013D01*
X1639942Y92017887D01*
X1767859Y92103358D01*
X1876642Y92212141D01*
X1962113Y92340058D01*
X2020987Y92482191D01*
X2051000Y92633078D01*
X2051000Y92786922D01*
X2020987Y92937809D01*
X1962113Y93079942D01*
X1876642Y93207859D01*
X1767859Y93316642D01*
X1639942Y93402113D01*
X1497809Y93460987D01*
X1346922Y93491000D01*
X1193078Y93491000D01*
X1042191Y93460987D01*
X900058Y93402113D01*
X772141Y93316642D01*
X663358Y93207859D01*
X577887Y93079942D01*
X519013Y92937809D01*
X489000Y92786922D01*
X-25273000Y92786922D01*
X-25273000Y94066771D01*
X18804000Y94066771D01*
X18804000Y93893229D01*
X18837856Y93723022D01*
X18904268Y93562690D01*
X19000682Y93418395D01*
X19123395Y93295682D01*
X19267690Y93199268D01*
X19428022Y93132856D01*
X19598229Y93099000D01*
X19771771Y93099000D01*
X19941978Y93132856D01*
X20102310Y93199268D01*
X20246605Y93295682D01*
X20369318Y93418395D01*
X20465732Y93562690D01*
X20532144Y93723022D01*
X20566000Y93893229D01*
X20566000Y94066771D01*
X23884000Y94066771D01*
X23884000Y93893229D01*
X23917856Y93723022D01*
X23984268Y93562690D01*
X24080682Y93418395D01*
X24203395Y93295682D01*
X24347690Y93199268D01*
X24508022Y93132856D01*
X24678229Y93099000D01*
X24851771Y93099000D01*
X25021978Y93132856D01*
X25182310Y93199268D01*
X25326605Y93295682D01*
X25449318Y93418395D01*
X25545732Y93562690D01*
X25612144Y93723022D01*
X25646000Y93893229D01*
X25646000Y94066771D01*
X25612144Y94236978D01*
X25545732Y94397310D01*
X25449318Y94541605D01*
X25326605Y94664318D01*
X25182310Y94760732D01*
X25021978Y94827144D01*
X24851771Y94861000D01*
X24678229Y94861000D01*
X24508022Y94827144D01*
X24347690Y94760732D01*
X24203395Y94664318D01*
X24080682Y94541605D01*
X23984268Y94397310D01*
X23917856Y94236978D01*
X23884000Y94066771D01*
X20566000Y94066771D01*
X20532144Y94236978D01*
X20465732Y94397310D01*
X20369318Y94541605D01*
X20316923Y94594000D01*
X20384610Y94594000D01*
X20511348Y94619210D01*
X20630732Y94668660D01*
X20738176Y94740452D01*
X20829548Y94831824D01*
X20901340Y94939268D01*
X20950790Y95058652D01*
X20976000Y95185390D01*
X20976000Y95314610D01*
X20950790Y95441348D01*
X20901340Y95560732D01*
X20829548Y95668176D01*
X20738176Y95759548D01*
X20630732Y95831340D01*
X20511348Y95880790D01*
X20384610Y95906000D01*
X20255390Y95906000D01*
X20128652Y95880790D01*
X20009268Y95831340D01*
X19901824Y95759548D01*
X19810452Y95668176D01*
X19738660Y95560732D01*
X19689210Y95441348D01*
X19664000Y95314610D01*
X19664000Y95185390D01*
X19689210Y95058652D01*
X19738660Y94939268D01*
X19793898Y94856599D01*
X19771771Y94861000D01*
X19598229Y94861000D01*
X19428022Y94827144D01*
X19267690Y94760732D01*
X19123395Y94664318D01*
X19000682Y94541605D01*
X18904268Y94397310D01*
X18837856Y94236978D01*
X18804000Y94066771D01*
X-25273000Y94066771D01*
X-25273000Y96606771D01*
X21344000Y96606771D01*
X21344000Y96433229D01*
X21377856Y96263022D01*
X21444268Y96102690D01*
X21540682Y95958395D01*
X21663395Y95835682D01*
X21807690Y95739268D01*
X21968022Y95672856D01*
X22138229Y95639000D01*
X22311771Y95639000D01*
X22481978Y95672856D01*
X22642310Y95739268D01*
X22786605Y95835682D01*
X22909318Y95958395D01*
X23005732Y96102690D01*
X23072144Y96263022D01*
X23106000Y96433229D01*
X23106000Y96606771D01*
X23072144Y96776978D01*
X23005732Y96937310D01*
X22909318Y97081605D01*
X22786605Y97204318D01*
X22642310Y97300732D01*
X22481978Y97367144D01*
X22311771Y97401000D01*
X22138229Y97401000D01*
X21968022Y97367144D01*
X21807690Y97300732D01*
X21663395Y97204318D01*
X21540682Y97081605D01*
X21444268Y96937310D01*
X21377856Y96776978D01*
X21344000Y96606771D01*
X-25273000Y96606771D01*
X-25273000Y103581922D01*
X19539000Y103581922D01*
X19539000Y103428078D01*
X19569013Y103277191D01*
X19627887Y103135058D01*
X19713358Y103007141D01*
X19822141Y102898358D01*
X19864582Y102870000D01*
X19822141Y102841642D01*
X19713358Y102732859D01*
X19627887Y102604942D01*
X19569013Y102462809D01*
X19539000Y102311922D01*
X19539000Y102158078D01*
X19569013Y102007191D01*
X19627887Y101865058D01*
X19713358Y101737141D01*
X19822141Y101628358D01*
X19864582Y101600000D01*
X19822141Y101571642D01*
X19713358Y101462859D01*
X19627887Y101334942D01*
X19569013Y101192809D01*
X19539000Y101041922D01*
X19539000Y100888078D01*
X19569013Y100737191D01*
X19627887Y100595058D01*
X19713358Y100467141D01*
X19822141Y100358358D01*
X19950058Y100272887D01*
X20092191Y100214013D01*
X20243078Y100184000D01*
X20396922Y100184000D01*
X20547809Y100214013D01*
X20689942Y100272887D01*
X20817859Y100358358D01*
X20926642Y100467141D01*
X21012113Y100595058D01*
X21070987Y100737191D01*
X21101000Y100888078D01*
X21101000Y101041922D01*
X21070987Y101192809D01*
X21012113Y101334942D01*
X20926642Y101462859D01*
X20817859Y101571642D01*
X20775418Y101600000D01*
X20817859Y101628358D01*
X20926642Y101737141D01*
X21012113Y101865058D01*
X21070987Y102007191D01*
X21101000Y102158078D01*
X21101000Y102311922D01*
X21070987Y102462809D01*
X21012113Y102604942D01*
X20926642Y102732859D01*
X20817859Y102841642D01*
X20775418Y102870000D01*
X20817859Y102898358D01*
X20926642Y103007141D01*
X21012113Y103135058D01*
X21070987Y103277191D01*
X21101000Y103428078D01*
X21101000Y103581922D01*
X21070987Y103732809D01*
X21012113Y103874942D01*
X20926642Y104002859D01*
X20817859Y104111642D01*
X20689942Y104197113D01*
X20547809Y104255987D01*
X20396922Y104286000D01*
X20243078Y104286000D01*
X20092191Y104255987D01*
X19950058Y104197113D01*
X19822141Y104111642D01*
X19713358Y104002859D01*
X19627887Y103874942D01*
X19569013Y103732809D01*
X19539000Y103581922D01*
X-25273000Y103581922D01*
X-25273000Y110566922D01*
X-10306000Y110566922D01*
X-10306000Y110413078D01*
X-10275987Y110262191D01*
X-10217113Y110120058D01*
X-10131642Y109992141D01*
X-10022859Y109883358D01*
X-9894942Y109797887D01*
X-9752809Y109739013D01*
X-9601922Y109709000D01*
X-9448078Y109709000D01*
X-9297191Y109739013D01*
X-9155058Y109797887D01*
X-9027141Y109883358D01*
X-8918358Y109992141D01*
X-8832887Y110120058D01*
X-8774013Y110262191D01*
X-8744000Y110413078D01*
X-8744000Y110566922D01*
X-8774013Y110717809D01*
X-8832887Y110859942D01*
X-8918358Y110987859D01*
X-9027141Y111096642D01*
X-9155058Y111182113D01*
X-9297191Y111240987D01*
X-9448078Y111271000D01*
X-9601922Y111271000D01*
X-9752809Y111240987D01*
X-9894942Y111182113D01*
X-10022859Y111096642D01*
X-10131642Y110987859D01*
X-10217113Y110859942D01*
X-10275987Y110717809D01*
X-10306000Y110566922D01*
X-25273000Y110566922D01*
X-25273000Y113741922D01*
X-12755990Y113741922D01*
X-12755990Y113588078D01*
X-12725977Y113437191D01*
X-12667103Y113295058D01*
X-12581632Y113167141D01*
X-12472849Y113058358D01*
X-12344932Y112972887D01*
X-12202799Y112914013D01*
X-12051912Y112884000D01*
X-11898068Y112884000D01*
X-11747181Y112914013D01*
X-11605048Y112972887D01*
X-11477131Y113058358D01*
X-11428567Y113106922D01*
X19539000Y113106922D01*
X19539000Y112953078D01*
X19569013Y112802191D01*
X19627887Y112660058D01*
X19713358Y112532141D01*
X19822141Y112423358D01*
X19864582Y112395000D01*
X19822141Y112366642D01*
X19713358Y112257859D01*
X19627887Y112129942D01*
X19569013Y111987809D01*
X19539000Y111836922D01*
X19539000Y111683078D01*
X19569013Y111532191D01*
X19627887Y111390058D01*
X19713358Y111262141D01*
X19822141Y111153358D01*
X19864582Y111125000D01*
X19822141Y111096642D01*
X19713358Y110987859D01*
X19627887Y110859942D01*
X19569013Y110717809D01*
X19539000Y110566922D01*
X19539000Y110413078D01*
X19569013Y110262191D01*
X19627887Y110120058D01*
X19713358Y109992141D01*
X19822141Y109883358D01*
X19950058Y109797887D01*
X20092191Y109739013D01*
X20243078Y109709000D01*
X20396922Y109709000D01*
X20547809Y109739013D01*
X20689942Y109797887D01*
X20817859Y109883358D01*
X20926642Y109992141D01*
X21012113Y110120058D01*
X21070987Y110262191D01*
X21101000Y110413078D01*
X21101000Y110566922D01*
X21070987Y110717809D01*
X21012113Y110859942D01*
X20926642Y110987859D01*
X20817859Y111096642D01*
X20775418Y111125000D01*
X20817859Y111153358D01*
X20926642Y111262141D01*
X21012113Y111390058D01*
X21070987Y111532191D01*
X21101000Y111683078D01*
X21101000Y111836922D01*
X21070987Y111987809D01*
X21012113Y112129942D01*
X20926642Y112257859D01*
X20817859Y112366642D01*
X20775418Y112395000D01*
X20817859Y112423358D01*
X20926642Y112532141D01*
X21012113Y112660058D01*
X21070987Y112802191D01*
X21101000Y112953078D01*
X21101000Y113106922D01*
X21070987Y113257809D01*
X21012113Y113399942D01*
X20926642Y113527859D01*
X20817859Y113636642D01*
X20689942Y113722113D01*
X20547809Y113780987D01*
X20396922Y113811000D01*
X20243078Y113811000D01*
X20092191Y113780987D01*
X19950058Y113722113D01*
X19822141Y113636642D01*
X19713358Y113527859D01*
X19627887Y113399942D01*
X19569013Y113257809D01*
X19539000Y113106922D01*
X-11428567Y113106922D01*
X-11368348Y113167141D01*
X-11282877Y113295058D01*
X-11224003Y113437191D01*
X-11193990Y113588078D01*
X-11193990Y113741922D01*
X-11224003Y113892809D01*
X-11282877Y114034942D01*
X-11368348Y114162859D01*
X-11477131Y114271642D01*
X-11605048Y114357113D01*
X-11747181Y114415987D01*
X-11898068Y114446000D01*
X-12051912Y114446000D01*
X-12202799Y114415987D01*
X-12344932Y114357113D01*
X-12472849Y114271642D01*
X-12581632Y114162859D01*
X-12667103Y114034942D01*
X-12725977Y113892809D01*
X-12755990Y113741922D01*
X-25273000Y113741922D01*
X-25273000Y118745000D01*
X-25275440Y118769776D01*
X-25282667Y118793601D01*
X-25294403Y118815557D01*
X-25310197Y118834803D01*
X-25329443Y118850597D01*
X-25351399Y118862333D01*
X-25375224Y118869560D01*
X-25400000Y118872000D01*
X-26035000Y118872000D01*
X-26059776Y118869560D01*
X-26083601Y118862333D01*
X-26105557Y118850597D01*
X-26124803Y118834803D01*
X-26140597Y118815557D01*
X-26152333Y118793601D01*
X-26159560Y118769776D01*
X-26162000Y118745000D01*
X-26162000Y90805000D01*
X-26159560Y90780224D01*
X-26152333Y90756399D01*
X-26140597Y90734443D01*
X-26124803Y90715197D01*
X-26105557Y90699403D01*
X-26083601Y90687667D01*
X-26059776Y90680440D01*
X-26035000Y90678000D01*
X-23914724Y90678000D01*
X-24004548Y90588176D01*
X-24076340Y90480732D01*
X-24125790Y90361348D01*
X-24151000Y90234610D01*
X-24151000Y90105390D01*
X-24125790Y89978652D01*
X-24076340Y89859268D01*
X-24004548Y89751824D01*
X-23913176Y89660452D01*
X-23805732Y89588660D01*
X-23686348Y89539210D01*
X-23559610Y89514000D01*
X-23436857Y89514000D01*
X-23447869Y89506642D01*
X-23556652Y89397859D01*
X-23642123Y89269942D01*
X-23700997Y89127809D01*
X-23731010Y88976922D01*
X-23731010Y88823078D01*
X-23700997Y88672191D01*
X-23642123Y88530058D01*
X-23556652Y88402141D01*
X-23447869Y88293358D01*
X-23319952Y88207887D01*
X-23177819Y88149013D01*
X-23026932Y88119000D01*
X-22873088Y88119000D01*
X-22722201Y88149013D01*
X-22580068Y88207887D01*
X-22452151Y88293358D01*
X-22343368Y88402141D01*
X-22257897Y88530058D01*
X-22199023Y88672191D01*
X-22169010Y88823078D01*
X-22169010Y88976922D01*
X-22199023Y89127809D01*
X-22257897Y89269942D01*
X-22343368Y89397859D01*
X-22452151Y89506642D01*
X-22580068Y89592113D01*
X-22722201Y89650987D01*
X-22873088Y89681000D01*
X-23026932Y89681000D01*
X-23063562Y89673714D01*
X-22985452Y89751824D01*
X-22913660Y89859268D01*
X-22864210Y89978652D01*
X-22839000Y90105390D01*
X-22839000Y90234610D01*
X-22864210Y90361348D01*
X-22913660Y90480732D01*
X-22985452Y90588176D01*
X-23075276Y90678000D01*
X8881410Y90678000D01*
X8894210Y90613652D01*
X8943660Y90494268D01*
X9015452Y90386824D01*
X9106824Y90295452D01*
X9214268Y90223660D01*
X9333652Y90174210D01*
X9460390Y90149000D01*
X9589610Y90149000D01*
X9716348Y90174210D01*
X9835732Y90223660D01*
X9943176Y90295452D01*
X10034548Y90386824D01*
X10106340Y90494268D01*
X10155790Y90613652D01*
X10168590Y90678000D01*
X26264000Y90678000D01*
X26264001Y81089500D01*
X10008224Y81089500D01*
X9943176Y81154548D01*
X9835732Y81226340D01*
X9716348Y81275790D01*
X9589610Y81301000D01*
X9460390Y81301000D01*
X9333652Y81275790D01*
X9214268Y81226340D01*
X9106824Y81154548D01*
X9041776Y81089500D01*
X-10910683Y81089500D01*
X-10953924Y81154214D01*
X-11045296Y81245586D01*
X-11152740Y81317378D01*
X-11272124Y81366828D01*
X-11398862Y81392038D01*
X-11528082Y81392038D01*
X-11654820Y81366828D01*
X-11774204Y81317378D01*
X-11881648Y81245586D01*
X-11973020Y81154214D01*
X-12016261Y81089500D01*
X-22011582Y81089500D01*
X-21988990Y81203078D01*
X-21988990Y81356922D01*
X-22019003Y81507809D01*
X-22077877Y81649942D01*
X-22163348Y81777859D01*
X-22272131Y81886642D01*
X-22400048Y81972113D01*
X-22542181Y82030987D01*
X-22693068Y82061000D01*
X-22846912Y82061000D01*
X-22997799Y82030987D01*
X-23139932Y81972113D01*
X-23267849Y81886642D01*
X-23376632Y81777859D01*
X-23462103Y81649942D01*
X-23520977Y81507809D01*
X-23550990Y81356922D01*
X-23550990Y81203078D01*
X-23528398Y81089500D01*
X-27297705Y81089500D01*
X-27333358Y81142859D01*
X-27442141Y81251642D01*
X-27570058Y81337113D01*
X-27712191Y81395987D01*
X-27863078Y81426000D01*
X-28016922Y81426000D01*
X-28167809Y81395987D01*
X-28309942Y81337113D01*
X-28437859Y81251642D01*
X-28546642Y81142859D01*
X-28582295Y81089500D01*
X-31979000Y81089500D01*
X-31979000Y83249610D01*
X-31771000Y83249610D01*
X-31771000Y83120390D01*
X-31745790Y82993652D01*
X-31696340Y82874268D01*
X-31624548Y82766824D01*
X-31533176Y82675452D01*
X-31425732Y82603660D01*
X-31306348Y82554210D01*
X-31179610Y82529000D01*
X-31050390Y82529000D01*
X-30923652Y82554210D01*
X-30804268Y82603660D01*
X-30696824Y82675452D01*
X-30605452Y82766824D01*
X-30533660Y82874268D01*
X-30484210Y82993652D01*
X-30459000Y83120390D01*
X-30459000Y83249610D01*
X-27961000Y83249610D01*
X-27961000Y83120390D01*
X-27935790Y82993652D01*
X-27886340Y82874268D01*
X-27814548Y82766824D01*
X-27723176Y82675452D01*
X-27615732Y82603660D01*
X-27496348Y82554210D01*
X-27369610Y82529000D01*
X-27240390Y82529000D01*
X-27113652Y82554210D01*
X-26994268Y82603660D01*
X-26959455Y82626922D01*
X-10941000Y82626922D01*
X-10941000Y82473078D01*
X-10910987Y82322191D01*
X-10852113Y82180058D01*
X-10766642Y82052141D01*
X-10657859Y81943358D01*
X-10529942Y81857887D01*
X-10387809Y81799013D01*
X-10236922Y81769000D01*
X-10083078Y81769000D01*
X-9932191Y81799013D01*
X-9790058Y81857887D01*
X-9662141Y81943358D01*
X-9553358Y82052141D01*
X-9467887Y82180058D01*
X-9409013Y82322191D01*
X-9379000Y82473078D01*
X-9379000Y82521911D01*
X-6496000Y82521911D01*
X-6496000Y82368067D01*
X-6465987Y82217180D01*
X-6407113Y82075047D01*
X-6321642Y81947130D01*
X-6212859Y81838347D01*
X-6084942Y81752876D01*
X-5942809Y81694002D01*
X-5791922Y81663989D01*
X-5638078Y81663989D01*
X-5487191Y81694002D01*
X-5345058Y81752876D01*
X-5217141Y81838347D01*
X-5108358Y81947130D01*
X-5022887Y82075047D01*
X-4964013Y82217180D01*
X-4934000Y82368067D01*
X-4934000Y82521911D01*
X-4964013Y82672798D01*
X-5022887Y82814931D01*
X-5108358Y82942848D01*
X-5217141Y83051631D01*
X-5345058Y83137102D01*
X-5487191Y83195976D01*
X-5638078Y83225989D01*
X-5791922Y83225989D01*
X-5942809Y83195976D01*
X-6084942Y83137102D01*
X-6212859Y83051631D01*
X-6321642Y82942848D01*
X-6407113Y82814931D01*
X-6465987Y82672798D01*
X-6496000Y82521911D01*
X-9379000Y82521911D01*
X-9379000Y82626922D01*
X-9409013Y82777809D01*
X-9467887Y82919942D01*
X-9553358Y83047859D01*
X-9662141Y83156642D01*
X-9790058Y83242113D01*
X-9808157Y83249610D01*
X-3196000Y83249610D01*
X-3196000Y83120390D01*
X-3170790Y82993652D01*
X-3121340Y82874268D01*
X-3049548Y82766824D01*
X-2958176Y82675452D01*
X-2850732Y82603660D01*
X-2731348Y82554210D01*
X-2604610Y82529000D01*
X-2475390Y82529000D01*
X-2348652Y82554210D01*
X-2229268Y82603660D01*
X-2121824Y82675452D01*
X-2030452Y82766824D01*
X-1958660Y82874268D01*
X-1909210Y82993652D01*
X-1884000Y83120390D01*
X-1884000Y83249610D01*
X-1909210Y83376348D01*
X-1958660Y83495732D01*
X-2030452Y83603176D01*
X-2121824Y83694548D01*
X-2229268Y83766340D01*
X-2348652Y83815790D01*
X-2475390Y83841000D01*
X-2604610Y83841000D01*
X-2731348Y83815790D01*
X-2850732Y83766340D01*
X-2958176Y83694548D01*
X-3049548Y83603176D01*
X-3121340Y83495732D01*
X-3170790Y83376348D01*
X-3196000Y83249610D01*
X-9808157Y83249610D01*
X-9932191Y83300987D01*
X-10083078Y83331000D01*
X-10236922Y83331000D01*
X-10387809Y83300987D01*
X-10529942Y83242113D01*
X-10657859Y83156642D01*
X-10766642Y83047859D01*
X-10852113Y82919942D01*
X-10910987Y82777809D01*
X-10941000Y82626922D01*
X-26959455Y82626922D01*
X-26886824Y82675452D01*
X-26795452Y82766824D01*
X-26723660Y82874268D01*
X-26674210Y82993652D01*
X-26649000Y83120390D01*
X-26649000Y83249610D01*
X-26674210Y83376348D01*
X-26723660Y83495732D01*
X-26795452Y83603176D01*
X-26886824Y83694548D01*
X-26994268Y83766340D01*
X-27113652Y83815790D01*
X-27240390Y83841000D01*
X-27369610Y83841000D01*
X-27496348Y83815790D01*
X-27615732Y83766340D01*
X-27723176Y83694548D01*
X-27814548Y83603176D01*
X-27886340Y83495732D01*
X-27935790Y83376348D01*
X-27961000Y83249610D01*
X-30459000Y83249610D01*
X-30484210Y83376348D01*
X-30533660Y83495732D01*
X-30605452Y83603176D01*
X-30696824Y83694548D01*
X-30804268Y83766340D01*
X-30923652Y83815790D01*
X-31050390Y83841000D01*
X-31179610Y83841000D01*
X-31306348Y83815790D01*
X-31425732Y83766340D01*
X-31533176Y83694548D01*
X-31624548Y83603176D01*
X-31696340Y83495732D01*
X-31745790Y83376348D01*
X-31771000Y83249610D01*
X-31979000Y83249610D01*
X-31979000Y84531922D01*
X-11576000Y84531922D01*
X-11576000Y84378078D01*
X-11545987Y84227191D01*
X-11487113Y84085058D01*
X-11401642Y83957141D01*
X-11292859Y83848358D01*
X-11164942Y83762887D01*
X-11022809Y83704013D01*
X-10871922Y83674000D01*
X-10718078Y83674000D01*
X-10567191Y83704013D01*
X-10425058Y83762887D01*
X-10297141Y83848358D01*
X-10188358Y83957141D01*
X-10102887Y84085058D01*
X-10044013Y84227191D01*
X-10014000Y84378078D01*
X-10014000Y84531922D01*
X-10044013Y84682809D01*
X-10102887Y84824942D01*
X-10188358Y84952859D01*
X-10297141Y85061642D01*
X-10425058Y85147113D01*
X-10567191Y85205987D01*
X-10718078Y85236000D01*
X-10871922Y85236000D01*
X-11022809Y85205987D01*
X-11164942Y85147113D01*
X-11292859Y85061642D01*
X-11401642Y84952859D01*
X-11487113Y84824942D01*
X-11545987Y84682809D01*
X-11576000Y84531922D01*
X-31979000Y84531922D01*
X-31979000Y87071922D01*
X-3321000Y87071922D01*
X-3321000Y86918078D01*
X-3290987Y86767191D01*
X-3232113Y86625058D01*
X-3146642Y86497141D01*
X-3037859Y86388358D01*
X-2909942Y86302887D01*
X-2767809Y86244013D01*
X-2616922Y86214000D01*
X-2463078Y86214000D01*
X-2312191Y86244013D01*
X-2170058Y86302887D01*
X-2042141Y86388358D01*
X-1933358Y86497141D01*
X-1847887Y86625058D01*
X-1789013Y86767191D01*
X-1759000Y86918078D01*
X-1759000Y87071922D01*
X1759000Y87071922D01*
X1759000Y86918078D01*
X1789013Y86767191D01*
X1847887Y86625058D01*
X1933358Y86497141D01*
X2042141Y86388358D01*
X2170058Y86302887D01*
X2312191Y86244013D01*
X2463078Y86214000D01*
X2616922Y86214000D01*
X2767809Y86244013D01*
X2909942Y86302887D01*
X3037859Y86388358D01*
X3146642Y86497141D01*
X3232113Y86625058D01*
X3290987Y86767191D01*
X3321000Y86918078D01*
X3321000Y87059610D01*
X19029000Y87059610D01*
X19029000Y86930390D01*
X19054210Y86803652D01*
X19103660Y86684268D01*
X19175452Y86576824D01*
X19266824Y86485452D01*
X19374268Y86413660D01*
X19493652Y86364210D01*
X19620390Y86339000D01*
X19749610Y86339000D01*
X19876348Y86364210D01*
X19995732Y86413660D01*
X20103176Y86485452D01*
X20194548Y86576824D01*
X20266340Y86684268D01*
X20315790Y86803652D01*
X20320000Y86824817D01*
X20324210Y86803652D01*
X20373660Y86684268D01*
X20445452Y86576824D01*
X20536824Y86485452D01*
X20644268Y86413660D01*
X20763652Y86364210D01*
X20890390Y86339000D01*
X21019610Y86339000D01*
X21146348Y86364210D01*
X21265732Y86413660D01*
X21373176Y86485452D01*
X21464548Y86576824D01*
X21536340Y86684268D01*
X21585790Y86803652D01*
X21611000Y86930390D01*
X21611000Y87059610D01*
X21585790Y87186348D01*
X21536340Y87305732D01*
X21464548Y87413176D01*
X21373176Y87504548D01*
X21265732Y87576340D01*
X21146348Y87625790D01*
X21019610Y87651000D01*
X20976000Y87651000D01*
X20976000Y87694610D01*
X20950790Y87821348D01*
X20901340Y87940732D01*
X20829548Y88048176D01*
X20738176Y88139548D01*
X20630732Y88211340D01*
X20511348Y88260790D01*
X20384610Y88286000D01*
X20255390Y88286000D01*
X20128652Y88260790D01*
X20009268Y88211340D01*
X19901824Y88139548D01*
X19810452Y88048176D01*
X19738660Y87940732D01*
X19689210Y87821348D01*
X19664000Y87694610D01*
X19664000Y87651000D01*
X19620390Y87651000D01*
X19493652Y87625790D01*
X19374268Y87576340D01*
X19266824Y87504548D01*
X19175452Y87413176D01*
X19103660Y87305732D01*
X19054210Y87186348D01*
X19029000Y87059610D01*
X3321000Y87059610D01*
X3321000Y87071922D01*
X3290987Y87222809D01*
X3232113Y87364942D01*
X3146642Y87492859D01*
X3037859Y87601642D01*
X2909942Y87687113D01*
X2767809Y87745987D01*
X2616922Y87776000D01*
X2463078Y87776000D01*
X2312191Y87745987D01*
X2170058Y87687113D01*
X2042141Y87601642D01*
X1933358Y87492859D01*
X1847887Y87364942D01*
X1789013Y87222809D01*
X1759000Y87071922D01*
X-1759000Y87071922D01*
X-1789013Y87222809D01*
X-1847887Y87364942D01*
X-1933358Y87492859D01*
X-2042141Y87601642D01*
X-2170058Y87687113D01*
X-2312191Y87745987D01*
X-2463078Y87776000D01*
X-2616922Y87776000D01*
X-2767809Y87745987D01*
X-2909942Y87687113D01*
X-3037859Y87601642D01*
X-3146642Y87492859D01*
X-3232113Y87364942D01*
X-3290987Y87222809D01*
X-3321000Y87071922D01*
X-31979000Y87071922D01*
X-31979000Y89599610D01*
X-31771000Y89599610D01*
X-31771000Y89470390D01*
X-31745790Y89343652D01*
X-31696340Y89224268D01*
X-31624548Y89116824D01*
X-31533176Y89025452D01*
X-31425732Y88953660D01*
X-31306348Y88904210D01*
X-31179610Y88879000D01*
X-31050390Y88879000D01*
X-30931434Y88902662D01*
X-30977859Y88871642D01*
X-31086642Y88762859D01*
X-31172113Y88634942D01*
X-31230987Y88492809D01*
X-31261000Y88341922D01*
X-31261000Y88188078D01*
X-31230987Y88037191D01*
X-31172113Y87895058D01*
X-31086642Y87767141D01*
X-30977859Y87658358D01*
X-30849942Y87572887D01*
X-30707809Y87514013D01*
X-30556922Y87484000D01*
X-30403078Y87484000D01*
X-30252191Y87514013D01*
X-30110058Y87572887D01*
X-29982141Y87658358D01*
X-29873358Y87767141D01*
X-29787887Y87895058D01*
X-29729013Y88037191D01*
X-29699000Y88188078D01*
X-29699000Y88341922D01*
X-29729013Y88492809D01*
X-29787887Y88634942D01*
X-29873358Y88762859D01*
X-29982141Y88871642D01*
X-30110058Y88957113D01*
X-30252191Y89015987D01*
X-30403078Y89046000D01*
X-30556922Y89046000D01*
X-30707809Y89015987D01*
X-30716177Y89012521D01*
X-30696824Y89025452D01*
X-30605452Y89116824D01*
X-30533660Y89224268D01*
X-30484210Y89343652D01*
X-30459000Y89470390D01*
X-30459000Y89599610D01*
X-30484210Y89726348D01*
X-30533660Y89845732D01*
X-30605452Y89953176D01*
X-30696824Y90044548D01*
X-30804268Y90116340D01*
X-30923652Y90165790D01*
X-31050390Y90191000D01*
X-31179610Y90191000D01*
X-31306348Y90165790D01*
X-31425732Y90116340D01*
X-31533176Y90044548D01*
X-31624548Y89953176D01*
X-31696340Y89845732D01*
X-31745790Y89726348D01*
X-31771000Y89599610D01*
X-31979000Y89599610D01*
X-31979000Y107266922D01*
X-31261000Y107266922D01*
X-31261000Y107113078D01*
X-31230987Y106962191D01*
X-31172113Y106820058D01*
X-31086642Y106692141D01*
X-30977859Y106583358D01*
X-30849942Y106497887D01*
X-30707809Y106439013D01*
X-30556922Y106409000D01*
X-30403078Y106409000D01*
X-30252191Y106439013D01*
X-30110058Y106497887D01*
X-29982141Y106583358D01*
X-29873358Y106692141D01*
X-29787887Y106820058D01*
X-29729013Y106962191D01*
X-29699000Y107113078D01*
X-29699000Y107266922D01*
X-29729013Y107417809D01*
X-29787887Y107559942D01*
X-29873358Y107687859D01*
X-29982141Y107796642D01*
X-30110058Y107882113D01*
X-30252191Y107940987D01*
X-30403078Y107971000D01*
X-30556922Y107971000D01*
X-30707809Y107940987D01*
X-30849942Y107882113D01*
X-30977859Y107796642D01*
X-31086642Y107687859D01*
X-31172113Y107559942D01*
X-31230987Y107417809D01*
X-31261000Y107266922D01*
X-31979000Y107266922D01*
X-31979000Y120714610D01*
X-17801000Y120714610D01*
X-17801000Y120585390D01*
X-17775790Y120458652D01*
X-17726340Y120339268D01*
X-17654548Y120231824D01*
X-17563176Y120140452D01*
X-17455732Y120068660D01*
X-17336348Y120019210D01*
X-17209610Y119994000D01*
X-17080390Y119994000D01*
X-16953652Y120019210D01*
X-16834268Y120068660D01*
X-16726824Y120140452D01*
X-16635452Y120231824D01*
X-16563660Y120339268D01*
X-16514210Y120458652D01*
X-16489000Y120585390D01*
X-16489000Y120714610D01*
X-16514210Y120841348D01*
X-16563660Y120960732D01*
X-16635452Y121068176D01*
X-16726824Y121159548D01*
X-16834268Y121231340D01*
X-16953652Y121280790D01*
X-17080390Y121306000D01*
X-17209610Y121306000D01*
X-17336348Y121280790D01*
X-17455732Y121231340D01*
X-17563176Y121159548D01*
X-17654548Y121068176D01*
X-17726340Y120960732D01*
X-17775790Y120841348D01*
X-17801000Y120714610D01*
X-31979000Y120714610D01*
X-31979000Y122833109D01*
X-31286481Y122833109D01*
X-31189157Y122558748D01*
X-31040178Y122308645D01*
X-30845269Y122092412D01*
X-30611920Y121918359D01*
X-30349099Y121793175D01*
X-30201890Y121748524D01*
X-29972000Y121869845D01*
X-29972000Y123063000D01*
X-31165814Y123063000D01*
X-31286481Y122833109D01*
X-31979000Y122833109D01*
X-31979000Y125373109D01*
X-31286481Y125373109D01*
X-31189157Y125098748D01*
X-31040178Y124848645D01*
X-30845269Y124632412D01*
X-30614120Y124460000D01*
X-30845269Y124287588D01*
X-31040178Y124071355D01*
X-31189157Y123821252D01*
X-31286481Y123546891D01*
X-31165814Y123317000D01*
X-29972000Y123317000D01*
X-29972000Y125603000D01*
X-31165814Y125603000D01*
X-31286481Y125373109D01*
X-31979000Y125373109D01*
X-31979000Y126086891D01*
X-31286481Y126086891D01*
X-31165814Y125857000D01*
X-29972000Y125857000D01*
X-29972000Y127050155D01*
X-29718000Y127050155D01*
X-29718000Y125857000D01*
X-29698000Y125857000D01*
X-29698000Y125603000D01*
X-29718000Y125603000D01*
X-29718000Y123317000D01*
X-29698000Y123317000D01*
X-29698000Y123063000D01*
X-29718000Y123063000D01*
X-29718000Y121869845D01*
X-29488110Y121748524D01*
X-29340901Y121793175D01*
X-29078080Y121918359D01*
X-28844731Y122092412D01*
X-28649822Y122308645D01*
X-28500843Y122558748D01*
X-28443228Y122721168D01*
X-28395898Y122606903D01*
X-28261180Y122405283D01*
X-28089717Y122233820D01*
X-27888097Y122099102D01*
X-27664069Y122006307D01*
X-27426243Y121959000D01*
X-27183757Y121959000D01*
X-26945931Y122006307D01*
X-26721903Y122099102D01*
X-26520283Y122233820D01*
X-26348820Y122405283D01*
X-26214102Y122606903D01*
X-26121307Y122830931D01*
X-26074000Y123068757D01*
X-26074000Y123311243D01*
X-25996000Y123311243D01*
X-25996000Y123068757D01*
X-25948693Y122830931D01*
X-25855898Y122606903D01*
X-25721180Y122405283D01*
X-25549717Y122233820D01*
X-25348097Y122099102D01*
X-25124069Y122006307D01*
X-24886243Y121959000D01*
X-24643757Y121959000D01*
X-24405931Y122006307D01*
X-24181903Y122099102D01*
X-23980283Y122233820D01*
X-23808820Y122405283D01*
X-23674102Y122606903D01*
X-23581307Y122830931D01*
X-23534000Y123068757D01*
X-23534000Y123311243D01*
X-23456000Y123311243D01*
X-23456000Y123068757D01*
X-23408693Y122830931D01*
X-23315898Y122606903D01*
X-23181180Y122405283D01*
X-23009717Y122233820D01*
X-22808097Y122099102D01*
X-22584069Y122006307D01*
X-22346243Y121959000D01*
X-22103757Y121959000D01*
X-21865931Y122006307D01*
X-21641903Y122099102D01*
X-21440283Y122233820D01*
X-21268820Y122405283D01*
X-21134102Y122606903D01*
X-21041307Y122830931D01*
X-20994000Y123068757D01*
X-20994000Y123311243D01*
X-20916000Y123311243D01*
X-20916000Y123068757D01*
X-20868693Y122830931D01*
X-20775898Y122606903D01*
X-20641180Y122405283D01*
X-20469717Y122233820D01*
X-20268097Y122099102D01*
X-20044069Y122006307D01*
X-19806243Y121959000D01*
X-19563757Y121959000D01*
X-19325931Y122006307D01*
X-19101903Y122099102D01*
X-18900283Y122233820D01*
X-18728820Y122405283D01*
X-18594102Y122606903D01*
X-18501307Y122830931D01*
X-18454000Y123068757D01*
X-18454000Y123311243D01*
X-18376000Y123311243D01*
X-18376000Y123068757D01*
X-18328693Y122830931D01*
X-18235898Y122606903D01*
X-18101180Y122405283D01*
X-17929717Y122233820D01*
X-17728097Y122099102D01*
X-17504069Y122006307D01*
X-17266243Y121959000D01*
X-17023757Y121959000D01*
X-16895009Y121984610D01*
X6329000Y121984610D01*
X6329000Y121855390D01*
X6354210Y121728652D01*
X6403660Y121609268D01*
X6475452Y121501824D01*
X6566824Y121410452D01*
X6674268Y121338660D01*
X6793652Y121289210D01*
X6920390Y121264000D01*
X7049610Y121264000D01*
X7176348Y121289210D01*
X7295732Y121338660D01*
X7403176Y121410452D01*
X7494548Y121501824D01*
X7566340Y121609268D01*
X7615790Y121728652D01*
X7641000Y121855390D01*
X7641000Y121984610D01*
X7615790Y122111348D01*
X7566340Y122230732D01*
X7494548Y122338176D01*
X7403176Y122429548D01*
X7295732Y122501340D01*
X7176348Y122550790D01*
X7049610Y122576000D01*
X6920390Y122576000D01*
X6793652Y122550790D01*
X6674268Y122501340D01*
X6566824Y122429548D01*
X6475452Y122338176D01*
X6403660Y122230732D01*
X6354210Y122111348D01*
X6329000Y121984610D01*
X-16895009Y121984610D01*
X-16785931Y122006307D01*
X-16561903Y122099102D01*
X-16360283Y122233820D01*
X-16188820Y122405283D01*
X-16054102Y122606903D01*
X-15961307Y122830931D01*
X-15914000Y123068757D01*
X-15914000Y123311243D01*
X-15961307Y123549069D01*
X-16054102Y123773097D01*
X-16140179Y123901922D01*
X18904000Y123901922D01*
X18904000Y123748078D01*
X18934013Y123597191D01*
X18992887Y123455058D01*
X19078358Y123327141D01*
X19187141Y123218358D01*
X19229582Y123190000D01*
X19187141Y123161642D01*
X19078358Y123052859D01*
X18992887Y122924942D01*
X18934013Y122782809D01*
X18904000Y122631922D01*
X18904000Y122478078D01*
X18934013Y122327191D01*
X18992887Y122185058D01*
X19078358Y122057141D01*
X19187141Y121948358D01*
X19229582Y121920000D01*
X19187141Y121891642D01*
X19078358Y121782859D01*
X18992887Y121654942D01*
X18934013Y121512809D01*
X18904000Y121361922D01*
X18904000Y121208078D01*
X18934013Y121057191D01*
X18992887Y120915058D01*
X19078358Y120787141D01*
X19187141Y120678358D01*
X19315058Y120592887D01*
X19457191Y120534013D01*
X19608078Y120504000D01*
X19761922Y120504000D01*
X19912809Y120534013D01*
X20054942Y120592887D01*
X20182859Y120678358D01*
X20291642Y120787141D01*
X20377113Y120915058D01*
X20435987Y121057191D01*
X20466000Y121208078D01*
X20466000Y121361922D01*
X20435987Y121512809D01*
X20377113Y121654942D01*
X20291642Y121782859D01*
X20182859Y121891642D01*
X20140418Y121920000D01*
X20182859Y121948358D01*
X20291642Y122057141D01*
X20377113Y122185058D01*
X20435987Y122327191D01*
X20466000Y122478078D01*
X20466000Y122631922D01*
X20435987Y122782809D01*
X20377113Y122924942D01*
X20291642Y123052859D01*
X20182859Y123161642D01*
X20140418Y123190000D01*
X20182859Y123218358D01*
X20291642Y123327141D01*
X20377113Y123455058D01*
X20435987Y123597191D01*
X20466000Y123748078D01*
X20466000Y123901922D01*
X20435987Y124052809D01*
X20377113Y124194942D01*
X20291642Y124322859D01*
X20182859Y124431642D01*
X20054942Y124517113D01*
X19912809Y124575987D01*
X19761922Y124606000D01*
X19608078Y124606000D01*
X19457191Y124575987D01*
X19315058Y124517113D01*
X19187141Y124431642D01*
X19078358Y124322859D01*
X18992887Y124194942D01*
X18934013Y124052809D01*
X18904000Y123901922D01*
X-16140179Y123901922D01*
X-16188820Y123974717D01*
X-16360283Y124146180D01*
X-16561903Y124280898D01*
X-16785931Y124373693D01*
X-17023757Y124421000D01*
X-17266243Y124421000D01*
X-17504069Y124373693D01*
X-17728097Y124280898D01*
X-17929717Y124146180D01*
X-18101180Y123974717D01*
X-18235898Y123773097D01*
X-18328693Y123549069D01*
X-18376000Y123311243D01*
X-18454000Y123311243D01*
X-18501307Y123549069D01*
X-18594102Y123773097D01*
X-18728820Y123974717D01*
X-18900283Y124146180D01*
X-19101903Y124280898D01*
X-19325931Y124373693D01*
X-19563757Y124421000D01*
X-19806243Y124421000D01*
X-20044069Y124373693D01*
X-20268097Y124280898D01*
X-20469717Y124146180D01*
X-20641180Y123974717D01*
X-20775898Y123773097D01*
X-20868693Y123549069D01*
X-20916000Y123311243D01*
X-20994000Y123311243D01*
X-21041307Y123549069D01*
X-21134102Y123773097D01*
X-21268820Y123974717D01*
X-21440283Y124146180D01*
X-21641903Y124280898D01*
X-21865931Y124373693D01*
X-22103757Y124421000D01*
X-22346243Y124421000D01*
X-22584069Y124373693D01*
X-22808097Y124280898D01*
X-23009717Y124146180D01*
X-23181180Y123974717D01*
X-23315898Y123773097D01*
X-23408693Y123549069D01*
X-23456000Y123311243D01*
X-23534000Y123311243D01*
X-23581307Y123549069D01*
X-23674102Y123773097D01*
X-23808820Y123974717D01*
X-23980283Y124146180D01*
X-24181903Y124280898D01*
X-24405931Y124373693D01*
X-24643757Y124421000D01*
X-24886243Y124421000D01*
X-25124069Y124373693D01*
X-25348097Y124280898D01*
X-25549717Y124146180D01*
X-25721180Y123974717D01*
X-25855898Y123773097D01*
X-25948693Y123549069D01*
X-25996000Y123311243D01*
X-26074000Y123311243D01*
X-26121307Y123549069D01*
X-26214102Y123773097D01*
X-26348820Y123974717D01*
X-26520283Y124146180D01*
X-26721903Y124280898D01*
X-26945931Y124373693D01*
X-27183757Y124421000D01*
X-27426243Y124421000D01*
X-27664069Y124373693D01*
X-27888097Y124280898D01*
X-28089717Y124146180D01*
X-28261180Y123974717D01*
X-28395898Y123773097D01*
X-28443228Y123658832D01*
X-28500843Y123821252D01*
X-28649822Y124071355D01*
X-28844731Y124287588D01*
X-29075880Y124460000D01*
X-28844731Y124632412D01*
X-28649822Y124848645D01*
X-28500843Y125098748D01*
X-28443228Y125261168D01*
X-28395898Y125146903D01*
X-28261180Y124945283D01*
X-28089717Y124773820D01*
X-27888097Y124639102D01*
X-27664069Y124546307D01*
X-27426243Y124499000D01*
X-27183757Y124499000D01*
X-26945931Y124546307D01*
X-26721903Y124639102D01*
X-26520283Y124773820D01*
X-26348820Y124945283D01*
X-26214102Y125146903D01*
X-26121307Y125370931D01*
X-26074000Y125608757D01*
X-26074000Y125851243D01*
X-25996000Y125851243D01*
X-25996000Y125608757D01*
X-25948693Y125370931D01*
X-25855898Y125146903D01*
X-25721180Y124945283D01*
X-25549717Y124773820D01*
X-25348097Y124639102D01*
X-25124069Y124546307D01*
X-24886243Y124499000D01*
X-24643757Y124499000D01*
X-24405931Y124546307D01*
X-24181903Y124639102D01*
X-23980283Y124773820D01*
X-23808820Y124945283D01*
X-23674102Y125146903D01*
X-23581307Y125370931D01*
X-23534000Y125608757D01*
X-23534000Y125851243D01*
X-23456000Y125851243D01*
X-23456000Y125608757D01*
X-23408693Y125370931D01*
X-23315898Y125146903D01*
X-23181180Y124945283D01*
X-23009717Y124773820D01*
X-22808097Y124639102D01*
X-22584069Y124546307D01*
X-22346243Y124499000D01*
X-22103757Y124499000D01*
X-21865931Y124546307D01*
X-21641903Y124639102D01*
X-21440283Y124773820D01*
X-21268820Y124945283D01*
X-21134102Y125146903D01*
X-21041307Y125370931D01*
X-20994000Y125608757D01*
X-20994000Y125851243D01*
X-20916000Y125851243D01*
X-20916000Y125608757D01*
X-20868693Y125370931D01*
X-20775898Y125146903D01*
X-20641180Y124945283D01*
X-20469717Y124773820D01*
X-20268097Y124639102D01*
X-20044069Y124546307D01*
X-19806243Y124499000D01*
X-19563757Y124499000D01*
X-19325931Y124546307D01*
X-19101903Y124639102D01*
X-18900283Y124773820D01*
X-18728820Y124945283D01*
X-18594102Y125146903D01*
X-18501307Y125370931D01*
X-18454000Y125608757D01*
X-18454000Y125851243D01*
X-18501307Y126089069D01*
X-18594102Y126313097D01*
X-18728820Y126514717D01*
X-18794103Y126580000D01*
X-18377843Y126580000D01*
X-18377843Y124880000D01*
X-18370487Y124805311D01*
X-18348701Y124733492D01*
X-18313322Y124667304D01*
X-18265711Y124609289D01*
X-18207696Y124561678D01*
X-18141508Y124526299D01*
X-18069689Y124504513D01*
X-17995000Y124497157D01*
X-16295000Y124497157D01*
X-16220311Y124504513D01*
X-16148492Y124526299D01*
X-16082304Y124561678D01*
X-16024289Y124609289D01*
X-15976678Y124667304D01*
X-15941299Y124733492D01*
X-15919513Y124805311D01*
X-15912157Y124880000D01*
X-15912157Y125159610D01*
X4424000Y125159610D01*
X4424000Y125030390D01*
X4449210Y124903652D01*
X4498660Y124784268D01*
X4570452Y124676824D01*
X4661824Y124585452D01*
X4769268Y124513660D01*
X4888652Y124464210D01*
X5015390Y124439000D01*
X5144610Y124439000D01*
X5271348Y124464210D01*
X5390732Y124513660D01*
X5498176Y124585452D01*
X5589548Y124676824D01*
X5661340Y124784268D01*
X5710790Y124903652D01*
X5736000Y125030390D01*
X5736000Y125159610D01*
X5710790Y125286348D01*
X5661340Y125405732D01*
X5589548Y125513176D01*
X5498176Y125604548D01*
X5390732Y125676340D01*
X5271348Y125725790D01*
X5144610Y125751000D01*
X5015390Y125751000D01*
X4888652Y125725790D01*
X4769268Y125676340D01*
X4661824Y125604548D01*
X4570452Y125513176D01*
X4498660Y125405732D01*
X4449210Y125286348D01*
X4424000Y125159610D01*
X-15912157Y125159610D01*
X-15912157Y126580000D01*
X-15919513Y126654689D01*
X-15941299Y126726508D01*
X-15976678Y126792696D01*
X-16024289Y126850711D01*
X-16082304Y126898322D01*
X-16148492Y126933701D01*
X-16220311Y126955487D01*
X-16295000Y126962843D01*
X-17995000Y126962843D01*
X-18069689Y126955487D01*
X-18141508Y126933701D01*
X-18207696Y126898322D01*
X-18265711Y126850711D01*
X-18313322Y126792696D01*
X-18348701Y126726508D01*
X-18370487Y126654689D01*
X-18377843Y126580000D01*
X-18794103Y126580000D01*
X-18900283Y126686180D01*
X-19101903Y126820898D01*
X-19325931Y126913693D01*
X-19563757Y126961000D01*
X-19806243Y126961000D01*
X-20044069Y126913693D01*
X-20268097Y126820898D01*
X-20469717Y126686180D01*
X-20641180Y126514717D01*
X-20775898Y126313097D01*
X-20868693Y126089069D01*
X-20916000Y125851243D01*
X-20994000Y125851243D01*
X-21041307Y126089069D01*
X-21134102Y126313097D01*
X-21268820Y126514717D01*
X-21440283Y126686180D01*
X-21641903Y126820898D01*
X-21865931Y126913693D01*
X-22103757Y126961000D01*
X-22346243Y126961000D01*
X-22584069Y126913693D01*
X-22808097Y126820898D01*
X-23009717Y126686180D01*
X-23181180Y126514717D01*
X-23315898Y126313097D01*
X-23408693Y126089069D01*
X-23456000Y125851243D01*
X-23534000Y125851243D01*
X-23581307Y126089069D01*
X-23674102Y126313097D01*
X-23808820Y126514717D01*
X-23980283Y126686180D01*
X-24181903Y126820898D01*
X-24405931Y126913693D01*
X-24643757Y126961000D01*
X-24886243Y126961000D01*
X-25124069Y126913693D01*
X-25348097Y126820898D01*
X-25549717Y126686180D01*
X-25721180Y126514717D01*
X-25855898Y126313097D01*
X-25948693Y126089069D01*
X-25996000Y125851243D01*
X-26074000Y125851243D01*
X-26121307Y126089069D01*
X-26214102Y126313097D01*
X-26348820Y126514717D01*
X-26520283Y126686180D01*
X-26721903Y126820898D01*
X-26945931Y126913693D01*
X-27183757Y126961000D01*
X-27426243Y126961000D01*
X-27664069Y126913693D01*
X-27888097Y126820898D01*
X-28089717Y126686180D01*
X-28261180Y126514717D01*
X-28395898Y126313097D01*
X-28443228Y126198832D01*
X-28500843Y126361252D01*
X-28649822Y126611355D01*
X-28844731Y126827588D01*
X-29078080Y127001641D01*
X-29340901Y127126825D01*
X-29488110Y127171476D01*
X-29718000Y127050155D01*
X-29972000Y127050155D01*
X-30201890Y127171476D01*
X-30349099Y127126825D01*
X-30611920Y127001641D01*
X-30845269Y126827588D01*
X-31040178Y126611355D01*
X-31189157Y126361252D01*
X-31286481Y126086891D01*
X-31979000Y126086891D01*
X-31979000Y127864000D01*
X26264000Y127864000D01*
X26264001Y121939950D01*
G37*
X26264001Y121939950D02*
X26264000Y121939940D01*
X26264001Y100349950D01*
X26264000Y100349940D01*
X26264000Y91567000D01*
X20328590Y91567000D01*
X20315790Y91631348D01*
X20266340Y91750732D01*
X20194548Y91858176D01*
X20103176Y91949548D01*
X19995732Y92021340D01*
X19876348Y92070790D01*
X19749610Y92096000D01*
X19620390Y92096000D01*
X19493652Y92070790D01*
X19374268Y92021340D01*
X19266824Y91949548D01*
X19175452Y91858176D01*
X19103660Y91750732D01*
X19054210Y91631348D01*
X19041410Y91567000D01*
X-25273000Y91567000D01*
X-25273000Y92786922D01*
X489000Y92786922D01*
X489000Y92633078D01*
X519013Y92482191D01*
X577887Y92340058D01*
X663358Y92212141D01*
X772141Y92103358D01*
X900058Y92017887D01*
X1042191Y91959013D01*
X1193078Y91929000D01*
X1346922Y91929000D01*
X1497809Y91959013D01*
X1639942Y92017887D01*
X1767859Y92103358D01*
X1876642Y92212141D01*
X1962113Y92340058D01*
X2020987Y92482191D01*
X2051000Y92633078D01*
X2051000Y92786922D01*
X2020987Y92937809D01*
X1962113Y93079942D01*
X1876642Y93207859D01*
X1767859Y93316642D01*
X1639942Y93402113D01*
X1497809Y93460987D01*
X1346922Y93491000D01*
X1193078Y93491000D01*
X1042191Y93460987D01*
X900058Y93402113D01*
X772141Y93316642D01*
X663358Y93207859D01*
X577887Y93079942D01*
X519013Y92937809D01*
X489000Y92786922D01*
X-25273000Y92786922D01*
X-25273000Y94066771D01*
X18804000Y94066771D01*
X18804000Y93893229D01*
X18837856Y93723022D01*
X18904268Y93562690D01*
X19000682Y93418395D01*
X19123395Y93295682D01*
X19267690Y93199268D01*
X19428022Y93132856D01*
X19598229Y93099000D01*
X19771771Y93099000D01*
X19941978Y93132856D01*
X20102310Y93199268D01*
X20246605Y93295682D01*
X20369318Y93418395D01*
X20465732Y93562690D01*
X20532144Y93723022D01*
X20566000Y93893229D01*
X20566000Y94066771D01*
X23884000Y94066771D01*
X23884000Y93893229D01*
X23917856Y93723022D01*
X23984268Y93562690D01*
X24080682Y93418395D01*
X24203395Y93295682D01*
X24347690Y93199268D01*
X24508022Y93132856D01*
X24678229Y93099000D01*
X24851771Y93099000D01*
X25021978Y93132856D01*
X25182310Y93199268D01*
X25326605Y93295682D01*
X25449318Y93418395D01*
X25545732Y93562690D01*
X25612144Y93723022D01*
X25646000Y93893229D01*
X25646000Y94066771D01*
X25612144Y94236978D01*
X25545732Y94397310D01*
X25449318Y94541605D01*
X25326605Y94664318D01*
X25182310Y94760732D01*
X25021978Y94827144D01*
X24851771Y94861000D01*
X24678229Y94861000D01*
X24508022Y94827144D01*
X24347690Y94760732D01*
X24203395Y94664318D01*
X24080682Y94541605D01*
X23984268Y94397310D01*
X23917856Y94236978D01*
X23884000Y94066771D01*
X20566000Y94066771D01*
X20532144Y94236978D01*
X20465732Y94397310D01*
X20369318Y94541605D01*
X20316923Y94594000D01*
X20384610Y94594000D01*
X20511348Y94619210D01*
X20630732Y94668660D01*
X20738176Y94740452D01*
X20829548Y94831824D01*
X20901340Y94939268D01*
X20950790Y95058652D01*
X20976000Y95185390D01*
X20976000Y95314610D01*
X20950790Y95441348D01*
X20901340Y95560732D01*
X20829548Y95668176D01*
X20738176Y95759548D01*
X20630732Y95831340D01*
X20511348Y95880790D01*
X20384610Y95906000D01*
X20255390Y95906000D01*
X20128652Y95880790D01*
X20009268Y95831340D01*
X19901824Y95759548D01*
X19810452Y95668176D01*
X19738660Y95560732D01*
X19689210Y95441348D01*
X19664000Y95314610D01*
X19664000Y95185390D01*
X19689210Y95058652D01*
X19738660Y94939268D01*
X19793898Y94856599D01*
X19771771Y94861000D01*
X19598229Y94861000D01*
X19428022Y94827144D01*
X19267690Y94760732D01*
X19123395Y94664318D01*
X19000682Y94541605D01*
X18904268Y94397310D01*
X18837856Y94236978D01*
X18804000Y94066771D01*
X-25273000Y94066771D01*
X-25273000Y96606771D01*
X21344000Y96606771D01*
X21344000Y96433229D01*
X21377856Y96263022D01*
X21444268Y96102690D01*
X21540682Y95958395D01*
X21663395Y95835682D01*
X21807690Y95739268D01*
X21968022Y95672856D01*
X22138229Y95639000D01*
X22311771Y95639000D01*
X22481978Y95672856D01*
X22642310Y95739268D01*
X22786605Y95835682D01*
X22909318Y95958395D01*
X23005732Y96102690D01*
X23072144Y96263022D01*
X23106000Y96433229D01*
X23106000Y96606771D01*
X23072144Y96776978D01*
X23005732Y96937310D01*
X22909318Y97081605D01*
X22786605Y97204318D01*
X22642310Y97300732D01*
X22481978Y97367144D01*
X22311771Y97401000D01*
X22138229Y97401000D01*
X21968022Y97367144D01*
X21807690Y97300732D01*
X21663395Y97204318D01*
X21540682Y97081605D01*
X21444268Y96937310D01*
X21377856Y96776978D01*
X21344000Y96606771D01*
X-25273000Y96606771D01*
X-25273000Y103581922D01*
X19539000Y103581922D01*
X19539000Y103428078D01*
X19569013Y103277191D01*
X19627887Y103135058D01*
X19713358Y103007141D01*
X19822141Y102898358D01*
X19864582Y102870000D01*
X19822141Y102841642D01*
X19713358Y102732859D01*
X19627887Y102604942D01*
X19569013Y102462809D01*
X19539000Y102311922D01*
X19539000Y102158078D01*
X19569013Y102007191D01*
X19627887Y101865058D01*
X19713358Y101737141D01*
X19822141Y101628358D01*
X19864582Y101600000D01*
X19822141Y101571642D01*
X19713358Y101462859D01*
X19627887Y101334942D01*
X19569013Y101192809D01*
X19539000Y101041922D01*
X19539000Y100888078D01*
X19569013Y100737191D01*
X19627887Y100595058D01*
X19713358Y100467141D01*
X19822141Y100358358D01*
X19950058Y100272887D01*
X20092191Y100214013D01*
X20243078Y100184000D01*
X20396922Y100184000D01*
X20547809Y100214013D01*
X20689942Y100272887D01*
X20817859Y100358358D01*
X20926642Y100467141D01*
X21012113Y100595058D01*
X21070987Y100737191D01*
X21101000Y100888078D01*
X21101000Y101041922D01*
X21070987Y101192809D01*
X21012113Y101334942D01*
X20926642Y101462859D01*
X20817859Y101571642D01*
X20775418Y101600000D01*
X20817859Y101628358D01*
X20926642Y101737141D01*
X21012113Y101865058D01*
X21070987Y102007191D01*
X21101000Y102158078D01*
X21101000Y102311922D01*
X21070987Y102462809D01*
X21012113Y102604942D01*
X20926642Y102732859D01*
X20817859Y102841642D01*
X20775418Y102870000D01*
X20817859Y102898358D01*
X20926642Y103007141D01*
X21012113Y103135058D01*
X21070987Y103277191D01*
X21101000Y103428078D01*
X21101000Y103581922D01*
X21070987Y103732809D01*
X21012113Y103874942D01*
X20926642Y104002859D01*
X20817859Y104111642D01*
X20689942Y104197113D01*
X20547809Y104255987D01*
X20396922Y104286000D01*
X20243078Y104286000D01*
X20092191Y104255987D01*
X19950058Y104197113D01*
X19822141Y104111642D01*
X19713358Y104002859D01*
X19627887Y103874942D01*
X19569013Y103732809D01*
X19539000Y103581922D01*
X-25273000Y103581922D01*
X-25273000Y110566922D01*
X-10306000Y110566922D01*
X-10306000Y110413078D01*
X-10275987Y110262191D01*
X-10217113Y110120058D01*
X-10131642Y109992141D01*
X-10022859Y109883358D01*
X-9894942Y109797887D01*
X-9752809Y109739013D01*
X-9601922Y109709000D01*
X-9448078Y109709000D01*
X-9297191Y109739013D01*
X-9155058Y109797887D01*
X-9027141Y109883358D01*
X-8918358Y109992141D01*
X-8832887Y110120058D01*
X-8774013Y110262191D01*
X-8744000Y110413078D01*
X-8744000Y110566922D01*
X-8774013Y110717809D01*
X-8832887Y110859942D01*
X-8918358Y110987859D01*
X-9027141Y111096642D01*
X-9155058Y111182113D01*
X-9297191Y111240987D01*
X-9448078Y111271000D01*
X-9601922Y111271000D01*
X-9752809Y111240987D01*
X-9894942Y111182113D01*
X-10022859Y111096642D01*
X-10131642Y110987859D01*
X-10217113Y110859942D01*
X-10275987Y110717809D01*
X-10306000Y110566922D01*
X-25273000Y110566922D01*
X-25273000Y113741922D01*
X-12755990Y113741922D01*
X-12755990Y113588078D01*
X-12725977Y113437191D01*
X-12667103Y113295058D01*
X-12581632Y113167141D01*
X-12472849Y113058358D01*
X-12344932Y112972887D01*
X-12202799Y112914013D01*
X-12051912Y112884000D01*
X-11898068Y112884000D01*
X-11747181Y112914013D01*
X-11605048Y112972887D01*
X-11477131Y113058358D01*
X-11428567Y113106922D01*
X19539000Y113106922D01*
X19539000Y112953078D01*
X19569013Y112802191D01*
X19627887Y112660058D01*
X19713358Y112532141D01*
X19822141Y112423358D01*
X19864582Y112395000D01*
X19822141Y112366642D01*
X19713358Y112257859D01*
X19627887Y112129942D01*
X19569013Y111987809D01*
X19539000Y111836922D01*
X19539000Y111683078D01*
X19569013Y111532191D01*
X19627887Y111390058D01*
X19713358Y111262141D01*
X19822141Y111153358D01*
X19864582Y111125000D01*
X19822141Y111096642D01*
X19713358Y110987859D01*
X19627887Y110859942D01*
X19569013Y110717809D01*
X19539000Y110566922D01*
X19539000Y110413078D01*
X19569013Y110262191D01*
X19627887Y110120058D01*
X19713358Y109992141D01*
X19822141Y109883358D01*
X19950058Y109797887D01*
X20092191Y109739013D01*
X20243078Y109709000D01*
X20396922Y109709000D01*
X20547809Y109739013D01*
X20689942Y109797887D01*
X20817859Y109883358D01*
X20926642Y109992141D01*
X21012113Y110120058D01*
X21070987Y110262191D01*
X21101000Y110413078D01*
X21101000Y110566922D01*
X21070987Y110717809D01*
X21012113Y110859942D01*
X20926642Y110987859D01*
X20817859Y111096642D01*
X20775418Y111125000D01*
X20817859Y111153358D01*
X20926642Y111262141D01*
X21012113Y111390058D01*
X21070987Y111532191D01*
X21101000Y111683078D01*
X21101000Y111836922D01*
X21070987Y111987809D01*
X21012113Y112129942D01*
X20926642Y112257859D01*
X20817859Y112366642D01*
X20775418Y112395000D01*
X20817859Y112423358D01*
X20926642Y112532141D01*
X21012113Y112660058D01*
X21070987Y112802191D01*
X21101000Y112953078D01*
X21101000Y113106922D01*
X21070987Y113257809D01*
X21012113Y113399942D01*
X20926642Y113527859D01*
X20817859Y113636642D01*
X20689942Y113722113D01*
X20547809Y113780987D01*
X20396922Y113811000D01*
X20243078Y113811000D01*
X20092191Y113780987D01*
X19950058Y113722113D01*
X19822141Y113636642D01*
X19713358Y113527859D01*
X19627887Y113399942D01*
X19569013Y113257809D01*
X19539000Y113106922D01*
X-11428567Y113106922D01*
X-11368348Y113167141D01*
X-11282877Y113295058D01*
X-11224003Y113437191D01*
X-11193990Y113588078D01*
X-11193990Y113741922D01*
X-11224003Y113892809D01*
X-11282877Y114034942D01*
X-11368348Y114162859D01*
X-11477131Y114271642D01*
X-11605048Y114357113D01*
X-11747181Y114415987D01*
X-11898068Y114446000D01*
X-12051912Y114446000D01*
X-12202799Y114415987D01*
X-12344932Y114357113D01*
X-12472849Y114271642D01*
X-12581632Y114162859D01*
X-12667103Y114034942D01*
X-12725977Y113892809D01*
X-12755990Y113741922D01*
X-25273000Y113741922D01*
X-25273000Y118745000D01*
X-25275440Y118769776D01*
X-25282667Y118793601D01*
X-25294403Y118815557D01*
X-25310197Y118834803D01*
X-25329443Y118850597D01*
X-25351399Y118862333D01*
X-25375224Y118869560D01*
X-25400000Y118872000D01*
X-26035000Y118872000D01*
X-26059776Y118869560D01*
X-26083601Y118862333D01*
X-26105557Y118850597D01*
X-26124803Y118834803D01*
X-26140597Y118815557D01*
X-26152333Y118793601D01*
X-26159560Y118769776D01*
X-26162000Y118745000D01*
X-26162000Y90805000D01*
X-26159560Y90780224D01*
X-26152333Y90756399D01*
X-26140597Y90734443D01*
X-26124803Y90715197D01*
X-26105557Y90699403D01*
X-26083601Y90687667D01*
X-26059776Y90680440D01*
X-26035000Y90678000D01*
X-23914724Y90678000D01*
X-24004548Y90588176D01*
X-24076340Y90480732D01*
X-24125790Y90361348D01*
X-24151000Y90234610D01*
X-24151000Y90105390D01*
X-24125790Y89978652D01*
X-24076340Y89859268D01*
X-24004548Y89751824D01*
X-23913176Y89660452D01*
X-23805732Y89588660D01*
X-23686348Y89539210D01*
X-23559610Y89514000D01*
X-23436857Y89514000D01*
X-23447869Y89506642D01*
X-23556652Y89397859D01*
X-23642123Y89269942D01*
X-23700997Y89127809D01*
X-23731010Y88976922D01*
X-23731010Y88823078D01*
X-23700997Y88672191D01*
X-23642123Y88530058D01*
X-23556652Y88402141D01*
X-23447869Y88293358D01*
X-23319952Y88207887D01*
X-23177819Y88149013D01*
X-23026932Y88119000D01*
X-22873088Y88119000D01*
X-22722201Y88149013D01*
X-22580068Y88207887D01*
X-22452151Y88293358D01*
X-22343368Y88402141D01*
X-22257897Y88530058D01*
X-22199023Y88672191D01*
X-22169010Y88823078D01*
X-22169010Y88976922D01*
X-22199023Y89127809D01*
X-22257897Y89269942D01*
X-22343368Y89397859D01*
X-22452151Y89506642D01*
X-22580068Y89592113D01*
X-22722201Y89650987D01*
X-22873088Y89681000D01*
X-23026932Y89681000D01*
X-23063562Y89673714D01*
X-22985452Y89751824D01*
X-22913660Y89859268D01*
X-22864210Y89978652D01*
X-22839000Y90105390D01*
X-22839000Y90234610D01*
X-22864210Y90361348D01*
X-22913660Y90480732D01*
X-22985452Y90588176D01*
X-23075276Y90678000D01*
X8881410Y90678000D01*
X8894210Y90613652D01*
X8943660Y90494268D01*
X9015452Y90386824D01*
X9106824Y90295452D01*
X9214268Y90223660D01*
X9333652Y90174210D01*
X9460390Y90149000D01*
X9589610Y90149000D01*
X9716348Y90174210D01*
X9835732Y90223660D01*
X9943176Y90295452D01*
X10034548Y90386824D01*
X10106340Y90494268D01*
X10155790Y90613652D01*
X10168590Y90678000D01*
X26264000Y90678000D01*
X26264001Y81089500D01*
X10008224Y81089500D01*
X9943176Y81154548D01*
X9835732Y81226340D01*
X9716348Y81275790D01*
X9589610Y81301000D01*
X9460390Y81301000D01*
X9333652Y81275790D01*
X9214268Y81226340D01*
X9106824Y81154548D01*
X9041776Y81089500D01*
X-10910683Y81089500D01*
X-10953924Y81154214D01*
X-11045296Y81245586D01*
X-11152740Y81317378D01*
X-11272124Y81366828D01*
X-11398862Y81392038D01*
X-11528082Y81392038D01*
X-11654820Y81366828D01*
X-11774204Y81317378D01*
X-11881648Y81245586D01*
X-11973020Y81154214D01*
X-12016261Y81089500D01*
X-22011582Y81089500D01*
X-21988990Y81203078D01*
X-21988990Y81356922D01*
X-22019003Y81507809D01*
X-22077877Y81649942D01*
X-22163348Y81777859D01*
X-22272131Y81886642D01*
X-22400048Y81972113D01*
X-22542181Y82030987D01*
X-22693068Y82061000D01*
X-22846912Y82061000D01*
X-22997799Y82030987D01*
X-23139932Y81972113D01*
X-23267849Y81886642D01*
X-23376632Y81777859D01*
X-23462103Y81649942D01*
X-23520977Y81507809D01*
X-23550990Y81356922D01*
X-23550990Y81203078D01*
X-23528398Y81089500D01*
X-27297705Y81089500D01*
X-27333358Y81142859D01*
X-27442141Y81251642D01*
X-27570058Y81337113D01*
X-27712191Y81395987D01*
X-27863078Y81426000D01*
X-28016922Y81426000D01*
X-28167809Y81395987D01*
X-28309942Y81337113D01*
X-28437859Y81251642D01*
X-28546642Y81142859D01*
X-28582295Y81089500D01*
X-31979000Y81089500D01*
X-31979000Y83249610D01*
X-31771000Y83249610D01*
X-31771000Y83120390D01*
X-31745790Y82993652D01*
X-31696340Y82874268D01*
X-31624548Y82766824D01*
X-31533176Y82675452D01*
X-31425732Y82603660D01*
X-31306348Y82554210D01*
X-31179610Y82529000D01*
X-31050390Y82529000D01*
X-30923652Y82554210D01*
X-30804268Y82603660D01*
X-30696824Y82675452D01*
X-30605452Y82766824D01*
X-30533660Y82874268D01*
X-30484210Y82993652D01*
X-30459000Y83120390D01*
X-30459000Y83249610D01*
X-27961000Y83249610D01*
X-27961000Y83120390D01*
X-27935790Y82993652D01*
X-27886340Y82874268D01*
X-27814548Y82766824D01*
X-27723176Y82675452D01*
X-27615732Y82603660D01*
X-27496348Y82554210D01*
X-27369610Y82529000D01*
X-27240390Y82529000D01*
X-27113652Y82554210D01*
X-26994268Y82603660D01*
X-26959455Y82626922D01*
X-10941000Y82626922D01*
X-10941000Y82473078D01*
X-10910987Y82322191D01*
X-10852113Y82180058D01*
X-10766642Y82052141D01*
X-10657859Y81943358D01*
X-10529942Y81857887D01*
X-10387809Y81799013D01*
X-10236922Y81769000D01*
X-10083078Y81769000D01*
X-9932191Y81799013D01*
X-9790058Y81857887D01*
X-9662141Y81943358D01*
X-9553358Y82052141D01*
X-9467887Y82180058D01*
X-9409013Y82322191D01*
X-9379000Y82473078D01*
X-9379000Y82521911D01*
X-6496000Y82521911D01*
X-6496000Y82368067D01*
X-6465987Y82217180D01*
X-6407113Y82075047D01*
X-6321642Y81947130D01*
X-6212859Y81838347D01*
X-6084942Y81752876D01*
X-5942809Y81694002D01*
X-5791922Y81663989D01*
X-5638078Y81663989D01*
X-5487191Y81694002D01*
X-5345058Y81752876D01*
X-5217141Y81838347D01*
X-5108358Y81947130D01*
X-5022887Y82075047D01*
X-4964013Y82217180D01*
X-4934000Y82368067D01*
X-4934000Y82521911D01*
X-4964013Y82672798D01*
X-5022887Y82814931D01*
X-5108358Y82942848D01*
X-5217141Y83051631D01*
X-5345058Y83137102D01*
X-5487191Y83195976D01*
X-5638078Y83225989D01*
X-5791922Y83225989D01*
X-5942809Y83195976D01*
X-6084942Y83137102D01*
X-6212859Y83051631D01*
X-6321642Y82942848D01*
X-6407113Y82814931D01*
X-6465987Y82672798D01*
X-6496000Y82521911D01*
X-9379000Y82521911D01*
X-9379000Y82626922D01*
X-9409013Y82777809D01*
X-9467887Y82919942D01*
X-9553358Y83047859D01*
X-9662141Y83156642D01*
X-9790058Y83242113D01*
X-9808157Y83249610D01*
X-3196000Y83249610D01*
X-3196000Y83120390D01*
X-3170790Y82993652D01*
X-3121340Y82874268D01*
X-3049548Y82766824D01*
X-2958176Y82675452D01*
X-2850732Y82603660D01*
X-2731348Y82554210D01*
X-2604610Y82529000D01*
X-2475390Y82529000D01*
X-2348652Y82554210D01*
X-2229268Y82603660D01*
X-2121824Y82675452D01*
X-2030452Y82766824D01*
X-1958660Y82874268D01*
X-1909210Y82993652D01*
X-1884000Y83120390D01*
X-1884000Y83249610D01*
X-1909210Y83376348D01*
X-1958660Y83495732D01*
X-2030452Y83603176D01*
X-2121824Y83694548D01*
X-2229268Y83766340D01*
X-2348652Y83815790D01*
X-2475390Y83841000D01*
X-2604610Y83841000D01*
X-2731348Y83815790D01*
X-2850732Y83766340D01*
X-2958176Y83694548D01*
X-3049548Y83603176D01*
X-3121340Y83495732D01*
X-3170790Y83376348D01*
X-3196000Y83249610D01*
X-9808157Y83249610D01*
X-9932191Y83300987D01*
X-10083078Y83331000D01*
X-10236922Y83331000D01*
X-10387809Y83300987D01*
X-10529942Y83242113D01*
X-10657859Y83156642D01*
X-10766642Y83047859D01*
X-10852113Y82919942D01*
X-10910987Y82777809D01*
X-10941000Y82626922D01*
X-26959455Y82626922D01*
X-26886824Y82675452D01*
X-26795452Y82766824D01*
X-26723660Y82874268D01*
X-26674210Y82993652D01*
X-26649000Y83120390D01*
X-26649000Y83249610D01*
X-26674210Y83376348D01*
X-26723660Y83495732D01*
X-26795452Y83603176D01*
X-26886824Y83694548D01*
X-26994268Y83766340D01*
X-27113652Y83815790D01*
X-27240390Y83841000D01*
X-27369610Y83841000D01*
X-27496348Y83815790D01*
X-27615732Y83766340D01*
X-27723176Y83694548D01*
X-27814548Y83603176D01*
X-27886340Y83495732D01*
X-27935790Y83376348D01*
X-27961000Y83249610D01*
X-30459000Y83249610D01*
X-30484210Y83376348D01*
X-30533660Y83495732D01*
X-30605452Y83603176D01*
X-30696824Y83694548D01*
X-30804268Y83766340D01*
X-30923652Y83815790D01*
X-31050390Y83841000D01*
X-31179610Y83841000D01*
X-31306348Y83815790D01*
X-31425732Y83766340D01*
X-31533176Y83694548D01*
X-31624548Y83603176D01*
X-31696340Y83495732D01*
X-31745790Y83376348D01*
X-31771000Y83249610D01*
X-31979000Y83249610D01*
X-31979000Y84531922D01*
X-11576000Y84531922D01*
X-11576000Y84378078D01*
X-11545987Y84227191D01*
X-11487113Y84085058D01*
X-11401642Y83957141D01*
X-11292859Y83848358D01*
X-11164942Y83762887D01*
X-11022809Y83704013D01*
X-10871922Y83674000D01*
X-10718078Y83674000D01*
X-10567191Y83704013D01*
X-10425058Y83762887D01*
X-10297141Y83848358D01*
X-10188358Y83957141D01*
X-10102887Y84085058D01*
X-10044013Y84227191D01*
X-10014000Y84378078D01*
X-10014000Y84531922D01*
X-10044013Y84682809D01*
X-10102887Y84824942D01*
X-10188358Y84952859D01*
X-10297141Y85061642D01*
X-10425058Y85147113D01*
X-10567191Y85205987D01*
X-10718078Y85236000D01*
X-10871922Y85236000D01*
X-11022809Y85205987D01*
X-11164942Y85147113D01*
X-11292859Y85061642D01*
X-11401642Y84952859D01*
X-11487113Y84824942D01*
X-11545987Y84682809D01*
X-11576000Y84531922D01*
X-31979000Y84531922D01*
X-31979000Y87071922D01*
X-3321000Y87071922D01*
X-3321000Y86918078D01*
X-3290987Y86767191D01*
X-3232113Y86625058D01*
X-3146642Y86497141D01*
X-3037859Y86388358D01*
X-2909942Y86302887D01*
X-2767809Y86244013D01*
X-2616922Y86214000D01*
X-2463078Y86214000D01*
X-2312191Y86244013D01*
X-2170058Y86302887D01*
X-2042141Y86388358D01*
X-1933358Y86497141D01*
X-1847887Y86625058D01*
X-1789013Y86767191D01*
X-1759000Y86918078D01*
X-1759000Y87071922D01*
X1759000Y87071922D01*
X1759000Y86918078D01*
X1789013Y86767191D01*
X1847887Y86625058D01*
X1933358Y86497141D01*
X2042141Y86388358D01*
X2170058Y86302887D01*
X2312191Y86244013D01*
X2463078Y86214000D01*
X2616922Y86214000D01*
X2767809Y86244013D01*
X2909942Y86302887D01*
X3037859Y86388358D01*
X3146642Y86497141D01*
X3232113Y86625058D01*
X3290987Y86767191D01*
X3321000Y86918078D01*
X3321000Y87059610D01*
X19029000Y87059610D01*
X19029000Y86930390D01*
X19054210Y86803652D01*
X19103660Y86684268D01*
X19175452Y86576824D01*
X19266824Y86485452D01*
X19374268Y86413660D01*
X19493652Y86364210D01*
X19620390Y86339000D01*
X19749610Y86339000D01*
X19876348Y86364210D01*
X19995732Y86413660D01*
X20103176Y86485452D01*
X20194548Y86576824D01*
X20266340Y86684268D01*
X20315790Y86803652D01*
X20320000Y86824817D01*
X20324210Y86803652D01*
X20373660Y86684268D01*
X20445452Y86576824D01*
X20536824Y86485452D01*
X20644268Y86413660D01*
X20763652Y86364210D01*
X20890390Y86339000D01*
X21019610Y86339000D01*
X21146348Y86364210D01*
X21265732Y86413660D01*
X21373176Y86485452D01*
X21464548Y86576824D01*
X21536340Y86684268D01*
X21585790Y86803652D01*
X21611000Y86930390D01*
X21611000Y87059610D01*
X21585790Y87186348D01*
X21536340Y87305732D01*
X21464548Y87413176D01*
X21373176Y87504548D01*
X21265732Y87576340D01*
X21146348Y87625790D01*
X21019610Y87651000D01*
X20976000Y87651000D01*
X20976000Y87694610D01*
X20950790Y87821348D01*
X20901340Y87940732D01*
X20829548Y88048176D01*
X20738176Y88139548D01*
X20630732Y88211340D01*
X20511348Y88260790D01*
X20384610Y88286000D01*
X20255390Y88286000D01*
X20128652Y88260790D01*
X20009268Y88211340D01*
X19901824Y88139548D01*
X19810452Y88048176D01*
X19738660Y87940732D01*
X19689210Y87821348D01*
X19664000Y87694610D01*
X19664000Y87651000D01*
X19620390Y87651000D01*
X19493652Y87625790D01*
X19374268Y87576340D01*
X19266824Y87504548D01*
X19175452Y87413176D01*
X19103660Y87305732D01*
X19054210Y87186348D01*
X19029000Y87059610D01*
X3321000Y87059610D01*
X3321000Y87071922D01*
X3290987Y87222809D01*
X3232113Y87364942D01*
X3146642Y87492859D01*
X3037859Y87601642D01*
X2909942Y87687113D01*
X2767809Y87745987D01*
X2616922Y87776000D01*
X2463078Y87776000D01*
X2312191Y87745987D01*
X2170058Y87687113D01*
X2042141Y87601642D01*
X1933358Y87492859D01*
X1847887Y87364942D01*
X1789013Y87222809D01*
X1759000Y87071922D01*
X-1759000Y87071922D01*
X-1789013Y87222809D01*
X-1847887Y87364942D01*
X-1933358Y87492859D01*
X-2042141Y87601642D01*
X-2170058Y87687113D01*
X-2312191Y87745987D01*
X-2463078Y87776000D01*
X-2616922Y87776000D01*
X-2767809Y87745987D01*
X-2909942Y87687113D01*
X-3037859Y87601642D01*
X-3146642Y87492859D01*
X-3232113Y87364942D01*
X-3290987Y87222809D01*
X-3321000Y87071922D01*
X-31979000Y87071922D01*
X-31979000Y89599610D01*
X-31771000Y89599610D01*
X-31771000Y89470390D01*
X-31745790Y89343652D01*
X-31696340Y89224268D01*
X-31624548Y89116824D01*
X-31533176Y89025452D01*
X-31425732Y88953660D01*
X-31306348Y88904210D01*
X-31179610Y88879000D01*
X-31050390Y88879000D01*
X-30931434Y88902662D01*
X-30977859Y88871642D01*
X-31086642Y88762859D01*
X-31172113Y88634942D01*
X-31230987Y88492809D01*
X-31261000Y88341922D01*
X-31261000Y88188078D01*
X-31230987Y88037191D01*
X-31172113Y87895058D01*
X-31086642Y87767141D01*
X-30977859Y87658358D01*
X-30849942Y87572887D01*
X-30707809Y87514013D01*
X-30556922Y87484000D01*
X-30403078Y87484000D01*
X-30252191Y87514013D01*
X-30110058Y87572887D01*
X-29982141Y87658358D01*
X-29873358Y87767141D01*
X-29787887Y87895058D01*
X-29729013Y88037191D01*
X-29699000Y88188078D01*
X-29699000Y88341922D01*
X-29729013Y88492809D01*
X-29787887Y88634942D01*
X-29873358Y88762859D01*
X-29982141Y88871642D01*
X-30110058Y88957113D01*
X-30252191Y89015987D01*
X-30403078Y89046000D01*
X-30556922Y89046000D01*
X-30707809Y89015987D01*
X-30716177Y89012521D01*
X-30696824Y89025452D01*
X-30605452Y89116824D01*
X-30533660Y89224268D01*
X-30484210Y89343652D01*
X-30459000Y89470390D01*
X-30459000Y89599610D01*
X-30484210Y89726348D01*
X-30533660Y89845732D01*
X-30605452Y89953176D01*
X-30696824Y90044548D01*
X-30804268Y90116340D01*
X-30923652Y90165790D01*
X-31050390Y90191000D01*
X-31179610Y90191000D01*
X-31306348Y90165790D01*
X-31425732Y90116340D01*
X-31533176Y90044548D01*
X-31624548Y89953176D01*
X-31696340Y89845732D01*
X-31745790Y89726348D01*
X-31771000Y89599610D01*
X-31979000Y89599610D01*
X-31979000Y107266922D01*
X-31261000Y107266922D01*
X-31261000Y107113078D01*
X-31230987Y106962191D01*
X-31172113Y106820058D01*
X-31086642Y106692141D01*
X-30977859Y106583358D01*
X-30849942Y106497887D01*
X-30707809Y106439013D01*
X-30556922Y106409000D01*
X-30403078Y106409000D01*
X-30252191Y106439013D01*
X-30110058Y106497887D01*
X-29982141Y106583358D01*
X-29873358Y106692141D01*
X-29787887Y106820058D01*
X-29729013Y106962191D01*
X-29699000Y107113078D01*
X-29699000Y107266922D01*
X-29729013Y107417809D01*
X-29787887Y107559942D01*
X-29873358Y107687859D01*
X-29982141Y107796642D01*
X-30110058Y107882113D01*
X-30252191Y107940987D01*
X-30403078Y107971000D01*
X-30556922Y107971000D01*
X-30707809Y107940987D01*
X-30849942Y107882113D01*
X-30977859Y107796642D01*
X-31086642Y107687859D01*
X-31172113Y107559942D01*
X-31230987Y107417809D01*
X-31261000Y107266922D01*
X-31979000Y107266922D01*
X-31979000Y120714610D01*
X-17801000Y120714610D01*
X-17801000Y120585390D01*
X-17775790Y120458652D01*
X-17726340Y120339268D01*
X-17654548Y120231824D01*
X-17563176Y120140452D01*
X-17455732Y120068660D01*
X-17336348Y120019210D01*
X-17209610Y119994000D01*
X-17080390Y119994000D01*
X-16953652Y120019210D01*
X-16834268Y120068660D01*
X-16726824Y120140452D01*
X-16635452Y120231824D01*
X-16563660Y120339268D01*
X-16514210Y120458652D01*
X-16489000Y120585390D01*
X-16489000Y120714610D01*
X-16514210Y120841348D01*
X-16563660Y120960732D01*
X-16635452Y121068176D01*
X-16726824Y121159548D01*
X-16834268Y121231340D01*
X-16953652Y121280790D01*
X-17080390Y121306000D01*
X-17209610Y121306000D01*
X-17336348Y121280790D01*
X-17455732Y121231340D01*
X-17563176Y121159548D01*
X-17654548Y121068176D01*
X-17726340Y120960732D01*
X-17775790Y120841348D01*
X-17801000Y120714610D01*
X-31979000Y120714610D01*
X-31979000Y122833109D01*
X-31286481Y122833109D01*
X-31189157Y122558748D01*
X-31040178Y122308645D01*
X-30845269Y122092412D01*
X-30611920Y121918359D01*
X-30349099Y121793175D01*
X-30201890Y121748524D01*
X-29972000Y121869845D01*
X-29972000Y123063000D01*
X-31165814Y123063000D01*
X-31286481Y122833109D01*
X-31979000Y122833109D01*
X-31979000Y125373109D01*
X-31286481Y125373109D01*
X-31189157Y125098748D01*
X-31040178Y124848645D01*
X-30845269Y124632412D01*
X-30614120Y124460000D01*
X-30845269Y124287588D01*
X-31040178Y124071355D01*
X-31189157Y123821252D01*
X-31286481Y123546891D01*
X-31165814Y123317000D01*
X-29972000Y123317000D01*
X-29972000Y125603000D01*
X-31165814Y125603000D01*
X-31286481Y125373109D01*
X-31979000Y125373109D01*
X-31979000Y126086891D01*
X-31286481Y126086891D01*
X-31165814Y125857000D01*
X-29972000Y125857000D01*
X-29972000Y127050155D01*
X-29718000Y127050155D01*
X-29718000Y125857000D01*
X-29698000Y125857000D01*
X-29698000Y125603000D01*
X-29718000Y125603000D01*
X-29718000Y123317000D01*
X-29698000Y123317000D01*
X-29698000Y123063000D01*
X-29718000Y123063000D01*
X-29718000Y121869845D01*
X-29488110Y121748524D01*
X-29340901Y121793175D01*
X-29078080Y121918359D01*
X-28844731Y122092412D01*
X-28649822Y122308645D01*
X-28500843Y122558748D01*
X-28443228Y122721168D01*
X-28395898Y122606903D01*
X-28261180Y122405283D01*
X-28089717Y122233820D01*
X-27888097Y122099102D01*
X-27664069Y122006307D01*
X-27426243Y121959000D01*
X-27183757Y121959000D01*
X-26945931Y122006307D01*
X-26721903Y122099102D01*
X-26520283Y122233820D01*
X-26348820Y122405283D01*
X-26214102Y122606903D01*
X-26121307Y122830931D01*
X-26074000Y123068757D01*
X-26074000Y123311243D01*
X-25996000Y123311243D01*
X-25996000Y123068757D01*
X-25948693Y122830931D01*
X-25855898Y122606903D01*
X-25721180Y122405283D01*
X-25549717Y122233820D01*
X-25348097Y122099102D01*
X-25124069Y122006307D01*
X-24886243Y121959000D01*
X-24643757Y121959000D01*
X-24405931Y122006307D01*
X-24181903Y122099102D01*
X-23980283Y122233820D01*
X-23808820Y122405283D01*
X-23674102Y122606903D01*
X-23581307Y122830931D01*
X-23534000Y123068757D01*
X-23534000Y123311243D01*
X-23456000Y123311243D01*
X-23456000Y123068757D01*
X-23408693Y122830931D01*
X-23315898Y122606903D01*
X-23181180Y122405283D01*
X-23009717Y122233820D01*
X-22808097Y122099102D01*
X-22584069Y122006307D01*
X-22346243Y121959000D01*
X-22103757Y121959000D01*
X-21865931Y122006307D01*
X-21641903Y122099102D01*
X-21440283Y122233820D01*
X-21268820Y122405283D01*
X-21134102Y122606903D01*
X-21041307Y122830931D01*
X-20994000Y123068757D01*
X-20994000Y123311243D01*
X-20916000Y123311243D01*
X-20916000Y123068757D01*
X-20868693Y122830931D01*
X-20775898Y122606903D01*
X-20641180Y122405283D01*
X-20469717Y122233820D01*
X-20268097Y122099102D01*
X-20044069Y122006307D01*
X-19806243Y121959000D01*
X-19563757Y121959000D01*
X-19325931Y122006307D01*
X-19101903Y122099102D01*
X-18900283Y122233820D01*
X-18728820Y122405283D01*
X-18594102Y122606903D01*
X-18501307Y122830931D01*
X-18454000Y123068757D01*
X-18454000Y123311243D01*
X-18376000Y123311243D01*
X-18376000Y123068757D01*
X-18328693Y122830931D01*
X-18235898Y122606903D01*
X-18101180Y122405283D01*
X-17929717Y122233820D01*
X-17728097Y122099102D01*
X-17504069Y122006307D01*
X-17266243Y121959000D01*
X-17023757Y121959000D01*
X-16895009Y121984610D01*
X6329000Y121984610D01*
X6329000Y121855390D01*
X6354210Y121728652D01*
X6403660Y121609268D01*
X6475452Y121501824D01*
X6566824Y121410452D01*
X6674268Y121338660D01*
X6793652Y121289210D01*
X6920390Y121264000D01*
X7049610Y121264000D01*
X7176348Y121289210D01*
X7295732Y121338660D01*
X7403176Y121410452D01*
X7494548Y121501824D01*
X7566340Y121609268D01*
X7615790Y121728652D01*
X7641000Y121855390D01*
X7641000Y121984610D01*
X7615790Y122111348D01*
X7566340Y122230732D01*
X7494548Y122338176D01*
X7403176Y122429548D01*
X7295732Y122501340D01*
X7176348Y122550790D01*
X7049610Y122576000D01*
X6920390Y122576000D01*
X6793652Y122550790D01*
X6674268Y122501340D01*
X6566824Y122429548D01*
X6475452Y122338176D01*
X6403660Y122230732D01*
X6354210Y122111348D01*
X6329000Y121984610D01*
X-16895009Y121984610D01*
X-16785931Y122006307D01*
X-16561903Y122099102D01*
X-16360283Y122233820D01*
X-16188820Y122405283D01*
X-16054102Y122606903D01*
X-15961307Y122830931D01*
X-15914000Y123068757D01*
X-15914000Y123311243D01*
X-15961307Y123549069D01*
X-16054102Y123773097D01*
X-16140179Y123901922D01*
X18904000Y123901922D01*
X18904000Y123748078D01*
X18934013Y123597191D01*
X18992887Y123455058D01*
X19078358Y123327141D01*
X19187141Y123218358D01*
X19229582Y123190000D01*
X19187141Y123161642D01*
X19078358Y123052859D01*
X18992887Y122924942D01*
X18934013Y122782809D01*
X18904000Y122631922D01*
X18904000Y122478078D01*
X18934013Y122327191D01*
X18992887Y122185058D01*
X19078358Y122057141D01*
X19187141Y121948358D01*
X19229582Y121920000D01*
X19187141Y121891642D01*
X19078358Y121782859D01*
X18992887Y121654942D01*
X18934013Y121512809D01*
X18904000Y121361922D01*
X18904000Y121208078D01*
X18934013Y121057191D01*
X18992887Y120915058D01*
X19078358Y120787141D01*
X19187141Y120678358D01*
X19315058Y120592887D01*
X19457191Y120534013D01*
X19608078Y120504000D01*
X19761922Y120504000D01*
X19912809Y120534013D01*
X20054942Y120592887D01*
X20182859Y120678358D01*
X20291642Y120787141D01*
X20377113Y120915058D01*
X20435987Y121057191D01*
X20466000Y121208078D01*
X20466000Y121361922D01*
X20435987Y121512809D01*
X20377113Y121654942D01*
X20291642Y121782859D01*
X20182859Y121891642D01*
X20140418Y121920000D01*
X20182859Y121948358D01*
X20291642Y122057141D01*
X20377113Y122185058D01*
X20435987Y122327191D01*
X20466000Y122478078D01*
X20466000Y122631922D01*
X20435987Y122782809D01*
X20377113Y122924942D01*
X20291642Y123052859D01*
X20182859Y123161642D01*
X20140418Y123190000D01*
X20182859Y123218358D01*
X20291642Y123327141D01*
X20377113Y123455058D01*
X20435987Y123597191D01*
X20466000Y123748078D01*
X20466000Y123901922D01*
X20435987Y124052809D01*
X20377113Y124194942D01*
X20291642Y124322859D01*
X20182859Y124431642D01*
X20054942Y124517113D01*
X19912809Y124575987D01*
X19761922Y124606000D01*
X19608078Y124606000D01*
X19457191Y124575987D01*
X19315058Y124517113D01*
X19187141Y124431642D01*
X19078358Y124322859D01*
X18992887Y124194942D01*
X18934013Y124052809D01*
X18904000Y123901922D01*
X-16140179Y123901922D01*
X-16188820Y123974717D01*
X-16360283Y124146180D01*
X-16561903Y124280898D01*
X-16785931Y124373693D01*
X-17023757Y124421000D01*
X-17266243Y124421000D01*
X-17504069Y124373693D01*
X-17728097Y124280898D01*
X-17929717Y124146180D01*
X-18101180Y123974717D01*
X-18235898Y123773097D01*
X-18328693Y123549069D01*
X-18376000Y123311243D01*
X-18454000Y123311243D01*
X-18501307Y123549069D01*
X-18594102Y123773097D01*
X-18728820Y123974717D01*
X-18900283Y124146180D01*
X-19101903Y124280898D01*
X-19325931Y124373693D01*
X-19563757Y124421000D01*
X-19806243Y124421000D01*
X-20044069Y124373693D01*
X-20268097Y124280898D01*
X-20469717Y124146180D01*
X-20641180Y123974717D01*
X-20775898Y123773097D01*
X-20868693Y123549069D01*
X-20916000Y123311243D01*
X-20994000Y123311243D01*
X-21041307Y123549069D01*
X-21134102Y123773097D01*
X-21268820Y123974717D01*
X-21440283Y124146180D01*
X-21641903Y124280898D01*
X-21865931Y124373693D01*
X-22103757Y124421000D01*
X-22346243Y124421000D01*
X-22584069Y124373693D01*
X-22808097Y124280898D01*
X-23009717Y124146180D01*
X-23181180Y123974717D01*
X-23315898Y123773097D01*
X-23408693Y123549069D01*
X-23456000Y123311243D01*
X-23534000Y123311243D01*
X-23581307Y123549069D01*
X-23674102Y123773097D01*
X-23808820Y123974717D01*
X-23980283Y124146180D01*
X-24181903Y124280898D01*
X-24405931Y124373693D01*
X-24643757Y124421000D01*
X-24886243Y124421000D01*
X-25124069Y124373693D01*
X-25348097Y124280898D01*
X-25549717Y124146180D01*
X-25721180Y123974717D01*
X-25855898Y123773097D01*
X-25948693Y123549069D01*
X-25996000Y123311243D01*
X-26074000Y123311243D01*
X-26121307Y123549069D01*
X-26214102Y123773097D01*
X-26348820Y123974717D01*
X-26520283Y124146180D01*
X-26721903Y124280898D01*
X-26945931Y124373693D01*
X-27183757Y124421000D01*
X-27426243Y124421000D01*
X-27664069Y124373693D01*
X-27888097Y124280898D01*
X-28089717Y124146180D01*
X-28261180Y123974717D01*
X-28395898Y123773097D01*
X-28443228Y123658832D01*
X-28500843Y123821252D01*
X-28649822Y124071355D01*
X-28844731Y124287588D01*
X-29075880Y124460000D01*
X-28844731Y124632412D01*
X-28649822Y124848645D01*
X-28500843Y125098748D01*
X-28443228Y125261168D01*
X-28395898Y125146903D01*
X-28261180Y124945283D01*
X-28089717Y124773820D01*
X-27888097Y124639102D01*
X-27664069Y124546307D01*
X-27426243Y124499000D01*
X-27183757Y124499000D01*
X-26945931Y124546307D01*
X-26721903Y124639102D01*
X-26520283Y124773820D01*
X-26348820Y124945283D01*
X-26214102Y125146903D01*
X-26121307Y125370931D01*
X-26074000Y125608757D01*
X-26074000Y125851243D01*
X-25996000Y125851243D01*
X-25996000Y125608757D01*
X-25948693Y125370931D01*
X-25855898Y125146903D01*
X-25721180Y124945283D01*
X-25549717Y124773820D01*
X-25348097Y124639102D01*
X-25124069Y124546307D01*
X-24886243Y124499000D01*
X-24643757Y124499000D01*
X-24405931Y124546307D01*
X-24181903Y124639102D01*
X-23980283Y124773820D01*
X-23808820Y124945283D01*
X-23674102Y125146903D01*
X-23581307Y125370931D01*
X-23534000Y125608757D01*
X-23534000Y125851243D01*
X-23456000Y125851243D01*
X-23456000Y125608757D01*
X-23408693Y125370931D01*
X-23315898Y125146903D01*
X-23181180Y124945283D01*
X-23009717Y124773820D01*
X-22808097Y124639102D01*
X-22584069Y124546307D01*
X-22346243Y124499000D01*
X-22103757Y124499000D01*
X-21865931Y124546307D01*
X-21641903Y124639102D01*
X-21440283Y124773820D01*
X-21268820Y124945283D01*
X-21134102Y125146903D01*
X-21041307Y125370931D01*
X-20994000Y125608757D01*
X-20994000Y125851243D01*
X-20916000Y125851243D01*
X-20916000Y125608757D01*
X-20868693Y125370931D01*
X-20775898Y125146903D01*
X-20641180Y124945283D01*
X-20469717Y124773820D01*
X-20268097Y124639102D01*
X-20044069Y124546307D01*
X-19806243Y124499000D01*
X-19563757Y124499000D01*
X-19325931Y124546307D01*
X-19101903Y124639102D01*
X-18900283Y124773820D01*
X-18728820Y124945283D01*
X-18594102Y125146903D01*
X-18501307Y125370931D01*
X-18454000Y125608757D01*
X-18454000Y125851243D01*
X-18501307Y126089069D01*
X-18594102Y126313097D01*
X-18728820Y126514717D01*
X-18794103Y126580000D01*
X-18377843Y126580000D01*
X-18377843Y124880000D01*
X-18370487Y124805311D01*
X-18348701Y124733492D01*
X-18313322Y124667304D01*
X-18265711Y124609289D01*
X-18207696Y124561678D01*
X-18141508Y124526299D01*
X-18069689Y124504513D01*
X-17995000Y124497157D01*
X-16295000Y124497157D01*
X-16220311Y124504513D01*
X-16148492Y124526299D01*
X-16082304Y124561678D01*
X-16024289Y124609289D01*
X-15976678Y124667304D01*
X-15941299Y124733492D01*
X-15919513Y124805311D01*
X-15912157Y124880000D01*
X-15912157Y125159610D01*
X4424000Y125159610D01*
X4424000Y125030390D01*
X4449210Y124903652D01*
X4498660Y124784268D01*
X4570452Y124676824D01*
X4661824Y124585452D01*
X4769268Y124513660D01*
X4888652Y124464210D01*
X5015390Y124439000D01*
X5144610Y124439000D01*
X5271348Y124464210D01*
X5390732Y124513660D01*
X5498176Y124585452D01*
X5589548Y124676824D01*
X5661340Y124784268D01*
X5710790Y124903652D01*
X5736000Y125030390D01*
X5736000Y125159610D01*
X5710790Y125286348D01*
X5661340Y125405732D01*
X5589548Y125513176D01*
X5498176Y125604548D01*
X5390732Y125676340D01*
X5271348Y125725790D01*
X5144610Y125751000D01*
X5015390Y125751000D01*
X4888652Y125725790D01*
X4769268Y125676340D01*
X4661824Y125604548D01*
X4570452Y125513176D01*
X4498660Y125405732D01*
X4449210Y125286348D01*
X4424000Y125159610D01*
X-15912157Y125159610D01*
X-15912157Y126580000D01*
X-15919513Y126654689D01*
X-15941299Y126726508D01*
X-15976678Y126792696D01*
X-16024289Y126850711D01*
X-16082304Y126898322D01*
X-16148492Y126933701D01*
X-16220311Y126955487D01*
X-16295000Y126962843D01*
X-17995000Y126962843D01*
X-18069689Y126955487D01*
X-18141508Y126933701D01*
X-18207696Y126898322D01*
X-18265711Y126850711D01*
X-18313322Y126792696D01*
X-18348701Y126726508D01*
X-18370487Y126654689D01*
X-18377843Y126580000D01*
X-18794103Y126580000D01*
X-18900283Y126686180D01*
X-19101903Y126820898D01*
X-19325931Y126913693D01*
X-19563757Y126961000D01*
X-19806243Y126961000D01*
X-20044069Y126913693D01*
X-20268097Y126820898D01*
X-20469717Y126686180D01*
X-20641180Y126514717D01*
X-20775898Y126313097D01*
X-20868693Y126089069D01*
X-20916000Y125851243D01*
X-20994000Y125851243D01*
X-21041307Y126089069D01*
X-21134102Y126313097D01*
X-21268820Y126514717D01*
X-21440283Y126686180D01*
X-21641903Y126820898D01*
X-21865931Y126913693D01*
X-22103757Y126961000D01*
X-22346243Y126961000D01*
X-22584069Y126913693D01*
X-22808097Y126820898D01*
X-23009717Y126686180D01*
X-23181180Y126514717D01*
X-23315898Y126313097D01*
X-23408693Y126089069D01*
X-23456000Y125851243D01*
X-23534000Y125851243D01*
X-23581307Y126089069D01*
X-23674102Y126313097D01*
X-23808820Y126514717D01*
X-23980283Y126686180D01*
X-24181903Y126820898D01*
X-24405931Y126913693D01*
X-24643757Y126961000D01*
X-24886243Y126961000D01*
X-25124069Y126913693D01*
X-25348097Y126820898D01*
X-25549717Y126686180D01*
X-25721180Y126514717D01*
X-25855898Y126313097D01*
X-25948693Y126089069D01*
X-25996000Y125851243D01*
X-26074000Y125851243D01*
X-26121307Y126089069D01*
X-26214102Y126313097D01*
X-26348820Y126514717D01*
X-26520283Y126686180D01*
X-26721903Y126820898D01*
X-26945931Y126913693D01*
X-27183757Y126961000D01*
X-27426243Y126961000D01*
X-27664069Y126913693D01*
X-27888097Y126820898D01*
X-28089717Y126686180D01*
X-28261180Y126514717D01*
X-28395898Y126313097D01*
X-28443228Y126198832D01*
X-28500843Y126361252D01*
X-28649822Y126611355D01*
X-28844731Y126827588D01*
X-29078080Y127001641D01*
X-29340901Y127126825D01*
X-29488110Y127171476D01*
X-29718000Y127050155D01*
X-29972000Y127050155D01*
X-30201890Y127171476D01*
X-30349099Y127126825D01*
X-30611920Y127001641D01*
X-30845269Y126827588D01*
X-31040178Y126611355D01*
X-31189157Y126361252D01*
X-31286481Y126086891D01*
X-31979000Y126086891D01*
X-31979000Y127864000D01*
X26264000Y127864000D01*
X26264001Y121939950D01*
%TO.N,Net-(JP2-Pad1)*%
G36*
X24003000Y77597000D02*
G01*
X17907000Y77597000D01*
X17907000Y77932558D01*
X17926000Y78028078D01*
X17926000Y78181922D01*
X17907000Y78277442D01*
X17907000Y80518000D01*
X24003000Y80518000D01*
X24003000Y77597000D01*
G37*
X24003000Y77597000D02*
X17907000Y77597000D01*
X17907000Y77932558D01*
X17926000Y78028078D01*
X17926000Y78181922D01*
X17907000Y78277442D01*
X17907000Y80518000D01*
X24003000Y80518000D01*
X24003000Y77597000D01*
%TO.N,GND*%
G36*
X-28546642Y81142859D02*
G01*
X-28632113Y81014942D01*
X-28690987Y80872809D01*
X-28721000Y80721922D01*
X-28721000Y80568078D01*
X-28690987Y80417191D01*
X-28632113Y80275058D01*
X-28546642Y80147141D01*
X-28437859Y80038358D01*
X-28309942Y79952887D01*
X-28167809Y79894013D01*
X-28016922Y79864000D01*
X-27863078Y79864000D01*
X-27712191Y79894013D01*
X-27570058Y79952887D01*
X-27442141Y80038358D01*
X-27333358Y80147141D01*
X-27247887Y80275058D01*
X-27189013Y80417191D01*
X-27159000Y80568078D01*
X-27159000Y80721922D01*
X-27189013Y80872809D01*
X-27247887Y81014942D01*
X-27333358Y81142859D01*
X-27343499Y81153000D01*
X-23541029Y81153000D01*
X-23520977Y81052191D01*
X-23462103Y80910058D01*
X-23376632Y80782141D01*
X-23267849Y80673358D01*
X-23139932Y80587887D01*
X-22997799Y80529013D01*
X-22846912Y80499000D01*
X-22693068Y80499000D01*
X-22542181Y80529013D01*
X-22400048Y80587887D01*
X-22272131Y80673358D01*
X-22163348Y80782141D01*
X-22077877Y80910058D01*
X-22019003Y81052191D01*
X-21998951Y81153000D01*
X-11973831Y81153000D01*
X-12044812Y81046770D01*
X-12094262Y80927386D01*
X-12119472Y80800648D01*
X-12119472Y80671428D01*
X-12118654Y80667316D01*
X-12135722Y80660246D01*
X-12243166Y80588454D01*
X-12334538Y80497082D01*
X-12406330Y80389638D01*
X-12455780Y80270254D01*
X-12480990Y80143516D01*
X-12480990Y80014296D01*
X-12455780Y79887558D01*
X-12406330Y79768174D01*
X-12334538Y79660730D01*
X-12243166Y79569358D01*
X-12135722Y79497566D01*
X-12016338Y79448116D01*
X-11889600Y79422906D01*
X-11760380Y79422906D01*
X-11633642Y79448116D01*
X-11514258Y79497566D01*
X-11406814Y79569358D01*
X-11315442Y79660730D01*
X-11243650Y79768174D01*
X-11194200Y79887558D01*
X-11168990Y80014296D01*
X-11168990Y80143516D01*
X-11169808Y80147628D01*
X-11152740Y80154698D01*
X-11045296Y80226490D01*
X-10953924Y80317862D01*
X-10882132Y80425306D01*
X-10832682Y80544690D01*
X-10807472Y80671428D01*
X-10807472Y80800648D01*
X-10832682Y80927386D01*
X-10882132Y81046770D01*
X-10953113Y81153000D01*
X9105276Y81153000D01*
X9015452Y81063176D01*
X8943660Y80955732D01*
X8894210Y80836348D01*
X8869000Y80709610D01*
X8869000Y80580390D01*
X8894210Y80453652D01*
X8943660Y80334268D01*
X9015452Y80226824D01*
X9106824Y80135452D01*
X9214268Y80063660D01*
X9333652Y80014210D01*
X9460390Y79989000D01*
X9589610Y79989000D01*
X9716348Y80014210D01*
X9835732Y80063660D01*
X9943176Y80135452D01*
X10034548Y80226824D01*
X10106340Y80334268D01*
X10155790Y80453652D01*
X10181000Y80580390D01*
X10181000Y80709610D01*
X10155790Y80836348D01*
X10106340Y80955732D01*
X10034548Y81063176D01*
X9944724Y81153000D01*
X17335500Y81153000D01*
X17335500Y77152500D01*
X17337940Y77127724D01*
X17345167Y77103899D01*
X17356903Y77081943D01*
X17372697Y77062697D01*
X17391943Y77046903D01*
X17413899Y77035167D01*
X17437724Y77027940D01*
X17462500Y77025500D01*
X24447500Y77025500D01*
X24472276Y77027940D01*
X24496101Y77035167D01*
X24518057Y77046903D01*
X24537303Y77062697D01*
X24553097Y77081943D01*
X24564833Y77103899D01*
X24572060Y77127724D01*
X24574500Y77152500D01*
X24574500Y81153000D01*
X26264001Y81153000D01*
X26264001Y80664950D01*
X26264000Y80664940D01*
X26264001Y54629950D01*
X26264000Y54629940D01*
X26264001Y48666000D01*
X-31979000Y48666000D01*
X-31979000Y51546394D01*
X-23356000Y51546394D01*
X-23356000Y51323606D01*
X-23312536Y51105100D01*
X-23227279Y50899271D01*
X-23103505Y50714030D01*
X-22945970Y50556495D01*
X-22760729Y50432721D01*
X-22554900Y50347464D01*
X-22336394Y50304000D01*
X-22113606Y50304000D01*
X-21895100Y50347464D01*
X-21689271Y50432721D01*
X-21504030Y50556495D01*
X-21346495Y50714030D01*
X-21245881Y50864610D01*
X-1926000Y50864610D01*
X-1926000Y50735390D01*
X-1900790Y50608652D01*
X-1851340Y50489268D01*
X-1779548Y50381824D01*
X-1688176Y50290452D01*
X-1580732Y50218660D01*
X-1461348Y50169210D01*
X-1334610Y50144000D01*
X-1205390Y50144000D01*
X-1078652Y50169210D01*
X-959268Y50218660D01*
X-851824Y50290452D01*
X-760452Y50381824D01*
X-688660Y50489268D01*
X-639210Y50608652D01*
X-614000Y50735390D01*
X-614000Y50864610D01*
X-639210Y50991348D01*
X-688660Y51110732D01*
X-760452Y51218176D01*
X-851824Y51309548D01*
X-959268Y51381340D01*
X-1078652Y51430790D01*
X-1205390Y51456000D01*
X-1334610Y51456000D01*
X-1461348Y51430790D01*
X-1580732Y51381340D01*
X-1688176Y51309548D01*
X-1779548Y51218176D01*
X-1851340Y51110732D01*
X-1900790Y50991348D01*
X-1926000Y50864610D01*
X-21245881Y50864610D01*
X-21222721Y50899271D01*
X-21137464Y51105100D01*
X-21094000Y51323606D01*
X-21094000Y51546394D01*
X19824000Y51546394D01*
X19824000Y51323606D01*
X19867464Y51105100D01*
X19952721Y50899271D01*
X20076495Y50714030D01*
X20234030Y50556495D01*
X20419271Y50432721D01*
X20625100Y50347464D01*
X20843606Y50304000D01*
X21066394Y50304000D01*
X21284900Y50347464D01*
X21490729Y50432721D01*
X21675970Y50556495D01*
X21833505Y50714030D01*
X21957279Y50899271D01*
X22042536Y51105100D01*
X22086000Y51323606D01*
X22086000Y51546394D01*
X22042536Y51764900D01*
X21957279Y51970729D01*
X21833505Y52155970D01*
X21675970Y52313505D01*
X21490729Y52437279D01*
X21284900Y52522536D01*
X21066394Y52566000D01*
X20843606Y52566000D01*
X20625100Y52522536D01*
X20419271Y52437279D01*
X20234030Y52313505D01*
X20076495Y52155970D01*
X19952721Y51970729D01*
X19867464Y51764900D01*
X19824000Y51546394D01*
X-21094000Y51546394D01*
X-21137464Y51764900D01*
X-21222721Y51970729D01*
X-21346495Y52155970D01*
X-21504030Y52313505D01*
X-21689271Y52437279D01*
X-21895100Y52522536D01*
X-22113606Y52566000D01*
X-22336394Y52566000D01*
X-22554900Y52522536D01*
X-22760729Y52437279D01*
X-22945970Y52313505D01*
X-23103505Y52155970D01*
X-23227279Y51970729D01*
X-23312536Y51764900D01*
X-23356000Y51546394D01*
X-31979000Y51546394D01*
X-31979000Y54039610D01*
X2519000Y54039610D01*
X2519000Y53910390D01*
X2544210Y53783652D01*
X2593660Y53664268D01*
X2665452Y53556824D01*
X2756824Y53465452D01*
X2864268Y53393660D01*
X2983652Y53344210D01*
X3110390Y53319000D01*
X3239610Y53319000D01*
X3366348Y53344210D01*
X3485732Y53393660D01*
X3593176Y53465452D01*
X3684548Y53556824D01*
X3756340Y53664268D01*
X3805790Y53783652D01*
X3831000Y53910390D01*
X3831000Y53972182D01*
X3850641Y53952541D01*
X3978558Y53867070D01*
X4120691Y53808196D01*
X4271578Y53778183D01*
X4425422Y53778183D01*
X4576309Y53808196D01*
X4718442Y53867070D01*
X4846359Y53952541D01*
X4955142Y54061324D01*
X5040613Y54189241D01*
X5099487Y54331374D01*
X5129500Y54482261D01*
X5129500Y54636105D01*
X5107014Y54749153D01*
X5108358Y54747141D01*
X5217141Y54638358D01*
X5345058Y54552887D01*
X5487191Y54494013D01*
X5638078Y54464000D01*
X5791922Y54464000D01*
X5942809Y54494013D01*
X6084942Y54552887D01*
X6212859Y54638358D01*
X6302101Y54727600D01*
X6294010Y54686922D01*
X6294010Y54533078D01*
X6324023Y54382191D01*
X6382897Y54240058D01*
X6468368Y54112141D01*
X6577151Y54003358D01*
X6705068Y53917887D01*
X6847201Y53859013D01*
X6998088Y53829000D01*
X7151932Y53829000D01*
X7302819Y53859013D01*
X7444952Y53917887D01*
X7572869Y54003358D01*
X7681652Y54112141D01*
X7767123Y54240058D01*
X7825997Y54382191D01*
X7856010Y54533078D01*
X7856010Y54686922D01*
X7825997Y54837809D01*
X7767123Y54979942D01*
X7681652Y55107859D01*
X7572869Y55216642D01*
X7444952Y55302113D01*
X7302819Y55360987D01*
X7151932Y55391000D01*
X6998088Y55391000D01*
X6847201Y55360987D01*
X6705068Y55302113D01*
X6577151Y55216642D01*
X6487909Y55127400D01*
X6496000Y55168078D01*
X6496000Y55321922D01*
X6465987Y55472809D01*
X6407113Y55614942D01*
X6321642Y55742859D01*
X6212859Y55851642D01*
X6084942Y55937113D01*
X6013342Y55966771D01*
X11184000Y55966771D01*
X11184000Y55793229D01*
X11217856Y55623022D01*
X11284268Y55462690D01*
X11380682Y55318395D01*
X11503395Y55195682D01*
X11647690Y55099268D01*
X11808022Y55032856D01*
X11978229Y54999000D01*
X12151771Y54999000D01*
X12321978Y55032856D01*
X12482310Y55099268D01*
X12626605Y55195682D01*
X12749318Y55318395D01*
X12845732Y55462690D01*
X12912144Y55623022D01*
X12946000Y55793229D01*
X12946000Y55966771D01*
X12912144Y56136978D01*
X12845732Y56297310D01*
X12749318Y56441605D01*
X12626605Y56564318D01*
X12482310Y56660732D01*
X12321978Y56727144D01*
X12151771Y56761000D01*
X11978229Y56761000D01*
X11808022Y56727144D01*
X11647690Y56660732D01*
X11503395Y56564318D01*
X11380682Y56441605D01*
X11284268Y56297310D01*
X11217856Y56136978D01*
X11184000Y55966771D01*
X6013342Y55966771D01*
X5942809Y55995987D01*
X5791922Y56026000D01*
X5638078Y56026000D01*
X5487191Y55995987D01*
X5345058Y55937113D01*
X5217141Y55851642D01*
X5108358Y55742859D01*
X5022887Y55614942D01*
X4964013Y55472809D01*
X4934000Y55321922D01*
X4934000Y55168078D01*
X4956486Y55055030D01*
X4955142Y55057042D01*
X4846359Y55165825D01*
X4718442Y55251296D01*
X4576309Y55310170D01*
X4425422Y55340183D01*
X4271578Y55340183D01*
X4120691Y55310170D01*
X3978558Y55251296D01*
X3850641Y55165825D01*
X3741858Y55057042D01*
X3656387Y54929125D01*
X3597513Y54786992D01*
X3567500Y54636105D01*
X3567500Y54501704D01*
X3485732Y54556340D01*
X3366348Y54605790D01*
X3239610Y54631000D01*
X3110390Y54631000D01*
X2983652Y54605790D01*
X2864268Y54556340D01*
X2756824Y54484548D01*
X2665452Y54393176D01*
X2593660Y54285732D01*
X2544210Y54166348D01*
X2519000Y54039610D01*
X-31979000Y54039610D01*
X-31979000Y57546394D01*
X-23356000Y57546394D01*
X-23356000Y57323606D01*
X-23312536Y57105100D01*
X-23227279Y56899271D01*
X-23103505Y56714030D01*
X-22945970Y56556495D01*
X-22760729Y56432721D01*
X-22554900Y56347464D01*
X-22336394Y56304000D01*
X-22113606Y56304000D01*
X-21895100Y56347464D01*
X-21689271Y56432721D01*
X-21504030Y56556495D01*
X-21346495Y56714030D01*
X-21222721Y56899271D01*
X-21137464Y57105100D01*
X-21094000Y57323606D01*
X-21094000Y57546394D01*
X-21137464Y57764900D01*
X-21222721Y57970729D01*
X-21346495Y58155970D01*
X-21504030Y58313505D01*
X-21670310Y58424610D01*
X-3831000Y58424610D01*
X-3831000Y58295390D01*
X-3805790Y58168652D01*
X-3756340Y58049268D01*
X-3684548Y57941824D01*
X-3593176Y57850452D01*
X-3485732Y57778660D01*
X-3366348Y57729210D01*
X-3239610Y57704000D01*
X-3110390Y57704000D01*
X-2983652Y57729210D01*
X-2864268Y57778660D01*
X-2756824Y57850452D01*
X-2665452Y57941824D01*
X-2593660Y58049268D01*
X-2544210Y58168652D01*
X-2519000Y58295390D01*
X-2519000Y58424610D01*
X-2535342Y58506771D01*
X8644000Y58506771D01*
X8644000Y58333229D01*
X8677856Y58163022D01*
X8744268Y58002690D01*
X8840682Y57858395D01*
X8963395Y57735682D01*
X9107690Y57639268D01*
X9268022Y57572856D01*
X9438229Y57539000D01*
X9611771Y57539000D01*
X9648943Y57546394D01*
X19824000Y57546394D01*
X19824000Y57323606D01*
X19867464Y57105100D01*
X19952721Y56899271D01*
X20076495Y56714030D01*
X20234030Y56556495D01*
X20419271Y56432721D01*
X20625100Y56347464D01*
X20843606Y56304000D01*
X21066394Y56304000D01*
X21284900Y56347464D01*
X21490729Y56432721D01*
X21675970Y56556495D01*
X21833505Y56714030D01*
X21957279Y56899271D01*
X22042536Y57105100D01*
X22086000Y57323606D01*
X22086000Y57546394D01*
X22042536Y57764900D01*
X21957279Y57970729D01*
X21833505Y58155970D01*
X21675970Y58313505D01*
X21490729Y58437279D01*
X21284900Y58522536D01*
X21066394Y58566000D01*
X20843606Y58566000D01*
X20625100Y58522536D01*
X20419271Y58437279D01*
X20234030Y58313505D01*
X20076495Y58155970D01*
X19952721Y57970729D01*
X19867464Y57764900D01*
X19824000Y57546394D01*
X9648943Y57546394D01*
X9781978Y57572856D01*
X9942310Y57639268D01*
X10086605Y57735682D01*
X10209318Y57858395D01*
X10305732Y58002690D01*
X10372144Y58163022D01*
X10406000Y58333229D01*
X10406000Y58506771D01*
X10372144Y58676978D01*
X10305732Y58837310D01*
X10209318Y58981605D01*
X10086605Y59104318D01*
X9942310Y59200732D01*
X9781978Y59267144D01*
X9611771Y59301000D01*
X9438229Y59301000D01*
X9268022Y59267144D01*
X9107690Y59200732D01*
X8963395Y59104318D01*
X8840682Y58981605D01*
X8744268Y58837310D01*
X8677856Y58676978D01*
X8644000Y58506771D01*
X-2535342Y58506771D01*
X-2544210Y58551348D01*
X-2593660Y58670732D01*
X-2665452Y58778176D01*
X-2756824Y58869548D01*
X-2864268Y58941340D01*
X-2983652Y58990790D01*
X-3110390Y59016000D01*
X-3239610Y59016000D01*
X-3366348Y58990790D01*
X-3485732Y58941340D01*
X-3593176Y58869548D01*
X-3684548Y58778176D01*
X-3756340Y58670732D01*
X-3805790Y58551348D01*
X-3831000Y58424610D01*
X-21670310Y58424610D01*
X-21689271Y58437279D01*
X-21895100Y58522536D01*
X-22113606Y58566000D01*
X-22336394Y58566000D01*
X-22554900Y58522536D01*
X-22760729Y58437279D01*
X-22945970Y58313505D01*
X-23103505Y58155970D01*
X-23227279Y57970729D01*
X-23312536Y57764900D01*
X-23356000Y57546394D01*
X-31979000Y57546394D01*
X-31979000Y61024610D01*
X-26691000Y61024610D01*
X-26691000Y60895390D01*
X-26665790Y60768652D01*
X-26616340Y60649268D01*
X-26544548Y60541824D01*
X-26453176Y60450452D01*
X-26345732Y60378660D01*
X-26226348Y60329210D01*
X-26099610Y60304000D01*
X-25970390Y60304000D01*
X-25843652Y60329210D01*
X-25724268Y60378660D01*
X-25616824Y60450452D01*
X-25525452Y60541824D01*
X-25453660Y60649268D01*
X-25404210Y60768652D01*
X-25379000Y60895390D01*
X-25379000Y61024610D01*
X-25383408Y61046771D01*
X11184000Y61046771D01*
X11184000Y60873229D01*
X11217856Y60703022D01*
X11284268Y60542690D01*
X11380682Y60398395D01*
X11503395Y60275682D01*
X11647690Y60179268D01*
X11808022Y60112856D01*
X11978229Y60079000D01*
X12151771Y60079000D01*
X12321978Y60112856D01*
X12482310Y60179268D01*
X12626605Y60275682D01*
X12749318Y60398395D01*
X12845732Y60542690D01*
X12912144Y60703022D01*
X12946000Y60873229D01*
X12946000Y61046771D01*
X12912144Y61216978D01*
X12845732Y61377310D01*
X12749318Y61521605D01*
X12626605Y61644318D01*
X12482310Y61740732D01*
X12321978Y61807144D01*
X12151771Y61841000D01*
X11978229Y61841000D01*
X11808022Y61807144D01*
X11647690Y61740732D01*
X11503395Y61644318D01*
X11380682Y61521605D01*
X11284268Y61377310D01*
X11217856Y61216978D01*
X11184000Y61046771D01*
X-25383408Y61046771D01*
X-25404210Y61151348D01*
X-25453660Y61270732D01*
X-25525452Y61378176D01*
X-25616824Y61469548D01*
X-25724268Y61541340D01*
X-25843652Y61590790D01*
X-25970390Y61616000D01*
X-26099610Y61616000D01*
X-26226348Y61590790D01*
X-26345732Y61541340D01*
X-26453176Y61469548D01*
X-26544548Y61378176D01*
X-26616340Y61270732D01*
X-26665790Y61151348D01*
X-26691000Y61024610D01*
X-31979000Y61024610D01*
X-31979000Y63564610D01*
X-29231000Y63564610D01*
X-29231000Y63435390D01*
X-29205790Y63308652D01*
X-29156340Y63189268D01*
X-29084548Y63081824D01*
X-28993176Y62990452D01*
X-28885732Y62918660D01*
X-28766348Y62869210D01*
X-28639610Y62844000D01*
X-28510390Y62844000D01*
X-28383652Y62869210D01*
X-28264268Y62918660D01*
X-28156824Y62990452D01*
X-28065452Y63081824D01*
X-27993660Y63189268D01*
X-27944210Y63308652D01*
X-27919000Y63435390D01*
X-27919000Y63564610D01*
X-15896000Y63564610D01*
X-15896000Y63435390D01*
X-15870790Y63308652D01*
X-15821340Y63189268D01*
X-15749548Y63081824D01*
X-15658176Y62990452D01*
X-15550732Y62918660D01*
X-15431348Y62869210D01*
X-15304610Y62844000D01*
X-15175390Y62844000D01*
X-15048652Y62869210D01*
X-14929268Y62918660D01*
X-14821824Y62990452D01*
X-14730452Y63081824D01*
X-14658660Y63189268D01*
X-14609210Y63308652D01*
X-14584000Y63435390D01*
X-14584000Y63564610D01*
X-14609210Y63691348D01*
X-14658660Y63810732D01*
X-14730452Y63918176D01*
X-14821824Y64009548D01*
X-14929268Y64081340D01*
X-15048652Y64130790D01*
X-15175390Y64156000D01*
X-15304610Y64156000D01*
X-15431348Y64130790D01*
X-15550732Y64081340D01*
X-15658176Y64009548D01*
X-15749548Y63918176D01*
X-15821340Y63810732D01*
X-15870790Y63691348D01*
X-15896000Y63564610D01*
X-27919000Y63564610D01*
X-27944210Y63691348D01*
X-27993660Y63810732D01*
X-28065452Y63918176D01*
X-28156824Y64009548D01*
X-28264268Y64081340D01*
X-28383652Y64130790D01*
X-28510390Y64156000D01*
X-28639610Y64156000D01*
X-28766348Y64130790D01*
X-28885732Y64081340D01*
X-28993176Y64009548D01*
X-29084548Y63918176D01*
X-29156340Y63810732D01*
X-29205790Y63691348D01*
X-29231000Y63564610D01*
X-31979000Y63564610D01*
X-31979000Y66104610D01*
X-31771000Y66104610D01*
X-31771000Y65975390D01*
X-31745790Y65848652D01*
X-31696340Y65729268D01*
X-31624548Y65621824D01*
X-31533176Y65530452D01*
X-31425732Y65458660D01*
X-31306348Y65409210D01*
X-31179610Y65384000D01*
X-31050390Y65384000D01*
X-30923652Y65409210D01*
X-30804268Y65458660D01*
X-30696824Y65530452D01*
X-30605452Y65621824D01*
X-30533660Y65729268D01*
X-30484210Y65848652D01*
X-30459000Y65975390D01*
X-30459000Y66104610D01*
X-26691000Y66104610D01*
X-26691000Y65975390D01*
X-26665790Y65848652D01*
X-26616340Y65729268D01*
X-26544548Y65621824D01*
X-26453176Y65530452D01*
X-26345732Y65458660D01*
X-26226348Y65409210D01*
X-26099610Y65384000D01*
X-25970390Y65384000D01*
X-25843652Y65409210D01*
X-25724268Y65458660D01*
X-25674715Y65491771D01*
X-20566000Y65491771D01*
X-20566000Y65318229D01*
X-20532144Y65148022D01*
X-20465732Y64987690D01*
X-20369318Y64843395D01*
X-20246605Y64720682D01*
X-20102310Y64624268D01*
X-19941978Y64557856D01*
X-19771771Y64524000D01*
X-19598229Y64524000D01*
X-19428022Y64557856D01*
X-19267690Y64624268D01*
X-19123395Y64720682D01*
X-19000682Y64843395D01*
X-18904268Y64987690D01*
X-18837856Y65148022D01*
X-18804000Y65318229D01*
X-18804000Y65491771D01*
X-18837856Y65661978D01*
X-18904268Y65822310D01*
X-19000682Y65966605D01*
X-19123395Y66089318D01*
X-19267690Y66185732D01*
X-19428022Y66252144D01*
X-19598229Y66286000D01*
X-19771771Y66286000D01*
X-19941978Y66252144D01*
X-20102310Y66185732D01*
X-20246605Y66089318D01*
X-20369318Y65966605D01*
X-20465732Y65822310D01*
X-20532144Y65661978D01*
X-20566000Y65491771D01*
X-25674715Y65491771D01*
X-25616824Y65530452D01*
X-25525452Y65621824D01*
X-25453660Y65729268D01*
X-25404210Y65848652D01*
X-25379000Y65975390D01*
X-25379000Y66104610D01*
X-25404210Y66231348D01*
X-25453660Y66350732D01*
X-25525452Y66458176D01*
X-25616824Y66549548D01*
X-25724268Y66621340D01*
X-25843652Y66670790D01*
X-25970390Y66696000D01*
X-26099610Y66696000D01*
X-26226348Y66670790D01*
X-26345732Y66621340D01*
X-26453176Y66549548D01*
X-26544548Y66458176D01*
X-26616340Y66350732D01*
X-26665790Y66231348D01*
X-26691000Y66104610D01*
X-30459000Y66104610D01*
X-30484210Y66231348D01*
X-30533660Y66350732D01*
X-30605452Y66458176D01*
X-30696824Y66549548D01*
X-30804268Y66621340D01*
X-30923652Y66670790D01*
X-31050390Y66696000D01*
X-31179610Y66696000D01*
X-31306348Y66670790D01*
X-31425732Y66621340D01*
X-31533176Y66549548D01*
X-31624548Y66458176D01*
X-31696340Y66350732D01*
X-31745790Y66231348D01*
X-31771000Y66104610D01*
X-31979000Y66104610D01*
X-31979000Y66751922D01*
X-9671000Y66751922D01*
X-9671000Y66598078D01*
X-9640987Y66447191D01*
X-9582113Y66305058D01*
X-9496642Y66177141D01*
X-9387859Y66068358D01*
X-9259942Y65982887D01*
X-9117809Y65924013D01*
X-8966922Y65894000D01*
X-8813078Y65894000D01*
X-8662191Y65924013D01*
X-8520058Y65982887D01*
X-8392141Y66068358D01*
X-8283358Y66177141D01*
X-8197887Y66305058D01*
X-8139013Y66447191D01*
X-8109000Y66598078D01*
X-8109000Y66751922D01*
X-8139013Y66902809D01*
X-8197887Y67044942D01*
X-8283358Y67172859D01*
X-8392141Y67281642D01*
X-8520058Y67367113D01*
X-8662191Y67425987D01*
X-8813078Y67456000D01*
X-8966922Y67456000D01*
X-9117809Y67425987D01*
X-9259942Y67367113D01*
X-9387859Y67281642D01*
X-9496642Y67172859D01*
X-9582113Y67044942D01*
X-9640987Y66902809D01*
X-9671000Y66751922D01*
X-31979000Y66751922D01*
X-31979000Y68031771D01*
X-23106000Y68031771D01*
X-23106000Y67858229D01*
X-23072144Y67688022D01*
X-23005732Y67527690D01*
X-22909318Y67383395D01*
X-22786605Y67260682D01*
X-22642310Y67164268D01*
X-22481978Y67097856D01*
X-22311771Y67064000D01*
X-22138229Y67064000D01*
X-21968022Y67097856D01*
X-21807690Y67164268D01*
X-21803850Y67166834D01*
X-17743561Y67166834D01*
X-17708450Y66953412D01*
X-17504174Y66862542D01*
X-17286095Y66813269D01*
X-17062594Y66807489D01*
X-16842260Y66845423D01*
X-16633560Y66925613D01*
X-16581550Y66953412D01*
X-16546439Y67166834D01*
X-17145000Y67765395D01*
X-17743561Y67166834D01*
X-21803850Y67166834D01*
X-21663395Y67260682D01*
X-21540682Y67383395D01*
X-21444268Y67527690D01*
X-21377856Y67688022D01*
X-21344000Y67858229D01*
X-21344000Y67862594D01*
X-18282511Y67862594D01*
X-18244577Y67642260D01*
X-18164387Y67433560D01*
X-18136588Y67381550D01*
X-17923166Y67346439D01*
X-17324605Y67945000D01*
X-16965395Y67945000D01*
X-16366834Y67346439D01*
X-16153412Y67381550D01*
X-16062542Y67585826D01*
X-16013269Y67803905D01*
X-16007489Y68027406D01*
X-16045423Y68247740D01*
X-16125613Y68456440D01*
X-16153412Y68508450D01*
X-16366834Y68543561D01*
X-16965395Y67945000D01*
X-17324605Y67945000D01*
X-17923166Y68543561D01*
X-18136588Y68508450D01*
X-18227458Y68304174D01*
X-18276731Y68086095D01*
X-18282511Y67862594D01*
X-21344000Y67862594D01*
X-21344000Y68031771D01*
X-21377856Y68201978D01*
X-21444268Y68362310D01*
X-21540682Y68506605D01*
X-21663395Y68629318D01*
X-21803849Y68723166D01*
X-17743561Y68723166D01*
X-17145000Y68124605D01*
X-16546439Y68723166D01*
X-16581550Y68936588D01*
X-16785826Y69027458D01*
X-17003905Y69076731D01*
X-17227406Y69082511D01*
X-17447740Y69044577D01*
X-17656440Y68964387D01*
X-17708450Y68936588D01*
X-17743561Y68723166D01*
X-21803849Y68723166D01*
X-21807690Y68725732D01*
X-21968022Y68792144D01*
X-22138229Y68826000D01*
X-22311771Y68826000D01*
X-22481978Y68792144D01*
X-22642310Y68725732D01*
X-22786605Y68629318D01*
X-22909318Y68506605D01*
X-23005732Y68362310D01*
X-23072144Y68201978D01*
X-23106000Y68031771D01*
X-31979000Y68031771D01*
X-31979000Y69914610D01*
X-30501000Y69914610D01*
X-30501000Y69785390D01*
X-30475790Y69658652D01*
X-30426340Y69539268D01*
X-30354548Y69431824D01*
X-30263176Y69340452D01*
X-30155732Y69268660D01*
X-30036348Y69219210D01*
X-29909610Y69194000D01*
X-29780390Y69194000D01*
X-29653652Y69219210D01*
X-29534268Y69268660D01*
X-29426824Y69340452D01*
X-29335452Y69431824D01*
X-29263660Y69539268D01*
X-29214210Y69658652D01*
X-29189000Y69785390D01*
X-29189000Y69914610D01*
X-12086000Y69914610D01*
X-12086000Y69785390D01*
X-12060790Y69658652D01*
X-12011340Y69539268D01*
X-11939548Y69431824D01*
X-11848176Y69340452D01*
X-11740732Y69268660D01*
X-11621348Y69219210D01*
X-11494610Y69194000D01*
X-11365390Y69194000D01*
X-11238652Y69219210D01*
X-11119268Y69268660D01*
X-11081365Y69293986D01*
X-10991523Y69233955D01*
X-10872139Y69184505D01*
X-10745401Y69159295D01*
X-10616181Y69159295D01*
X-10489443Y69184505D01*
X-10370059Y69233955D01*
X-10262615Y69305747D01*
X-10171243Y69397119D01*
X-10099451Y69504563D01*
X-10050001Y69623947D01*
X-10024791Y69750685D01*
X-10024791Y69879905D01*
X-10031694Y69914610D01*
X-7641000Y69914610D01*
X-7641000Y69785390D01*
X-7615790Y69658652D01*
X-7566340Y69539268D01*
X-7494548Y69431824D01*
X-7403176Y69340452D01*
X-7295732Y69268660D01*
X-7176348Y69219210D01*
X-7049610Y69194000D01*
X-6920390Y69194000D01*
X-6793652Y69219210D01*
X-6674268Y69268660D01*
X-6566824Y69340452D01*
X-6475452Y69431824D01*
X-6403660Y69539268D01*
X-6354210Y69658652D01*
X-6329000Y69785390D01*
X-6329000Y69914610D01*
X7599000Y69914610D01*
X7599000Y69785390D01*
X7624210Y69658652D01*
X7673660Y69539268D01*
X7745452Y69431824D01*
X7836824Y69340452D01*
X7944268Y69268660D01*
X8063652Y69219210D01*
X8190390Y69194000D01*
X8319610Y69194000D01*
X8446348Y69219210D01*
X8565732Y69268660D01*
X8673176Y69340452D01*
X8764548Y69431824D01*
X8836340Y69539268D01*
X8885790Y69658652D01*
X8911000Y69785390D01*
X8911000Y69914610D01*
X15219000Y69914610D01*
X15219000Y69785390D01*
X15244210Y69658652D01*
X15293660Y69539268D01*
X15365452Y69431824D01*
X15456824Y69340452D01*
X15564268Y69268660D01*
X15683652Y69219210D01*
X15810390Y69194000D01*
X15939610Y69194000D01*
X16066348Y69219210D01*
X16185732Y69268660D01*
X16293176Y69340452D01*
X16384548Y69431824D01*
X16456340Y69539268D01*
X16505790Y69658652D01*
X16531000Y69785390D01*
X16531000Y69914610D01*
X16505790Y70041348D01*
X16456340Y70160732D01*
X16384548Y70268176D01*
X16293176Y70359548D01*
X16185732Y70431340D01*
X16066348Y70480790D01*
X15939610Y70506000D01*
X15810390Y70506000D01*
X15683652Y70480790D01*
X15564268Y70431340D01*
X15456824Y70359548D01*
X15365452Y70268176D01*
X15293660Y70160732D01*
X15244210Y70041348D01*
X15219000Y69914610D01*
X8911000Y69914610D01*
X8885790Y70041348D01*
X8836340Y70160732D01*
X8764548Y70268176D01*
X8673176Y70359548D01*
X8565732Y70431340D01*
X8446348Y70480790D01*
X8319610Y70506000D01*
X8190390Y70506000D01*
X8063652Y70480790D01*
X7944268Y70431340D01*
X7836824Y70359548D01*
X7745452Y70268176D01*
X7673660Y70160732D01*
X7624210Y70041348D01*
X7599000Y69914610D01*
X-6329000Y69914610D01*
X-6354210Y70041348D01*
X-6403660Y70160732D01*
X-6475452Y70268176D01*
X-6566824Y70359548D01*
X-6674268Y70431340D01*
X-6793652Y70480790D01*
X-6920390Y70506000D01*
X-7049610Y70506000D01*
X-7176348Y70480790D01*
X-7295732Y70431340D01*
X-7403176Y70359548D01*
X-7494548Y70268176D01*
X-7566340Y70160732D01*
X-7615790Y70041348D01*
X-7641000Y69914610D01*
X-10031694Y69914610D01*
X-10050001Y70006643D01*
X-10099451Y70126027D01*
X-10171243Y70233471D01*
X-10262615Y70324843D01*
X-10370059Y70396635D01*
X-10489443Y70446085D01*
X-10616181Y70471295D01*
X-10745401Y70471295D01*
X-10872139Y70446085D01*
X-10991523Y70396635D01*
X-11029426Y70371309D01*
X-11119268Y70431340D01*
X-11238652Y70480790D01*
X-11365390Y70506000D01*
X-11494610Y70506000D01*
X-11621348Y70480790D01*
X-11740732Y70431340D01*
X-11848176Y70359548D01*
X-11939548Y70268176D01*
X-12011340Y70160732D01*
X-12060790Y70041348D01*
X-12086000Y69914610D01*
X-29189000Y69914610D01*
X-29214210Y70041348D01*
X-29263660Y70160732D01*
X-29335452Y70268176D01*
X-29426824Y70359548D01*
X-29534268Y70431340D01*
X-29653652Y70480790D01*
X-29780390Y70506000D01*
X-29909610Y70506000D01*
X-30036348Y70480790D01*
X-30155732Y70431340D01*
X-30263176Y70359548D01*
X-30354548Y70268176D01*
X-30426340Y70160732D01*
X-30475790Y70041348D01*
X-30501000Y69914610D01*
X-31979000Y69914610D01*
X-31979000Y72466922D01*
X-29991000Y72466922D01*
X-29991000Y72313078D01*
X-29960987Y72162191D01*
X-29902113Y72020058D01*
X-29816642Y71892141D01*
X-29707859Y71783358D01*
X-29579942Y71697887D01*
X-29437809Y71639013D01*
X-29286922Y71609000D01*
X-29133078Y71609000D01*
X-28982191Y71639013D01*
X-28840058Y71697887D01*
X-28712141Y71783358D01*
X-28663577Y71831922D01*
X4934000Y71831922D01*
X4934000Y71678078D01*
X4964013Y71527191D01*
X5022887Y71385058D01*
X5108358Y71257141D01*
X5217141Y71148358D01*
X5345058Y71062887D01*
X5487191Y71004013D01*
X5638078Y70974000D01*
X5791922Y70974000D01*
X5942809Y71004013D01*
X6084942Y71062887D01*
X6212859Y71148358D01*
X6321642Y71257141D01*
X6407113Y71385058D01*
X6465987Y71527191D01*
X6496000Y71678078D01*
X6496000Y71819610D01*
X9504000Y71819610D01*
X9504000Y71690390D01*
X9529210Y71563652D01*
X9578660Y71444268D01*
X9650452Y71336824D01*
X9741824Y71245452D01*
X9849268Y71173660D01*
X9968652Y71124210D01*
X10095390Y71099000D01*
X10224610Y71099000D01*
X10351348Y71124210D01*
X10470732Y71173660D01*
X10578176Y71245452D01*
X10669548Y71336824D01*
X10741340Y71444268D01*
X10790790Y71563652D01*
X10816000Y71690390D01*
X10816000Y71819610D01*
X10790790Y71946348D01*
X10741340Y72065732D01*
X10669548Y72173176D01*
X10578176Y72264548D01*
X10470732Y72336340D01*
X10351348Y72385790D01*
X10224610Y72411000D01*
X10095390Y72411000D01*
X9968652Y72385790D01*
X9849268Y72336340D01*
X9741824Y72264548D01*
X9650452Y72173176D01*
X9578660Y72065732D01*
X9529210Y71946348D01*
X9504000Y71819610D01*
X6496000Y71819610D01*
X6496000Y71831922D01*
X6465987Y71982809D01*
X6407113Y72124942D01*
X6321642Y72252859D01*
X6212859Y72361642D01*
X6084942Y72447113D01*
X5942809Y72505987D01*
X5791922Y72536000D01*
X5638078Y72536000D01*
X5487191Y72505987D01*
X5345058Y72447113D01*
X5217141Y72361642D01*
X5108358Y72252859D01*
X5022887Y72124942D01*
X4964013Y71982809D01*
X4934000Y71831922D01*
X-28663577Y71831922D01*
X-28603358Y71892141D01*
X-28517887Y72020058D01*
X-28459013Y72162191D01*
X-28429000Y72313078D01*
X-28429000Y72466922D01*
X-28459013Y72617809D01*
X-28517887Y72759942D01*
X-28603358Y72887859D01*
X-28712141Y72996642D01*
X-28840058Y73082113D01*
X-28982191Y73140987D01*
X-29027548Y73150009D01*
X-12480990Y73150009D01*
X-12480990Y73020789D01*
X-12455780Y72894051D01*
X-12406330Y72774667D01*
X-12334538Y72667223D01*
X-12243166Y72575851D01*
X-12135722Y72504059D01*
X-12016338Y72454609D01*
X-11889600Y72429399D01*
X-11760380Y72429399D01*
X-11633642Y72454609D01*
X-11514258Y72504059D01*
X-11406814Y72575851D01*
X-11315442Y72667223D01*
X-11243650Y72774667D01*
X-11194200Y72894051D01*
X-11168990Y73020789D01*
X-11168990Y73087886D01*
X-11088240Y73121333D01*
X-10980796Y73193125D01*
X-10889424Y73284497D01*
X-10817632Y73391941D01*
X-10768182Y73511325D01*
X-10742972Y73638063D01*
X-10742972Y73767283D01*
X-10768182Y73894021D01*
X-10797837Y73965615D01*
X-10754269Y73983661D01*
X-10646825Y74055453D01*
X-10555453Y74146825D01*
X-10483661Y74254269D01*
X-10464408Y74300751D01*
X-10387809Y74269023D01*
X-10236922Y74239010D01*
X-10083078Y74239010D01*
X-9932191Y74269023D01*
X-9790058Y74327897D01*
X-9662141Y74413368D01*
X-9553358Y74522151D01*
X-9477404Y74635825D01*
X-9473172Y74625609D01*
X-9401380Y74518165D01*
X-9310008Y74426793D01*
X-9202564Y74355001D01*
X-9083180Y74305551D01*
X-8956442Y74280341D01*
X-8827222Y74280341D01*
X-8700484Y74305551D01*
X-8581100Y74355001D01*
X-8473656Y74426793D01*
X-8382284Y74518165D01*
X-8310492Y74625609D01*
X-8261042Y74744993D01*
X-8235832Y74871731D01*
X-8235832Y75000951D01*
X-8261042Y75127689D01*
X-8310492Y75247073D01*
X-8382284Y75354517D01*
X-8473656Y75445889D01*
X-8581100Y75517681D01*
X-8700484Y75567131D01*
X-8827222Y75592341D01*
X-8956442Y75592341D01*
X-9083180Y75567131D01*
X-9202564Y75517681D01*
X-9310008Y75445889D01*
X-9401380Y75354517D01*
X-9433375Y75306633D01*
X-9467887Y75389952D01*
X-9553358Y75517869D01*
X-9662141Y75626652D01*
X-9684994Y75641922D01*
X-3321000Y75641922D01*
X-3321000Y75488078D01*
X-3290987Y75337191D01*
X-3232113Y75195058D01*
X-3146642Y75067141D01*
X-3037859Y74958358D01*
X-2909942Y74872887D01*
X-2767809Y74814013D01*
X-2616922Y74784000D01*
X-2463078Y74784000D01*
X-2312191Y74814013D01*
X-2170058Y74872887D01*
X-2042141Y74958358D01*
X-2005889Y74994610D01*
X12044000Y74994610D01*
X12044000Y74865390D01*
X12069210Y74738652D01*
X12118660Y74619268D01*
X12190452Y74511824D01*
X12281824Y74420452D01*
X12389268Y74348660D01*
X12508652Y74299210D01*
X12635390Y74274000D01*
X12764610Y74274000D01*
X12891348Y74299210D01*
X13010732Y74348660D01*
X13118176Y74420452D01*
X13209548Y74511824D01*
X13281340Y74619268D01*
X13330790Y74738652D01*
X13356000Y74865390D01*
X13356000Y74994610D01*
X13330790Y75121348D01*
X13281340Y75240732D01*
X13209548Y75348176D01*
X13118176Y75439548D01*
X13010732Y75511340D01*
X12891348Y75560790D01*
X12764610Y75586000D01*
X12635390Y75586000D01*
X12508652Y75560790D01*
X12389268Y75511340D01*
X12281824Y75439548D01*
X12190452Y75348176D01*
X12118660Y75240732D01*
X12069210Y75121348D01*
X12044000Y74994610D01*
X-2005889Y74994610D01*
X-1933358Y75067141D01*
X-1847887Y75195058D01*
X-1789013Y75337191D01*
X-1759000Y75488078D01*
X-1759000Y75641922D01*
X-1789013Y75792809D01*
X-1847887Y75934942D01*
X-1933358Y76062859D01*
X-2042141Y76171642D01*
X-2170058Y76257113D01*
X-2312191Y76315987D01*
X-2463078Y76346000D01*
X-2616922Y76346000D01*
X-2767809Y76315987D01*
X-2909942Y76257113D01*
X-3037859Y76171642D01*
X-3146642Y76062859D01*
X-3232113Y75934942D01*
X-3290987Y75792809D01*
X-3321000Y75641922D01*
X-9684994Y75641922D01*
X-9790058Y75712123D01*
X-9932191Y75770997D01*
X-10083078Y75801010D01*
X-10236922Y75801010D01*
X-10387809Y75770997D01*
X-10529942Y75712123D01*
X-10657859Y75626652D01*
X-10766642Y75517869D01*
X-10852113Y75389952D01*
X-10910987Y75247819D01*
X-10919521Y75204915D01*
X-11000391Y75221001D01*
X-11129611Y75221001D01*
X-11256349Y75195791D01*
X-11375733Y75146341D01*
X-11483177Y75074549D01*
X-11574549Y74983177D01*
X-11646341Y74875733D01*
X-11695791Y74756349D01*
X-11721001Y74629611D01*
X-11721001Y74500391D01*
X-11695791Y74373653D01*
X-11666136Y74302059D01*
X-11709704Y74284013D01*
X-11817148Y74212221D01*
X-11908520Y74120849D01*
X-11980312Y74013405D01*
X-12029762Y73894021D01*
X-12054972Y73767283D01*
X-12054972Y73700186D01*
X-12135722Y73666739D01*
X-12243166Y73594947D01*
X-12334538Y73503575D01*
X-12406330Y73396131D01*
X-12455780Y73276747D01*
X-12480990Y73150009D01*
X-29027548Y73150009D01*
X-29133078Y73171000D01*
X-29286922Y73171000D01*
X-29437809Y73140987D01*
X-29579942Y73082113D01*
X-29707859Y72996642D01*
X-29816642Y72887859D01*
X-29902113Y72759942D01*
X-29960987Y72617809D01*
X-29991000Y72466922D01*
X-31979000Y72466922D01*
X-31979000Y75584806D01*
X-31941348Y75569210D01*
X-31814610Y75544000D01*
X-31771000Y75544000D01*
X-31771000Y75500390D01*
X-31745790Y75373652D01*
X-31696340Y75254268D01*
X-31624548Y75146824D01*
X-31533176Y75055452D01*
X-31425732Y74983660D01*
X-31306348Y74934210D01*
X-31179610Y74909000D01*
X-31050390Y74909000D01*
X-30923652Y74934210D01*
X-30804268Y74983660D01*
X-30696824Y75055452D01*
X-30605452Y75146824D01*
X-30533660Y75254268D01*
X-30484210Y75373652D01*
X-30459000Y75500390D01*
X-30459000Y75629610D01*
X-27961000Y75629610D01*
X-27961000Y75500390D01*
X-27935790Y75373652D01*
X-27886340Y75254268D01*
X-27814548Y75146824D01*
X-27723176Y75055452D01*
X-27615732Y74983660D01*
X-27496348Y74934210D01*
X-27369610Y74909000D01*
X-27240390Y74909000D01*
X-27113652Y74934210D01*
X-26994268Y74983660D01*
X-26886824Y75055452D01*
X-26795452Y75146824D01*
X-26723660Y75254268D01*
X-26674210Y75373652D01*
X-26649000Y75500390D01*
X-26649000Y75629610D01*
X-26674210Y75756348D01*
X-26723660Y75875732D01*
X-26795452Y75983176D01*
X-26886824Y76074548D01*
X-26994268Y76146340D01*
X-27113652Y76195790D01*
X-27240390Y76221000D01*
X-27369610Y76221000D01*
X-27496348Y76195790D01*
X-27615732Y76146340D01*
X-27723176Y76074548D01*
X-27814548Y75983176D01*
X-27886340Y75875732D01*
X-27935790Y75756348D01*
X-27961000Y75629610D01*
X-30459000Y75629610D01*
X-30484210Y75756348D01*
X-30533660Y75875732D01*
X-30605452Y75983176D01*
X-30696824Y76074548D01*
X-30804268Y76146340D01*
X-30923652Y76195790D01*
X-31050390Y76221000D01*
X-31094000Y76221000D01*
X-31094000Y76264610D01*
X-31119210Y76391348D01*
X-31168660Y76510732D01*
X-31240452Y76618176D01*
X-31331824Y76709548D01*
X-31439268Y76781340D01*
X-31558652Y76830790D01*
X-31685390Y76856000D01*
X-31814610Y76856000D01*
X-31941348Y76830790D01*
X-31979000Y76815194D01*
X-31979000Y77569851D01*
X-31949586Y77564000D01*
X-31820366Y77564000D01*
X-31694448Y77589047D01*
X-10870437Y77589047D01*
X-10870437Y77459827D01*
X-10845227Y77333089D01*
X-10795777Y77213705D01*
X-10723985Y77106261D01*
X-10632613Y77014889D01*
X-10525169Y76943097D01*
X-10405785Y76893647D01*
X-10279047Y76868437D01*
X-10149827Y76868437D01*
X-10023089Y76893647D01*
X-9903705Y76943097D01*
X-9796261Y77014889D01*
X-9704889Y77106261D01*
X-9633097Y77213705D01*
X-9583647Y77333089D01*
X-9558437Y77459827D01*
X-9558437Y77534610D01*
X-7641000Y77534610D01*
X-7641000Y77405390D01*
X-7615790Y77278652D01*
X-7566340Y77159268D01*
X-7494548Y77051824D01*
X-7403176Y76960452D01*
X-7295732Y76888660D01*
X-7176348Y76839210D01*
X-7049610Y76814000D01*
X-6920390Y76814000D01*
X-6793652Y76839210D01*
X-6674268Y76888660D01*
X-6566824Y76960452D01*
X-6475452Y77051824D01*
X-6403660Y77159268D01*
X-6354210Y77278652D01*
X-6329000Y77405390D01*
X-6329000Y77534610D01*
X-6354210Y77661348D01*
X-6403660Y77780732D01*
X-6475452Y77888176D01*
X-6566824Y77979548D01*
X-6674268Y78051340D01*
X-6793652Y78100790D01*
X-6920390Y78126000D01*
X-7049610Y78126000D01*
X-7176348Y78100790D01*
X-7295732Y78051340D01*
X-7403176Y77979548D01*
X-7494548Y77888176D01*
X-7566340Y77780732D01*
X-7615790Y77661348D01*
X-7641000Y77534610D01*
X-9558437Y77534610D01*
X-9558437Y77589047D01*
X-9583647Y77715785D01*
X-9633097Y77835169D01*
X-9704889Y77942613D01*
X-9796261Y78033985D01*
X-9903705Y78105777D01*
X-10023089Y78155227D01*
X-10149827Y78180437D01*
X-10279047Y78180437D01*
X-10405785Y78155227D01*
X-10525169Y78105777D01*
X-10632613Y78033985D01*
X-10723985Y77942613D01*
X-10795777Y77835169D01*
X-10845227Y77715785D01*
X-10870437Y77589047D01*
X-31694448Y77589047D01*
X-31693628Y77589210D01*
X-31574244Y77638660D01*
X-31466800Y77710452D01*
X-31375428Y77801824D01*
X-31303636Y77909268D01*
X-31254186Y78028652D01*
X-31228976Y78155390D01*
X-31228976Y78284610D01*
X-31254186Y78411348D01*
X-31303636Y78530732D01*
X-31375428Y78638176D01*
X-31466800Y78729548D01*
X-31515496Y78762086D01*
X-31439268Y78793660D01*
X-31331824Y78865452D01*
X-31240452Y78956824D01*
X-31168660Y79064268D01*
X-31119210Y79183652D01*
X-31110190Y79229000D01*
X-31038078Y79229000D01*
X-30887191Y79259013D01*
X-30745058Y79317887D01*
X-30617141Y79403358D01*
X-30508358Y79512141D01*
X-30422887Y79640058D01*
X-30364013Y79782191D01*
X-30334000Y79933078D01*
X-30334000Y80086922D01*
X-30364013Y80237809D01*
X-30422887Y80379942D01*
X-30508358Y80507859D01*
X-30617141Y80616642D01*
X-30745058Y80702113D01*
X-30887191Y80760987D01*
X-31038078Y80791000D01*
X-31191922Y80791000D01*
X-31342809Y80760987D01*
X-31484942Y80702113D01*
X-31612859Y80616642D01*
X-31721642Y80507859D01*
X-31807113Y80379942D01*
X-31865987Y80237809D01*
X-31896000Y80086922D01*
X-31896000Y80014810D01*
X-31941348Y80005790D01*
X-31979000Y79990194D01*
X-31979000Y81153000D01*
X-28536501Y81153000D01*
X-28546642Y81142859D01*
G37*
X-28546642Y81142859D02*
X-28632113Y81014942D01*
X-28690987Y80872809D01*
X-28721000Y80721922D01*
X-28721000Y80568078D01*
X-28690987Y80417191D01*
X-28632113Y80275058D01*
X-28546642Y80147141D01*
X-28437859Y80038358D01*
X-28309942Y79952887D01*
X-28167809Y79894013D01*
X-28016922Y79864000D01*
X-27863078Y79864000D01*
X-27712191Y79894013D01*
X-27570058Y79952887D01*
X-27442141Y80038358D01*
X-27333358Y80147141D01*
X-27247887Y80275058D01*
X-27189013Y80417191D01*
X-27159000Y80568078D01*
X-27159000Y80721922D01*
X-27189013Y80872809D01*
X-27247887Y81014942D01*
X-27333358Y81142859D01*
X-27343499Y81153000D01*
X-23541029Y81153000D01*
X-23520977Y81052191D01*
X-23462103Y80910058D01*
X-23376632Y80782141D01*
X-23267849Y80673358D01*
X-23139932Y80587887D01*
X-22997799Y80529013D01*
X-22846912Y80499000D01*
X-22693068Y80499000D01*
X-22542181Y80529013D01*
X-22400048Y80587887D01*
X-22272131Y80673358D01*
X-22163348Y80782141D01*
X-22077877Y80910058D01*
X-22019003Y81052191D01*
X-21998951Y81153000D01*
X-11973831Y81153000D01*
X-12044812Y81046770D01*
X-12094262Y80927386D01*
X-12119472Y80800648D01*
X-12119472Y80671428D01*
X-12118654Y80667316D01*
X-12135722Y80660246D01*
X-12243166Y80588454D01*
X-12334538Y80497082D01*
X-12406330Y80389638D01*
X-12455780Y80270254D01*
X-12480990Y80143516D01*
X-12480990Y80014296D01*
X-12455780Y79887558D01*
X-12406330Y79768174D01*
X-12334538Y79660730D01*
X-12243166Y79569358D01*
X-12135722Y79497566D01*
X-12016338Y79448116D01*
X-11889600Y79422906D01*
X-11760380Y79422906D01*
X-11633642Y79448116D01*
X-11514258Y79497566D01*
X-11406814Y79569358D01*
X-11315442Y79660730D01*
X-11243650Y79768174D01*
X-11194200Y79887558D01*
X-11168990Y80014296D01*
X-11168990Y80143516D01*
X-11169808Y80147628D01*
X-11152740Y80154698D01*
X-11045296Y80226490D01*
X-10953924Y80317862D01*
X-10882132Y80425306D01*
X-10832682Y80544690D01*
X-10807472Y80671428D01*
X-10807472Y80800648D01*
X-10832682Y80927386D01*
X-10882132Y81046770D01*
X-10953113Y81153000D01*
X9105276Y81153000D01*
X9015452Y81063176D01*
X8943660Y80955732D01*
X8894210Y80836348D01*
X8869000Y80709610D01*
X8869000Y80580390D01*
X8894210Y80453652D01*
X8943660Y80334268D01*
X9015452Y80226824D01*
X9106824Y80135452D01*
X9214268Y80063660D01*
X9333652Y80014210D01*
X9460390Y79989000D01*
X9589610Y79989000D01*
X9716348Y80014210D01*
X9835732Y80063660D01*
X9943176Y80135452D01*
X10034548Y80226824D01*
X10106340Y80334268D01*
X10155790Y80453652D01*
X10181000Y80580390D01*
X10181000Y80709610D01*
X10155790Y80836348D01*
X10106340Y80955732D01*
X10034548Y81063176D01*
X9944724Y81153000D01*
X17335500Y81153000D01*
X17335500Y77152500D01*
X17337940Y77127724D01*
X17345167Y77103899D01*
X17356903Y77081943D01*
X17372697Y77062697D01*
X17391943Y77046903D01*
X17413899Y77035167D01*
X17437724Y77027940D01*
X17462500Y77025500D01*
X24447500Y77025500D01*
X24472276Y77027940D01*
X24496101Y77035167D01*
X24518057Y77046903D01*
X24537303Y77062697D01*
X24553097Y77081943D01*
X24564833Y77103899D01*
X24572060Y77127724D01*
X24574500Y77152500D01*
X24574500Y81153000D01*
X26264001Y81153000D01*
X26264001Y80664950D01*
X26264000Y80664940D01*
X26264001Y54629950D01*
X26264000Y54629940D01*
X26264001Y48666000D01*
X-31979000Y48666000D01*
X-31979000Y51546394D01*
X-23356000Y51546394D01*
X-23356000Y51323606D01*
X-23312536Y51105100D01*
X-23227279Y50899271D01*
X-23103505Y50714030D01*
X-22945970Y50556495D01*
X-22760729Y50432721D01*
X-22554900Y50347464D01*
X-22336394Y50304000D01*
X-22113606Y50304000D01*
X-21895100Y50347464D01*
X-21689271Y50432721D01*
X-21504030Y50556495D01*
X-21346495Y50714030D01*
X-21245881Y50864610D01*
X-1926000Y50864610D01*
X-1926000Y50735390D01*
X-1900790Y50608652D01*
X-1851340Y50489268D01*
X-1779548Y50381824D01*
X-1688176Y50290452D01*
X-1580732Y50218660D01*
X-1461348Y50169210D01*
X-1334610Y50144000D01*
X-1205390Y50144000D01*
X-1078652Y50169210D01*
X-959268Y50218660D01*
X-851824Y50290452D01*
X-760452Y50381824D01*
X-688660Y50489268D01*
X-639210Y50608652D01*
X-614000Y50735390D01*
X-614000Y50864610D01*
X-639210Y50991348D01*
X-688660Y51110732D01*
X-760452Y51218176D01*
X-851824Y51309548D01*
X-959268Y51381340D01*
X-1078652Y51430790D01*
X-1205390Y51456000D01*
X-1334610Y51456000D01*
X-1461348Y51430790D01*
X-1580732Y51381340D01*
X-1688176Y51309548D01*
X-1779548Y51218176D01*
X-1851340Y51110732D01*
X-1900790Y50991348D01*
X-1926000Y50864610D01*
X-21245881Y50864610D01*
X-21222721Y50899271D01*
X-21137464Y51105100D01*
X-21094000Y51323606D01*
X-21094000Y51546394D01*
X19824000Y51546394D01*
X19824000Y51323606D01*
X19867464Y51105100D01*
X19952721Y50899271D01*
X20076495Y50714030D01*
X20234030Y50556495D01*
X20419271Y50432721D01*
X20625100Y50347464D01*
X20843606Y50304000D01*
X21066394Y50304000D01*
X21284900Y50347464D01*
X21490729Y50432721D01*
X21675970Y50556495D01*
X21833505Y50714030D01*
X21957279Y50899271D01*
X22042536Y51105100D01*
X22086000Y51323606D01*
X22086000Y51546394D01*
X22042536Y51764900D01*
X21957279Y51970729D01*
X21833505Y52155970D01*
X21675970Y52313505D01*
X21490729Y52437279D01*
X21284900Y52522536D01*
X21066394Y52566000D01*
X20843606Y52566000D01*
X20625100Y52522536D01*
X20419271Y52437279D01*
X20234030Y52313505D01*
X20076495Y52155970D01*
X19952721Y51970729D01*
X19867464Y51764900D01*
X19824000Y51546394D01*
X-21094000Y51546394D01*
X-21137464Y51764900D01*
X-21222721Y51970729D01*
X-21346495Y52155970D01*
X-21504030Y52313505D01*
X-21689271Y52437279D01*
X-21895100Y52522536D01*
X-22113606Y52566000D01*
X-22336394Y52566000D01*
X-22554900Y52522536D01*
X-22760729Y52437279D01*
X-22945970Y52313505D01*
X-23103505Y52155970D01*
X-23227279Y51970729D01*
X-23312536Y51764900D01*
X-23356000Y51546394D01*
X-31979000Y51546394D01*
X-31979000Y54039610D01*
X2519000Y54039610D01*
X2519000Y53910390D01*
X2544210Y53783652D01*
X2593660Y53664268D01*
X2665452Y53556824D01*
X2756824Y53465452D01*
X2864268Y53393660D01*
X2983652Y53344210D01*
X3110390Y53319000D01*
X3239610Y53319000D01*
X3366348Y53344210D01*
X3485732Y53393660D01*
X3593176Y53465452D01*
X3684548Y53556824D01*
X3756340Y53664268D01*
X3805790Y53783652D01*
X3831000Y53910390D01*
X3831000Y53972182D01*
X3850641Y53952541D01*
X3978558Y53867070D01*
X4120691Y53808196D01*
X4271578Y53778183D01*
X4425422Y53778183D01*
X4576309Y53808196D01*
X4718442Y53867070D01*
X4846359Y53952541D01*
X4955142Y54061324D01*
X5040613Y54189241D01*
X5099487Y54331374D01*
X5129500Y54482261D01*
X5129500Y54636105D01*
X5107014Y54749153D01*
X5108358Y54747141D01*
X5217141Y54638358D01*
X5345058Y54552887D01*
X5487191Y54494013D01*
X5638078Y54464000D01*
X5791922Y54464000D01*
X5942809Y54494013D01*
X6084942Y54552887D01*
X6212859Y54638358D01*
X6302101Y54727600D01*
X6294010Y54686922D01*
X6294010Y54533078D01*
X6324023Y54382191D01*
X6382897Y54240058D01*
X6468368Y54112141D01*
X6577151Y54003358D01*
X6705068Y53917887D01*
X6847201Y53859013D01*
X6998088Y53829000D01*
X7151932Y53829000D01*
X7302819Y53859013D01*
X7444952Y53917887D01*
X7572869Y54003358D01*
X7681652Y54112141D01*
X7767123Y54240058D01*
X7825997Y54382191D01*
X7856010Y54533078D01*
X7856010Y54686922D01*
X7825997Y54837809D01*
X7767123Y54979942D01*
X7681652Y55107859D01*
X7572869Y55216642D01*
X7444952Y55302113D01*
X7302819Y55360987D01*
X7151932Y55391000D01*
X6998088Y55391000D01*
X6847201Y55360987D01*
X6705068Y55302113D01*
X6577151Y55216642D01*
X6487909Y55127400D01*
X6496000Y55168078D01*
X6496000Y55321922D01*
X6465987Y55472809D01*
X6407113Y55614942D01*
X6321642Y55742859D01*
X6212859Y55851642D01*
X6084942Y55937113D01*
X6013342Y55966771D01*
X11184000Y55966771D01*
X11184000Y55793229D01*
X11217856Y55623022D01*
X11284268Y55462690D01*
X11380682Y55318395D01*
X11503395Y55195682D01*
X11647690Y55099268D01*
X11808022Y55032856D01*
X11978229Y54999000D01*
X12151771Y54999000D01*
X12321978Y55032856D01*
X12482310Y55099268D01*
X12626605Y55195682D01*
X12749318Y55318395D01*
X12845732Y55462690D01*
X12912144Y55623022D01*
X12946000Y55793229D01*
X12946000Y55966771D01*
X12912144Y56136978D01*
X12845732Y56297310D01*
X12749318Y56441605D01*
X12626605Y56564318D01*
X12482310Y56660732D01*
X12321978Y56727144D01*
X12151771Y56761000D01*
X11978229Y56761000D01*
X11808022Y56727144D01*
X11647690Y56660732D01*
X11503395Y56564318D01*
X11380682Y56441605D01*
X11284268Y56297310D01*
X11217856Y56136978D01*
X11184000Y55966771D01*
X6013342Y55966771D01*
X5942809Y55995987D01*
X5791922Y56026000D01*
X5638078Y56026000D01*
X5487191Y55995987D01*
X5345058Y55937113D01*
X5217141Y55851642D01*
X5108358Y55742859D01*
X5022887Y55614942D01*
X4964013Y55472809D01*
X4934000Y55321922D01*
X4934000Y55168078D01*
X4956486Y55055030D01*
X4955142Y55057042D01*
X4846359Y55165825D01*
X4718442Y55251296D01*
X4576309Y55310170D01*
X4425422Y55340183D01*
X4271578Y55340183D01*
X4120691Y55310170D01*
X3978558Y55251296D01*
X3850641Y55165825D01*
X3741858Y55057042D01*
X3656387Y54929125D01*
X3597513Y54786992D01*
X3567500Y54636105D01*
X3567500Y54501704D01*
X3485732Y54556340D01*
X3366348Y54605790D01*
X3239610Y54631000D01*
X3110390Y54631000D01*
X2983652Y54605790D01*
X2864268Y54556340D01*
X2756824Y54484548D01*
X2665452Y54393176D01*
X2593660Y54285732D01*
X2544210Y54166348D01*
X2519000Y54039610D01*
X-31979000Y54039610D01*
X-31979000Y57546394D01*
X-23356000Y57546394D01*
X-23356000Y57323606D01*
X-23312536Y57105100D01*
X-23227279Y56899271D01*
X-23103505Y56714030D01*
X-22945970Y56556495D01*
X-22760729Y56432721D01*
X-22554900Y56347464D01*
X-22336394Y56304000D01*
X-22113606Y56304000D01*
X-21895100Y56347464D01*
X-21689271Y56432721D01*
X-21504030Y56556495D01*
X-21346495Y56714030D01*
X-21222721Y56899271D01*
X-21137464Y57105100D01*
X-21094000Y57323606D01*
X-21094000Y57546394D01*
X-21137464Y57764900D01*
X-21222721Y57970729D01*
X-21346495Y58155970D01*
X-21504030Y58313505D01*
X-21670310Y58424610D01*
X-3831000Y58424610D01*
X-3831000Y58295390D01*
X-3805790Y58168652D01*
X-3756340Y58049268D01*
X-3684548Y57941824D01*
X-3593176Y57850452D01*
X-3485732Y57778660D01*
X-3366348Y57729210D01*
X-3239610Y57704000D01*
X-3110390Y57704000D01*
X-2983652Y57729210D01*
X-2864268Y57778660D01*
X-2756824Y57850452D01*
X-2665452Y57941824D01*
X-2593660Y58049268D01*
X-2544210Y58168652D01*
X-2519000Y58295390D01*
X-2519000Y58424610D01*
X-2535342Y58506771D01*
X8644000Y58506771D01*
X8644000Y58333229D01*
X8677856Y58163022D01*
X8744268Y58002690D01*
X8840682Y57858395D01*
X8963395Y57735682D01*
X9107690Y57639268D01*
X9268022Y57572856D01*
X9438229Y57539000D01*
X9611771Y57539000D01*
X9648943Y57546394D01*
X19824000Y57546394D01*
X19824000Y57323606D01*
X19867464Y57105100D01*
X19952721Y56899271D01*
X20076495Y56714030D01*
X20234030Y56556495D01*
X20419271Y56432721D01*
X20625100Y56347464D01*
X20843606Y56304000D01*
X21066394Y56304000D01*
X21284900Y56347464D01*
X21490729Y56432721D01*
X21675970Y56556495D01*
X21833505Y56714030D01*
X21957279Y56899271D01*
X22042536Y57105100D01*
X22086000Y57323606D01*
X22086000Y57546394D01*
X22042536Y57764900D01*
X21957279Y57970729D01*
X21833505Y58155970D01*
X21675970Y58313505D01*
X21490729Y58437279D01*
X21284900Y58522536D01*
X21066394Y58566000D01*
X20843606Y58566000D01*
X20625100Y58522536D01*
X20419271Y58437279D01*
X20234030Y58313505D01*
X20076495Y58155970D01*
X19952721Y57970729D01*
X19867464Y57764900D01*
X19824000Y57546394D01*
X9648943Y57546394D01*
X9781978Y57572856D01*
X9942310Y57639268D01*
X10086605Y57735682D01*
X10209318Y57858395D01*
X10305732Y58002690D01*
X10372144Y58163022D01*
X10406000Y58333229D01*
X10406000Y58506771D01*
X10372144Y58676978D01*
X10305732Y58837310D01*
X10209318Y58981605D01*
X10086605Y59104318D01*
X9942310Y59200732D01*
X9781978Y59267144D01*
X9611771Y59301000D01*
X9438229Y59301000D01*
X9268022Y59267144D01*
X9107690Y59200732D01*
X8963395Y59104318D01*
X8840682Y58981605D01*
X8744268Y58837310D01*
X8677856Y58676978D01*
X8644000Y58506771D01*
X-2535342Y58506771D01*
X-2544210Y58551348D01*
X-2593660Y58670732D01*
X-2665452Y58778176D01*
X-2756824Y58869548D01*
X-2864268Y58941340D01*
X-2983652Y58990790D01*
X-3110390Y59016000D01*
X-3239610Y59016000D01*
X-3366348Y58990790D01*
X-3485732Y58941340D01*
X-3593176Y58869548D01*
X-3684548Y58778176D01*
X-3756340Y58670732D01*
X-3805790Y58551348D01*
X-3831000Y58424610D01*
X-21670310Y58424610D01*
X-21689271Y58437279D01*
X-21895100Y58522536D01*
X-22113606Y58566000D01*
X-22336394Y58566000D01*
X-22554900Y58522536D01*
X-22760729Y58437279D01*
X-22945970Y58313505D01*
X-23103505Y58155970D01*
X-23227279Y57970729D01*
X-23312536Y57764900D01*
X-23356000Y57546394D01*
X-31979000Y57546394D01*
X-31979000Y61024610D01*
X-26691000Y61024610D01*
X-26691000Y60895390D01*
X-26665790Y60768652D01*
X-26616340Y60649268D01*
X-26544548Y60541824D01*
X-26453176Y60450452D01*
X-26345732Y60378660D01*
X-26226348Y60329210D01*
X-26099610Y60304000D01*
X-25970390Y60304000D01*
X-25843652Y60329210D01*
X-25724268Y60378660D01*
X-25616824Y60450452D01*
X-25525452Y60541824D01*
X-25453660Y60649268D01*
X-25404210Y60768652D01*
X-25379000Y60895390D01*
X-25379000Y61024610D01*
X-25383408Y61046771D01*
X11184000Y61046771D01*
X11184000Y60873229D01*
X11217856Y60703022D01*
X11284268Y60542690D01*
X11380682Y60398395D01*
X11503395Y60275682D01*
X11647690Y60179268D01*
X11808022Y60112856D01*
X11978229Y60079000D01*
X12151771Y60079000D01*
X12321978Y60112856D01*
X12482310Y60179268D01*
X12626605Y60275682D01*
X12749318Y60398395D01*
X12845732Y60542690D01*
X12912144Y60703022D01*
X12946000Y60873229D01*
X12946000Y61046771D01*
X12912144Y61216978D01*
X12845732Y61377310D01*
X12749318Y61521605D01*
X12626605Y61644318D01*
X12482310Y61740732D01*
X12321978Y61807144D01*
X12151771Y61841000D01*
X11978229Y61841000D01*
X11808022Y61807144D01*
X11647690Y61740732D01*
X11503395Y61644318D01*
X11380682Y61521605D01*
X11284268Y61377310D01*
X11217856Y61216978D01*
X11184000Y61046771D01*
X-25383408Y61046771D01*
X-25404210Y61151348D01*
X-25453660Y61270732D01*
X-25525452Y61378176D01*
X-25616824Y61469548D01*
X-25724268Y61541340D01*
X-25843652Y61590790D01*
X-25970390Y61616000D01*
X-26099610Y61616000D01*
X-26226348Y61590790D01*
X-26345732Y61541340D01*
X-26453176Y61469548D01*
X-26544548Y61378176D01*
X-26616340Y61270732D01*
X-26665790Y61151348D01*
X-26691000Y61024610D01*
X-31979000Y61024610D01*
X-31979000Y63564610D01*
X-29231000Y63564610D01*
X-29231000Y63435390D01*
X-29205790Y63308652D01*
X-29156340Y63189268D01*
X-29084548Y63081824D01*
X-28993176Y62990452D01*
X-28885732Y62918660D01*
X-28766348Y62869210D01*
X-28639610Y62844000D01*
X-28510390Y62844000D01*
X-28383652Y62869210D01*
X-28264268Y62918660D01*
X-28156824Y62990452D01*
X-28065452Y63081824D01*
X-27993660Y63189268D01*
X-27944210Y63308652D01*
X-27919000Y63435390D01*
X-27919000Y63564610D01*
X-15896000Y63564610D01*
X-15896000Y63435390D01*
X-15870790Y63308652D01*
X-15821340Y63189268D01*
X-15749548Y63081824D01*
X-15658176Y62990452D01*
X-15550732Y62918660D01*
X-15431348Y62869210D01*
X-15304610Y62844000D01*
X-15175390Y62844000D01*
X-15048652Y62869210D01*
X-14929268Y62918660D01*
X-14821824Y62990452D01*
X-14730452Y63081824D01*
X-14658660Y63189268D01*
X-14609210Y63308652D01*
X-14584000Y63435390D01*
X-14584000Y63564610D01*
X-14609210Y63691348D01*
X-14658660Y63810732D01*
X-14730452Y63918176D01*
X-14821824Y64009548D01*
X-14929268Y64081340D01*
X-15048652Y64130790D01*
X-15175390Y64156000D01*
X-15304610Y64156000D01*
X-15431348Y64130790D01*
X-15550732Y64081340D01*
X-15658176Y64009548D01*
X-15749548Y63918176D01*
X-15821340Y63810732D01*
X-15870790Y63691348D01*
X-15896000Y63564610D01*
X-27919000Y63564610D01*
X-27944210Y63691348D01*
X-27993660Y63810732D01*
X-28065452Y63918176D01*
X-28156824Y64009548D01*
X-28264268Y64081340D01*
X-28383652Y64130790D01*
X-28510390Y64156000D01*
X-28639610Y64156000D01*
X-28766348Y64130790D01*
X-28885732Y64081340D01*
X-28993176Y64009548D01*
X-29084548Y63918176D01*
X-29156340Y63810732D01*
X-29205790Y63691348D01*
X-29231000Y63564610D01*
X-31979000Y63564610D01*
X-31979000Y66104610D01*
X-31771000Y66104610D01*
X-31771000Y65975390D01*
X-31745790Y65848652D01*
X-31696340Y65729268D01*
X-31624548Y65621824D01*
X-31533176Y65530452D01*
X-31425732Y65458660D01*
X-31306348Y65409210D01*
X-31179610Y65384000D01*
X-31050390Y65384000D01*
X-30923652Y65409210D01*
X-30804268Y65458660D01*
X-30696824Y65530452D01*
X-30605452Y65621824D01*
X-30533660Y65729268D01*
X-30484210Y65848652D01*
X-30459000Y65975390D01*
X-30459000Y66104610D01*
X-26691000Y66104610D01*
X-26691000Y65975390D01*
X-26665790Y65848652D01*
X-26616340Y65729268D01*
X-26544548Y65621824D01*
X-26453176Y65530452D01*
X-26345732Y65458660D01*
X-26226348Y65409210D01*
X-26099610Y65384000D01*
X-25970390Y65384000D01*
X-25843652Y65409210D01*
X-25724268Y65458660D01*
X-25674715Y65491771D01*
X-20566000Y65491771D01*
X-20566000Y65318229D01*
X-20532144Y65148022D01*
X-20465732Y64987690D01*
X-20369318Y64843395D01*
X-20246605Y64720682D01*
X-20102310Y64624268D01*
X-19941978Y64557856D01*
X-19771771Y64524000D01*
X-19598229Y64524000D01*
X-19428022Y64557856D01*
X-19267690Y64624268D01*
X-19123395Y64720682D01*
X-19000682Y64843395D01*
X-18904268Y64987690D01*
X-18837856Y65148022D01*
X-18804000Y65318229D01*
X-18804000Y65491771D01*
X-18837856Y65661978D01*
X-18904268Y65822310D01*
X-19000682Y65966605D01*
X-19123395Y66089318D01*
X-19267690Y66185732D01*
X-19428022Y66252144D01*
X-19598229Y66286000D01*
X-19771771Y66286000D01*
X-19941978Y66252144D01*
X-20102310Y66185732D01*
X-20246605Y66089318D01*
X-20369318Y65966605D01*
X-20465732Y65822310D01*
X-20532144Y65661978D01*
X-20566000Y65491771D01*
X-25674715Y65491771D01*
X-25616824Y65530452D01*
X-25525452Y65621824D01*
X-25453660Y65729268D01*
X-25404210Y65848652D01*
X-25379000Y65975390D01*
X-25379000Y66104610D01*
X-25404210Y66231348D01*
X-25453660Y66350732D01*
X-25525452Y66458176D01*
X-25616824Y66549548D01*
X-25724268Y66621340D01*
X-25843652Y66670790D01*
X-25970390Y66696000D01*
X-26099610Y66696000D01*
X-26226348Y66670790D01*
X-26345732Y66621340D01*
X-26453176Y66549548D01*
X-26544548Y66458176D01*
X-26616340Y66350732D01*
X-26665790Y66231348D01*
X-26691000Y66104610D01*
X-30459000Y66104610D01*
X-30484210Y66231348D01*
X-30533660Y66350732D01*
X-30605452Y66458176D01*
X-30696824Y66549548D01*
X-30804268Y66621340D01*
X-30923652Y66670790D01*
X-31050390Y66696000D01*
X-31179610Y66696000D01*
X-31306348Y66670790D01*
X-31425732Y66621340D01*
X-31533176Y66549548D01*
X-31624548Y66458176D01*
X-31696340Y66350732D01*
X-31745790Y66231348D01*
X-31771000Y66104610D01*
X-31979000Y66104610D01*
X-31979000Y66751922D01*
X-9671000Y66751922D01*
X-9671000Y66598078D01*
X-9640987Y66447191D01*
X-9582113Y66305058D01*
X-9496642Y66177141D01*
X-9387859Y66068358D01*
X-9259942Y65982887D01*
X-9117809Y65924013D01*
X-8966922Y65894000D01*
X-8813078Y65894000D01*
X-8662191Y65924013D01*
X-8520058Y65982887D01*
X-8392141Y66068358D01*
X-8283358Y66177141D01*
X-8197887Y66305058D01*
X-8139013Y66447191D01*
X-8109000Y66598078D01*
X-8109000Y66751922D01*
X-8139013Y66902809D01*
X-8197887Y67044942D01*
X-8283358Y67172859D01*
X-8392141Y67281642D01*
X-8520058Y67367113D01*
X-8662191Y67425987D01*
X-8813078Y67456000D01*
X-8966922Y67456000D01*
X-9117809Y67425987D01*
X-9259942Y67367113D01*
X-9387859Y67281642D01*
X-9496642Y67172859D01*
X-9582113Y67044942D01*
X-9640987Y66902809D01*
X-9671000Y66751922D01*
X-31979000Y66751922D01*
X-31979000Y68031771D01*
X-23106000Y68031771D01*
X-23106000Y67858229D01*
X-23072144Y67688022D01*
X-23005732Y67527690D01*
X-22909318Y67383395D01*
X-22786605Y67260682D01*
X-22642310Y67164268D01*
X-22481978Y67097856D01*
X-22311771Y67064000D01*
X-22138229Y67064000D01*
X-21968022Y67097856D01*
X-21807690Y67164268D01*
X-21803850Y67166834D01*
X-17743561Y67166834D01*
X-17708450Y66953412D01*
X-17504174Y66862542D01*
X-17286095Y66813269D01*
X-17062594Y66807489D01*
X-16842260Y66845423D01*
X-16633560Y66925613D01*
X-16581550Y66953412D01*
X-16546439Y67166834D01*
X-17145000Y67765395D01*
X-17743561Y67166834D01*
X-21803850Y67166834D01*
X-21663395Y67260682D01*
X-21540682Y67383395D01*
X-21444268Y67527690D01*
X-21377856Y67688022D01*
X-21344000Y67858229D01*
X-21344000Y67862594D01*
X-18282511Y67862594D01*
X-18244577Y67642260D01*
X-18164387Y67433560D01*
X-18136588Y67381550D01*
X-17923166Y67346439D01*
X-17324605Y67945000D01*
X-16965395Y67945000D01*
X-16366834Y67346439D01*
X-16153412Y67381550D01*
X-16062542Y67585826D01*
X-16013269Y67803905D01*
X-16007489Y68027406D01*
X-16045423Y68247740D01*
X-16125613Y68456440D01*
X-16153412Y68508450D01*
X-16366834Y68543561D01*
X-16965395Y67945000D01*
X-17324605Y67945000D01*
X-17923166Y68543561D01*
X-18136588Y68508450D01*
X-18227458Y68304174D01*
X-18276731Y68086095D01*
X-18282511Y67862594D01*
X-21344000Y67862594D01*
X-21344000Y68031771D01*
X-21377856Y68201978D01*
X-21444268Y68362310D01*
X-21540682Y68506605D01*
X-21663395Y68629318D01*
X-21803849Y68723166D01*
X-17743561Y68723166D01*
X-17145000Y68124605D01*
X-16546439Y68723166D01*
X-16581550Y68936588D01*
X-16785826Y69027458D01*
X-17003905Y69076731D01*
X-17227406Y69082511D01*
X-17447740Y69044577D01*
X-17656440Y68964387D01*
X-17708450Y68936588D01*
X-17743561Y68723166D01*
X-21803849Y68723166D01*
X-21807690Y68725732D01*
X-21968022Y68792144D01*
X-22138229Y68826000D01*
X-22311771Y68826000D01*
X-22481978Y68792144D01*
X-22642310Y68725732D01*
X-22786605Y68629318D01*
X-22909318Y68506605D01*
X-23005732Y68362310D01*
X-23072144Y68201978D01*
X-23106000Y68031771D01*
X-31979000Y68031771D01*
X-31979000Y69914610D01*
X-30501000Y69914610D01*
X-30501000Y69785390D01*
X-30475790Y69658652D01*
X-30426340Y69539268D01*
X-30354548Y69431824D01*
X-30263176Y69340452D01*
X-30155732Y69268660D01*
X-30036348Y69219210D01*
X-29909610Y69194000D01*
X-29780390Y69194000D01*
X-29653652Y69219210D01*
X-29534268Y69268660D01*
X-29426824Y69340452D01*
X-29335452Y69431824D01*
X-29263660Y69539268D01*
X-29214210Y69658652D01*
X-29189000Y69785390D01*
X-29189000Y69914610D01*
X-12086000Y69914610D01*
X-12086000Y69785390D01*
X-12060790Y69658652D01*
X-12011340Y69539268D01*
X-11939548Y69431824D01*
X-11848176Y69340452D01*
X-11740732Y69268660D01*
X-11621348Y69219210D01*
X-11494610Y69194000D01*
X-11365390Y69194000D01*
X-11238652Y69219210D01*
X-11119268Y69268660D01*
X-11081365Y69293986D01*
X-10991523Y69233955D01*
X-10872139Y69184505D01*
X-10745401Y69159295D01*
X-10616181Y69159295D01*
X-10489443Y69184505D01*
X-10370059Y69233955D01*
X-10262615Y69305747D01*
X-10171243Y69397119D01*
X-10099451Y69504563D01*
X-10050001Y69623947D01*
X-10024791Y69750685D01*
X-10024791Y69879905D01*
X-10031694Y69914610D01*
X-7641000Y69914610D01*
X-7641000Y69785390D01*
X-7615790Y69658652D01*
X-7566340Y69539268D01*
X-7494548Y69431824D01*
X-7403176Y69340452D01*
X-7295732Y69268660D01*
X-7176348Y69219210D01*
X-7049610Y69194000D01*
X-6920390Y69194000D01*
X-6793652Y69219210D01*
X-6674268Y69268660D01*
X-6566824Y69340452D01*
X-6475452Y69431824D01*
X-6403660Y69539268D01*
X-6354210Y69658652D01*
X-6329000Y69785390D01*
X-6329000Y69914610D01*
X7599000Y69914610D01*
X7599000Y69785390D01*
X7624210Y69658652D01*
X7673660Y69539268D01*
X7745452Y69431824D01*
X7836824Y69340452D01*
X7944268Y69268660D01*
X8063652Y69219210D01*
X8190390Y69194000D01*
X8319610Y69194000D01*
X8446348Y69219210D01*
X8565732Y69268660D01*
X8673176Y69340452D01*
X8764548Y69431824D01*
X8836340Y69539268D01*
X8885790Y69658652D01*
X8911000Y69785390D01*
X8911000Y69914610D01*
X15219000Y69914610D01*
X15219000Y69785390D01*
X15244210Y69658652D01*
X15293660Y69539268D01*
X15365452Y69431824D01*
X15456824Y69340452D01*
X15564268Y69268660D01*
X15683652Y69219210D01*
X15810390Y69194000D01*
X15939610Y69194000D01*
X16066348Y69219210D01*
X16185732Y69268660D01*
X16293176Y69340452D01*
X16384548Y69431824D01*
X16456340Y69539268D01*
X16505790Y69658652D01*
X16531000Y69785390D01*
X16531000Y69914610D01*
X16505790Y70041348D01*
X16456340Y70160732D01*
X16384548Y70268176D01*
X16293176Y70359548D01*
X16185732Y70431340D01*
X16066348Y70480790D01*
X15939610Y70506000D01*
X15810390Y70506000D01*
X15683652Y70480790D01*
X15564268Y70431340D01*
X15456824Y70359548D01*
X15365452Y70268176D01*
X15293660Y70160732D01*
X15244210Y70041348D01*
X15219000Y69914610D01*
X8911000Y69914610D01*
X8885790Y70041348D01*
X8836340Y70160732D01*
X8764548Y70268176D01*
X8673176Y70359548D01*
X8565732Y70431340D01*
X8446348Y70480790D01*
X8319610Y70506000D01*
X8190390Y70506000D01*
X8063652Y70480790D01*
X7944268Y70431340D01*
X7836824Y70359548D01*
X7745452Y70268176D01*
X7673660Y70160732D01*
X7624210Y70041348D01*
X7599000Y69914610D01*
X-6329000Y69914610D01*
X-6354210Y70041348D01*
X-6403660Y70160732D01*
X-6475452Y70268176D01*
X-6566824Y70359548D01*
X-6674268Y70431340D01*
X-6793652Y70480790D01*
X-6920390Y70506000D01*
X-7049610Y70506000D01*
X-7176348Y70480790D01*
X-7295732Y70431340D01*
X-7403176Y70359548D01*
X-7494548Y70268176D01*
X-7566340Y70160732D01*
X-7615790Y70041348D01*
X-7641000Y69914610D01*
X-10031694Y69914610D01*
X-10050001Y70006643D01*
X-10099451Y70126027D01*
X-10171243Y70233471D01*
X-10262615Y70324843D01*
X-10370059Y70396635D01*
X-10489443Y70446085D01*
X-10616181Y70471295D01*
X-10745401Y70471295D01*
X-10872139Y70446085D01*
X-10991523Y70396635D01*
X-11029426Y70371309D01*
X-11119268Y70431340D01*
X-11238652Y70480790D01*
X-11365390Y70506000D01*
X-11494610Y70506000D01*
X-11621348Y70480790D01*
X-11740732Y70431340D01*
X-11848176Y70359548D01*
X-11939548Y70268176D01*
X-12011340Y70160732D01*
X-12060790Y70041348D01*
X-12086000Y69914610D01*
X-29189000Y69914610D01*
X-29214210Y70041348D01*
X-29263660Y70160732D01*
X-29335452Y70268176D01*
X-29426824Y70359548D01*
X-29534268Y70431340D01*
X-29653652Y70480790D01*
X-29780390Y70506000D01*
X-29909610Y70506000D01*
X-30036348Y70480790D01*
X-30155732Y70431340D01*
X-30263176Y70359548D01*
X-30354548Y70268176D01*
X-30426340Y70160732D01*
X-30475790Y70041348D01*
X-30501000Y69914610D01*
X-31979000Y69914610D01*
X-31979000Y72466922D01*
X-29991000Y72466922D01*
X-29991000Y72313078D01*
X-29960987Y72162191D01*
X-29902113Y72020058D01*
X-29816642Y71892141D01*
X-29707859Y71783358D01*
X-29579942Y71697887D01*
X-29437809Y71639013D01*
X-29286922Y71609000D01*
X-29133078Y71609000D01*
X-28982191Y71639013D01*
X-28840058Y71697887D01*
X-28712141Y71783358D01*
X-28663577Y71831922D01*
X4934000Y71831922D01*
X4934000Y71678078D01*
X4964013Y71527191D01*
X5022887Y71385058D01*
X5108358Y71257141D01*
X5217141Y71148358D01*
X5345058Y71062887D01*
X5487191Y71004013D01*
X5638078Y70974000D01*
X5791922Y70974000D01*
X5942809Y71004013D01*
X6084942Y71062887D01*
X6212859Y71148358D01*
X6321642Y71257141D01*
X6407113Y71385058D01*
X6465987Y71527191D01*
X6496000Y71678078D01*
X6496000Y71819610D01*
X9504000Y71819610D01*
X9504000Y71690390D01*
X9529210Y71563652D01*
X9578660Y71444268D01*
X9650452Y71336824D01*
X9741824Y71245452D01*
X9849268Y71173660D01*
X9968652Y71124210D01*
X10095390Y71099000D01*
X10224610Y71099000D01*
X10351348Y71124210D01*
X10470732Y71173660D01*
X10578176Y71245452D01*
X10669548Y71336824D01*
X10741340Y71444268D01*
X10790790Y71563652D01*
X10816000Y71690390D01*
X10816000Y71819610D01*
X10790790Y71946348D01*
X10741340Y72065732D01*
X10669548Y72173176D01*
X10578176Y72264548D01*
X10470732Y72336340D01*
X10351348Y72385790D01*
X10224610Y72411000D01*
X10095390Y72411000D01*
X9968652Y72385790D01*
X9849268Y72336340D01*
X9741824Y72264548D01*
X9650452Y72173176D01*
X9578660Y72065732D01*
X9529210Y71946348D01*
X9504000Y71819610D01*
X6496000Y71819610D01*
X6496000Y71831922D01*
X6465987Y71982809D01*
X6407113Y72124942D01*
X6321642Y72252859D01*
X6212859Y72361642D01*
X6084942Y72447113D01*
X5942809Y72505987D01*
X5791922Y72536000D01*
X5638078Y72536000D01*
X5487191Y72505987D01*
X5345058Y72447113D01*
X5217141Y72361642D01*
X5108358Y72252859D01*
X5022887Y72124942D01*
X4964013Y71982809D01*
X4934000Y71831922D01*
X-28663577Y71831922D01*
X-28603358Y71892141D01*
X-28517887Y72020058D01*
X-28459013Y72162191D01*
X-28429000Y72313078D01*
X-28429000Y72466922D01*
X-28459013Y72617809D01*
X-28517887Y72759942D01*
X-28603358Y72887859D01*
X-28712141Y72996642D01*
X-28840058Y73082113D01*
X-28982191Y73140987D01*
X-29027548Y73150009D01*
X-12480990Y73150009D01*
X-12480990Y73020789D01*
X-12455780Y72894051D01*
X-12406330Y72774667D01*
X-12334538Y72667223D01*
X-12243166Y72575851D01*
X-12135722Y72504059D01*
X-12016338Y72454609D01*
X-11889600Y72429399D01*
X-11760380Y72429399D01*
X-11633642Y72454609D01*
X-11514258Y72504059D01*
X-11406814Y72575851D01*
X-11315442Y72667223D01*
X-11243650Y72774667D01*
X-11194200Y72894051D01*
X-11168990Y73020789D01*
X-11168990Y73087886D01*
X-11088240Y73121333D01*
X-10980796Y73193125D01*
X-10889424Y73284497D01*
X-10817632Y73391941D01*
X-10768182Y73511325D01*
X-10742972Y73638063D01*
X-10742972Y73767283D01*
X-10768182Y73894021D01*
X-10797837Y73965615D01*
X-10754269Y73983661D01*
X-10646825Y74055453D01*
X-10555453Y74146825D01*
X-10483661Y74254269D01*
X-10464408Y74300751D01*
X-10387809Y74269023D01*
X-10236922Y74239010D01*
X-10083078Y74239010D01*
X-9932191Y74269023D01*
X-9790058Y74327897D01*
X-9662141Y74413368D01*
X-9553358Y74522151D01*
X-9477404Y74635825D01*
X-9473172Y74625609D01*
X-9401380Y74518165D01*
X-9310008Y74426793D01*
X-9202564Y74355001D01*
X-9083180Y74305551D01*
X-8956442Y74280341D01*
X-8827222Y74280341D01*
X-8700484Y74305551D01*
X-8581100Y74355001D01*
X-8473656Y74426793D01*
X-8382284Y74518165D01*
X-8310492Y74625609D01*
X-8261042Y74744993D01*
X-8235832Y74871731D01*
X-8235832Y75000951D01*
X-8261042Y75127689D01*
X-8310492Y75247073D01*
X-8382284Y75354517D01*
X-8473656Y75445889D01*
X-8581100Y75517681D01*
X-8700484Y75567131D01*
X-8827222Y75592341D01*
X-8956442Y75592341D01*
X-9083180Y75567131D01*
X-9202564Y75517681D01*
X-9310008Y75445889D01*
X-9401380Y75354517D01*
X-9433375Y75306633D01*
X-9467887Y75389952D01*
X-9553358Y75517869D01*
X-9662141Y75626652D01*
X-9684994Y75641922D01*
X-3321000Y75641922D01*
X-3321000Y75488078D01*
X-3290987Y75337191D01*
X-3232113Y75195058D01*
X-3146642Y75067141D01*
X-3037859Y74958358D01*
X-2909942Y74872887D01*
X-2767809Y74814013D01*
X-2616922Y74784000D01*
X-2463078Y74784000D01*
X-2312191Y74814013D01*
X-2170058Y74872887D01*
X-2042141Y74958358D01*
X-2005889Y74994610D01*
X12044000Y74994610D01*
X12044000Y74865390D01*
X12069210Y74738652D01*
X12118660Y74619268D01*
X12190452Y74511824D01*
X12281824Y74420452D01*
X12389268Y74348660D01*
X12508652Y74299210D01*
X12635390Y74274000D01*
X12764610Y74274000D01*
X12891348Y74299210D01*
X13010732Y74348660D01*
X13118176Y74420452D01*
X13209548Y74511824D01*
X13281340Y74619268D01*
X13330790Y74738652D01*
X13356000Y74865390D01*
X13356000Y74994610D01*
X13330790Y75121348D01*
X13281340Y75240732D01*
X13209548Y75348176D01*
X13118176Y75439548D01*
X13010732Y75511340D01*
X12891348Y75560790D01*
X12764610Y75586000D01*
X12635390Y75586000D01*
X12508652Y75560790D01*
X12389268Y75511340D01*
X12281824Y75439548D01*
X12190452Y75348176D01*
X12118660Y75240732D01*
X12069210Y75121348D01*
X12044000Y74994610D01*
X-2005889Y74994610D01*
X-1933358Y75067141D01*
X-1847887Y75195058D01*
X-1789013Y75337191D01*
X-1759000Y75488078D01*
X-1759000Y75641922D01*
X-1789013Y75792809D01*
X-1847887Y75934942D01*
X-1933358Y76062859D01*
X-2042141Y76171642D01*
X-2170058Y76257113D01*
X-2312191Y76315987D01*
X-2463078Y76346000D01*
X-2616922Y76346000D01*
X-2767809Y76315987D01*
X-2909942Y76257113D01*
X-3037859Y76171642D01*
X-3146642Y76062859D01*
X-3232113Y75934942D01*
X-3290987Y75792809D01*
X-3321000Y75641922D01*
X-9684994Y75641922D01*
X-9790058Y75712123D01*
X-9932191Y75770997D01*
X-10083078Y75801010D01*
X-10236922Y75801010D01*
X-10387809Y75770997D01*
X-10529942Y75712123D01*
X-10657859Y75626652D01*
X-10766642Y75517869D01*
X-10852113Y75389952D01*
X-10910987Y75247819D01*
X-10919521Y75204915D01*
X-11000391Y75221001D01*
X-11129611Y75221001D01*
X-11256349Y75195791D01*
X-11375733Y75146341D01*
X-11483177Y75074549D01*
X-11574549Y74983177D01*
X-11646341Y74875733D01*
X-11695791Y74756349D01*
X-11721001Y74629611D01*
X-11721001Y74500391D01*
X-11695791Y74373653D01*
X-11666136Y74302059D01*
X-11709704Y74284013D01*
X-11817148Y74212221D01*
X-11908520Y74120849D01*
X-11980312Y74013405D01*
X-12029762Y73894021D01*
X-12054972Y73767283D01*
X-12054972Y73700186D01*
X-12135722Y73666739D01*
X-12243166Y73594947D01*
X-12334538Y73503575D01*
X-12406330Y73396131D01*
X-12455780Y73276747D01*
X-12480990Y73150009D01*
X-29027548Y73150009D01*
X-29133078Y73171000D01*
X-29286922Y73171000D01*
X-29437809Y73140987D01*
X-29579942Y73082113D01*
X-29707859Y72996642D01*
X-29816642Y72887859D01*
X-29902113Y72759942D01*
X-29960987Y72617809D01*
X-29991000Y72466922D01*
X-31979000Y72466922D01*
X-31979000Y75584806D01*
X-31941348Y75569210D01*
X-31814610Y75544000D01*
X-31771000Y75544000D01*
X-31771000Y75500390D01*
X-31745790Y75373652D01*
X-31696340Y75254268D01*
X-31624548Y75146824D01*
X-31533176Y75055452D01*
X-31425732Y74983660D01*
X-31306348Y74934210D01*
X-31179610Y74909000D01*
X-31050390Y74909000D01*
X-30923652Y74934210D01*
X-30804268Y74983660D01*
X-30696824Y75055452D01*
X-30605452Y75146824D01*
X-30533660Y75254268D01*
X-30484210Y75373652D01*
X-30459000Y75500390D01*
X-30459000Y75629610D01*
X-27961000Y75629610D01*
X-27961000Y75500390D01*
X-27935790Y75373652D01*
X-27886340Y75254268D01*
X-27814548Y75146824D01*
X-27723176Y75055452D01*
X-27615732Y74983660D01*
X-27496348Y74934210D01*
X-27369610Y74909000D01*
X-27240390Y74909000D01*
X-27113652Y74934210D01*
X-26994268Y74983660D01*
X-26886824Y75055452D01*
X-26795452Y75146824D01*
X-26723660Y75254268D01*
X-26674210Y75373652D01*
X-26649000Y75500390D01*
X-26649000Y75629610D01*
X-26674210Y75756348D01*
X-26723660Y75875732D01*
X-26795452Y75983176D01*
X-26886824Y76074548D01*
X-26994268Y76146340D01*
X-27113652Y76195790D01*
X-27240390Y76221000D01*
X-27369610Y76221000D01*
X-27496348Y76195790D01*
X-27615732Y76146340D01*
X-27723176Y76074548D01*
X-27814548Y75983176D01*
X-27886340Y75875732D01*
X-27935790Y75756348D01*
X-27961000Y75629610D01*
X-30459000Y75629610D01*
X-30484210Y75756348D01*
X-30533660Y75875732D01*
X-30605452Y75983176D01*
X-30696824Y76074548D01*
X-30804268Y76146340D01*
X-30923652Y76195790D01*
X-31050390Y76221000D01*
X-31094000Y76221000D01*
X-31094000Y76264610D01*
X-31119210Y76391348D01*
X-31168660Y76510732D01*
X-31240452Y76618176D01*
X-31331824Y76709548D01*
X-31439268Y76781340D01*
X-31558652Y76830790D01*
X-31685390Y76856000D01*
X-31814610Y76856000D01*
X-31941348Y76830790D01*
X-31979000Y76815194D01*
X-31979000Y77569851D01*
X-31949586Y77564000D01*
X-31820366Y77564000D01*
X-31694448Y77589047D01*
X-10870437Y77589047D01*
X-10870437Y77459827D01*
X-10845227Y77333089D01*
X-10795777Y77213705D01*
X-10723985Y77106261D01*
X-10632613Y77014889D01*
X-10525169Y76943097D01*
X-10405785Y76893647D01*
X-10279047Y76868437D01*
X-10149827Y76868437D01*
X-10023089Y76893647D01*
X-9903705Y76943097D01*
X-9796261Y77014889D01*
X-9704889Y77106261D01*
X-9633097Y77213705D01*
X-9583647Y77333089D01*
X-9558437Y77459827D01*
X-9558437Y77534610D01*
X-7641000Y77534610D01*
X-7641000Y77405390D01*
X-7615790Y77278652D01*
X-7566340Y77159268D01*
X-7494548Y77051824D01*
X-7403176Y76960452D01*
X-7295732Y76888660D01*
X-7176348Y76839210D01*
X-7049610Y76814000D01*
X-6920390Y76814000D01*
X-6793652Y76839210D01*
X-6674268Y76888660D01*
X-6566824Y76960452D01*
X-6475452Y77051824D01*
X-6403660Y77159268D01*
X-6354210Y77278652D01*
X-6329000Y77405390D01*
X-6329000Y77534610D01*
X-6354210Y77661348D01*
X-6403660Y77780732D01*
X-6475452Y77888176D01*
X-6566824Y77979548D01*
X-6674268Y78051340D01*
X-6793652Y78100790D01*
X-6920390Y78126000D01*
X-7049610Y78126000D01*
X-7176348Y78100790D01*
X-7295732Y78051340D01*
X-7403176Y77979548D01*
X-7494548Y77888176D01*
X-7566340Y77780732D01*
X-7615790Y77661348D01*
X-7641000Y77534610D01*
X-9558437Y77534610D01*
X-9558437Y77589047D01*
X-9583647Y77715785D01*
X-9633097Y77835169D01*
X-9704889Y77942613D01*
X-9796261Y78033985D01*
X-9903705Y78105777D01*
X-10023089Y78155227D01*
X-10149827Y78180437D01*
X-10279047Y78180437D01*
X-10405785Y78155227D01*
X-10525169Y78105777D01*
X-10632613Y78033985D01*
X-10723985Y77942613D01*
X-10795777Y77835169D01*
X-10845227Y77715785D01*
X-10870437Y77589047D01*
X-31694448Y77589047D01*
X-31693628Y77589210D01*
X-31574244Y77638660D01*
X-31466800Y77710452D01*
X-31375428Y77801824D01*
X-31303636Y77909268D01*
X-31254186Y78028652D01*
X-31228976Y78155390D01*
X-31228976Y78284610D01*
X-31254186Y78411348D01*
X-31303636Y78530732D01*
X-31375428Y78638176D01*
X-31466800Y78729548D01*
X-31515496Y78762086D01*
X-31439268Y78793660D01*
X-31331824Y78865452D01*
X-31240452Y78956824D01*
X-31168660Y79064268D01*
X-31119210Y79183652D01*
X-31110190Y79229000D01*
X-31038078Y79229000D01*
X-30887191Y79259013D01*
X-30745058Y79317887D01*
X-30617141Y79403358D01*
X-30508358Y79512141D01*
X-30422887Y79640058D01*
X-30364013Y79782191D01*
X-30334000Y79933078D01*
X-30334000Y80086922D01*
X-30364013Y80237809D01*
X-30422887Y80379942D01*
X-30508358Y80507859D01*
X-30617141Y80616642D01*
X-30745058Y80702113D01*
X-30887191Y80760987D01*
X-31038078Y80791000D01*
X-31191922Y80791000D01*
X-31342809Y80760987D01*
X-31484942Y80702113D01*
X-31612859Y80616642D01*
X-31721642Y80507859D01*
X-31807113Y80379942D01*
X-31865987Y80237809D01*
X-31896000Y80086922D01*
X-31896000Y80014810D01*
X-31941348Y80005790D01*
X-31979000Y79990194D01*
X-31979000Y81153000D01*
X-28536501Y81153000D01*
X-28546642Y81142859D01*
%TD*%
M02*
