M48
; DRILL file {KiCad (5.1.5)-3} date 10/12/20 14:57:24
; FORMAT={-:-/ absolute / inch / decimal}
; #@! TF.CreationDate,2020-10-12T14:57:24+02:00
; #@! TF.GenerationSoftware,Kicad,Pcbnew,(5.1.5)-3
; #@! TF.FileFunction,Plated,1,4,PTH
FMAT,2
INCH
T1C0.0138
T2C0.0157
T3C0.0217
T4C0.0315
T5C0.0394
%
G90
G05
T1
X-1.2553Y3.0795
X-1.2524Y3.0501
X-1.2522Y3.3523
X-1.25Y3.125
X-1.25Y3.0
X-1.225Y3.525
X-1.225Y3.275
X-1.225Y2.975
X-1.225Y2.6
X-1.175Y2.75
X-1.125Y2.5
X-1.075Y3.275
X-1.075Y2.975
X-1.025Y2.925
X-1.025Y2.6
X-1.025Y2.4
X-0.925Y3.55
X-0.9Y3.15
X-0.65Y2.85
X-0.6Y3.1
X-0.6Y2.5
X-0.475Y2.8268
X-0.4656Y3.1527
X-0.4656Y2.8774
X-0.4513Y3.1786
X-0.45Y2.75
X-0.4488Y2.9017
X-0.4356Y2.9356
X-0.4341Y3.3666
X-0.4205Y2.7486
X-0.4021Y3.0521
X-0.3754Y4.976
X-0.3501Y2.9502
X-0.35Y5.0
X-0.275Y3.05
X-0.275Y2.75
X-0.25Y2.975
X-0.2Y3.425
X-0.175Y4.825
X-0.1621Y4.9986
X-0.135Y3.245
X-0.1335Y5.0062
X-0.125Y2.2976
X-0.1Y3.275
X-0.1Y2.925
X-0.05Y2.0
X0.1Y4.85
X0.1Y3.425
X0.125Y4.875
X0.125Y2.125
X0.15Y4.825
X0.175Y4.9
X0.2Y4.95
X0.225Y4.925
X0.25Y2.9
X0.275Y4.8
X0.325Y2.75
X0.375Y3.575
X0.375Y3.175
X0.375Y2.75
X0.4Y2.825
X0.5Y2.95
X0.625Y2.75
X0.675Y2.825
X0.725Y3.15
X0.725Y3.075
X0.775Y3.6
X0.775Y3.425
X0.8Y3.75
X0.8Y3.45
X0.825Y3.225
X0.925Y3.075
T2
X-1.225Y3.15
X-1.2Y4.2201
X-1.2Y3.475
X-1.175Y2.65
X-1.175Y2.45
X-1.15Y2.85
X-1.1Y3.175
X-1.1Y2.875
X-1.025Y3.475
X-1.025Y3.175
X-1.025Y2.7465
X-1.0194Y2.5444
X-0.975Y4.0
X-0.975Y3.95
X-0.975Y3.9
X-0.95Y4.525
X-0.95Y4.475
X-0.95Y4.425
X-0.9035Y3.5
X-0.8965Y3.2
X-0.875Y3.55
X-0.85Y4.425
X-0.725Y4.2
X-0.675Y3.825
X-0.65Y3.85
X-0.65Y3.8
X-0.65Y1.975
X-0.625Y4.7
X-0.625Y3.825
X-0.5423Y4.9577
X-0.5039Y3.3622
X-0.5039Y3.122
X-0.5039Y2.8858
X-0.5039Y2.6535
X-0.4715Y4.475
X-0.425Y3.325
X-0.4Y3.25
X-0.4Y2.9535
X-0.3818Y5.0132
X-0.375Y4.35
X-0.3583Y3.5039
X-0.3583Y2.5118
X-0.35Y2.625
X-0.325Y4.8
X-0.325Y3.975
X-0.275Y3.25
X-0.25Y2.7
X-0.225Y3.2459
X-0.1181Y2.5118
X-0.1142Y3.5039
X-0.1Y3.425
X-0.1Y2.975
X-0.025Y3.975
X-0.0215Y4.55
X0.0Y4.575
X0.0Y4.525
X0.0Y4.0
X0.0Y3.95
X0.025Y4.55
X0.025Y3.975
X0.05Y5.025
X0.0577Y3.6423
X0.0853Y2.1424
X0.1Y3.425
X0.122Y3.5039
X0.122Y2.5118
X0.125Y2.575
X0.1712Y2.148
X0.175Y1.95
X0.225Y2.825
X0.225Y2.175
X0.25Y3.7
X0.3583Y3.5039
X0.3583Y2.5118
X0.375Y2.225
X0.425Y2.9508
X0.525Y3.35
X0.5945Y3.5039
X0.5945Y2.5118
X0.675Y3.2
X0.675Y3.075
X0.75Y2.05
X0.775Y4.875
X0.775Y4.825
X0.775Y4.775
X0.775Y3.3
X0.8Y4.45
X0.8Y4.4
X0.8Y4.4
X0.8Y4.35
X0.8Y4.075
X0.8Y4.025
X0.8Y3.975
X0.8321Y3.3276
X0.8386Y3.5039
X0.8386Y2.5118
X0.95Y4.875
X0.95Y4.825
X0.95Y4.775
X0.95Y4.125
X0.95Y4.075
X0.95Y4.025
X0.9882Y3.3583
X0.9882Y3.126
X0.9882Y2.8858
X0.9882Y2.6535
T3
X-0.875Y2.675
X-0.775Y2.575
X-0.675Y2.675
X0.375Y2.3
X0.475Y2.4
X0.475Y2.2
X0.775Y3.7
X0.875Y3.8
X0.975Y3.7
T4
X-1.15Y2.2037
X-1.15Y2.125
X0.475Y2.075
X0.475Y1.9963
T5
X-1.175Y4.95
X-1.175Y4.85
X-1.075Y4.95
X-1.075Y4.85
X-0.975Y4.95
X-0.975Y4.85
X-0.875Y4.95
X-0.875Y4.85
X-0.775Y4.95
X-0.775Y4.85
X-0.675Y4.95
X-0.675Y4.85
T0
M30
